<?xml version="1.0" ?><svg height="18px" version="1.1" viewBox="0 0 16 18" width="16px" xmlns="http://www.w3.org/2000/svg" xmlns:sketch="http://www.bohemiancoding.com/sketch/ns" xmlns:xlink="http://www.w3.org/1999/xlink"><title/><desc/><defs/><g fill="none" fill-rule="evenodd" id="Page-1" stroke="none" stroke-width="1"><g fill="#000000" id="Core" transform="translate(-214.000000, -465.000000)"><g id="theaters" transform="translate(214.000000, 465.000000)"><path d="M14,0 L14,2 L12,2 L12,0 L4,0 L4,2 L2,2 L2,0 L0,0 L0,18 L2,18 L2,16 L4,16 L4,18 L12,18 L12,16 L14,16 L14,18 L16,18 L16,0 L14,0 L14,0 Z M4,14 L2,14 L2,12 L4,12 L4,14 L4,14 Z M4,10 L2,10 L2,8 L4,8 L4,10 L4,10 Z M4,6 L2,6 L2,4 L4,4 L4,6 L4,6 Z M14,14 L12,14 L12,12 L14,12 L14,14 L14,14 Z M14,10 L12,10 L12,8 L14,8 L14,10 L14,10 Z M14,6 L12,6 L12,4 L14,4 L14,6 L14,6 Z" id="Shape"/></g></g></g></svg>
