<?xml version="1.0" encoding="UTF-8"?>
<svg id="Layer_2" data-name="Layer 2" xmlns="http://www.w3.org/2000/svg" viewBox="0 0 496.13 60.44">
  <g id="Layer_1-2" data-name="Layer 1">
    <g>
      <path fill="#C4C4C4" d="M48.25,40.44c0,.57-.4,1.27-.9,1.55l-12.51,7.22v-27.86L10.72,7.43,23.23.21c.49-.29,1.3-.29,1.8,0l23.22,13.41v26.82ZM29.48,24.46L12.96,14.91c-.49-.28-1.3-.28-1.8,0L0,21.36l17.42,10.06v20.12s11.16-6.45,11.16-6.45c.49-.29.9-.99.9-1.56v-19.08ZM0,41.48l12.05,6.96v-13.93L0,41.48Z"/>
      <g>
        <path fill="#C4C4C4" d="M74.82,13.61h-13.15v35.6h5.83v-13.97h7.36c7.96,0,12.35-3.89,12.35-10.96,0-3.21-1.21-10.67-12.4-10.67M81.29,24.38c0,4.01-2.08,5.65-7.19,5.65h-6.59v-11.16h7.36c4.32,0,6.42,1.8,6.42,5.51M104.58,23.28l.44.21-.99,5.26-.68-.21c-.56-.17-1.12-.26-1.69-.26-5.45,0-5.89,4.34-5.89,9.59v11.34h-5.4v-26.14h5.07v3.15c1.38-2.12,3.05-3.22,5.24-3.48,1.44-.17,2.84.03,3.91.54M117.86,22.54c-4.25,0-7.66,1.62-9.85,4.68-2.3,3.22-2.64,7-2.64,8.96,0,8.26,4.9,13.6,12.49,13.6,9.22,0,12.49-7.43,12.49-13.79,0-3.66-1.09-6.98-3.05-9.35-2.23-2.68-5.49-4.1-9.44-4.1M117.86,44.96c-4.23,0-6.85-3.36-6.85-8.77s2.63-8.87,6.85-8.87,6.9,3.44,6.9,8.77-2.65,8.87-6.9,8.87M175.75,23.28l.44.21-.99,5.26-.68-.21c-.56-.17-1.12-.26-1.68-.26-5.45,0-5.89,4.34-5.89,9.59v11.34h-5.4v-26.14h5.07v3.15c1.38-2.12,3.05-3.22,5.24-3.48,1.44-.17,2.84.03,3.9.54M195.15,40.83l-.1.29c-1.13,3.21-3.82,3.89-5.89,3.89-4.09,0-6.72-2.71-6.97-7.12h18.48l.07-.51c.08-.6.07-1.46.06-2.08,0-.17,0-.32,0-.47-.27-7.32-5.04-12.23-11.87-12.23-3.99,0-7.26,1.57-9.46,4.54-1.78,2.4-2.8,5.72-2.8,9.11,0,8.08,5.02,13.51,12.5,13.51,5.78,0,9.76-2.94,11.22-8.27l.17-.64h-5.4ZM182.37,33.2c.45-3.62,2.93-5.92,6.46-5.92,2.69,0,5.88,1.57,6.33,5.92h-12.79ZM151.7,25.27c-1.74-1.81-4.07-2.72-6.95-2.72-7.93,0-11.53,6.97-11.53,13.45s3.57,13.36,11.53,13.36c2.66,0,5.03-.98,6.74-2.74-.02,1.15-.05,2.25-.08,2.72-.29,4.31-2.37,6.32-6.52,6.32-2.26,0-4.85-.8-5.35-3.05l-.11-.5h-5.32s.09.71.09.71c.56,4.61,4.6,7.47,10.56,7.47,5.22,0,8.94-1.97,10.75-5.69.87-1.79,1.31-4.41,1.31-7.77v-23.77h-5.11v2.19ZM145.09,44.53c-1.89,0-6.28-.86-6.28-8.77,0-5.2,2.46-8.44,6.42-8.44,3.06,0,6.33,2.22,6.33,8.44,0,5.49-2.42,8.77-6.47,8.77M225.75,41.34c0,4.16-3.45,8.35-11.16,8.35-6.82,0-10.88-2.95-11.42-8.31l-.06-.55h5.32l.08.4c.65,3.22,3.72,3.9,6.18,3.9,2.7,0,5.58-.87,5.58-3.31,0-1.23-.8-2.11-2.39-2.6-.94-.28-2.09-.6-3.32-.95-2.1-.59-4.28-1.2-5.62-1.66-3.32-1.19-5.22-3.5-5.22-6.35,0-5.27,5.13-7.63,10.21-7.63,6.8,0,10.32,2.56,10.76,7.83l.04.54h-5.24s-.07-.42-.07-.42c-.53-3.03-3.54-3.48-5.29-3.48-1.51,0-5.03.27-5.03,2.78,0,1.14.97,1.98,2.98,2.56.6.17,1.49.4,2.51.66,2.13.55,4.79,1.24,6.13,1.7,3.33,1.17,5.02,3.37,5.02,6.54M250.7,41.34c0,4.16-3.45,8.35-11.16,8.35-6.82,0-10.88-2.95-11.42-8.31l-.06-.55h5.32l.08.4c.65,3.22,3.72,3.9,6.18,3.9,2.7,0,5.58-.87,5.58-3.31,0-1.23-.8-2.11-2.39-2.6-.94-.28-2.1-.6-3.32-.95-2.1-.59-4.28-1.2-5.61-1.66-3.32-1.19-5.22-3.5-5.22-6.35,0-5.27,5.13-7.63,10.21-7.63,6.8,0,10.32,2.56,10.76,7.83l.05.54h-5.24s-.07-.42-.07-.42c-.53-3.03-3.54-3.48-5.29-3.48-1.51,0-5.03.27-5.03,2.78,0,1.14.97,1.98,2.98,2.56.6.17,1.49.4,2.52.66,2.13.55,4.79,1.24,6.13,1.7,3.33,1.17,5.02,3.37,5.02,6.54"/>
        <path fill="#C4C4C4" d="M254.97,25.88c-2.01,0-3.68-1.57-3.68-3.72s1.67-3.72,3.68-3.72,3.68,1.57,3.68,3.72-1.67,3.72-3.68,3.72M254.97,19.06c-1.67,0-3.01,1.28-3.01,3.09s1.34,3.09,3.01,3.09,3.01-1.28,3.01-3.09-1.34-3.09-3.01-3.09M254.54,22.84v1.24h-1.1v-3.91h1.83c.87,0,1.44.51,1.44,1.36,0,.61-.29,1.02-.75,1.18l.89,1.36h-1.22l-.75-1.24h-.35ZM255.15,21.09h-.61v.87h.61c.33,0,.51-.16.51-.43s-.18-.45-.51-.45"/>
      </g>
      <rect fill="#C4C4C4" x="280.79" y="7.18" width=".75" height="53.26"/>
      <g>
        <g>
          <path fill="#C4C4C4" d="M459.58,28.36h-2l1.52-5.59h6.76v16.83h2l-1.45,5.59h-6.76v-16.83h-.07ZM459.1,16.08c0-1.93,1.52-3.45,3.45-3.45s3.45,1.52,3.45,3.45-1.52,3.45-3.45,3.45h0c-1.86,0-3.45-1.45-3.45-3.31v-.14Z"/>
          <path fill="#C4C4C4" d="M469.58,33.94c0-6.76,4.69-11.86,10.9-11.86,2.97-.14,5.86,1.31,7.52,3.79v-3.17h6.14v16.9h2l-1.52,5.59h-6.62v-7.66l-1.93,6.48c-1.59,1.17-3.59,1.86-5.59,1.79-6.28,0-10.97-5.03-10.97-11.86h.07ZM488.06,33.87c0-3.31-2.69-6-6-6s-6,2.69-6,6,2.69,6,6,6,6-2.69,6-6h0Z"/>
          <path fill="#C4C4C4" d="M385.23,21.74c-2.28,0-4.48.69-6.21,2.14v-1.66h-6.21v22.9h6.69v-13.31c-.14-2.07,1.45-3.86,3.52-4h.34c2.28,0,3.86,1.59,3.86,4v13.31h6.69v-14.14c0-5.66-3.45-9.24-8.69-9.24Z"/>
          <path fill="#C4C4C4" d="M412.41,35.53c.14,2.07-1.45,3.79-3.45,3.93h-.34c-2.07.07-3.86-1.52-3.93-3.59v-13.59h-6.69v12.76c0,6.28,4.34,10.62,10.62,10.62s10.55-4.34,10.55-10.69v-12.76h-6.69v13.24l-.07.07Z"/>
          <path fill="#C4C4C4" d="M439.51,36.43c-1.52,2.14-3.03,3.03-5.1,3.03-3.24,0-5.52-2.41-5.52-5.79s2.34-5.79,5.52-5.79,3.66.97,5.1,3.1l.21.28,4.69-3.66-.14-.21c-2-3.59-5.86-5.79-9.93-5.66-6.83,0-12.21,5.24-12.21,11.93s5.38,12,12,12h.28c4.14.14,7.93-2.07,9.93-5.66l.14-.21-4.69-3.59-.21.28-.07-.07Z"/>
          <rect fill="#C4C4C4" x="447.3" y="10.77" width="6.69" height="34.34"/>
        </g>
        <path fill="#C4C4C4" d="M351.24,16.85l-21.78-12.2h-.11l-21.89,12.03s-.06.11,0,.17h0l20.24,11.23h.11c1.03-.57,2.28-.57,3.25.06h.11l20.07-11.12s.06-.11,0-.17h0Z"/>
        <path fill="#C4C4C4" d="M332.49,30.7v.06c0,1.14-.63,2.17-1.6,2.74v23.49c0,.06,0,.11.11.11h0l21.78-12.08v-25.42s0-.11-.11-.11h-.06l-20.24,11.23h.11Z"/>
        <path fill="#C4C4C4" d="M328.04,33.67v23.37s0,.11-.11.11h0l-22-12.26s0-.06-.06-.11v-25.42c0-.06,0-.11.11-.11h0l20.24,11.23v.23c0,1.2.68,2.28,1.77,2.79v.11l.06.06Z"/>
      </g>
    </g>
  </g>
</svg>