<?xml version="1.0" ?><svg id="Layer_1" style="enable-background:new 0 0 512 512;" version="1.1" width="30px" height="30px" viewBox="0 0 512 512" xml:space="preserve" xmlns="http://www.w3.org/2000/svg" xmlns:xlink="http://www.w3.org/1999/xlink"><style type="text/css">
	.st0{fill:#F1F1F2;}
	.st1{fill:#D0D2D3;}
	.st2{fill:#E95935;}
	.st3{fill:#E94921;}
	.st4{fill:#C43E1C;}
	.st5{fill:#FFFFFF;}
</style><title/><g><g><path class="st0" d="M363.8,103.7v304.6c0,14.8-12,26.9-26.9,26.9H140.5c-14.8,0-26.9-12-26.9-26.9V163.9l87.1-87.1h136.1    C351.8,76.8,363.8,88.8,363.8,103.7z"/></g><g><path class="st1" d="M113.7,163.9l87.1-87.1v60.4c0,14.8-12,26.8-26.8,26.8H113.7z"/></g><g><polygon class="st1" points="363.8,309.1 363.8,400.4 196.6,400.4 140.2,385.4 113.7,385.4 113.7,324.1 140.2,324.1 140.2,324     196.6,309.1   "/></g><g><g><path class="st2" d="M390.7,389.6H196.6v-91.3h194.1c11.9,0,21.6,9.7,21.6,21.6V368C412.3,379.9,402.7,389.6,390.7,389.6z"/></g><g><polygon class="st3" points="196.6,389.6 140.2,374.6 140.2,313.2 196.6,298.3    "/></g><g><rect class="st2" height="61.4" width="40.5" x="99.7" y="313.3"/></g><g><polygon class="st4" points="99.7,313.3 113.7,304.9 113.7,313.3    "/></g><g><polygon class="st4" points="99.7,374.6 113.7,383 113.7,374.6    "/></g></g><g><path class="st5" d="M235.8,374.3v-58.4h19.1c2.3,0,4.4,0.1,6.2,0.2c1.8,0.1,3.4,0.4,4.8,0.7c1.4,0.4,2.7,0.8,3.8,1.4    c1.1,0.6,2.2,1.2,3.2,2.1c2.2,1.8,3.9,4.1,5.1,6.7c1.2,2.7,1.8,5.6,1.8,8.8c0,3-0.6,5.8-1.7,8.5c-1.1,2.7-2.6,4.9-4.5,6.7    c-2,1.9-4.3,3.2-6.9,3.9c-2.6,0.8-6,1.1-10.2,1.1h-6.4v18.3H235.8z M250.1,342.9h6c6.2,0,9.3-2.3,9.3-6.9c0-2.5-0.8-4.2-2.3-5.3    c-1.5-1.1-4.1-1.6-7.6-1.6h-5.4V342.9z"/><path class="st5" d="M286.4,374.3v-58.4h19.6c2.2,0,4.2,0.1,5.9,0.2c1.7,0.1,3.3,0.4,4.7,0.7c1.4,0.3,2.8,0.8,4,1.3    c1.3,0.6,2.5,1.2,3.7,2c2.7,1.7,5.1,3.9,7.1,6.7c3.6,5,5.3,11,5.3,18c0,4.4-0.7,8.5-2,12.1c-1.3,3.6-3.2,6.7-5.6,9.3    c-2.4,2.6-5.3,4.6-8.7,6c-3.4,1.4-7.2,2.1-11.3,2.1H286.4z M301.3,361.2h6.4c4.7,0,8.2-1.4,10.6-4.1c2.4-2.7,3.6-6.6,3.6-11.8    c0-5.3-1.2-9.3-3.7-12.1s-6-4.2-10.5-4.2h-6.5V361.2z"/><path class="st5" d="M344.4,374.3v-58.4h31.9v13.1h-17.6v9.9h17v13.1h-17v22.2H344.4z"/></g></g></svg>
