<svg width="29" height="35" viewBox="0 0 29 35" fill="none" xmlns="http://www.w3.org/2000/svg">
<path d="M 26.825084,0.17859221 H 1.9711541 c -0.45794,0 -0.89721,0.18153 -1.22154995,0.50482 -0.32434,0.32328999 -0.5073,0.76195999 -0.50879,1.21989999 V 33.094272 c 0,0.4575 0.18171,0.8962 0.50516,1.2196 0.32344995,0.3235 0.76213995,0.5052 1.21955995,0.5052 H 18.532984 c 1.182,-0.061 2.3113,-0.5091 3.2135,-1.2753 l 5.4438,-5.1236 c 0.8169,-0.8442 1.2999,-1.956 1.3595,-3.1292 V 1.9033122 c 0,-0.45742 -0.1817,-0.89611 -0.5051,-1.21955999 -0.3235,-0.32345 -0.7622,-0.50516 -1.2196,-0.50516 z m -0.0674,27.19097979 c -0.0784,0.1075 -0.1648,0.2089 -0.2584,0.3034 l -5.4439,5.1236 c -0.1388,0.1272 -0.2914,0.2383 -0.455,0.3315 l -0.3371,0.2078 v -4.8764 c 0.0013,-0.3812 0.1527,-0.7465 0.4214,-1.0168 0.1329,-0.1343 0.2913,-0.2408 0.4659,-0.3131 0.1746,-0.0724 0.3619,-0.1092 0.5509,-0.1083 h 5.3146 z m 0.7753,-2.0786 c -0.0016,0.1895 -0.0261,0.3781 -0.0731,0.5618 l -0.0393,0.1741 h -5.7191 c -0.6507,0.0015 -1.2742,0.2607 -1.7343,0.7207 -0.4601,0.4601 -0.7193,1.0837 -0.7207,1.7344 v 5.2359 l -0.1798,0.0338 c -0.1753,0.039 -0.3542,0.0597 -0.5337,0.0617 H 1.9711541 c -0.09391,10e-5 -0.18689,-0.0186 -0.27351,-0.0549 -0.08662,-0.0363 -0.16516,-0.0894 -0.23104,-0.1563 -0.06588,-0.067 -0.11779,-0.1463 -0.15269,-0.2335 -0.03491,-0.0872 -0.05212,-0.1805 -0.05062,-0.2744 V 1.9033122 c 0.00289,-0.18683 0.0784,-0.3652 0.21053,-0.49733 0.13213,-0.13213 0.3105,-0.20764 0.49733,-0.21053 H 26.825084 c 0.1868,0.00289 0.3652,0.0784 0.4973,0.21053 0.1322,0.13213 0.2077,0.3105 0.2106,0.49733 z" fill="#f91919" />
<path d="m 5.9767841,12.706672 h 1.4101 l 0.1292,0.5618 h 0.0393 c 0.458,-0.4324 1.0562,-0.6857 1.6854,-0.7135 1.4157999,0 2.2865999,1.1686 2.2865999,2.9719 0,2.0113 -1.1967,3.163 -2.4662999,3.163 -0.5257,-0.0184 -1.0243,-0.2376 -1.3933,-0.6124 l 0.0562,0.927 v 1.7303 h -1.7472 z m 3.7528,2.854 c 0,-1.0506 -0.3258,-1.5787 -1.0168,-1.5787 -0.1958,0.0103 -0.3871,0.0628 -0.5606,0.154 -0.1736,0.0911 -0.3254,0.2188 -0.4451,0.3741 v 2.3989 c 0.254,0.2351 0.5865,0.3673 0.9326,0.3708 0.6068,0 1.0899,-0.5113 1.0899,-1.7191 z" fill="#f91919" />
<path d="m 12.375584,15.633672 c 0,-1.9101 1.191,-3.0674 2.427,-3.0674 0.2679,-0.0047 0.5339,0.0468 0.7806,0.1514 0.2468,0.1045 0.4689,0.2596 0.652,0.4553 l -0.045,-0.8652 v -2.0112 h 1.736 v 8.264 h -1.4326 l -0.1236,-0.5618 h -0.045 c -0.407,0.4317 -0.9638,0.691 -1.5561,0.7248 -1.4551,-0.0225 -2.3933,-1.1798 -2.3933,-3.0899 z m 3.7978,1.1236 v -2.4045 c -0.2658,-0.2366 -0.6106,-0.3649 -0.9663,-0.3596 -0.5618,0 -1.0562,0.5225 -1.0562,1.6349 0,1.1123 0.3989,1.6853 1.0674,1.6853 0.1965,4e-4 0.3896,-0.0507 0.5602,-0.1483 0.1705,-0.0976 0.3125,-0.2382 0.4117,-0.4078 z" fill="#f91919" />
<path d="m 18.898184,12.774072 0.8764,-0.0674 h 2.6854 v 1.3596 h -3.5618 z m 0.7753,-0.3708 c 0,-1.2359 0.5618,-2.2472 2.1573,-2.2472 0.3967,0.0014 0.7902,0.0717 1.1629,0.2079 l -0.309,1.2809 c -0.1929,-0.0783 -0.3986,-0.1202 -0.6067,-0.1236 -0.427,0 -0.6686,0.2304 -0.6686,0.8371 v 6.2022 h -1.7359 z" fill="#f91919" />
</svg>
