<?xml version="1.0" encoding="utf-8"?>
<!-- Generator: Adobe Illustrator 25.0.0, SVG Export Plug-In . SVG Version: 6.00 Build 0)  -->
<svg version="1.1" id="Layer_1" xmlns="http://www.w3.org/2000/svg" xmlns:xlink="http://www.w3.org/1999/xlink" x="0px" y="0px"
	 viewBox="0 0 30 30" width="30px" height="30px" style="enable-background:new 0 0 30 30;" xml:space="preserve">
<g>
	<path d="M17.9,7.5c-0.9,0-1.8,0.4-2.4,1l-3.4,3.4c-0.2,0.2-0.3,0.3-0.4,0.5c-0.2,0.1-0.4,0.3-0.5,0.4l-3.4,3.4
		c-0.7,0.7-1,1.5-1,2.4s0.4,1.8,1,2.4c0.7,0.7,1.5,1,2.4,1s1.8-0.4,2.4-1l3.4-3.4c0.2-0.2,0.3-0.3,0.4-0.5c0.2-0.1,0.4-0.3,0.5-0.4
		l3.4-3.4c0.7-0.7,1-1.5,1-2.4c0-0.9-0.4-1.8-1-2.4C19.7,7.9,18.8,7.5,17.9,7.5z M10.2,21.6c-0.8,0-1.5-0.3-2-0.8
		c-0.5-0.5-0.8-1.3-0.8-2s0.3-1.5,0.8-2l3.4-3.4c0.1-0.1,0.3-0.3,0.5-0.4c0.5-0.3,1-0.4,1.6-0.4c0.3,0,0.7,0.1,1,0.2
		c0.4,0.1,0.8,0.4,1.1,0.7c0.3,0.3,0.5,0.6,0.6,0.9l-0.9,0.9c0,0-0.1,0.1-0.1,0.1c0-0.4-0.2-0.8-0.5-1c-0.1-0.1-0.3-0.2-0.5-0.3
		c-0.3-0.2-0.7-0.2-1.1-0.1c0,0-0.1,0-0.1,0c-0.3,0.1-0.5,0.2-0.7,0.4L9,17.5c-0.3,0.3-0.5,0.7-0.5,1.2c0,0.4,0.2,0.9,0.5,1.2
		c0.1,0.1,0.3,0.2,0.5,0.3c0.2,0.1,0.5,0.2,0.7,0.2c0.4,0,0.9-0.2,1.2-0.5l2.2-2.2c0.5,0.2,1.1,0.2,1.7,0.1l-3,3
		C11.7,21.3,10.9,21.6,10.2,21.6z M17.1,10.2c0.2-0.2,0.5-0.3,0.8-0.3c0.3,0,0.6,0.1,0.8,0.3c0.2,0.2,0.3,0.5,0.3,0.8
		c0,0.3-0.1,0.6-0.3,0.8l-2,2c-0.2-0.3-0.4-0.6-0.6-0.9c-0.3-0.3-0.6-0.5-0.9-0.6L17.1,10.2z M14.6,15.4c-0.3,0-0.6-0.1-0.9-0.3
		c-0.2-0.2-0.3-0.5-0.3-0.9c0.2,0,0.4,0,0.6,0.1c0.1,0.1,0.2,0.1,0.3,0.2C14.5,14.8,14.6,15.1,14.6,15.4z M10.9,19.5
		c-0.3,0.3-0.8,0.4-1.2,0.2c-0.1-0.1-0.2-0.1-0.3-0.2c-0.2-0.2-0.3-0.5-0.3-0.8c0-0.3,0.1-0.6,0.3-0.8l2-2c0.2,0.3,0.4,0.6,0.6,0.9
		c0.3,0.3,0.6,0.5,0.9,0.6L10.9,19.5z M12.5,16.4c-0.3-0.3-0.5-0.6-0.6-0.9l0.9-0.9c0,0,0.1-0.1,0.1-0.1c0,0.4,0.2,0.8,0.5,1
		c0.2,0.2,0.5,0.4,0.9,0.4c0.3,0.1,0.7,0,1-0.1c0.2-0.1,0.3-0.2,0.5-0.3l3.4-3.4c0.3-0.3,0.5-0.7,0.5-1.2c0-0.4-0.2-0.9-0.5-1.2
		c-0.3-0.3-0.7-0.5-1.2-0.5S17,9.5,16.7,9.8L14.5,12c-0.5-0.2-1.1-0.2-1.7-0.1l3-3c0.5-0.5,1.3-0.8,2-0.8c0.8,0,1.5,0.3,2,0.8
		c0.5,0.5,0.8,1.3,0.8,2c0,0.8-0.3,1.5-0.8,2l-3.4,3.4c-0.1,0.1-0.3,0.3-0.5,0.4c-0.5,0.3-1,0.4-1.6,0.4c-0.3,0-0.7-0.1-1-0.2
		C13.1,16.9,12.8,16.7,12.5,16.4z"/>
	<path d="M13.8,1.2C6.2,1.2,0,7.4,0,15c0,7.6,6.2,13.8,13.8,13.8S27.5,22.5,27.5,15C27.5,7.4,21.4,1.2,13.8,1.2z M26.9,15
		c0,7.2-5.9,13.1-13.1,13.1S0.7,22.2,0.7,15S6.5,1.9,13.8,1.9S26.9,7.7,26.9,15z"/>
</g>
</svg>
