<svg width="29" height="35" viewBox="0 0 29 35" fill="none" xmlns="http://www.w3.org/2000/svg">
<path fill-rule="evenodd" clip-rule="evenodd" d="M26.5843 0H1.73034C1.27239 -2.41361e-06 0.833126 0.181529 0.508786 0.504816C0.184446 0.828103 0.00148683 1.26678 0 1.72472V32.9157C0 33.3731 0.181711 33.8118 0.505158 34.1353C0.828606 34.4587 1.2673 34.6404 1.72472 34.6404H18.2921C19.4742 34.5795 20.6034 34.1314 21.5056 33.3652L26.9494 28.2416C27.7664 27.3974 28.2494 26.2856 28.309 25.1124V1.72472C28.309 1.26729 28.1273 0.828606 27.8038 0.505159C27.4804 0.181711 27.0417 0 26.5843 0ZM26.5169 27.191C26.4385 27.2985 26.3521 27.3999 26.2584 27.4944L20.8146 32.618C20.6758 32.7451 20.5232 32.8563 20.3596 32.9494L20.0225 33.1573V28.2809C20.0238 27.8997 20.1751 27.5344 20.4438 27.264C20.5768 27.1297 20.7352 27.0233 20.9098 26.9509C21.0844 26.8786 21.2717 26.8418 21.4607 26.8427H26.7753L26.5169 27.191ZM27.2921 25.1124C27.2906 25.3019 27.266 25.4905 27.2191 25.6742L27.1798 25.8483H21.4607C20.81 25.8498 20.1864 26.1089 19.7263 26.569C19.2662 27.0291 19.0071 27.6527 19.0056 28.3034V33.5393L18.8258 33.573C18.6506 33.6121 18.4717 33.6328 18.2921 33.6348H1.73034C1.63643 33.6348 1.54345 33.6162 1.45683 33.5799C1.37021 33.5436 1.29167 33.4905 1.22579 33.4235C1.15991 33.3566 1.108 33.2773 1.0731 33.1901C1.03819 33.1029 1.02098 33.0096 1.02247 32.9157V1.72472C1.02537 1.53788 1.10088 1.35951 1.23301 1.22739C1.36513 1.09526 1.5435 1.01975 1.73034 1.01685H26.5843C26.7711 1.01975 26.9495 1.09526 27.0816 1.22739C27.2137 1.35951 27.2892 1.53788 27.2921 1.72472V25.1124ZM5.79214 15.3315L4.10674 12.5225H5.96629L6.48315 13.4663C6.53686 13.5737 6.59118 13.6836 6.64591 13.7943L6.64639 13.7952L6.64648 13.7954L6.64649 13.7954L6.64649 13.7954L6.6465 13.7955C6.75759 14.0202 6.87037 14.2482 6.98315 14.4663H7.02809C7.08987 14.3034 7.15867 14.1349 7.22748 13.9664L7.22749 13.9664L7.22753 13.9663L7.22754 13.9662L7.22756 13.9662C7.29637 13.7977 7.36518 13.6292 7.42697 13.4663L7.82584 12.5225H9.61798L7.93258 15.5281L9.73034 18.3764H7.86517L7.30337 17.4045C7.23298 17.2786 7.1634 17.1495 7.0934 17.0197C6.97903 16.8075 6.86355 16.5932 6.74157 16.3876H6.69663C6.54494 16.7191 6.39326 17.0618 6.24157 17.4045L5.78652 18.3764H4L5.79214 15.3315ZM18.7079 12.5225L20.3933 15.3315L18.6012 18.3764H20.3877L20.8428 17.4045L20.8429 17.4043L20.8429 17.4042L20.8429 17.4042C20.9945 17.0616 21.1462 16.719 21.2978 16.3876H21.3428C21.4647 16.5932 21.5802 16.8075 21.6946 17.0197L21.6947 17.0198L21.695 17.0205C21.7649 17.1501 21.8343 17.2789 21.9046 17.4045L22.4664 18.3764H24.3315L22.5338 15.5281L24.2192 12.5225H22.427L22.0282 13.4663C21.9664 13.6291 21.8976 13.7976 21.8288 13.9661L21.8287 13.9663L21.8287 13.9663L21.8287 13.9664C21.7599 14.1349 21.6911 14.3034 21.6293 14.4663H21.5843C21.4717 14.2485 21.3591 14.0207 21.2481 13.7962L21.2478 13.7956L21.2477 13.7954C21.1927 13.6843 21.1382 13.5741 21.0843 13.4663L20.5675 12.5225H18.7079ZM10.781 16.5618V10.118H12.517V16.6236C12.517 16.9944 12.6911 17.1124 12.8316 17.1124C12.9024 17.1218 12.9742 17.1218 13.045 17.1124L13.2473 18.3876C12.9719 18.4949 12.6775 18.5446 12.3821 18.5337C11.1911 18.5225 10.781 17.7472 10.781 16.5618ZM14.3596 16.6236L13.5787 17.7022C14.2218 18.211 15.0119 18.4987 15.8315 18.5225C17.399 18.5225 18.236 17.7079 18.236 16.6348C18.236 15.5618 17.4046 15.1461 16.663 14.8708C16.0675 14.6517 15.5057 14.427 15.5057 14.1348C15.5057 13.8427 15.7248 13.6685 16.1742 13.6685C16.6266 13.7021 17.057 13.877 17.4046 14.1685L18.1855 13.1292C17.6019 12.6558 16.8751 12.3944 16.1237 12.3876C14.7641 12.3876 13.8765 13.1292 13.8765 14.2191C13.8765 15.1854 14.7079 15.6629 15.4271 15.9382C15.4794 15.958 15.5312 15.9773 15.5823 15.9964C16.1409 16.2049 16.6124 16.3808 16.6124 16.736C16.6124 17.0393 16.3877 17.2359 15.8709 17.2359C15.3139 17.2019 14.7832 16.9869 14.3596 16.6236Z" fill="#0CAD55"/>
</svg>
