<?xml version="1.0" encoding="utf-8"?>
<!-- Generator: Adobe Illustrator 25.0.0, SVG Export Plug-In . SVG Version: 6.00 Build 0)  -->
<svg version="1.1" id="Capa_1" xmlns="http://www.w3.org/2000/svg" xmlns:xlink="http://www.w3.org/1999/xlink" x="0px" y="0px"
	 viewBox="0 0 30 30" width="30px" height="30px" style="enable-background:new 0 0 30 30;" xml:space="preserve">
<g>
	<g>
		<path d="M7.6,21.6l2.9-4.5H7.9v-1.3h4.5v0.9l-2.9,4.5h3v1.3H7.6V21.6z"/>
		<path d="M13.4,15.8h1.5v6.7h-1.5V15.8z"/>
		<path d="M16.5,15.8h2.3c1.5,0,2.6,0.5,2.6,2.1s-1.2,2.3-2.6,2.3H18v2.3h-1.5V15.8z M18.7,19c0.8,0,1.2-0.4,1.2-1.1
			S19.5,17,18.6,17h-0.7v2H18.7z"/>
	</g>
	<path d="M27.7,13.5h-0.9V8.2c0-0.9-0.5-2.1-1.2-2.7l-4.7-4.4C20.2,0.5,19,0,18.1,0H3.7C2.9,0,2.2,0.7,2.2,1.5v1.1v2v0.9v8H1.3
		c-0.7,0-1.3,0.6-1.3,1.3v8.8c0,0.7,0.6,1.3,1.3,1.3h0.9v3.6c0,0.8,0.7,1.5,1.5,1.5h21.5c0.8,0,1.5-0.7,1.5-1.5v-3.6h0.9
		c0.7,0,1.3-0.6,1.3-1.3v-8.8C28.9,14.1,28.4,13.5,27.7,13.5z M19.5,1.2l0.4,0.2c0.2,0.1,0.3,0.3,0.4,0.4L25,6.2
		c0.1,0.1,0.2,0.2,0.3,0.3l0.1,0.3h-4.6c-0.3,0-0.6-0.1-0.9-0.4c-0.2-0.2-0.4-0.5-0.4-0.9V1.2z M3.1,1.5c0-0.2,0.1-0.3,0.2-0.4
		s0.3-0.2,0.4-0.2H18c0.1,0,0.3,0,0.5,0.1l0.2,0v4.5c0,1.2,1,2.1,2.1,2.1h5l0.1,0c0,0.2,0,0.5,0,0.7v5.3H3.1V1.5z M25.9,28.5
		c0,0.3-0.3,0.6-0.6,0.6H3.7c-0.3,0-0.6-0.3-0.6-0.6v-3.6h22.8V28.5z M28.1,23.6c0,0.2-0.2,0.4-0.4,0.4H1.3c-0.2,0-0.4-0.2-0.4-0.4
		v-8.8c0-0.2,0.2-0.4,0.4-0.4h26.4c0.2,0,0.4,0.2,0.4,0.4C28.1,14.8,28.1,23.6,28.1,23.6z"/>
</g>
</svg>
