<svg width="0" height="0" class="hidden">
<symbol xmlns="http://www.w3.org/2000/svg" viewBox="0 0 24 24" id="grid"><path fill-rule="evenodd" clip-rule="evenodd" d="M5.14286 7.42857H7.42857V5.14286H5.14286V7.42857ZM4 8.57143H8.57143V4H4V8.57143ZM10.8571 7.42857H13.1429V5.14286H10.8571V7.42857ZM9.71429 8.57143H14.2857V4H9.71429V8.57143ZM16.5714 7.42857H18.8571V5.14286H16.5714V7.42857ZM15.4286 8.57143H20V4H15.4286V8.57143ZM5.14286 13.1429H7.42857V10.8571H5.14286V13.1429ZM4 14.2857H8.57143V9.71429H4V14.2857ZM10.8571 13.1429H13.1429V10.8571H10.8571V13.1429ZM9.71429 14.2857H14.2857V9.71429H9.71429V14.2857ZM16.5714 13.1429H18.8571V10.8571H16.5714V13.1429ZM15.4286 14.2857H20V9.71429H15.4286V14.2857ZM5.14286 18.8571H7.42857V16.5714H5.14286V18.8571ZM4 20H8.57143V15.4286H4V20ZM10.8571 18.8571H13.1429V16.5714H10.8571V18.8571ZM9.71429 20H14.2857V15.4286H9.71429V20ZM16.5714 18.8571H18.8571V16.5714H16.5714V18.8571ZM15.4286 20H20V15.4286H15.4286V20Z" /> </symbol>
<symbol xmlns="http://www.w3.org/2000/svg" viewBox="0 0 24 24" id="search"><path d="m20 18.591-3.32-3.32a6.891 6.891 0 0 0 1.408-4.227A7.003 7.003 0 0 0 11.044 4 7 7 0 0 0 4 11.044a7 7 0 0 0 7.044 7.044 6.891 6.891 0 0 0 4.226-1.409L18.591 20 20 18.591ZM6.013 11.044a4.982 4.982 0 0 1 5.031-5.031 4.982 4.982 0 0 1 5.032 5.031 4.98 4.98 0 0 1-5.032 5.032 4.98 4.98 0 0 1-5.031-5.032Z" /> </symbol>
<symbol xmlns="http://www.w3.org/2000/svg" viewBox="0 0 24 24" id="payment"><path fill-rule="evenodd" d="M20 18H4a.667.667 0 0 1-.667-.667v-6h17.334v6A.667.667 0 0 1 20 18ZM4 6h16c.368 0 .667.298.667.667v2H3.333v-2C3.333 6.298 3.632 6 4 6Zm16-1.333H4c-1.103 0-2 .897-2 2v10.666c0 1.103.897 2 2 2h16c1.103 0 2-.897 2-2V6.667c0-1.103-.897-2-2-2Z" clip-rule="evenodd" /> </symbol>
<symbol xmlns="http://www.w3.org/2000/svg" viewBox="0 0 24 24" id="arrow-down"><path fill-rule="evenodd" d="m19.529 11.529-6.862 6.862V3.333h-1.334v15.058l-6.862-6.862-.942.942L12 20.943l8.471-8.472-.942-.942Z" clip-rule="evenodd" /> </symbol>
<symbol xmlns="http://www.w3.org/2000/svg" viewBox="0 0 24 24" id="chevrons-right"><path fill-rule="evenodd" d="M13.293 18.414 11.879 17l5.293-5.293-5.293-5.293L13.293 5 20 11.707l-6.707 6.707Z" clip-rule="evenodd" />  <path fill-rule="evenodd" d="M7.293 18.414 5.879 17l5.293-5.293-5.293-5.293L7.293 5 14 11.707l-6.707 6.707Z" clip-rule="evenodd" /> </symbol>
<symbol xmlns="http://www.w3.org/2000/svg" viewBox="0 0 24 24" id="list"><path fill-rule="evenodd" d="M9.333 7.333h10V6h-10v1.333Zm0 5.334h10v-1.333h-10v1.333Zm0 5.333h10v-1.334h-10V18Zm-4-4.39L3.53 11.805l.942-.943.862.862L7.53 9.53l.942.943-3.138 3.138Zm0-5.334L3.53 6.471l.942-.942.862.862L7.53 4.195l.942.943-3.138 3.138Zm0 10.666L3.53 17.139l.942-.943.862.862 2.196-2.195.942.943-3.138 3.137Z" clip-rule="evenodd" /> </symbol>
<symbol xmlns="http://www.w3.org/2000/svg" viewBox="0 0 24 24" id="lock-off"><path fill-rule="evenodd" d="m7.848 5.875-1.184-.61a5.97 5.97 0 0 0-.506 1.366l1.298.305c.086-.367.218-.723.392-1.061ZM7.483 4.06l1.004.878c.25-.286.533-.541.843-.759l-.766-1.09a6.04 6.04 0 0 0-1.081.971Zm9.056 2.859 1.297-.31a5.937 5.937 0 0 0-.51-1.365l-1.183.616c.175.337.309.693.396 1.059Zm-5.113-3.55-.164-1.323c-.485.06-.96.18-1.415.355l.482 1.244a4.55 4.55 0 0 1 1.097-.276Zm5.077.675a6.04 6.04 0 0 0-1.084-.969l-.762 1.094c.31.216.594.47.846.756l1-.881Zm-3.946-.678a4.69 4.69 0 0 1 1.1.272l.475-1.245a5.963 5.963 0 0 0-1.415-.35l-.16 1.323Zm4.11 5.982H18V8.05h-1.333v1.298ZM12 15.666a1 1 0 1 0 0-2 1 1 0 0 0 0 2ZM11.333 18h1.334v-1.334h-1.334V18ZM18 22h1.333v-1.334H18V22ZM7.333 22h1.334v-1.334H7.333V22Zm8 0h1.334v-1.334h-1.334V22Zm-2.666 0H14v-1.334h-1.333V22ZM10 22h1.334v-1.334H10V22Zm-5.333 0H6v-1.334H4.667V22Zm0-2.667H6V18H4.667v1.333Zm0-5.333H6v-1.334H4.667V14Zm0 2.666H6v-1.333H4.667v1.333Zm0-5.333H6V10H4.667v1.333Zm5.333 0h1.333V10H10v1.333Zm-2.667 0h1.334V10H7.333v1.333Zm8 0h1.334V10h-1.334v1.333Zm-2.666 0H14V10h-1.333v1.333Zm5.333 0h1.333V10H18v1.333Zm0 8h1.333V18H18v1.333ZM18 14h1.333v-1.334H18V14Zm0 2.666h1.333v-1.333H18v1.333ZM6 9.368h1.333V8.07H6v1.298Z" clip-rule="evenodd" /> </symbol>
<symbol xmlns="http://www.w3.org/2000/svg" viewBox="0 0 24 24" id="circle-chevron-right"><path fill-rule="evenodd" d="M12 3.333c-4.779 0-8.667 3.888-8.667 8.667S7.221 20.667 12 20.667s8.667-3.888 8.667-8.667S16.779 3.333 12 3.333ZM12 22C6.486 22 2 17.514 2 12S6.486 2 12 2s10 4.486 10 10-4.486 10-10 10Z" clip-rule="evenodd" />  <path fill-rule="evenodd" d="m11.138 16.471-.943-.942L13.724 12l-3.529-3.529.943-.942L15.609 12l-4.471 4.471Z" clip-rule="evenodd" /> </symbol>
<symbol xmlns="http://www.w3.org/2000/svg" viewBox="0 0 24 24" id="chart"><path fill-rule="evenodd" d="M13.759 5.099c0-.64.518-1.158 1.157-1.158h3.927c.64 0 1.157.519 1.157 1.158v13.743c0 .64-.518 1.158-1.157 1.158H5.099a1.157 1.157 0 0 1-1.157-1.158v-3.108c0-.64.518-1.158 1.157-1.158H8.85v-4.569c0-.639.518-1.157 1.158-1.157h3.75V5.099Zm0 5.084h-3.575v8.483h3.575v-8.483Zm1.333 8.483h3.575V5.275h-3.575v13.391Zm-6.242 0V15.91H5.275v2.757H8.85Z" clip-rule="evenodd" /> </symbol>
<symbol xmlns="http://www.w3.org/2000/svg" viewBox="0 0 24 24" id="thumb-up"><path fill-rule="evenodd" d="M5.82106 20.0516C5.18342 20.0516 4.6665 19.5347 4.6665 18.8971V10.9281C4.6665 10.2904 5.18344 9.77357 5.82106 9.77357H8.07158C8.40867 9.77357 8.72104 9.59671 8.89446 9.30766L11.0985 5.63427C11.8131 4.4434 13.4962 4.33005 14.3639 5.41473C14.7728 5.92595 14.9047 6.60534 14.7165 7.23249L13.9542 9.77357H17.4342C18.9461 9.77357 20.0442 11.2113 19.6463 12.6699L18.0939 18.362C17.8219 19.3596 16.9158 20.0516 15.8818 20.0516H8.84587H7.51253H5.82106ZM7.51253 18.7183H5.99984V11.1069H7.51253V18.7183ZM8.84587 10.9723C9.33694 10.796 9.76127 10.4545 10.0378 9.99366L12.2417 6.32034C12.4784 5.92608 13.0355 5.88864 13.3227 6.24762C13.458 6.41686 13.5017 6.6417 13.4394 6.84934L12.608 9.62059C12.3858 10.3615 12.9406 11.1069 13.7139 11.1069H17.4342C18.0669 11.1069 18.5265 11.7086 18.36 12.319L16.8076 18.0112C16.6937 18.4287 16.3145 18.7183 15.8818 18.7183H8.84587V10.9723Z" clip-rule="evenodd" /> </symbol>
<symbol xmlns="http://www.w3.org/2000/svg" viewBox="0 0 24 24" id="user"><path fill-rule="evenodd" d="M4.1 20.667h15.81c-.612-1.718-3.41-2.704-3.442-2.714-3.007-.711-3.13-2.414-3.135-2.606v-2.452l.37-.184c.9-.447.923-1.254.922-1.345l-.002-.447.413-.182c.11-.078.303-.537.408-.784l.097-.225c-.024-.011-.165-.161-.242-.216l-.4-.285.466-1.43c.274-1.107.158-2.06-.332-2.686a1.132 1.132 0 0 0-.925-.444h-.366l-.197-.376c-.003-.005-.583-.906-1.517-.906-.412.003-1.637.09-2.316.533-.8.523-1.632 1.622-1.058 3.934l.46 1.397-.426.278c-.1.07-.215.213-.2.256.274.814.466.946.487.958l.426.177-.023.459c0 .082.02.888.919 1.334l.37.184v2.438c-.004.204-.123 1.908-3.19 2.636-.809.277-2.86 1.267-3.378 2.698ZM21.332 22H2.667v-.667c0-3.11 4.272-4.583 4.455-4.644 2.091-.5 2.217-1.39 2.218-1.398l-.004-1.6a2.87 2.87 0 0 1-1.258-1.963c-.42-.372-.674-.988-.853-1.52-.198-.589.034-1.096.33-1.44l-.182-.557c-.816-3.28.659-4.805 1.61-5.426 1.13-.74 2.851-.766 3.043-.766 1.235 0 2.065.775 2.431 1.208.619.096 1.198.448 1.626.996.438.558 1.092 1.814.564 3.942l-.198.607c.318.369.568.907.313 1.49l-.09.21c-.188.445-.395.934-.745 1.253a2.876 2.876 0 0 1-1.26 1.967v1.64c.005 0 .158.867 2.153 1.34.24.078 4.513 1.55 4.513 4.661V22Z" clip-rule="evenodd" /> </symbol>
<symbol xmlns="http://www.w3.org/2000/svg" viewBox="0 0 24 24" id="account"><path fill-rule="evenodd" d="M11.667 1.333 17 4.381v5.32l5 2.667v6.43l-5.302 3.409-5.031-2.683-5.032 2.683-5.302-3.408v-6.431l5-2.667v-5.32l5.334-3.048Zm-4 4.514v3.867L11 11.62V7.513L7.667 5.847Zm4.666 1.666v4.106l3.334-1.905V5.846l-3.334 1.667ZM11 13.88l-3.667 1.956v4.489L11 18.368v-4.489Zm-8.333.038L6 15.822v4.392L2.667 18.07v-4.154Zm9.666 4.451V13.88L16 15.835v4.488l-3.667-1.955Zm5 1.846 3.334-2.143v-4.154l-3.334 1.905v4.392ZM8.413 4.729l3.254 1.627 3.254-1.627-3.254-1.86-3.255 1.86Zm-1.735 9.944-3.299-1.885 3.61-1.925 3.299 1.885-3.61 1.925Zm9.978 0 3.298-1.885-3.61-1.925-3.298 1.885 3.61 1.925Z" clip-rule="evenodd" /> </symbol>
<symbol xmlns="http://www.w3.org/2000/svg" viewBox="0 0 24 24" id="fullscreen"><path fill-rule="evenodd" d="M15.138 19.139v1.333h5.334v-5.333h-1.334v3.057L14.943 14l-.943.942 4.196 4.196h-3.058ZM4.862 5.805 9.057 10 10 9.058 5.805 4.862h3.057V3.53H3.529v5.333h1.333V5.805Zm10.276-.943h3.058L14 9.058l.943.942 4.195-4.195v3.057h1.334V3.53h-5.334v1.333ZM8.862 19.139H5.805L10 14.943l-.943-.942-4.195 4.195v-3.057H3.529v5.333h5.333v-1.333Z" clip-rule="evenodd" /> </symbol>
<symbol xmlns="http://www.w3.org/2000/svg" viewBox="0 0 24 24" id="home"><path fill-rule="evenodd" d="M12 3.217 2.984 8.765l.699 1.136L12 4.783 20.317 9.9l.699-1.136L12 3.217ZM16.667 18H14v-5.333h-4V18H7.333v-8H6v9.333h5.333V14h1.334v5.333H18V10h-1.333v8Z" clip-rule="evenodd" /> </symbol>
<symbol xmlns="http://www.w3.org/2000/svg" viewBox="0 0 24 24" id="more-horizontal"><path fill-rule="evenodd" d="M14 11.972a2 2 0 1 1-4 0 2 2 0 0 1 4 0ZM7 12a2 2 0 1 1-4 0 2 2 0 0 1 4 0Zm14 0a2 2 0 1 1-4 0 2 2 0 0 1 4 0Z" clip-rule="evenodd" /> </symbol>
<symbol xmlns="http://www.w3.org/2000/svg" viewBox="0 0 24 24" id="draggable"><path d="M7.586 6.4a2 2 0 1 0 2.828-2.828A2 2 0 0 0 7.586 6.4Zm.028 7a2 2 0 1 0 2.829-2.829 2 2 0 0 0-2.83 2.83Zm-.028 7a2 2 0 1 0 2.829-2.829 2 2 0 0 0-2.83 2.83Zm6.014-14a2 2 0 1 0 2.828-2.829 2 2 0 0 0-2.828 2.83Zm.028 7a2 2 0 1 0 2.829-2.83 2 2 0 0 0-2.83 2.83Zm-.028 7a2 2 0 1 0 2.829-2.83 2 2 0 0 0-2.83 2.83Z" /> </symbol>
<symbol xmlns="http://www.w3.org/2000/svg" viewBox="0 0 24 24" id="chevron-down"><path fill-rule="evenodd" d="m5.293 9.707 1.414-1.414L12 13.586l5.293-5.293 1.414 1.414L12 16.414 5.293 9.707Z" clip-rule="evenodd" /> </symbol>
<symbol xmlns="http://www.w3.org/2000/svg" viewBox="0 0 24 24" id="label"><path fill-rule="evenodd" d="M12.706 4.667a.662.662 0 0 0-.47.195L4.623 12.46a.663.663 0 0 0 .005.948l5.795 5.675a.681.681 0 0 0 .934-.001l7.777-7.654a.67.67 0 0 0 .199-.476v-5.62a.667.667 0 0 0-.667-.666h-5.96Zm-1.817 15.94a1.99 1.99 0 0 1-1.399-.57l-5.795-5.675a1.988 1.988 0 0 1-.6-1.42 1.989 1.989 0 0 1 .586-1.425l7.612-7.599c.377-.377.88-.585 1.413-.585h5.96c1.104 0 2 .898 2 2v5.62c0 .533-.217 1.053-.596 1.426l-7.778 7.655a1.99 1.99 0 0 1-1.403.574Z" clip-rule="evenodd" />  <path fill-rule="evenodd" d="M16 7.333a.667.667 0 1 0 .001 1.335A.667.667 0 0 0 16 7.333ZM16 10c-1.103 0-2-.897-2-2s.897-2 2-2 2 .897 2 2-.897 2-2 2Z" clip-rule="evenodd" /> </symbol>
<symbol xmlns="http://www.w3.org/2000/svg" viewBox="0 0 24 24" id="microphone"><path fill-rule="evenodd" clip-rule="evenodd" d="M10.0001 5.33333C10.0001 4.23067 10.8974 3.33333 12.0001 3.33333C13.1027 3.33333 14.0001 4.23067 14.0001 5.33333V13.3333C14.0001 14.436 13.1027 15.3333 12.0001 15.3333C10.8974 15.3333 10.0001 14.436 10.0001 13.3333V5.33333ZM12.0001 16.6667C13.8381 16.6667 15.3334 15.1713 15.3334 13.3333V5.33333C15.3334 3.49533 13.8381 2 12.0001 2C10.1621 2 8.66675 3.49533 8.66675 5.33333V13.3333C8.66675 15.1713 10.1621 16.6667 12.0001 16.6667Z" /> <path fill-rule="evenodd" clip-rule="evenodd" d="M16.6667 11.3333V13.3333C16.6667 15.906 14.5733 18 12 18C9.42667 18 7.33333 15.906 7.33333 13.3333V11.3333H6V13.3333C6 16.4167 8.338 18.9613 11.3333 19.294V20.6667H8.66667V22H11.3333H12.6667H15.3333V20.6667H12.6667V19.294C15.662 18.9613 18 16.4167 18 13.3333V11.3333H16.6667Z" /> </symbol>
<symbol xmlns="http://www.w3.org/2000/svg" viewBox="0 0 24 24" id="clock-dash"><path d="M12 2C6.48599 2 2 6.48602 2 12C2 17.514 6.48599 22 12 22C12.2282 22 12.4564 21.991 12.684 21.9744L12.587 20.6443C12.3916 20.6586 12.1958 20.6662 12 20.667C7.22101 20.667 3.33301 16.779 3.33301 12C3.33301 7.22101 7.22101 3.33301 12 3.33301C12.2021 3.33368 12.4043 3.34155 12.606 3.35632L12.651 2.02533C12.4343 2.00983 12.2171 2.00134 12 2Z" fill-rule="evenodd" />  <path d="M13.788 3.52734C14.192 3.61462 14.5893 3.73022 14.977 3.87335L15.442 2.62335C14.997 2.45831 14.534 2.32434 14.068 2.22437L13.788 3.52734Z" fill-rule="evenodd" />  <path d="M16.106 4.38531C16.4691 4.58325 16.8177 4.80682 17.149 5.05432L17.951 3.98633C17.569 3.70135 17.163 3.44135 16.746 3.21533L16.106 4.38531Z" fill-rule="evenodd" />  <path d="M18.088 5.86432C18.3806 6.15552 18.652 6.46735 18.9 6.79736L19.97 5.99835C19.684 5.61835 19.369 5.25531 19.031 4.92035L18.088 5.86432Z" fill-rule="evenodd" />  <path d="M19.574 7.83734C19.7726 8.19855 19.945 8.57349 20.09 8.95935L21.342 8.49231C21.176 8.04932 20.976 7.61334 20.746 7.19531L19.574 7.83734Z" fill-rule="evenodd" />  <path d="M20.443 10.1453C20.5303 10.5494 20.5895 10.959 20.62 11.3713L21.953 11.2714C21.918 10.7953 21.848 10.3203 21.748 9.86133L20.443 10.1453Z" fill-rule="evenodd" />  <path d="M20.446 13.8284L21.753 14.1093C21.852 13.6494 21.92 13.1743 21.953 12.6973L20.619 12.6044C20.59 13.0183 20.532 13.4304 20.446 13.8284Z" fill-rule="evenodd" />  <path d="M19.586 16.1443L20.761 16.7794C20.99 16.3594 21.189 15.9224 21.353 15.4803L20.1 15.0164C19.958 15.3994 19.785 15.7794 19.586 16.1443Z" fill-rule="evenodd" />  <path d="M18.106 18.1183L19.053 19.0604C19.388 18.7244 19.703 18.3604 19.988 17.9803L18.917 17.1823C18.669 17.513 18.398 17.8258 18.106 18.1183Z" fill-rule="evenodd" />  <path d="M16.127 19.6003L16.77 20.7693C17.1882 20.5406 17.5896 20.2823 17.971 19.9963L17.168 18.9304C16.837 19.1783 16.487 19.4044 16.127 19.6003Z" fill-rule="evenodd" />  <path d="M13.813 20.4673L14.1 21.7693C14.566 21.6674 15.0242 21.5323 15.471 21.3654L15.003 20.1173C14.618 20.2603 14.217 20.3773 13.813 20.4673Z" fill-rule="evenodd" />  <path d="M11 7H12.3333V11.3907L16.8047 15.862L15.862 16.8047L11 11.9427V7Z" fill-rule="evenodd" /> </symbol>
<symbol xmlns="http://www.w3.org/2000/svg" viewBox="0 0 24 24" id="square-arrow"><path fill-rule="evenodd" d="M10.667 3.333v1.334h7.724l-9.529 9.528.943.943 9.528-9.529v7.725h1.334v-10h-10Z" clip-rule="evenodd" />  <path fill-rule="evenodd" d="M15.333 19.334H4.667V8.667H12V7.334H3.333v13.333h13.334V12h-1.334v7.334Z" clip-rule="evenodd" /> </symbol>
<symbol xmlns="http://www.w3.org/2000/svg" viewBox="0 0 24 24" id="file"><path fill-rule="evenodd" d="M4.666 2v20h14.668V7.724L13.609 2H4.666ZM6 3.333h6.667v5.334H18v12H6V3.333Zm8 .943 3.057 3.057H14V4.276Z" clip-rule="evenodd" />  <path fill-rule="evenodd" d="M7.333 18h9.334v-1.334H7.333V18Zm0-2.667h9.334V14H7.333v1.333Zm0-2.667H12v-1.333H7.333v1.333Z" clip-rule="evenodd" /> </symbol>
<symbol xmlns="http://www.w3.org/2000/svg" viewBox="0 0 24 24" id="knowledge-box"><path fill-rule="evenodd" d="M12 2 3.333 7.055v10.099L12 22.21l8.667-5.056V7.055L12 2ZM5.287 7.46 8.644 5.5 12 3.543l6.713 3.916-6.69 3.889-6.736-3.889Zm7.38 5.03 6.667-3.85v7.749l-6.667 3.889v-7.787Zm-8 3.899V8.64l6.667 3.849v7.788l-6.668-3.89Z" clip-rule="evenodd" /> </symbol>
<symbol xmlns="http://www.w3.org/2000/svg" viewBox="0 0 24 24" id="chevron-up"><path fill-rule="evenodd" d="m18.707 14.293-1.414 1.414L12 10.414l-5.293 5.293-1.414-1.414L12 7.586l6.707 6.707Z" clip-rule="evenodd" /> </symbol>
<symbol xmlns="http://www.w3.org/2000/svg" viewBox="0 0 24 24" id="spreadsheet"><path fill-rule="evenodd" d="M2 4.667v14.667h20V10.39l-5.724-5.724H2ZM3.334 6h12v5.334h5.333V18H3.334V6ZM18 14v1.333h1.333v1.334H4.666V7.333H14v5.334h5.333V14H18Zm-1.334 0H14v1.333h2.666V14Zm-4-4V8.667H10V10h2.666Zm0 1.333H10v1.334h2.666v-1.334Zm0 2.667H10v1.333h2.666V14Zm-4-4V8.667H6V10h2.666Zm0 1.333H6v1.334h2.666v-1.334Zm0 2.667H6v1.333h2.666V14Zm8-7.057L19.724 10h-3.058V6.943Z" clip-rule="evenodd" /> </symbol>
<symbol xmlns="http://www.w3.org/2000/svg" viewBox="0 0 24 24" id="eye-closed"><path fill-rule="evenodd" d="M12.032 18a9.352 9.352 0 0 1-4.106-.951l1.316-1.317c.78.584 1.743.935 2.79.935A4.672 4.672 0 0 0 16.698 12a4.64 4.64 0 0 0-.934-2.79l1.563-1.563c1.537 1.058 2.732 2.567 3.337 4.353-1.2 3.543-4.72 6-8.632 6Zm-3.334-6a3.337 3.337 0 0 1 3.334-3.333c.678 0 1.308.206 1.835.555l-1.783 1.784c-.018-.002-.034-.006-.052-.006a1 1 0 0 0-1 1c0 .018.004.035.005.052l-1.783 1.784A3.313 3.313 0 0 1 8.698 12Zm6.667 0a3.337 3.337 0 0 1-3.333 3.334 3.312 3.312 0 0 1-1.836-.556l1.784-1.783c.017.001.034.005.052.005a1 1 0 0 0 1-1c0-.018-.004-.034-.006-.052l1.784-1.783c.349.527.555 1.157.555 1.835ZM3.399 12c1.2-3.543 4.72-6 8.633-6 1.456 0 2.858.341 4.106.951L14.82 8.268a4.635 4.635 0 0 0-2.79-.935A4.672 4.672 0 0 0 7.366 12c0 1.047.35 2.01.935 2.79l-1.564 1.563C5.2 15.295 4.004 13.786 3.4 12Zm18.603-.198c-.648-2.083-1.983-3.853-3.72-5.11l2.22-2.22-.942-.943-2.44 2.44a10.67 10.67 0 0 0-5.088-1.302c-4.564 0-8.664 2.934-9.97 7.135L2 12l.062.198c.647 2.083 1.982 3.853 3.72 5.11l-2.222 2.22.943.944 2.44-2.44a10.67 10.67 0 0 0 5.089 1.302c4.564 0 8.664-2.934 9.97-7.136l.06-.198-.06-.198Z" clip-rule="evenodd" /> </symbol>
<symbol xmlns="http://www.w3.org/2000/svg" viewBox="0 0 24 24" id="lock"><path fill-rule="evenodd" d="M18 20a.667.667 0 0 1-.667.667H6.667A.667.667 0 0 1 6 20v-8c0-.367.299-.667.667-.667h10.666c.368 0 .667.3.667.667v8ZM12 3.333A4.672 4.672 0 0 1 16.667 8v2H7.333V8A4.672 4.672 0 0 1 12 3.333Zm6 6.79V8c0-3.308-2.691-6-6-6S6 4.692 6 8v2.123A1.997 1.997 0 0 0 4.667 12v8c0 1.103.897 2 2 2h10.666c1.103 0 2-.897 2-2v-8c0-.868-.559-1.601-1.333-1.877Z" clip-rule="evenodd" />  <path fill-rule="evenodd" d="M12 13.666a1 1 0 0 0-1 1c0 .296.13.558.333.741V18h1.334v-2.593a.994.994 0 0 0 .333-.74 1 1 0 0 0-1-1Z" clip-rule="evenodd" /> </symbol>
<symbol xmlns="http://www.w3.org/2000/svg" viewBox="0 0 24 24" id="chevron-right"><path fill-rule="evenodd" d="m9.707 18.707-1.414-1.414L13.586 12 8.293 6.707l1.414-1.414L16.414 12l-6.707 6.707Z" clip-rule="evenodd" /> </symbol>
<symbol xmlns="http://www.w3.org/2000/svg" viewBox="0 0 24 24" id="link"><path fill-rule="evenodd" d="M18.088 4.888a4.672 4.672 0 0 0-6.6 0L8.66 7.718a4.68 4.68 0 0 0-.001 6.598 4.695 4.695 0 0 0 3.309 1.362c1.22 0 2.405-.476 3.291-1.362l.708-.707-.943-.943-.707.708a3.336 3.336 0 0 1-3.35.82 3.28 3.28 0 0 1-1.364-.82 3.335 3.335 0 0 1-.356-.429 3.343 3.343 0 0 1 .356-4.285l2.827-2.83c1.3-1.3 3.415-1.3 4.714 0 .626.627.972 1.463.972 2.357a3.31 3.31 0 0 1-.972 2.357l.943.943a4.635 4.635 0 0 0 1.362-3.3c0-1.25-.484-2.422-1.362-3.3l.001.001Z" clip-rule="evenodd" />  <path fill-rule="evenodd" d="M16.674 11.017a4.659 4.659 0 0 0-1.915-1.152 4.666 4.666 0 0 0-4.685 1.152l-.707.707.943.943.707-.708a3.33 3.33 0 0 1 3.35-.82 3.268 3.268 0 0 1 1.72 1.25 3.333 3.333 0 0 1-.357 4.285l-2.828 2.828a3.339 3.339 0 0 1-4.714 0 3.311 3.311 0 0 1-.971-2.357c0-.894.345-1.73.97-2.357l-.942-.943a4.633 4.633 0 0 0-1.362 3.3 4.655 4.655 0 0 0 4.662 4.664c1.196 0 2.39-.455 3.3-1.364l2.829-2.829a4.67 4.67 0 0 0 .5-6 4.71 4.71 0 0 0-.5-.6v.001Z" clip-rule="evenodd" /> </symbol>
<symbol xmlns="http://www.w3.org/2000/svg" viewBox="0 0 24 24" id="key"><path fill-rule="evenodd" d="M5.333 14c-1.102 0-2-.898-2-2 0-1.103.898-2 2-2 1.103 0 2 .897 2 2 0 1.102-.897 2-2 2ZM22 11.333H8.6a3.34 3.34 0 0 0-3.267-2.667A3.337 3.337 0 0 0 2 12a3.337 3.337 0 0 0 3.333 3.333A3.34 3.34 0 0 0 8.6 12.666h8.068v2.667H18v-2.667h1.333v2.667h1.334v-2.667H22v-1.333Z" clip-rule="evenodd" /> </symbol>
<symbol xmlns="http://www.w3.org/2000/svg" viewBox="0 0 24 24" id="arrow-right"><path fill-rule="evenodd" d="m12.471 3.529-.942.942 6.862 6.862H3.333v1.334h15.058l-6.862 6.862.942.942L20.943 12 12.47 3.529Z" clip-rule="evenodd" /> </symbol>
<symbol xmlns="http://www.w3.org/2000/svg" viewBox="0 0 24 24" id="log-out"><path fill-rule="evenodd" d="M18.775 9.194a7.281 7.281 0 0 0-3.968-3.969l-.51 1.232a5.958 5.958 0 0 1 3.246 3.247 5.96 5.96 0 0 1 0 4.592 6.007 6.007 0 0 1-7.839 3.247 5.961 5.961 0 0 1-3.248-3.247 5.966 5.966 0 0 1 0-4.592 5.96 5.96 0 0 1 3.248-3.247l-.51-1.232a7.286 7.286 0 0 0-3.97 3.969 7.288 7.288 0 0 0 0 5.612 7.281 7.281 0 0 0 3.97 3.97 7.297 7.297 0 0 0 2.796.557 7.346 7.346 0 0 0 6.785-4.527 7.28 7.28 0 0 0 0-5.612Z" clip-rule="evenodd" />  <path fill-rule="evenodd" d="M11.333 12h1.334V3.334h-1.334V12Z" clip-rule="evenodd" /> </symbol>
<symbol xmlns="http://www.w3.org/2000/svg" viewBox="0 0 24 24" id="settings"><path fill-rule="evenodd" d="M10.667 6.667c0-.736.598-1.334 1.333-1.334A1.335 1.335 0 0 1 12 8a1.335 1.335 0 0 1-1.333-1.333Zm3.905.666h6.095V6h-6.095A2.664 2.664 0 0 0 12 4c-1.24 0-2.274.853-2.572 2H3.333v1.333h6.095a2.664 2.664 0 0 0 2.572 2c1.24 0 2.274-.853 2.572-2ZM14.667 12c0-.735.598-1.333 1.333-1.333s1.333.598 1.333 1.333-.598 1.333-1.333 1.333A1.335 1.335 0 0 1 14.667 12ZM16 14.667c1.24 0 2.274-.854 2.572-2h2.095v-1.334h-2.095a2.664 2.664 0 0 0-2.572-2c-1.24 0-2.274.854-2.572 2H3.333v1.334h10.095a2.664 2.664 0 0 0 2.572 2Zm-9.333 2.666C6.667 16.598 7.265 16 8 16a1.335 1.335 0 0 1 0 2.667 1.335 1.335 0 0 1-1.333-1.334ZM8 20c1.24 0 2.274-.853 2.572-2h10.095v-1.333H10.572a2.664 2.664 0 0 0-2.572-2c-1.24 0-2.274.853-2.572 2H3.333V18h2.095A2.664 2.664 0 0 0 8 20Z" clip-rule="evenodd" /> </symbol>
<symbol xmlns="http://www.w3.org/2000/svg" viewBox="0 0 24 24" id="lab"><path d="m19.635 18.187-3.955-6.855v-4.56A1.945 1.945 0 0 0 15.014 3H10.32a1.95 1.95 0 0 0-1.95 1.948c0 .827.528 1.55 1.282 1.824v4.561l-.358.633v-3.75a.482.482 0 0 0-.482-.482H4.5a.482.482 0 0 0-.481.481v10.232c0 1.284.986 2.339 2.263 2.516a.508.508 0 0 0 .182.037h11.549c.823 0 1.448-.303 1.766-.855.316-.55.265-1.247-.143-1.958Zm-14.657.26v-1.044h1.418a.482.482 0 0 0 0-.963H4.978v-1.562h1.418a.482.482 0 0 0 0-.962H4.978v-1.563h1.418a.482.482 0 0 0 0-.963H4.978V8.695H8.33v9.752c0 .875-.752 1.589-1.676 1.589-.925 0-1.676-.714-1.676-1.59Zm13.964 1.216c-.138.237-.478.375-.934.375H8.702a2.48 2.48 0 0 0 .59-1.591v-4.591a.471.471 0 0 0 .111-.128l1.148-2.03a.486.486 0 0 0 .062-.238V6.397a.48.48 0 0 0-.42-.477.984.984 0 0 1-.862-.972c0-.543.442-.985.985-.985h4.694c.544 0 .985.442.985.985 0 .491-.37.908-.862.972a.48.48 0 0 0-.42.477v5.063c0 .085.021.168.064.241l4.02 6.968c.23.395.282.757.145.994Zm-2.805-3c0 .93-.753 1.682-1.684 1.682a1.682 1.682 0 1 1 0-3.365c.931 0 1.684.754 1.684 1.683Zm-3.755-1.83a.825.825 0 1 1-1.65-.001.825.825 0 0 1 1.65 0Zm.616-1.86a.516.516 0 1 1 0-1.035.517.517 0 1 1 0 1.034Zm-1.488 4.855a.517.517 0 1 1-1.034 0 .517.517 0 0 1 1.034 0Zm.905-6.894a.68.68 0 1 1 0-1.36.68.68 0 0 1 0 1.36Z" /> </symbol>
<symbol xmlns="http://www.w3.org/2000/svg" viewBox="0 0 24 24" id="list-bullet"><path fill-rule="evenodd" clip-rule="evenodd" d="M7.3335 7.33327H22.0002V5.99927H7.3335V7.33327Z" />  <path fill-rule="evenodd" clip-rule="evenodd" d="M7.3335 12.6666H22.0002V11.3333H7.3335V12.6666Z" />  <path fill-rule="evenodd" clip-rule="evenodd" d="M7.3335 18H22.0002V16.6666H7.3335V18Z" />  <path fill-rule="evenodd" clip-rule="evenodd" d="M4 7.66663C4.552 7.66663 5 7.21863 5 6.66663C5 6.11463 4.552 5.66663 4 5.66663C3.448 5.66663 3 6.11463 3 6.66663C3 7.21863 3.448 7.66663 4 7.66663ZM4 13C4.552 13 5 12.552 5 12C5 11.448 4.552 11 4 11C3.448 11 3 11.448 3 12C3 12.552 3.448 13 4 13ZM4 18.3333C4.552 18.3333 5 17.8853 5 17.3333C5 16.7813 4.552 16.3333 4 16.3333C3.448 16.3333 3 16.7813 3 17.3333C3 17.8853 3.448 18.3333 4 18.3333Z" /> </symbol>
<symbol xmlns="http://www.w3.org/2000/svg" viewBox="0 0 24 24" id="download"><path fill-rule="evenodd" d="m12.048 16.666-.048.048-.048-.048h.096Zm6.08-4.195-.942-.943-4.519 4.52V3.333h-1.333v12.714l-4.52-4.519-.942.943L12 18.6l6.128-6.128v-.001Zm1.205 6.862H4.667v1.333h14.666v-1.333Z" clip-rule="evenodd" /> </symbol>
<symbol xmlns="http://www.w3.org/2000/svg" viewBox="0 0 24 24" id="submenu"><path fill-rule="evenodd" d="M17.9999 17.3333C18.7353 17.3333 19.3333 17.9313 19.3333 18.6667C19.3333 19.402 18.7353 20 17.9999 20C17.2646 20 16.6666 19.402 16.6666 18.6667C16.6666 17.9313 17.2646 17.3333 17.9999 17.3333ZM17.9999 3.99999C18.7353 3.99999 19.3333 4.59799 19.3333 5.33332C19.3333 6.06866 18.7353 6.66666 17.9999 6.66666C17.2646 6.66666 16.6666 6.06866 16.6666 5.33332C16.6666 4.59799 17.2646 3.99999 17.9999 3.99999ZM17.9999 10.6667C18.7353 10.6667 19.3333 11.2647 19.3333 12C19.3333 12.7353 18.7353 13.3333 17.9999 13.3333C17.2646 13.3333 16.6666 12.7353 16.6666 12C16.6666 11.2647 17.2646 10.6667 17.9999 10.6667ZM5.33325 12.6667H15.4279C15.7259 13.814 16.7613 14.6667 17.9999 14.6667C19.4706 14.6667 20.6666 13.4707 20.6666 12C20.6666 10.5293 19.4706 9.33332 17.9999 9.33332C16.7613 9.33332 15.7259 10.186 15.4279 11.3333H5.33325C4.96592 11.3333 4.66659 11.0347 4.66659 10.6667V7.33332V5.87732C4.87592 5.95199 5.09859 5.99999 5.33325 5.99999H15.4279C15.7259 7.14732 16.7613 7.99999 17.9999 7.99999C19.4706 7.99999 20.6666 6.80399 20.6666 5.33332C20.6666 3.86266 19.4706 2.66666 17.9999 2.66666C16.7613 2.66666 15.7259 3.51932 15.4279 4.66666H5.33325C4.96592 4.66666 4.66659 4.36799 4.66659 3.99999V3.33332H3.33325V3.99999V7.33332V10.6667V17.3333C3.33325 18.436 4.23059 19.3333 5.33325 19.3333H15.4279C15.7259 20.4807 16.7613 21.3333 17.9999 21.3333C19.4706 21.3333 20.6666 20.1373 20.6666 18.6667C20.6666 17.196 19.4706 16 17.9999 16C16.7613 16 15.7259 16.8527 15.4279 18H5.33325C4.96592 18 4.66659 17.7013 4.66659 17.3333V12.544C4.87592 12.6187 5.09859 12.6667 5.33325 12.6667Z" clip-rule="evenodd" /> </symbol>
<symbol xmlns="http://www.w3.org/2000/svg" viewBox="0 0 24 24" id="circle-check"><path fill-rule="evenodd" d="M12 3.333c-4.779 0-8.667 3.888-8.667 8.667S7.221 20.667 12 20.667s8.667-3.888 8.667-8.667S16.779 3.333 12 3.333ZM12 22C6.486 22 2 17.514 2 12S6.486 2 12 2s10 4.486 10 10-4.486 10-10 10Z" clip-rule="evenodd" />  <path fill-rule="evenodd" d="m10.667 15.61-3.138-3.14.942-.943 2.196 2.196 4.862-4.862.942.942-5.804 5.805Z" clip-rule="evenodd" /> </symbol>
<symbol xmlns="http://www.w3.org/2000/svg" viewBox="0 0 24 24" id="bell"><path fill-rule="evenodd" d="M12 20a1.33 1.33 0 0 1-1.148-.667h2.296A1.329 1.329 0 0 1 12 20Zm-4.666-5.333V9.333A4.672 4.672 0 0 1 12 4.667a4.672 4.672 0 0 1 4.667 4.666v5.334c0 1.148.41 2.31 1.156 3.333H6.177c.746-1.023 1.157-2.185 1.157-3.333Zm13.765 4.666-1.325-1.166c-1.127-.993-1.774-2.268-1.774-3.5V9.333a6.006 6.006 0 0 0-5.333-5.96V2h-1.333v1.373A6.006 6.006 0 0 0 6 9.333v5.334c0 1.232-.646 2.507-1.774 3.5l-1.325 1.166h6.527a2.664 2.664 0 0 0 2.572 2c1.24 0 2.274-.853 2.572-2H21.1Z" clip-rule="evenodd" /> </symbol>
<symbol xmlns="http://www.w3.org/2000/svg" viewBox="0 0 24 24" id="code"><path fill-rule="evenodd" d="M2 19.333h20V4.666H2v14.667ZM3.333 18h17.334V6H3.333v12Z" clip-rule="evenodd" />  <path fill-rule="evenodd" d="M8.195 15.138 5.057 12l3.138-3.138.943.942L6.943 12l2.195 2.195-.943.943Zm7.61 0-.943-.943L17.057 12l-2.195-2.196.943-.942L18.943 12l-3.138 3.138ZM11.3 16.21l-1.265-.421 2.666-8 1.265.422-2.667 8Z" clip-rule="evenodd" /> </symbol>
<symbol xmlns="http://www.w3.org/2000/svg" viewBox="0 0 24 24" id="smiley-happy"><path fill-rule="evenodd" clip-rule="evenodd" d="M12 3.333C7.221 3.333 3.333 7.221 3.333 12C3.333 16.779 7.221 20.667 12 20.667C16.779 20.667 20.667 16.779 20.667 12C20.667 7.221 16.779 3.333 12 3.333ZM12 22C6.486 22 2 17.514 2 12C2 6.486 6.486 2 12 2C17.514 2 22 6.486 22 12C22 17.514 17.514 22 12 22Z" /> <path fill-rule="evenodd" clip-rule="evenodd" d="M9.00003 9.33398C9.00003 9.5992 8.89467 9.85356 8.70714 10.0411C8.5196 10.2286 8.26525 10.334 8.00003 10.334C7.73482 10.334 7.48046 10.2286 7.29292 10.0411C7.10539 9.85356 7.00003 9.5992 7.00003 9.33398C7.00003 9.06877 7.10539 8.81441 7.29292 8.62688C7.48046 8.43934 7.73482 8.33398 8.00003 8.33398C8.26525 8.33398 8.5196 8.43934 8.70714 8.62688C8.89467 8.81441 9.00003 9.06877 9.00003 9.33398ZM17 9.33398C17 9.5992 16.8947 9.85356 16.7071 10.0411C16.5196 10.2286 16.2652 10.334 16 10.334C15.7348 10.334 15.4805 10.2286 15.2929 10.0411C15.1054 9.85356 15 9.5992 15 9.33398C15 9.06877 15.1054 8.81441 15.2929 8.62688C15.4805 8.43934 15.7348 8.33398 16 8.33398C16.2652 8.33398 16.5196 8.43934 16.7071 8.62688C16.8947 8.81441 17 9.06877 17 9.33398ZM12 18.004C11.2119 18.0032 10.4316 17.8469 9.70403 17.544C8.97502 17.2443 8.31267 16.803 7.75533 16.2457C7.19798 15.6883 6.7567 15.026 6.45703 14.297L7.68903 13.787C7.92214 14.3539 8.26532 14.8689 8.69873 15.3023C9.13213 15.7357 9.64716 16.0789 10.214 16.312C11.3575 16.7846 12.6418 16.7842 13.7849 16.3108C14.928 15.8374 15.8366 14.9297 16.311 13.787L17.543 14.297C17.2434 15.026 16.8021 15.6883 16.2447 16.2457C15.6874 16.803 15.025 17.2443 14.296 17.544C13.556 17.851 12.778 18.004 12 18.004Z" /> </symbol>
<symbol xmlns="http://www.w3.org/2000/svg" viewBox="0 0 24 24" id="plus"><path fill-rule="evenodd" d="M20.667 11.334h-8v-8h-1.334v8h-8v1.333h8v8h1.334v-8h8v-1.333Z" clip-rule="evenodd" /> </symbol>
<symbol xmlns="http://www.w3.org/2000/svg" viewBox="0 0 24 24" id="check"><path fill-rule="evenodd" d="M19.333 5.333 9.041 15.626l-4.294-4.293-1.414 1.414 5.708 5.707L20.747 6.747l-1.414-1.414Z" clip-rule="evenodd" />  <path fill-rule="evenodd" d="M19.333 5.333 9.041 15.626l-4.294-4.293-1.414 1.414 5.708 5.707L20.747 6.747l-1.414-1.414Z" clip-rule="evenodd" /> </symbol>
<symbol xmlns="http://www.w3.org/2000/svg" viewBox="0 0 24 24" id="warning"><path fill-rule="evenodd" d="M11.075 13.946h1.298V8.107h-1.298v5.84Zm.649.974a.973.973 0 1 0 0 1.946.973.973 0 0 0 0-1.947Z" clip-rule="evenodd" />  <path fill-rule="evenodd" d="m3.559 12 8.165-8.165L19.89 12l-8.165 8.165L3.56 12Zm8.165-10-10 10 10 10 10-10-10-10Z" clip-rule="evenodd" /> </symbol>
<symbol xmlns="http://www.w3.org/2000/svg" viewBox="0 0 24 24" id="info"><path fill-rule="evenodd" d="M12 9a1 1 0 1 0 0-2 1 1 0 0 0 0 2Z" clip-rule="evenodd" />  <path fill-rule="evenodd" d="M12 20.667c-4.779 0-8.667-3.888-8.667-8.667S7.221 3.333 12 3.333 20.667 7.221 20.667 12 16.779 20.667 12 20.667ZM12 2C6.486 2 2 6.486 2 12s4.486 10 10 10 10-4.486 10-10S17.514 2 12 2Z" clip-rule="evenodd" />  <path fill-rule="evenodd" d="M12.667 10H10v1.333h1.333v5.334H10V18h4v-1.333h-1.333V10Z" clip-rule="evenodd" /> </symbol>
<symbol xmlns="http://www.w3.org/2000/svg" viewBox="0 0 24 24" id="gear"><path fill-rule="evenodd" d="M12 14c-1.103 0-2-.898-2-2 0-1.103.897-2 2-2s2 .897 2 2c0 1.102-.897 2-2 2Zm0-5.334A3.337 3.337 0 0 0 8.667 12 3.337 3.337 0 0 0 12 15.333 3.337 3.337 0 0 0 15.333 12 3.337 3.337 0 0 0 12 8.666Z" clip-rule="evenodd" />  <path fill-rule="evenodd" d="m18.218 18.038-.18.18-2.312-1.496-.366.248a5.922 5.922 0 0 1-2.222.918l-.433.083-.577 2.695h-.256l-.578-2.695-.433-.084a5.922 5.922 0 0 1-2.222-.917l-.365-.248-2.312 1.496-.18-.18 1.495-2.312-.248-.366a5.939 5.939 0 0 1-.918-2.222l-.083-.433-2.695-.578v-.255l2.695-.577.083-.434a5.943 5.943 0 0 1 .918-2.222l.248-.365-1.495-2.312.18-.181 2.312 1.496.365-.248a5.944 5.944 0 0 1 2.222-.917l.433-.084.578-2.695h.256l.577 2.695.433.084a5.944 5.944 0 0 1 2.222.917l.366.248 2.312-1.496.18.181-1.495 2.312.247.365a5.93 5.93 0 0 1 .918 2.222l.084.434 2.694.577v.255l-2.694.578-.084.433a5.926 5.926 0 0 1-.918 2.222l-.247.366 1.495 2.312ZM22 13.206v-2.412l-2.9-.621a7.226 7.226 0 0 0-.786-1.904l1.61-2.488-1.706-1.704-2.487 1.61a7.23 7.23 0 0 0-1.904-.787L13.206 2h-2.412l-.62 2.9a7.221 7.221 0 0 0-1.905.786l-2.487-1.61-1.706 1.705 1.61 2.488a7.253 7.253 0 0 0-.787 1.904l-2.9.621v2.412l2.9.62c.172.673.435 1.31.787 1.905l-1.61 2.487 1.706 1.705 2.487-1.61c.593.352 1.23.615 1.904.787l.621 2.9h2.412l.621-2.9a7.253 7.253 0 0 0 1.904-.787l2.487 1.61 1.706-1.705-1.61-2.487a7.244 7.244 0 0 0 .786-1.904l2.9-.621Z" clip-rule="evenodd" /> </symbol>
<symbol xmlns="http://www.w3.org/2000/svg" viewBox="0 0 24 24" id="copy"><path fill-rule="evenodd" d="M10 2v2.667h1.334V3.334h5.332v4h4v9.333h-4V18H22V6.39L17.61 2H10Zm8 2.276L19.724 6H18V4.276Z" clip-rule="evenodd" />  <path fill-rule="evenodd" d="M3.333 6v16h12V10.39L10.943 6h-7.61Zm1.334 1.334H10v4h4v9.333H4.667V7.334Zm6.667.942L13.057 10h-1.723V8.276Z" clip-rule="evenodd" /> </symbol>
<symbol xmlns="http://www.w3.org/2000/svg" viewBox="0 0 24 24" id="reload"><path fill-rule="evenodd" d="M10.667 8.667H7.1c1.576-2.261 4.566-3.21 7.214-2.113a5.965 5.965 0 0 1 3.216 3.18l1.225-.525a7.294 7.294 0 0 0-3.93-3.887C11.585 3.98 7.925 5.145 6 7.914V4H4.667v6h6V8.667ZM13.333 14v1.333h3.733c-1.538 2.399-4.621 3.434-7.343 2.308a5.96 5.96 0 0 1-3.247-3.248l-1.231.511a7.283 7.283 0 0 0 3.968 3.969 7.297 7.297 0 0 0 2.796.558A7.365 7.365 0 0 0 18 16.339V20h1.333v-6h-6Z" clip-rule="evenodd" /> </symbol>
<symbol xmlns="http://www.w3.org/2000/svg" viewBox="0 0 24 24" id="refresh"><path fill-rule="evenodd" d="M13.333 10h6V4H18v3.79c-1.93-2.75-5.578-3.903-8.807-2.565-3.735 1.547-5.516 5.845-3.968 9.581a7.346 7.346 0 0 0 6.785 4.527c.933 0 1.882-.179 2.797-.558a7.283 7.283 0 0 0 3.968-3.969l-1.232-.51a5.954 5.954 0 0 1-3.247 3.247 6.007 6.007 0 0 1-7.84-3.247 5.96 5.96 0 0 1 0-4.592 5.957 5.957 0 0 1 3.248-3.247c2.685-1.112 5.726-.121 7.283 2.21h-3.654V10Z" clip-rule="evenodd" /> </symbol>
<symbol xmlns="http://www.w3.org/2000/svg" viewBox="0 0 24 24" id="image"><path fill-rule="evenodd" d="M4.667 19.334h14.666v-2.667H4.667v2.667Zm0-4h14.666V4.667H4.667v10.667Zm-1.334 5.333h17.334V3.333H3.333v17.334Z" clip-rule="evenodd" />  <path fill-rule="evenodd" d="m10.008 8.692 2.513 4.397 2.09-2.09 2.202 2.751 1.041-.833-3.132-3.915-1.91 1.91-2.82-4.936-3.908 7.034 1.165.647 2.759-4.965Z" clip-rule="evenodd" /> </symbol>
<symbol xmlns="http://www.w3.org/2000/svg" viewBox="0 0 24 24" id="payment-details"><path fill-rule="evenodd" d="M4.457 4.457V20H20V4.457H4.457Zm-1.333-.104c0-.679.55-1.23 1.23-1.23h15.75c.68 0 1.23.551 1.23 1.23v15.75c0 .68-.551 1.23-1.23 1.23H4.354a1.23 1.23 0 0 1-1.23-1.23V4.354Z" clip-rule="evenodd" />  <path fill-rule="evenodd" d="M11.563 7.202c-.49.068-.968.234-1.372.54-.62.47-.972 1.2-.972 2.144 0 .459.106.865.316 1.215.206.347.492.603.798.798.57.362 1.297.56 1.904.726l.051.014c.673.183 1.21.336 1.59.578a1.1 1.1 0 0 1 .37.356c.073.122.127.287.127.532 0 .583-.236.953-.582 1.196-.373.261-.921.402-1.54.38-.947-.035-1.853-.438-2.303-1.038l-1.067.8c.627.836 1.652 1.333 2.68 1.505v1.376h1.333v-1.337c.595-.067 1.177-.254 1.662-.594.7-.49 1.15-1.267 1.15-2.288 0-.459-.106-.865-.315-1.215a2.424 2.424 0 0 0-.799-.798c-.57-.362-1.297-.56-1.903-.726l-.052-.014c-.673-.183-1.209-.336-1.59-.578a1.1 1.1 0 0 1-.37-.356 1.003 1.003 0 0 1-.127-.532c0-.585.201-.898.444-1.081.27-.205.69-.321 1.215-.307.898.024 1.857.419 2.36.922l.942-.943c-.64-.64-1.63-1.09-2.617-1.25V6.136h-1.333v1.066Z" clip-rule="evenodd" /> </symbol>
<symbol xmlns="http://www.w3.org/2000/svg" viewBox="0 0 24 24" id="thumb-down"><path fill-rule="evenodd" d="M18.574 4.66663C19.2116 4.66663 19.7285 5.18354 19.7285 5.82119V13.7901C19.7285 14.4278 19.2116 14.9447 18.574 14.9447L16.8825 14.9447L16.3234 14.9447C15.9864 14.9447 15.674 15.1216 15.5006 15.4106L13.2966 19.084C12.5819 20.2749 10.8988 20.3882 10.0312 19.3035C9.62221 18.7923 9.49037 18.1129 9.67853 17.4858L10.4409 14.9447H6.96085C5.44897 14.9447 4.35084 13.507 4.74869 12.0484L6.30108 6.35628C6.57314 5.3587 7.47922 4.66663 8.51325 4.66663H15.5492H16.8825H18.574ZM16.8825 5.99996H18.3952V13.6114H16.8825V5.99996ZM15.5492 13.746C15.0581 13.9222 14.6337 14.2637 14.3572 14.7246L12.1533 18.3979C11.9167 18.7922 11.3595 18.8296 11.0723 18.4706C10.937 18.3014 10.8933 18.0766 10.9556 17.8689L11.787 15.0977C12.0093 14.3568 11.4544 13.6114 10.6811 13.6114H6.96085C6.32811 13.6114 5.86855 13.0096 6.03503 12.3993L7.58744 6.7071C7.7013 6.2896 8.0805 5.99996 8.51325 5.99996H15.5492V13.746Z" clip-rule="evenodd" /> </symbol>
<symbol xmlns="http://www.w3.org/2000/svg" viewBox="0 0 24 24" id="smile"><path fill-rule="evenodd" d="M12 3.333c-4.779 0-8.667 3.888-8.667 8.667S7.221 20.667 12 20.667s8.667-3.888 8.667-8.667S16.779 3.333 12 3.333ZM12 22C6.486 22 2 17.514 2 12S6.486 2 12 2s10 4.486 10 10-4.486 10-10 10Z" clip-rule="evenodd" />  <path fill-rule="evenodd" d="M9 9.334a1 1 0 1 1-2 0 1 1 0 0 1 2 0Zm8 0a1 1 0 1 1-2 0 1 1 0 0 1 2 0Zm-5 8.67a5.99 5.99 0 0 1-2.296-.46 5.961 5.961 0 0 1-3.247-3.247l1.232-.51a4.637 4.637 0 0 0 2.525 2.525 4.67 4.67 0 0 0 6.097-2.525l1.232.51a5.961 5.961 0 0 1-3.247 3.247c-.74.307-1.518.46-2.296.46Z" clip-rule="evenodd" /> </symbol>
<symbol xmlns="http://www.w3.org/2000/svg" viewBox="0 0 24 24" id="images"><path fill-rule="evenodd" d="M4.667 15.333h10.666V14H4.667v1.333Zm0-2.666h10.666v-8H4.667v8Zm-1.334 4h13.334V3.333H3.333v13.334Z" clip-rule="evenodd" />  <path fill-rule="evenodd" d="m8.68 7.986 1.882 3.135 1.378-1.55 1.515 2.148 1.09-.771-2.485-3.52-1.289 1.451-2.118-3.532-3.232 5.655 1.158.662L8.68 7.987Z" clip-rule="evenodd" />  <path fill-rule="evenodd" d="M18 6v1.333h1.333v12h-12V18H6v2.667h14.667V6H18Z" clip-rule="evenodd" /> </symbol>
<symbol xmlns="http://www.w3.org/2000/svg" viewBox="0 0 24 24" id="volume-mute"><path fill-rule="evenodd" d="m7.776 9.197-1.131.77H2v4.614h4.646l8.772 5.902v-3.645l3.21 3.21.92-.918-4.13-4.13V4L8.871 8.452 4.548 4.13l-.92.92 4.148 4.148Zm.988.987-1.697 1.154H3.37v1.872h3.694l6.982 4.698v-2.441l-5.283-5.283Zm5.283 3.444V6.591L9.857 9.44l4.19 4.188Zm5.912-2.65a3.005 3.005 0 0 0-.903-1.122l.832-1.09a4.376 4.376 0 0 1-.354 7.203l-.72-1.167a3.005 3.005 0 0 0 1.145-3.823Zm-3.395-1.114a3.004 3.004 0 0 1-.253 4.938l.72 1.167a4.377 4.377 0 0 0 .37-7.192l-.837 1.087Z" clip-rule="evenodd" /> </symbol>
<symbol xmlns="http://www.w3.org/2000/svg" viewBox="0 0 24 24" id="search-plus"><path fill-rule="evenodd" d="M16.667 10.667H18c0 1.782-.64 3.417-1.701 4.69l5.506 5.505-.943.943-5.506-5.506A7.302 7.302 0 0 1 10.666 18c-4.043 0-7.333-3.29-7.333-7.333s3.29-7.333 7.334-7.333v1.333c-3.309 0-6 2.692-6 6s2.691 6 6 6c3.308 0 6-2.692 6-6Zm-1.334-7.333V6H18v1.333h-2.667V10H14V7.333h-2.667V6H14V3.333h1.333Z" clip-rule="evenodd" /> </symbol>
<symbol xmlns="http://www.w3.org/2000/svg" viewBox="0 0 24 24" id="play"><path fill-rule="evenodd" d="M6 19.14V4.86L18.693 12 6 19.14Z" clip-rule="evenodd" /> </symbol>
<symbol xmlns="http://www.w3.org/2000/svg" viewBox="0 0 24 24" id="chat"><path fill-rule="evenodd" d="M4.667 16.39v-1.057H4a.667.667 0 0 1-.667-.666v-8c0-.368.3-.667.667-.667h13.333c.368 0 .667.299.667.667V10h1.333V6.667c0-1.103-.897-2-2-2H4c-1.103 0-2 .897-2 2v8c0 .869.557 1.61 1.333 1.886v3.056l2.943-2.942h5.057v-1.334H5.724l-1.057 1.058Z" clip-rule="evenodd" />  <path fill-rule="evenodd" d="M20.666 16a.667.667 0 0 1-.666.667h-.667v1.057l-1.057-1.057h-3.61A.667.667 0 0 1 14 16v-2.667c0-.368.3-.666.666-.666H20c.367 0 .666.298.666.666V16ZM20 11.333h-5.334c-1.102 0-2 .898-2 2V16c0 1.103.898 2 2 2h3.058l2.942 2.943v-3.057A2.004 2.004 0 0 0 22 16v-2.667c0-1.102-.898-2-2-2Z" clip-rule="evenodd" /> </symbol>
<symbol xmlns="http://www.w3.org/2000/svg" viewBox="0 0 24 24" id="widget"><path fill-rule="evenodd" d="M4.667 19.334h4v-4h-4v4Zm-1.334 1.333H10V14H3.333v6.667ZM4.667 10h4V6h-4v4Zm-1.334 1.334H10V4.667H3.333v6.667Zm10.667 8h4v-4h-4v4Zm-1.333 1.333h6.666V14h-6.666v6.667ZM13.172 8 16 10.83 18.828 8 16 5.171l-2.829 2.83ZM16 12.714 11.286 8 16 3.286 20.713 8 16 12.714Z" clip-rule="evenodd" /> </symbol>
<symbol xmlns="http://www.w3.org/2000/svg" viewBox="0 0 24 24" id="trash"><path fill-rule="evenodd" d="M18 20c0 .368-.3.667-.667.667H8A.667.667 0 0 1 7.333 20V6H18v14ZM12.667 3.333c.735 0 1.333.598 1.333 1.334h-2.667c0-.736.598-1.334 1.334-1.334Zm8 1.334h-5.334A2.67 2.67 0 0 0 12.667 2 2.67 2.67 0 0 0 10 4.667H4.667V6H6v14c0 1.103.897 2 2 2h9.333c1.103 0 2-.897 2-2V6h1.334V4.667Z" clip-rule="evenodd" />  <path fill-rule="evenodd" d="M10 18.667h1.333V8H10v10.667Zm4 0h1.333V8H14v10.667Z" clip-rule="evenodd" /> </symbol>
<symbol xmlns="http://www.w3.org/2000/svg" viewBox="0 0 24 24" id="circle-plus"><path fill-rule="evenodd" d="M12.667 6h-1.334v5.333H6v1.334h5.333V18h1.334v-5.333H18v-1.334h-5.333V6Z" clip-rule="evenodd" />  <path fill-rule="evenodd" d="M12 20.667c-4.779 0-8.667-3.888-8.667-8.667S7.221 3.333 12 3.333 20.667 7.221 20.667 12 16.779 20.667 12 20.667ZM12 2C6.486 2 2 6.486 2 12s4.486 10 10 10 10-4.486 10-10S17.514 2 12 2Z" clip-rule="evenodd" /> </symbol>
<symbol xmlns="http://www.w3.org/2000/svg" viewBox="0 0 24 24" id="form"><path fill-rule="evenodd" clip-rule="evenodd" d="M3.33333 15.3333H8.66667V8.66667H3.33333V15.3333ZM10 15.3333H20.6667V8.66667H10V15.3333ZM22 16.6667V7.33333H10V6C10 5.26467 10.598 4.66667 11.3333 4.66667V3.33333C10.5333 3.33333 9.82267 3.69467 9.33333 4.25467C8.844 3.69467 8.13333 3.33333 7.33333 3.33333V4.66667C8.06867 4.66667 8.66667 5.26467 8.66667 6V7.33333H2V16.6667H8.66667V18C8.66667 18.7353 8.06867 19.3333 7.33333 19.3333V20.6667C8.13333 20.6667 8.844 20.3053 9.33333 19.7453C9.82267 20.3053 10.5333 20.6667 11.3333 20.6667V19.3333C10.598 19.3333 10 18.7353 10 18V16.6667H22Z" /> </symbol>
<symbol xmlns="http://www.w3.org/2000/svg" viewBox="0 0 24 24" id="circle-dash"><path fill-rule="evenodd" d="M12.606 3.308a8.927 8.927 0 0 0-1.289-.001l-.093-1.33a9.994 9.994 0 0 1 1.427 0l-.045 1.331Zm2.371.517a8.804 8.804 0 0 0-1.189-.346l.28-1.303c.466.1.929.234 1.374.399l-.465 1.25Zm-6.074.008-.469-1.248c.444-.166.905-.302 1.372-.404l.286 1.302a8.877 8.877 0 0 0-1.19.35Zm8.246 1.173a8.702 8.702 0 0 0-1.043-.669l.64-1.17c.417.226.823.486 1.205.771l-.802 1.068Zm-10.413.015-.802-1.066a9.972 9.972 0 0 1 1.201-.774l.642 1.169c-.36.197-.71.423-1.04.67ZM18.9 6.749a8.637 8.637 0 0 0-.812-.933l.943-.944c.338.335.653.698.939 1.078l-1.07.8Zm-13.91.017L3.918 5.97c.285-.38.6-.743.936-1.079l.946.941a8.911 8.911 0 0 0-.811.935Zm15.1 2.145a8.622 8.622 0 0 0-.516-1.122l1.172-.642c.23.418.43.854.596 1.297l-1.252.467Zm-16.284.022L2.552 8.47c.165-.445.365-.882.593-1.3l1.174.638a8.57 8.57 0 0 0-.514 1.125Zm16.814 2.39a8.926 8.926 0 0 0-.177-1.226l1.305-.284c.1.459.17.934.205 1.41l-1.333.1Zm-17.333.022-1.334-.092c.033-.473.1-.947.2-1.412l1.307.28a8.685 8.685 0 0 0-.173 1.224Zm18.466 2.716-1.307-.281c.086-.398.144-.81.173-1.224l1.334.093c-.033.477-.101.952-.2 1.412Zm-19.596.03a9.888 9.888 0 0 1-.204-1.412l1.332-.096c.03.41.09.822.178 1.224l-1.306.284Zm18.604 2.64-1.175-.635c.199-.365.372-.745.514-1.128l1.253.464c-.164.442-.363.88-.592 1.3Zm-17.601.027a9.969 9.969 0 0 1-.596-1.297l1.251-.468c.144.383.318.76.517 1.123l-1.172.642Zm15.893 2.254-.947-.942a8.79 8.79 0 0 0 .811-.936l1.071.798c-.285.38-.6.744-.935 1.08Zm-14.18.02c-.338-.338-.654-.7-.938-1.078l1.07-.8c.245.328.519.641.813.934l-.944.944Zm11.897 1.69-.643-1.17c.36-.196.71-.422 1.041-.67l.803 1.066a10.01 10.01 0 0 1-1.201.773Zm-9.61.015a10.026 10.026 0 0 1-1.205-.771l.802-1.068c.33.248.682.472 1.043.669l-.64 1.17Zm6.94.984-.287-1.302c.404-.09.805-.207 1.19-.35l.468 1.248a10.06 10.06 0 0 1-1.371.404Zm-4.263.006c-.464-.1-.926-.234-1.372-.399l.463-1.25c.387.143.788.259 1.19.346l-.28 1.303Zm2.15.224a9.414 9.414 0 0 1-.734-.025l.094-1.33a8.496 8.496 0 0 0 1.24 0l.097 1.33a9.42 9.42 0 0 1-.696.025Z" clip-rule="evenodd" /> </symbol>
<symbol xmlns="http://www.w3.org/2000/svg" viewBox="0 0 24 24" id="annotate"><path fill-rule="evenodd" clip-rule="evenodd" d="M12.78 3.8036L9.442 9.58426L8.30867 11.5483L8.79667 13.3703L7.278 15.9996H0V17.3336H6.508H10.6667H11.1273L12.2607 15.3696L14.082 14.8823L14.5533 14.0656L15.216 12.9183L20.22 4.25093L14.4467 0.916931L12.78 3.8036ZM13.9347 4.47093L14.9347 2.73826L18.3987 4.73826L17.3987 6.47026L13.9347 4.47093ZM10.6013 10.2443L13.2687 5.62493L16.7313 7.62493L14.0653 12.2436L10.6013 10.2443ZM10.0847 13.0249L9.74 11.7369L9.93467 11.3989L13.3987 13.3989L13.2033 13.7369L11.9153 14.0823L10.0847 13.0249ZM9.756 14.3749L10.9107 15.0416L10.3573 15.9996H8.81733L9.756 14.3749Z" /> </symbol>
<symbol xmlns="http://www.w3.org/2000/svg" viewBox="0 0 24 24" id="edit"><path fill-rule="evenodd" d="m19.388 5.913-.757.758-1.179-1.179.757-.757 1.179 1.178Zm-8.781 8.62-1.2.357-.226-.227.398-1.16 1.028 1.03Zm5.345-7.54.557-.558 1.179 1.178-.557.558-1.179-1.179Zm.236 2.12-4.557 4.558-1.179-1.18 4.557-4.556 1.179 1.178ZM6.967 17.01l4.577-1.366 8.905-8.905a1.168 1.168 0 0 0 0-1.65l-1.414-1.413c-.441-.442-1.21-.442-1.65 0L8.49 12.569l-1.523 4.44Z" clip-rule="evenodd" />  <path fill-rule="evenodd" d="M19.333 19.333H4.667V4.667h10V3.333H3.333v17.334h17.334V9.333h-1.334v10Z" clip-rule="evenodd" /> </symbol>
<symbol xmlns="http://www.w3.org/2000/svg" viewBox="0 0 24 24" id="unlink"><path fill-rule="evenodd" d="M14.007 11.228a4.658 4.658 0 0 0-1.915-1.151 4.664 4.664 0 0 0-4.685 1.151l-.707.707.943.943.707-.707a3.329 3.329 0 0 1 3.35-.82 3.267 3.267 0 0 1 1.72 1.248c.461.65.675 1.446.601 2.242a3.332 3.332 0 0 1-.957 2.044l-2.828 2.828a3.338 3.338 0 0 1-4.715 0 3.312 3.312 0 0 1-.971-2.357c0-.893.345-1.73.971-2.357l-.943-.942a4.633 4.633 0 0 0-1.362 3.299 4.655 4.655 0 0 0 4.662 4.664c1.196 0 2.39-.455 3.3-1.364l2.83-2.829a4.67 4.67 0 0 0 .5-6 4.683 4.683 0 0 0-.5-.599Z" clip-rule="evenodd" />  <path fill-rule="evenodd" d="M6.756 14.675c.237.15.464.267.693.363a4.645 4.645 0 0 0 2.209.331 4.715 4.715 0 0 0 3.213-1.721l-1.038-.837a3.374 3.374 0 0 1-2.3 1.23 3.262 3.262 0 0 1-2.067-.495 3.34 3.34 0 0 1-1.311-4.095l1.53-3.696a3.337 3.337 0 0 1 4.356-1.804l.51-1.232a4.674 4.674 0 0 0-6.097 2.525L4.923 8.94a4.677 4.677 0 0 0 1.833 5.735Zm9.911-4.465h4V8.878h-4v1.334Zm-.034-7.788L15.368 2l-1.333 4 1.264.422 1.334-4Zm4.421 2.331-.775-1.085-4.666 3.333.774 1.086 4.667-3.334Zm-4.685 7.387 2.666 1.334.597-1.192-2.667-1.334-.596 1.193Z" clip-rule="evenodd" /> </symbol>
<symbol xmlns="http://www.w3.org/2000/svg" viewBox="0 0 24 24" id="upload-cloud"><path fill-rule="evenodd" d="m8.195 14.862.943.943 2.195-2.196v7.057h1.334V13.61l2.195 2.196.943-.943L12 11.057l-3.805 3.805Z" clip-rule="evenodd" />  <path fill-rule="evenodd" d="M19.314 10.443A5.34 5.34 0 0 0 14 4.667 5.324 5.324 0 0 0 9.248 7.58 3.256 3.256 0 0 0 8 7.333a3.337 3.337 0 0 0-3.326 3.117A4.668 4.668 0 0 0 2 14.666a4.673 4.673 0 0 0 4.666 4.667H8V18H6.666a3.337 3.337 0 0 1-3.333-3.334c0-1.415.901-2.68 2.242-3.146l.49-.17L6 10.666c0-1.102.897-2 2-2 .42 0 .828.137 1.18.396l.737.543.29-.87A3.993 3.993 0 0 1 14 6c2.206 0 4 1.794 4 4 0 .24-.024.49-.072.744l-.109.575.555.183a3.327 3.327 0 0 1 2.292 3.164A3.337 3.337 0 0 1 17.333 18H16v1.333h1.333A4.672 4.672 0 0 0 22 14.667c0-1.83-1.06-3.464-2.686-4.224Z" clip-rule="evenodd" /> </symbol>
<symbol xmlns="http://www.w3.org/2000/svg" viewBox="0 0 24 24" id="volume-high"><path fill-rule="evenodd" clip-rule="evenodd" d="M15.4752 3.75452L6.70176 9.72072H2.05713V14.3355H6.7036L15.4752 20.238V3.75452ZM14.1038 6.34562V17.6621L7.12206 12.964H3.42856V11.0922H7.12389L14.1038 6.34562Z" />  <path d="M20.0161 10.733C19.8107 10.291 19.5008 9.9057 19.1132 9.6102L19.9447 8.5196C20.5092 8.94997 20.9605 9.51118 21.2597 10.1548C21.559 10.7985 21.6972 11.5053 21.6624 12.2142C21.6276 12.9232 21.4209 13.6131 21.0601 14.2243C20.6993 14.8356 20.1952 15.35 19.5914 15.723L18.8706 14.5563C19.2852 14.3001 19.6313 13.947 19.8791 13.5272C20.1268 13.1075 20.2687 12.6338 20.2926 12.147C20.3165 11.6602 20.2216 11.1749 20.0161 10.733Z" />  <path d="M17.518 10.7422C17.3145 10.3006 17.0069 9.91496 16.6216 9.61841L17.458 8.53157C18.0192 8.96345 18.4672 9.52508 18.7636 10.1682C19.0599 10.8114 19.1958 11.5168 19.1595 12.2241C19.1232 12.9313 18.9159 13.6191 18.5552 14.2286C18.1946 14.838 17.6914 15.3508 17.089 15.723L16.3682 14.5563C16.7819 14.3007 17.1273 13.9486 17.375 13.5301C17.6226 13.1117 17.765 12.6394 17.7899 12.1538C17.8148 11.6682 17.7215 11.1838 17.518 10.7422Z" /> </symbol>
<symbol xmlns="http://www.w3.org/2000/svg" viewBox="0 0 24 24" id="unlock"><path fill-rule="evenodd" d="M18 20a.667.667 0 0 1-.667.667H6.667A.667.667 0 0 1 6 20v-8c0-.367.299-.667.667-.667h10.666c.368 0 .667.3.667.667v8Zm0-9.877V8c0-3.308-2.691-6-6-6S6 4.692 6 8h1.333A4.672 4.672 0 0 1 12 3.333 4.672 4.672 0 0 1 16.667 8v2h-10c-1.103 0-2 .897-2 2v8c0 1.103.897 2 2 2h10.666c1.103 0 2-.897 2-2v-8c0-.868-.559-1.601-1.333-1.877Z" clip-rule="evenodd" />  <path fill-rule="evenodd" d="M12 13.666a1 1 0 0 0-1 1c0 .296.13.558.333.741V18h1.334v-2.593a.994.994 0 0 0 .333-.74 1 1 0 0 0-1-1Z" clip-rule="evenodd" /> </symbol>
<symbol xmlns="http://www.w3.org/2000/svg" viewBox="0 0 16 16" id="pencil"><path fill-rule="evenodd" d="m12.215 5.077-1.267-1.28.89-.9 1.267 1.281-.89.9Zm-2.61.078.71-.718 1.267 1.28-.71.719-1.268-1.28Zm-4.928 4.982L8.97 5.796l1.267 1.28-4.294 4.342-1.267-1.281ZM3.63 11.985l.409-1.204.003-.004 1.265 1.28-1.237.373-.44-.445Zm10.107-8.447L12.47 2.256a.91.91 0 0 0-1.267 0L3.26 10.29 2 14l3.787-1.143 7.95-8.038a.913.913 0 0 0 0-1.281ZM12.47 2.256l1.267 1.282c.35.353.35.928 0 1.28l-7.951 8.04L2 14l1.26-3.711 7.944-8.032a.91.91 0 0 1 1.267 0Zm-1.338-.07-7.961 8.049-1.33 3.917 3.998-1.206 7.969-8.057a1.013 1.013 0 0 0 0-1.421m0 0-1.267-1.282a1.01 1.01 0 0 0-1.41 0m1.083 2.891.89-.899-1.267-1.28-.89.899 1.267 1.28Zm0-.142.749-.757-1.127-1.139-.748.758 1.126 1.138Zm-2.61.22 1.266 1.281.71-.718-1.266-1.281-.71.718Zm.71-.576-.57.576 1.126 1.139.57-.576-1.126-1.139Zm-5.498 5.558 1.126 1.138 4.154-4.199L8.97 5.938l-4.154 4.199Zm-.14 0 1.267 1.28 4.294-4.34L8.97 5.795l-4.294 4.34Zm-.931 1.821.354.359 1.02-.309-1.036-1.047-.338.997Zm-.115.027.44.445 1.237-.374-1.265-1.279-.003.004-.409 1.204Z" clip-rule="evenodd" /> </symbol>
<symbol xmlns="http://www.w3.org/2000/svg" viewBox="0 0 24 24" id="language"><path fill-rule="evenodd" d="M12 20.667c-4.779 0-8.667-3.888-8.667-8.667S7.221 3.333 12 3.333 20.667 7.221 20.667 12 16.779 20.667 12 20.667ZM12 2C6.486 2 2 6.486 2 12s4.486 10 10 10 10-4.486 10-10S17.514 2 12 2Z" clip-rule="evenodd" />  <path fill-rule="evenodd" d="M12.667 7.333h-1.334v1.334h-4V10h6.68c-.046.903-.388 2.748-2.158 4.602-1.01-.935-1.414-1.788-1.626-2.747l-1.302.29c.286 1.29.876 2.348 1.945 3.364-.529.426-1.141.844-1.86 1.24l.643 1.168a14.216 14.216 0 0 0 2.266-1.538c.677.502 1.481 1.006 2.444 1.538l.645-1.167a21.853 21.853 0 0 1-2.1-1.299c2.023-2.148 2.399-4.332 2.44-5.451h1.317V8.667h-4V7.333Z" clip-rule="evenodd" /> </symbol>
<symbol xmlns="http://www.w3.org/2000/svg" viewBox="0 0 24 24" id="forbidden"><path fill-rule="evenodd" d="M12 20.667a8.618 8.618 0 0 1-5.631-2.093L18.574 6.369A8.618 8.618 0 0 1 20.667 12c0 4.779-3.888 8.667-8.667 8.667Zm0-17.334a8.62 8.62 0 0 1 5.631 2.093L5.426 17.631A8.618 8.618 0 0 1 3.333 12c0-4.779 3.888-8.667 8.667-8.667ZM12 2C6.486 2 2 6.486 2 12s4.486 10 10 10 10-4.486 10-10S17.514 2 12 2Z" clip-rule="evenodd" /> </symbol>
<symbol xmlns="http://www.w3.org/2000/svg" viewBox="0 0 24 24" id="audio"><path fill-rule="evenodd" d="M10 14h1.333v-4H10v4Zm-2.667 5.333h1.334V4.667H7.334v14.666Zm-2.666-2.666H6V7.333H4.667v9.334ZM2 14h1.333v-4H2v4Zm10.666 2.667H14V7.333h-1.334v9.334Zm2.668 2.666h1.333V4.667h-1.334v14.666ZM20.666 14H22v-4h-1.334v4ZM18 16.667h1.333V7.333H18v9.334Z" clip-rule="evenodd" /> </symbol>
<symbol xmlns="http://www.w3.org/2000/svg" viewBox="0 0 24 24" id="eye"><path fill-rule="evenodd" d="M12.032 11a1 1 0 1 0 0 2 1 1 0 0 0 0-2Z" clip-rule="evenodd" />  <path fill-rule="evenodd" d="M12.031 15.333A3.337 3.337 0 0 1 8.698 12a3.337 3.337 0 0 1 3.333-3.334A3.337 3.337 0 0 1 15.365 12a3.337 3.337 0 0 1-3.334 3.333Zm0-8A4.672 4.672 0 0 0 7.365 12a4.672 4.672 0 0 0 4.666 4.666A4.672 4.672 0 0 0 16.698 12a4.672 4.672 0 0 0-4.667-4.667Z" clip-rule="evenodd" />  <path fill-rule="evenodd" d="M12.032 18c-3.914 0-7.432-2.457-8.633-6 1.2-3.543 4.72-6 8.633-6 3.913 0 7.432 2.457 8.632 6-1.2 3.543-4.72 6-8.632 6Zm9.97-6.198c-1.306-4.201-5.406-7.135-9.97-7.135-4.564 0-8.664 2.934-9.97 7.135L2 12l.062.198c1.306 4.201 5.406 7.135 9.97 7.135 4.564 0 8.664-2.934 9.97-7.135l.06-.198-.06-.198Z" clip-rule="evenodd" /> </symbol>
<symbol xmlns="http://www.w3.org/2000/svg" viewBox="0 0 24 24" id="add-user"><path fill-rule="evenodd" d="M3.252 18.667h12.17c-.551-.924-2.083-1.635-2.694-1.846-2.424-.572-2.698-1.902-2.72-2.052l-.008-.1v-2.072l.42-.167c.814-.325.756-.835.756-.84l-.084-.519.485-.202c.026-.024.141-.16.365-.659a.696.696 0 0 0-.095-.101l-.387-.292.427-1.23c.203-.828.12-1.685-.246-2.153-.176-.225-.405-.434-.63-.434h-.367l-.196-.23c-.001-.001-.424-.593-1.096-.593-.318.002-1.263.1-1.777.437-.603.395-1.23 1.247-.79 3.021l.398 1.214-.425.282a.5.5 0 0 0-.092.095c.118.318.344.596.434.646l.519.216-.125.504c-.006.07-.011.533.752.837l.42.167-.007 2.171c-.022.15-.29 1.482-2.78 2.072-.558.196-2.079.904-2.627 1.828ZM16.667 20H2v-.667c0-2.406 3.264-3.64 3.652-3.773 1.407-.337 1.612-.855 1.682-.995v-1.099c-.793-.456-1.088-1.117-1.156-1.626-.366-.321-.652-.816-.791-1.23-.167-.493.003-.92.24-1.221l-.122-.375c-.7-2.814.705-4.08 1.34-4.496.937-.613 2.348-.633 2.505-.634 1.005 0 1.688.605 2.01.976.509.093.98.385 1.33.833.366.466.912 1.512.474 3.274l-.153.442c.26.354.384.808.188 1.256-.182.415-.396.861-.705 1.161-.066.51-.36 1.18-1.16 1.64v1.114c.05.093.225.63 1.62.962.45.15 3.713 1.384 3.713 3.791V20Zm2.666-16.667H18V6h-2.667v1.333H18V10h1.333V7.333H22V6h-2.667V3.333Z" clip-rule="evenodd" /> </symbol>
<symbol xmlns="http://www.w3.org/2000/svg" viewBox="0 0 24 24" id="circle-cross"><path fill-rule="evenodd" d="M14.829 8.229 12 11.057 9.171 8.23l-.942.942L11.057 12 8.23 14.829l.942.942L12 12.942l2.829 2.83.942-.944L12.943 12l2.827-2.83-.942-.942Z" clip-rule="evenodd" />  <path fill-rule="evenodd" d="M12 20.667c-4.779 0-8.667-3.888-8.667-8.667S7.221 3.333 12 3.333 20.667 7.221 20.667 12 16.779 20.667 12 20.667ZM12 2C6.486 2 2 6.486 2 12s4.486 10 10 10 10-4.486 10-10S17.514 2 12 2Z" clip-rule="evenodd" /> </symbol>
<symbol xmlns="http://www.w3.org/2000/svg" viewBox="0 0 24 24" id="more-vertical"><path fill-rule="evenodd" d="M11.986 6.986a2 2 0 1 1 0-4 2 2 0 0 1 0 4Zm.028 7a2 2 0 1 1 0-4 2 2 0 0 1 0 4Zm-.028 7a2 2 0 1 1 0-4 2 2 0 0 1 0 4Z" clip-rule="evenodd" /> </symbol>
<symbol xmlns="http://www.w3.org/2000/svg" viewBox="0 0 24 24" id="share"><path fill-rule="evenodd" d="M17.333 19.334c-1.102 0-2-.898-2-2 0-1.103.898-2 2-2 1.103 0 2 .897 2 2 0 1.102-.897 2-2 2ZM6.667 14c-1.103 0-2-.897-2-2 0-1.102.897-2 2-2 1.102 0 2 .898 2 2 0 1.103-.898 2-2 2Zm10.666-9.333c1.103 0 2 .897 2 2s-.897 2-2 2c-1.102 0-2-.897-2-2s.898-2 2-2Zm0 9.333a3.316 3.316 0 0 0-2.608 1.284l-4.851-2.426c.074-.275.126-.56.126-.858 0-.299-.052-.582-.126-.858l4.85-2.425A3.316 3.316 0 0 0 17.335 10a3.337 3.337 0 0 0 3.333-3.333 3.337 3.337 0 0 0-3.334-3.333A3.337 3.337 0 0 0 14 6.667c0 .298.052.583.126.858L9.276 9.95a3.316 3.316 0 0 0-2.61-1.283A3.337 3.337 0 0 0 3.334 12a3.337 3.337 0 0 0 3.334 3.334 3.316 3.316 0 0 0 2.608-1.284l4.851 2.425c-.074.276-.126.56-.126.858a3.337 3.337 0 0 0 3.333 3.334 3.337 3.337 0 0 0 3.334-3.334A3.337 3.337 0 0 0 17.333 14Z" clip-rule="evenodd" /> </symbol>
<symbol xmlns="http://www.w3.org/2000/svg" viewBox="0 0 24 24" id="arrow-up"><path fill-rule="evenodd" d="M20.471 11.529 12 3.057 3.529 11.53l.942.942 6.862-6.862v15.058h1.334V5.609l6.862 6.862.942-.942Z" clip-rule="evenodd" /> </symbol>
<symbol xmlns="http://www.w3.org/2000/svg" viewBox="0 0 24 24" id="file-empty"><path fill-rule="evenodd" d="M4.666 2v20h14.668V7.724L13.609 2H4.666ZM6 3.334h6.667v5.333H18v12H6V3.334Zm8 .942 3.057 3.058H14V4.276Z" clip-rule="evenodd" /> </symbol>
<symbol xmlns="http://www.w3.org/2000/svg" viewBox="0 0 24 24" id="undo"><path fill-rule="evenodd" d="M12.799 6.422H6.698l2.298-2.409L7.961 3 4 7.151l3.96 4.151 1.036-1.013-2.298-2.41h6.101c3.176 0 5.76 2.617 5.76 5.832s-2.584 5.831-5.76 5.831h-.72V21h.72C16.769 21 20 17.73 20 13.711s-3.23-7.289-7.201-7.289Z" clip-rule="evenodd" /> </symbol>
<symbol xmlns="http://www.w3.org/2000/svg" viewBox="0 0 24 24" id="filter"><path fill-rule="evenodd" d="M3.394 3.333 10 12.877v9.79l4-3v-6.79l6.606-9.543H3.394Zm7.94 9.125L5.939 4.667h12.122l-5.394 7.791V19l-1.333 1v-7.542Z" clip-rule="evenodd" /> </symbol>
<symbol xmlns="http://www.w3.org/2000/svg" viewBox="0 0 24 24" id="chevrons-left"><path fill-rule="evenodd" clip-rule="evenodd" d="M10.707 18.414L12.121 17L6.828 11.707L12.121 6.414L10.707 5L4 11.707L10.707 18.414Z" />  <path fill-rule="evenodd" clip-rule="evenodd" d="M16.707 18.414L18.121 17L12.828 11.707L18.121 6.414L16.707 5L10 11.707L16.707 18.414Z" /> </symbol>
<symbol xmlns="http://www.w3.org/2000/svg" viewBox="0 0 24 24" id="calendar"><path fill-rule="evenodd" d="M14 2v2.667h-4V2H6v2.667H3.334v15.999h17.332V4.667H18V2h-4Zm1.334 3.333v-2h1.333V6h-1.333v-.666Zm-8 0v-2h1.332V6H7.333v-.666Zm10.666 2V6h1.333v2.667H4.667V6H6v1.334h4V6h4v1.334h4Zm-13.333 12h14.667V10H4.667v9.333Z" clip-rule="evenodd" />  <path fill-rule="evenodd" d="M6 12.667h1.333v-1.334H6v1.334Zm2.667 0H10v-1.334H8.667v1.334Zm2.666 0h1.334v-1.334h-1.334v1.334Zm2.667 0h1.333v-1.334H14v1.334Zm2.667 0H18v-1.334h-1.333v1.334ZM6 15.333h1.333V14H6v1.333Zm2.667 0H10V14H8.667v1.333Zm2.666 0h1.334V14h-1.334v1.333Zm2.667 0h1.333V14H14v1.333Zm2.667 0H18V14h-1.333v1.333ZM6 18h1.333v-1.334H6V18Zm2.667 0H10v-1.334H8.667V18Zm2.666 0h1.334v-1.334h-1.334V18ZM14 18h1.333v-1.334H14V18Zm2.667 0H18v-1.334h-1.333V18Z" clip-rule="evenodd" /> </symbol>
<symbol xmlns="http://www.w3.org/2000/svg" viewBox="0 0 24 24" id="arrow-left"><path fill-rule="evenodd" d="M20.667 11.333H5.609l6.862-6.862-.942-.942-8.472 8.47 8.472 8.472.942-.942-6.862-6.862h15.058v-1.334Z" clip-rule="evenodd" /> </symbol>
<symbol xmlns="http://www.w3.org/2000/svg" viewBox="0 0 24 24" id="cross"><path d="m12 13.414 6.293 6.293 1.414-1.414L13.414 12l6.293-6.293-1.414-1.414L12 10.586 5.707 4.293 4.293 5.707 10.586 12l-6.293 6.293 1.414 1.414L12 13.414Z" /> </symbol>
<symbol xmlns="http://www.w3.org/2000/svg" viewBox="0 0 24 24" id="volume-low"><path fill-rule="evenodd" clip-rule="evenodd" d="M15.4752 3.75452L6.70176 9.72072H2.05713V14.3355H6.7036L15.4752 20.238V3.75452ZM14.1038 6.34562V17.6621L7.12206 12.964H3.42856V11.0922H7.12389L14.1038 6.34562Z" />  <path d="M16.6216 9.61841C17.0069 9.91496 17.3145 10.3006 17.518 10.7422C17.7215 11.1838 17.8148 11.6682 17.7899 12.1538C17.765 12.6394 17.6226 13.1117 17.375 13.5301C17.1273 13.9486 16.7819 14.3007 16.3682 14.5563L17.089 15.723C17.6914 15.3508 18.1946 14.838 18.5552 14.2286C18.9159 13.6191 19.1232 12.9313 19.1595 12.2241C19.1958 11.5168 19.0599 10.8114 18.7636 10.1682C18.4672 9.52508 18.0192 8.96345 17.458 8.53157L16.6216 9.61841Z" /> </symbol>
<symbol xmlns="http://www.w3.org/2000/svg" viewBox="0 0 24 24" id="upload"><path fill-rule="evenodd" d="M11.952 7.334 12 7.286l.048.048h-.096Zm-6.08 4.195.942.943 4.519-4.52v12.715h1.333V7.953l4.52 4.519.942-.943L12 5.4l-6.128 6.128ZM4.667 4.667h14.666V3.334H4.667v1.333Z" clip-rule="evenodd" /> </symbol>
<symbol xmlns="http://www.w3.org/2000/svg" viewBox="0 0 24 24" id="pause"><rect x="6" y="6" width="4" height="12" fill-rule="evenodd" />  <rect x="14" y="6" width="4" height="12" fill-rule="evenodd" /> </symbol>
<symbol xmlns="http://www.w3.org/2000/svg" viewBox="0 0 24 24" id="add-file"><path fill-rule="evenodd" d="M4.666 2v20h14.668V7.724L13.609 2H4.666ZM6 3.334h6.667v5.333H18v12H6V3.334Zm8 .942 3.057 3.058H14V4.276Z" clip-rule="evenodd" />  <path fill-rule="evenodd" d="M12.667 10.667h-1.334v2.666H8.667v1.334h2.666v2.666h1.334v-2.666h2.666v-1.334h-2.666v-2.666Z" clip-rule="evenodd" /> </symbol>
<symbol xmlns="http://www.w3.org/2000/svg" viewBox="0 0 24 24" id="circle-minus"><path fill-rule="evenodd" d="M6 12.667h12v-1.333H6v1.333Z" clip-rule="evenodd" />  <path fill-rule="evenodd" d="M12 3.333c-4.779 0-8.667 3.888-8.667 8.667S7.221 20.667 12 20.667s8.667-3.888 8.667-8.667S16.779 3.333 12 3.333ZM12 22C6.486 22 2 17.514 2 12S6.486 2 12 2s10 4.486 10 10-4.486 10-10 10Z" clip-rule="evenodd" /> </symbol>
<symbol xmlns="http://www.w3.org/2000/svg" viewBox="0 0 24 24" id="help"><path fill-rule="evenodd" d="M13.232 10.69c-.082.043-2.032 1.075-2.032 3.11h1.6c0-1.053 1.16-1.684 1.162-1.684C14.057 12.065 16 11.052 16 9a4.005 4.005 0 0 0-4-4 4.005 4.005 0 0 0-4 4h1.6c0-1.323 1.076-2.4 2.4-2.4 1.324 0 2.4 1.077 2.4 2.4 0 1.068-1.153 1.684-1.168 1.69Zm-.383 7.16a1.2 1.2 0 1 0-1.697-1.697 1.2 1.2 0 0 0 1.697 1.697Z" clip-rule="evenodd" /> </symbol>
<symbol xmlns="http://www.w3.org/2000/svg" viewBox="0 0 24 24" id="activity-log"><path fill-rule="evenodd" d="M16.667 4.667V6H18v14.667H6V6h1.333V4.667H4.667V22h14.667V4.667h-2.667Z" clip-rule="evenodd" />  <path fill-rule="evenodd" d="M14 6h-4V4.667h1.333V4a.667.667 0 0 1 1.334 0v.667H14V6Zm1.333-2.667h-1.447A2.004 2.004 0 0 0 12 2c-.87 0-1.61.557-1.886 1.333H8.667v4h6.666v-4Z" clip-rule="evenodd" /> </symbol>
<symbol xmlns="http://www.w3.org/2000/svg" viewBox="0 0 24 24" id="arrows-related"><path fill-rule="evenodd" d="m5.018 10 1.857 1.743-.913.972L2.36 9.333l3.603-3.381.913.972-1.857 1.743h15.649V10H5.018Zm13.964 4.246-1.856-1.743.912-.972 3.603 3.381-3.603 3.382-.912-.972 1.856-1.743H3.334v-1.333h15.648Z" clip-rule="evenodd" /> </symbol>
<symbol xmlns="http://www.w3.org/2000/svg" viewBox="0 0 24 24" id="menu"><path d="M21 7H3V5H21V7Z" fill-rule="evenodd" /> <path d="M21 13H3V11H21V13Z" fill-rule="evenodd" /> <path d="M3 19H21V17H3V19Z" fill-rule="evenodd" /> </symbol>
<symbol xmlns="http://www.w3.org/2000/svg" viewBox="0 0 24 24" id="circle-chevron-left"><path fill-rule="evenodd" d="M12 20.667c4.779 0 8.667-3.888 8.667-8.667S16.779 3.333 12 3.333 3.333 7.221 3.333 12 7.221 20.667 12 20.667ZM12 2c5.514 0 10 4.486 10 10s-4.486 10-10 10S2 17.514 2 12 6.486 2 12 2Z" clip-rule="evenodd" />  <path fill-rule="evenodd" d="m12.862 7.529.943.942L10.276 12l3.529 3.529-.943.942L8.391 12l4.471-4.471Z" clip-rule="evenodd" /> </symbol>
<symbol xmlns="http://www.w3.org/2000/svg" viewBox="0 0 24 24" id="shield-check"><g clip-path="url(#a)">  <path d="M6 4.667v8c0 2.059 1.093 3.986 2.98 5.725a16.165 16.165 0 0 0 2.221 1.706c.312.2.582.36.799.48a16.167 16.167 0 0 0 3.02-2.186c1.887-1.74 2.98-3.666 2.98-5.725v-8H6ZM4.667 3.333h14.666v9.334c0 5.676-6.748 9.119-7.034 9.263l-.299.149-.299-.149c-.286-.144-7.034-3.587-7.034-9.263V3.333Z" />  <path fill-rule="evenodd" d="m10.667 14.943-3.138-3.138.942-.943 2.196 2.195 4.862-4.862.942.943-5.804 5.805Z" clip-rule="evenodd" />  </g>  <defs>  <clipPath id="a">  <path d="M0 0h24v24H0z" />  </clipPath>  </defs> </symbol>
<symbol xmlns="http://www.w3.org/2000/svg" viewBox="0 0 24 24" id="synonyms"><path fill-rule="evenodd" clip-rule="evenodd" d="M5.1668 7.33362L2.83347 15.3336H2.00014V16.6663H4.66614V15.3336H4.22214L4.80547 13.3336H7.19414L7.77814 15.3336H7.33347V16.6663H9.99947V15.3336H9.1668L6.83347 7.33362H5.1668ZM6.00014 9.23829L6.80547 11.9996H5.19414L6.00014 9.23829Z" />  <path fill-rule="evenodd" clip-rule="evenodd" d="M8.034 4.2107L13.3673 20.2107L14.632 19.7887L9.29866 3.7887L8.034 4.2107Z" />  <path d="M21.3333 13.9385C21.3333 14.6852 21.1132 15.3265 20.6728 15.8626C20.2406 16.3987 19.5759 16.6667 18.6789 16.6667H14.6667V15.3026H15.5841V8.69748H14.6667V7.33337H18.63C19.3802 7.33337 19.9674 7.5344 20.3914 7.93645C20.8237 8.3385 21.0398 8.87457 21.0398 9.54466C21.0398 10.0329 20.9134 10.4588 20.6606 10.8226C20.4078 11.1864 20.0612 11.4161 19.6208 11.5118V11.5693C20.1916 11.6746 20.6198 11.9426 20.9052 12.3734C21.1906 12.8041 21.3333 13.3259 21.3333 13.9385ZM19.5841 9.94671C19.5841 9.4585 19.4618 9.12825 19.2171 8.95594C18.9806 8.78363 18.6748 8.69748 18.2997 8.69748H16.9419V11.2534H18.2141C18.6789 11.2534 19.0214 11.1337 19.2416 10.8944C19.4699 10.6455 19.5841 10.3296 19.5841 9.94671ZM19.8777 13.8811C19.8777 12.9621 19.4292 12.5026 18.5321 12.5026H16.9419V15.3026H18.3486C19.368 15.3026 19.8777 14.8288 19.8777 13.8811Z" /> </symbol>
<symbol xmlns="http://www.w3.org/2000/svg" viewBox="0 0 24 24" id="history"><path fill-rule="evenodd" d="M4.333 4.017c0-.654.53-1.183 1.183-1.183h10.469v.09c.143.058.275.145.386.256l2.708 2.708c.111.111.198.243.257.386h.09V12.1h-1.334V7.607h-2.257c-.653 0-1.183-.53-1.183-1.183V4.167H5.667v15.865h5.352v1.333H5.516c-.653 0-1.183-.53-1.183-1.182V4.017Zm11.652.663v1.594h1.594L15.985 4.68ZM7.774 6.273h4.773v1.333H7.773V6.273Zm0 3.44h8.212v1.333H7.773V9.712Zm0 3.439h3.913v1.333H7.773v-1.333Zm13.648 7.546-1.664-1.664a3.246 3.246 0 1 0-.943.943l1.664 1.664.943-.943Zm-4.382-5.352a1.913 1.913 0 1 0 0 3.826 1.913 1.913 0 0 0 0-3.826Z" clip-rule="evenodd" /> </symbol>
<symbol xmlns="http://www.w3.org/2000/svg" viewBox="0 0 24 24" id="folder"><path d="M8.943 3.333 11.609 6H22v13.334H2v-16h6.943Zm11.724 4H3.333V18h17.334V7.334ZM8.39 4.668H3.333V6h6.39L8.39 4.667Z" /> </symbol>
<symbol xmlns="http://www.w3.org/2000/svg" viewBox="0 0 24 24" id="users"><path fill-rule="evenodd" d="M3.252 18h12.17c-.551-.924-2.083-1.635-2.694-1.845-2.424-.573-2.698-1.902-2.72-2.052L10 14.002V11.93l.42-.167c.814-.324.756-.834.756-.839l-.084-.52.485-.201c.026-.024.141-.16.365-.66a.695.695 0 0 0-.095-.101l-.387-.292.427-1.23c.203-.827.12-1.685-.246-2.153-.176-.224-.405-.434-.63-.434h-.367l-.196-.23c-.001-.001-.424-.592-1.096-.592-.318.002-1.263.1-1.777.436-.603.395-1.23 1.248-.79 3.022l.398 1.213-.425.282a.5.5 0 0 0-.092.095c.118.318.344.596.434.646l.519.216-.125.504c-.006.071-.011.534.752.838l.42.166-.007 2.172c-.022.15-.29 1.481-2.78 2.072-.558.196-2.079.904-2.627 1.827Zm13.415 1.333H2v-.666c0-2.407 3.264-3.641 3.652-3.774 1.407-.337 1.612-.855 1.682-.995v-1.099c-.793-.456-1.088-1.117-1.156-1.626-.366-.321-.652-.816-.791-1.23-.167-.492.003-.92.24-1.221l-.122-.375c-.7-2.814.705-4.08 1.34-4.496.937-.612 2.348-.633 2.505-.634 1.005 0 1.688.606 2.01.976.509.093.98.385 1.33.834.366.466.912 1.511.474 3.273l-.153.443c.26.353.384.807.188 1.255-.182.415-.396.861-.705 1.161-.066.511-.36 1.18-1.16 1.64v1.114c.05.094.225.631 1.62.962.45.151 3.713 1.384 3.713 3.792v.666Z" clip-rule="evenodd" />  <path fill-rule="evenodd" d="M22 19.334h-3.333V18h1.781c-.593-.919-2.237-1.63-2.893-1.841-2.54-.558-2.847-1.816-2.882-2.062l-.006-.095V11.93l.42-.166c.81-.324.816-.842.814-.9l-.017-.473.44-.195c.105-.069.287-.432.389-.644a.677.677 0 0 0-.104-.098l-.408-.298.454-1.248c.289-1.092-.018-1.804-.227-2.078-.203-.264-.483-.496-.767-.496h-.353l-.198-.211c-.015-.022-.454-.588-1.19-.611a.464.464 0 0 0-.15.074l-.895-.977c.354-.323.838-.383.932-.393l.069-.001c1.057 0 1.78.607 2.117.971a2.35 2.35 0 0 1 1.492.912c.62.808.776 1.95.439 3.213l-.155.421c.282.358.416.822.2 1.283-.216.458-.439.89-.76 1.175-.088.51-.409 1.158-1.209 1.612v1.114c.049.08.385.622 1.903.957.472.149 4.097 1.377 4.097 3.794v.666Z" clip-rule="evenodd" /> </symbol>
<symbol xmlns="http://www.w3.org/2000/svg" viewBox="0 0 24 24" id="file-pdf"><path fill-rule="evenodd" d="M4.666 2v20h14.668V7.724L13.609 2H4.666ZM6 3.334h6.667v5.333H18v12H6V3.334Zm8 .942 3.057 3.058H14V4.276Z" clip-rule="evenodd" />  <path d="M7.275 17v-3.636h1.502c.273 0 .508.053.705.16.2.105.352.252.46.442a1.3 1.3 0 0 1 .162.657c0 .25-.055.47-.165.658a1.107 1.107 0 0 1-.467.435 1.573 1.573 0 0 1-.721.155h-.927v-.693h.763a.714.714 0 0 0 .332-.069.475.475 0 0 0 .205-.194.6.6 0 0 0 .069-.292.583.583 0 0 0-.07-.292.465.465 0 0 0-.204-.191.737.737 0 0 0-.332-.068h-.433V17h-.879Zm4.606 0h-1.344v-3.636h1.342c.37 0 .69.072.957.218.269.144.476.353.622.625.145.271.218.595.218.973 0 .379-.073.704-.218.977-.145.272-.351.48-.62.626-.269.145-.588.217-.957.217Zm-.465-.75h.431c.204 0 .376-.034.517-.102a.681.681 0 0 0 .321-.34c.074-.157.11-.366.11-.628s-.036-.47-.11-.625a.679.679 0 0 0-.325-.337 1.184 1.184 0 0 0-.525-.105h-.42v2.138Zm2.773.75v-3.636h2.483v.713h-1.604v.746h1.446v.716h-1.446V17h-.879Z" /> </symbol>
<symbol xmlns="http://www.w3.org/2000/svg" viewBox="0 0 24 24" id="chevron-left"><path fill-rule="evenodd" d="m14.293 18.707 1.414-1.414L10.414 12l5.293-5.293-1.414-1.414L7.586 12l6.707 6.707Z" clip-rule="evenodd" /> </symbol>
<symbol xmlns="http://www.w3.org/2000/svg" viewBox="0 0 24 24" id="smiley-sad"><path fill-rule="evenodd" clip-rule="evenodd" d="M12 3.33333C7.22133 3.33333 3.33333 7.22133 3.33333 12C3.33333 16.7787 7.22133 20.6667 12 20.6667C16.7787 20.6667 20.6667 16.7787 20.6667 12C20.6667 7.22133 16.7787 3.33333 12 3.33333ZM12 22C6.486 22 2 17.514 2 12C2 6.486 6.486 2 12 2C17.514 2 22 6.486 22 12C22 17.514 17.514 22 12 22Z" /> <path fill-rule="evenodd" clip-rule="evenodd" d="M9.00004 9.33334C9.00004 9.88534 8.55204 10.3333 8.00004 10.3333C7.44804 10.3333 7.00004 9.88534 7.00004 9.33334C7.00004 8.78134 7.44804 8.33334 8.00004 8.33334C8.55204 8.33334 9.00004 8.78134 9.00004 9.33334ZM17 9.33334C17 9.88534 16.552 10.3333 16 10.3333C15.448 10.3333 15 9.88534 15 9.33334C15 8.78134 15.448 8.33334 16 8.33334C16.552 8.33334 17 8.78134 17 9.33334ZM16.3116 16.8809C15.8342 15.7289 14.9376 14.8322 13.7856 14.3549C11.4082 13.3695 8.67291 14.5035 7.68824 16.8809L6.45691 16.3702C7.07024 14.8902 8.22358 13.7369 9.70358 13.1235C11.1842 12.5102 12.8149 12.5102 14.2962 13.1235C15.7769 13.7369 16.9302 14.8902 17.5436 16.3702L16.3116 16.8809Z" /> </symbol>
<symbol xmlns="http://www.w3.org/2000/svg" viewBox="0 0 24 24" id="arrows-unrelated"><path fill-rule="evenodd" d="m5.018 10 1.857 1.743-.913.972L2.36 9.333l3.603-3.381.913.972-1.857 1.743h15.649V10H5.018Zm13.964 4.246-1.856-1.743.912-.972 3.603 3.381-3.603 3.382-.912-.972 1.856-1.743H3.334v-1.333h15.648Z" clip-rule="evenodd" />  <path fill-rule="evenodd" d="M19.333 5.333 6 20l-.987-.897L18.346 4.436l.987.897Z" clip-rule="evenodd" /> </symbol>
<symbol xmlns="http://www.w3.org/2000/svg" viewBox="0 0 24 24" id="heart"><path fill-rule="evenodd" d="M7.47 4.603a4.112 4.112 0 0 0-2.925 1.212A4.11 4.11 0 0 0 3.333 8.74c0 1.105.43 2.144 1.212 2.925L12 19.121l7.455-7.455a4.11 4.11 0 0 0 1.212-2.925c0-1.106-.43-2.144-1.212-2.926a4.112 4.112 0 0 0-2.925-1.212 4.115 4.115 0 0 0-2.927 1.212L12 7.419l-1.603-1.604A4.115 4.115 0 0 0 7.47 4.603ZM12 21.006l-8.397-8.397A5.431 5.431 0 0 1 2 8.74c0-1.462.569-2.836 1.603-3.869A5.436 5.436 0 0 1 7.47 3.27c1.461 0 2.835.57 3.868 1.602l.661.661.66-.661a5.438 5.438 0 0 1 3.87-1.602c1.46 0 2.834.57 3.867 1.602A5.436 5.436 0 0 1 22 8.741a5.44 5.44 0 0 1-1.602 3.868L12 21.006Z" clip-rule="evenodd" /> </symbol>
</svg>
