<svg width="0" height="0" class="hidden">
<symbol xmlns="http://www.w3.org/2000/svg" viewBox="0 0 24 24" id="grid"><path fill-rule="evenodd" clip-rule="evenodd" d="M5.14286 7.42857H7.42857V5.14286H5.14286V7.42857ZM4 8.57143H8.57143V4H4V8.57143ZM10.8571 7.42857H13.1429V5.14286H10.8571V7.42857ZM9.71429 8.57143H14.2857V4H9.71429V8.57143ZM16.5714 7.42857H18.8571V5.14286H16.5714V7.42857ZM15.4286 8.57143H20V4H15.4286V8.57143ZM5.14286 13.1429H7.42857V10.8571H5.14286V13.1429ZM4 14.2857H8.57143V9.71429H4V14.2857ZM10.8571 13.1429H13.1429V10.8571H10.8571V13.1429ZM9.71429 14.2857H14.2857V9.71429H9.71429V14.2857ZM16.5714 13.1429H18.8571V10.8571H16.5714V13.1429ZM15.4286 14.2857H20V9.71429H15.4286V14.2857ZM5.14286 18.8571H7.42857V16.5714H5.14286V18.8571ZM4 20H8.57143V15.4286H4V20ZM10.8571 18.8571H13.1429V16.5714H10.8571V18.8571ZM9.71429 20H14.2857V15.4286H9.71429V20ZM16.5714 18.8571H18.8571V16.5714H16.5714V18.8571ZM15.4286 20H20V15.4286H15.4286V20Z" /> </symbol>
<symbol xmlns="http://www.w3.org/2000/svg" viewBox="0 0 24 24" id="search"><path d="m20 18.591-3.32-3.32a6.891 6.891 0 0 0 1.408-4.227A7.003 7.003 0 0 0 11.044 4 7 7 0 0 0 4 11.044a7 7 0 0 0 7.044 7.044 6.891 6.891 0 0 0 4.226-1.409L18.591 20 20 18.591ZM6.013 11.044a4.982 4.982 0 0 1 5.031-5.031 4.982 4.982 0 0 1 5.032 5.031 4.98 4.98 0 0 1-5.032 5.032 4.98 4.98 0 0 1-5.031-5.032Z" /> </symbol>
<symbol xmlns="http://www.w3.org/2000/svg" viewBox="0 0 24 24" id="payment"><path fill-rule="evenodd" d="M20 18H4a.667.667 0 0 1-.667-.667v-6h17.334v6A.667.667 0 0 1 20 18ZM4 6h16c.368 0 .667.298.667.667v2H3.333v-2C3.333 6.298 3.632 6 4 6Zm16-1.333H4c-1.103 0-2 .897-2 2v10.666c0 1.103.897 2 2 2h16c1.103 0 2-.897 2-2V6.667c0-1.103-.897-2-2-2Z" clip-rule="evenodd" /> </symbol>
<symbol xmlns="http://www.w3.org/2000/svg" viewBox="0 0 24 24" id="arrow-down"><path fill-rule="evenodd" d="m19.529 11.529-6.862 6.862V3.333h-1.334v15.058l-6.862-6.862-.942.942L12 20.943l8.471-8.472-.942-.942Z" clip-rule="evenodd" /> </symbol>
<symbol xmlns="http://www.w3.org/2000/svg" viewBox="0 0 24 24" id="chevrons-right"><path fill-rule="evenodd" d="M13.293 18.414 11.879 17l5.293-5.293-5.293-5.293L13.293 5 20 11.707l-6.707 6.707Z" clip-rule="evenodd" />  <path fill-rule="evenodd" d="M7.293 18.414 5.879 17l5.293-5.293-5.293-5.293L7.293 5 14 11.707l-6.707 6.707Z" clip-rule="evenodd" /> </symbol>
<symbol xmlns="http://www.w3.org/2000/svg" viewBox="0 0 24 24" id="list"><path fill-rule="evenodd" d="M9.333 7.333h10V6h-10v1.333Zm0 5.334h10v-1.333h-10v1.333Zm0 5.333h10v-1.334h-10V18Zm-4-4.39L3.53 11.805l.942-.943.862.862L7.53 9.53l.942.943-3.138 3.138Zm0-5.334L3.53 6.471l.942-.942.862.862L7.53 4.195l.942.943-3.138 3.138Zm0 10.666L3.53 17.139l.942-.943.862.862 2.196-2.195.942.943-3.138 3.137Z" clip-rule="evenodd" /> </symbol>
<symbol xmlns="http://www.w3.org/2000/svg" viewBox="0 0 24 24" id="lock-off"><path fill-rule="evenodd" d="m7.848 5.875-1.184-.61a5.97 5.97 0 0 0-.506 1.366l1.298.305c.086-.367.218-.723.392-1.061ZM7.483 4.06l1.004.878c.25-.286.533-.541.843-.759l-.766-1.09a6.04 6.04 0 0 0-1.081.971Zm9.056 2.859 1.297-.31a5.937 5.937 0 0 0-.51-1.365l-1.183.616c.175.337.309.693.396 1.059Zm-5.113-3.55-.164-1.323c-.485.06-.96.18-1.415.355l.482 1.244a4.55 4.55 0 0 1 1.097-.276Zm5.077.675a6.04 6.04 0 0 0-1.084-.969l-.762 1.094c.31.216.594.47.846.756l1-.881Zm-3.946-.678a4.69 4.69 0 0 1 1.1.272l.475-1.245a5.963 5.963 0 0 0-1.415-.35l-.16 1.323Zm4.11 5.982H18V8.05h-1.333v1.298ZM12 15.666a1 1 0 1 0 0-2 1 1 0 0 0 0 2ZM11.333 18h1.334v-1.334h-1.334V18ZM18 22h1.333v-1.334H18V22ZM7.333 22h1.334v-1.334H7.333V22Zm8 0h1.334v-1.334h-1.334V22Zm-2.666 0H14v-1.334h-1.333V22ZM10 22h1.334v-1.334H10V22Zm-5.333 0H6v-1.334H4.667V22Zm0-2.667H6V18H4.667v1.333Zm0-5.333H6v-1.334H4.667V14Zm0 2.666H6v-1.333H4.667v1.333Zm0-5.333H6V10H4.667v1.333Zm5.333 0h1.333V10H10v1.333Zm-2.667 0h1.334V10H7.333v1.333Zm8 0h1.334V10h-1.334v1.333Zm-2.666 0H14V10h-1.333v1.333Zm5.333 0h1.333V10H18v1.333Zm0 8h1.333V18H18v1.333ZM18 14h1.333v-1.334H18V14Zm0 2.666h1.333v-1.333H18v1.333ZM6 9.368h1.333V8.07H6v1.298Z" clip-rule="evenodd" /> </symbol>
<symbol xmlns="http://www.w3.org/2000/svg" viewBox="0 0 24 24" id="connectors"><path fill-rule="evenodd" d="M5.683 8.35h2.9a11.36 11.36 0 0 1 1.94-5.527 6.355 6.355 0 0 0-4.84 5.527ZM12 3.004A10.06 10.06 0 0 0 9.887 8.35h4.228A10.062 10.062 0 0 0 12 3.004Zm2.115 6.646A10.062 10.062 0 0 1 12 14.996 10.059 10.059 0 0 1 9.887 9.65h4.228Zm-5.533 0H5.683a6.355 6.355 0 0 0 4.84 5.527 11.36 11.36 0 0 1-1.94-5.527Zm4.068 6.973a7.65 7.65 0 1 0-1.3 0v.807a2.654 2.654 0 0 0-1.92 1.92H3a.65.65 0 1 0 0 1.3h6.43a2.651 2.651 0 0 0 5.14 0H21a.65.65 0 1 0 0-1.3h-6.43a2.655 2.655 0 0 0-1.92-1.92v-.807Zm.828-1.446A11.36 11.36 0 0 0 15.42 9.65h2.897a6.355 6.355 0 0 1-4.839 5.527Zm4.84-6.827H15.42a11.36 11.36 0 0 0-1.942-5.527 6.355 6.355 0 0 1 4.84 5.527ZM12 18.65a1.35 1.35 0 1 0 0 2.7 1.35 1.35 0 0 0 0-2.7Z" clip-rule="evenodd" /> </symbol>
<symbol xmlns="http://www.w3.org/2000/svg" viewBox="0 0 16 16" id="repeat"><g clip-path="url(#clip0_256_12351)">  <path fill-rule="evenodd" clip-rule="evenodd" d="M6.97983 0.979821C7.17509 0.784558 7.49167 0.784558 7.68693 0.979821L9.68694 2.97982C9.8822 3.17508 9.8822 3.49167 9.68694 3.68693L7.68693 5.68693C7.49167 5.88219 7.17509 5.88219 6.97983 5.68693C6.78457 5.49166 6.78457 5.17508 6.97983 4.97982L8.12627 3.83337H4.53338C3.96508 3.83337 3.56892 3.83376 3.2605 3.85896C2.95792 3.88368 2.78407 3.92977 2.6524 3.99686C2.37015 4.14067 2.14068 4.37015 1.99687 4.65239C1.92978 4.78407 1.88369 4.95791 1.85897 5.26049C1.83377 5.56891 1.83338 5.96507 1.83338 6.53337V10.3334C1.83338 10.6589 1.83446 10.7732 1.84622 10.8625C1.93483 11.5356 2.46449 12.0653 3.13759 12.1539C3.22688 12.1656 3.34121 12.1667 3.66672 12.1667C3.94286 12.1667 4.16672 12.3906 4.16672 12.6667C4.16672 12.9428 3.94286 13.1667 3.66672 13.1667L3.62816 13.1667C3.3557 13.1668 3.17014 13.1668 3.00707 13.1453C1.88523 12.9976 1.00246 12.1149 0.85477 10.993C0.833302 10.83 0.833333 10.6444 0.833378 10.3719C0.83338 10.3593 0.833382 10.3464 0.833382 10.3334L0.833382 6.51197C0.833377 5.97008 0.833373 5.533 0.862291 5.17906C0.892066 4.81464 0.954972 4.49454 1.10587 4.1984C1.34555 3.72799 1.728 3.34554 2.19841 3.10586C2.49455 2.95496 2.81465 2.89206 3.17907 2.86228C3.53301 2.83336 3.97009 2.83337 4.51198 2.83337L8.12628 2.83337L6.97983 1.68693C6.78457 1.49167 6.78457 1.17508 6.97983 0.979821ZM12.8625 3.84621C12.7732 3.83445 12.6589 3.83337 12.3334 3.83337C12.0572 3.83337 11.8334 3.60952 11.8334 3.33337C11.8334 3.05723 12.0572 2.83337 12.3334 2.83337C12.3464 2.83337 12.3593 2.83337 12.372 2.83337C12.6444 2.83332 12.83 2.83329 12.993 2.85476C14.1149 3.00245 14.9976 3.88522 15.1453 5.00706C15.1668 5.17012 15.1668 5.35568 15.1667 5.62812L15.1667 9.48812C15.1667 10.03 15.1667 10.4671 15.1378 10.821C15.108 11.1854 15.0451 11.5055 14.8942 11.8017C14.6545 12.2721 14.2721 12.6545 13.8017 12.8942C13.5055 13.0451 13.1855 13.108 12.821 13.1378C12.4671 13.1667 12.03 13.1667 11.4881 13.1667H7.87382L9.02027 14.3132C9.21553 14.5084 9.21553 14.825 9.02027 15.0203C8.82501 15.2155 8.50842 15.2155 8.31316 15.0203L6.31316 13.0203C6.1179 12.825 6.1179 12.5084 6.31316 12.3132L8.31316 10.3132C8.50842 10.1179 8.82501 10.1179 9.02027 10.3132C9.21553 10.5084 9.21553 10.825 9.02027 11.0203L7.87382 12.1667H11.4667C12.035 12.1667 12.4312 12.1663 12.7396 12.1411C13.0422 12.1164 13.216 12.0703 13.3477 12.0032C13.6299 11.8594 13.8594 11.6299 14.0032 11.3477C14.0703 11.216 14.1164 11.0422 14.1411 10.7396C14.1663 10.4312 14.1667 10.035 14.1667 9.46671V5.66671C14.1667 5.3412 14.1656 5.22687 14.1539 5.13758C14.0653 4.46448 13.5356 3.93482 12.8625 3.84621Z" />  </g>  <defs>  <clipPath id="clip0_256_12351">  <rect width="16" height="16" />  </clipPath>  </defs> </symbol>
<symbol xmlns="http://www.w3.org/2000/svg" viewBox="0 0 24 24" id="circle-chevron-right"><path fill-rule="evenodd" d="M12 3.333c-4.779 0-8.667 3.888-8.667 8.667S7.221 20.667 12 20.667s8.667-3.888 8.667-8.667S16.779 3.333 12 3.333ZM12 22C6.486 22 2 17.514 2 12S6.486 2 12 2s10 4.486 10 10-4.486 10-10 10Z" clip-rule="evenodd" />  <path fill-rule="evenodd" d="m11.138 16.471-.943-.942L13.724 12l-3.529-3.529.943-.942L15.609 12l-4.471 4.471Z" clip-rule="evenodd" /> </symbol>
<symbol xmlns="http://www.w3.org/2000/svg" viewBox="0 0 24 24" id="chart"><path fill-rule="evenodd" d="M13.759 5.099c0-.64.518-1.158 1.157-1.158h3.927c.64 0 1.157.519 1.157 1.158v13.743c0 .64-.518 1.158-1.157 1.158H5.099a1.157 1.157 0 0 1-1.157-1.158v-3.108c0-.64.518-1.158 1.157-1.158H8.85v-4.569c0-.639.518-1.157 1.158-1.157h3.75V5.099Zm0 5.084h-3.575v8.483h3.575v-8.483Zm1.333 8.483h3.575V5.275h-3.575v13.391Zm-6.242 0V15.91H5.275v2.757H8.85Z" clip-rule="evenodd" /> </symbol>
<symbol xmlns="http://www.w3.org/2000/svg" viewBox="0 0 24 24" id="thumb-up"><path fill-rule="evenodd" d="M5.82106 20.0516C5.18342 20.0516 4.6665 19.5347 4.6665 18.8971V10.9281C4.6665 10.2904 5.18344 9.77357 5.82106 9.77357H8.07158C8.40867 9.77357 8.72104 9.59671 8.89446 9.30766L11.0985 5.63427C11.8131 4.4434 13.4962 4.33005 14.3639 5.41473C14.7728 5.92595 14.9047 6.60534 14.7165 7.23249L13.9542 9.77357H17.4342C18.9461 9.77357 20.0442 11.2113 19.6463 12.6699L18.0939 18.362C17.8219 19.3596 16.9158 20.0516 15.8818 20.0516H8.84587H7.51253H5.82106ZM7.51253 18.7183H5.99984V11.1069H7.51253V18.7183ZM8.84587 10.9723C9.33694 10.796 9.76127 10.4545 10.0378 9.99366L12.2417 6.32034C12.4784 5.92608 13.0355 5.88864 13.3227 6.24762C13.458 6.41686 13.5017 6.6417 13.4394 6.84934L12.608 9.62059C12.3858 10.3615 12.9406 11.1069 13.7139 11.1069H17.4342C18.0669 11.1069 18.5265 11.7086 18.36 12.319L16.8076 18.0112C16.6937 18.4287 16.3145 18.7183 15.8818 18.7183H8.84587V10.9723Z" clip-rule="evenodd" /> </symbol>
<symbol xmlns="http://www.w3.org/2000/svg" viewBox="0 0 24 24" id="user"><path fill-rule="evenodd" d="M4.1 20.667h15.81c-.612-1.718-3.41-2.704-3.442-2.714-3.007-.711-3.13-2.414-3.135-2.606v-2.452l.37-.184c.9-.447.923-1.254.922-1.345l-.002-.447.413-.182c.11-.078.303-.537.408-.784l.097-.225c-.024-.011-.165-.161-.242-.216l-.4-.285.466-1.43c.274-1.107.158-2.06-.332-2.686a1.132 1.132 0 0 0-.925-.444h-.366l-.197-.376c-.003-.005-.583-.906-1.517-.906-.412.003-1.637.09-2.316.533-.8.523-1.632 1.622-1.058 3.934l.46 1.397-.426.278c-.1.07-.215.213-.2.256.274.814.466.946.487.958l.426.177-.023.459c0 .082.02.888.919 1.334l.37.184v2.438c-.004.204-.123 1.908-3.19 2.636-.809.277-2.86 1.267-3.378 2.698ZM21.332 22H2.667v-.667c0-3.11 4.272-4.583 4.455-4.644 2.091-.5 2.217-1.39 2.218-1.398l-.004-1.6a2.87 2.87 0 0 1-1.258-1.963c-.42-.372-.674-.988-.853-1.52-.198-.589.034-1.096.33-1.44l-.182-.557c-.816-3.28.659-4.805 1.61-5.426 1.13-.74 2.851-.766 3.043-.766 1.235 0 2.065.775 2.431 1.208.619.096 1.198.448 1.626.996.438.558 1.092 1.814.564 3.942l-.198.607c.318.369.568.907.313 1.49l-.09.21c-.188.445-.395.934-.745 1.253a2.876 2.876 0 0 1-1.26 1.967v1.64c.005 0 .158.867 2.153 1.34.24.078 4.513 1.55 4.513 4.661V22Z" clip-rule="evenodd" /> </symbol>
<symbol xmlns="http://www.w3.org/2000/svg" viewBox="0 0 24 24" id="account"><path fill-rule="evenodd" d="M11.667 1.333 17 4.381v5.32l5 2.667v6.43l-5.302 3.409-5.031-2.683-5.032 2.683-5.302-3.408v-6.431l5-2.667v-5.32l5.334-3.048Zm-4 4.514v3.867L11 11.62V7.513L7.667 5.847Zm4.666 1.666v4.106l3.334-1.905V5.846l-3.334 1.667ZM11 13.88l-3.667 1.956v4.489L11 18.368v-4.489Zm-8.333.038L6 15.822v4.392L2.667 18.07v-4.154Zm9.666 4.451V13.88L16 15.835v4.488l-3.667-1.955Zm5 1.846 3.334-2.143v-4.154l-3.334 1.905v4.392ZM8.413 4.729l3.254 1.627 3.254-1.627-3.254-1.86-3.255 1.86Zm-1.735 9.944-3.299-1.885 3.61-1.925 3.299 1.885-3.61 1.925Zm9.978 0 3.298-1.885-3.61-1.925-3.298 1.885 3.61 1.925Z" clip-rule="evenodd" /> </symbol>
<symbol xmlns="http://www.w3.org/2000/svg" viewBox="0 0 24 24" id="fullscreen"><path fill-rule="evenodd" d="M15.138 19.139v1.333h5.334v-5.333h-1.334v3.057L14.943 14l-.943.942 4.196 4.196h-3.058ZM4.862 5.805 9.057 10 10 9.058 5.805 4.862h3.057V3.53H3.529v5.333h1.333V5.805Zm10.276-.943h3.058L14 9.058l.943.942 4.195-4.195v3.057h1.334V3.53h-5.334v1.333ZM8.862 19.139H5.805L10 14.943l-.943-.942-4.195 4.195v-3.057H3.529v5.333h5.333v-1.333Z" clip-rule="evenodd" /> </symbol>
<symbol xmlns="http://www.w3.org/2000/svg" viewBox="0 0 24 24" id="home"><path fill-rule="evenodd" d="M12 3.217 2.984 8.765l.699 1.136L12 4.783 20.317 9.9l.699-1.136L12 3.217ZM16.667 18H14v-5.333h-4V18H7.333v-8H6v9.333h5.333V14h1.334v5.333H18V10h-1.333v8Z" clip-rule="evenodd" /> </symbol>
<symbol xmlns="http://www.w3.org/2000/svg" viewBox="0 0 16 16" id="rephrase"><path fill-rule="evenodd" clip-rule="evenodd" d="M11.6464 1.64645C11.8417 1.45118 12.1583 1.45118 12.3536 1.64645L14.3536 3.64645C14.5488 3.84171 14.5488 4.15829 14.3536 4.35355L12.3536 6.35355C12.1583 6.54882 11.8417 6.54882 11.6464 6.35355C11.4512 6.15829 11.4512 5.84171 11.6464 5.64645L12.7929 4.5H12.3793C11.722 4.5 11.4975 4.50509 11.3012 4.56473C11.1125 4.62203 10.9369 4.71597 10.7846 4.84118C10.6261 4.97148 10.4973 5.15543 10.1327 5.70231L6.69933 10.8524C6.6855 10.8731 6.67186 10.8936 6.65841 10.9138C6.35082 11.3756 6.13812 11.6949 5.85036 11.9314C5.59646 12.14 5.3039 12.2966 4.98943 12.3921C4.63302 12.5004 4.24937 12.5002 3.69455 12.5C3.67028 12.5 3.64568 12.5 3.62075 12.5H2C1.72386 12.5 1.5 12.2761 1.5 12C1.5 11.7239 1.72386 11.5 2 11.5H3.62075C4.27802 11.5 4.50248 11.4949 4.69884 11.4353C4.88753 11.378 5.06306 11.284 5.2154 11.1588C5.37394 11.0285 5.50269 10.8446 5.86728 10.2977L9.30067 5.14761C9.3145 5.12686 9.32813 5.10639 9.34159 5.0862C9.64918 4.62445 9.86188 4.30514 10.1496 4.06864C10.4035 3.85995 10.6961 3.70338 11.0106 3.60788C11.367 3.49964 11.7506 3.49978 12.3055 3.49998C12.3297 3.49999 12.3543 3.5 12.3793 3.5H12.7929L11.6464 2.35355C11.4512 2.15829 11.4512 1.84171 11.6464 1.64645ZM4.69884 4.56473C4.50248 4.50509 4.27802 4.5 3.62075 4.5H2C1.72386 4.5 1.5 4.27614 1.5 4C1.5 3.72386 1.72386 3.5 2 3.5H3.62075C3.64568 3.5 3.67028 3.49999 3.69454 3.49998C4.24937 3.49978 4.63302 3.49964 4.98943 3.60788C5.3039 3.70338 5.59646 3.85995 5.85036 4.06864C6.13812 4.30514 6.35082 4.62444 6.65841 5.0862C6.67187 5.10639 6.6855 5.12686 6.69933 5.14761L6.86047 5.38932C7.01365 5.61908 6.95156 5.92952 6.7218 6.08269C6.49203 6.23587 6.1816 6.17378 6.02842 5.94402L5.86728 5.70231C5.50269 5.15543 5.37394 4.97149 5.2154 4.84118C5.06306 4.71597 4.88753 4.62203 4.69884 4.56473ZM11.6464 9.64645C11.8417 9.45119 12.1583 9.45119 12.3536 9.64645L14.3536 11.6464C14.5488 11.8417 14.5488 12.1583 14.3536 12.3536L12.3536 14.3536C12.1583 14.5488 11.8417 14.5488 11.6464 14.3536C11.4512 14.1583 11.4512 13.8417 11.6464 13.6464L12.7929 12.5H12.3793C12.3543 12.5 12.3297 12.5 12.3055 12.5C11.7506 12.5002 11.367 12.5004 11.0106 12.3921C10.6961 12.2966 10.4035 12.14 10.1496 11.9314C9.86188 11.6949 9.64918 11.3756 9.34159 10.9138C9.32814 10.8936 9.3145 10.8731 9.30067 10.8524L9.13953 10.6107C8.98635 10.3809 9.04844 10.0705 9.27821 9.91731C9.50797 9.76413 9.81841 9.82622 9.97158 10.056L10.1327 10.2977C10.4973 10.8446 10.6261 11.0285 10.7846 11.1588C10.9369 11.284 11.1125 11.378 11.3012 11.4353C11.4975 11.4949 11.722 11.5 12.3793 11.5H12.7929L11.6464 10.3536C11.4512 10.1583 11.4512 9.84171 11.6464 9.64645Z" /> </symbol>
<symbol xmlns="http://www.w3.org/2000/svg" viewBox="0 0 24 24" id="more-horizontal"><path fill-rule="evenodd" d="M14 11.972a2 2 0 1 1-4 0 2 2 0 0 1 4 0ZM7 12a2 2 0 1 1-4 0 2 2 0 0 1 4 0Zm14 0a2 2 0 1 1-4 0 2 2 0 0 1 4 0Z" clip-rule="evenodd" /> </symbol>
<symbol xmlns="http://www.w3.org/2000/svg" viewBox="0 0 24 24" id="draggable"><path d="M7.586 6.4a2 2 0 1 0 2.828-2.828A2 2 0 0 0 7.586 6.4Zm.028 7a2 2 0 1 0 2.829-2.829 2 2 0 0 0-2.83 2.83Zm-.028 7a2 2 0 1 0 2.829-2.829 2 2 0 0 0-2.83 2.83Zm6.014-14a2 2 0 1 0 2.828-2.829 2 2 0 0 0-2.828 2.83Zm.028 7a2 2 0 1 0 2.829-2.83 2 2 0 0 0-2.83 2.83Zm-.028 7a2 2 0 1 0 2.829-2.83 2 2 0 0 0-2.83 2.83Z" /> </symbol>
<symbol xmlns="http://www.w3.org/2000/svg" viewBox="0 0 24 24" id="chevron-down"><path fill-rule="evenodd" d="m5.293 9.707 1.414-1.414L12 13.586l5.293-5.293 1.414 1.414L12 16.414 5.293 9.707Z" clip-rule="evenodd" /> </symbol>
<symbol xmlns="http://www.w3.org/2000/svg" viewBox="0 0 24 24" id="label"><path fill-rule="evenodd" d="M12.706 4.667a.662.662 0 0 0-.47.195L4.623 12.46a.663.663 0 0 0 .005.948l5.795 5.675a.681.681 0 0 0 .934-.001l7.777-7.654a.67.67 0 0 0 .199-.476v-5.62a.667.667 0 0 0-.667-.666h-5.96Zm-1.817 15.94a1.99 1.99 0 0 1-1.399-.57l-5.795-5.675a1.988 1.988 0 0 1-.6-1.42 1.989 1.989 0 0 1 .586-1.425l7.612-7.599c.377-.377.88-.585 1.413-.585h5.96c1.104 0 2 .898 2 2v5.62c0 .533-.217 1.053-.596 1.426l-7.778 7.655a1.99 1.99 0 0 1-1.403.574Z" clip-rule="evenodd" />  <path fill-rule="evenodd" d="M16 7.333a.667.667 0 1 0 .001 1.335A.667.667 0 0 0 16 7.333ZM16 10c-1.103 0-2-.897-2-2s.897-2 2-2 2 .897 2 2-.897 2-2 2Z" clip-rule="evenodd" /> </symbol>
<symbol xmlns="http://www.w3.org/2000/svg" viewBox="0 0 24 24" id="microphone"><path fill-rule="evenodd" clip-rule="evenodd" d="M10.0001 5.33333C10.0001 4.23067 10.8974 3.33333 12.0001 3.33333C13.1027 3.33333 14.0001 4.23067 14.0001 5.33333V13.3333C14.0001 14.436 13.1027 15.3333 12.0001 15.3333C10.8974 15.3333 10.0001 14.436 10.0001 13.3333V5.33333ZM12.0001 16.6667C13.8381 16.6667 15.3334 15.1713 15.3334 13.3333V5.33333C15.3334 3.49533 13.8381 2 12.0001 2C10.1621 2 8.66675 3.49533 8.66675 5.33333V13.3333C8.66675 15.1713 10.1621 16.6667 12.0001 16.6667Z" /> <path fill-rule="evenodd" clip-rule="evenodd" d="M16.6667 11.3333V13.3333C16.6667 15.906 14.5733 18 12 18C9.42667 18 7.33333 15.906 7.33333 13.3333V11.3333H6V13.3333C6 16.4167 8.338 18.9613 11.3333 19.294V20.6667H8.66667V22H11.3333H12.6667H15.3333V20.6667H12.6667V19.294C15.662 18.9613 18 16.4167 18 13.3333V11.3333H16.6667Z" /> </symbol>
<symbol xmlns="http://www.w3.org/2000/svg" viewBox="0 0 24 24" id="database"><path fill-rule="evenodd" d="M11.804 5.3a22.48 22.48 0 0 0-3.07.185h-.008c-1.71.2-3.136.57-4.115 1.026-.49.228-.837.463-1.052.682-.213.216-.259.375-.259.477 0 .13.079.358.46.659.374.294.955.588 1.732.847 1.546.515 3.723.844 6.158.844 2.435 0 4.612-.33 6.158-.844.777-.259 1.358-.553 1.732-.847.381-.3.46-.528.46-.659 0-.105-.047-.266-.26-.482-.214-.219-.56-.453-1.05-.68-.98-.454-2.406-.822-4.116-1.022l-.007-.001A21.38 21.38 0 0 0 11.81 5.3h-.006ZM20 9.595c-.49.316-1.099.587-1.78.814-1.712.57-4.035.911-6.57.911s-4.858-.34-6.57-.91c-.681-.228-1.29-.5-1.78-.815v2.515c0 .133.079.36.457.66.371.294.95.587 1.724.846 1.542.515 3.719.844 6.169.844 2.45 0 4.627-.33 6.17-.844.773-.259 1.352-.552 1.723-.846.378-.3.457-.527.457-.66V9.595Zm1.3-1.925c0-.55-.265-1.02-.631-1.392-.364-.37-.861-.685-1.433-.95-1.146-.531-2.718-.923-4.507-1.133A22.675 22.675 0 0 0 11.813 4a23.79 23.79 0 0 0-3.242.195c-1.79.21-3.362.604-4.507 1.137-.572.266-1.07.58-1.432.95C2.266 6.652 2 7.121 2 7.67v9c0 .697.421 1.26.95 1.678.534.424 1.269.777 2.12 1.061 1.707.57 4.03.911 6.58.911s4.873-.34 6.58-.911c.851-.284 1.586-.637 2.12-1.06.529-.42.95-.982.95-1.679v-9ZM20 14.038c-.488.315-1.092.585-1.77.811-1.707.57-4.03.911-6.58.911s-4.873-.34-6.58-.911c-.678-.226-1.282-.496-1.77-.81v2.631c0 .133.079.36.457.66.371.294.95.587 1.724.846 1.542.515 3.719.844 6.169.844 2.45 0 4.627-.33 6.17-.844.773-.259 1.352-.552 1.723-.846.378-.3.457-.527.457-.66v-2.632Z" clip-rule="evenodd" /> </symbol>
<symbol xmlns="http://www.w3.org/2000/svg" viewBox="0 0 24 24" id="clock-dash"><path d="M12 2C6.48599 2 2 6.48602 2 12C2 17.514 6.48599 22 12 22C12.2282 22 12.4564 21.991 12.684 21.9744L12.587 20.6443C12.3916 20.6586 12.1958 20.6662 12 20.667C7.22101 20.667 3.33301 16.779 3.33301 12C3.33301 7.22101 7.22101 3.33301 12 3.33301C12.2021 3.33368 12.4043 3.34155 12.606 3.35632L12.651 2.02533C12.4343 2.00983 12.2171 2.00134 12 2Z" fill-rule="evenodd" />  <path d="M13.788 3.52734C14.192 3.61462 14.5893 3.73022 14.977 3.87335L15.442 2.62335C14.997 2.45831 14.534 2.32434 14.068 2.22437L13.788 3.52734Z" fill-rule="evenodd" />  <path d="M16.106 4.38531C16.4691 4.58325 16.8177 4.80682 17.149 5.05432L17.951 3.98633C17.569 3.70135 17.163 3.44135 16.746 3.21533L16.106 4.38531Z" fill-rule="evenodd" />  <path d="M18.088 5.86432C18.3806 6.15552 18.652 6.46735 18.9 6.79736L19.97 5.99835C19.684 5.61835 19.369 5.25531 19.031 4.92035L18.088 5.86432Z" fill-rule="evenodd" />  <path d="M19.574 7.83734C19.7726 8.19855 19.945 8.57349 20.09 8.95935L21.342 8.49231C21.176 8.04932 20.976 7.61334 20.746 7.19531L19.574 7.83734Z" fill-rule="evenodd" />  <path d="M20.443 10.1453C20.5303 10.5494 20.5895 10.959 20.62 11.3713L21.953 11.2714C21.918 10.7953 21.848 10.3203 21.748 9.86133L20.443 10.1453Z" fill-rule="evenodd" />  <path d="M20.446 13.8284L21.753 14.1093C21.852 13.6494 21.92 13.1743 21.953 12.6973L20.619 12.6044C20.59 13.0183 20.532 13.4304 20.446 13.8284Z" fill-rule="evenodd" />  <path d="M19.586 16.1443L20.761 16.7794C20.99 16.3594 21.189 15.9224 21.353 15.4803L20.1 15.0164C19.958 15.3994 19.785 15.7794 19.586 16.1443Z" fill-rule="evenodd" />  <path d="M18.106 18.1183L19.053 19.0604C19.388 18.7244 19.703 18.3604 19.988 17.9803L18.917 17.1823C18.669 17.513 18.398 17.8258 18.106 18.1183Z" fill-rule="evenodd" />  <path d="M16.127 19.6003L16.77 20.7693C17.1882 20.5406 17.5896 20.2823 17.971 19.9963L17.168 18.9304C16.837 19.1783 16.487 19.4044 16.127 19.6003Z" fill-rule="evenodd" />  <path d="M13.813 20.4673L14.1 21.7693C14.566 21.6674 15.0242 21.5323 15.471 21.3654L15.003 20.1173C14.618 20.2603 14.217 20.3773 13.813 20.4673Z" fill-rule="evenodd" />  <path d="M11 7H12.3333V11.3907L16.8047 15.862L15.862 16.8047L11 11.9427V7Z" fill-rule="evenodd" /> </symbol>
<symbol xmlns="http://www.w3.org/2000/svg" viewBox="0 0 24 24" id="square-arrow"><path fill-rule="evenodd" d="M10.667 3.333v1.334h7.724l-9.529 9.528.943.943 9.528-9.529v7.725h1.334v-10h-10Z" clip-rule="evenodd" />  <path fill-rule="evenodd" d="M15.333 19.334H4.667V8.667H12V7.334H3.333v13.333h13.334V12h-1.334v7.334Z" clip-rule="evenodd" /> </symbol>
<symbol xmlns="http://www.w3.org/2000/svg" viewBox="0 0 24 24" id="file"><path fill-rule="evenodd" d="M4.666 2v20h14.668V7.724L13.609 2H4.666ZM6 3.333h6.667v5.334H18v12H6V3.333Zm8 .943 3.057 3.057H14V4.276Z" clip-rule="evenodd" />  <path fill-rule="evenodd" d="M7.333 18h9.334v-1.334H7.333V18Zm0-2.667h9.334V14H7.333v1.333Zm0-2.667H12v-1.333H7.333v1.333Z" clip-rule="evenodd" /> </symbol>
<symbol xmlns="http://www.w3.org/2000/svg" viewBox="0 0 24 24" id="puzzle"><path fill-rule="evenodd" fill="none" stroke-width="1.5" stroke="currentColor" stroke-linecap="round" stroke-linejoin="round" d="M14.25 6.087c0-.355.186-.676.401-.959.221-.29.349-.634.349-1.003 0-1.036-1.007-1.875-2.25-1.875s-2.25.84-2.25 1.875c0 .369.128.713.349 1.003.215.283.401.604.401.959v0a.64.64 0 0 1-.657.643 48.39 48.39 0 0 1-4.163-.3c.186 1.613.293 3.25.315 4.907a.656.656 0 0 1-.658.663v0c-.355 0-.676-.186-.959-.401a1.647 1.647 0 0 0-1.003-.349c-1.036 0-1.875 1.007-1.875 2.25s.84 2.25 1.875 2.25c.369 0 .713-.128 1.003-.349.283-.215.604-.401.959-.401v0c.31 0 .555.26.532.57a48.039 48.039 0 0 1-.642 5.056c1.518.19 3.058.309 4.616.354a.64.64 0 0 0 .657-.643v0c0-.355-.186-.676-.401-.959a1.647 1.647 0 0 1-.349-1.003c0-1.035 1.008-1.875 2.25-1.875 1.243 0 2.25.84 2.25 1.875 0 .369-.128.713-.349 1.003-.215.283-.4.604-.4.959v0c0 .333.277.599.61.58a48.1 48.1 0 0 0 5.427-.63 48.05 48.05 0 0 0 .582-4.717.532.532 0 0 0-.533-.57v0c-.355 0-.676.186-.959.401-.29.221-.634.349-1.003.349-1.035 0-1.875-1.007-1.875-2.25s.84-2.25 1.875-2.25c.37 0 .713.128 1.003.349.283.215.604.401.96.401v0a.656.656 0 0 0 .658-.663 48.422 48.422 0 0 0-.37-5.36c-1.886.342-3.81.574-5.766.689a.578.578 0 0 1-.61-.58v0Z" /> </symbol>
<symbol xmlns="http://www.w3.org/2000/svg" viewBox="0 0 24 24" id="knowledge-box"><path fill-rule="evenodd" d="M12 2 3.333 7.055v10.099L12 22.21l8.667-5.056V7.055L12 2ZM5.287 7.46 8.644 5.5 12 3.543l6.713 3.916-6.69 3.889-6.736-3.889Zm7.38 5.03 6.667-3.85v7.749l-6.667 3.889v-7.787Zm-8 3.899V8.64l6.667 3.849v7.788l-6.668-3.89Z" clip-rule="evenodd" /> </symbol>
<symbol xmlns="http://www.w3.org/2000/svg" viewBox="0 0 24 24" id="chevron-up"><path fill-rule="evenodd" d="m18.707 14.293-1.414 1.414L12 10.414l-5.293 5.293-1.414-1.414L12 7.586l6.707 6.707Z" clip-rule="evenodd" /> </symbol>
<symbol xmlns="http://www.w3.org/2000/svg" viewBox="0 0 24 24" id="spreadsheet"><path fill-rule="evenodd" d="M2 4.667v14.667h20V10.39l-5.724-5.724H2ZM3.334 6h12v5.334h5.333V18H3.334V6ZM18 14v1.333h1.333v1.334H4.666V7.333H14v5.334h5.333V14H18Zm-1.334 0H14v1.333h2.666V14Zm-4-4V8.667H10V10h2.666Zm0 1.333H10v1.334h2.666v-1.334Zm0 2.667H10v1.333h2.666V14Zm-4-4V8.667H6V10h2.666Zm0 1.333H6v1.334h2.666v-1.334Zm0 2.667H6v1.333h2.666V14Zm8-7.057L19.724 10h-3.058V6.943Z" clip-rule="evenodd" /> </symbol>
<symbol xmlns="http://www.w3.org/2000/svg" viewBox="0 0 24 24" id="eye-closed"><path fill-rule="evenodd" d="M12.032 18a9.352 9.352 0 0 1-4.106-.951l1.316-1.317c.78.584 1.743.935 2.79.935A4.672 4.672 0 0 0 16.698 12a4.64 4.64 0 0 0-.934-2.79l1.563-1.563c1.537 1.058 2.732 2.567 3.337 4.353-1.2 3.543-4.72 6-8.632 6Zm-3.334-6a3.337 3.337 0 0 1 3.334-3.333c.678 0 1.308.206 1.835.555l-1.783 1.784c-.018-.002-.034-.006-.052-.006a1 1 0 0 0-1 1c0 .018.004.035.005.052l-1.783 1.784A3.313 3.313 0 0 1 8.698 12Zm6.667 0a3.337 3.337 0 0 1-3.333 3.334 3.312 3.312 0 0 1-1.836-.556l1.784-1.783c.017.001.034.005.052.005a1 1 0 0 0 1-1c0-.018-.004-.034-.006-.052l1.784-1.783c.349.527.555 1.157.555 1.835ZM3.399 12c1.2-3.543 4.72-6 8.633-6 1.456 0 2.858.341 4.106.951L14.82 8.268a4.635 4.635 0 0 0-2.79-.935A4.672 4.672 0 0 0 7.366 12c0 1.047.35 2.01.935 2.79l-1.564 1.563C5.2 15.295 4.004 13.786 3.4 12Zm18.603-.198c-.648-2.083-1.983-3.853-3.72-5.11l2.22-2.22-.942-.943-2.44 2.44a10.67 10.67 0 0 0-5.088-1.302c-4.564 0-8.664 2.934-9.97 7.135L2 12l.062.198c.647 2.083 1.982 3.853 3.72 5.11l-2.222 2.22.943.944 2.44-2.44a10.67 10.67 0 0 0 5.089 1.302c4.564 0 8.664-2.934 9.97-7.136l.06-.198-.06-.198Z" clip-rule="evenodd" /> </symbol>
<symbol xmlns="http://www.w3.org/2000/svg" viewBox="0 0 24 24" id="lock"><path fill-rule="evenodd" d="M18 20a.667.667 0 0 1-.667.667H6.667A.667.667 0 0 1 6 20v-8c0-.367.299-.667.667-.667h10.666c.368 0 .667.3.667.667v8ZM12 3.333A4.672 4.672 0 0 1 16.667 8v2H7.333V8A4.672 4.672 0 0 1 12 3.333Zm6 6.79V8c0-3.308-2.691-6-6-6S6 4.692 6 8v2.123A1.997 1.997 0 0 0 4.667 12v8c0 1.103.897 2 2 2h10.666c1.103 0 2-.897 2-2v-8c0-.868-.559-1.601-1.333-1.877Z" clip-rule="evenodd" />  <path fill-rule="evenodd" d="M12 13.666a1 1 0 0 0-1 1c0 .296.13.558.333.741V18h1.334v-2.593a.994.994 0 0 0 .333-.74 1 1 0 0 0-1-1Z" clip-rule="evenodd" /> </symbol>
<symbol xmlns="http://www.w3.org/2000/svg" viewBox="0 0 24 24" id="chevron-right"><path fill-rule="evenodd" d="m9.707 18.707-1.414-1.414L13.586 12 8.293 6.707l1.414-1.414L16.414 12l-6.707 6.707Z" clip-rule="evenodd" /> </symbol>
<symbol xmlns="http://www.w3.org/2000/svg" viewBox="0 0 24 24" id="link"><path fill-rule="evenodd" d="M18.088 4.888a4.672 4.672 0 0 0-6.6 0L8.66 7.718a4.68 4.68 0 0 0-.001 6.598 4.695 4.695 0 0 0 3.309 1.362c1.22 0 2.405-.476 3.291-1.362l.708-.707-.943-.943-.707.708a3.336 3.336 0 0 1-3.35.82 3.28 3.28 0 0 1-1.364-.82 3.335 3.335 0 0 1-.356-.429 3.343 3.343 0 0 1 .356-4.285l2.827-2.83c1.3-1.3 3.415-1.3 4.714 0 .626.627.972 1.463.972 2.357a3.31 3.31 0 0 1-.972 2.357l.943.943a4.635 4.635 0 0 0 1.362-3.3c0-1.25-.484-2.422-1.362-3.3l.001.001Z" clip-rule="evenodd" />  <path fill-rule="evenodd" d="M16.674 11.017a4.659 4.659 0 0 0-1.915-1.152 4.666 4.666 0 0 0-4.685 1.152l-.707.707.943.943.707-.708a3.33 3.33 0 0 1 3.35-.82 3.268 3.268 0 0 1 1.72 1.25 3.333 3.333 0 0 1-.357 4.285l-2.828 2.828a3.339 3.339 0 0 1-4.714 0 3.311 3.311 0 0 1-.971-2.357c0-.894.345-1.73.97-2.357l-.942-.943a4.633 4.633 0 0 0-1.362 3.3 4.655 4.655 0 0 0 4.662 4.664c1.196 0 2.39-.455 3.3-1.364l2.829-2.829a4.67 4.67 0 0 0 .5-6 4.71 4.71 0 0 0-.5-.6v.001Z" clip-rule="evenodd" /> </symbol>
<symbol xmlns="http://www.w3.org/2000/svg" viewBox="0 0 24 24" id="key"><path fill-rule="evenodd" d="M5.333 14c-1.102 0-2-.898-2-2 0-1.103.898-2 2-2 1.103 0 2 .897 2 2 0 1.102-.897 2-2 2ZM22 11.333H8.6a3.34 3.34 0 0 0-3.267-2.667A3.337 3.337 0 0 0 2 12a3.337 3.337 0 0 0 3.333 3.333A3.34 3.34 0 0 0 8.6 12.666h8.068v2.667H18v-2.667h1.333v2.667h1.334v-2.667H22v-1.333Z" clip-rule="evenodd" /> </symbol>
<symbol xmlns="http://www.w3.org/2000/svg" viewBox="0 0 24 24" id="arrow-right"><path fill-rule="evenodd" d="m12.471 3.529-.942.942 6.862 6.862H3.333v1.334h15.058l-6.862 6.862.942.942L20.943 12 12.47 3.529Z" clip-rule="evenodd" /> </symbol>
<symbol xmlns="http://www.w3.org/2000/svg" viewBox="0 0 24 24" id="log-out"><path fill-rule="evenodd" d="M18.775 9.194a7.281 7.281 0 0 0-3.968-3.969l-.51 1.232a5.958 5.958 0 0 1 3.246 3.247 5.96 5.96 0 0 1 0 4.592 6.007 6.007 0 0 1-7.839 3.247 5.961 5.961 0 0 1-3.248-3.247 5.966 5.966 0 0 1 0-4.592 5.96 5.96 0 0 1 3.248-3.247l-.51-1.232a7.286 7.286 0 0 0-3.97 3.969 7.288 7.288 0 0 0 0 5.612 7.281 7.281 0 0 0 3.97 3.97 7.297 7.297 0 0 0 2.796.557 7.346 7.346 0 0 0 6.785-4.527 7.28 7.28 0 0 0 0-5.612Z" clip-rule="evenodd" />  <path fill-rule="evenodd" d="M11.333 12h1.334V3.334h-1.334V12Z" clip-rule="evenodd" /> </symbol>
<symbol xmlns="http://www.w3.org/2000/svg" viewBox="0 0 24 24" id="settings"><path fill-rule="evenodd" d="M10.667 6.667c0-.736.598-1.334 1.333-1.334A1.335 1.335 0 0 1 12 8a1.335 1.335 0 0 1-1.333-1.333Zm3.905.666h6.095V6h-6.095A2.664 2.664 0 0 0 12 4c-1.24 0-2.274.853-2.572 2H3.333v1.333h6.095a2.664 2.664 0 0 0 2.572 2c1.24 0 2.274-.853 2.572-2ZM14.667 12c0-.735.598-1.333 1.333-1.333s1.333.598 1.333 1.333-.598 1.333-1.333 1.333A1.335 1.335 0 0 1 14.667 12ZM16 14.667c1.24 0 2.274-.854 2.572-2h2.095v-1.334h-2.095a2.664 2.664 0 0 0-2.572-2c-1.24 0-2.274.854-2.572 2H3.333v1.334h10.095a2.664 2.664 0 0 0 2.572 2Zm-9.333 2.666C6.667 16.598 7.265 16 8 16a1.335 1.335 0 0 1 0 2.667 1.335 1.335 0 0 1-1.333-1.334ZM8 20c1.24 0 2.274-.853 2.572-2h10.095v-1.333H10.572a2.664 2.664 0 0 0-2.572-2c-1.24 0-2.274.853-2.572 2H3.333V18h2.095A2.664 2.664 0 0 0 8 20Z" clip-rule="evenodd" /> </symbol>
<symbol xmlns="http://www.w3.org/2000/svg" viewBox="0 0 24 24" id="lab"><path d="m19.635 18.187-3.955-6.855v-4.56A1.945 1.945 0 0 0 15.014 3H10.32a1.95 1.95 0 0 0-1.95 1.948c0 .827.528 1.55 1.282 1.824v4.561l-.358.633v-3.75a.482.482 0 0 0-.482-.482H4.5a.482.482 0 0 0-.481.481v10.232c0 1.284.986 2.339 2.263 2.516a.508.508 0 0 0 .182.037h11.549c.823 0 1.448-.303 1.766-.855.316-.55.265-1.247-.143-1.958Zm-14.657.26v-1.044h1.418a.482.482 0 0 0 0-.963H4.978v-1.562h1.418a.482.482 0 0 0 0-.962H4.978v-1.563h1.418a.482.482 0 0 0 0-.963H4.978V8.695H8.33v9.752c0 .875-.752 1.589-1.676 1.589-.925 0-1.676-.714-1.676-1.59Zm13.964 1.216c-.138.237-.478.375-.934.375H8.702a2.48 2.48 0 0 0 .59-1.591v-4.591a.471.471 0 0 0 .111-.128l1.148-2.03a.486.486 0 0 0 .062-.238V6.397a.48.48 0 0 0-.42-.477.984.984 0 0 1-.862-.972c0-.543.442-.985.985-.985h4.694c.544 0 .985.442.985.985 0 .491-.37.908-.862.972a.48.48 0 0 0-.42.477v5.063c0 .085.021.168.064.241l4.02 6.968c.23.395.282.757.145.994Zm-2.805-3c0 .93-.753 1.682-1.684 1.682a1.682 1.682 0 1 1 0-3.365c.931 0 1.684.754 1.684 1.683Zm-3.755-1.83a.825.825 0 1 1-1.65-.001.825.825 0 0 1 1.65 0Zm.616-1.86a.516.516 0 1 1 0-1.035.517.517 0 1 1 0 1.034Zm-1.488 4.855a.517.517 0 1 1-1.034 0 .517.517 0 0 1 1.034 0Zm.905-6.894a.68.68 0 1 1 0-1.36.68.68 0 0 1 0 1.36Z" /> </symbol>
<symbol xmlns="http://www.w3.org/2000/svg" viewBox="0 0 24 24" id="list-bullet"><path fill-rule="evenodd" clip-rule="evenodd" d="M7.3335 7.33327H22.0002V5.99927H7.3335V7.33327Z" />  <path fill-rule="evenodd" clip-rule="evenodd" d="M7.3335 12.6666H22.0002V11.3333H7.3335V12.6666Z" />  <path fill-rule="evenodd" clip-rule="evenodd" d="M7.3335 18H22.0002V16.6666H7.3335V18Z" />  <path fill-rule="evenodd" clip-rule="evenodd" d="M4 7.66663C4.552 7.66663 5 7.21863 5 6.66663C5 6.11463 4.552 5.66663 4 5.66663C3.448 5.66663 3 6.11463 3 6.66663C3 7.21863 3.448 7.66663 4 7.66663ZM4 13C4.552 13 5 12.552 5 12C5 11.448 4.552 11 4 11C3.448 11 3 11.448 3 12C3 12.552 3.448 13 4 13ZM4 18.3333C4.552 18.3333 5 17.8853 5 17.3333C5 16.7813 4.552 16.3333 4 16.3333C3.448 16.3333 3 16.7813 3 17.3333C3 17.8853 3.448 18.3333 4 18.3333Z" /> </symbol>
<symbol xmlns="http://www.w3.org/2000/svg" viewBox="0 0 24 24" id="download"><path fill-rule="evenodd" d="m12.048 16.666-.048.048-.048-.048h.096Zm6.08-4.195-.942-.943-4.519 4.52V3.333h-1.333v12.714l-4.52-4.519-.942.943L12 18.6l6.128-6.128v-.001Zm1.205 6.862H4.667v1.333h14.666v-1.333Z" clip-rule="evenodd" /> </symbol>
<symbol xmlns="http://www.w3.org/2000/svg" viewBox="0 0 24 24" id="prompt"><path fill-rule="evenodd" d="M7.772 2.35h8.456c.816 0 1.469 0 1.995.043.54.044 1.006.137 1.434.355a3.65 3.65 0 0 1 1.595 1.595c.218.428.31.893.355 1.434.043.526.043 1.179.043 1.995v8.456c0 .816 0 1.468-.043 1.995-.044.54-.137 1.006-.355 1.434a3.65 3.65 0 0 1-1.595 1.595c-.428.218-.893.31-1.434.355-.526.043-1.178.043-1.995.043H7.772c-.816 0-1.468 0-1.995-.043-.54-.044-1.006-.137-1.434-.355a3.65 3.65 0 0 1-1.595-1.595c-.218-.428-.31-.893-.355-1.434-.043-.526-.043-1.179-.043-1.995V7.772c0-.816 0-1.469.043-1.995.044-.54.137-1.006.355-1.434a3.65 3.65 0 0 1 1.595-1.595c.428-.218.893-.31 1.434-.355.527-.043 1.179-.043 1.995-.043Zm-1.89 1.339c-.46.037-.735.108-.949.217a2.35 2.35 0 0 0-1.027 1.027c-.109.214-.18.49-.217.95C3.65 6.35 3.65 6.949 3.65 7.8v8.4c0 .85 0 1.45.039 1.917.037.46.108.736.217.95a2.35 2.35 0 0 0 1.027 1.027c.214.109.49.18.95.217.467.038 1.066.039 1.917.039h8.4c.85 0 1.45 0 1.918-.039.46-.037.735-.108.949-.217a2.35 2.35 0 0 0 1.027-1.027c.109-.214.18-.49.217-.95.039-.467.04-1.066.04-1.917V7.8c0-.85-.001-1.45-.04-1.917-.037-.46-.108-.736-.217-.95a2.35 2.35 0 0 0-1.027-1.027c-.214-.109-.49-.18-.95-.217-.467-.039-1.066-.039-1.917-.039H7.8c-.85 0-1.45 0-1.917.039ZM7.04 8.04a.65.65 0 0 1 .92 0l3.5 3.5a.65.65 0 0 1 0 .92l-3.5 3.5a.65.65 0 0 1-.92-.92L10.08 12 7.04 8.96a.65.65 0 0 1 0-.92Zm5.31 7.46a.65.65 0 0 1 .65-.65h4a.65.65 0 1 1 0 1.3h-4a.65.65 0 0 1-.65-.65Z" /> </symbol>
<symbol xmlns="http://www.w3.org/2000/svg" viewBox="0 0 24 24" id="expand"><path fill-rule="evenodd" d="m6.714 14.828-2.161-2.162H13v-1.333H4.553l2.161-2.161-.942-.943L2 11.999l3.772 3.772.942-.943Z" clip-rule="evenodd" />  <path fill-rule="evenodd" d="m16.438 9.172 2.162 2.161h-5.933v1.334H18.6l-2.162 2.161.943.943L21.152 12l-3.771-3.771-.943.943Z" clip-rule="evenodd" /> </symbol>
<symbol xmlns="http://www.w3.org/2000/svg" viewBox="0 0 20 22" id="workflows"><path fill-rule="evenodd" clip-rule="evenodd" d="M17.0001 1.64998C16.2545 1.64998 15.6501 2.25439 15.6501 2.99998C15.6501 3.74556 16.2545 4.34998 17.0001 4.34998C17.7457 4.34998 18.3501 3.74556 18.3501 2.99998C18.3501 2.25439 17.7457 1.64998 17.0001 1.64998ZM14.4304 2.3501C14.7201 1.20074 15.7608 0.349976 17.0001 0.349976C18.4637 0.349976 19.6501 1.53642 19.6501 2.99998C19.6501 4.46353 18.4637 5.64998 17.0001 5.64998C15.7609 5.64998 14.7203 4.79936 14.4304 3.65014C13.7709 3.65099 13.2795 3.65627 12.8826 3.68869C12.4226 3.72628 12.1472 3.79709 11.9332 3.90611C11.491 4.13141 11.1315 4.49092 10.9062 4.9331C10.7972 5.14706 10.7264 5.42245 10.6888 5.88251C10.6506 6.35016 10.6501 6.94917 10.6501 7.79998V10.35H14.4304C14.7202 9.20067 15.7608 8.34998 17.0001 8.34998C18.4637 8.34998 19.6501 9.53642 19.6501 11C19.6501 12.4635 18.4637 13.65 17.0001 13.65C15.7608 13.65 14.7202 12.7993 14.4304 11.65H10.6501V14.2C10.6501 15.0508 10.6506 15.6498 10.6888 16.1174C10.7264 16.5775 10.7972 16.8529 10.9062 17.0669C11.1315 17.509 11.491 17.8685 11.9332 18.0938C12.1472 18.2029 12.4226 18.2737 12.8826 18.3113C13.2795 18.3437 13.7709 18.349 14.4304 18.3498C14.7203 17.2006 15.7609 16.35 17.0001 16.35C18.4637 16.35 19.6501 17.5364 19.6501 19C19.6501 20.4635 18.4637 21.65 17.0001 21.65C15.7608 21.65 14.7201 20.7992 14.4304 19.6498C13.771 19.6491 13.2279 19.6438 12.7768 19.6069C12.2363 19.5628 11.7708 19.4701 11.343 19.2521C10.6562 18.9022 10.0979 18.3438 9.74792 17.657C9.52996 17.2293 9.43729 16.7638 9.39313 16.2233C9.35009 15.6965 9.35009 15.0443 9.3501 14.2282V11.65H5.5698C5.27999 12.7993 4.23939 13.65 3.0001 13.65C1.53654 13.65 0.350098 12.4635 0.350098 11C0.350098 9.53642 1.53654 8.34998 3.0001 8.34998C4.23939 8.34998 5.27999 9.20068 5.5698 10.35H9.3501V7.77175C9.35009 6.9556 9.35009 6.30346 9.39313 5.77665C9.43729 5.2362 9.52996 4.77068 9.74792 4.34291C10.0979 3.65612 10.6562 3.09774 11.343 2.7478C11.7708 2.52984 12.2363 2.43716 12.7768 2.39301C13.2279 2.35614 13.771 2.35086 14.4304 2.3501ZM3.0001 9.64997C2.25451 9.64997 1.6501 10.2544 1.6501 11C1.6501 11.7456 2.25451 12.35 3.0001 12.35C3.74568 12.35 4.3501 11.7456 4.3501 11C4.3501 10.2544 3.74568 9.64997 3.0001 9.64997ZM17.0001 9.64997C16.2545 9.64997 15.6501 10.2544 15.6501 11C15.6501 11.7456 16.2545 12.35 17.0001 12.35C17.7457 12.35 18.3501 11.7456 18.3501 11C18.3501 10.2544 17.7457 9.64997 17.0001 9.64997ZM17.0001 17.65C16.2545 17.65 15.6501 18.2544 15.6501 19C15.6501 19.7456 16.2545 20.35 17.0001 20.35C17.7457 20.35 18.3501 19.7456 18.3501 19C18.3501 18.2544 17.7457 17.65 17.0001 17.65Z" /> </symbol>
<symbol xmlns="http://www.w3.org/2000/svg" viewBox="0 0 24 24" id="collapse"><path fill-rule="evenodd" d="m17.886 14.828-2.162-2.161h5.933v-1.334h-5.933l2.162-2.161-.943-.943L13.172 12l3.77 3.771.944-.943ZM6.458 9.172l2.162 2.161H2.687v1.334H8.62l-2.162 2.161.943.943L11.172 12 7.401 8.229l-.943.943Z" clip-rule="evenodd" /> </symbol>
<symbol xmlns="http://www.w3.org/2000/svg" viewBox="0 0 16 16" id="lock-filled"><path fill-rule="evenodd" d="M8 1a4.333 4.333 0 0 0-4.333 4.333v.512c-.122.04-.243.088-.362.149a3 3 0 0 0-1.311 1.31c-.193.38-.264.772-.297 1.168-.03.374-.03.829-.03 1.356v1.01c0 .528 0 .982.03 1.357.033.395.104.789.297 1.167a3 3 0 0 0 1.31 1.311c.38.193.772.264 1.168.296C4.846 15 5.3 15 5.828 15h4.344c.527 0 .982 0 1.356-.03.396-.033.789-.104 1.167-.297a3 3 0 0 0 1.311-1.311c.193-.378.264-.772.297-1.167.03-.375.03-.83.03-1.356v-1.01c0-.528 0-.983-.03-1.357-.033-.396-.104-.789-.297-1.167a3 3 0 0 0-1.31-1.311 2.44 2.44 0 0 0-.363-.15v-.51A4.333 4.333 0 0 0 8 1ZM5.828 5.667h-.161v-.334a2.333 2.333 0 0 1 4.666 0v.334H5.828Zm3.172 4a1 1 0 1 0-2 0V11a1 1 0 1 0 2 0V9.667Z" clip-rule="evenodd" /> </symbol>
<symbol xmlns="http://www.w3.org/2000/svg" viewBox="0 0 24 24" id="submenu"><path fill-rule="evenodd" d="M17.9999 17.3333C18.7353 17.3333 19.3333 17.9313 19.3333 18.6667C19.3333 19.402 18.7353 20 17.9999 20C17.2646 20 16.6666 19.402 16.6666 18.6667C16.6666 17.9313 17.2646 17.3333 17.9999 17.3333ZM17.9999 3.99999C18.7353 3.99999 19.3333 4.59799 19.3333 5.33332C19.3333 6.06866 18.7353 6.66666 17.9999 6.66666C17.2646 6.66666 16.6666 6.06866 16.6666 5.33332C16.6666 4.59799 17.2646 3.99999 17.9999 3.99999ZM17.9999 10.6667C18.7353 10.6667 19.3333 11.2647 19.3333 12C19.3333 12.7353 18.7353 13.3333 17.9999 13.3333C17.2646 13.3333 16.6666 12.7353 16.6666 12C16.6666 11.2647 17.2646 10.6667 17.9999 10.6667ZM5.33325 12.6667H15.4279C15.7259 13.814 16.7613 14.6667 17.9999 14.6667C19.4706 14.6667 20.6666 13.4707 20.6666 12C20.6666 10.5293 19.4706 9.33332 17.9999 9.33332C16.7613 9.33332 15.7259 10.186 15.4279 11.3333H5.33325C4.96592 11.3333 4.66659 11.0347 4.66659 10.6667V7.33332V5.87732C4.87592 5.95199 5.09859 5.99999 5.33325 5.99999H15.4279C15.7259 7.14732 16.7613 7.99999 17.9999 7.99999C19.4706 7.99999 20.6666 6.80399 20.6666 5.33332C20.6666 3.86266 19.4706 2.66666 17.9999 2.66666C16.7613 2.66666 15.7259 3.51932 15.4279 4.66666H5.33325C4.96592 4.66666 4.66659 4.36799 4.66659 3.99999V3.33332H3.33325V3.99999V7.33332V10.6667V17.3333C3.33325 18.436 4.23059 19.3333 5.33325 19.3333H15.4279C15.7259 20.4807 16.7613 21.3333 17.9999 21.3333C19.4706 21.3333 20.6666 20.1373 20.6666 18.6667C20.6666 17.196 19.4706 16 17.9999 16C16.7613 16 15.7259 16.8527 15.4279 18H5.33325C4.96592 18 4.66659 17.7013 4.66659 17.3333V12.544C4.87592 12.6187 5.09859 12.6667 5.33325 12.6667Z" clip-rule="evenodd" /> </symbol>
<symbol xmlns="http://www.w3.org/2000/svg" viewBox="0 0 24 24" id="circle-check"><path fill-rule="evenodd" d="M12 3.333c-4.779 0-8.667 3.888-8.667 8.667S7.221 20.667 12 20.667s8.667-3.888 8.667-8.667S16.779 3.333 12 3.333ZM12 22C6.486 22 2 17.514 2 12S6.486 2 12 2s10 4.486 10 10-4.486 10-10 10Z" clip-rule="evenodd" />  <path fill-rule="evenodd" d="m10.667 15.61-3.138-3.14.942-.943 2.196 2.196 4.862-4.862.942.942-5.804 5.805Z" clip-rule="evenodd" /> </symbol>
<symbol xmlns="http://www.w3.org/2000/svg" viewBox="0 0 24 24" id="bell"><path fill-rule="evenodd" d="M12 20a1.33 1.33 0 0 1-1.148-.667h2.296A1.329 1.329 0 0 1 12 20Zm-4.666-5.333V9.333A4.672 4.672 0 0 1 12 4.667a4.672 4.672 0 0 1 4.667 4.666v5.334c0 1.148.41 2.31 1.156 3.333H6.177c.746-1.023 1.157-2.185 1.157-3.333Zm13.765 4.666-1.325-1.166c-1.127-.993-1.774-2.268-1.774-3.5V9.333a6.006 6.006 0 0 0-5.333-5.96V2h-1.333v1.373A6.006 6.006 0 0 0 6 9.333v5.334c0 1.232-.646 2.507-1.774 3.5l-1.325 1.166h6.527a2.664 2.664 0 0 0 2.572 2c1.24 0 2.274-.853 2.572-2H21.1Z" clip-rule="evenodd" /> </symbol>
<symbol xmlns="http://www.w3.org/2000/svg" viewBox="0 0 24 24" id="code"><path fill-rule="evenodd" d="M2 19.333h20V4.666H2v14.667ZM3.333 18h17.334V6H3.333v12Z" clip-rule="evenodd" />  <path fill-rule="evenodd" d="M8.195 15.138 5.057 12l3.138-3.138.943.942L6.943 12l2.195 2.195-.943.943Zm7.61 0-.943-.943L17.057 12l-2.195-2.196.943-.942L18.943 12l-3.138 3.138ZM11.3 16.21l-1.265-.421 2.666-8 1.265.422-2.667 8Z" clip-rule="evenodd" /> </symbol>
<symbol xmlns="http://www.w3.org/2000/svg" viewBox="0 0 24 24" id="smiley-happy"><path fill-rule="evenodd" clip-rule="evenodd" d="M12 3.333C7.221 3.333 3.333 7.221 3.333 12C3.333 16.779 7.221 20.667 12 20.667C16.779 20.667 20.667 16.779 20.667 12C20.667 7.221 16.779 3.333 12 3.333ZM12 22C6.486 22 2 17.514 2 12C2 6.486 6.486 2 12 2C17.514 2 22 6.486 22 12C22 17.514 17.514 22 12 22Z" /> <path fill-rule="evenodd" clip-rule="evenodd" d="M9.00003 9.33398C9.00003 9.5992 8.89467 9.85356 8.70714 10.0411C8.5196 10.2286 8.26525 10.334 8.00003 10.334C7.73482 10.334 7.48046 10.2286 7.29292 10.0411C7.10539 9.85356 7.00003 9.5992 7.00003 9.33398C7.00003 9.06877 7.10539 8.81441 7.29292 8.62688C7.48046 8.43934 7.73482 8.33398 8.00003 8.33398C8.26525 8.33398 8.5196 8.43934 8.70714 8.62688C8.89467 8.81441 9.00003 9.06877 9.00003 9.33398ZM17 9.33398C17 9.5992 16.8947 9.85356 16.7071 10.0411C16.5196 10.2286 16.2652 10.334 16 10.334C15.7348 10.334 15.4805 10.2286 15.2929 10.0411C15.1054 9.85356 15 9.5992 15 9.33398C15 9.06877 15.1054 8.81441 15.2929 8.62688C15.4805 8.43934 15.7348 8.33398 16 8.33398C16.2652 8.33398 16.5196 8.43934 16.7071 8.62688C16.8947 8.81441 17 9.06877 17 9.33398ZM12 18.004C11.2119 18.0032 10.4316 17.8469 9.70403 17.544C8.97502 17.2443 8.31267 16.803 7.75533 16.2457C7.19798 15.6883 6.7567 15.026 6.45703 14.297L7.68903 13.787C7.92214 14.3539 8.26532 14.8689 8.69873 15.3023C9.13213 15.7357 9.64716 16.0789 10.214 16.312C11.3575 16.7846 12.6418 16.7842 13.7849 16.3108C14.928 15.8374 15.8366 14.9297 16.311 13.787L17.543 14.297C17.2434 15.026 16.8021 15.6883 16.2447 16.2457C15.6874 16.803 15.025 17.2443 14.296 17.544C13.556 17.851 12.778 18.004 12 18.004Z" /> </symbol>
<symbol xmlns="http://www.w3.org/2000/svg" viewBox="0 0 24 24" id="plus"><path fill-rule="evenodd" d="M20.667 11.334h-8v-8h-1.334v8h-8v1.333h8v8h1.334v-8h8v-1.333Z" clip-rule="evenodd" /> </symbol>
<symbol xmlns="http://www.w3.org/2000/svg" viewBox="0 0 24 24" id="check"><path fill-rule="evenodd" d="M19.333 5.333 9.041 15.626l-4.294-4.293-1.414 1.414 5.708 5.707L20.747 6.747l-1.414-1.414Z" clip-rule="evenodd" />  <path fill-rule="evenodd" d="M19.333 5.333 9.041 15.626l-4.294-4.293-1.414 1.414 5.708 5.707L20.747 6.747l-1.414-1.414Z" clip-rule="evenodd" /> </symbol>
<symbol xmlns="http://www.w3.org/2000/svg" viewBox="0 0 24 24" id="warning"><path fill-rule="evenodd" d="M11.075 13.946h1.298V8.107h-1.298v5.84Zm.649.974a.973.973 0 1 0 0 1.946.973.973 0 0 0 0-1.947Z" clip-rule="evenodd" />  <path fill-rule="evenodd" d="m3.559 12 8.165-8.165L19.89 12l-8.165 8.165L3.56 12Zm8.165-10-10 10 10 10 10-10-10-10Z" clip-rule="evenodd" /> </symbol>
<symbol xmlns="http://www.w3.org/2000/svg" viewBox="0 0 16 16" id="dataflow"><path fill-rule="evenodd" clip-rule="evenodd" d="M3.33333 1.83325C2.8731 1.83325 2.5 2.20635 2.5 2.66659C2.5 3.12682 2.8731 3.49992 3.33333 3.49992C3.79357 3.49992 4.16667 3.12682 4.16667 2.66659C4.16667 2.20635 3.79357 1.83325 3.33333 1.83325ZM1.5 2.66659C1.5 1.65406 2.32081 0.833252 3.33333 0.833252C4.17252 0.833252 4.88001 1.39708 5.09766 2.16659L10.9023 2.16658C11.12 1.39708 11.8275 0.833252 12.6667 0.833252C13.6792 0.833252 14.5 1.65406 14.5 2.66659C14.5 3.67911 13.6792 4.49992 12.6667 4.49992C11.8275 4.49992 11.12 3.93609 10.9023 3.16658L8.5 3.16658V7.49992H10.9023C11.12 6.73042 11.8275 6.16658 12.6667 6.16658C13.6792 6.16658 14.5 6.9874 14.5 7.99992C14.5 9.01244 13.6792 9.83325 12.6667 9.83325C11.8275 9.83325 11.12 9.26942 10.9023 8.49992H8.5V10.1333C8.5 10.7016 8.50039 11.0977 8.52559 11.4061C8.55031 11.7087 8.5964 11.8826 8.66349 12.0142C8.8073 12.2965 9.03677 12.526 9.31901 12.6698C9.45069 12.7369 9.62454 12.7829 9.92712 12.8077C10.1786 12.8282 10.4885 12.8323 10.9024 12.8331C11.1201 12.0637 11.8276 11.4999 12.6667 11.4999C13.6792 11.4999 14.5 12.3207 14.5 13.3333C14.5 14.3458 13.6792 15.1666 12.6667 15.1666C11.8274 15.1666 11.1199 14.6027 10.9023 13.8331C10.4855 13.8324 10.1374 13.8282 9.84569 13.8043C9.48126 13.7746 9.16117 13.7117 8.86502 13.5608C8.39462 13.3211 8.01217 12.9386 7.77248 12.4682C7.62159 12.1721 7.55868 11.852 7.52891 11.4876C7.49999 11.1336 7.49999 10.6965 7.5 10.1546V3.16658L5.09766 3.16659C4.88001 3.93609 4.17252 4.49992 3.33333 4.49992C2.32081 4.49992 1.5 3.67911 1.5 2.66659ZM12.6667 1.83325C12.2064 1.83325 11.8333 2.20635 11.8333 2.66658C11.8333 3.12682 12.2064 3.49992 12.6667 3.49992C13.1269 3.49992 13.5 3.12682 13.5 2.66659C13.5 2.20635 13.1269 1.83325 12.6667 1.83325ZM12.6667 7.16658C12.2064 7.16658 11.8333 7.53968 11.8333 7.99992C11.8333 8.46016 12.2064 8.83325 12.6667 8.83325C13.1269 8.83325 13.5 8.46016 13.5 7.99992C13.5 7.53968 13.1269 7.16658 12.6667 7.16658ZM12.6667 12.4999C12.2064 12.4999 11.8333 12.873 11.8333 13.3333C11.8333 13.7935 12.2064 14.1666 12.6667 14.1666C13.1269 14.1666 13.5 13.7935 13.5 13.3333C13.5 12.873 13.1269 12.4999 12.6667 12.4999Z" /> </symbol>
<symbol xmlns="http://www.w3.org/2000/svg" viewBox="0 0 24 24" id="info"><path fill-rule="evenodd" d="M12 9a1 1 0 1 0 0-2 1 1 0 0 0 0 2Z" clip-rule="evenodd" />  <path fill-rule="evenodd" d="M12 20.667c-4.779 0-8.667-3.888-8.667-8.667S7.221 3.333 12 3.333 20.667 7.221 20.667 12 16.779 20.667 12 20.667ZM12 2C6.486 2 2 6.486 2 12s4.486 10 10 10 10-4.486 10-10S17.514 2 12 2Z" clip-rule="evenodd" />  <path fill-rule="evenodd" d="M12.667 10H10v1.333h1.333v5.334H10V18h4v-1.333h-1.333V10Z" clip-rule="evenodd" /> </symbol>
<symbol xmlns="http://www.w3.org/2000/svg" viewBox="0 0 24 24" id="gear"><path fill-rule="evenodd" d="M12 14c-1.103 0-2-.898-2-2 0-1.103.897-2 2-2s2 .897 2 2c0 1.102-.897 2-2 2Zm0-5.334A3.337 3.337 0 0 0 8.667 12 3.337 3.337 0 0 0 12 15.333 3.337 3.337 0 0 0 15.333 12 3.337 3.337 0 0 0 12 8.666Z" clip-rule="evenodd" />  <path fill-rule="evenodd" d="m18.218 18.038-.18.18-2.312-1.496-.366.248a5.922 5.922 0 0 1-2.222.918l-.433.083-.577 2.695h-.256l-.578-2.695-.433-.084a5.922 5.922 0 0 1-2.222-.917l-.365-.248-2.312 1.496-.18-.18 1.495-2.312-.248-.366a5.939 5.939 0 0 1-.918-2.222l-.083-.433-2.695-.578v-.255l2.695-.577.083-.434a5.943 5.943 0 0 1 .918-2.222l.248-.365-1.495-2.312.18-.181 2.312 1.496.365-.248a5.944 5.944 0 0 1 2.222-.917l.433-.084.578-2.695h.256l.577 2.695.433.084a5.944 5.944 0 0 1 2.222.917l.366.248 2.312-1.496.18.181-1.495 2.312.247.365a5.93 5.93 0 0 1 .918 2.222l.084.434 2.694.577v.255l-2.694.578-.084.433a5.926 5.926 0 0 1-.918 2.222l-.247.366 1.495 2.312ZM22 13.206v-2.412l-2.9-.621a7.226 7.226 0 0 0-.786-1.904l1.61-2.488-1.706-1.704-2.487 1.61a7.23 7.23 0 0 0-1.904-.787L13.206 2h-2.412l-.62 2.9a7.221 7.221 0 0 0-1.905.786l-2.487-1.61-1.706 1.705 1.61 2.488a7.253 7.253 0 0 0-.787 1.904l-2.9.621v2.412l2.9.62c.172.673.435 1.31.787 1.905l-1.61 2.487 1.706 1.705 2.487-1.61c.593.352 1.23.615 1.904.787l.621 2.9h2.412l.621-2.9a7.253 7.253 0 0 0 1.904-.787l2.487 1.61 1.706-1.705-1.61-2.487a7.244 7.244 0 0 0 .786-1.904l2.9-.621Z" clip-rule="evenodd" /> </symbol>
<symbol xmlns="http://www.w3.org/2000/svg" viewBox="0 0 24 24" id="copy"><path fill-rule="evenodd" d="M10 2v2.667h1.334V3.334h5.332v4h4v9.333h-4V18H22V6.39L17.61 2H10Zm8 2.276L19.724 6H18V4.276Z" clip-rule="evenodd" />  <path fill-rule="evenodd" d="M3.333 6v16h12V10.39L10.943 6h-7.61Zm1.334 1.334H10v4h4v9.333H4.667V7.334Zm6.667.942L13.057 10h-1.723V8.276Z" clip-rule="evenodd" /> </symbol>
<symbol xmlns="http://www.w3.org/2000/svg" viewBox="0 0 24 24" id="reload"><path fill-rule="evenodd" d="M10.667 8.667H7.1c1.576-2.261 4.566-3.21 7.214-2.113a5.965 5.965 0 0 1 3.216 3.18l1.225-.525a7.294 7.294 0 0 0-3.93-3.887C11.585 3.98 7.925 5.145 6 7.914V4H4.667v6h6V8.667ZM13.333 14v1.333h3.733c-1.538 2.399-4.621 3.434-7.343 2.308a5.96 5.96 0 0 1-3.247-3.248l-1.231.511a7.283 7.283 0 0 0 3.968 3.969 7.297 7.297 0 0 0 2.796.558A7.365 7.365 0 0 0 18 16.339V20h1.333v-6h-6Z" clip-rule="evenodd" /> </symbol>
<symbol xmlns="http://www.w3.org/2000/svg" viewBox="0 0 24 24" id="refresh"><path fill-rule="evenodd" d="M13.333 10h6V4H18v3.79c-1.93-2.75-5.578-3.903-8.807-2.565-3.735 1.547-5.516 5.845-3.968 9.581a7.346 7.346 0 0 0 6.785 4.527c.933 0 1.882-.179 2.797-.558a7.283 7.283 0 0 0 3.968-3.969l-1.232-.51a5.954 5.954 0 0 1-3.247 3.247 6.007 6.007 0 0 1-7.84-3.247 5.96 5.96 0 0 1 0-4.592 5.957 5.957 0 0 1 3.248-3.247c2.685-1.112 5.726-.121 7.283 2.21h-3.654V10Z" clip-rule="evenodd" /> </symbol>
<symbol xmlns="http://www.w3.org/2000/svg" viewBox="0 0 24 24" id="image"><path fill-rule="evenodd" d="M4.667 19.334h14.666v-2.667H4.667v2.667Zm0-4h14.666V4.667H4.667v10.667Zm-1.334 5.333h17.334V3.333H3.333v17.334Z" clip-rule="evenodd" />  <path fill-rule="evenodd" d="m10.008 8.692 2.513 4.397 2.09-2.09 2.202 2.751 1.041-.833-3.132-3.915-1.91 1.91-2.82-4.936-3.908 7.034 1.165.647 2.759-4.965Z" clip-rule="evenodd" /> </symbol>
<symbol xmlns="http://www.w3.org/2000/svg" viewBox="0 0 24 24" id="payment-details"><path fill-rule="evenodd" d="M4.457 4.457V20H20V4.457H4.457Zm-1.333-.104c0-.679.55-1.23 1.23-1.23h15.75c.68 0 1.23.551 1.23 1.23v15.75c0 .68-.551 1.23-1.23 1.23H4.354a1.23 1.23 0 0 1-1.23-1.23V4.354Z" clip-rule="evenodd" />  <path fill-rule="evenodd" d="M11.563 7.202c-.49.068-.968.234-1.372.54-.62.47-.972 1.2-.972 2.144 0 .459.106.865.316 1.215.206.347.492.603.798.798.57.362 1.297.56 1.904.726l.051.014c.673.183 1.21.336 1.59.578a1.1 1.1 0 0 1 .37.356c.073.122.127.287.127.532 0 .583-.236.953-.582 1.196-.373.261-.921.402-1.54.38-.947-.035-1.853-.438-2.303-1.038l-1.067.8c.627.836 1.652 1.333 2.68 1.505v1.376h1.333v-1.337c.595-.067 1.177-.254 1.662-.594.7-.49 1.15-1.267 1.15-2.288 0-.459-.106-.865-.315-1.215a2.424 2.424 0 0 0-.799-.798c-.57-.362-1.297-.56-1.903-.726l-.052-.014c-.673-.183-1.209-.336-1.59-.578a1.1 1.1 0 0 1-.37-.356 1.003 1.003 0 0 1-.127-.532c0-.585.201-.898.444-1.081.27-.205.69-.321 1.215-.307.898.024 1.857.419 2.36.922l.942-.943c-.64-.64-1.63-1.09-2.617-1.25V6.136h-1.333v1.066Z" clip-rule="evenodd" /> </symbol>
<symbol xmlns="http://www.w3.org/2000/svg" viewBox="0 0 24 24" id="thumb-down"><path fill-rule="evenodd" d="M18.574 4.66663C19.2116 4.66663 19.7285 5.18354 19.7285 5.82119V13.7901C19.7285 14.4278 19.2116 14.9447 18.574 14.9447L16.8825 14.9447L16.3234 14.9447C15.9864 14.9447 15.674 15.1216 15.5006 15.4106L13.2966 19.084C12.5819 20.2749 10.8988 20.3882 10.0312 19.3035C9.62221 18.7923 9.49037 18.1129 9.67853 17.4858L10.4409 14.9447H6.96085C5.44897 14.9447 4.35084 13.507 4.74869 12.0484L6.30108 6.35628C6.57314 5.3587 7.47922 4.66663 8.51325 4.66663H15.5492H16.8825H18.574ZM16.8825 5.99996H18.3952V13.6114H16.8825V5.99996ZM15.5492 13.746C15.0581 13.9222 14.6337 14.2637 14.3572 14.7246L12.1533 18.3979C11.9167 18.7922 11.3595 18.8296 11.0723 18.4706C10.937 18.3014 10.8933 18.0766 10.9556 17.8689L11.787 15.0977C12.0093 14.3568 11.4544 13.6114 10.6811 13.6114H6.96085C6.32811 13.6114 5.86855 13.0096 6.03503 12.3993L7.58744 6.7071C7.7013 6.2896 8.0805 5.99996 8.51325 5.99996H15.5492V13.746Z" clip-rule="evenodd" /> </symbol>
<symbol xmlns="http://www.w3.org/2000/svg" viewBox="0 0 24 24" id="smile"><path fill-rule="evenodd" d="M12 3.333c-4.779 0-8.667 3.888-8.667 8.667S7.221 20.667 12 20.667s8.667-3.888 8.667-8.667S16.779 3.333 12 3.333ZM12 22C6.486 22 2 17.514 2 12S6.486 2 12 2s10 4.486 10 10-4.486 10-10 10Z" clip-rule="evenodd" />  <path fill-rule="evenodd" d="M9 9.334a1 1 0 1 1-2 0 1 1 0 0 1 2 0Zm8 0a1 1 0 1 1-2 0 1 1 0 0 1 2 0Zm-5 8.67a5.99 5.99 0 0 1-2.296-.46 5.961 5.961 0 0 1-3.247-3.247l1.232-.51a4.637 4.637 0 0 0 2.525 2.525 4.67 4.67 0 0 0 6.097-2.525l1.232.51a5.961 5.961 0 0 1-3.247 3.247c-.74.307-1.518.46-2.296.46Z" clip-rule="evenodd" /> </symbol>
<symbol xmlns="http://www.w3.org/2000/svg" viewBox="0 0 24 24" id="images"><path fill-rule="evenodd" d="M4.667 15.333h10.666V14H4.667v1.333Zm0-2.666h10.666v-8H4.667v8Zm-1.334 4h13.334V3.333H3.333v13.334Z" clip-rule="evenodd" />  <path fill-rule="evenodd" d="m8.68 7.986 1.882 3.135 1.378-1.55 1.515 2.148 1.09-.771-2.485-3.52-1.289 1.451-2.118-3.532-3.232 5.655 1.158.662L8.68 7.987Z" clip-rule="evenodd" />  <path fill-rule="evenodd" d="M18 6v1.333h1.333v12h-12V18H6v2.667h14.667V6H18Z" clip-rule="evenodd" /> </symbol>
<symbol xmlns="http://www.w3.org/2000/svg" viewBox="0 0 24 24" id="volume-mute"><path fill-rule="evenodd" d="m7.776 9.197-1.131.77H2v4.614h4.646l8.772 5.902v-3.645l3.21 3.21.92-.918-4.13-4.13V4L8.871 8.452 4.548 4.13l-.92.92 4.148 4.148Zm.988.987-1.697 1.154H3.37v1.872h3.694l6.982 4.698v-2.441l-5.283-5.283Zm5.283 3.444V6.591L9.857 9.44l4.19 4.188Zm5.912-2.65a3.005 3.005 0 0 0-.903-1.122l.832-1.09a4.376 4.376 0 0 1-.354 7.203l-.72-1.167a3.005 3.005 0 0 0 1.145-3.823Zm-3.395-1.114a3.004 3.004 0 0 1-.253 4.938l.72 1.167a4.377 4.377 0 0 0 .37-7.192l-.837 1.087Z" clip-rule="evenodd" /> </symbol>
<symbol xmlns="http://www.w3.org/2000/svg" viewBox="0 0 24 24" id="search-plus"><path fill-rule="evenodd" d="M16.667 10.667H18c0 1.782-.64 3.417-1.701 4.69l5.506 5.505-.943.943-5.506-5.506A7.302 7.302 0 0 1 10.666 18c-4.043 0-7.333-3.29-7.333-7.333s3.29-7.333 7.334-7.333v1.333c-3.309 0-6 2.692-6 6s2.691 6 6 6c3.308 0 6-2.692 6-6Zm-1.334-7.333V6H18v1.333h-2.667V10H14V7.333h-2.667V6H14V3.333h1.333Z" clip-rule="evenodd" /> </symbol>
<symbol xmlns="http://www.w3.org/2000/svg" viewBox="0 0 24 24" id="labeler"><rect x="3.75" y="6.75" width="16.5" height="10.5" rx="2.25" stroke="black" style="stroke-width:1.5" fill="none" />  <rect x="10.849593" y="6.1274285" width="1.5" height="6" rx="0.75" transform="rotate(16)" fill="black" style="stroke-width:1.5" /> </symbol>
<symbol xmlns="http://www.w3.org/2000/svg" viewBox="0 0 24 24" id="play"><path fill-rule="evenodd" d="M6 19.14V4.86L18.693 12 6 19.14Z" clip-rule="evenodd" /> </symbol>
<symbol xmlns="http://www.w3.org/2000/svg" viewBox="0 0 24 24" id="chat"><path fill-rule="evenodd" d="M4.667 16.39v-1.057H4a.667.667 0 0 1-.667-.666v-8c0-.368.3-.667.667-.667h13.333c.368 0 .667.299.667.667V10h1.333V6.667c0-1.103-.897-2-2-2H4c-1.103 0-2 .897-2 2v8c0 .869.557 1.61 1.333 1.886v3.056l2.943-2.942h5.057v-1.334H5.724l-1.057 1.058Z" clip-rule="evenodd" />  <path fill-rule="evenodd" d="M20.666 16a.667.667 0 0 1-.666.667h-.667v1.057l-1.057-1.057h-3.61A.667.667 0 0 1 14 16v-2.667c0-.368.3-.666.666-.666H20c.367 0 .666.298.666.666V16ZM20 11.333h-5.334c-1.102 0-2 .898-2 2V16c0 1.103.898 2 2 2h3.058l2.942 2.943v-3.057A2.004 2.004 0 0 0 22 16v-2.667c0-1.102-.898-2-2-2Z" clip-rule="evenodd" /> </symbol>
<symbol xmlns="http://www.w3.org/2000/svg" viewBox="0 0 24 24" id="generator"><path d="M 5.25 2.9980469 C 4.0164729 2.9980469 3 4.0145198 3 5.2480469 L 3 8.2480469 C 3 9.481574 4.0164729 10.498047 5.25 10.498047 L 18.75 10.498047 C 19.983527 10.498047 21 9.481574 21 8.2480469 L 21 5.2480469 C 21 4.0145198 19.983527 2.9980469 18.75 2.9980469 L 5.25 2.9980469 z M 5.25 4.4980469 L 18.75 4.4980469 C 19.178473 4.4980469 19.5 4.819574 19.5 5.2480469 L 19.5 8.2480469 C 19.5 8.6765198 19.178473 8.9980469 18.75 8.9980469 L 5.25 8.9980469 C 4.8215271 8.9980469 4.5 8.6765198 4.5 8.2480469 L 4.5 5.2480469 C 4.5 4.819574 4.8215271 4.4980469 5.25 4.4980469 z" />  <path d="M 5.2480469 8.9980469 C 5.0381113 8.9983545 4.8244031 9.0259766 4.6113281 9.0898438 L 5.0410156 10.527344 C 5.1017649 10.509135 5.1744829 10.498346 5.25 10.498047 L 5.2519531 10.498047 L 6.75 10.498047 L 6.75 8.9980469 L 5.25 8.9980469 L 5.25 9.7480469 L 5.2480469 8.9980469 z M 8.25 8.9980469 L 8.25 10.498047 L 9.75 10.498047 L 9.75 8.9980469 L 8.25 8.9980469 z M 11.25 8.9980469 L 11.25 10.498047 L 12.75 10.498047 L 12.75 8.9980469 L 11.25 8.9980469 z M 14.25 8.9980469 L 14.25 10.498047 L 15.75 10.498047 L 15.75 8.9980469 L 14.25 8.9980469 z M 17.25 8.9980469 L 17.25 10.498047 L 18.75 10.498047 L 18.75 8.9980469 L 17.25 8.9980469 z M 20.640625 10.027344 L 19.384766 10.845703 C 19.457483 10.957455 19.500246 11.106641 19.5 11.248047 L 19.5 11.890625 L 21 11.890625 L 21 11.25 L 21 11.248047 C 21.00039 10.818609 20.879564 10.394544 20.640625 10.027344 z M 3.0917969 10.611328 C 3.0283133 10.823848 3.0003309 11.039248 3 11.248047 L 3 12.320312 L 4.5 12.320312 L 4.5 11.25 L 4.5 11.248047 C 4.5003082 11.172619 4.5113077 11.101237 4.5292969 11.041016 L 3.0917969 10.611328 z M 19.5 13.390625 L 19.5 14.890625 L 21 14.890625 L 21 13.390625 L 19.5 13.390625 z M 3 13.820312 L 3 15.320312 L 4.5 15.320312 L 4.5 13.820312 L 3 13.820312 z M 19.5 16.390625 L 19.5 17.890625 L 21 17.890625 L 21 16.390625 L 19.5 16.390625 z M 3 16.820312 L 3 18.320312 L 4.5 18.320312 L 4.5 16.820312 L 3 16.820312 z M 19.429688 19.066406 C 19.34601 19.25395 19.143892 19.424362 18.943359 19.474609 C 18.903023 19.483989 18.874714 19.488541 18.876953 19.488281 L 19.050781 20.978516 C 19.162447 20.965563 19.244738 20.945101 19.300781 20.931641 L 19.304688 20.929688 L 19.308594 20.929688 C 19.973195 20.763159 20.520975 20.304855 20.800781 19.677734 L 19.429688 19.066406 z M 4.6855469 19.244141 L 3.546875 20.220703 C 3.7958854 20.510789 4.1144979 20.726485 4.46875 20.857422 C 4.8513269 21.002886 5.2066862 21.007882 5.4902344 20.998047 L 5.4394531 19.498047 C 5.2318579 19.505248 5.0829664 19.488045 5.0019531 19.457031 L 4.9960938 19.455078 L 4.9902344 19.453125 C 4.8736726 19.410617 4.7635231 19.334979 4.6855469 19.244141 z M 6.9648438 19.498047 L 6.9648438 20.998047 L 8.4648438 20.998047 L 8.4648438 19.498047 L 6.9648438 19.498047 z M 9.9648438 19.498047 L 9.9648438 20.998047 L 11.464844 20.998047 L 11.464844 19.498047 L 9.9648438 19.498047 z M 12.964844 19.498047 L 12.964844 20.998047 L 14.464844 20.998047 L 14.464844 19.498047 L 12.964844 19.498047 z M 15.964844 19.498047 L 15.964844 20.998047 L 17.464844 20.998047 L 17.464844 19.498047 L 15.964844 19.498047 z" /> </symbol>
<symbol xmlns="http://www.w3.org/2000/svg" viewBox="0 0 24 24" id="widget"><path fill-rule="evenodd" d="M4.667 19.334h4v-4h-4v4Zm-1.334 1.333H10V14H3.333v6.667ZM4.667 10h4V6h-4v4Zm-1.334 1.334H10V4.667H3.333v6.667Zm10.667 8h4v-4h-4v4Zm-1.333 1.333h6.666V14h-6.666v6.667ZM13.172 8 16 10.83 18.828 8 16 5.171l-2.829 2.83ZM16 12.714 11.286 8 16 3.286 20.713 8 16 12.714Z" clip-rule="evenodd" /> </symbol>
<symbol xmlns="http://www.w3.org/2000/svg" viewBox="0 0 24 24" id="trash"><path fill-rule="evenodd" d="M18 20c0 .368-.3.667-.667.667H8A.667.667 0 0 1 7.333 20V6H18v14ZM12.667 3.333c.735 0 1.333.598 1.333 1.334h-2.667c0-.736.598-1.334 1.334-1.334Zm8 1.334h-5.334A2.67 2.67 0 0 0 12.667 2 2.67 2.67 0 0 0 10 4.667H4.667V6H6v14c0 1.103.897 2 2 2h9.333c1.103 0 2-.897 2-2V6h1.334V4.667Z" clip-rule="evenodd" />  <path fill-rule="evenodd" d="M10 18.667h1.333V8H10v10.667Zm4 0h1.333V8H14v10.667Z" clip-rule="evenodd" /> </symbol>
<symbol xmlns="http://www.w3.org/2000/svg" viewBox="0 0 16 16" id="summary"><path fill-rule="evenodd" clip-rule="evenodd" d="M4 2.49963C4.27614 2.49963 4.5 2.72349 4.5 2.99963L4.5 5.45952L5.64645 4.31307C5.84171 4.11781 6.15829 4.11781 6.35355 4.31307C6.54882 4.50833 6.54882 4.82492 6.35355 5.02018L4.35355 7.02018C4.25978 7.11395 4.13261 7.16663 4 7.16663C3.86739 7.16663 3.74021 7.11395 3.64645 7.02018L1.64645 5.02018C1.45118 4.82492 1.45118 4.50833 1.64645 4.31307C1.84171 4.11781 2.15829 4.11781 2.35355 4.31307L3.5 5.45952L3.5 2.99963C3.5 2.72349 3.72386 2.49963 4 2.49963ZM8.16667 3.99996C8.16667 3.72382 8.39052 3.49996 8.66667 3.49996H14C14.2761 3.49996 14.5 3.72382 14.5 3.99996C14.5 4.2761 14.2761 4.49996 14 4.49996H8.66667C8.39052 4.49996 8.16667 4.2761 8.16667 3.99996ZM8.66667 6.16663H14C14.2761 6.16663 14.5 6.39048 14.5 6.66663C14.5 6.94277 14.2761 7.16663 14 7.16663H8.66667C8.39052 7.16663 8.16667 6.94277 8.16667 6.66663C8.16667 6.39048 8.39052 6.16663 8.66667 6.16663ZM4 8.83329C4.13261 8.83329 4.25979 8.88597 4.35355 8.97974L6.35355 10.9797C6.54882 11.175 6.54882 11.4916 6.35355 11.6868C6.15829 11.8821 5.84171 11.8821 5.64645 11.6868L4.5 10.5404V12.9996C4.5 13.2758 4.27614 13.4996 4 13.4996C3.72386 13.4996 3.5 13.2758 3.5 12.9996V10.5404L2.35355 11.6868C2.15829 11.8821 1.84171 11.8821 1.64645 11.6868C1.45118 11.4916 1.45118 11.175 1.64645 10.9797L3.64645 8.97974C3.74022 8.88597 3.86739 8.83329 4 8.83329ZM8.16667 9.33329C8.16667 9.05715 8.39052 8.83329 8.66667 8.83329H14C14.2761 8.83329 14.5 9.05715 14.5 9.33329C14.5 9.60944 14.2761 9.83329 14 9.83329H8.66667C8.39052 9.83329 8.16667 9.60944 8.16667 9.33329ZM8.16667 12C8.16667 11.7238 8.39052 11.5 8.66667 11.5H14C14.2761 11.5 14.5 11.7238 14.5 12C14.5 12.2761 14.2761 12.5 14 12.5H8.66667C8.39052 12.5 8.16667 12.2761 8.16667 12Z" /> </symbol>
<symbol xmlns="http://www.w3.org/2000/svg" viewBox="0 0 24 24" id="circle-plus"><path fill-rule="evenodd" d="M12.667 6h-1.334v5.333H6v1.334h5.333V18h1.334v-5.333H18v-1.334h-5.333V6Z" clip-rule="evenodd" />  <path fill-rule="evenodd" d="M12 20.667c-4.779 0-8.667-3.888-8.667-8.667S7.221 3.333 12 3.333 20.667 7.221 20.667 12 16.779 20.667 12 20.667ZM12 2C6.486 2 2 6.486 2 12s4.486 10 10 10 10-4.486 10-10S17.514 2 12 2Z" clip-rule="evenodd" /> </symbol>
<symbol xmlns="http://www.w3.org/2000/svg" viewBox="0 0 24 24" id="form"><path fill-rule="evenodd" clip-rule="evenodd" d="M3.33333 15.3333H8.66667V8.66667H3.33333V15.3333ZM10 15.3333H20.6667V8.66667H10V15.3333ZM22 16.6667V7.33333H10V6C10 5.26467 10.598 4.66667 11.3333 4.66667V3.33333C10.5333 3.33333 9.82267 3.69467 9.33333 4.25467C8.844 3.69467 8.13333 3.33333 7.33333 3.33333V4.66667C8.06867 4.66667 8.66667 5.26467 8.66667 6V7.33333H2V16.6667H8.66667V18C8.66667 18.7353 8.06867 19.3333 7.33333 19.3333V20.6667C8.13333 20.6667 8.844 20.3053 9.33333 19.7453C9.82267 20.3053 10.5333 20.6667 11.3333 20.6667V19.3333C10.598 19.3333 10 18.7353 10 18V16.6667H22Z" /> </symbol>
<symbol xmlns="http://www.w3.org/2000/svg" viewBox="0 0 24 24" id="circle-dash"><path fill-rule="evenodd" d="M12.606 3.308a8.927 8.927 0 0 0-1.289-.001l-.093-1.33a9.994 9.994 0 0 1 1.427 0l-.045 1.331Zm2.371.517a8.804 8.804 0 0 0-1.189-.346l.28-1.303c.466.1.929.234 1.374.399l-.465 1.25Zm-6.074.008-.469-1.248c.444-.166.905-.302 1.372-.404l.286 1.302a8.877 8.877 0 0 0-1.19.35Zm8.246 1.173a8.702 8.702 0 0 0-1.043-.669l.64-1.17c.417.226.823.486 1.205.771l-.802 1.068Zm-10.413.015-.802-1.066a9.972 9.972 0 0 1 1.201-.774l.642 1.169c-.36.197-.71.423-1.04.67ZM18.9 6.749a8.637 8.637 0 0 0-.812-.933l.943-.944c.338.335.653.698.939 1.078l-1.07.8Zm-13.91.017L3.918 5.97c.285-.38.6-.743.936-1.079l.946.941a8.911 8.911 0 0 0-.811.935Zm15.1 2.145a8.622 8.622 0 0 0-.516-1.122l1.172-.642c.23.418.43.854.596 1.297l-1.252.467Zm-16.284.022L2.552 8.47c.165-.445.365-.882.593-1.3l1.174.638a8.57 8.57 0 0 0-.514 1.125Zm16.814 2.39a8.926 8.926 0 0 0-.177-1.226l1.305-.284c.1.459.17.934.205 1.41l-1.333.1Zm-17.333.022-1.334-.092c.033-.473.1-.947.2-1.412l1.307.28a8.685 8.685 0 0 0-.173 1.224Zm18.466 2.716-1.307-.281c.086-.398.144-.81.173-1.224l1.334.093c-.033.477-.101.952-.2 1.412Zm-19.596.03a9.888 9.888 0 0 1-.204-1.412l1.332-.096c.03.41.09.822.178 1.224l-1.306.284Zm18.604 2.64-1.175-.635c.199-.365.372-.745.514-1.128l1.253.464c-.164.442-.363.88-.592 1.3Zm-17.601.027a9.969 9.969 0 0 1-.596-1.297l1.251-.468c.144.383.318.76.517 1.123l-1.172.642Zm15.893 2.254-.947-.942a8.79 8.79 0 0 0 .811-.936l1.071.798c-.285.38-.6.744-.935 1.08Zm-14.18.02c-.338-.338-.654-.7-.938-1.078l1.07-.8c.245.328.519.641.813.934l-.944.944Zm11.897 1.69-.643-1.17c.36-.196.71-.422 1.041-.67l.803 1.066a10.01 10.01 0 0 1-1.201.773Zm-9.61.015a10.026 10.026 0 0 1-1.205-.771l.802-1.068c.33.248.682.472 1.043.669l-.64 1.17Zm6.94.984-.287-1.302c.404-.09.805-.207 1.19-.35l.468 1.248a10.06 10.06 0 0 1-1.371.404Zm-4.263.006c-.464-.1-.926-.234-1.372-.399l.463-1.25c.387.143.788.259 1.19.346l-.28 1.303Zm2.15.224a9.414 9.414 0 0 1-.734-.025l.094-1.33a8.496 8.496 0 0 0 1.24 0l.097 1.33a9.42 9.42 0 0 1-.696.025Z" clip-rule="evenodd" /> </symbol>
<symbol xmlns="http://www.w3.org/2000/svg" viewBox="0 0 24 24" id="annotate"><path fill-rule="evenodd" clip-rule="evenodd" d="M12.78 3.8036L9.442 9.58426L8.30867 11.5483L8.79667 13.3703L7.278 15.9996H0V17.3336H6.508H10.6667H11.1273L12.2607 15.3696L14.082 14.8823L14.5533 14.0656L15.216 12.9183L20.22 4.25093L14.4467 0.916931L12.78 3.8036ZM13.9347 4.47093L14.9347 2.73826L18.3987 4.73826L17.3987 6.47026L13.9347 4.47093ZM10.6013 10.2443L13.2687 5.62493L16.7313 7.62493L14.0653 12.2436L10.6013 10.2443ZM10.0847 13.0249L9.74 11.7369L9.93467 11.3989L13.3987 13.3989L13.2033 13.7369L11.9153 14.0823L10.0847 13.0249ZM9.756 14.3749L10.9107 15.0416L10.3573 15.9996H8.81733L9.756 14.3749Z" /> </symbol>
<symbol xmlns="http://www.w3.org/2000/svg" viewBox="0 0 24 24" id="edit"><path fill-rule="evenodd" d="m19.388 5.913-.757.758-1.179-1.179.757-.757 1.179 1.178Zm-8.781 8.62-1.2.357-.226-.227.398-1.16 1.028 1.03Zm5.345-7.54.557-.558 1.179 1.178-.557.558-1.179-1.179Zm.236 2.12-4.557 4.558-1.179-1.18 4.557-4.556 1.179 1.178ZM6.967 17.01l4.577-1.366 8.905-8.905a1.168 1.168 0 0 0 0-1.65l-1.414-1.413c-.441-.442-1.21-.442-1.65 0L8.49 12.569l-1.523 4.44Z" clip-rule="evenodd" />  <path fill-rule="evenodd" d="M19.333 19.333H4.667V4.667h10V3.333H3.333v17.334h17.334V9.333h-1.334v10Z" clip-rule="evenodd" /> </symbol>
<symbol xmlns="http://www.w3.org/2000/svg" viewBox="0 0 24 24" id="unlink"><path fill-rule="evenodd" d="M14.007 11.228a4.658 4.658 0 0 0-1.915-1.151 4.664 4.664 0 0 0-4.685 1.151l-.707.707.943.943.707-.707a3.329 3.329 0 0 1 3.35-.82 3.267 3.267 0 0 1 1.72 1.248c.461.65.675 1.446.601 2.242a3.332 3.332 0 0 1-.957 2.044l-2.828 2.828a3.338 3.338 0 0 1-4.715 0 3.312 3.312 0 0 1-.971-2.357c0-.893.345-1.73.971-2.357l-.943-.942a4.633 4.633 0 0 0-1.362 3.299 4.655 4.655 0 0 0 4.662 4.664c1.196 0 2.39-.455 3.3-1.364l2.83-2.829a4.67 4.67 0 0 0 .5-6 4.683 4.683 0 0 0-.5-.599Z" clip-rule="evenodd" />  <path fill-rule="evenodd" d="M6.756 14.675c.237.15.464.267.693.363a4.645 4.645 0 0 0 2.209.331 4.715 4.715 0 0 0 3.213-1.721l-1.038-.837a3.374 3.374 0 0 1-2.3 1.23 3.262 3.262 0 0 1-2.067-.495 3.34 3.34 0 0 1-1.311-4.095l1.53-3.696a3.337 3.337 0 0 1 4.356-1.804l.51-1.232a4.674 4.674 0 0 0-6.097 2.525L4.923 8.94a4.677 4.677 0 0 0 1.833 5.735Zm9.911-4.465h4V8.878h-4v1.334Zm-.034-7.788L15.368 2l-1.333 4 1.264.422 1.334-4Zm4.421 2.331-.775-1.085-4.666 3.333.774 1.086 4.667-3.334Zm-4.685 7.387 2.666 1.334.597-1.192-2.667-1.334-.596 1.193Z" clip-rule="evenodd" /> </symbol>
<symbol xmlns="http://www.w3.org/2000/svg" viewBox="0 0 24 24" id="upload-cloud"><path fill-rule="evenodd" d="m8.195 14.862.943.943 2.195-2.196v7.057h1.334V13.61l2.195 2.196.943-.943L12 11.057l-3.805 3.805Z" clip-rule="evenodd" />  <path fill-rule="evenodd" d="M19.314 10.443A5.34 5.34 0 0 0 14 4.667 5.324 5.324 0 0 0 9.248 7.58 3.256 3.256 0 0 0 8 7.333a3.337 3.337 0 0 0-3.326 3.117A4.668 4.668 0 0 0 2 14.666a4.673 4.673 0 0 0 4.666 4.667H8V18H6.666a3.337 3.337 0 0 1-3.333-3.334c0-1.415.901-2.68 2.242-3.146l.49-.17L6 10.666c0-1.102.897-2 2-2 .42 0 .828.137 1.18.396l.737.543.29-.87A3.993 3.993 0 0 1 14 6c2.206 0 4 1.794 4 4 0 .24-.024.49-.072.744l-.109.575.555.183a3.327 3.327 0 0 1 2.292 3.164A3.337 3.337 0 0 1 17.333 18H16v1.333h1.333A4.672 4.672 0 0 0 22 14.667c0-1.83-1.06-3.464-2.686-4.224Z" clip-rule="evenodd" /> </symbol>
<symbol xmlns="http://www.w3.org/2000/svg" viewBox="0 0 16 16" id="validation"><g clip-path="url(#clip0_256_12336)">  <path fill-rule="evenodd" clip-rule="evenodd" d="M10.5099 2.36724C9.29521 1.82601 7.93812 1.69193 6.64102 1.98499C5.34393 2.27806 4.17631 2.98256 3.31231 3.99343C2.44832 5.00431 1.93424 6.26739 1.84674 7.5943C1.75925 8.92121 2.10302 10.2409 2.8268 11.3564C3.55058 12.472 4.61558 13.3237 5.86296 13.7846C7.11035 14.2454 8.47329 14.2907 9.74851 13.9136C11.0237 13.5366 12.1429 12.7574 12.9391 11.6924C13.7353 10.6274 14.1659 9.33355 14.1667 8.00386C14.1667 8.00376 14.1667 8.00395 14.1667 8.00386V7.39052C14.1667 7.11438 14.3906 6.89052 14.6667 6.89052C14.9429 6.89052 15.1667 7.11438 15.1667 7.39052V8.00386C15.1658 9.54929 14.6654 11.0533 13.7401 12.2911C12.8147 13.5289 11.5141 14.4344 10.032 14.8726C8.55003 15.3108 6.96608 15.2582 5.51641 14.7226C4.06675 14.187 2.82904 13.1972 1.9879 11.9007C1.14675 10.6042 0.747224 9.07059 0.848909 7.5285C0.950594 5.98641 1.54804 4.51851 2.55214 3.34371C3.55624 2.16891 4.9132 1.35017 6.42064 1.00958C7.92808 0.668995 9.50523 0.824818 10.9169 1.45381C11.1691 1.5662 11.2825 1.86179 11.1701 2.11402C11.0577 2.36626 10.7621 2.47963 10.5099 2.36724ZM15.0201 2.31298C15.2154 2.50814 15.2156 2.82472 15.0204 3.02008L8.35377 9.69342C8.26002 9.78726 8.13282 9.84001 8.00017 9.84004C7.86751 9.84007 7.74029 9.78739 7.64649 9.69359L5.64649 7.69359C5.45123 7.49833 5.45123 7.18175 5.64649 6.98649C5.84175 6.79123 6.15833 6.79123 6.35359 6.98649L7.99986 8.63276L14.313 2.31333C14.5081 2.11797 14.8247 2.11781 15.0201 2.31298Z" />  </g>  <defs>  <clipPath id="clip0_256_12336">  <rect width="16" height="16" />  </clipPath>  </defs> </symbol>
<symbol xmlns="http://www.w3.org/2000/svg" viewBox="0 0 24 24" id="volume-high"><path fill-rule="evenodd" clip-rule="evenodd" d="M15.4752 3.75452L6.70176 9.72072H2.05713V14.3355H6.7036L15.4752 20.238V3.75452ZM14.1038 6.34562V17.6621L7.12206 12.964H3.42856V11.0922H7.12389L14.1038 6.34562Z" />  <path d="M20.0161 10.733C19.8107 10.291 19.5008 9.9057 19.1132 9.6102L19.9447 8.5196C20.5092 8.94997 20.9605 9.51118 21.2597 10.1548C21.559 10.7985 21.6972 11.5053 21.6624 12.2142C21.6276 12.9232 21.4209 13.6131 21.0601 14.2243C20.6993 14.8356 20.1952 15.35 19.5914 15.723L18.8706 14.5563C19.2852 14.3001 19.6313 13.947 19.8791 13.5272C20.1268 13.1075 20.2687 12.6338 20.2926 12.147C20.3165 11.6602 20.2216 11.1749 20.0161 10.733Z" />  <path d="M17.518 10.7422C17.3145 10.3006 17.0069 9.91496 16.6216 9.61841L17.458 8.53157C18.0192 8.96345 18.4672 9.52508 18.7636 10.1682C19.0599 10.8114 19.1958 11.5168 19.1595 12.2241C19.1232 12.9313 18.9159 13.6191 18.5552 14.2286C18.1946 14.838 17.6914 15.3508 17.089 15.723L16.3682 14.5563C16.7819 14.3007 17.1273 13.9486 17.375 13.5301C17.6226 13.1117 17.765 12.6394 17.7899 12.1538C17.8148 11.6682 17.7215 11.1838 17.518 10.7422Z" /> </symbol>
<symbol xmlns="http://www.w3.org/2000/svg" viewBox="0 0 24 24" id="unlock"><path fill-rule="evenodd" d="M18 20a.667.667 0 0 1-.667.667H6.667A.667.667 0 0 1 6 20v-8c0-.367.299-.667.667-.667h10.666c.368 0 .667.3.667.667v8Zm0-9.877V8c0-3.308-2.691-6-6-6S6 4.692 6 8h1.333A4.672 4.672 0 0 1 12 3.333 4.672 4.672 0 0 1 16.667 8v2h-10c-1.103 0-2 .897-2 2v8c0 1.103.897 2 2 2h10.666c1.103 0 2-.897 2-2v-8c0-.868-.559-1.601-1.333-1.877Z" clip-rule="evenodd" />  <path fill-rule="evenodd" d="M12 13.666a1 1 0 0 0-1 1c0 .296.13.558.333.741V18h1.334v-2.593a.994.994 0 0 0 .333-.74 1 1 0 0 0-1-1Z" clip-rule="evenodd" /> </symbol>
<symbol xmlns="http://www.w3.org/2000/svg" viewBox="0 0 16 16" id="pencil"><path fill-rule="evenodd" d="m12.215 5.077-1.267-1.28.89-.9 1.267 1.281-.89.9Zm-2.61.078.71-.718 1.267 1.28-.71.719-1.268-1.28Zm-4.928 4.982L8.97 5.796l1.267 1.28-4.294 4.342-1.267-1.281ZM3.63 11.985l.409-1.204.003-.004 1.265 1.28-1.237.373-.44-.445Zm10.107-8.447L12.47 2.256a.91.91 0 0 0-1.267 0L3.26 10.29 2 14l3.787-1.143 7.95-8.038a.913.913 0 0 0 0-1.281ZM12.47 2.256l1.267 1.282c.35.353.35.928 0 1.28l-7.951 8.04L2 14l1.26-3.711 7.944-8.032a.91.91 0 0 1 1.267 0Zm-1.338-.07-7.961 8.049-1.33 3.917 3.998-1.206 7.969-8.057a1.013 1.013 0 0 0 0-1.421m0 0-1.267-1.282a1.01 1.01 0 0 0-1.41 0m1.083 2.891.89-.899-1.267-1.28-.89.899 1.267 1.28Zm0-.142.749-.757-1.127-1.139-.748.758 1.126 1.138Zm-2.61.22 1.266 1.281.71-.718-1.266-1.281-.71.718Zm.71-.576-.57.576 1.126 1.139.57-.576-1.126-1.139Zm-5.498 5.558 1.126 1.138 4.154-4.199L8.97 5.938l-4.154 4.199Zm-.14 0 1.267 1.28 4.294-4.34L8.97 5.795l-4.294 4.34Zm-.931 1.821.354.359 1.02-.309-1.036-1.047-.338.997Zm-.115.027.44.445 1.237-.374-1.265-1.279-.003.004-.409 1.204Z" clip-rule="evenodd" /> </symbol>
<symbol xmlns="http://www.w3.org/2000/svg" viewBox="0 0 24 24" id="language"><path fill-rule="evenodd" d="M12 20.667c-4.779 0-8.667-3.888-8.667-8.667S7.221 3.333 12 3.333 20.667 7.221 20.667 12 16.779 20.667 12 20.667ZM12 2C6.486 2 2 6.486 2 12s4.486 10 10 10 10-4.486 10-10S17.514 2 12 2Z" clip-rule="evenodd" />  <path fill-rule="evenodd" d="M12.667 7.333h-1.334v1.334h-4V10h6.68c-.046.903-.388 2.748-2.158 4.602-1.01-.935-1.414-1.788-1.626-2.747l-1.302.29c.286 1.29.876 2.348 1.945 3.364-.529.426-1.141.844-1.86 1.24l.643 1.168a14.216 14.216 0 0 0 2.266-1.538c.677.502 1.481 1.006 2.444 1.538l.645-1.167a21.853 21.853 0 0 1-2.1-1.299c2.023-2.148 2.399-4.332 2.44-5.451h1.317V8.667h-4V7.333Z" clip-rule="evenodd" /> </symbol>
<symbol xmlns="http://www.w3.org/2000/svg" viewBox="0 0 24 24" id="forbidden"><path fill-rule="evenodd" d="M12 20.667a8.618 8.618 0 0 1-5.631-2.093L18.574 6.369A8.618 8.618 0 0 1 20.667 12c0 4.779-3.888 8.667-8.667 8.667Zm0-17.334a8.62 8.62 0 0 1 5.631 2.093L5.426 17.631A8.618 8.618 0 0 1 3.333 12c0-4.779 3.888-8.667 8.667-8.667ZM12 2C6.486 2 2 6.486 2 12s4.486 10 10 10 10-4.486 10-10S17.514 2 12 2Z" clip-rule="evenodd" /> </symbol>
<symbol xmlns="http://www.w3.org/2000/svg" viewBox="0 0 24 24" id="audio"><path fill-rule="evenodd" d="M10 14h1.333v-4H10v4Zm-2.667 5.333h1.334V4.667H7.334v14.666Zm-2.666-2.666H6V7.333H4.667v9.334ZM2 14h1.333v-4H2v4Zm10.666 2.667H14V7.333h-1.334v9.334Zm2.668 2.666h1.333V4.667h-1.334v14.666ZM20.666 14H22v-4h-1.334v4ZM18 16.667h1.333V7.333H18v9.334Z" clip-rule="evenodd" /> </symbol>
<symbol xmlns="http://www.w3.org/2000/svg" viewBox="0 0 24 24" id="eye"><path fill-rule="evenodd" d="M12.032 11a1 1 0 1 0 0 2 1 1 0 0 0 0-2Z" clip-rule="evenodd" />  <path fill-rule="evenodd" d="M12.031 15.333A3.337 3.337 0 0 1 8.698 12a3.337 3.337 0 0 1 3.333-3.334A3.337 3.337 0 0 1 15.365 12a3.337 3.337 0 0 1-3.334 3.333Zm0-8A4.672 4.672 0 0 0 7.365 12a4.672 4.672 0 0 0 4.666 4.666A4.672 4.672 0 0 0 16.698 12a4.672 4.672 0 0 0-4.667-4.667Z" clip-rule="evenodd" />  <path fill-rule="evenodd" d="M12.032 18c-3.914 0-7.432-2.457-8.633-6 1.2-3.543 4.72-6 8.633-6 3.913 0 7.432 2.457 8.632 6-1.2 3.543-4.72 6-8.632 6Zm9.97-6.198c-1.306-4.201-5.406-7.135-9.97-7.135-4.564 0-8.664 2.934-9.97 7.135L2 12l.062.198c1.306 4.201 5.406 7.135 9.97 7.135 4.564 0 8.664-2.934 9.97-7.135l.06-.198-.06-.198Z" clip-rule="evenodd" /> </symbol>
<symbol xmlns="http://www.w3.org/2000/svg" viewBox="0 0 24 24" id="add-user"><path fill-rule="evenodd" d="M3.252 18.667h12.17c-.551-.924-2.083-1.635-2.694-1.846-2.424-.572-2.698-1.902-2.72-2.052l-.008-.1v-2.072l.42-.167c.814-.325.756-.835.756-.84l-.084-.519.485-.202c.026-.024.141-.16.365-.659a.696.696 0 0 0-.095-.101l-.387-.292.427-1.23c.203-.828.12-1.685-.246-2.153-.176-.225-.405-.434-.63-.434h-.367l-.196-.23c-.001-.001-.424-.593-1.096-.593-.318.002-1.263.1-1.777.437-.603.395-1.23 1.247-.79 3.021l.398 1.214-.425.282a.5.5 0 0 0-.092.095c.118.318.344.596.434.646l.519.216-.125.504c-.006.07-.011.533.752.837l.42.167-.007 2.171c-.022.15-.29 1.482-2.78 2.072-.558.196-2.079.904-2.627 1.828ZM16.667 20H2v-.667c0-2.406 3.264-3.64 3.652-3.773 1.407-.337 1.612-.855 1.682-.995v-1.099c-.793-.456-1.088-1.117-1.156-1.626-.366-.321-.652-.816-.791-1.23-.167-.493.003-.92.24-1.221l-.122-.375c-.7-2.814.705-4.08 1.34-4.496.937-.613 2.348-.633 2.505-.634 1.005 0 1.688.605 2.01.976.509.093.98.385 1.33.833.366.466.912 1.512.474 3.274l-.153.442c.26.354.384.808.188 1.256-.182.415-.396.861-.705 1.161-.066.51-.36 1.18-1.16 1.64v1.114c.05.093.225.63 1.62.962.45.15 3.713 1.384 3.713 3.791V20Zm2.666-16.667H18V6h-2.667v1.333H18V10h1.333V7.333H22V6h-2.667V3.333Z" clip-rule="evenodd" /> </symbol>
<symbol xmlns="http://www.w3.org/2000/svg" viewBox="0 0 24 24" id="circle-cross"><path fill-rule="evenodd" d="M14.829 8.229 12 11.057 9.171 8.23l-.942.942L11.057 12 8.23 14.829l.942.942L12 12.942l2.829 2.83.942-.944L12.943 12l2.827-2.83-.942-.942Z" clip-rule="evenodd" />  <path fill-rule="evenodd" d="M12 20.667c-4.779 0-8.667-3.888-8.667-8.667S7.221 3.333 12 3.333 20.667 7.221 20.667 12 16.779 20.667 12 20.667ZM12 2C6.486 2 2 6.486 2 12s4.486 10 10 10 10-4.486 10-10S17.514 2 12 2Z" clip-rule="evenodd" /> </symbol>
<symbol xmlns="http://www.w3.org/2000/svg" viewBox="0 0 24 24" id="more-vertical"><path fill-rule="evenodd" d="M11.986 6.986a2 2 0 1 1 0-4 2 2 0 0 1 0 4Zm.028 7a2 2 0 1 1 0-4 2 2 0 0 1 0 4Zm-.028 7a2 2 0 1 1 0-4 2 2 0 0 1 0 4Z" clip-rule="evenodd" /> </symbol>
<symbol xmlns="http://www.w3.org/2000/svg" viewBox="0 0 24 24" id="share"><path fill-rule="evenodd" d="M17.333 19.334c-1.102 0-2-.898-2-2 0-1.103.898-2 2-2 1.103 0 2 .897 2 2 0 1.102-.897 2-2 2ZM6.667 14c-1.103 0-2-.897-2-2 0-1.102.897-2 2-2 1.102 0 2 .898 2 2 0 1.103-.898 2-2 2Zm10.666-9.333c1.103 0 2 .897 2 2s-.897 2-2 2c-1.102 0-2-.897-2-2s.898-2 2-2Zm0 9.333a3.316 3.316 0 0 0-2.608 1.284l-4.851-2.426c.074-.275.126-.56.126-.858 0-.299-.052-.582-.126-.858l4.85-2.425A3.316 3.316 0 0 0 17.335 10a3.337 3.337 0 0 0 3.333-3.333 3.337 3.337 0 0 0-3.334-3.333A3.337 3.337 0 0 0 14 6.667c0 .298.052.583.126.858L9.276 9.95a3.316 3.316 0 0 0-2.61-1.283A3.337 3.337 0 0 0 3.334 12a3.337 3.337 0 0 0 3.334 3.334 3.316 3.316 0 0 0 2.608-1.284l4.851 2.425c-.074.276-.126.56-.126.858a3.337 3.337 0 0 0 3.333 3.334 3.337 3.337 0 0 0 3.334-3.334A3.337 3.337 0 0 0 17.333 14Z" clip-rule="evenodd" /> </symbol>
<symbol xmlns="http://www.w3.org/2000/svg" viewBox="0 0 24 24" id="arrow-up"><path fill-rule="evenodd" d="M20.471 11.529 12 3.057 3.529 11.53l.942.942 6.862-6.862v15.058h1.334V5.609l6.862 6.862.942-.942Z" clip-rule="evenodd" /> </symbol>
<symbol xmlns="http://www.w3.org/2000/svg" viewBox="0 0 24 24" id="file-empty"><path fill-rule="evenodd" d="M4.666 2v20h14.668V7.724L13.609 2H4.666ZM6 3.334h6.667v5.333H18v12H6V3.334Zm8 .942 3.057 3.058H14V4.276Z" clip-rule="evenodd" /> </symbol>
<symbol xmlns="http://www.w3.org/2000/svg" viewBox="0 0 24 24" id="undo"><path fill-rule="evenodd" d="M12.799 6.422H6.698l2.298-2.409L7.961 3 4 7.151l3.96 4.151 1.036-1.013-2.298-2.41h6.101c3.176 0 5.76 2.617 5.76 5.832s-2.584 5.831-5.76 5.831h-.72V21h.72C16.769 21 20 17.73 20 13.711s-3.23-7.289-7.201-7.289Z" clip-rule="evenodd" /> </symbol>
<symbol xmlns="http://www.w3.org/2000/svg" viewBox="0 0 24 24" id="filter"><path fill-rule="evenodd" d="M3.394 3.333 10 12.877v9.79l4-3v-6.79l6.606-9.543H3.394Zm7.94 9.125L5.939 4.667h12.122l-5.394 7.791V19l-1.333 1v-7.542Z" clip-rule="evenodd" /> </symbol>
<symbol xmlns="http://www.w3.org/2000/svg" viewBox="0 0 24 24" id="chevrons-left"><path fill-rule="evenodd" clip-rule="evenodd" d="M10.707 18.414L12.121 17L6.828 11.707L12.121 6.414L10.707 5L4 11.707L10.707 18.414Z" />  <path fill-rule="evenodd" clip-rule="evenodd" d="M16.707 18.414L18.121 17L12.828 11.707L18.121 6.414L16.707 5L10 11.707L16.707 18.414Z" /> </symbol>
<symbol xmlns="http://www.w3.org/2000/svg" viewBox="0 0 24 24" id="calendar"><path fill-rule="evenodd" d="M14 2v2.667h-4V2H6v2.667H3.334v15.999h17.332V4.667H18V2h-4Zm1.334 3.333v-2h1.333V6h-1.333v-.666Zm-8 0v-2h1.332V6H7.333v-.666Zm10.666 2V6h1.333v2.667H4.667V6H6v1.334h4V6h4v1.334h4Zm-13.333 12h14.667V10H4.667v9.333Z" clip-rule="evenodd" />  <path fill-rule="evenodd" d="M6 12.667h1.333v-1.334H6v1.334Zm2.667 0H10v-1.334H8.667v1.334Zm2.666 0h1.334v-1.334h-1.334v1.334Zm2.667 0h1.333v-1.334H14v1.334Zm2.667 0H18v-1.334h-1.333v1.334ZM6 15.333h1.333V14H6v1.333Zm2.667 0H10V14H8.667v1.333Zm2.666 0h1.334V14h-1.334v1.333Zm2.667 0h1.333V14H14v1.333Zm2.667 0H18V14h-1.333v1.333ZM6 18h1.333v-1.334H6V18Zm2.667 0H10v-1.334H8.667V18Zm2.666 0h1.334v-1.334h-1.334V18ZM14 18h1.333v-1.334H14V18Zm2.667 0H18v-1.334h-1.333V18Z" clip-rule="evenodd" /> </symbol>
<symbol xmlns="http://www.w3.org/2000/svg" viewBox="0 0 16 16" id="globe"><g clip-path="url(#clip0_256_11844)"> <path fill-rule="evenodd" clip-rule="evenodd" d="M1.85335 7.50004H4.8549C4.98902 5.48943 5.68799 3.56221 6.86406 1.93779C4.16064 2.4412 2.07735 4.70834 1.85335 7.50004ZM8.00004 2.09919C6.75109 3.63772 6.00291 5.52288 5.85735 7.50004H10.1427C9.99717 5.52288 9.24899 3.63772 8.00004 2.09919ZM10.1427 8.50004C9.99717 10.4772 9.24899 12.3624 8.00004 13.9009C6.75109 12.3624 6.00291 10.4772 5.85735 8.50004H10.1427ZM4.8549 8.50004H1.85335C2.07735 11.2917 4.16064 13.5589 6.86406 14.0623C5.68799 12.4379 4.98902 10.5107 4.8549 8.50004ZM9.13602 14.0623C10.3121 12.4379 11.0111 10.5107 11.1452 8.50004H14.1467C13.9227 11.2917 11.8394 13.5589 9.13602 14.0623ZM14.1467 7.50004H11.1452C11.0111 5.48943 10.3121 3.56221 9.13602 1.93779C11.8394 2.4412 13.9227 4.70834 14.1467 7.50004ZM0.833374 8.00004C0.833374 4.042 4.042 0.833374 8.00004 0.833374C11.9581 0.833374 15.1667 4.042 15.1667 8.00004C15.1667 11.9581 11.9581 15.1667 8.00004 15.1667C4.042 15.1667 0.833374 11.9581 0.833374 8.00004Z" /> </g> <defs> <clipPath id="clip0_256_11844"> <rect width="16" height="16" /> </clipPath> </defs> </symbol>
<symbol xmlns="http://www.w3.org/2000/svg" viewBox="0 0 24 24" id="arrow-left"><path fill-rule="evenodd" d="M20.667 11.333H5.609l6.862-6.862-.942-.942-8.472 8.47 8.472 8.472.942-.942-6.862-6.862h15.058v-1.334Z" clip-rule="evenodd" /> </symbol>
<symbol xmlns="http://www.w3.org/2000/svg" viewBox="0 0 24 24" id="cross"><path d="m12 13.414 6.293 6.293 1.414-1.414L13.414 12l6.293-6.293-1.414-1.414L12 10.586 5.707 4.293 4.293 5.707 10.586 12l-6.293 6.293 1.414 1.414L12 13.414Z" /> </symbol>
<symbol xmlns="http://www.w3.org/2000/svg" viewBox="0 0 24 24" id="volume-low"><path fill-rule="evenodd" clip-rule="evenodd" d="M15.4752 3.75452L6.70176 9.72072H2.05713V14.3355H6.7036L15.4752 20.238V3.75452ZM14.1038 6.34562V17.6621L7.12206 12.964H3.42856V11.0922H7.12389L14.1038 6.34562Z" />  <path d="M16.6216 9.61841C17.0069 9.91496 17.3145 10.3006 17.518 10.7422C17.7215 11.1838 17.8148 11.6682 17.7899 12.1538C17.765 12.6394 17.6226 13.1117 17.375 13.5301C17.1273 13.9486 16.7819 14.3007 16.3682 14.5563L17.089 15.723C17.6914 15.3508 18.1946 14.838 18.5552 14.2286C18.9159 13.6191 19.1232 12.9313 19.1595 12.2241C19.1958 11.5168 19.0599 10.8114 18.7636 10.1682C18.4672 9.52508 18.0192 8.96345 17.458 8.53157L16.6216 9.61841Z" /> </symbol>
<symbol xmlns="http://www.w3.org/2000/svg" viewBox="0 0 16 16" id="file-code"><path fill-rule="evenodd" clip-rule="evenodd" d="M8.83329 1.86974C8.67926 1.8362 8.49758 1.83327 8.00781 1.83327H5.86663C5.29832 1.83327 4.90217 1.83366 4.59375 1.85886C4.29116 1.88358 4.11732 1.92967 3.98564 1.99676C3.7034 2.14057 3.47393 2.37004 3.33012 2.65229C3.26302 2.78397 3.21694 2.95781 3.19221 3.26039C3.16702 3.56881 3.16663 3.96497 3.16663 4.53327V11.4666C3.16663 12.0349 3.16702 12.4311 3.19221 12.7395C3.21694 13.0421 3.26302 13.2159 3.33012 13.3476C3.47393 13.6298 3.7034 13.8593 3.98564 14.0031C4.11732 14.0702 4.29116 14.1163 4.59375 14.141C4.90217 14.1662 5.29832 14.1666 5.86663 14.1666H10.1333C10.7016 14.1666 11.0978 14.1662 11.4062 14.141C11.7088 14.1163 11.8826 14.0702 12.0143 14.0031C12.2965 13.8593 12.526 13.6298 12.6698 13.3476C12.7369 13.2159 12.783 13.0421 12.8077 12.7395C12.8329 12.4311 12.8333 12.0349 12.8333 11.4666V6.65876C12.8333 6.16904 12.8304 5.98734 12.7968 5.83332L10.3825 5.83332C10.2108 5.83333 10.0532 5.83334 9.92138 5.82258C9.77929 5.81097 9.62384 5.78439 9.4703 5.70616C9.25078 5.59431 9.0723 5.41583 8.96045 5.19631C8.88222 5.04277 8.85565 4.88732 8.84404 4.74524C8.83327 4.61345 8.83328 4.4558 8.83329 4.28414L8.83329 1.86974ZM9.53102 1.05358C9.38877 0.989547 9.24062 0.938875 9.08848 0.902349C8.79983 0.83305 8.49916 0.833137 8.06479 0.833262C8.04605 0.833268 8.02706 0.833273 8.00781 0.833273L5.84522 0.833273C5.30333 0.833268 4.86625 0.833264 4.51231 0.862182C4.14789 0.891957 3.8278 0.954863 3.53165 1.10576C3.06124 1.34544 2.67879 1.72789 2.43911 2.1983C2.28822 2.49444 2.22531 2.81454 2.19554 3.17896C2.16662 3.5329 2.16662 3.96998 2.16663 4.51187V11.488C2.16662 12.0299 2.16662 12.467 2.19554 12.8209C2.22531 13.1853 2.28822 13.5054 2.43911 13.8016C2.67879 14.272 3.06124 14.6544 3.53165 14.8941C3.8278 15.045 4.14789 15.1079 4.51231 15.1377C4.86625 15.1666 5.30332 15.1666 5.84521 15.1666H10.1547C10.6966 15.1666 11.1337 15.1666 11.4876 15.1377C11.852 15.1079 12.1721 15.045 12.4683 14.8941C12.9387 14.6544 13.3211 14.272 13.5608 13.8016C13.7117 13.5054 13.7746 13.1853 13.8044 12.8209C13.8333 12.467 13.8333 12.0299 13.8333 11.488V6.65876C13.8333 6.63951 13.8333 6.62053 13.8333 6.60179C13.8334 6.16741 13.8335 5.86674 13.7642 5.57809C13.7278 5.42641 13.6773 5.2787 13.6136 5.13684C13.6106 5.12991 13.6075 5.12306 13.6042 5.11629C13.563 5.0268 13.5165 4.9397 13.4649 4.85545C13.3098 4.60234 13.0971 4.3898 12.7899 4.08273C12.7766 4.06949 12.7632 4.05607 12.7496 4.04246L10.6241 1.91698C10.6105 1.90337 10.5971 1.88994 10.5838 1.87669C10.2768 1.56945 10.0642 1.35678 9.81111 1.20167C9.72651 1.14983 9.63902 1.10314 9.54912 1.06181C9.54315 1.05895 9.53712 1.05621 9.53102 1.05358ZM9.83329 2.54049V4.26665C9.83329 4.46159 9.83368 4.57772 9.84072 4.6638C9.84501 4.71634 9.85067 4.73843 9.85251 4.74435C9.86819 4.77411 9.89251 4.79842 9.92227 4.8141C9.92819 4.81594 9.95027 4.82161 10.0028 4.8259C10.0889 4.83293 10.205 4.83332 10.4 4.83332H12.1261C12.0998 4.80687 12.0719 4.779 12.0425 4.74957L9.917 2.62409C9.88758 2.59467 9.85973 2.56684 9.83329 2.54049ZM9.92054 4.8135C9.92056 4.81349 9.92163 4.81384 9.92227 4.8141ZM9.85311 4.74607C9.8531 4.74609 9.85274 4.74506 9.85251 4.74435ZM7.02018 7.97972C7.21544 8.17498 7.21544 8.49156 7.02018 8.68683L5.70707 9.99994L7.02018 11.3131C7.21544 11.5083 7.21544 11.8249 7.02018 12.0202C6.82492 12.2154 6.50834 12.2154 6.31307 12.0202L4.64641 10.3535C4.55264 10.2597 4.49996 10.1325 4.49996 9.99994C4.49996 9.86733 4.55264 9.74015 4.64641 9.64639L6.31307 7.97972C6.50834 7.78446 6.82492 7.78446 7.02018 7.97972ZM8.97974 8.68683C8.78448 8.49156 8.78448 8.17498 8.97974 7.97972C9.175 7.78446 9.49158 7.78446 9.68685 7.97972L11.3535 9.64639C11.4473 9.74015 11.5 9.86733 11.5 9.99994C11.5 10.1325 11.4473 10.2597 11.3535 10.3535L9.68685 12.0202C9.49158 12.2154 9.175 12.2154 8.97974 12.0202C8.78448 11.8249 8.78448 11.5083 8.97974 11.3131L10.2929 9.99994L8.97974 8.68683Z" /> </symbol>
<symbol xmlns="http://www.w3.org/2000/svg" viewBox="0 0 24 24" id="upload"><path fill-rule="evenodd" d="M11.952 7.334 12 7.286l.048.048h-.096Zm-6.08 4.195.942.943 4.519-4.52v12.715h1.333V7.953l4.52 4.519.942-.943L12 5.4l-6.128 6.128ZM4.667 4.667h14.666V3.334H4.667v1.333Z" clip-rule="evenodd" /> </symbol>
<symbol xmlns="http://www.w3.org/2000/svg" viewBox="0 0 24 24" id="pause"><rect x="6" y="6" width="4" height="12" fill-rule="evenodd" />  <rect x="14" y="6" width="4" height="12" fill-rule="evenodd" /> </symbol>
<symbol xmlns="http://www.w3.org/2000/svg" viewBox="0 0 24 24" id="add-file"><path fill-rule="evenodd" d="M4.666 2v20h14.668V7.724L13.609 2H4.666ZM6 3.334h6.667v5.333H18v12H6V3.334Zm8 .942 3.057 3.058H14V4.276Z" clip-rule="evenodd" />  <path fill-rule="evenodd" d="M12.667 10.667h-1.334v2.666H8.667v1.334h2.666v2.666h1.334v-2.666h2.666v-1.334h-2.666v-2.666Z" clip-rule="evenodd" /> </symbol>
<symbol xmlns="http://www.w3.org/2000/svg" viewBox="0 0 24 24" id="circle-minus"><path fill-rule="evenodd" d="M6 12.667h12v-1.333H6v1.333Z" clip-rule="evenodd" />  <path fill-rule="evenodd" d="M12 3.333c-4.779 0-8.667 3.888-8.667 8.667S7.221 20.667 12 20.667s8.667-3.888 8.667-8.667S16.779 3.333 12 3.333ZM12 22C6.486 22 2 17.514 2 12S6.486 2 12 2s10 4.486 10 10-4.486 10-10 10Z" clip-rule="evenodd" /> </symbol>
<symbol xmlns="http://www.w3.org/2000/svg" viewBox="0 0 24 24" id="help"><path fill-rule="evenodd" d="M13.232 10.69c-.082.043-2.032 1.075-2.032 3.11h1.6c0-1.053 1.16-1.684 1.162-1.684C14.057 12.065 16 11.052 16 9a4.005 4.005 0 0 0-4-4 4.005 4.005 0 0 0-4 4h1.6c0-1.323 1.076-2.4 2.4-2.4 1.324 0 2.4 1.077 2.4 2.4 0 1.068-1.153 1.684-1.168 1.69Zm-.383 7.16a1.2 1.2 0 1 0-1.697-1.697 1.2 1.2 0 0 0 1.697 1.697Z" clip-rule="evenodd" /> </symbol>
<symbol xmlns="http://www.w3.org/2000/svg" viewBox="0 0 24 24" id="activity-log"><path fill-rule="evenodd" d="M16.667 4.667V6H18v14.667H6V6h1.333V4.667H4.667V22h14.667V4.667h-2.667Z" clip-rule="evenodd" />  <path fill-rule="evenodd" d="M14 6h-4V4.667h1.333V4a.667.667 0 0 1 1.334 0v.667H14V6Zm1.333-2.667h-1.447A2.004 2.004 0 0 0 12 2c-.87 0-1.61.557-1.886 1.333H8.667v4h6.666v-4Z" clip-rule="evenodd" /> </symbol>
<symbol xmlns="http://www.w3.org/2000/svg" viewBox="0 0 24 24" id="arrows-related"><path fill-rule="evenodd" d="m5.018 10 1.857 1.743-.913.972L2.36 9.333l3.603-3.381.913.972-1.857 1.743h15.649V10H5.018Zm13.964 4.246-1.856-1.743.912-.972 3.603 3.381-3.603 3.382-.912-.972 1.856-1.743H3.334v-1.333h15.648Z" clip-rule="evenodd" /> </symbol>
<symbol xmlns="http://www.w3.org/2000/svg" viewBox="0 0 24 24" id="menu"><path d="M21 7H3V5H21V7Z" fill-rule="evenodd" /> <path d="M21 13H3V11H21V13Z" fill-rule="evenodd" /> <path d="M3 19H21V17H3V19Z" fill-rule="evenodd" /> </symbol>
<symbol xmlns="http://www.w3.org/2000/svg" viewBox="0 0 24 24" id="circle-chevron-left"><path fill-rule="evenodd" d="M12 20.667c4.779 0 8.667-3.888 8.667-8.667S16.779 3.333 12 3.333 3.333 7.221 3.333 12 7.221 20.667 12 20.667ZM12 2c5.514 0 10 4.486 10 10s-4.486 10-10 10S2 17.514 2 12 6.486 2 12 2Z" clip-rule="evenodd" />  <path fill-rule="evenodd" d="m12.862 7.529.943.942L10.276 12l3.529 3.529-.943.942L8.391 12l4.471-4.471Z" clip-rule="evenodd" /> </symbol>
<symbol xmlns="http://www.w3.org/2000/svg" viewBox="0 0 24 24" id="shield-check"><g clip-path="url(#a)">  <path d="M6 4.667v8c0 2.059 1.093 3.986 2.98 5.725a16.165 16.165 0 0 0 2.221 1.706c.312.2.582.36.799.48a16.167 16.167 0 0 0 3.02-2.186c1.887-1.74 2.98-3.666 2.98-5.725v-8H6ZM4.667 3.333h14.666v9.334c0 5.676-6.748 9.119-7.034 9.263l-.299.149-.299-.149c-.286-.144-7.034-3.587-7.034-9.263V3.333Z" />  <path fill-rule="evenodd" d="m10.667 14.943-3.138-3.138.942-.943 2.196 2.195 4.862-4.862.942.943-5.804 5.805Z" clip-rule="evenodd" />  </g>  <defs>  <clipPath id="a">  <path d="M0 0h24v24H0z" />  </clipPath>  </defs> </symbol>
<symbol xmlns="http://www.w3.org/2000/svg" viewBox="0 0 24 24" id="question-answer"><rect x="4.125" y="4.125" width="7.5" height="7.5" rx="1.5" stroke="black" style="stroke-width:1.5" fill="none" />  <path d="m 19.875,19.875 v -3.75 m -6,3.75 v -3.75 m 0,0 v -0.75 c 0,-1.656855 1.343145,-3 3,-3 v 0 c 1.6569,0 3,1.343145 3,3 v 0.75 m -6,0 h 6" stroke="black" stroke-linecap="round" style="stroke-width:1.5" fill="none" />  <rect x="7.875" y="9.375" width="1.5" height="4.5" rx="0.75" fill="black" style="stroke-width:1.5" /> </symbol>
<symbol xmlns="http://www.w3.org/2000/svg" viewBox="0 0 24 24" id="synonyms"><path fill-rule="evenodd" clip-rule="evenodd" d="M5.1668 7.33362L2.83347 15.3336H2.00014V16.6663H4.66614V15.3336H4.22214L4.80547 13.3336H7.19414L7.77814 15.3336H7.33347V16.6663H9.99947V15.3336H9.1668L6.83347 7.33362H5.1668ZM6.00014 9.23829L6.80547 11.9996H5.19414L6.00014 9.23829Z" />  <path fill-rule="evenodd" clip-rule="evenodd" d="M8.034 4.2107L13.3673 20.2107L14.632 19.7887L9.29866 3.7887L8.034 4.2107Z" />  <path d="M21.3333 13.9385C21.3333 14.6852 21.1132 15.3265 20.6728 15.8626C20.2406 16.3987 19.5759 16.6667 18.6789 16.6667H14.6667V15.3026H15.5841V8.69748H14.6667V7.33337H18.63C19.3802 7.33337 19.9674 7.5344 20.3914 7.93645C20.8237 8.3385 21.0398 8.87457 21.0398 9.54466C21.0398 10.0329 20.9134 10.4588 20.6606 10.8226C20.4078 11.1864 20.0612 11.4161 19.6208 11.5118V11.5693C20.1916 11.6746 20.6198 11.9426 20.9052 12.3734C21.1906 12.8041 21.3333 13.3259 21.3333 13.9385ZM19.5841 9.94671C19.5841 9.4585 19.4618 9.12825 19.2171 8.95594C18.9806 8.78363 18.6748 8.69748 18.2997 8.69748H16.9419V11.2534H18.2141C18.6789 11.2534 19.0214 11.1337 19.2416 10.8944C19.4699 10.6455 19.5841 10.3296 19.5841 9.94671ZM19.8777 13.8811C19.8777 12.9621 19.4292 12.5026 18.5321 12.5026H16.9419V15.3026H18.3486C19.368 15.3026 19.8777 14.8288 19.8777 13.8811Z" /> </symbol>
<symbol xmlns="http://www.w3.org/2000/svg" viewBox="0 0 24 24" id="graph"><rect x="4.5" y="3.75" width="7.5" height="7.5" rx="3.75" stroke="black" style="stroke-width:1.5" fill="none" />  <rect x="15" y="5.25" width="4.5" height="4.5" rx="2.25" stroke="black" style="stroke-width:1.5" fill="none" />  <rect x="12" y="14.25" width="6" height="6" rx="3" stroke="black" style="stroke-width:1.5" fill="none" />  <line x1="10.374044" y1="10.083975" x2="13.374044" y2="14.583975" stroke="black" style="stroke-width:1.5" fill="none" />  <rect x="12" y="6.75" width="3" height="1.5" rx="0.75" fill="black" style="stroke-width:1.5" /> </symbol>
<symbol xmlns="http://www.w3.org/2000/svg" viewBox="0 0 24 24" id="history"><path fill-rule="evenodd" d="M4.333 4.017c0-.654.53-1.183 1.183-1.183h10.469v.09c.143.058.275.145.386.256l2.708 2.708c.111.111.198.243.257.386h.09V12.1h-1.334V7.607h-2.257c-.653 0-1.183-.53-1.183-1.183V4.167H5.667v15.865h5.352v1.333H5.516c-.653 0-1.183-.53-1.183-1.182V4.017Zm11.652.663v1.594h1.594L15.985 4.68ZM7.774 6.273h4.773v1.333H7.773V6.273Zm0 3.44h8.212v1.333H7.773V9.712Zm0 3.439h3.913v1.333H7.773v-1.333Zm13.648 7.546-1.664-1.664a3.246 3.246 0 1 0-.943.943l1.664 1.664.943-.943Zm-4.382-5.352a1.913 1.913 0 1 0 0 3.826 1.913 1.913 0 0 0 0-3.826Z" clip-rule="evenodd" /> </symbol>
<symbol xmlns="http://www.w3.org/2000/svg" viewBox="0 0 24 24" id="folder"><path d="M8.943 3.333 11.609 6H22v13.334H2v-16h6.943Zm11.724 4H3.333V18h17.334V7.334ZM8.39 4.668H3.333V6h6.39L8.39 4.667Z" /> </symbol>
<symbol xmlns="http://www.w3.org/2000/svg" viewBox="0 0 24 24" id="users"><path fill-rule="evenodd" d="M3.252 18h12.17c-.551-.924-2.083-1.635-2.694-1.845-2.424-.573-2.698-1.902-2.72-2.052L10 14.002V11.93l.42-.167c.814-.324.756-.834.756-.839l-.084-.52.485-.201c.026-.024.141-.16.365-.66a.695.695 0 0 0-.095-.101l-.387-.292.427-1.23c.203-.827.12-1.685-.246-2.153-.176-.224-.405-.434-.63-.434h-.367l-.196-.23c-.001-.001-.424-.592-1.096-.592-.318.002-1.263.1-1.777.436-.603.395-1.23 1.248-.79 3.022l.398 1.213-.425.282a.5.5 0 0 0-.092.095c.118.318.344.596.434.646l.519.216-.125.504c-.006.071-.011.534.752.838l.42.166-.007 2.172c-.022.15-.29 1.481-2.78 2.072-.558.196-2.079.904-2.627 1.827Zm13.415 1.333H2v-.666c0-2.407 3.264-3.641 3.652-3.774 1.407-.337 1.612-.855 1.682-.995v-1.099c-.793-.456-1.088-1.117-1.156-1.626-.366-.321-.652-.816-.791-1.23-.167-.492.003-.92.24-1.221l-.122-.375c-.7-2.814.705-4.08 1.34-4.496.937-.612 2.348-.633 2.505-.634 1.005 0 1.688.606 2.01.976.509.093.98.385 1.33.834.366.466.912 1.511.474 3.273l-.153.443c.26.353.384.807.188 1.255-.182.415-.396.861-.705 1.161-.066.511-.36 1.18-1.16 1.64v1.114c.05.094.225.631 1.62.962.45.151 3.713 1.384 3.713 3.792v.666Z" clip-rule="evenodd" />  <path fill-rule="evenodd" d="M22 19.334h-3.333V18h1.781c-.593-.919-2.237-1.63-2.893-1.841-2.54-.558-2.847-1.816-2.882-2.062l-.006-.095V11.93l.42-.166c.81-.324.816-.842.814-.9l-.017-.473.44-.195c.105-.069.287-.432.389-.644a.677.677 0 0 0-.104-.098l-.408-.298.454-1.248c.289-1.092-.018-1.804-.227-2.078-.203-.264-.483-.496-.767-.496h-.353l-.198-.211c-.015-.022-.454-.588-1.19-.611a.464.464 0 0 0-.15.074l-.895-.977c.354-.323.838-.383.932-.393l.069-.001c1.057 0 1.78.607 2.117.971a2.35 2.35 0 0 1 1.492.912c.62.808.776 1.95.439 3.213l-.155.421c.282.358.416.822.2 1.283-.216.458-.439.89-.76 1.175-.088.51-.409 1.158-1.209 1.612v1.114c.049.08.385.622 1.903.957.472.149 4.097 1.377 4.097 3.794v.666Z" clip-rule="evenodd" /> </symbol>
<symbol xmlns="http://www.w3.org/2000/svg" viewBox="0 0 24 24" id="file-pdf"><path fill-rule="evenodd" d="M4.666 2v20h14.668V7.724L13.609 2H4.666ZM6 3.334h6.667v5.333H18v12H6V3.334Zm8 .942 3.057 3.058H14V4.276Z" clip-rule="evenodd" />  <path d="M7.275 17v-3.636h1.502c.273 0 .508.053.705.16.2.105.352.252.46.442a1.3 1.3 0 0 1 .162.657c0 .25-.055.47-.165.658a1.107 1.107 0 0 1-.467.435 1.573 1.573 0 0 1-.721.155h-.927v-.693h.763a.714.714 0 0 0 .332-.069.475.475 0 0 0 .205-.194.6.6 0 0 0 .069-.292.583.583 0 0 0-.07-.292.465.465 0 0 0-.204-.191.737.737 0 0 0-.332-.068h-.433V17h-.879Zm4.606 0h-1.344v-3.636h1.342c.37 0 .69.072.957.218.269.144.476.353.622.625.145.271.218.595.218.973 0 .379-.073.704-.218.977-.145.272-.351.48-.62.626-.269.145-.588.217-.957.217Zm-.465-.75h.431c.204 0 .376-.034.517-.102a.681.681 0 0 0 .321-.34c.074-.157.11-.366.11-.628s-.036-.47-.11-.625a.679.679 0 0 0-.325-.337 1.184 1.184 0 0 0-.525-.105h-.42v2.138Zm2.773.75v-3.636h2.483v.713h-1.604v.746h1.446v.716h-1.446V17h-.879Z" /> </symbol>
<symbol xmlns="http://www.w3.org/2000/svg" viewBox="0 0 24 24" id="photo"><path fill="none" stroke="currentColor" stroke-width="1.5" stroke-linecap="round" stroke-linejoin="round" d="m2.25 15.75 5.159-5.159a2.25 2.25 0 0 1 3.182 0l5.159 5.159m-1.5-1.5 1.409-1.409a2.25 2.25 0 0 1 3.182 0l2.909 2.909m-18 3.75h16.5a1.5 1.5 0 0 0 1.5-1.5V6a1.5 1.5 0 0 0-1.5-1.5H3.75A1.5 1.5 0 0 0 2.25 6v12a1.5 1.5 0 0 0 1.5 1.5Zm10.5-11.25h.008v.008h-.008V8.25Zm.375 0a.375.375 0 1 1-.75 0 .375.375 0 0 1 .75 0Z" /> </symbol>
<symbol xmlns="http://www.w3.org/2000/svg" viewBox="0 0 24 24" id="chevron-left"><path fill-rule="evenodd" d="m14.293 18.707 1.414-1.414L10.414 12l5.293-5.293-1.414-1.414L7.586 12l6.707 6.707Z" clip-rule="evenodd" /> </symbol>
<symbol xmlns="http://www.w3.org/2000/svg" viewBox="0 0 24 24" id="smiley-sad"><path fill-rule="evenodd" clip-rule="evenodd" d="M12 3.33333C7.22133 3.33333 3.33333 7.22133 3.33333 12C3.33333 16.7787 7.22133 20.6667 12 20.6667C16.7787 20.6667 20.6667 16.7787 20.6667 12C20.6667 7.22133 16.7787 3.33333 12 3.33333ZM12 22C6.486 22 2 17.514 2 12C2 6.486 6.486 2 12 2C17.514 2 22 6.486 22 12C22 17.514 17.514 22 12 22Z" /> <path fill-rule="evenodd" clip-rule="evenodd" d="M9.00004 9.33334C9.00004 9.88534 8.55204 10.3333 8.00004 10.3333C7.44804 10.3333 7.00004 9.88534 7.00004 9.33334C7.00004 8.78134 7.44804 8.33334 8.00004 8.33334C8.55204 8.33334 9.00004 8.78134 9.00004 9.33334ZM17 9.33334C17 9.88534 16.552 10.3333 16 10.3333C15.448 10.3333 15 9.88534 15 9.33334C15 8.78134 15.448 8.33334 16 8.33334C16.552 8.33334 17 8.78134 17 9.33334ZM16.3116 16.8809C15.8342 15.7289 14.9376 14.8322 13.7856 14.3549C11.4082 13.3695 8.67291 14.5035 7.68824 16.8809L6.45691 16.3702C7.07024 14.8902 8.22358 13.7369 9.70358 13.1235C11.1842 12.5102 12.8149 12.5102 14.2962 13.1235C15.7769 13.7369 16.9302 14.8902 17.5436 16.3702L16.3116 16.8809Z" /> </symbol>
<symbol xmlns="http://www.w3.org/2000/svg" viewBox="0 0 24 24" id="arrows-unrelated"><path fill-rule="evenodd" d="m5.018 10 1.857 1.743-.913.972L2.36 9.333l3.603-3.381.913.972-1.857 1.743h15.649V10H5.018Zm13.964 4.246-1.856-1.743.912-.972 3.603 3.381-3.603 3.382-.912-.972 1.856-1.743H3.334v-1.333h15.648Z" clip-rule="evenodd" />  <path fill-rule="evenodd" d="M19.333 5.333 6 20l-.987-.897L18.346 4.436l.987.897Z" clip-rule="evenodd" /> </symbol>
<symbol xmlns="http://www.w3.org/2000/svg" viewBox="0 0 24 24" id="heart"><path fill-rule="evenodd" d="M7.47 4.603a4.112 4.112 0 0 0-2.925 1.212A4.11 4.11 0 0 0 3.333 8.74c0 1.105.43 2.144 1.212 2.925L12 19.121l7.455-7.455a4.11 4.11 0 0 0 1.212-2.925c0-1.106-.43-2.144-1.212-2.926a4.112 4.112 0 0 0-2.925-1.212 4.115 4.115 0 0 0-2.927 1.212L12 7.419l-1.603-1.604A4.115 4.115 0 0 0 7.47 4.603ZM12 21.006l-8.397-8.397A5.431 5.431 0 0 1 2 8.74c0-1.462.569-2.836 1.603-3.869A5.436 5.436 0 0 1 7.47 3.27c1.461 0 2.835.57 3.868 1.602l.661.661.66-.661a5.438 5.438 0 0 1 3.87-1.602c1.46 0 2.834.57 3.867 1.602A5.436 5.436 0 0 1 22 8.741a5.44 5.44 0 0 1-1.602 3.868L12 21.006Z" clip-rule="evenodd" /> </symbol>
</svg>
