<svg width="189" height="34" viewBox="0 0 189 34" fill="none" xmlns="http://www.w3.org/2000/svg">
<path d="M84.0572 15.0504H82.9961L83.8001 12.128H87.331V20.8952H88.3667L87.5881 23.8141H84.0572V15.0504ZM83.8037 8.68924C83.8051 8.45603 83.8532 8.22542 83.9452 8.01073C84.0372 7.79604 84.1712 7.60154 84.3396 7.43848C84.508 7.27542 84.7074 7.14703 84.9262 7.06075C85.145 6.97446 85.3789 6.93198 85.6144 6.93578C86.0826 6.93954 86.5304 7.12561 86.8611 7.45373C87.1918 7.78186 87.3788 8.22568 87.3817 8.68924C87.3846 8.92186 87.3411 9.15277 87.2538 9.36877C87.1666 9.58477 87.0372 9.78162 86.8731 9.94811C86.709 10.1146 86.5134 10.2475 86.2974 10.3391C86.0814 10.4307 85.8494 10.4793 85.6144 10.4821C85.3757 10.4855 85.1387 10.4414 84.9174 10.3525C84.6962 10.2636 84.4952 10.1317 84.3264 9.96453C84.1576 9.79736 84.0244 9.59837 83.9346 9.37932C83.8448 9.16027 83.8003 8.92562 83.8037 8.68924Z" fill="white"/>
<path d="M89.3125 17.9715C89.3125 14.4395 91.7678 11.7968 95.0525 11.7968C95.8266 11.765 96.596 11.9315 97.2862 12.2801C97.9764 12.6287 98.5641 13.1477 98.9926 13.7869V12.1267H102.212V20.8939H103.273L102.473 23.8128H98.9926V19.8397L97.9786 23.2068C97.1343 23.8301 96.1055 24.1591 95.0525 24.1427C91.7678 24.1427 89.3125 21.525 89.3125 17.9715ZM98.9926 17.9106C99.0094 17.4893 98.9393 17.069 98.7867 16.6754C98.6341 16.2819 98.4022 15.9231 98.105 15.6212C97.8078 15.3192 97.4517 15.0804 97.0583 14.9191C96.6648 14.7579 96.2424 14.6777 95.8166 14.6834C95.3925 14.6801 94.9722 14.7621 94.5811 14.9245C94.19 15.0869 93.8362 15.3262 93.5413 15.6279C93.2464 15.9297 93.0164 16.2876 92.8653 16.68C92.7142 17.0723 92.6452 17.491 92.6623 17.9106C92.6452 18.3301 92.7142 18.7488 92.8653 19.1412C93.0164 19.5335 93.2464 19.8914 93.5413 20.1932C93.8362 20.4949 94.19 20.7343 94.5811 20.8966C94.9722 21.059 95.3925 21.141 95.8166 21.1378C96.243 21.1455 96.6664 21.0667 97.0608 20.9062C97.4552 20.7457 97.8122 20.5069 98.1098 20.2045C98.4073 19.9021 98.6392 19.5426 98.791 19.1481C98.9429 18.7535 99.0115 18.3324 98.9926 17.9106Z" fill="white"/>
<path d="M44.9991 11.6319C43.8152 11.6084 42.6609 11.9995 41.7398 12.7363V11.89H38.4805V23.7877H41.9969V16.8671C41.9806 16.5937 42.0221 16.32 42.1189 16.0635C42.2157 15.8069 42.3656 15.5733 42.5589 15.3774C42.7522 15.1816 42.9848 15.028 43.2416 14.9263C43.4984 14.8247 43.7739 14.7774 44.0503 14.7874C45.2526 14.7874 46.0602 15.6229 46.0602 16.8671V23.7877H49.573V16.4476C49.573 13.5216 47.7622 11.6319 44.9991 11.6319Z" fill="white"/>
<path d="M59.2867 18.7861C59.304 19.055 59.2643 19.3246 59.1704 19.5775C59.0764 19.8304 58.9301 20.0611 58.7409 20.2548C58.5518 20.4486 58.3238 20.6011 58.0717 20.7026C57.8196 20.8041 57.5489 20.8524 57.2768 20.8443C57.0021 20.8552 56.728 20.8092 56.4723 20.7092C56.2165 20.6093 55.9846 20.4576 55.7914 20.2639C55.5981 20.0702 55.4478 19.8388 55.35 19.5843C55.2522 19.3298 55.2091 19.058 55.2234 18.7861V11.8906H51.707V18.5279C51.707 21.791 53.9994 24.068 57.2768 24.068C60.5542 24.068 62.8032 21.791 62.8032 18.5279V11.8906H59.2867V18.7861Z" fill="white"/>
<path d="M73.5312 19.2513C72.7453 20.3521 71.9233 20.8434 70.8585 20.8434C69.1456 20.8434 67.9614 19.6027 67.9614 17.8277C67.9614 16.0528 69.1854 14.8336 70.8585 14.8336C71.945 14.8336 72.7888 15.3428 73.5312 16.4436L73.6289 16.587L76.0988 14.6902L76.03 14.5682C75.5157 13.652 74.7569 12.8934 73.8365 12.3754C72.9162 11.8575 71.8696 11.6001 70.8115 11.6315C67.2081 11.6315 64.3906 14.3531 64.3906 17.8277C64.3895 18.6574 64.5557 19.479 64.8795 20.2442C65.2032 21.0094 65.6781 21.703 66.2761 22.2841C66.8742 22.8652 67.5834 23.3223 68.3622 23.6284C69.141 23.9346 69.9737 24.0837 70.8115 24.067C71.8714 24.0939 72.9185 23.8322 73.8386 23.3106C74.7588 22.789 75.5167 22.0274 76.03 21.1087L76.0988 20.9868L73.6326 19.115L73.5312 19.2513Z" fill="white"/>
<path d="M81.1258 5.92773H77.6094V23.785H81.1258V5.92773Z" fill="white"/>
<path d="M105.177 17.8038C105.163 17.0064 105.31 16.2143 105.609 15.4739C105.909 14.7335 106.354 14.0596 106.92 13.4919C107.485 12.9241 108.16 12.4739 108.903 12.1676C109.647 11.8613 110.445 11.705 111.25 11.708C112.203 11.6705 113.148 11.8891 113.985 12.3405C114.822 12.7919 115.52 13.4593 116.005 14.2718V8.79634H115.064L115.462 7.32617H117.559V22.1749H118.5L118.099 23.6415H116.005V21.3573C115.521 22.1704 114.823 22.8382 113.986 23.2897C113.148 23.7412 112.203 23.9594 111.25 23.9212C110.443 23.9247 109.643 23.7681 108.898 23.4607C108.152 23.1532 107.477 22.701 106.911 22.1309C106.345 21.5607 105.9 20.8841 105.602 20.141C105.304 19.3978 105.16 18.6031 105.177 17.8038ZM116.005 17.8038C116.015 17.1971 115.901 16.5947 115.671 16.032C115.442 15.4694 115.101 14.958 114.668 14.5279C114.236 14.0978 113.721 13.7578 113.154 13.5278C112.587 13.2979 111.979 13.1826 111.366 13.1889C110.754 13.1851 110.148 13.302 109.582 13.5329C109.016 13.7637 108.502 14.1039 108.071 14.5336C107.639 14.9632 107.298 15.4737 107.068 16.0352C106.838 16.5967 106.724 17.1979 106.731 17.8038C106.724 18.4097 106.838 19.011 107.068 19.5725C107.298 20.134 107.639 20.6445 108.071 21.0741C108.502 21.5037 109.016 21.8439 109.582 22.0748C110.148 22.3057 110.754 22.4226 111.366 22.4187C111.979 22.425 112.587 22.3098 113.154 22.0798C113.721 21.8499 114.236 21.5098 114.668 21.0797C115.101 20.6497 115.442 20.1382 115.671 19.5756C115.901 19.013 116.015 18.4106 116.005 17.8038Z" fill="white"/>
<path d="M119.914 17.8029C119.914 14.3067 122.431 11.707 126.071 11.707C129.554 11.707 131.908 14.5506 131.908 17.8602C131.908 18.0252 131.887 18.2798 131.861 18.5774H121.529C121.859 21.1412 123.836 22.4214 126.212 22.4214C127.885 22.4214 129.471 21.9337 131.18 20.8149L130.663 22.7261C129.29 23.5141 127.729 23.924 126.143 23.913C122.728 23.9095 119.914 21.6719 119.914 17.8029ZM130.293 17.0857C129.964 14.6832 128.269 13.1916 126.056 13.1916C124.941 13.1482 123.851 13.5266 123.008 14.2498C122.165 14.973 121.631 15.9869 121.515 17.0857H130.293Z" fill="white"/>
<path d="M133.305 22.4433L133.707 20.905C134.778 21.88 136.181 22.4202 137.636 22.4182C139.121 22.4182 140.272 21.8839 140.272 20.6934C140.272 19.5029 139.262 19.0153 137.426 18.481C136.035 18.083 133.634 17.4304 133.634 14.8952C133.634 12.8908 135.517 11.668 137.618 11.668C138.977 11.6637 140.294 12.1349 141.337 12.9983L140.888 14.6048C140.164 13.6725 138.795 13.1704 137.629 13.1704C136.332 13.1704 135.202 13.7764 135.202 14.8952C135.202 16.0857 136.216 16.6451 137.509 17.018C139.439 17.5774 141.855 18.2049 141.855 20.6755C141.855 22.7732 139.856 23.9027 137.759 23.9027C136.147 23.9508 134.57 23.4339 133.305 22.4433Z" fill="white"/>
<path d="M144.133 8.78462H143.191L143.593 7.31445H145.687V23.6298H144.133V8.78462ZM145.687 17.5698L151.289 11.976H153.407L147.805 17.5698L153.643 23.6298H151.571L145.687 17.5698Z" fill="white"/>
<path d="M156.703 13.4781H154.113L154.515 11.9864H156.688V9.17513L158.242 8.70898V11.972H161.501L161.114 13.4781H158.242V23.6402H156.688L156.703 13.4781Z" fill="white"/>
<path d="M161.884 17.804C161.873 16.9975 162.026 16.197 162.334 15.4502C162.642 14.7034 163.098 14.0256 163.676 13.4569C164.253 12.8882 164.941 12.4404 165.697 12.1399C166.453 11.8395 167.262 11.6927 168.076 11.7081C168.889 11.6991 169.695 11.8503 170.448 12.1531C171.201 12.4558 171.886 12.9039 172.462 13.4714C173.038 14.0388 173.494 14.7142 173.804 15.458C174.113 16.2019 174.27 16.9994 174.266 17.804C174.275 18.6098 174.121 19.4092 173.813 20.1551C173.505 20.901 173.049 21.5781 172.472 22.1464C171.895 22.7147 171.208 23.1627 170.453 23.4639C169.698 23.7651 168.89 23.9133 168.076 23.8998C167.261 23.9193 166.45 23.7752 165.692 23.4762C164.934 23.1772 164.245 22.7295 163.667 22.16C163.088 21.5905 162.632 20.9111 162.326 20.1624C162.019 19.4138 161.869 18.6116 161.884 17.804ZM172.712 17.804C172.721 17.1975 172.608 16.5954 172.378 16.033C172.149 15.4707 171.808 14.9594 171.376 14.5294C170.944 14.0993 170.43 13.7592 169.863 13.529C169.296 13.2988 168.689 13.1833 168.076 13.1891C167.464 13.1847 166.857 13.3013 166.291 13.532C165.725 13.7626 165.211 14.1027 164.779 14.5324C164.347 14.9621 164.006 15.4727 163.775 16.0345C163.545 16.5962 163.43 17.1978 163.437 17.804C163.426 18.4113 163.538 19.0146 163.767 19.5781C163.996 20.1416 164.337 20.6538 164.77 21.0843C165.203 21.5148 165.718 21.8547 166.286 22.084C166.854 22.3133 167.463 22.4272 168.076 22.4189C168.689 22.4277 169.298 22.3141 169.866 22.0849C170.433 21.8557 170.949 21.5155 171.381 21.0848C171.813 20.6541 172.152 20.1416 172.38 19.5779C172.607 19.0142 172.718 18.4109 172.705 17.804H172.712Z" fill="white"/>
<path d="M178.171 21.3456V28.2913H176.617V13.4461H175.676L176.078 11.976H178.171V14.2601C178.655 13.4456 179.352 12.776 180.189 12.3227C181.027 11.8693 181.972 11.6491 182.926 11.6855C183.731 11.6825 184.529 11.8388 185.273 12.1451C186.017 12.4514 186.691 12.9016 187.257 13.4694C187.822 14.0371 188.268 14.711 188.567 15.4514C188.866 16.1919 189.013 16.984 188.999 17.7814C189.014 18.5789 188.867 19.3712 188.568 20.1119C188.269 20.8525 187.823 21.5265 187.258 22.0944C186.692 22.6622 186.017 23.1124 185.274 23.4186C184.53 23.7247 183.731 23.8807 182.926 23.8772C181.977 23.9187 181.033 23.7053 180.196 23.2597C179.359 22.814 178.66 22.1527 178.171 21.3456ZM187.445 17.8029C187.453 17.197 187.338 16.5957 187.108 16.0342C186.878 15.4727 186.537 14.9622 186.105 14.5326C185.674 14.1029 185.16 13.7628 184.594 13.5319C184.029 13.301 183.422 13.1841 182.81 13.188C182.197 13.1817 181.589 13.2969 181.022 13.5269C180.455 13.7568 179.94 14.0969 179.508 14.527C179.075 14.957 178.734 15.4685 178.505 16.0311C178.275 16.5937 178.162 17.1961 178.171 17.8029C178.162 18.4096 178.275 19.012 178.505 19.5747C178.734 20.1373 179.075 20.6487 179.508 21.0788C179.94 21.5089 180.455 21.8489 181.022 22.0789C181.589 22.3088 182.197 22.4241 182.81 22.4178C183.422 22.4216 184.029 22.3047 184.594 22.0738C185.16 21.843 185.674 21.5028 186.105 21.0731C186.537 20.6435 186.878 20.133 187.108 19.5715C187.338 19.01 187.453 18.4088 187.445 17.8029Z" fill="white"/>
<path d="M28.8068 7.66379L14.9764 0.00811967C14.9664 0.00278415 14.9552 0 14.9438 0C14.9325 0 14.9213 0.00278415 14.9112 0.00811967L1.02298 7.55979C1.01245 7.56574 1.00368 7.57437 0.997587 7.58476C0.991494 7.59515 0.988281 7.60695 0.988281 7.61897C0.988281 7.63098 0.991494 7.64276 0.997587 7.65315C1.00368 7.66354 1.01245 7.67217 1.02298 7.67812L13.8647 14.7421C13.8747 14.7475 13.8859 14.7502 13.8972 14.7502C13.9086 14.7502 13.9198 14.7475 13.9298 14.7421C14.2323 14.5682 14.5759 14.4766 14.9257 14.4768C15.3109 14.4734 15.6886 14.5818 16.0122 14.7887C16.022 14.7948 16.0332 14.798 16.0448 14.798C16.0563 14.798 16.0676 14.7948 16.0774 14.7887L28.8213 7.7821C28.8312 7.77497 28.839 7.76535 28.844 7.7542C28.8489 7.74305 28.8507 7.7308 28.8492 7.71872C28.8477 7.70665 28.843 7.69518 28.8356 7.68552C28.8281 7.67586 28.8181 7.66836 28.8068 7.66379Z" fill="#FFD91B"/>
<path d="M16.8991 16.3771C16.9007 16.3938 16.9007 16.4106 16.8991 16.4273C16.9005 16.7755 16.8084 17.1177 16.6321 17.419C16.4558 17.7202 16.2017 17.9695 15.8959 18.1413C15.8858 18.1462 15.8773 18.1539 15.8715 18.1634C15.8658 18.173 15.8629 18.184 15.8633 18.1951V32.8969C15.8638 32.9084 15.8672 32.9197 15.8732 32.9296C15.8793 32.9395 15.8878 32.9477 15.898 32.9534C15.9081 32.9592 15.9195 32.9622 15.9312 32.9624C15.9429 32.9625 15.9544 32.9597 15.9647 32.9542L29.8132 25.3488C29.8233 25.3421 29.8316 25.3331 29.8373 25.3224C29.843 25.3118 29.8459 25.2999 29.8458 25.2878V9.3705C29.8467 9.35875 29.8444 9.34696 29.8391 9.33642C29.8337 9.32588 29.8256 9.31699 29.8155 9.31071C29.8054 9.30442 29.7938 9.30099 29.7819 9.30079C29.77 9.30059 29.7583 9.30361 29.748 9.30955L16.8991 16.3771Z" fill="#2500FF"/>
<path d="M14.1019 18.2435V32.9452C14.1022 32.9567 14.0994 32.968 14.0938 32.9781C14.0882 32.9881 14.08 32.9964 14.07 33.0023C14.06 33.0081 14.0487 33.0112 14.0371 33.0113C14.0256 33.0113 14.0142 33.0084 14.0042 33.0026L0.0362278 25.3111C0.0256119 25.3047 0.0167474 25.2957 0.0104329 25.2851C0.00411842 25.2745 0.000533987 25.2625 0 25.2502V9.28623C0.000446315 9.27467 0.00386768 9.26341 0.00992451 9.25352C0.0159813 9.24362 0.0244691 9.23542 0.0346142 9.22968C0.0447594 9.22394 0.0562184 9.22085 0.0679022 9.22071C0.079586 9.22056 0.0911252 9.22338 0.101411 9.22887L12.9612 16.3C12.9612 16.3466 12.9612 16.3933 12.9612 16.4399C12.9611 16.807 13.0653 17.1668 13.2619 17.4782C13.4585 17.7895 13.7396 18.0398 14.073 18.2005C14.0805 18.2053 14.087 18.2116 14.092 18.219C14.097 18.2264 14.1004 18.2348 14.1019 18.2435Z" fill="#FF006A"/>
<path d="M28.8068 7.66379L14.9764 0.00811967C14.9664 0.00278415 14.9552 0 14.9438 0C14.9325 0 14.9213 0.00278415 14.9112 0.00811967L1.02298 7.55979C1.01245 7.56574 1.00368 7.57437 0.997587 7.58476C0.991494 7.59515 0.988281 7.60695 0.988281 7.61897C0.988281 7.63098 0.991494 7.64276 0.997587 7.65315C1.00368 7.66354 1.01245 7.67217 1.02298 7.67812L13.8647 14.7421C13.8747 14.7475 13.8859 14.7502 13.8972 14.7502C13.9086 14.7502 13.9198 14.7475 13.9298 14.7421C14.2323 14.5682 14.5759 14.4766 14.9257 14.4768C15.3109 14.4734 15.6886 14.5818 16.0122 14.7887C16.022 14.7948 16.0332 14.798 16.0448 14.798C16.0563 14.798 16.0676 14.7948 16.0774 14.7887L28.8213 7.7821C28.8312 7.77497 28.839 7.76535 28.844 7.7542C28.8489 7.74305 28.8507 7.7308 28.8492 7.71872C28.8477 7.70665 28.843 7.69518 28.8356 7.68552C28.8281 7.67586 28.8181 7.66836 28.8068 7.66379Z" fill="#FFD91B"/>
<path d="M16.8991 16.3771C16.9007 16.3938 16.9007 16.4106 16.8991 16.4273C16.9005 16.7755 16.8084 17.1177 16.6321 17.419C16.4558 17.7202 16.2017 17.9695 15.8959 18.1413C15.8858 18.1462 15.8773 18.1539 15.8715 18.1634C15.8658 18.173 15.8629 18.184 15.8633 18.1951V32.8969C15.8638 32.9084 15.8672 32.9197 15.8732 32.9296C15.8793 32.9395 15.8878 32.9477 15.898 32.9534C15.9081 32.9592 15.9195 32.9622 15.9312 32.9624C15.9429 32.9625 15.9544 32.9597 15.9647 32.9542L29.8132 25.3488C29.8233 25.3421 29.8316 25.3331 29.8373 25.3224C29.843 25.3118 29.8459 25.2999 29.8458 25.2878V9.3705C29.8467 9.35875 29.8444 9.34696 29.8391 9.33642C29.8337 9.32588 29.8256 9.31699 29.8155 9.31071C29.8054 9.30442 29.7938 9.30099 29.7819 9.30079C29.77 9.30059 29.7583 9.30361 29.748 9.30955L16.8991 16.3771Z" fill="#2500FF"/>
<path d="M14.1019 18.2435V32.9452C14.1022 32.9567 14.0994 32.968 14.0938 32.9781C14.0882 32.9881 14.08 32.9964 14.07 33.0023C14.06 33.0081 14.0487 33.0112 14.0371 33.0113C14.0256 33.0113 14.0142 33.0084 14.0042 33.0026L0.0362278 25.3111C0.0256119 25.3047 0.0167474 25.2957 0.0104329 25.2851C0.00411842 25.2745 0.000533987 25.2625 0 25.2502V9.28623C0.000446315 9.27467 0.00386768 9.26341 0.00992451 9.25352C0.0159813 9.24362 0.0244691 9.23542 0.0346142 9.22968C0.0447594 9.22394 0.0562184 9.22085 0.0679022 9.22071C0.079586 9.22056 0.0911252 9.22338 0.101411 9.22887L12.9612 16.3C12.9612 16.3466 12.9612 16.3933 12.9612 16.4399C12.9611 16.807 13.0653 17.1668 13.2619 17.4782C13.4585 17.7895 13.7396 18.0398 14.073 18.2005C14.0805 18.2053 14.087 18.2116 14.092 18.219C14.097 18.2264 14.1004 18.2348 14.1019 18.2435Z" fill="#FF006A"/>
</svg>
