<svg width="27" height="25" viewBox="0 0 27 25" fill="none" xmlns="http://www.w3.org/2000/svg">
<g clip-path="url(#clip0_3938_666)">
<path d="M27 13.5819C27 13.5819 27 13.5455 27 13.5273V13.4728C27 13.4728 27 13.4182 26.982 13.4001C26.982 13.4001 26.9641 13.3637 26.9461 13.3455L26.9102 13.291L26.8743 13.2364C26.8743 13.2364 26.8383 13.2001 26.8204 13.2001H26.7665V13.1637L20.5329 11.0728V2.63642C20.5329 2.63642 20.5329 2.60006 20.5329 2.56369V2.50915C20.5329 2.50915 20.5329 2.4546 20.515 2.43642C20.515 2.43642 20.497 2.40006 20.479 2.38188L20.4431 2.32733L20.4072 2.27278C20.4072 2.27278 20.3713 2.23642 20.3533 2.23642H20.2994V2.20006L13.6347 0.0182395C13.5449 -0.0181241 13.4551 -0.0181241 13.3653 0.0182395L6.82635 2.21824H6.77246V2.2546C6.77246 2.2546 6.71856 2.27278 6.7006 2.29097L6.66467 2.32733L6.62874 2.38188C6.62874 2.38188 6.61078 2.43642 6.59281 2.4546C6.59281 2.4546 6.59281 2.49097 6.57485 2.50915V2.56369C6.57485 2.56369 6.57485 2.61824 6.57485 2.63642V11.0728L0.305389 13.1637H0.251497V13.2001C0.251497 13.2001 0.197605 13.2182 0.179641 13.2364L0.143713 13.2728L0.107784 13.3273C0.107784 13.3273 0.0898204 13.3819 0.0718563 13.4001C0.0718563 13.4001 0.0718563 13.4364 0.0538922 13.4546V13.5091H0C0 13.5091 0 13.5637 0 13.5819V22.3273C0 22.5273 0.125749 22.691 0.305389 22.7455L6.84431 24.9819H6.91617C6.91617 24.9819 6.9521 25.0001 6.98802 25.0001C6.98802 25.0001 7.02395 25.0001 7.05988 25.0001H7.13174L13.5269 22.8001L19.9222 24.9819H19.994C19.994 24.9819 20.0299 25.0001 20.0659 25.0001C20.0659 25.0001 20.1018 25.0001 20.1377 25.0001H20.2096L26.7485 22.7455C26.9281 22.691 27.0539 22.5091 27.0539 22.3273V13.5819H27ZM20.0299 11.8546L25.1677 13.5819L20.0299 15.3455L14.9102 13.6001L16.9042 12.9091L20.0299 11.8546ZM19.5808 11.0364L16.6168 12.0546L13.9401 12.9455V5.20006L19.5808 3.27278V11.0546V11.0364ZM13.0419 5.18188V12.9637L10.3653 12.0728L7.4012 11.0546V3.2546L13.0419 5.18188ZM6.9521 11.8546L10.0778 12.9091L12.0719 13.6001L6.9521 15.3455L1.81437 13.5819L6.9521 11.8546ZM13.509 0.909149L18.6467 2.63642L13.509 4.40006L8.37126 2.63642L13.509 0.909149ZM0.88024 14.2001L6.52096 16.1273V23.9273L0.88024 22.0001V14.2001ZM7.41916 16.1273L13.0599 14.2001V22.0001L7.41916 23.9273V16.1273ZM13.9581 14.2001L19.5988 16.1273V23.9273L13.9581 22.0001V14.2001ZM20.497 23.9273V16.1273L26.1377 14.2001V22.0001L20.497 23.9273Z" fill="white"/>
</g>
<defs>
<clipPath id="clip0_3938_666">
<rect width="27" height="25" fill="white"/>
</clipPath>
</defs>
</svg>
