<svg width="22" height="26" viewBox="0 0 22 26" xmlns="http://www.w3.org/2000/svg">
<path fill-rule="evenodd" d="M19.01 2.56601H14.9921C14.8089 2.32247 14.5693 2.12431 14.2928 1.98757C14.0163 1.85083 13.7106 1.77933 13.4004 1.77886H12.3735C12.2358 1.54241 12.0361 1.34574 11.7948 1.20892C11.5535 1.07209 11.2793 1 11 1C10.7207 1 10.4465 1.07209 10.2052 1.20892C9.96391 1.34574 9.76422 1.54241 9.6265 1.77886H8.58674C8.27857 1.7803 7.97507 1.8523 7.70079 1.98904C7.4265 2.12579 7.18913 2.32344 7.00785 2.56601H2.97719C2.45291 2.56601 1.9501 2.76873 1.57937 3.12958C1.20865 3.49043 1.00037 3.97984 1.00037 4.49015V23.2059C0.995269 23.4623 1.04254 23.7172 1.13944 23.9556C1.23633 24.1941 1.38093 24.4115 1.56484 24.5952C1.74874 24.7788 1.96829 24.9251 2.21074 25.0255C2.45319 25.1259 2.71372 25.1784 2.97719 25.18H19.01C19.2745 25.1801 19.5364 25.1288 19.7804 25.0291C20.0243 24.9294 20.2454 24.7834 20.4307 24.5996C20.6159 24.4158 20.7617 24.1978 20.8594 23.9585C20.9571 23.7192 21.0047 23.4634 20.9996 23.2059V4.49015C20.9996 4.23642 20.9481 3.98519 20.8479 3.75092C20.7478 3.51665 20.601 3.30398 20.4161 3.12514C20.2312 2.94631 20.0117 2.80484 19.7704 2.70888C19.5291 2.61292 19.2706 2.56437 19.01 2.56601ZM7.36727 3.70301C7.38283 3.39309 7.51631 3.0999 7.74172 2.8805C7.96712 2.6611 8.26834 2.53118 8.58674 2.51604H9.87039C9.94896 2.5136 10.025 2.48856 10.089 2.44409C10.153 2.39961 10.202 2.3377 10.2298 2.26615C10.2821 2.10728 10.3848 1.96868 10.5232 1.87034C10.6617 1.772 10.8286 1.71901 11 1.71901C11.1714 1.71901 11.3383 1.772 11.4768 1.87034C11.6152 1.96868 11.7179 2.10728 11.7702 2.26615C11.7948 2.33969 11.843 2.40362 11.9077 2.44858C11.9724 2.49355 12.0501 2.51719 12.1296 2.51604H13.4133C13.7537 2.51604 14.0802 2.64767 14.3209 2.88199C14.5617 3.1163 14.6969 3.4341 14.6969 3.76548V5.01492H7.36727V3.70301ZM20.2423 23.2059C20.2423 23.5373 20.107 23.8551 19.8663 24.0894C19.6256 24.3237 19.2991 24.4553 18.9586 24.4553H2.97719C2.63675 24.4553 2.31025 24.3237 2.06952 24.0894C1.82879 23.8551 1.69354 23.5373 1.69354 23.2059V4.49015C1.69354 4.15878 1.82879 3.84098 2.06952 3.60667C2.31025 3.37235 2.63675 3.24071 2.97719 3.24071H6.66127C6.64872 3.37788 6.64872 3.51586 6.66127 3.65303V5.21483C6.66127 5.31424 6.70184 5.40958 6.77406 5.47988C6.84628 5.55017 6.94423 5.58966 7.04636 5.58966H15.0563C15.1562 5.58642 15.2509 5.5455 15.3204 5.47556C15.3898 5.40561 15.4286 5.31212 15.4286 5.21483V3.70301C15.4413 3.56584 15.4413 3.42785 15.4286 3.29069H19.0998C19.4403 3.29069 19.7668 3.42233 20.0075 3.65664C20.2482 3.89096 20.3835 4.20876 20.3835 4.54013L20.2423 23.2059Z" stroke-width="0.2" stroke-miterlimit="10"/>
<path fill-rule="evenodd" d="M18.6639 4.54021H16.5844C16.5147 4.5668 16.4549 4.6132 16.4127 4.67338C16.3705 4.73356 16.348 4.80472 16.348 4.87756C16.348 4.95041 16.3705 5.02156 16.4127 5.08174C16.4549 5.14192 16.5147 5.18833 16.5844 5.21491H18.2531V17.8084H14.6075C14.4525 17.8084 14.2989 17.8381 14.1556 17.8959C14.0123 17.9537 13.8821 18.0383 13.7725 18.1451C13.6628 18.2518 13.5758 18.3785 13.5165 18.518C13.4571 18.6575 13.4266 18.8069 13.4266 18.9579V22.4938H3.74787V5.21491H5.39094C5.48967 5.21491 5.58436 5.17674 5.65417 5.10878C5.72398 5.04083 5.7632 4.94867 5.7632 4.85257C5.7632 4.75647 5.72398 4.66431 5.65417 4.59636C5.58436 4.52841 5.48967 4.49023 5.39094 4.49023H3.3371C3.23837 4.49023 3.14369 4.52841 3.07388 4.59636C3.00406 4.66431 2.96484 4.75647 2.96484 4.85257V22.8436C2.96484 22.9397 3.00406 23.0319 3.07388 23.0999C3.14369 23.1678 3.23837 23.206 3.3371 23.206H14.0171L18.8693 18.5206V4.90255C18.8771 4.82897 18.8617 4.75481 18.8249 4.69003C18.7882 4.62526 18.732 4.57298 18.6639 4.54021ZM14.1839 21.9565V18.9579C14.1839 18.8485 14.2286 18.7437 14.308 18.6663C14.3875 18.589 14.4952 18.5456 14.6075 18.5456H17.7525L14.1839 21.9565Z" stroke-width="0.2" stroke-miterlimit="10"/>
</svg>
