<svg xmlns="http://www.w3.org/2000/svg" width="20" height="20" viewBox="0 0 20 20" fill="#000" version="1.1">
  <path d="m 7.84979,12.015 h 1.305 V 9.18 H 11.8398 V 7.92 H 9.15479 V 5.085 h -1.305 V 7.92 h -2.685 v 1.26 h 2.685 z"/>
  <path fill-rule="evenodd" clip-rule="evenodd" d="m 3.5,17.5 v 1 c 0,0.5523 0.44772,1 1,1 h 14 c 0.5523,0 1,-0.4477 1,-1 v -14 c 0,-0.5523 -0.4477,-1 -1,-1 h -1 v 1 h 1 v 14 h -14 v -1 z" />
  <path fill-rule="evenodd" clip-rule="evenodd" d="M 1.4583814,0.45876346 C 0.89137113,0.45876346 0.479,0.93776289 0.479,1.479 v 14 c 0,0.5523 0.44810115,1.000382 1.0003812,1.000382 H 15.479381 c 0.5523,0 1,-0.4477 1,-1 V 1.4793815 c 0,-0.55230001 -0.4477,-1.00000001 -1,-1.00000001 M 1.479,1.479 l 14,3.815e-4 3.81e-4,14.0000005 H 1.4793812 z" />
</svg>
