<svg width="30" height="30" viewBox="0 0 30 30" fill="none" xmlns="http://www.w3.org/2000/svg">
  <g clip-path="url(#clip0)">
  <path d="M14.9941 30C23.2728 30 30 23.2728 30 14.9941C30 6.71536 23.2728 -0.0118433 14.9941 -0.011844C6.71536 -0.0118448 -0.0118407 6.71536 -0.0118414 14.9941C-0.0118421 23.2728 6.7272 30 14.9941 30ZM14.9941 1.18436C22.6214 1.18437 28.8156 7.3786 28.8156 14.9941C28.8156 22.6096 22.6214 28.8156 14.9941 28.8156C7.36676 28.8156 1.17252 22.6214 1.17252 14.9941C1.17253 7.36676 7.37861 1.18436 14.9941 1.18436Z" fill="#221F20"/>
  <path d="M16.6522 20.5488C16.9009 20.7619 17.268 20.7383 17.4931 20.4895C17.7062 20.2408 17.6826 19.8737 17.4338 19.6486L12.1042 14.9822L17.4338 10.2211C17.6826 10.0079 17.6944 9.6289 17.4812 9.38018C17.3628 9.2499 17.197 9.17884 17.043 9.17884C16.9009 9.17884 16.7588 9.22621 16.6522 9.33281L10.8251 14.5322C10.6948 14.6506 10.6237 14.8046 10.6237 14.9822C10.6237 15.148 10.6948 15.3139 10.8251 15.4205L16.6522 20.5488Z" fill="#221F20"/>
  </g>
  <defs>
  <clipPath id="clip0">
  <rect width="30" height="30" fill="white" transform="translate(30 30) rotate(-180)"/>
  </clipPath>
  </defs>
  </svg>
