<svg width="32" height="32" viewBox="0 0 32 32" fill="none" xmlns="http://www.w3.org/2000/svg">
<path d="M16 31.25C24.4135 31.25 31.25 24.4135 31.25 16C31.25 7.58648 24.4135 0.750001 16 0.750001C7.58648 0.75 0.750004 7.58647 0.750003 16C0.750002 24.4137 7.59844 31.25 16 31.25ZM16 2.44574C23.4864 2.44574 29.5661 8.52574 29.5661 16C29.5661 23.4745 23.4861 29.5661 16 29.5661C8.51376 29.5661 2.4339 23.4862 2.4339 16C2.4339 8.51418 8.52519 2.44574 16 2.44574Z" fill="white" stroke="white" stroke-width="0.5"/>
<path d="M17.4924 21.7402L17.4924 21.7403L17.4949 21.7424C17.8481 22.0452 18.3693 22.0084 18.6835 21.6611L18.6836 21.6612L18.6879 21.6561C18.9908 21.3028 18.9539 20.7816 18.6067 20.4674L18.6067 20.4674L18.6036 20.4647L13.4887 15.9864L18.6037 11.417C18.9651 11.1052 18.9697 10.5682 18.6761 10.2257L18.6762 10.2256L18.6713 10.2202C18.5073 10.0398 18.2752 9.93714 18.0482 9.93714C17.8539 9.93714 17.6467 10.0016 17.4863 10.1588L11.6663 15.3518L11.6663 15.3518L11.6646 15.3534C11.4842 15.5174 11.3815 15.7376 11.3815 15.9882C11.3815 16.2203 11.4796 16.4583 11.6707 16.6166L17.4924 21.7402Z" fill="white" stroke="white" stroke-width="0.5"/>
</svg>
