<svg xmlns="http://www.w3.org/2000/svg" width="24" height="24" viewBox="0 0 24 24">
  <path d="M17,5 L18.5,5 C19.3284271,5 20,5.67157288 20,6.5 L20,18.5 C20,19.3284271 19.3284271,20 18.5,20 L5.5,20 C4.67157288,20 4,19.3284271 4,18.5 L4,6.5 C4,5.67157288 4.67157288,5 5.5,5 L7,5 L7,4 C7,3.44771525 7.44771525,3 8,3 C8.55228475,3 9,3.44771525 9,4 L9,5 L15,5 L15,4 C15,3.44771525 15.4477153,3 16,3 C16.5522847,3 17,3.44771525 17,4 L17,5 Z M18,9 L18,7 L6,7 L6,9 L18,9 Z M18,11 L6,11 L6,18 L18,18 L18,11 Z"/>
</svg>
