<?xml version="1.0" encoding="utf-8"?>
<!-- Generator: Adobe Illustrator 24.1.0, SVG Export Plug-In . SVG Version: 6.00 Build 0)  -->
<svg version="1.1" id="Capa_1" xmlns="http://www.w3.org/2000/svg" xmlns:xlink="http://www.w3.org/1999/xlink" x="0px" y="0px"
	 viewBox="0 0 25.3 25.3" style="enable-background:new 0 0 25.3 25.3;" xml:space="preserve">
<style type="text/css">
	.st0{display:none;}
	.st1{fill:#E81C66;}
</style>
<g id="Capa_3" class="st0">
</g>
<g id="Capa_1_1_">
</g>
<g id="guies">
	<g>
		<path class="st1" d="M13.1,19c0.1,0.2,0.4,0.4,0.6,0.4c0.1,0,0.2,0,0.2,0c0.3-0.1,0.5-0.5,0.4-0.9c-1.1-2.5-3.6-4.1-6.4-4.1
			c-2.8,0-5.4,1.7-6.4,4.1c-0.1,0.3,0,0.7,0.4,0.9c0.3,0.1,0.7,0,0.9-0.4c0.8-2,3-3.3,5.2-3.3C10.2,15.7,12.3,17,13.1,19z"/>
		<path class="st1" d="M7.9,7.2c-1.9,0-3.4,1.5-3.4,3.4s1.5,3.4,3.4,3.4s3.4-1.5,3.4-3.4S9.8,7.2,7.9,7.2z M7.9,12.8
			c-1.2,0-2.1-1-2.1-2.1s0.9-2.1,2.1-2.1S10,9.5,10,10.6S9,12.8,7.9,12.8z"/>
		<path class="st1" d="M18.1,8.6c1.9,0,3.4-1.5,3.4-3.4S20,1.8,18.1,1.8s-3.4,1.5-3.4,3.4S16.2,8.6,18.1,8.6z M18.1,3.1
			c1.2,0,2.1,1,2.1,2.1s-1,2.1-2.1,2.1S16,6.4,16,5.2S16.9,3.1,18.1,3.1z"/>
		<path class="st1" d="M24.6,13.1C23.5,10.6,21,9,18.1,9c-2.8,0-5.4,1.7-6.5,4.1c-0.1,0.3,0,0.7,0.4,0.9s0.7,0,0.9-0.4
			c0.8-2,2.9-3.3,5.2-3.3s4.4,1.3,5.2,3.3c0.1,0.2,0.4,0.4,0.6,0.4c0.1,0,0.2,0,0.2-0.1C24.5,13.8,24.7,13.4,24.6,13.1z"/>
		<path class="st1" d="M22.1,14.1c-0.4-0.1-0.7,0.2-0.8,0.5c-0.9,4.6-4.9,7.9-9.6,7.9c-0.7,0-1.4-0.1-2-0.2l0.9-0.6
			c0.3-0.2,0.4-0.6,0.1-0.9c-0.2-0.3-0.6-0.4-0.9-0.1l-2.5,1.9L9.1,25c0.1,0.2,0.3,0.3,0.5,0.3c0.1,0,0.3,0,0.4-0.1
			c0.3-0.2,0.4-0.6,0.1-0.9l-0.5-0.6c0.7,0.1,1.4,0.2,2.1,0.2c5.3,0,9.9-3.8,10.8-9C22.7,14.5,22.4,14.2,22.1,14.1z"/>
		<path class="st1" d="M2,12.8c0-5.1,4-9.3,9.1-9.7l-0.7,0.6c-0.2,0.2-0.2,0.7,0,0.9c0.1,0.1,0.3,0.2,0.5,0.2s0.3-0.1,0.5-0.2
			l2.2-2.2l-2.2-2.2c-0.2-0.2-0.7-0.2-0.9,0s-0.2,0.7,0,0.9l0.7,0.7C5.4,2.1,0.7,6.9,0.7,12.8c0,0.4,0.3,0.6,0.6,0.6S2,13.2,2,12.8z
			"/>
	</g>
</g>
</svg>
