<svg width="30" height="30" viewBox="0 0 30 30" fill="none" xmlns="http://www.w3.org/2000/svg">
  <path d="M15 0C6.72455 0 0 6.72456 0 15C0 23.2755 6.72455 30 15 30C23.2755 30 30 23.2755 30 15C30 6.72456 23.2636 0 15 0ZM15 28.8043C7.37569 28.8043 1.1839 22.6125 1.1839 15C1.1839 7.38754 7.37569 1.1839 15 1.1839C22.6243 1.1839 28.8161 7.3757 28.8161 15C28.8161 22.6243 22.6125 28.8043 15 28.8043Z" fill="#221F20"/>
  <path d="M21.7124 8.28745C21.4756 8.05067 21.1086 8.05067 20.8718 8.28745L14.9997 14.1596L9.11569 8.28745C8.89075 8.05067 8.5119 8.05067 8.28696 8.28745C8.06202 8.52423 8.05018 8.89123 8.28696 9.11617L14.1591 14.9883L8.28696 20.8722C8.05018 21.109 8.05018 21.476 8.28696 21.7128C8.40535 21.8312 8.55926 21.8904 8.70132 21.8904C8.84339 21.8904 9.00914 21.8312 9.11569 21.7128L14.9878 15.8407L20.86 21.7128C20.9783 21.8312 21.1322 21.8904 21.2743 21.8904C21.4164 21.8904 21.5821 21.8312 21.6887 21.7128C21.9255 21.476 21.9255 21.109 21.6887 20.8722L15.8165 15.0001L21.6887 9.12801C21.9373 8.89123 21.9373 8.51239 21.7124 8.28745Z" fill="#221F20"/>
  </svg>
