<svg width="32" height="32" viewBox="0 0 32 32" fill="none" xmlns="http://www.w3.org/2000/svg">
<path d="M16 0.75C7.58647 0.75 0.75 7.58648 0.75 16C0.75 24.4136 7.58647 31.25 16 31.25C24.4135 31.25 31.25 24.4136 31.25 16C31.25 7.58636 24.4016 0.75 16 0.75ZM16 29.5543C8.51362 29.5543 2.4339 23.4743 2.4339 16C2.4339 8.52547 8.5139 2.4339 16 2.4339C23.4862 2.4339 29.5661 8.51377 29.5661 16C29.5661 23.4858 23.4748 29.5543 16 29.5543Z" fill="white" stroke="white" stroke-width="0.5"/>
<path d="M22.8891 9.11067L22.8891 9.11067C22.5547 8.77626 22.0294 8.77626 21.695 9.11067L15.9995 14.8062L10.2944 9.11264C9.97064 8.77473 9.42838 8.77561 9.10571 9.11526C8.79816 9.439 8.76612 9.96352 9.11225 10.295L14.8057 15.9885L9.11018 21.6955C8.77577 22.0299 8.77577 22.5552 9.11018 22.8896H9.11018C9.27492 23.0543 9.4922 23.1404 9.70132 23.1404C9.90035 23.1404 10.1354 23.061 10.2966 22.8854L15.9878 17.1942L21.6832 22.8896C21.8479 23.0543 22.0652 23.1404 22.2743 23.1404C22.4735 23.1404 22.7087 23.0609 22.87 22.885C23.1999 22.5504 23.1984 22.0284 22.8655 21.6955L17.1701 16.0001L22.8635 10.3068C23.209 9.97531 23.2151 9.43661 22.8891 9.11067Z" fill="white" stroke="white" stroke-width="0.5"/>
</svg>
