<svg xmlns="http://www.w3.org/2000/svg" width="14" height="14" viewBox="0 0 14 14" version="1.1">
  <path d="m 7,5.585786 5.292893,-5.2928928 c 0.390524,-0.3905243 1.023689,-0.3905243 1.414214,0 0.390524,0.3905243 0.390524,1.0236893 0,1.4142136 L 8.414214,7 l 5.292893,5.292893 c 0.390524,0.390524 0.390524,1.023689 0,1.414214 -0.390525,0.390524 -1.02369,0.390524 -1.414214,0 L 7,8.414214 1.7071068,13.707107 c -0.3905243,0.390524 -1.0236893,0.390524 -1.4142136,0 -0.3905243,-0.390525 -0.3905243,-1.02369 0,-1.414214 L 5.585786,7 0.2928932,1.7071068 c -0.3905243,-0.3905243 -0.3905243,-1.0236893 0,-1.4142136 0.3905243,-0.3905243 1.0236893,-0.3905243 1.4142136,0 z" />
</svg>