<svg xmlns="http://www.w3.org/2000/svg" width="21" height="19" viewBox="0 0 21 19" fill="none" version="1.1">
  <path d="m 8.7981232,1.3999975 c 0.7698998,-1.33333 2.6943998,-1.33333 3.4641998,0 l 8.2272,14.2499995 c 0.7698,1.3333 -0.1925,3 -1.7321,3 H 2.3029829 c -1.5396001,0 -2.50185002,-1.6667 -1.73205007,-3 z" fill="#f91919" />
  <path d="m 9.566423,13.249498 -0.3149998,-4.5900008 -0.075,-1.9950497 h 2.2199998 l -0.075,1.9950497 -0.315,4.5900008 z m 0.72,3.644999 c -0.38,0 -0.7,-0.13 -0.96,-0.39 -0.2499998,-0.27 -0.3749998,-0.6 -0.3749998,-0.99 0,-0.399999 0.125,-0.73 0.3749998,-0.989999 0.26,-0.27 0.58,-0.405001 0.96,-0.405001 0.38,0 0.695,0.135001 0.945,0.405001 0.26,0.259999 0.39,0.59 0.39,0.989999 0,0.39 -0.13,0.72 -0.39,0.99 -0.25,0.26 -0.565,0.39 -0.945,0.39 z" fill="#ffffff" />
</svg>