<svg width="24" height="24" viewBox="0 0 24 24" fill="none" xmlns="http://www.w3.org/2000/svg">
<path d="M22.7082 1.27777C22.3009 0.87115 21.8171 0.548936 21.2847 0.329653C20.7522 0.110371 20.1816 -0.00165467 19.6056 1.84684e-05H4.39442C3.22896 1.84684e-05 2.11124 0.462297 1.28714 1.28516C0.463041 2.10802 6.6246e-05 3.22406 6.6246e-05 4.38776V19.5761C-0.00311225 20.1549 0.108117 20.7286 0.327383 21.2644C0.546648 21.8003 0.869639 22.2876 1.27785 22.6986C1.68606 23.1095 2.17147 23.436 2.70627 23.6593C3.24107 23.8827 3.81474 23.9984 4.39442 24H19.6056C20.7701 23.9968 21.886 23.5335 22.7094 22.7113C23.5328 21.8892 23.9968 20.775 24 19.6123V4.38776C24.001 3.80989 23.8874 3.23753 23.6657 2.70374C23.444 2.16996 23.1186 1.6853 22.7082 1.27777ZM22.8652 19.5761C22.8668 20.0023 22.7834 20.4245 22.6197 20.8181C22.456 21.2117 22.2154 21.5688 21.9119 21.8684C21.6084 22.1681 21.2482 22.4043 20.8522 22.5634C20.4562 22.7224 20.0324 22.801 19.6056 22.7946H4.39442C3.96765 22.801 3.54388 22.7224 3.14788 22.5634C2.75189 22.4043 2.39161 22.1681 2.08812 21.8684C1.78463 21.5688 1.54402 21.2117 1.38034 20.8181C1.21667 20.4245 1.13322 20.0023 1.13487 19.5761V4.38776C1.13482 3.9626 1.21946 3.54167 1.38385 3.14947C1.54824 2.75728 1.78911 2.40164 2.09244 2.10326C2.39576 1.80487 2.75549 1.5697 3.15069 1.41143C3.54589 1.25316 3.96866 1.17494 4.39442 1.18133H19.6056C20.0314 1.17494 20.4542 1.25316 20.8494 1.41143C21.2446 1.5697 21.6043 1.80487 21.9076 2.10326C22.211 2.40164 22.4518 2.75728 22.6162 3.14947C22.7806 3.54167 22.8652 3.9626 22.8652 4.38776V19.5761Z"/>
<path d="M11.5775 16.5624C11.6931 16.6674 11.8437 16.7256 12 16.7256C12.1563 16.7256 12.307 16.6674 12.4226 16.5624L16.1771 12.8015C16.2712 12.6882 16.3197 12.5439 16.3128 12.3969C16.306 12.2498 16.2445 12.1106 16.1402 12.0065C16.036 11.9024 15.8965 11.841 15.7493 11.8342C15.602 11.8273 15.4575 11.8757 15.3441 11.9697L12.5916 14.7181V4.71306C12.5916 4.55321 12.528 4.39991 12.4148 4.28688C12.3016 4.17385 12.148 4.11035 11.9879 4.11035C11.8279 4.11035 11.6743 4.17385 11.5611 4.28688C11.4479 4.39991 11.3843 4.55321 11.3843 4.71306V14.7181L8.65596 11.9456C8.60118 11.8888 8.53557 11.8436 8.46301 11.8125C8.39044 11.7815 8.31238 11.7653 8.23343 11.7648C8.15618 11.7648 8.07977 11.7808 8.0091 11.812C7.93842 11.8431 7.87503 11.8886 7.82297 11.9456C7.71312 12.0562 7.65149 12.2057 7.65149 12.3615C7.65149 12.5173 7.71312 12.6667 7.82297 12.7773L11.5775 16.5624Z"/>
<path d="M18.845 18.2261H5.15489C4.9948 18.2261 4.84127 18.2896 4.72807 18.4026C4.61487 18.5156 4.55127 18.6689 4.55127 18.8288C4.55127 18.9886 4.61487 19.1419 4.72807 19.255C4.84127 19.368 4.9948 19.4315 5.15489 19.4315H18.845C19.0051 19.4315 19.1586 19.368 19.2718 19.255C19.385 19.1419 19.4486 18.9886 19.4486 18.8288C19.4486 18.6689 19.385 18.5156 19.2718 18.4026C19.1586 18.2896 19.0051 18.2261 18.845 18.2261Z"/>
</svg>
