<svg width="18" height="17" viewBox="0 0 18 17" fill="#000" xmlns="http://www.w3.org/2000/svg">
<path d="M17.3893 2.13979L16.0463 0.704021C15.6296 0.27424 15.0627 0.0224606 14.4646 0.00143139C13.8664 -0.0195978 13.2833 0.191755 12.8375 0.591211L2.49324 10.2724C2.44636 10.3239 2.40826 10.3828 2.38047 10.4467L0.0225246 16.4154C-0.0029907 16.4912 -0.00691479 16.5726 0.0111917 16.6505C0.0292982 16.7284 0.0687204 16.7997 0.125044 16.8564C0.164661 16.9017 0.213535 16.938 0.268363 16.9627C0.323191 16.9875 0.382695 17.0002 0.442854 17H0.565877L6.71704 15.1438C6.78002 15.1233 6.83899 15.092 6.89132 15.0515L17.2765 5.3395C17.4949 5.13737 17.6711 4.89402 17.795 4.62347C17.9189 4.35293 17.9881 4.06053 17.9986 3.76312C18.0091 3.46572 17.9606 3.16917 17.8561 2.89057C17.7515 2.61196 17.5929 2.35681 17.3893 2.13979ZM3.0366 11.4723L5.80462 14.4361L1.13999 15.9129L3.0366 11.4723ZM16.6512 4.68315L6.63503 14.0567L3.44667 10.6211L13.4526 1.24756C13.7197 1.02297 14.0609 0.905899 14.4096 0.91917C14.7583 0.932441 15.0896 1.0751 15.3389 1.31935L16.6819 2.75512C16.9308 3.0162 17.0671 3.36472 17.0613 3.72544C17.0556 4.08616 16.9083 4.43015 16.6512 4.68315Z"/>
<path d="M14.1191 3.14489L6.11236 10.6724C6.04737 10.7337 6.00203 10.8129 5.98209 10.9C5.96215 10.9871 5.9685 11.0782 6.00034 11.1616C6.03218 11.2451 6.08808 11.3173 6.16095 11.3689C6.23382 11.4206 6.32038 11.4494 6.40967 11.4518C6.53024 11.4515 6.64668 11.4079 6.73773 11.3288L14.7752 3.8115C14.8183 3.76946 14.8526 3.71922 14.876 3.66374C14.8993 3.60826 14.9114 3.54866 14.9114 3.48845C14.9114 3.42824 14.8993 3.36864 14.876 3.31316C14.8526 3.25768 14.8183 3.20744 14.7752 3.1654C14.69 3.07739 14.5738 3.02603 14.4513 3.0222C14.3289 3.01837 14.2097 3.06238 14.1191 3.14489Z"/>
</svg>
