<?xml version="1.0" encoding="utf-8"?>
<!-- Generator: Adobe Illustrator 24.1.0, SVG Export Plug-In . SVG Version: 6.00 Build 0)  -->
<svg version="1.1" id="Capa_1" xmlns="http://www.w3.org/2000/svg" xmlns:xlink="http://www.w3.org/1999/xlink" x="0px" y="0px"
	 viewBox="0 0 21.2 21.2" style="enable-background:new 0 0 21.2 21.2;" xml:space="preserve">
<style type="text/css">
	.st0{display:none;}
</style>
<g id="Capa_3" class="st0">
</g>
<g id="Capa_1_1_">
</g>
<g id="guies">
	<g>
		<path d="M16.7,19.8H1.1c-0.6,0-1.1-0.5-1.1-1.1V3.9c0-0.6,0.5-1.1,1.1-1.1h10.7c0.3,0,0.5,0.2,0.5,0.5S12,3.8,11.7,3.8H1.1L1,18.7
			l15.7,0.1l0.1-7.8c0-0.3,0.2-0.5,0.5-0.5s0.5,0.2,0.5,0.5v7.8C17.8,19.3,17.3,19.8,16.7,19.8z"/>
	</g>
	<g>
		<path d="M20.7,4.7c0.3-0.3,0.5-0.8,0.5-1.3c0-1.1-0.9-2-2-2c-0.5,0-1,0.2-1.3,0.5l0,0l-9.1,9.1l-1.2,4l4.1-1.3l9-9.1
			C20.6,4.8,20.6,4.8,20.7,4.7L20.7,4.7L20.7,4.7z"/>
	</g>
</g>
</svg>
