<svg width="26" height="26" viewBox="0 0 26 26" fill="none" xmlns="http://www.w3.org/2000/svg">
  <path d="M23.5403 5.88215H18.5631V4.4087C18.5693 4.13569 18.5207 3.86421 18.4201 3.61032C18.3196 3.35642 18.1691 3.12528 17.9776 2.93057C17.7862 2.73585 17.5576 2.58152 17.3054 2.47671C17.0533 2.3719 16.7826 2.31873 16.5096 2.32035H9.47876C9.20764 2.32182 8.93952 2.37727 8.69006 2.48346C8.44059 2.58966 8.21477 2.74447 8.02577 2.93887C7.83678 3.13327 7.68838 3.36336 7.58926 3.61571C7.49013 3.86807 7.44225 4.13764 7.44842 4.4087V5.88215H2.45958C2.29157 5.87752 2.12433 5.90642 1.96762 5.96717C1.81092 6.02792 1.66789 6.1193 1.54691 6.23596C1.42592 6.35262 1.32941 6.49223 1.263 6.64662C1.1966 6.80102 1.16163 6.9671 1.16016 7.13516V15.8366C1.16149 16.085 1.23591 16.3274 1.37415 16.5338C1.51238 16.7401 1.70831 16.9011 1.93749 16.9968V22.3685C1.93749 22.7039 2.07072 23.0256 2.30788 23.2628C2.54505 23.4999 2.86671 23.6332 3.2021 23.6332H22.763C22.9285 23.6332 23.0924 23.6004 23.2452 23.5367C23.398 23.473 23.5366 23.3796 23.6532 23.2621C23.7697 23.1445 23.8617 23.005 23.924 22.8516C23.9863 22.6982 24.0176 22.5341 24.016 22.3685V16.9968C24.2465 16.9017 24.444 16.7411 24.5842 16.5349C24.7244 16.3287 24.8012 16.0859 24.805 15.8366V7.13516C24.8019 6.80178 24.6673 6.48309 24.4305 6.24844C24.1937 6.01378 23.8737 5.88214 23.5403 5.88215ZM8.39978 4.4087C8.39976 4.12146 8.51307 3.84581 8.71509 3.64162C8.91711 3.43742 9.19154 3.32117 9.47876 3.31812H16.5096C16.7988 3.31812 17.0762 3.43302 17.2807 3.63754C17.4852 3.84207 17.6001 4.11946 17.6001 4.4087V5.88215H8.39978V4.4087ZM12.3096 16.904C12.308 16.864 12.3147 16.824 12.3293 16.7867C12.3438 16.7493 12.366 16.7154 12.3944 16.6871C12.4227 16.6587 12.4566 16.6366 12.4939 16.622C12.5313 16.6074 12.5712 16.6007 12.6113 16.6024H13.3886C13.4686 16.6024 13.5454 16.6341 13.6019 16.6907C13.6585 16.7473 13.6903 16.824 13.6903 16.904V19.2244C13.6903 19.3044 13.6585 19.3811 13.6019 19.4377C13.5454 19.4943 13.4686 19.5261 13.3886 19.5261H12.6113C12.5313 19.5261 12.4546 19.4943 12.398 19.4377C12.3414 19.3811 12.3096 19.3044 12.3096 19.2244V16.904ZM2.93526 17.1709L11.3467 18.3311V19.2476C11.3467 19.4131 11.3795 19.577 11.4432 19.7298C11.5069 19.8826 11.6002 20.0212 11.7178 20.1378C11.8354 20.2543 11.9749 20.3463 12.1282 20.4086C12.2816 20.4709 12.4458 20.5022 12.6113 20.5006H13.3886C13.7209 20.5006 14.0397 20.3686 14.2746 20.1336C14.5096 19.8986 14.6416 19.5799 14.6416 19.2476V18.3311L23.0647 17.1709V22.3685C23.0647 22.4082 23.0569 22.4474 23.0417 22.484C23.0265 22.5206 23.0043 22.5538 22.9763 22.5818C22.9483 22.6098 22.915 22.6321 22.8784 22.6472C22.8419 22.6624 22.8026 22.6702 22.763 22.6702H3.23691C3.19729 22.6702 3.15807 22.6624 3.12147 22.6472C3.08487 22.6321 3.05162 22.6098 3.02361 22.5818C2.9956 22.5538 2.97338 22.5206 2.95822 22.484C2.94306 22.4474 2.93526 22.4082 2.93526 22.3685V17.1709ZM13.377 15.6394H12.5997C12.2643 15.6394 11.9426 15.7726 11.7055 16.0098C11.4683 16.247 11.3351 16.5686 11.3351 16.904V17.4029L2.40157 16.1731C2.32985 16.1619 2.26456 16.1253 2.21768 16.0699C2.17079 16.0145 2.14546 15.944 2.14632 15.8714V7.13516C2.14632 7.05516 2.1781 6.97843 2.23467 6.92186C2.29125 6.86529 2.36797 6.83351 2.44797 6.83351H23.5403C23.6203 6.83351 23.6971 6.86529 23.7536 6.92186C23.8102 6.97843 23.842 7.05516 23.842 7.13516V15.8366C23.8429 15.9092 23.8175 15.9797 23.7706 16.0351C23.7238 16.0905 23.6585 16.1271 23.5868 16.1383L14.6416 17.4029V16.9388C14.6479 16.7704 14.6201 16.6025 14.5599 16.4451C14.4997 16.2876 14.4084 16.144 14.2915 16.0227C14.1745 15.9013 14.0342 15.8049 13.8791 15.739C13.724 15.6732 13.5572 15.6393 13.3886 15.6394H13.377Z" fill="black"/>
  </svg>
