<svg width="27" height="27" viewBox="0 0 27 27" fill="none" xmlns="http://www.w3.org/2000/svg">
<path fill-rule="evenodd" clip-rule="evenodd" d="M19.2742 18.4601L26.7475 26.0036C26.8555 26.1151 26.9159 26.2643 26.9159 26.4197C26.9159 26.575 26.8555 26.7242 26.7475 26.8357C26.6916 26.8897 26.6256 26.932 26.5532 26.9602C26.4808 26.9883 26.4036 27.0018 26.326 26.9998C26.2502 27.0009 26.175 26.987 26.1047 26.9588C26.0343 26.9306 25.9703 26.8888 25.9162 26.8357L18.4429 19.2922C16.3005 21.2198 13.491 22.234 10.6126 22.119C7.7342 22.0039 5.0144 20.7687 3.03237 18.6764C1.05033 16.584 -0.0373384 13.7998 0.000979106 10.9167C0.0392966 8.03362 1.20057 5.27938 3.23752 3.24054C5.27446 1.2017 8.02612 0.0393333 10.9065 0.000980021C13.787 -0.0373733 16.5685 1.05131 18.6589 3.0352C20.7493 5.01909 21.9834 7.74143 22.0983 10.6225C22.2133 13.5036 21.2 16.3157 19.2742 18.4601ZM5.56122 19.3284C7.19411 20.4205 9.11387 21.0034 11.0777 21.0034C12.3817 21.0034 13.6729 20.7463 14.8776 20.2469C16.0823 19.7474 17.1769 19.0153 18.0989 18.0924C19.021 17.1695 19.7524 16.0739 20.2514 14.868C20.7504 13.6622 21.0072 12.3698 21.0072 11.0646C21.0072 9.09894 20.4249 7.17739 19.3338 5.54297C18.2427 3.90855 16.692 2.63468 14.8776 1.88244C13.0632 1.1302 11.0667 0.933376 9.14059 1.31686C7.21446 1.70035 5.4452 2.64693 4.05654 4.03689C2.66788 5.42685 1.72219 7.19776 1.33905 9.12569C0.955923 11.0536 1.15256 13.052 1.9041 14.868C2.65564 16.6841 3.92832 18.2363 5.56122 19.3284ZM5.45687 7.79244L7.25488 14.9844H9.69088L10.3289 12.1134C10.3965 11.7751 10.4545 11.4368 10.5029 11.0984C10.5609 10.7601 10.6237 10.3976 10.6914 10.0109H10.7494C10.817 10.3976 10.8799 10.7601 10.9379 11.0984C10.9959 11.4368 11.0635 11.7751 11.1409 12.1134L11.7934 14.9844H14.2874L16.0129 7.79244H14.0409L13.3594 11.1274C13.2917 11.4851 13.2337 11.8379 13.1854 12.1859C13.1467 12.5339 13.0935 12.8916 13.0259 13.2589H12.9679C12.8905 12.8916 12.818 12.5339 12.7504 12.1859C12.6827 11.8379 12.6054 11.4851 12.5184 11.1274L11.7064 7.79244H9.86487L9.06737 11.1274C8.98037 11.4658 8.90304 11.8138 8.83537 12.1714C8.77737 12.5291 8.71454 12.8916 8.64687 13.2589H8.58887C8.53087 12.8916 8.47771 12.5339 8.42937 12.1859C8.38104 11.8379 8.32788 11.4851 8.26987 11.1274L7.57387 7.79244H5.45687Z" fill="black"/>
</svg>
