<svg xmlns="http://www.w3.org/2000/svg" width="24" height="24" viewBox="0 0 24 24">
  <path d="M21.0627418,14.2343147 L19.5322383,12.7038112 C19.6145095,12.4741937 19.6866995,12.2394288 19.7482419,12 C18.9214756,8.78349042 16.1730862,6.40869872 12.8761448,6.04771766 L10.8897214,4.06129425 C11.2548039,4.02077058 11.6252945,4 12,4 C16.6941279,4 20.7267749,7.25970479 21.7521924,11.7787134 L21.802405,12 L21.7521924,12.2212866 C21.5924229,12.9253896 21.3596485,13.5989212 21.0627418,14.2343147 Z M17.1552323,18.5694458 C15.6416111,19.4807565 13.8734897,20 12,20 C7.30587205,20 3.27322507,16.7402952 2.24780761,12.2212866 L2.19759501,12 L2.24780761,11.7787134 C2.70737667,9.75339531 3.77098714,7.98102489 5.2274693,6.64168287 L4.92893219,6.34314575 C4.5384079,5.95262146 4.5384079,5.31945648 4.92893219,4.92893219 C5.31945648,4.5384079 5.95262146,4.5384079 6.34314575,4.92893219 L19.0710678,17.6568542 C19.4615921,18.0473785 19.4615921,18.6805435 19.0710678,19.0710678 C18.6805435,19.4615921 18.0473785,19.4615921 17.6568542,19.0710678 L17.1552323,18.5694458 Z M6.64323038,8.05744395 C5.50035334,9.08658142 4.65147374,10.4449183 4.25175811,12 C5.15078646,15.4976429 8.32202982,18 12,18 C13.3215499,18 14.5776778,17.6769275 15.6864821,17.1006957 L14.0319673,15.4461809 C13.4364541,15.7980706 12.7418086,16 12,16 C9.790861,16 8,14.209139 8,12 C8,11.2581914 8.20192939,10.5635459 8.55381909,9.96803265 L6.64323038,8.05744395 Z M10.0677432,11.4819568 C10.0235573,11.6471834 10,11.8208407 10,12 C10,13.1045695 10.8954305,14 12,14 C12.1791593,14 12.3528166,13.9764427 12.5180432,13.9322568 L10.0677432,11.4819568 Z"/>
</svg>
