<svg width="12" height="15" viewBox="0 0 12 15" fill="none" xmlns="http://www.w3.org/2000/svg">
<path fill-rule="evenodd" clip-rule="evenodd" d="M10 5.5C10 7.98528 7.98528 10 5.5 10C3.01472 10 1 7.98528 1 5.5C1 3.01472 3.01472 1 5.5 1C7.98528 1 10 3.01472 10 5.5ZM8.23216 10.2745C7.42723 10.7361 6.49443 11 5.5 11C2.46243 11 0 8.53757 0 5.5C0 2.46243 2.46243 0 5.5 0C8.53757 0 11 2.46243 11 5.5C11 7.19514 10.2331 8.71116 9.02739 9.72007C9.05359 9.74277 9.07781 9.76856 9.09952 9.79736L11.8764 13.4815C12.0426 13.702 11.9986 14.0155 11.7781 14.1817C11.5576 14.3479 11.2441 14.3039 11.0779 14.0834L8.30096 10.3993C8.27147 10.3602 8.2486 10.3181 8.23216 10.2745Z" fill="black"/>
</svg>
