<svg width="21" height="24" viewBox="0 0 21 24" fill="none" xmlns="http://www.w3.org/2000/svg">
  <path d="M19.8195 3.13043H17.8472V1.14668C17.8472 0.842561 17.7264 0.550899 17.5114 0.335855C17.2963 0.12081 17.0047 0 16.7005 0H1.93132C1.6272 0 1.33554 0.12081 1.12049 0.335855C0.905448 0.550899 0.784637 0.842561 0.784637 1.14668V19.6197C0.776861 19.775 0.800766 19.9303 0.8549 20.0761C0.909034 20.2219 0.992265 20.3552 1.09953 20.4678C1.20679 20.5805 1.33585 20.6701 1.47884 20.7313C1.62184 20.7924 1.77578 20.8239 1.93132 20.8237H3.91507V22.796C3.9073 22.9513 3.9312 23.1066 3.98534 23.2524C4.03947 23.3982 4.1227 23.5315 4.22996 23.6441C4.33723 23.7568 4.46628 23.8464 4.60928 23.9076C4.75227 23.9687 4.90622 24.0002 5.06175 24H14.8773C15.6205 23.9641 16.3306 23.6817 16.8955 23.1973L20.1291 20.1586C20.639 19.624 20.9401 18.9242 20.9777 18.1863V4.32298C20.9839 4.16761 20.9585 4.0126 20.9029 3.86737C20.8473 3.72214 20.7628 3.58972 20.6545 3.47817C20.5462 3.36663 20.4163 3.27828 20.2727 3.2185C20.1292 3.15872 19.975 3.12875 19.8195 3.13043ZM15.164 20.0554V23.0253H14.9232H5.10762C5.07377 23.0329 5.03865 23.0327 5.00488 23.0248C4.97112 23.0168 4.93959 23.0013 4.91268 22.9795C4.8934 22.9198 4.8934 22.8556 4.91268 22.796V4.32298C4.9155 4.25698 4.94298 4.19443 4.98969 4.14772C5.0364 4.101 5.09895 4.07352 5.16495 4.07071H19.8195C19.8835 4.07624 19.9432 4.10492 19.9876 4.15136C20.0319 4.19781 20.0578 4.25883 20.0603 4.32298V18.1863C20.0603 18.2437 20.0603 18.3239 20.0603 18.4271H16.7923C16.3614 18.4301 15.9489 18.6027 15.6442 18.9074C15.3395 19.2121 15.167 19.6245 15.164 20.0554ZM16.1157 22.6354V20.0554C16.1142 19.9661 16.1306 19.8775 16.1641 19.7947C16.1975 19.7119 16.2473 19.6367 16.3104 19.5736C16.3736 19.5104 16.4488 19.4607 16.5316 19.4272C16.6143 19.3938 16.703 19.3773 16.7923 19.3789H19.6016L19.5214 19.4706L16.2992 22.4978C16.2423 22.5491 16.1809 22.5952 16.1157 22.6354ZM1.67905 1.14668C1.682 1.08178 1.70988 1.02052 1.75687 0.975665C1.80386 0.930808 1.86635 0.905809 1.93132 0.905877H16.6547C16.7188 0.908429 16.7799 0.934297 16.8263 0.978629C16.8727 1.02296 16.9014 1.08271 16.9069 1.14668V3.13043H5.10762C4.8035 3.13043 4.51184 3.25125 4.29679 3.46629C4.08175 3.68133 3.96094 3.973 3.96094 4.27711V19.872H1.93132C1.86441 19.872 1.80025 19.8454 1.75294 19.7981C1.70563 19.7508 1.67905 19.6866 1.67905 19.6197V1.14668Z" fill="black"/>
  <path d="M6.81657 6.94856H18.1114C18.2391 6.94856 18.3616 6.89782 18.4519 6.8075C18.5422 6.71718 18.593 6.59469 18.593 6.46696C18.593 6.33923 18.5422 6.21673 18.4519 6.12641C18.3616 6.03609 18.2391 5.98535 18.1114 5.98535H6.81657C6.68884 5.98535 6.56634 6.03609 6.47602 6.12641C6.3857 6.21673 6.33496 6.33923 6.33496 6.46696C6.33496 6.59469 6.3857 6.71718 6.47602 6.8075C6.56634 6.89782 6.68884 6.94856 6.81657 6.94856Z" fill="black"/>
  <path d="M6.81657 9.75862H18.1114C18.2391 9.75862 18.3616 9.70788 18.4519 9.61756C18.5422 9.52724 18.593 9.40474 18.593 9.27702C18.593 9.14929 18.5422 9.02679 18.4519 8.93647C18.3616 8.84615 18.2391 8.79541 18.1114 8.79541H6.81657C6.68884 8.79541 6.56634 8.84615 6.47602 8.93647C6.3857 9.02679 6.33496 9.14929 6.33496 9.27702C6.33496 9.40474 6.3857 9.52724 6.47602 9.61756C6.56634 9.70788 6.68884 9.75862 6.81657 9.75862Z" fill="black"/>
  <path d="M6.81644 12.5561H18.1112C18.1799 12.5668 18.2501 12.5625 18.317 12.5435C18.3838 12.5245 18.4458 12.4913 18.4986 12.446C18.5514 12.4008 18.5938 12.3447 18.6228 12.2816C18.6519 12.2184 18.6669 12.1497 18.6669 12.0802C18.6669 12.0107 18.6519 11.942 18.6228 11.8789C18.5938 11.8158 18.5514 11.7596 18.4986 11.7144C18.4458 11.6692 18.3838 11.636 18.317 11.617C18.2501 11.598 18.1799 11.5937 18.1112 11.6044H6.81644C6.74776 11.5937 6.67757 11.598 6.61071 11.617C6.54385 11.636 6.48189 11.6692 6.42909 11.7144C6.37629 11.7596 6.33391 11.8158 6.30485 11.8789C6.27579 11.942 6.26074 12.0107 6.26074 12.0802C6.26074 12.1497 6.27579 12.2184 6.30485 12.2816C6.33391 12.3447 6.37629 12.4008 6.42909 12.446C6.48189 12.4913 6.54385 12.5245 6.61071 12.5435C6.67757 12.5625 6.74776 12.5668 6.81644 12.5561Z" fill="black"/>
  <path d="M18.593 14.8839C18.593 14.8211 18.5805 14.7591 18.5561 14.7012C18.5318 14.6434 18.4961 14.5911 18.4512 14.5473C18.4064 14.5035 18.3532 14.4691 18.2948 14.4462C18.2364 14.4232 18.1741 14.4122 18.1114 14.4137H6.81657C6.75387 14.4122 6.6915 14.4232 6.63313 14.4462C6.57476 14.4691 6.52157 14.5035 6.47669 14.5473C6.43181 14.5911 6.39615 14.6434 6.37181 14.7012C6.34747 14.7591 6.33494 14.8211 6.33496 14.8839C6.33496 15.0116 6.3857 15.1341 6.47602 15.2244C6.56634 15.3147 6.68884 15.3655 6.81657 15.3655H18.1114C18.1746 15.3655 18.2372 15.353 18.2957 15.3288C18.3541 15.3046 18.4072 15.2691 18.4519 15.2244C18.4966 15.1797 18.5321 15.1266 18.5563 15.0682C18.5805 15.0097 18.593 14.9471 18.593 14.8839Z" fill="black"/>
  <path d="M12.2633 17.2344H6.81657C6.68884 17.2344 6.56634 17.2851 6.47602 17.3754C6.3857 17.4658 6.33496 17.5883 6.33496 17.716C6.33496 17.8437 6.3857 17.9662 6.47602 18.0565C6.56634 18.1468 6.68884 18.1976 6.81657 18.1976H12.2633C12.391 18.1976 12.5135 18.1468 12.6038 18.0565C12.6942 17.9662 12.7449 17.8437 12.7449 17.716C12.7449 17.5883 12.6942 17.4658 12.6038 17.3754C12.5135 17.2851 12.391 17.2344 12.2633 17.2344Z" fill="black"/>
  </svg>
