<svg width="20" height="20" viewBox="0 0 20 20" fill="black" xmlns="http://www.w3.org/2000/svg">
<path d="M19.0657 8.04168L17.5735 7.89442C17.4072 7.28946 17.163 6.70867 16.8471 6.16662L17.8288 5.01803C17.9372 4.89446 17.9969 4.73571 17.9969 4.57135C17.9969 4.40699 17.9372 4.24824 17.8288 4.12467L15.9832 2.25944C15.86 2.1463 15.6988 2.08351 15.5316 2.08351C15.3643 2.08351 15.2032 2.1463 15.08 2.25944L13.9412 3.24114C13.3909 2.93494 12.8081 2.69127 12.2036 2.51468L11.9975 0.963586C11.9763 0.800372 11.8973 0.65016 11.7748 0.540264C11.6523 0.430368 11.4944 0.368087 11.3299 0.364746H8.6793C8.51523 0.366288 8.35748 0.428198 8.23616 0.538656C8.11483 0.649114 8.03844 0.800383 8.02156 0.963586L7.88412 2.43614C7.27963 2.61273 6.6968 2.8564 6.1465 3.1626L5.00772 2.1809C4.88455 2.06776 4.72339 2.00498 4.55614 2.00498C4.38889 2.00498 4.22773 2.06776 4.10456 2.1809L2.24914 4.12467C2.12978 4.23994 2.0584 4.39605 2.0493 4.56172C2.0402 4.72739 2.09405 4.89038 2.20005 5.01803L3.18175 6.16662C2.8681 6.71103 2.62091 7.29111 2.44548 7.89442L0.963103 8.04168C0.799061 8.05643 0.646521 8.13218 0.535639 8.25397C0.424756 8.37576 0.363601 8.53472 0.364263 8.69942V11.35C0.363601 11.5147 0.424756 11.6737 0.535639 11.7955C0.646521 11.9173 0.799061 11.993 0.963103 12.0078L2.45529 12.155C2.62927 12.7588 2.87653 13.3391 3.19157 13.8828L2.20987 15.0314C2.0974 15.153 2.03494 15.3125 2.03494 15.4781C2.03494 15.6437 2.0974 15.8032 2.20987 15.9248L4.07511 17.79C4.19828 17.9031 4.35944 17.9659 4.52669 17.9659C4.69394 17.9659 4.8551 17.9031 4.97827 17.79L6.11705 16.8083C6.66659 17.1658 7.26069 17.4497 7.88412 17.6526L8.02156 19.1448C8.04068 19.3062 8.11804 19.4551 8.23914 19.5635C8.36024 19.672 8.51675 19.7325 8.6793 19.7338H11.3201C11.4843 19.7311 11.6423 19.6706 11.7662 19.5628C11.8901 19.4551 11.972 19.307 11.9975 19.1448L12.1349 17.6526C12.7424 17.4845 13.3262 17.2404 13.8725 16.9261L15.0113 17.9078C15.1345 18.021 15.2956 18.0837 15.4629 18.0837C15.6301 18.0837 15.7913 18.021 15.9145 17.9078L17.7797 16.0426C17.8901 15.92 17.9512 15.7609 17.9512 15.5959C17.9512 15.4309 17.8901 15.2718 17.7797 15.1492L16.798 14.0006C17.1631 13.4259 17.4503 12.8053 17.6521 12.155L19.1148 12.0078C19.2806 11.9954 19.4356 11.9206 19.5485 11.7986C19.6614 11.6766 19.7239 11.5163 19.7235 11.35V8.69942C19.7235 8.52497 19.6542 8.35768 19.5308 8.23432C19.4075 8.11097 19.2402 8.04168 19.0657 8.04168ZM18.889 11.242L17.2496 11.3991C17.1711 11.4099 17.0976 11.4436 17.0383 11.496C16.9789 11.5484 16.9363 11.6171 16.9158 11.6936C16.7327 12.4094 16.4449 13.0941 16.0617 13.7257C16.0115 13.7922 15.9844 13.8732 15.9844 13.9564C15.9844 14.0397 16.0115 14.1207 16.0617 14.1871L17.1121 15.4535L15.4334 17.1617L14.1572 16.1015C14.0917 16.0536 14.0126 16.0278 13.9314 16.0278C13.8502 16.0278 13.7712 16.0536 13.7056 16.1015C13.0812 16.4918 12.3985 16.7801 11.6833 16.9556C11.603 16.9737 11.5303 17.0166 11.4757 17.0783C11.4211 17.1399 11.3873 17.2172 11.379 17.2992L11.2219 18.9386H8.81674L8.65967 17.2992C8.65068 17.219 8.61779 17.1433 8.56527 17.082C8.51275 17.0208 8.44303 16.9767 8.36515 16.9556C7.64964 16.7811 6.96682 16.4927 6.34284 16.1015C6.28052 16.064 6.2094 16.0437 6.13668 16.0426C6.0437 16.04 5.95296 16.0714 5.88144 16.1309L4.58559 17.1617L2.92651 15.4437L3.90822 14.1773C3.95552 14.1097 3.98089 14.0292 3.98089 13.9466C3.98089 13.8641 3.95552 13.7836 3.90822 13.7159C3.52492 13.089 3.24018 12.407 3.06395 11.6936C3.0428 11.6157 2.99873 11.546 2.93746 11.4935C2.87619 11.441 2.80055 11.4081 2.72035 11.3991L1.06127 11.242V8.81722L2.72035 8.66015C2.80149 8.65394 2.87854 8.62205 2.94032 8.56909C3.0021 8.51614 3.04541 8.44487 3.06395 8.36564C3.2394 7.65044 3.52771 6.96778 3.91803 6.34333C3.96919 6.27494 3.99601 6.19141 3.99423 6.10603C3.99245 6.02065 3.96217 5.93831 3.90822 5.87211L2.92651 4.60571L4.58559 2.927L5.87162 3.9087C5.93718 3.95657 6.01625 3.98237 6.09742 3.98237C6.17859 3.98237 6.25766 3.95657 6.32321 3.9087C6.94781 3.52091 7.63059 3.23587 8.34552 3.06443C8.42399 3.04262 8.49447 2.99858 8.54846 2.93761C8.60246 2.87665 8.63767 2.80136 8.64985 2.72084L8.81674 1.14029H11.2415L11.3986 2.77974C11.4069 2.86169 11.4407 2.93897 11.4954 3.00063C11.55 3.06229 11.6226 3.10522 11.7029 3.12334C12.4161 3.30481 13.0979 3.59274 13.7253 3.97742C13.7908 4.02529 13.8699 4.05109 13.9511 4.05109C14.0322 4.05109 14.1113 4.02529 14.1768 3.97742L15.4334 2.927L17.122 4.64498L16.0715 5.87211C16.0242 5.93974 15.9989 6.02028 15.9989 6.10281C15.9989 6.18534 16.0242 6.26588 16.0715 6.33351C16.4619 6.95796 16.7502 7.64062 16.9256 8.35582C16.9442 8.43505 16.9875 8.50632 17.0492 8.55928C17.111 8.61223 17.1881 8.64413 17.2692 8.65033L18.9283 8.80741L18.889 11.242Z"/>
<path d="M10.0143 5.43995C9.10714 5.43801 8.2198 5.70524 7.46459 6.20781C6.70937 6.71039 6.12023 7.42572 5.77173 8.26326C5.42323 9.10081 5.33104 10.0229 5.50682 10.9129C5.68261 11.8028 6.11847 12.6207 6.75924 13.2628C7.40001 13.9049 8.21688 14.3426 9.10646 14.5203C9.99605 14.6979 10.9184 14.6077 11.7566 14.261C12.5949 13.9143 13.3115 13.3267 13.8157 12.5726C14.3199 11.8184 14.589 10.9317 14.589 10.0245C14.5865 8.8111 14.104 7.64799 13.2469 6.78906C12.3898 5.93013 11.2277 5.44513 10.0143 5.43995ZM10.0143 13.8237C9.26248 13.8257 8.52698 13.6045 7.90091 13.1882C7.27485 12.7719 6.78637 12.1793 6.49731 11.4852C6.20825 10.7912 6.13161 10.027 6.27709 9.28936C6.42258 8.55174 6.78364 7.87387 7.31457 7.34157C7.84551 6.80926 8.52244 6.44644 9.25968 6.29905C9.99692 6.15166 10.7613 6.22632 11.4561 6.51358C12.1509 6.80084 12.7448 7.28779 13.1627 7.91278C13.5806 8.53776 13.8037 9.27268 13.8037 10.0245C13.8037 11.0304 13.4048 11.9953 12.6944 12.7075C11.984 13.4197 11.0202 13.8211 10.0143 13.8237Z"/>
</svg>
