<svg xmlns="http://www.w3.org/2000/svg" width="22" height="22" viewBox="0 0 22 22" fill="none" version="1.1">
  <path d="m 1.27,12.989558 -0.56,-0.406 0.798,-1.316 -1.358,-0.56 0.21,-0.644 1.428,0.35 0.126,-1.5119996 H 2.6 l 0.126,1.4979996 1.442,-0.336 0.21,0.644 -1.358,0.56 0.784,1.316 -0.546,0.406 -0.994,-1.204 z m 5.85152,0 -0.56,-0.406 0.798,-1.316 -1.358,-0.56 0.21,-0.644 1.428,0.35 0.126,-1.5119996 h 0.686 l 0.126,1.4979996 1.442,-0.336 0.21,0.644 -1.358,0.56 0.784,1.316 -0.546,0.406 -0.994,-1.204 z m 5.8516,0 -0.56,-0.406 0.798,-1.316 -1.358,-0.56 0.21,-0.644 1.428,0.35 0.126,-1.5119996 h 0.686 l 0.126,1.4979996 1.442,-0.336 0.21,0.644 -1.358,0.56 0.784,1.316 -0.546,0.406 -0.994,-1.204 z m 5.8516,0 -0.56,-0.406 0.798,-1.316 -1.358,-0.56 0.21,-0.644 1.428,0.35 0.126,-1.5119996 h 0.686 l 0.126,1.4979996 1.442,-0.336 0.21,0.644 -1.358,0.56 0.784,1.316 -0.546,0.406 -0.994,-1.204 z" />
  <path d="m 15.00922,1.1882684 c -0.3,0.1142 -0.4465,0.44716 -0.3323,0.74714 l 0.3164,0.83128 c -1.9264,-0.864 -4.1555,-1.06656 -6.3124,-0.44839 -2.6311,0.75315 -4.78012,2.6097 -5.89754,5.09978 -0.13212,0.29442 -0.00281,0.63416 0.29163,0.76622 0.29445,0.13206 0.63425,0.00273 0.76637,-0.29169 0.97494,-2.17932 2.85214,-3.80412 5.15554,-4.46149 1.9186,-0.54818 3.9576,-0.356 5.7481,0.51004 l -1.1676,0.44441 c -0.3,0.1142 -0.4515,0.44493 -0.3373,0.74491 0.1142,0.29998 0.4486,0.44995 0.7486,0.33575 l 2.3064,-0.87782 c 0.3086,-0.11333 0.4559,-0.4549 0.3431,-0.75127 l -0.8804,-2.31312 c -0.1142,-0.29998 -0.4486,-0.4499501 -0.7486,-0.33575 z" />
  <path d="m 7.16482,20.872158 c 0.3,-0.1142 0.4465,-0.4472 0.3323,-0.7472 l -0.3164,-0.8312 c 1.9264,0.864 4.1555,1.0665 6.3124,0.4483 2.6311,-0.7531 4.7801,-2.6096 5.8975,-5.0997 0.1322,-0.2944 0.0028,-0.6342 -0.2916,-0.7662 -0.2944,-0.1321 -0.6342,-0.0028 -0.7664,0.2916 -0.9749,2.1794 -2.8521,3.8042 -5.1555,4.4615 -1.9186,0.5482 -3.9576,0.356 -5.7481,-0.51 l 1.1676,-0.4444 c 0.3,-0.1142 0.4515,-0.4449 0.3373,-0.7449 -0.1142,-0.3 -0.4486,-0.45 -0.7486,-0.3358 l -2.3064,0.8778 c -0.3086,0.1134 -0.4559,0.4549 -0.3431,0.7513 l 0.8804,2.3131 c 0.1142,0.3 0.4486,0.45 0.7486,0.3358 z" />
</svg>
