<?xml version="1.0" encoding="utf-8"?>
<!-- Generator: Adobe Illustrator 24.1.0, SVG Export Plug-In . SVG Version: 6.00 Build 0)  -->
<svg version="1.1" id="Capa_1" xmlns="http://www.w3.org/2000/svg" xmlns:xlink="http://www.w3.org/1999/xlink" x="0px" y="0px"
	 viewBox="0 0 71.1 71.1" style="enable-background:new 0 0 71.1 71.1;" xml:space="preserve">
<style type="text/css">
	.st0{display:none;}
</style>
<g id="Capa_3" class="st0">
</g>
<g id="Capa_1_1_">
</g>
<g id="guies">
	<g>
		<path d="M71.1,30.3c0-0.5-0.4-0.8-0.8-0.8h-9c-0.5,0-0.8,0.4-0.8,0.8v39.1h-4V39.6c0-0.5-0.4-0.8-0.8-0.8h-9
			c-0.5,0-0.8,0.4-0.8,0.8v29.8h-4V49.5c0-0.5-0.4-0.8-0.8-0.8h-9c-0.5,0-0.8,0.4-0.8,0.8v19.9h-4V57.6c0-0.5-0.4-0.8-0.8-0.8h-9
			c-0.5,0-0.8,0.4-0.8,0.8v11.8H3.7c-1.1,0-2-0.9-2-2V3.7c0-1.1,0.9-2,2-2h37v9.9c0,2,1.6,3.7,3.7,3.7h9.9v17.9
			c0,0.5,0.4,0.8,0.8,0.8s0.8-0.4,0.8-0.8V14.4c0-0.2-0.1-0.4-0.2-0.6L42.1,0.3C41.9,0.1,41.7,0,41.5,0H3.7C1.6,0,0,1.6,0,3.7v63.8
			c0,2,1.6,3.7,3.7,3.7h66.6c0.5,0,0.8-0.4,0.8-0.8L71.1,30.3L71.1,30.3z M42.3,2.9L53,13.6h-8.7c-1.1,0-2-0.9-2-2L42.3,2.9
			L42.3,2.9z M25.4,69.4H18v-11h7.4V69.4z M40.1,69.4h-7.3V50.4h7.3V69.4z M54.7,69.4h-7.3V40.5h7.3V69.4z M69.4,69.4h-7.3V31.1h7.3
			V69.4z"/>
		<path d="M18.2,47.4h-9c-0.5,0-0.8,0.4-0.8,0.8s0.4,0.8,0.8,0.8h9c0.5,0,0.8-0.4,0.8-0.8S18.7,47.4,18.2,47.4z"/>
		<path d="M19.9,7.1c-0.5,0-0.8,0.4-0.8,0.8v3L18.5,11c-6.2,0.7-11,5.9-11,12.2c0,6.8,5.5,12.3,12.3,12.3c6.3,0,11.5-4.7,12.2-11
			l0.1-0.5h3c0.5,0,0.8-0.4,0.8-0.8C36,14.4,28.8,7.1,19.9,7.1z M30.4,24.7c-0.7,5.2-5.3,9.2-10.5,9.2c-5.9,0-10.6-4.8-10.6-10.6
			c0-5.3,3.9-9.8,9.2-10.5l0.6-0.1v10.6c0,0.5,0.4,0.8,0.8,0.8h10.6L30.4,24.7z M20.7,22.4V8.8l0.6,0.1c6.8,0.7,12.3,6.1,13,13
			l0.1,0.6C34.4,22.4,20.7,22.4,20.7,22.4z"/>
		<path d="M35.8,41.9H9.1c-0.5,0-0.8,0.4-0.8,0.8c0,0.5,0.4,0.8,0.8,0.8h26.7c0.5,0,0.8-0.4,0.8-0.8C36.6,42.2,36.2,41.9,35.8,41.9z
			"/>
	</g>
</g>
</svg>
