<?xml version="1.0" encoding="utf-8"?>
<!-- Generator: Adobe Illustrator 24.1.0, SVG Export Plug-In . SVG Version: 6.00 Build 0)  -->
<svg version="1.1" id="Capa_1" xmlns="http://www.w3.org/2000/svg" xmlns:xlink="http://www.w3.org/1999/xlink" x="0px" y="0px"
	 viewBox="0 0 17.8 17.8" xml:space="preserve">
<g id="guies">
	<path d="M16.7,0.4H1.1C0.5,0.4,0,0.9,0,1.5v14.8c0,0.6,0.5,1.1,1.1,1.1h15.7c0.6,0,1.1-0.5,1.1-1.1V1.5C17.8,0.9,17.3,0.4,16.7,0.4
		z M16.8,1.5v4.3h-4.6V1.4L16.8,1.5z M6.6,11V6.8h4.7v4.3L6.6,11L6.6,11z M11.2,12v4.3l-4.7,0V12C6.6,12,11.2,12,11.2,12z M5.6,11H1
		l0-4.3h4.5L5.6,11L5.6,11z M11.2,5.8H6.6V1.4h4.7V5.8z M12.2,6.8h4.6v4.3h-4.6V6.8z M5.6,1.4v4.4H1.1l0-4.4H5.6z M1,16.3L1,12h4.6
		v4.3L1,16.3z M16.7,16.4l-4.5,0V12h4.6L16.7,16.4C16.8,16.4,16.8,16.4,16.7,16.4z"/>
</g>
</svg>
