<svg xmlns="http://www.w3.org/2000/svg" width="24" height="24" viewBox="0 0 24 24">
  <path d="M11.3144586,18.2621445 L11.3385857,18.2376438 C11.3304238,18.2456301 11.3223797,18.253797 11.3144586,18.2621445 Z M12.0017153,17.5642468 L18.0967611,11.3748289 C18.6795009,10.7825352 19,9.99281431 19,9.14235624 C19,8.29325831 18.6793841,7.50399135 18.0960058,6.91115045 C17.5164252,6.32216852 16.7472535,6 15.920604,6 C15.0939545,6 14.3247828,6.32216852 13.7446363,6.91172507 L13.2237201,7.44023749 C12.8999869,7.76900751 12.4627246,7.95320284 12.0014396,7.95320284 C11.5415955,7.95320284 11.104449,7.76937816 10.7799966,7.44108796 L10.2574482,6.91091789 C9.67842647,6.32211986 8.90937095,6 8.08227516,6 C7.25533132,6 6.48673109,6.32201155 5.90714538,6.91138278 C4.69761821,8.13972822 4.69761821,10.1465098 5.90714538,11.3748552 L12.0017153,17.5642468 Z M19.5217969,12.7781368 L12.7521523,19.6523622 C12.3464165,20.0796716 11.6717589,20.0796716 11.2638596,19.6654261 L4.48205777,12.7781105 C2.50598074,10.7712889 2.50598074,7.51494909 4.48160029,5.50859242 C5.43678992,4.53727521 6.71919688,4 8.08227516,4 C9.44543974,4 10.7283215,4.53733663 11.6826564,5.50778557 L12.0014391,5.83121815 L12.3196572,5.50835987 C13.2752289,4.537288 14.5579946,4 15.920604,4 C17.2832134,4 18.5659791,4.537288 19.5215507,5.50835971 C20.4744936,6.47675974 21,7.77040996 21,9.14235624 C21,10.5155527 20.4746869,11.8097902 19.5220515,12.7778782 L18.809279,12.0764829 L19.5217969,12.7781368 Z"/>
</svg>
