<svg width="24" height="24" viewBox="0 0 24 24" fill="none" xmlns="http://www.w3.org/2000/svg">
<path d="M11.9932 0.345825C9.70103 0.357286 7.46364 1.04746 5.56335 2.32925C3.66307 3.61103 2.18505 5.42699 1.31581 7.54796C0.446573 9.66892 0.225076 11.9998 0.67927 14.2466C1.13346 16.4933 2.24299 18.5551 3.86784 20.1719C5.49269 21.7887 7.56004 22.8879 9.80901 23.3309C12.058 23.7739 14.3878 23.5408 16.5044 22.6609C18.621 21.7811 20.4295 20.2941 21.7018 18.3874C22.9741 16.4808 23.6531 14.24 23.6532 11.9478C23.6348 8.86638 22.3986 5.91727 20.2142 3.74379C18.0299 1.57031 15.0746 0.348833 11.9932 0.345825ZM11.9932 22.6912C9.87751 22.6912 7.80935 22.0638 6.05024 20.8884C4.29112 19.713 2.92006 18.0424 2.11043 16.0878C1.3008 14.1331 1.08896 11.9823 1.50171 9.90731C1.91445 7.8323 2.93325 5.92627 4.42925 4.43027C5.92525 2.93426 7.83128 1.91547 9.90629 1.50273C11.9813 1.08998 14.1321 1.30182 16.0867 2.11145C18.0414 2.92108 19.712 4.29214 20.8874 6.05126C22.0628 7.81037 22.6902 9.87853 22.6902 11.9942C22.6871 14.8303 21.5591 17.5493 19.5537 19.5547C17.5483 21.5601 14.8293 22.6881 11.9932 22.6912Z" fill="black"/>
<path d="M11.5225 13.775H13.0375C12.8275 11.84 15.1675 11.165 15.1675 9.26C15.1675 7.625 14.0125 6.77 12.3925 6.77C11.2975 6.77 10.4125 7.31 9.76748 8.075L10.7275 8.96C11.1625 8.48 11.6575 8.18 12.2725 8.18C13.0375 8.18 13.4875 8.66 13.4875 9.38C13.4875 10.73 11.2075 11.585 11.5225 13.775ZM11.1775 16.01C11.1775 16.685 11.6575 17.18 12.2875 17.18C12.9175 17.18 13.4125 16.685 13.4125 16.01C13.4125 15.335 12.9175 14.84 12.2875 14.84C11.6575 14.84 11.1775 15.335 11.1775 16.01Z" fill="black"/>
</svg>
