<svg width="16" height="16" viewBox="0 0 16 16" fill="none" xmlns="http://www.w3.org/2000/svg">
<mask id="path-1-outside-1" maskUnits="userSpaceOnUse" x="0" y="0" width="16" height="16" fill="black">
<rect fill="white" width="16" height="16"/>
<path fill-rule="evenodd" clip-rule="evenodd" d="M2.78896 1H13.211C14.1975 1 15 1.80254 15 2.78899V13.211C15 14.1975 14.1975 15 13.211 15H2.78896C1.80251 15 1 14.1975 1 13.211V2.78899C1 1.80254 1.80251 1 2.78896 1ZM13.211 14.1754C13.7428 14.1754 14.1754 13.7428 14.1754 13.211H14.1754V9.96066L11.5729 6.75624C11.5078 6.67599 11.4237 6.66018 11.3794 6.65791C11.335 6.65564 11.2498 6.66275 11.1768 6.7359L7.13736 10.7815C6.98672 10.9323 6.7461 10.9435 6.58217 10.8074L4.8821 9.39568C4.78213 9.31266 4.63765 9.31346 4.53861 9.39773L1.82461 11.7069V13.211C1.82461 13.7428 2.25721 14.1754 2.78896 14.1754H13.211ZM12.213 6.2363L14.1754 8.65256V2.78899C14.1754 2.25724 13.7428 1.82463 13.211 1.82463H2.78896C2.25721 1.82463 1.82461 2.25724 1.82461 2.78899V10.6242L4.00423 8.76973C4.40919 8.42517 4.99993 8.42164 5.40896 8.7613L6.81962 9.93268L10.5933 6.1532C10.8114 5.93473 11.1135 5.81873 11.4216 5.83432C11.73 5.85015 12.0184 5.99666 12.213 6.2363ZM3.15385 5.14209C3.15385 4.0458 4.04574 3.15385 5.14209 3.15385C6.23844 3.15385 7.13034 4.04577 7.13034 5.14209C7.13034 6.23841 6.23841 7.13034 5.14209 7.13034C4.04577 7.13034 3.15385 6.23841 3.15385 5.14209ZM3.97845 5.14209C3.97845 5.78371 4.50044 6.30573 5.14209 6.30573C5.78374 6.30573 6.30573 5.78371 6.30573 5.14209C6.30573 4.50047 5.78374 3.97845 5.14209 3.97845C4.50044 3.97845 3.97845 4.50044 3.97845 5.14209Z"/>
</mask>
<path fill-rule="evenodd" clip-rule="evenodd" d="M2.78896 1H13.211C14.1975 1 15 1.80254 15 2.78899V13.211C15 14.1975 14.1975 15 13.211 15H2.78896C1.80251 15 1 14.1975 1 13.211V2.78899C1 1.80254 1.80251 1 2.78896 1ZM13.211 14.1754C13.7428 14.1754 14.1754 13.7428 14.1754 13.211H14.1754V9.96066L11.5729 6.75624C11.5078 6.67599 11.4237 6.66018 11.3794 6.65791C11.335 6.65564 11.2498 6.66275 11.1768 6.7359L7.13736 10.7815C6.98672 10.9323 6.7461 10.9435 6.58217 10.8074L4.8821 9.39568C4.78213 9.31266 4.63765 9.31346 4.53861 9.39773L1.82461 11.7069V13.211C1.82461 13.7428 2.25721 14.1754 2.78896 14.1754H13.211ZM12.213 6.2363L14.1754 8.65256V2.78899C14.1754 2.25724 13.7428 1.82463 13.211 1.82463H2.78896C2.25721 1.82463 1.82461 2.25724 1.82461 2.78899V10.6242L4.00423 8.76973C4.40919 8.42517 4.99993 8.42164 5.40896 8.7613L6.81962 9.93268L10.5933 6.1532C10.8114 5.93473 11.1135 5.81873 11.4216 5.83432C11.73 5.85015 12.0184 5.99666 12.213 6.2363ZM3.15385 5.14209C3.15385 4.0458 4.04574 3.15385 5.14209 3.15385C6.23844 3.15385 7.13034 4.04577 7.13034 5.14209C7.13034 6.23841 6.23841 7.13034 5.14209 7.13034C4.04577 7.13034 3.15385 6.23841 3.15385 5.14209ZM3.97845 5.14209C3.97845 5.78371 4.50044 6.30573 5.14209 6.30573C5.78374 6.30573 6.30573 5.78371 6.30573 5.14209C6.30573 4.50047 5.78374 3.97845 5.14209 3.97845C4.50044 3.97845 3.97845 4.50044 3.97845 5.14209Z" fill="black"/>
<path d="M14.1754 13.211V13.111H14.0754V13.211H14.1754ZM14.1754 13.211V13.311H14.2754V13.211H14.1754ZM14.1754 9.96066H14.2754V9.92516L14.253 9.89761L14.1754 9.96066ZM11.5729 6.75624L11.4953 6.81927L11.4953 6.81929L11.5729 6.75624ZM11.3794 6.65791L11.3845 6.55804L11.3845 6.55804L11.3794 6.65791ZM11.1768 6.7359L11.2476 6.80656L11.2476 6.80654L11.1768 6.7359ZM7.13736 10.7815L7.20811 10.8522L7.20812 10.8522L7.13736 10.7815ZM6.58217 10.8074L6.51829 10.8843L6.5183 10.8843L6.58217 10.8074ZM4.8821 9.39568L4.81822 9.47261L4.81822 9.47261L4.8821 9.39568ZM4.53861 9.39773L4.60341 9.47389L4.60341 9.47389L4.53861 9.39773ZM1.82461 11.7069L1.7598 11.6308L1.72461 11.6607V11.7069H1.82461ZM14.1754 8.65256L14.0977 8.7156L14.2754 8.93431V8.65256H14.1754ZM12.213 6.2363L12.1354 6.29934L12.1354 6.29934L12.213 6.2363ZM1.82461 10.6242H1.72461V10.8406L1.88941 10.7004L1.82461 10.6242ZM4.00423 8.76973L4.06903 8.84589H4.06903L4.00423 8.76973ZM5.40896 8.7613L5.34508 8.83824L5.34508 8.83824L5.40896 8.7613ZM6.81962 9.93268L6.75574 10.0096L6.82593 10.0679L6.89039 10.0033L6.81962 9.93268ZM10.5933 6.1532L10.664 6.22386L10.664 6.22386L10.5933 6.1532ZM11.4216 5.83432L11.4268 5.73445L11.4267 5.73445L11.4216 5.83432ZM13.211 0.9H2.78896V1.1H13.211V0.9ZM15.1 2.78899C15.1 1.74731 14.2527 0.9 13.211 0.9V1.1C14.1423 1.1 14.9 1.85777 14.9 2.78899H15.1ZM15.1 13.211V2.78899H14.9V13.211H15.1ZM13.211 15.1C14.2527 15.1 15.1 14.2527 15.1 13.211H14.9C14.9 14.1422 14.1423 14.9 13.211 14.9V15.1ZM2.78896 15.1H13.211V14.9H2.78896V15.1ZM0.9 13.211C0.9 14.2527 1.74728 15.1 2.78896 15.1V14.9C1.85774 14.9 1.1 14.1422 1.1 13.211H0.9ZM0.9 2.78899V13.211H1.1V2.78899H0.9ZM2.78896 0.9C1.74728 0.9 0.9 1.74731 0.9 2.78899H1.1C1.1 1.85777 1.85774 1.1 2.78896 1.1V0.9ZM14.0754 13.211C14.0754 13.6876 13.6875 14.0754 13.211 14.0754V14.2754C13.798 14.2754 14.2754 13.798 14.2754 13.211H14.0754ZM14.1754 13.111H14.1754V13.311H14.1754V13.111ZM14.0754 9.96066V13.211H14.2754V9.96066H14.0754ZM11.4953 6.81929L14.0978 10.0237L14.253 9.89761L11.6505 6.6932L11.4953 6.81929ZM11.3743 6.75778C11.403 6.75925 11.4547 6.76926 11.4953 6.81927L11.6506 6.69321C11.5609 6.58272 11.4444 6.56111 11.3845 6.55804L11.3743 6.75778ZM11.2476 6.80654C11.2931 6.76096 11.3454 6.75631 11.3743 6.75778L11.3845 6.55804C11.3245 6.55498 11.2066 6.56454 11.106 6.66525L11.2476 6.80654ZM7.20812 10.8522L11.2476 6.80656L11.1061 6.66524L7.06659 10.7109L7.20812 10.8522ZM6.5183 10.8843C6.72197 11.0534 7.02095 11.0396 7.20811 10.8522L7.06661 10.7108C6.95249 10.8251 6.77022 10.8335 6.64605 10.7304L6.5183 10.8843ZM4.81822 9.47261L6.51829 10.8843L6.64606 10.7304L4.94599 9.31875L4.81822 9.47261ZM4.60341 9.47389C4.66542 9.42113 4.75561 9.42062 4.81822 9.47261L4.94599 9.31875C4.80866 9.20471 4.60988 9.20578 4.4738 9.32157L4.60341 9.47389ZM1.88941 11.7831L4.60341 9.47389L4.47381 9.32157L1.7598 11.6308L1.88941 11.7831ZM1.92461 13.211V11.7069H1.72461V13.211H1.92461ZM2.78896 14.0754C2.31244 14.0754 1.92461 13.6875 1.92461 13.211H1.72461C1.72461 13.798 2.20198 14.2754 2.78896 14.2754V14.0754ZM13.211 14.0754H2.78896V14.2754H13.211V14.0754ZM14.253 8.58952L12.2906 6.17326L12.1354 6.29934L14.0977 8.7156L14.253 8.58952ZM14.0754 2.78899V8.65256H14.2754V2.78899H14.0754ZM13.211 1.92463C13.6876 1.92463 14.0754 2.31246 14.0754 2.78899H14.2754C14.2754 2.20201 13.798 1.72463 13.211 1.72463V1.92463ZM2.78896 1.92463H13.211V1.72463H2.78896V1.92463ZM1.92461 2.78899C1.92461 2.31247 2.31244 1.92463 2.78896 1.92463V1.72463C2.20198 1.72463 1.72461 2.20201 1.72461 2.78899H1.92461ZM1.92461 10.6242V2.78899H1.72461V10.6242H1.92461ZM3.93943 8.69356L1.7598 10.5481L1.88941 10.7004L4.06903 8.84589L3.93943 8.69356ZM5.47285 8.68437C5.02643 8.31366 4.3814 8.31752 3.93943 8.69356L4.06903 8.84589C4.43698 8.53282 4.97343 8.52962 5.34508 8.83824L5.47285 8.68437ZM6.88351 9.85575L5.47285 8.68437L5.34508 8.83824L6.75574 10.0096L6.88351 9.85575ZM10.5225 6.08255L6.74886 9.86203L6.89039 10.0033L10.664 6.22386L10.5225 6.08255ZM11.4267 5.73445C11.0904 5.71744 10.7607 5.84398 10.5225 6.08255L10.664 6.22386C10.8621 6.02547 11.1367 5.92003 11.4166 5.93419L11.4267 5.73445ZM12.2906 6.17326C12.0782 5.91162 11.7634 5.75174 11.4268 5.73445L11.4165 5.93419C11.6965 5.94857 11.9586 6.0817 12.1354 6.29934L12.2906 6.17326ZM5.14209 3.05385C3.99051 3.05385 3.05385 3.99057 3.05385 5.14209H3.25385C3.25385 4.10103 4.10098 3.25385 5.14209 3.25385V3.05385ZM7.23034 5.14209C7.23034 3.99054 6.29367 3.05385 5.14209 3.05385V3.25385C6.18321 3.25385 7.03034 4.101 7.03034 5.14209H7.23034ZM5.14209 7.23034C6.29364 7.23034 7.23034 6.29364 7.23034 5.14209H7.03034C7.03034 6.18318 6.18318 7.03034 5.14209 7.03034V7.23034ZM3.05385 5.14209C3.05385 6.29364 3.99054 7.23034 5.14209 7.23034V7.03034C4.101 7.03034 3.25385 6.18318 3.25385 5.14209H3.05385ZM5.14209 6.20573C4.55567 6.20573 4.07845 5.72849 4.07845 5.14209H3.87845C3.87845 5.83894 4.44521 6.40573 5.14209 6.40573V6.20573ZM6.20573 5.14209C6.20573 5.72849 5.72851 6.20573 5.14209 6.20573V6.40573C5.83897 6.40573 6.40573 5.83894 6.40573 5.14209H6.20573ZM5.14209 4.07845C5.72851 4.07845 6.20573 4.5557 6.20573 5.14209H6.40573C6.40573 4.44524 5.83897 3.87845 5.14209 3.87845V4.07845ZM4.07845 5.14209C4.07845 4.55567 4.55567 4.07845 5.14209 4.07845V3.87845C4.44522 3.87845 3.87845 4.44522 3.87845 5.14209H4.07845Z" fill="black" mask="url(#path-1-outside-1)"/>
</svg>
