<svg xmlns="http://www.w3.org/2000/svg" width="24" height="24" viewBox="0 0 24 24">
  <path d="M11,18 L11,12 L9,12 C8.44771525,12 8,11.5522847 8,11 C8,10.4477153 8.44771525,10 9,10 L12,10 C12.5522847,10 13,10.4477153 13,11 L13,18 L16,18 C16.5522847,18 17,18.4477153 17,19 C17,19.5522847 16.5522847,20 16,20 L8,20 C7.44771525,20 7,19.5522847 7,19 C7,18.4477153 7.44771525,18 8,18 L11,18 Z M12,8 C10.8954305,8 10,7.1045695 10,6 C10,4.8954305 10.8954305,4 12,4 C13.1045695,4 14,4.8954305 14,6 C14,7.1045695 13.1045695,8 12,8 Z"/>
</svg>
