<svg xmlns="http://www.w3.org/2000/svg" width="18" height="18" viewBox="0 0 18 18" fill="none" version="1.1">
  <path d="M 8.50744,13 V 7.168 h 0.984 V 13 Z m 0.504,-7.032 c -0.192,0 -0.356,-0.06 -0.492,-0.18 -0.128,-0.12 -0.192,-0.272 -0.192,-0.456 0,-0.192 0.064,-0.344 0.192,-0.456 0.136,-0.12 0.3,-0.18 0.492,-0.18 0.192,0 0.352,0.06 0.48,0.18 0.136,0.112 0.204,0.264 0.204,0.456 0,0.184 -0.068,0.336 -0.204,0.456 -0.128,0.12 -0.288,0.18 -0.48,0.18 z" fill="#c4c4c4" />
  <circle cx="9" cy="9" r="8.5" stroke="#c4c4c4" />
</svg>