<svg width="21" height="21" viewBox="0 0 21 21" fill="none" xmlns="http://www.w3.org/2000/svg">
<g clip-path="url(#clip0_3981_106)">
<path d="M20.9156 5.79495C20.9156 5.52771 20.8312 5.23238 20.7609 4.96513C20.4622 3.81533 19.8541 2.76936 19.0027 1.94098C18.0324 0.977869 16.7906 0.334864 15.444 0.0983872L14.994 0.0280762H14.797H13.6999H13.5733C12.1716 0.147587 10.8498 0.731711 9.81779 1.68781C8.85725 2.52243 8.15982 3.61806 7.81024 4.84159C7.46066 6.06512 7.47399 7.36391 7.84861 8.58001C7.87537 8.66127 7.87765 8.74859 7.85514 8.83112C7.83263 8.91365 7.78633 8.98769 7.72203 9.04411L3.33355 13.4326L2.18016 14.586L0.225058 16.5411C0.150962 16.6085 0.0924392 16.6913 0.0535727 16.7836C0.0147063 16.8759 -0.00357461 16.9755 2.42284e-06 17.0756V20.4233C-0.00957265 20.4988 -0.00150052 20.5755 0.0236111 20.6474C0.0487228 20.7193 0.0901705 20.7845 0.144702 20.8377C0.199234 20.8908 0.265349 20.9306 0.337865 20.9539C0.41038 20.9772 0.487328 20.9833 0.562619 20.9718H3.95244C4.03614 20.975 4.11956 20.9603 4.19716 20.9288C4.27476 20.8973 4.34474 20.8496 4.40251 20.789L4.57134 20.6202C4.73534 20.4327 4.91403 20.2587 5.10579 20.0998C5.21713 20.0053 5.29891 19.8808 5.34132 19.7411C5.38373 19.6014 5.38499 19.4524 5.34493 19.312C5.34493 19.1573 5.34493 18.9886 5.34493 18.8338C5.35236 18.759 5.35236 18.6836 5.34493 18.6087V18.4681H5.90755L6.83588 18.3696C6.92878 18.3579 7.01512 18.3156 7.08133 18.2494C7.14754 18.1832 7.18986 18.0968 7.2016 18.0039C7.2016 17.8492 7.2016 17.6945 7.2016 17.5257V17.3147C7.2016 17.1037 7.2016 16.8927 7.2016 16.6817V16.4989H7.34227H7.84861H7.94708H8.29872C8.36526 16.5063 8.43261 16.4988 8.49588 16.4769C8.55914 16.455 8.61674 16.4193 8.66444 16.3723C8.75768 16.2726 8.81249 16.143 8.81914 16.0066V14.7126H10.0428C10.1298 14.7151 10.2163 14.6988 10.2964 14.6648C10.3766 14.6308 10.4484 14.5799 10.507 14.5157L11.154 13.8686C11.3791 13.6436 11.6182 13.4185 11.8432 13.1794C11.8985 13.1135 11.9726 13.0661 12.0555 13.0435C12.1385 13.0209 12.2264 13.0242 12.3074 13.0529C13.1644 13.3069 14.0636 13.3867 14.952 13.2877C15.8403 13.1886 16.6998 12.9127 17.4798 12.4761C18.2599 12.0396 18.9446 11.4512 19.4936 10.7458C20.0426 10.0404 20.4448 9.2323 20.6765 8.36899C20.7468 8.10174 20.789 7.82039 20.8452 7.53908C20.8619 7.41132 20.8854 7.28461 20.9156 7.15937V6.09036C20.9437 6.0341 20.9437 5.93561 20.9156 5.79495ZM18.1025 11.0274C17.357 11.7113 16.437 12.1757 15.444 12.3693C14.4511 12.563 13.424 12.4782 12.4762 12.1245C12.3159 12.049 12.1351 12.0288 11.962 12.067C11.789 12.1051 11.6335 12.1996 11.5198 12.3355C11.1259 12.7575 10.7039 13.1654 10.296 13.5592L10.1835 13.6577C10.0722 13.7611 9.92741 13.821 9.7756 13.8265H8.5097C8.43915 13.8203 8.36809 13.8293 8.30138 13.8531C8.23467 13.8768 8.1739 13.9148 8.12316 13.9642C8.07242 14.0136 8.03292 14.0733 8.00739 14.1394C7.98186 14.2054 7.97088 14.2762 7.9752 14.3469V15.3877L7.89081 15.5284H7.76422L6.94843 15.444C6.87962 15.4295 6.80839 15.4309 6.74016 15.4479C6.67193 15.465 6.60849 15.4973 6.5546 15.5424C6.50075 15.5846 6.45655 15.6378 6.42501 15.6984C6.39346 15.7591 6.37531 15.8258 6.37174 15.8941V16.091C6.37174 16.4286 6.30141 16.7662 6.28735 17.1038C6.28924 17.1493 6.28191 17.1947 6.2658 17.2373C6.24968 17.2799 6.22509 17.3188 6.19355 17.3516C6.16202 17.3845 6.12415 17.4105 6.08225 17.4284C6.04035 17.4462 5.99528 17.4555 5.94974 17.4554C5.56997 17.4554 5.14802 17.4554 4.74012 17.5679C4.66992 17.5663 4.60025 17.5807 4.53639 17.6099C4.47254 17.6391 4.41616 17.6824 4.37148 17.7366C4.32679 17.7907 4.29496 17.8544 4.27842 17.9226C4.26187 17.9909 4.26101 18.0619 4.27593 18.1305C4.27593 18.5103 4.34628 18.8338 4.38847 19.1432C4.40751 19.2338 4.4033 19.3278 4.37624 19.4163C4.34919 19.5049 4.30015 19.5852 4.23373 19.6497C4.13414 19.7764 4.0054 19.8771 3.85844 19.9432C3.71148 20.0093 3.5507 20.0389 3.38983 20.0294H1.01273V17.4413C1.00417 17.3592 1.0164 17.2761 1.04836 17.1999C1.08031 17.1237 1.13092 17.0568 1.19555 17.0053L3.78366 14.4172L8.70664 9.49422C8.83481 9.39062 8.92503 9.24745 8.9632 9.08712C9.00137 8.9268 8.98535 8.75833 8.91761 8.60808C8.57134 7.62461 8.49955 6.56539 8.70994 5.54419C8.92034 4.52298 9.40497 3.5784 10.1118 2.81189C10.8186 2.04538 11.7209 1.48594 12.7217 1.19362C13.7226 0.901297 14.7841 0.887133 15.7924 1.15271C16.8006 1.41829 17.7175 1.95354 18.4445 2.70097C19.1715 3.44839 19.6811 4.37974 19.9186 5.39498C20.1561 6.41022 20.1125 7.471 19.7925 8.46334C19.4725 9.45568 18.8883 10.3421 18.1025 11.0274Z" fill="white"/>
<path d="M16.0627 3.22114C15.8233 3.19949 15.5821 3.22797 15.3543 3.30472C15.1266 3.38147 14.9173 3.50481 14.7399 3.66692C14.5625 3.82903 14.4207 4.02632 14.3238 4.24623C14.2268 4.46614 14.1768 4.70386 14.1768 4.94419C14.1768 5.18453 14.2268 5.42224 14.3238 5.64215C14.4207 5.86206 14.5625 6.05936 14.7399 6.22147C14.9173 6.38357 15.1266 6.50691 15.3543 6.58367C15.5821 6.66042 15.8233 6.68885 16.0627 6.6672C16.5154 6.66721 16.9497 6.48839 17.2711 6.16961C17.5925 5.85084 17.775 5.41798 17.7787 4.96531C17.7805 4.73811 17.7376 4.51273 17.6524 4.30212C17.5672 4.09151 17.4413 3.89975 17.2819 3.73779C17.1226 3.57583 16.9329 3.44685 16.7237 3.3582C16.5145 3.26955 16.2899 3.22298 16.0627 3.22114ZM16.569 5.48573C16.4988 5.55516 16.4153 5.60967 16.3234 5.64593C16.2315 5.68219 16.1333 5.69941 16.0345 5.69667C15.9373 5.69668 15.841 5.67738 15.7514 5.63975C15.6617 5.60211 15.5804 5.54691 15.5123 5.47749C15.4442 5.40808 15.3906 5.32585 15.3547 5.23548C15.3188 5.14511 15.3012 5.04846 15.3031 4.95123C15.3027 4.84949 15.3224 4.74867 15.361 4.65454C15.3996 4.5604 15.4564 4.4748 15.5282 4.40265C15.5989 4.33832 15.6797 4.28607 15.7673 4.24795H15.922H16.0627C16.1623 4.24785 16.2609 4.26767 16.3527 4.30633C16.4445 4.34498 16.5276 4.40164 16.5972 4.47296C16.7348 4.61662 16.8105 4.80854 16.8081 5.00746C16.7903 5.19096 16.7051 5.36137 16.569 5.48573Z" fill="white"/>
</g>
<defs>
<clipPath id="clip0_3981_106">
<rect width="21" height="21" fill="white"/>
</clipPath>
</defs>
</svg>
