<?xml version="1.0" encoding="utf-8"?>
<!-- Generator: Adobe Illustrator 24.1.0, SVG Export Plug-In . SVG Version: 6.00 Build 0)  -->
<svg version="1.1" id="Capa_1" xmlns="http://www.w3.org/2000/svg" xmlns:xlink="http://www.w3.org/1999/xlink" x="0px" y="0px"
	 viewBox="0 0 23.2 23.2" xml:space="preserve">
<g id="guies">
	<path d="M1,19h21.3c0.5,0,0.9,0.4,0.9,0.9s-0.4,0.9-0.9,0.9H1c-0.5,0-0.9-0.4-0.9-0.9C0,19.4,0.5,19,1,19z M17,7.9h5.3
		c0.5,0,0.9,0.4,0.9,0.9s-0.4,0.9-0.9,0.9H17c-0.5,0-0.9-0.4-0.9-0.9C16,8.4,16.5,7.9,17,7.9z M17,13.5h5.3c0.5,0,0.9,0.4,0.9,0.9
		s-0.4,0.9-0.9,0.9H17c-0.5,0-0.9-0.4-0.9-0.9C16,13.9,16.5,13.5,17,13.5z M17,2.4h5.3c0.5,0,0.9,0.4,0.9,0.9s-0.4,0.9-0.9,0.9H17
		c-0.5,0-0.9-0.4-0.9-0.9C16,2.8,16.5,2.4,17,2.4z M12.8,2.4H0v12.9h12.8V2.4z"/>
</g>
</svg>
