<?xml version="1.0" encoding="utf-8"?>
<!-- Generator: Adobe Illustrator 24.1.0, SVG Export Plug-In . SVG Version: 6.00 Build 0)  -->
<svg version="1.1" id="Capa_1" xmlns="http://www.w3.org/2000/svg" xmlns:xlink="http://www.w3.org/1999/xlink" x="0px" y="0px"
	 viewBox="0 0 23.2 23.2" xml:space="preserve">
<g id="guies">
	<path d="M1,19h21.3c0.5,0,0.9,0.4,0.9,0.9s-0.4,0.9-0.9,0.9H1c-0.5,0-0.9-0.4-0.9-0.9C0,19.4,0.5,19,1,19z M1,7.9h21.3
		c0.5,0,0.9,0.4,0.9,0.9s-0.4,0.9-0.9,0.9H1C0.5,9.8,0,9.4,0,8.9C0,8.4,0.5,7.9,1,7.9z M1,13.5h21.3c0.5,0,0.9,0.4,0.9,0.9
		s-0.4,0.9-0.9,0.9H1c-0.5,0-0.9-0.4-0.9-0.9S0.5,13.5,1,13.5z M1,2.4h21.3c0.5,0,0.9,0.4,0.9,0.9s-0.4,0.9-0.9,0.9H1
		C0.5,4.2,0,3.8,0,3.3C0,2.8,0.5,2.4,1,2.4z"/>
</g>
</svg>
