<?xml version="1.0" encoding="utf-8"?>
<!-- Generator: Adobe Illustrator 24.1.0, SVG Export Plug-In . SVG Version: 6.00 Build 0)  -->
<svg version="1.1" id="Capa_1" xmlns="http://www.w3.org/2000/svg" xmlns:xlink="http://www.w3.org/1999/xlink" x="0px" y="0px"
	 viewBox="0 0 23.6 23.6" style="enable-background:new 0 0 23.6 23.6;" xml:space="preserve">
<style type="text/css">
	.st0{display:none;}
	.st1{fill:#221F20;}
</style>
<g id="Capa_3" class="st0">
</g>
<g id="Capa_1_1_">
</g>
<g id="guies">
	<path class="st1" d="M0.9,6.3h21.8c0.5,0,0.9,0.4,0.9,0.9s-0.4,0.9-0.9,0.9H0.9C0.4,8.1,0,7.7,0,7.2C0,6.7,0.4,6.3,0.9,6.3z"/>
	<path id="Trazado_15_29_" class="st1" d="M5.4,10.9h12.8c0.5,0,0.9,0.4,0.9,0.9s-0.4,0.9-0.9,0.9H5.4c-0.5,0-0.9-0.4-0.9-0.9
		C4.5,11.3,4.9,10.9,5.4,10.9z"/>
	<path id="Trazado_15_28_" class="st1" d="M9.1,15.5h5.3c0.5,0,0.9,0.4,0.9,0.9c0,0.5-0.4,0.9-0.9,0.9H9.1c-0.5,0-0.9-0.4-0.9-0.9
		C8.2,15.9,8.6,15.5,9.1,15.5z"/>
</g>
</svg>
