<svg width="22" height="17" viewBox="0 0 22 17" fill="none" xmlns="http://www.w3.org/2000/svg">
  <path d="M21.4431 1.11318H3.27046C3.12284 1.11318 2.98127 1.05454 2.87689 0.950156C2.77251 0.845775 2.71387 0.704205 2.71387 0.556588C2.71387 0.408972 2.77251 0.267402 2.87689 0.163021C2.98127 0.0586406 3.12284 0 3.27046 0H21.4431C21.5907 0 21.7323 0.0586406 21.8366 0.163021C21.941 0.267402 21.9997 0.408972 21.9997 0.556588C21.9997 0.704205 21.941 0.845775 21.8366 0.950156C21.7323 1.05454 21.5907 1.11318 21.4431 1.11318Z" fill="black"/>
  <path d="M21.4431 5.02236H3.27046C3.12284 5.02236 2.98127 4.96372 2.87689 4.85933C2.77251 4.75495 2.71387 4.61338 2.71387 4.46577C2.71387 4.31815 2.77251 4.17658 2.87689 4.0722C2.98127 3.96782 3.12284 3.90918 3.27046 3.90918H21.4431C21.5907 3.90918 21.7323 3.96782 21.8366 4.0722C21.941 4.17658 21.9997 4.31815 21.9997 4.46577C21.9997 4.61338 21.941 4.75495 21.8366 4.85933C21.7323 4.96372 21.5907 5.02236 21.4431 5.02236Z" fill="black"/>
  <path d="M21.4431 8.90468H3.27046C3.12284 8.90468 2.98127 8.84604 2.87689 8.74166C2.77251 8.63728 2.71387 8.49571 2.71387 8.34809C2.71387 8.20048 2.77251 8.0589 2.87689 7.95452C2.98127 7.85014 3.12284 7.7915 3.27046 7.7915H21.4431C21.5907 7.7915 21.7323 7.85014 21.8366 7.95452C21.941 8.0589 21.9997 8.20048 21.9997 8.34809C21.9997 8.49571 21.941 8.63728 21.8366 8.74166C21.7323 8.84604 21.5907 8.90468 21.4431 8.90468Z" fill="black"/>
  <path d="M21.4432 12.7875H3.27064C3.19703 12.7894 3.12379 12.7763 3.0554 12.749C2.98701 12.7217 2.92488 12.6808 2.87281 12.6287C2.82074 12.5767 2.77981 12.5145 2.75252 12.4461C2.72523 12.3778 2.71214 12.3045 2.71405 12.2309C2.71405 12.0833 2.77269 11.9417 2.87707 11.8373C2.98145 11.733 3.12302 11.6743 3.27064 11.6743H21.4432C21.5909 11.6743 21.7324 11.733 21.8368 11.8373C21.9412 11.9417 21.9998 12.0833 21.9998 12.2309C22.0017 12.3045 21.9887 12.3778 21.9614 12.4461C21.9341 12.5145 21.8931 12.5767 21.8411 12.6287C21.789 12.6808 21.7269 12.7217 21.6585 12.749C21.5901 12.7763 21.5169 12.7894 21.4432 12.7875Z" fill="black"/>
  <path d="M21.4432 16.6832H3.27064C3.12302 16.6832 2.98145 16.6245 2.87707 16.5202C2.77269 16.4158 2.71405 16.2742 2.71405 16.1266C2.71214 16.053 2.72523 15.9798 2.75252 15.9114C2.77981 15.843 2.82074 15.7808 2.87281 15.7288C2.92488 15.6767 2.98701 15.6358 3.0554 15.6085C3.12379 15.5812 3.19703 15.5681 3.27064 15.57H21.4432C21.5169 15.5681 21.5901 15.5812 21.6585 15.6085C21.7269 15.6358 21.789 15.6767 21.8411 15.7288C21.8931 15.7808 21.9341 15.843 21.9614 15.9114C21.9887 15.9798 22.0017 16.053 21.9998 16.1266C21.9998 16.2742 21.9412 16.4158 21.8368 16.5202C21.7324 16.6245 21.5909 16.6832 21.4432 16.6832Z" fill="black"/>
  <path d="M0.556588 16.684C0.863983 16.684 1.11318 16.4348 1.11318 16.1274C1.11318 15.82 0.863983 15.5708 0.556588 15.5708C0.249193 15.5708 0 15.82 0 16.1274C0 16.4348 0.249193 16.684 0.556588 16.684Z" fill="black"/>
  <path d="M0.556588 12.7875C0.863983 12.7875 1.11318 12.5383 1.11318 12.2309C1.11318 11.9235 0.863983 11.6743 0.556588 11.6743C0.249193 11.6743 0 11.9235 0 12.2309C0 12.5383 0.249193 12.7875 0.556588 12.7875Z" fill="black"/>
  <path d="M0.556588 8.90468C0.863983 8.90468 1.11318 8.65549 1.11318 8.34809C1.11318 8.0407 0.863983 7.7915 0.556588 7.7915C0.249193 7.7915 0 8.0407 0 8.34809C0 8.65549 0.249193 8.90468 0.556588 8.90468Z" fill="black"/>
  <path d="M0.556588 5.02236C0.863983 5.02236 1.11318 4.77316 1.11318 4.46577C1.11318 4.15837 0.863983 3.90918 0.556588 3.90918C0.249193 3.90918 0 4.15837 0 4.46577C0 4.77316 0.249193 5.02236 0.556588 5.02236Z" fill="black"/>
  <path d="M0.556588 1.14101C0.863983 1.14101 1.11318 0.891816 1.11318 0.58442C1.11318 0.277025 0.863983 0.027832 0.556588 0.027832C0.249193 0.027832 0 0.277025 0 0.58442C0 0.891816 0.249193 1.14101 0.556588 1.14101Z" fill="black"/>
  </svg>
