<svg width="14" height="21" viewBox="0 0 14 21" fill="none" xmlns="http://www.w3.org/2000/svg">
<path fill-rule="evenodd" clip-rule="evenodd" d="M7 1.5C5.04675 1.5 3.5 2.90698 3.5 4.93921V8H10.5V4.93921C10.5 2.90698 8.95325 1.5 7 1.5ZM2.5 4.93921V8H2C0.895386 8 0 8.89551 0 10V18.6667C0 19.7712 0.895386 20.6667 2 20.6667H12C13.1046 20.6667 14 19.7712 14 18.6667V10C14 8.89551 13.1046 8 12 8H11.5V4.93921C11.5 2.31494 9.46509 0.5 7 0.5C4.53491 0.5 2.5 2.31494 2.5 4.93921ZM2 9C1.44775 9 1 9.44775 1 10V18.6667C1 19.219 1.44775 19.6667 2 19.6667H12C12.5522 19.6667 13 19.219 13 18.6667V10C13 9.44775 12.5522 9 12 9H2ZM8.42847 13.4285C8.42847 13.9573 8.14111 14.4189 7.71411 14.666V17H6.28552V14.666C5.85852 14.4189 5.57129 13.9573 5.57129 13.4285C5.57129 12.6396 6.21094 12 6.99988 12C7.78882 12 8.42847 12.6396 8.42847 13.4285Z" fill="black"/>
</svg>
