<?xml version="1.0" encoding="utf-8"?>
<!-- Generator: Adobe Illustrator 24.1.0, SVG Export Plug-In . SVG Version: 6.00 Build 0)  -->
<svg version="1.1" id="Capa_1" xmlns="http://www.w3.org/2000/svg" xmlns:xlink="http://www.w3.org/1999/xlink" x="0px"
  y="0px" viewBox="0 0 208 208" xml:space="preserve">
  <g>
    <path d="M104,160c30.9,0,56-25.1,56-56s-25.1-56-56-56s-56,25.1-56,56S73.1,160,104,160z M104,184
		c-35.9,0-66.3-23.7-76.4-56.3c-1.2,0.2-2.4,0.3-3.6,0.3c-13.3,0-24-10.7-24-24s10.7-24,24-24c1.2,0,2.4,0.1,3.6,0.3
		C37.7,47.7,68.1,24,104,24s66.3,23.7,76.4,56.3c1.2-0.2,2.4-0.3,3.6-0.3c13.3,0,24,10.7,24,24s-10.7,24-24,24
		c-1.2,0-2.4-0.1-3.6-0.3C170.3,160.3,139.9,184,104,184z M104,128c13.3,0,24-10.7,24-24s-10.7-24-24-24s-24,10.7-24,24
		S90.7,128,104,128z" />
  </g>
</svg>
