<?xml version="1.0" encoding="UTF-8"?>
<svg width="64px" height="64px" viewBox="0 0 64 64" version="1.1" xmlns="http://www.w3.org/2000/svg" xmlns:xlink="http://www.w3.org/1999/xlink">
    <!-- Generator: Sketch 50.2 (55047) - http://www.bohemiancoding.com/sketch -->
    <title>Stashify-symbol</title>
    <desc>Created with Sketch.</desc>
    <defs></defs>
    <g id="Stashify-symbol" stroke="none" stroke-width="1" fill="none" fill-rule="evenodd">
        <path d="M32,46 C39.7319865,46 46,39.7319865 46,32 C46,24.2680135 39.7319865,18 32,18 C24.2680135,18 18,24.2680135 18,32 C18,39.7319865 24.2680135,46 32,46 Z M32,52 C23.0203486,52 15.4228876,46.0821392 12.8949123,37.9337128 C12.6029539,37.9773738 12.3041193,38 12,38 C8.6862915,38 6,35.3137085 6,32 C6,28.6862915 8.6862915,26 12,26 C12.3041193,26 12.6029539,26.0226262 12.8949123,26.0662872 C15.4228876,17.9178608 23.0203486,12 32,12 C40.9796514,12 48.5771124,17.9178608 51.1050877,26.0662872 C51.3970461,26.0226262 51.6958807,26 52,26 C55.3137085,26 58,28.6862915 58,32 C58,35.3137085 55.3137085,38 52,38 C51.6958807,38 51.3970461,37.9773738 51.1050877,37.9337128 C48.5771124,46.0821392 40.9796514,52 32,52 Z M32,38 C35.3137085,38 38,35.3137085 38,32 C38,28.6862915 35.3137085,26 32,26 C28.6862915,26 26,28.6862915 26,32 C26,35.3137085 28.6862915,38 32,38 Z" id="Combined-Shape" fill="#F5316E" fill-rule="nonzero"></path>
    </g>
</svg>