<svg width="20" height="20" viewBox="0 0 20 20" fill="none" xmlns="http://www.w3.org/2000/svg">
<path fill-rule="evenodd" clip-rule="evenodd" d="M1.66189 6.33341C2.64233 4.08886 4.42417 2.35833 6.69197 1.46737C11.3725 -0.383097 16.6754 1.93855 18.5169 6.64182C18.551 6.74463 18.551 6.84743 18.5084 6.94167C18.4657 7.0359 18.389 7.11301 18.2952 7.14728C18.2526 7.16441 18.2015 7.17298 18.1588 7.17298C18.0054 7.17298 17.8604 7.07874 17.8008 6.92453C16.9482 4.76566 15.226 3.03513 13.0776 2.187C10.9974 1.37313 8.72957 1.4074 6.68344 2.30693C4.63731 3.20646 3.05156 4.84276 2.24163 6.9331C1.43171 9.02344 1.47433 11.3023 2.36099 13.3583C3.25617 15.4144 4.88455 16.9993 6.96478 17.8217C11.2531 19.5094 16.1127 17.3848 17.8008 13.0756C17.869 12.87 18.0991 12.7758 18.2952 12.8529C18.389 12.8872 18.4657 12.9643 18.5084 13.0585C18.551 13.1527 18.5595 13.2555 18.5169 13.3583C17.1699 16.8365 13.7767 19.1667 10.0596 19.1667L10.0255 19.1667C6.24864 19.1667 2.91515 16.8794 1.53401 13.3498C0.647355 11.071 0.689982 8.57796 1.66189 6.33341ZM6.99002 9.72594L10.4088 6.29058C10.5622 6.14495 10.8009 6.14495 10.9544 6.29915C11.0993 6.45336 11.0993 6.7018 10.9459 6.84744L8.18359 9.61457L19.6164 9.61457C19.8295 9.61457 20 9.79448 20 10.0001C20 10.2057 19.8295 10.3856 19.6164 10.3856L8.19212 10.3856L10.9459 13.1527C11.0993 13.3069 11.0993 13.5468 10.9459 13.701C10.8009 13.8467 10.5452 13.8467 10.4002 13.701L6.99002 10.2742C6.89624 10.18 6.86213 10.0515 6.88771 9.92298L6.93886 9.79448L6.99002 9.72594Z" fill="black"/>
</svg>
