<?xml version="1.0" encoding="UTF-8"?>
<svg width="76px" height="76px" viewBox="0 0 76 76" version="1.1" xmlns="http://www.w3.org/2000/svg" xmlns:xlink="http://www.w3.org/1999/xlink">
    <!-- Generator: Sketch 50.2 (55047) - http://www.bohemiancoding.com/sketch -->
    <title>Stashify-logo</title>
    <desc>Created with Sketch.</desc>
    <defs></defs>
    <g id="Stashify-logo" stroke="none" stroke-width="1" fill="none" fill-rule="evenodd">
        <path d="M9.9,69.21 C9.04999575,69.21 8.225004,69.105001 7.425,68.895 C6.624996,68.6849989 5.9750025,68.4050017 5.475,68.055 L6.45,65.865 C6.92000235,66.1750016 7.4649969,66.424999 8.085,66.615 C8.7050031,66.8050009 9.314997,66.9 9.915,66.9 C11.0550057,66.9 11.625,66.6150028 11.625,66.045 C11.625,65.7449985 11.4625016,65.5225007 11.1375,65.3775 C10.8124984,65.2324993 10.2900036,65.0800008 9.57,64.92 C8.77999605,64.7499992 8.12000265,64.567501 7.59,64.3725 C7.05999735,64.177499 6.6050019,63.8650021 6.225,63.435 C5.8449981,63.0049978 5.655,62.4250036 5.655,61.695 C5.655,61.0549968 5.82999825,60.4775026 6.18,59.9625 C6.53000175,59.4474974 7.05249653,59.0400015 7.7475,58.74 C8.44250348,58.4399985 9.29499495,58.29 10.305,58.29 C10.9950035,58.29 11.6749967,58.3674992 12.345,58.5225 C13.0150034,58.6775008 13.6049975,58.9049985 14.115,59.205 L13.2,61.41 C12.199995,60.8699973 11.2300047,60.6 10.29,60.6 C9.69999705,60.6 9.27000135,60.6874991 9,60.8625 C8.72999865,61.0375009 8.595,61.2649986 8.595,61.545 C8.595,61.8250014 8.7549984,62.0349993 9.075,62.175 C9.3950016,62.3150007 9.90999645,62.4599992 10.62,62.61 C11.420004,62.7800008 12.0824974,62.962499 12.6075,63.1575 C13.1325026,63.352501 13.5874981,63.6624979 13.9725,64.0875 C14.3575019,64.5125021 14.55,65.0899964 14.55,65.82 C14.55,66.4500032 14.3750018,67.0199975 14.025,67.53 C13.6749983,68.0400025 13.1500035,68.4474985 12.45,68.7525 C11.7499965,69.0575015 10.900005,69.21 9.9,69.21 Z M20.965,68.67 C20.7249988,68.8200007 20.4325017,68.9349996 20.0875,69.015 C19.7424983,69.0950004 19.375002,69.135 18.985,69.135 C17.9249947,69.135 17.1125028,68.8750026 16.5475,68.355 C15.9824972,67.8349974 15.7,67.0600051 15.7,66.03 L15.7,59.055 L18.55,59.055 L18.55,61.17 L20.395,61.17 L20.395,63.3 L18.55,63.3 L18.55,66 C18.55,66.3000015 18.6249993,66.5299992 18.775,66.69 C18.9250008,66.8500008 19.1299987,66.93 19.39,66.93 C19.7200017,66.93 20.0099988,66.8450009 20.26,66.675 L20.965,68.67 Z M30.365,60.87 L30.365,69 L27.65,69 L27.65,68.19 C27.1199974,68.8200032 26.3200054,69.135 25.25,69.135 C24.5099963,69.135 23.837503,68.9625017 23.2325,68.6175 C22.627497,68.2724983 22.1475018,67.7800032 21.7925,67.14 C21.4374982,66.4999968 21.26,65.7600042 21.26,64.92 C21.26,64.0799958 21.4374982,63.3425032 21.7925,62.7075 C22.1475018,62.0724968 22.627497,61.5850017 23.2325,61.245 C23.837503,60.9049983 24.5099963,60.735 25.25,60.735 C26.2100048,60.735 26.9649973,61.0149972 27.515,61.575 L27.515,60.87 L30.365,60.87 Z M25.85,66.87 C26.3500025,66.87 26.7599984,66.6975017 27.08,66.3525 C27.4000016,66.0074983 27.56,65.5300031 27.56,64.92 C27.56,64.319997 27.4000016,63.8500017 27.08,63.51 C26.7599984,63.1699983 26.3500025,63 25.85,63 C25.3499975,63 24.9400016,63.1699983 24.62,63.51 C24.2999984,63.8500017 24.14,64.319997 24.14,64.92 C24.14,65.5300031 24.2999984,66.0074983 24.62,66.3525 C24.9400016,66.6975017 25.3499975,66.87 25.85,66.87 Z M35.1,69.135 C34.4199966,69.135 33.7500033,69.0575008 33.09,68.9025 C32.4299967,68.7474992 31.900002,68.5450012 31.5,68.295 L32.355,66.345 C32.7250019,66.5750012 33.1649975,66.7574993 33.675,66.8925 C34.1850026,67.0275007 34.6899975,67.095 35.19,67.095 C35.6500023,67.095 35.977499,67.0475005 36.1725,66.9525 C36.367501,66.8574995 36.465,66.7200009 36.465,66.54 C36.465,66.3599991 36.3475012,66.2325004 36.1125,66.1575 C35.8774988,66.0824996 35.5050026,66.0100003 34.995,65.94 C34.3449968,65.8599996 33.7925023,65.7550006 33.3375,65.625 C32.8824977,65.4949994 32.4900017,65.2550018 32.16,64.905 C31.8299984,64.5549982 31.665,64.0650031 31.665,63.435 C31.665,62.9149974 31.8199985,62.452502 32.13,62.0475 C32.4400016,61.642498 32.892497,61.3225012 33.4875,61.0875 C34.082503,60.8524988 34.7949959,60.735 35.625,60.735 C36.215003,60.735 36.7999971,60.7949994 37.38,60.915 C37.9600029,61.0350006 38.4449981,61.2049989 38.835,61.425 L37.98,63.36 C37.2599964,62.959998 36.4800042,62.76 35.64,62.76 C35.1899978,62.76 34.8600011,62.8124995 34.65,62.9175 C34.439999,63.0225005 34.335,63.1599992 34.335,63.33 C34.335,63.5200009 34.4499989,63.6524996 34.68,63.7275 C34.9100012,63.8025004 35.2899974,63.8799996 35.82,63.96 C36.4900034,64.0600005 37.0449978,64.1749994 37.485,64.305 C37.9250022,64.4350007 38.3074984,64.6724983 38.6325,65.0175 C38.9575016,65.3625017 39.12,65.8449969 39.12,66.465 C39.12,66.9750025 38.9650016,67.432498 38.655,67.8375 C38.3449985,68.242502 37.887503,68.5599988 37.2825,68.79 C36.677497,69.0200011 35.9500043,69.135 35.1,69.135 Z M45.595,60.735 C46.605005,60.735 47.4174969,61.034997 48.0325,61.635 C48.6475031,62.235003 48.955,63.139994 48.955,64.35 L48.955,69 L46.105,69 L46.105,64.815 C46.105,63.7049945 45.6600044,63.15 44.77,63.15 C44.2799975,63.15 43.8875015,63.3099984 43.5925,63.63 C43.2974985,63.9500016 43.15,64.4299968 43.15,65.07 L43.15,69 L40.3,69 L40.3,57.87 L43.15,57.87 L43.15,61.62 C43.4600015,61.3299985 43.8249979,61.1100007 44.245,60.96 C44.6650021,60.8099993 45.1149976,60.735 45.595,60.735 Z M50.69,60.87 L53.54,60.87 L53.54,69 L50.69,69 L50.69,60.87 Z M52.115,59.97 C51.5949974,59.97 51.1750016,59.8250015 50.855,59.535 C50.5349984,59.2449986 50.375,58.8850022 50.375,58.455 C50.375,58.0249979 50.5349984,57.6650014 50.855,57.375 C51.1750016,57.0849986 51.5949974,56.94 52.115,56.94 C52.6350026,56.94 53.0549984,57.0774986 53.375,57.3525 C53.6950016,57.6275014 53.855,57.9799979 53.855,58.41 C53.855,58.8600023 53.6950016,59.2324985 53.375,59.5275 C53.0549984,59.8225015 52.6350026,59.97 52.115,59.97 Z M58.44,61.17 L60.375,61.17 L60.375,63.3 L58.515,63.3 L58.515,69 L55.665,69 L55.665,63.3 L54.48,63.3 L54.48,61.17 L55.665,61.17 L55.665,60.96 C55.665,59.9699951 55.962497,59.1850029 56.5575,58.605 C57.152503,58.0249971 57.9849946,57.735 59.055,57.735 C59.4150018,57.735 59.7649983,57.7699997 60.105,57.84 C60.4450017,57.9100004 60.7249989,58.0149993 60.945,58.155 L60.24,60.165 C59.9599986,60.0049992 59.6750014,59.925 59.385,59.925 C59.0849985,59.925 58.8525008,60.0149991 58.6875,60.195 C58.5224992,60.3750009 58.44,60.6399983 58.44,60.99 L58.44,61.17 Z M69.925,60.87 L69.925,67.515 C69.925,69.0250075 69.522504,70.1574962 68.7175,70.9125 C67.912496,71.6675038 66.7550075,72.045 65.245,72.045 C64.454996,72.045 63.7175034,71.9550009 63.0325,71.775 C62.3474966,71.5949991 61.7650024,71.3300018 61.285,70.98 L62.32,68.985 C62.6400016,69.2550014 63.0424976,69.4674992 63.5275,69.6225 C64.0125024,69.7775008 64.4949976,69.855 64.975,69.855 C65.6950036,69.855 66.2249983,69.6900016 66.565,69.36 C66.9050017,69.0299983 67.075,68.5400032 67.075,67.89 L67.075,67.71 C66.4649969,68.2900029 65.7050045,68.58 64.795,68.58 C63.7449947,68.58 62.9075031,68.2700031 62.2825,67.65 C61.6574969,67.0299969 61.345,66.1000062 61.345,64.86 L61.345,60.87 L64.195,60.87 L64.195,64.395 C64.195,65.0150031 64.3099988,65.4649986 64.54,65.745 C64.7700011,66.0250014 65.1049978,66.165 65.545,66.165 C65.9950022,66.165 66.3624986,66.0050016 66.6475,65.685 C66.9325014,65.3649984 67.075,64.8850032 67.075,64.245 L67.075,60.87 L69.925,60.87 Z" id="Stashify" fill="#272625"></path>
        <path d="M38,44 C45.7319865,44 52,37.7319865 52,30 C52,22.2680135 45.7319865,16 38,16 C30.2680135,16 24,22.2680135 24,30 C24,37.7319865 30.2680135,44 38,44 Z M38,50 C29.0203486,50 21.4228876,44.0821392 18.8949123,35.9337128 C18.6029539,35.9773738 18.3041193,36 18,36 C14.6862915,36 12,33.3137085 12,30 C12,26.6862915 14.6862915,24 18,24 C18.3041193,24 18.6029539,24.0226262 18.8949123,24.0662872 C21.4228876,15.9178608 29.0203486,10 38,10 C46.9796514,10 54.5771124,15.9178608 57.1050877,24.0662872 C57.3970461,24.0226262 57.6958807,24 58,24 C61.3137085,24 64,26.6862915 64,30 C64,33.3137085 61.3137085,36 58,36 C57.6958807,36 57.3970461,35.9773738 57.1050877,35.9337128 C54.5771124,44.0821392 46.9796514,50 38,50 Z M38,36 C41.3137085,36 44,33.3137085 44,30 C44,26.6862915 41.3137085,24 38,24 C34.6862915,24 32,26.6862915 32,30 C32,33.3137085 34.6862915,36 38,36 Z" id="Combined-Shape" fill="#F5316E" fill-rule="nonzero"></path>
    </g>
</svg>