<svg width="24" height="23" viewBox="0 0 24 23" fill="#000" version="1.1">
  <path d="M 11.960938 5.5 C 9.6377508 5.5000001 7.7363281 7.368977 7.7363281 9.6699219 C 7.7363283 11.970867 9.6377509 13.839844 11.960938 13.839844 C 14.284124 13.839844 16.185547 11.970867 16.185547 9.6699219 C 16.185547 7.368977 14.284124 5.5000001 11.960938 5.5 z M 11.960938 6.5 C 13.751632 6.5 15.185547 7.9174832 15.185547 9.6699219 C 15.185547 11.42236 13.751632 12.839844 11.960938 12.839844 C 10.170243 12.839844 8.7363282 11.42236 8.7363281 9.6699219 C 8.7363281 7.9174832 10.170243 6.5 11.960938 6.5 z "/>
  <path d="M 11.960938 12.839844 C 7.9921754 12.839844 4.7578125 16.022963 4.7578125 19.945312 A 0.5 0.5 0 0 0 5.2578125 20.445312 A 0.5 0.5 0 0 0 5.7578125 19.945312 C 5.7578125 16.571462 8.5246596 13.839844 11.960938 13.839844 C 15.397194 13.839844 18.166016 16.571456 18.166016 19.945312 A 0.5 0.5 0 0 0 18.666016 20.445312 A 0.5 0.5 0 0 0 19.166016 19.945312 C 19.166016 16.022969 15.929681 12.839844 11.960938 12.839844 z " />
  <path d="M 12.015625 0 C 5.572543 0 0.34375 5.1574634 0.34375 11.5 C 0.34375 17.842565 5.5725446 23 12.015625 23 C 18.458667 23 23.6875 17.842565 23.6875 11.5 C 23.6875 5.1574639 18.458669 0 12.015625 0 z M 12.015625 1 C 17.926381 1 22.6875 5.7061961 22.6875 11.5 C 22.6875 17.293835 17.926383 22 12.015625 22 C 6.1048254 22 1.34375 17.293835 1.34375 11.5 C 1.34375 5.7061966 6.104827 1 12.015625 1 z " />
</svg>
