<svg width="20" height="20" viewBox="0 0 20 20" fill="none" xmlns="http://www.w3.org/2000/svg">
<path d="M9.29945 12.6284H2.29365C2.20844 12.6284 2.12672 12.5945 2.06646 12.5343C2.00621 12.474 1.97236 12.3923 1.97236 12.3071V12.1911C1.97236 12.1059 2.00621 12.0242 2.06646 11.9639C2.12672 11.9036 2.20844 11.8698 2.29365 11.8698H9.29945C9.38466 11.8698 9.46638 11.9036 9.52663 11.9639C9.58688 12.0242 9.62073 12.1059 9.62073 12.1911V12.3071C9.62073 12.3923 9.58688 12.474 9.52663 12.5343C9.46638 12.5945 9.38466 12.6284 9.29945 12.6284ZM14.5471 13.9046V13.7886C14.5471 13.7049 14.5145 13.6245 14.4562 13.5645C14.3978 13.5045 14.3184 13.4696 14.2347 13.4673H2.29365C2.20844 13.4673 2.12672 13.5011 2.06646 13.5614C2.00621 13.6217 1.97236 13.7034 1.97236 13.7886V13.9046C1.97236 13.9898 2.00621 14.0715 2.06646 14.1318C2.12672 14.192 2.20844 14.2259 2.29365 14.2259H14.2794C14.355 14.2131 14.4236 14.1737 14.4727 14.1148C14.5218 14.0558 14.5482 13.9813 14.5471 13.9046ZM19.9019 14.6096C19.8972 15.1131 19.6939 15.5943 19.3362 15.9486C18.9785 16.3029 18.4954 16.5017 17.992 16.5017H1.92774C1.42818 16.4877 0.953779 16.2794 0.605437 15.9211C0.257096 15.5627 0.0623055 15.0826 0.0625001 14.5829V5.4084C0.0625001 4.90187 0.263717 4.41609 0.621886 4.05792C0.980054 3.69975 1.46583 3.49854 1.97236 3.49854L18.3222 3.56993C18.7554 3.63689 19.1524 3.85083 19.4465 4.17584C19.7406 4.50085 19.914 4.91714 19.9376 5.35485L19.9019 14.6096ZM19.1433 8.85329H0.82109V14.5918C0.821085 14.7426 0.850926 14.8918 0.908892 15.031C0.966857 15.1702 1.0518 15.2965 1.15882 15.4027C1.26585 15.5089 1.39284 15.5929 1.53246 15.6498C1.67209 15.7066 1.8216 15.7353 1.97236 15.7341H18.0366C18.3404 15.7342 18.6319 15.6141 18.8476 15.4001C19.0632 15.1861 19.1855 14.8956 19.1879 14.5918L19.1433 8.85329ZM19.1433 6.55967H0.82109V8.08577H19.179L19.1433 6.55967ZM19.1433 5.4084C19.1433 5.11001 19.0267 4.82343 18.8182 4.60996C18.6097 4.39648 18.326 4.27304 18.0277 4.26605H1.96344C1.66047 4.26605 1.36991 4.3864 1.15568 4.60064C0.941444 4.81487 0.82109 5.10543 0.82109 5.4084V5.79215H19.179L19.1433 5.4084Z" fill="black"/>
</svg>
