<svg xmlns="http://www.w3.org/2000/svg" width="24" height="24" viewBox="0 0 24 24">
  <g>
    <path d="M5 13C4.44771525 13 4 12.5522847 4 12 4 11.4477153 4.44771525 11 5 11L19 11C19.5522847 11 20 11.4477153 20 12 20 12.5522847 19.5522847 13 19 13L5 13zM5 7C4.44771525 7 4 6.55228475 4 6 4 5.44771525 4.44771525 5 5 5L15 5C15.5522847 5 16 5.44771525 16 6 16 6.55228475 15.5522847 7 15 7L5 7zM5 19C4.44771525 19 4 18.5522847 4 18 4 17.4477153 4.44771525 17 5 17L11 17C11.5522847 17 12 17.4477153 12 18 12 18.5522847 11.5522847 19 11 19L5 19z"/>
  </g>
</svg>
