<?xml version="1.0" encoding="UTF-8"?>
<svg width="24px" height="24px" viewBox="0 0 24 24" version="1.1" xmlns="http://www.w3.org/2000/svg" xmlns:xlink="http://www.w3.org/1999/xlink">
    <!-- Generator: Sketch 53.1 (72631) - https://sketchapp.com -->
    <title>Untitled 2</title>
    <desc>Created with Sketch.</desc>
    <g id="Page-1" stroke="none" stroke-width="1" fill="none" fill-rule="evenodd">
        <g id="notvalid">
            <polygon id="Path" points="0 0 24 0 24 24 0 24"></polygon>
            <path d="M12,2 C6.475,2 2,6.475 2,12 C2,17.525 6.475,22 12,22 C17.525,22 22,17.525 22,12 C22,6.475 17.525,2 12,2 Z M12,20 C7.58,20 4,16.42 4,12 C4,10.15 4.635,8.455 5.685,7.1 L16.9,18.315 C15.545,19.365 13.85,20 12,20 Z M18.315,16.9 L7.1,5.685 C8.455,4.635 10.15,4 12,4 C16.42,4 20,7.58 20,12 C20,13.85 19.365,15.545 18.315,16.9 Z" id="Shape" fill="#000000" fill-rule="nonzero"></path>
        </g>
    </g>
</svg>