<svg width="17" height="17" viewBox="0 0 17 17" fill="none" xmlns="http://www.w3.org/2000/svg">
<path fill-rule="evenodd" clip-rule="evenodd" d="M16.2 8.5C16.2 12.7526 12.7526 16.2 8.5 16.2C4.24741 16.2 0.8 12.7526 0.8 8.5C0.8 4.24741 4.24741 0.8 8.5 0.8C12.7526 0.8 16.2 4.24741 16.2 8.5ZM17 8.5C17 13.1944 13.1944 17 8.5 17C3.80558 17 0 13.1944 0 8.5C0 3.80558 3.80558 0 8.5 0C13.1944 0 17 3.80558 17 8.5ZM6.17889 4.64223C6.05489 4.58023 5.90763 4.58686 5.78971 4.65974C5.67178 4.73262 5.6 4.86137 5.6 5V12C5.6 12.1386 5.67178 12.2674 5.78971 12.3403C5.90763 12.4131 6.05489 12.4198 6.17889 12.3578L13.1789 8.85777C13.3144 8.79001 13.4 8.65151 13.4 8.5C13.4 8.34849 13.3144 8.20999 13.1789 8.14223L6.17889 4.64223ZM12.1056 8.5L6.4 11.3528V5.64721L12.1056 8.5Z" fill="black"/>
</svg>
