<svg width="24" height="24" viewBox="0 0 14 14" fill="none" xmlns="http://www.w3.org/2000/svg">
  <path d="M7 0C3.13812 0 0 3.13812 0 7C0 10.8619 3.13812 14 7 14C10.8619 14 14 10.8619 14 7C14 3.13812 10.8564 0 7 0ZM7 13.442C3.44199 13.442 0.552486 10.5525 0.552486 7C0.552486 3.44751 3.44199 0.552486 7 0.552486C10.558 0.552486 13.4475 3.44199 13.4475 7C13.4475 10.558 10.5525 13.442 7 13.442Z" fill="black"/>
  <path fill-rule="evenodd" clip-rule="evenodd" d="M7.31121 3.85C7.31121 3.6567 7.15451 3.5 6.96121 3.5C6.76791 3.5 6.61121 3.6567 6.61121 3.85V6.61035H3.85C3.6567 6.61035 3.5 6.76705 3.5 6.96035C3.5 7.15365 3.6567 7.31035 3.85 7.31035H6.61121V10.15C6.61121 10.3433 6.76791 10.5 6.96121 10.5C7.15451 10.5 7.31121 10.3433 7.31121 10.15V7.31035H10.15C10.3433 7.31035 10.5 7.15365 10.5 6.96035C10.5 6.76705 10.3433 6.61035 10.15 6.61035H7.31121V3.85Z" fill="black"/>
</svg>
