<svg xmlns="http://www.w3.org/2000/svg" width="24" height="24" viewBox="0 0 24 24">
  <path d="M11,11 L11,4.66666667 C11,4.11438192 11.4477153,3.66666667 12,3.66666667 C12.5522847,3.66666667 13,4.11438192 13,4.66666667 L13,11 L19.3333333,11 C19.8856181,11 20.3333333,11.4477153 20.3333333,12 C20.3333333,12.5522847 19.8856181,13 19.3333333,13 L13,13 L13,19.3333333 C13,19.8856181 12.5522847,20.3333333 12,20.3333333 C11.4477153,20.3333333 11,19.8856181 11,19.3333333 L11,13 L4.66384831,13 C4.11156356,13 3.66384831,12.5522847 3.66384831,12 C3.66384831,11.4477153 4.11156356,11 4.66384831,11 L11,11 Z"/>
</svg>
