<svg width="23" height="21" viewBox="0 0 23 21" fill="none" xmlns="http://www.w3.org/2000/svg">
<path d="M0.869102 3.32829H3.14125C3.26064 3.97531 3.60672 4.56053 4.11916 4.98191C4.63159 5.40329 5.27787 5.63409 5.94531 5.63409C6.61276 5.63409 7.25904 5.40329 7.77147 4.98191C8.28391 4.56053 8.62999 3.97531 8.74938 3.32829H21.7124C21.8518 3.32829 21.9854 3.27375 22.0839 3.17668C22.1824 3.07961 22.2378 2.94795 22.2378 2.81066C22.2378 2.67338 22.1824 2.54172 22.0839 2.44465C21.9854 2.34757 21.8518 2.29304 21.7124 2.29304H8.74938C8.62695 1.64653 8.2781 1.06288 7.76366 0.643836C7.24922 0.224794 6.60182 -0.00304952 5.93435 3.08289e-05C5.26688 0.00311118 4.62168 0.236921 4.11125 0.660692C3.60081 1.08446 3.25753 1.67131 3.14125 2.31892H0.869102C0.72977 2.31892 0.596145 2.37345 0.497622 2.47053C0.3991 2.5676 0.34375 2.69926 0.34375 2.83654C0.34375 2.97383 0.3991 3.10549 0.497622 3.20256C0.596145 3.29963 0.72977 3.35417 0.869102 3.35417V3.32829ZM5.95188 1.06368C6.30775 1.06368 6.65564 1.16765 6.95153 1.36246C7.24743 1.55726 7.47806 1.83415 7.61424 2.1581C7.75043 2.48205 7.78606 2.83851 7.71664 3.18241C7.64721 3.52632 7.47584 3.84221 7.2242 4.09015C6.97256 4.33809 6.65195 4.50694 6.30291 4.57535C5.95388 4.64376 5.59209 4.60865 5.26331 4.47446C4.93452 4.34028 4.65351 4.11304 4.45579 3.8215C4.25808 3.52995 4.15255 3.18718 4.15255 2.83654C4.15255 2.36635 4.34212 1.91541 4.67956 1.58294C5.017 1.25046 5.47467 1.06368 5.95188 1.06368Z" fill="white"/>
<path d="M21.7124 9.53981H18.0087C17.8823 8.90019 17.5341 8.3238 17.0237 7.9094C16.5133 7.49499 15.8726 7.26837 15.2112 7.26837C14.5499 7.26837 13.9091 7.49499 13.3987 7.9094C12.8883 8.3238 12.5401 8.90019 12.4137 9.53981H0.869102C0.72977 9.53981 0.596145 9.59434 0.497622 9.69142C0.3991 9.78849 0.34375 9.92015 0.34375 10.0574C0.34375 10.1947 0.3991 10.3264 0.497622 10.4234C0.596145 10.5205 0.72977 10.5751 0.869102 10.5751H12.4137C12.5331 11.2221 12.8792 11.8073 13.3916 12.2287C13.904 12.6501 14.5503 12.8809 15.2178 12.8809C15.8852 12.8809 16.5315 12.6501 17.0439 12.2287C17.5564 11.8073 17.9024 11.2221 18.0218 10.5751H21.7124C21.8518 10.5751 21.9854 10.5205 22.0839 10.4234C22.1824 10.3264 22.2378 10.1947 22.2378 10.0574C22.2378 9.92015 22.1824 9.78849 22.0839 9.69142C21.9854 9.59434 21.8518 9.53981 21.7124 9.53981ZM15.1455 11.8691C14.7897 11.8691 14.4418 11.7651 14.1459 11.5703C13.85 11.3755 13.6194 11.0987 13.4832 10.7747C13.347 10.4508 13.3114 10.0943 13.3808 9.75039C13.4502 9.40648 13.6216 9.09059 13.8732 8.84265C14.1249 8.59471 14.4455 8.42586 14.7945 8.35745C15.1435 8.28904 15.5053 8.32415 15.8341 8.45834C16.1629 8.59252 16.4439 8.81976 16.6416 9.1113C16.8393 9.40285 16.9449 9.74561 16.9449 10.0963C16.9452 10.5555 16.7646 10.9969 16.4413 11.3275C16.1179 11.6582 15.6769 11.8524 15.2112 11.8691H15.1455Z" fill="white"/>
<path d="M21.7126 16.7736H11.0874C10.968 16.1266 10.6219 15.5414 10.1095 15.12C9.59703 14.6986 8.95075 14.4678 8.2833 14.4678C7.61586 14.4678 6.96958 14.6986 6.45715 15.12C5.94471 15.5414 5.59863 16.1266 5.47924 16.7736H0.869275C0.799793 16.7719 0.73067 16.784 0.666115 16.8094C0.60156 16.8348 0.542923 16.8729 0.493775 16.9213C0.444627 16.9697 0.405996 17.0275 0.380234 17.0911C0.354472 17.1547 0.342117 17.2228 0.343923 17.2913C0.343923 17.4286 0.399273 17.5602 0.497795 17.6573C0.596318 17.7544 0.729943 17.8089 0.869275 17.8089H5.47924C5.59863 18.4559 5.94471 19.0411 6.45715 19.4625C6.96958 19.8839 7.61586 20.1147 8.2833 20.1147C8.95075 20.1147 9.59703 19.8839 10.1095 19.4625C10.6219 19.0411 10.968 18.4559 11.0874 17.8089H21.7126C21.8519 17.8089 21.9856 17.7544 22.0841 17.6573C22.1826 17.5602 22.238 17.4286 22.238 17.2913C22.2398 17.2228 22.2274 17.1547 22.2017 17.0911C22.1759 17.0275 22.1373 16.9697 22.0881 16.9213C22.039 16.8729 21.9803 16.8348 21.9158 16.8094C21.8512 16.784 21.7821 16.7719 21.7126 16.7736ZM8.27674 19.0641C7.91771 19.0641 7.56677 18.9591 7.26843 18.7623C6.9701 18.5654 6.73781 18.2858 6.60102 17.9587C6.46423 17.6316 6.42911 17.2719 6.50012 16.9251C6.57112 16.5784 6.74505 16.2602 6.99985 16.011C7.25464 15.7618 7.57882 15.5927 7.93126 15.5253C8.28371 15.4578 8.64854 15.495 8.97949 15.6322C9.31043 15.7693 9.59258 16.0002 9.79015 16.2956C9.98772 16.591 10.0918 16.9375 10.0892 17.2913C10.0857 17.7626 9.89325 18.2136 9.55372 18.5457C9.21419 18.8778 8.75517 19.0641 8.27674 19.0641Z" fill="white"/>
</svg>
