<?xml version="1.0" encoding="utf-8"?>
<!-- Generator: Adobe Illustrator 24.1.0, SVG Export Plug-In . SVG Version: 6.00 Build 0)  -->
<svg version="1.1" id="Capa_1" xmlns="http://www.w3.org/2000/svg" xmlns:xlink="http://www.w3.org/1999/xlink" x="0px" y="0px"
	 viewBox="0 0 19.5 19.5" style="enable-background:new 0 0 19.5 19.5;" xml:space="preserve">
<style type="text/css">
	.st0{display:none;}
</style>
<g id="Capa_3" class="st0">
</g>
<g id="Capa_1_1_">
</g>
<g id="guies">
	<g>
		<g>
			<path d="M19.1,3.7h-7.4c-0.2,0-0.5,0.2-0.5,0.5V7c0,0.2,0.2,0.5,0.5,0.5c0.1,0,0.1,0,0.1,0l0.4-0.1c0.2-0.1,0.4,0,0.5,0
				c0.2,0.1,0.3,0.2,0.3,0.4c0.1,0.2,0,0.3,0,0.5s-0.2,0.3-0.4,0.3c-0.1,0-0.3,0-0.4,0l-0.4-0.1c-0.1,0-0.2,0-0.4,0
				c-0.1,0.1-0.2,0.1-0.2,0.3c0,0.1,0,0.1,0,0.1v2.3H8.8c-0.2,0-0.5,0.2-0.5,0.5c0,0.1,0,0.1,0,0.1l0.1,0.4c0.1,0.2,0,0.3,0,0.5
				S8.3,12.9,8.1,13c-0.2,0.1-0.3,0-0.5,0s-0.3-0.2-0.3-0.4c0-0.1,0-0.3,0-0.4l0.1-0.4c0-0.1,0-0.2,0-0.4c-0.1-0.1-0.2-0.2-0.3-0.2
				c-0.1,0-0.1,0-0.2,0H4.2c-0.2,0-0.5,0.2-0.5,0.5v7.4c0,0.2,0.2,0.5,0.5,0.5h14.9c0.2,0,0.5-0.2,0.5-0.5V4.2
				C19.5,3.9,19.3,3.7,19.1,3.7z M16.8,10.2c-0.2-0.4-0.5-0.6-0.9-0.8c-0.8-0.3-1.7,0.2-2,1c-0.1,0.2-0.1,0.5-0.1,0.8h-1.7V9.5
				c0.4,0.1,0.9,0,1.2-0.3c0.3-0.2,0.6-0.6,0.6-1c0.1-0.4,0-0.8-0.3-1.2c-0.4-0.5-1-0.8-1.6-0.6V4.6h6.5v6.5h-1.7
				C17,10.8,16.9,10.5,16.8,10.2z M9.5,12.1h1.7v2.3c0,0.2,0.2,0.5,0.5,0.5c0.1,0,0.1,0,0.1,0l0.4-0.1c0.2-0.1,0.3,0,0.5,0
				s0.3,0.2,0.3,0.4c0.1,0.2,0,0.3,0,0.5s-0.2,0.3-0.4,0.3c-0.1,0-0.3,0-0.4,0l-0.4-0.1c-0.1,0-0.2,0-0.4,0
				c-0.1,0.1-0.2,0.2-0.2,0.3c0,0,0,0.1,0,0.1v2.3H4.7v-6.5h1.7c-0.1,0.8,0.3,1.5,1.1,1.8C7.8,14,8.3,14,8.6,13.8
				c0.4-0.2,0.6-0.5,0.8-0.9C9.5,12.6,9.5,12.3,9.5,12.1z M12.1,16.9c0.8,0.1,1.5-0.3,1.8-1.1c0.1-0.4,0.1-0.8-0.1-1.2
				c-0.2-0.4-0.5-0.6-0.9-0.8c-0.2-0.1-0.5-0.1-0.8-0.1v-1.7h2.3c0.2,0,0.5-0.2,0.5-0.5c0-0.1,0-0.1,0-0.1l-0.1-0.4
				c-0.1-0.3,0.1-0.7,0.4-0.8c0.2-0.1,0.3,0,0.5,0s0.3,0.2,0.3,0.4c0,0.1,0,0.3,0,0.4l-0.1,0.4c0,0.1,0,0.2,0,0.4
				c0.1,0.1,0.2,0.2,0.3,0.2c0,0,0.1,0,0.1,0h2.3v6.5h-6.5L12.1,16.9L12.1,16.9z"/>
		</g>
		<g>
			<path d="M4.9,10c0.4-0.2,0.7-0.5,0.8-0.9c0.1-0.2,0.1-0.5,0.1-0.8h2.2c0.2,0,0.5-0.2,0.5-0.5V5.7c0.3,0.1,0.7,0,1-0.2
				c0.4-0.2,0.6-0.5,0.8-0.9c0.3-0.8-0.2-1.7-1-2l0,0c-0.2-0.1-0.5-0.1-0.8,0V0.5C8.4,0.2,8.2,0,7.9,0H0.5C0.2,0,0,0.2,0,0.5v7.4
				c0,0.2,0.2,0.5,0.5,0.5h2.2c-0.1,0.4,0,0.7,0.1,1C3,9.7,3.3,10,3.7,10.1c0.2,0.1,0.3,0.1,0.5,0.1C4.4,10.2,4.7,10.2,4.9,10z
				 M3.6,8.4l0.1-0.4c0.1-0.2,0-0.5-0.3-0.6c-0.1,0-0.1,0-0.2,0H0.9V0.9h6.5v2.3c0,0.3,0.3,0.5,0.6,0.4l0.4-0.1
				C8.8,3.5,9.2,3.6,9.3,4c0,0.2,0,0.3-0.1,0.5S9,4.8,8.9,4.8c-0.1,0-0.3,0-0.4,0L8.1,4.7C7.8,4.6,7.6,4.7,7.5,5c0,0,0,0.1,0,0.1
				v2.3H5.1c-0.2,0-0.5,0.2-0.5,0.5c0,0,0,0.1,0,0.1l0.1,0.4c0.1,0.2,0,0.3,0,0.5S4.6,9.2,4.4,9.3c-0.2,0.1-0.3,0.1-0.5,0
				S3.6,9,3.6,8.9C3.5,8.7,3.5,8.6,3.6,8.4z"/>
		</g>
	</g>
</g>
</svg>
