<?xml version="1.0" ?>
<svg xmlns="http://www.w3.org/2000/svg" viewBox="0 0 241 240.999" xmlns:xlink="http://www.w3.org/1999/xlink" enable-background="new 0 0 241 240.999">
<path fill="#fff" stroke="#880015" d="M240.5,216.421c0,13.299-10.746,24.078-24.003,24.078H24.503   c-13.256,0-24.003-10.779-24.003-24.078V24.578C0.5,11.28,11.247,0.5,24.503,0.5h191.994c13.257,0,24.003,10.78,24.003,24.078   V216.421z" stroke-miterlimit="10"/>
<path fill="#880015" d="M233,216.928c0,8.876-7.195,16.071-16.071,16.071H24.071C15.195,232.999,8,225.804,8,216.928V24.071   C8,15.195,15.195,8,24.071,8h192.857C225.804,8,233,15.195,233,24.071V216.928z"/>
<circle fill="#fff" cx="120.5" cy="120.499" r="99.101"/>
<g fill="#880015">
<path d="m145.757,205.229c0,2.485-2.462,4.5-5.5,4.5s-5.5-2.015-5.5-4.5v-90c0-3.083-1.75-9.5-5.25-11.5s-3.25-6.75-3.25-6.75v-53.5c0-11.75 19.5-9 19.5-9v170.75z"/>
<path d="m107.757,206.479c0,2.485-2.462,4.5-5.5,4.5s-5.5-2.015-5.5-4.5v-112.5c-8.917-8.75-10.672-15.225-9.417-26 1.486-12.752 5.635-33.78 5.635-33.78h1.313 .052v39.53h2.417l1.917-39.53h1.667l.833,39.53h2.583l.833-39.53h1.667l1.917,39.53h2.417v-39.53h.052 1.313c0,0 4.149,21.028 5.635,33.78 1.256,10.775-.5,17.25-9.417,26v112.5"/>
</g>
</svg>
