<?xml version="1.0" ?><!DOCTYPE svg  PUBLIC '-//W3C//DTD SVG 1.1//EN'  'http://www.w3.org/Graphics/SVG/1.1/DTD/svg11.dtd'><svg enable-background="new 0 0 141.732 141.732" height="141.732px" id="Livello_1" version="1.1" viewBox="0 0 141.732 141.732" width="141.732px" xml:space="preserve" xmlns="http://www.w3.org/2000/svg" xmlns:xlink="http://www.w3.org/1999/xlink"><g id="Livello_30"><path d="M137.309,46.159c-1.814-1.814-4.762-1.812-6.582,0.006l-14.498,14.499c0.074-1.133,0.119-2.266,0.129-3.413   C116.593,25.4,90.962-0.233,59.108,0C27.253,0.237,1.238,26.251,1.001,58.107c-0.231,31.855,25.395,57.488,57.252,57.251   c12.941-0.096,24.919-4.447,34.597-11.715l-8.207-8.206c-7.488,5.217-16.553,8.313-26.305,8.385   c-25.485,0.187-45.987-20.316-45.8-45.8c0.188-25.485,21.002-46.296,46.486-46.486c25.483-0.187,45.987,20.317,45.799,45.801   c-0.008,1.048-0.055,2.083-0.129,3.109L90.735,46.491V46.49c-1.824-1.823-4.799-1.801-6.652,0.052   c-1.852,1.85-1.873,4.831-0.049,6.65l23.109,23.112c1.469,1.471,3.688,1.735,5.457,0.817l0.074,0.073   c0.021-0.049,0.035-0.096,0.051-0.144c0.385-0.215,0.742-0.478,1.064-0.803L137.3,52.74   C139.126,50.922,139.128,47.975,137.309,46.159"/></g><g id="Livello_1_1_"/></svg>