<svg xmlns:svg="http://www.w3.org/2000/svg" xmlns="http://www.w3.org/2000/svg" width="38.795994" height="15.629053" viewBox="0 0 38.795994 15.629053" fill="#c4c4c4" version="1.1">
  <path d="m 27.820285,6.2505877 c -0.19,-0.1901 -0.4158,-0.3406 -0.6644,-0.4429 -0.2486,-0.1022 -0.515,-0.1541 -0.7838,-0.1527 -0.2728,0.0026 -0.5424,0.059 -0.7935,0.1659 -0.251,0.1068 -0.4785,0.2622 -0.6694,0.457 -0.191,0.1949 -0.3417,0.4254 -0.4435,0.6785 -0.1018,0.2531 -0.1527,0.5238 -0.1498,0.7966 -0.0044,0.2741 0.0466,0.5463 0.1499,0.8002 0.1032,0.254 0.2566,0.4845 0.4509,0.6779 0.1944,0.1933 0.4257,0.3455 0.6801,0.4474 0.2545,0.1019 0.5269,0.1515 0.801,0.1458 0.4087,-0.0041 0.807,-0.1291 1.1447,-0.3593 0.3376,-0.2302 0.5996,-0.5553 0.7527,-0.9342 0.1532,-0.3789 0.1907,-0.7947 0.1079,-1.1949 -0.0829,-0.4002 -0.2824,-0.7669 -0.5735,-1.0538 z m -1.4332,2.6908 c -0.1597,0.0026 -0.3182,-0.0273 -0.4659,-0.0878 -0.1478,-0.0605 -0.2818,-0.1503 -0.3939,-0.264 -0.1139,-0.1121 -0.2044,-0.2458 -0.2661,-0.3932 -0.0617,-0.1474 -0.0934,-0.3057 -0.0932,-0.4655 -0.0015,-0.2411 0.0687,-0.4773 0.2016,-0.6785 0.1328,-0.2012 0.3225,-0.3584 0.5448,-0.4518 0.2223,-0.0933 0.4674,-0.1186 0.7041,-0.0725 0.2367,0.046 0.4544,0.1613 0.6255,0.3312 0.1711,0.1699 0.2879,0.3868 0.3356,0.6232 0.0478,0.2363 0.0243,0.4816 -0.0675,0.7045 -0.0918,0.223 -0.2477,0.4138 -0.448,0.5481 -0.2002,0.1343 -0.4359,0.2061 -0.677,0.2063 z"/>
  <path d="m 26.898085,2.3459877 c -1.0799,0.0038 -2.1411,0.0705 -3.1939,0.1895 l -0.0729,0.0079 -0.0451,-0.0483 c -0.2525,-0.3624 -0.5359,-0.7024 -0.847,-1.0159 -2.0319,-2.01759004 -4.2493,-1.54479004 -6.582,-1.04490004 -1.2114,0.3015 -2.451,0.4756 -3.6985,0.5198 -0.0892,-0.0061 -0.178,0.016 -0.2539,0.0632 -0.0758,0.0473 -0.1349,0.1172 -0.1688,0.1999 -0.0339,0.0826 -0.0409,0.1739 -0.0201,0.2608 0.0209,0.0869 0.0686,0.165 0.1363,0.2233 l 0.0501,0.0536 3.1523,2.4876 -0.241,0.0642 c -0.1939,0.0504 -0.2779,0.0786 -0.7546,0.2021 l -0.1362,0.0368 c -0.0566,0.0185 -0.1085,0.0492 -0.152,0.0898 -0.0435,0.0406 -0.0777,0.0902 -0.1002,0.1453 -0.067,0.1327 -0.1339,0.2653 -0.1904,0.3983 l -0.034,0.0818 -2.5702,0.0193 c -0.0944,0.0017 -0.1856,0.0342 -0.2598,0.0925 -0.0742,0.0583 -0.1273,0.1393 -0.1512,0.2306 -0.1911,0.7447 -0.2893,1.5101 -0.2925,2.279 -0.0038,0.7756 0.0931,1.5485 0.2883,2.2993003 0.0265,0.0899 0.0811,0.1689 0.1556,0.2257 0.0746,0.0567 0.1654,0.0882 0.2591,0.0898 l 2.5648,-0.0142 0.055,0.059 c 0.0751,0.0805 0.1011,0.2267 0.1597,0.3326 l 0.0501,0.0537 c 0.0276,0.0518 0.0656,0.0974 0.1117,0.1339 0.046,0.0364 0.0992,0.0629 0.156,0.0779 l 0.7826,0.183 0.3654,0.0906 -0.1824,0.1702 -2.9488,2.3887 c -0.0674,0.0573 -0.1155,0.1339 -0.138,0.2194 -0.0224,0.0855 -0.0182,0.1759 0.0122,0.2589 0.0282,0.0832 0.0823,0.1551 0.1544,0.2052 0.072,0.0502 0.1582,0.076 0.246,0.0736 1.1319,0.0348 2.2572,0.1854 3.3584,0.4495 l 0.0301,0.0322 c 2.6493,0.5389 5.4063,1.1179 7.6958,-2.1607 l 0.0483,-0.045 0.0726,0.0025 c 1.061,0.1037 2.127,0.1479 3.193,0.1323 1.8742,-0.0309 3.7253,-0.4191 5.4541,-1.1436 2.2989,-0.9579 4.4136,-2.3086003 6.2492,-3.9917003 0.0416,-0.0406 0.0745,-0.0892 0.0969,-0.1428 0.0224,-0.0536 0.0338,-0.1112 0.0334,-0.1693 -0.0038,-0.1133 -0.0479,-0.2216 -0.1243,-0.3054 -1.8657,-1.669 -4.0104,-2.9967 -6.3362,-3.9225 -0.42,-0.16 -0.8276,-0.2313 -1.2488,-0.3602 -0.9504,-0.2825 -1.9261,-0.4713 -2.9132,-0.5638 -0.4427,-0.1088 -0.8653,-0.1963 -1.2754,-0.195 z m -13.2677,-0.6087 0.2868,-0.0367 c 0.8132,-0.0962 1.5716,-0.2618 2.2933,-0.4131 l 0.1255,-0.0267 c 2.2801,-0.48100004 4.116,-0.87890004 5.7951,0.8356 0.1346,0.1284 0.2616,0.2646 0.3803,0.4078 l 0.1501,0.161 -0.2192,0.0339 c -2.0155,0.3057 -4.0137,0.7159 -5.9866,1.2288 l -0.0376,0.0351 -0.06,-0.0644 z m -2.112,7.8581 -0.0225,-0.0994 c -0.2207,-1.0996 -0.227,-2.2314 -0.0185,-3.3333 l 0.019,-0.098 1.9637,-0.0456 -0.0365,0.1545 c -0.1265,0.5283 -0.1907,1.0696 -0.1913,1.6129 -9e-4,0.5486 0.0672,1.0951 0.2028,1.6266 l 0.0364,0.1467 z m 4.5998,4.7391003 -0.04,-0.043 c -0.6857,-0.1329 -1.3815,-0.2766 -2.0998,-0.3692 l -0.2793,-0.0305 2.7725,-2.2443 0.03,0.0322 c 1.9778,0.4844 3.9797,0.8645 5.9974,1.1386 l 0.217,0.0283 -0.1609,0.1502 c -1.8969,2.2904 -3.9935,1.8279 -6.4519,1.3216 z m 16.0085,-10.0929003 c 1.9824,0.8099 3.8277,1.9215 5.4705,3.2952 l 0.095,0.102 -0.1073,0.1 c -1.631,1.4013 -3.4713,2.5386003 -5.454,3.3706003 l -0.0805,0.0751 -0.0801,-0.0859 c -0.5405,-1.0403 -0.8239,-2.1951003 -0.8263,-3.3675003 -0.0024,-1.1724 0.2762,-2.3283 0.8125,-3.3709 l 0.0554,-0.1019 z m -0.9689,-0.2 c -0.5624,1.1309 -0.853,2.3774 -0.8487,3.6404 -0.001,1.2617 0.2991,2.5055003 0.8752,3.6280003 l 0.0629,0.1319 -0.1366,0.0472 c -1.349,0.4559 -2.7599,0.7025 -4.1836,0.7311 -4.4499,0.0367 -8.6026,-1.0063 -12.2269,-1.87 l -0.0619,-0.0126 -0.035,-0.0375 c -0.3701,-0.7747003 -0.5639,-1.6218003 -0.5675,-2.4804003 -0.0087,-0.8558 0.1808,-1.702 0.5536,-2.4723 l 0.0375,-0.0351 0.0376,-0.035 c 3.6358,-0.9527 7.7533,-2.0236 12.224,-2.0596 1.4233,-0.0045 2.8382,0.2167 4.1922,0.6551 l 0.1334,0.0462 z"/>
  <path d="m 8.2869752,6.4094877 c -0.38812,-0.384 -0.91269,-0.5983 -1.45863,-0.596 -0.28534,-0.0048 -0.28532,-0.0048 -1.71649,0.3968 -0.90154,0.2489 -2.38528,0.6694 -4.80558,1.3013 -0.089247,0.0263 -0.167409,0.0811 -0.222528,0.156 -0.055119,0.075 -0.0841559989,0.166 -0.082662,0.259 -0.007014,0.0946 0.020142,0.1885 0.076538,0.2648 0.056397,0.0763 0.138295,0.1298 0.230792,0.1508 2.39295,0.5975 3.84881,0.9754 4.75407,1.2146 1.50197,0.3951 1.50197,0.3951 1.76802,0.3576 0.26879,0.0014 0.53509,-0.0513 0.78307,-0.155 0.24798,-0.1037 0.47256,-0.2563 0.66033,-0.4486 0.38399,-0.392 0.59851,-0.9192 0.59727,-1.4679 -0.00123,-0.5488 -0.2181,-1.075 -0.60385,-1.4653 z m -1.47581,2.7204 -0.01554,-5e-4 1.8e-4,-0.0052 c -0.13516,0.0057 -0.13517,0.0057 -0.96356,-0.205 -0.58635,-0.1554 -1.5792,-0.4133 -3.35898,-0.8803 l -0.44762,-0.1143 0.44559,-0.1246 c 1.61353,-0.4212 2.5941,-0.7036 3.19703,-0.8746 0.35984,-0.1328 0.73412,-0.2225 1.11503,-0.2674 0.28332,0.0454 0.54173,0.1888 0.73018,0.4051 0.18845,0.2164 0.29499,0.4921 0.30104,0.7789 0.00604,0.2869 -0.08878,0.5668 -0.26795,0.7909 -0.17917,0.2241 -0.45405,0.4346 -0.73522,0.4918 z"/>
</svg>