<?xml version="1.0" encoding="utf-8"?>
<!-- Generator: Adobe Illustrator 24.3.0, SVG Export Plug-In . SVG Version: 6.00 Build 0)  -->
<svg version="1.1" xmlns="http://www.w3.org/2000/svg" xmlns:xlink="http://www.w3.org/1999/xlink" x="0px" y="0px"
	 viewBox="0 0 23 22" xml:space="preserve">
<style type="text/css">
	.st0{display:none;}
	.st1{fill:#221F20;}
	.st2{fill:#D73466;}
	.st3{fill:#E81C66;}
	.st4{fill:url(#SVGID_1_);}
	.st5{fill:url(#SVGID_2_);}
	.st6{fill:url(#SVGID_3_);}
	.st7{fill:#454ADE;}
	.st8{fill:#1E264F;}
	.st9{fill:#CCCED6;}
	.st10{fill:#EEEEF1;}
	.st11{fill:#F7F7F8;}
	.st12{fill:#81D8AC;}
	.st13{fill:url(#SVGID_4_);}
	.st14{fill:url(#SVGID_5_);}
	.st15{fill:url(#SVGID_6_);}
	.st16{fill:url(#SVGID_7_);}
	.st17{fill:none;stroke:#000000;stroke-linecap:round;stroke-miterlimit:10;}
	.st18{fill:none;stroke:#000000;stroke-width:1.4;stroke-linecap:round;stroke-miterlimit:10;}
	.st19{fill:#FFFFFF;}
	.st20{fill:#00444D;}
	.st21{fill:#007BFF;}
	.st22{fill:#BCBCBC;}
	.st23{fill:#8E8D8D;}
	.st24{fill:#CECECE;}
	.st25{fill:#F5F5F5;}
	.st26{fill:#FFFFFF;stroke:#221F20;stroke-linecap:round;stroke-linejoin:round;stroke-miterlimit:10;}
	.st27{fill:none;stroke:#221F20;stroke-miterlimit:10;}
	.st28{fill:#221F20;stroke:#221F20;stroke-miterlimit:10;}
	.st29{fill:url(#SVGID_26_);}
	.st30{fill:#DCD6D5;}
	.st31{fill:url(#SVGID_33_);}
	.st32{clip-path:url(#SVGID_35_);}
	.st33{opacity:0.7;}
	.st34{fill:url(#SVGID_40_);}
	.st35{fill:none;stroke:#000000;stroke-miterlimit:10;}
</style>
<g id="Capa_3" class="st0">
</g>
<g id="Capa_1">
</g>
<g id="guies">
	<g id="Grupo_148_2_" transform="translate(-213.001 -214.392)">
		<path id="Trazado_6_2_" class="st3" d="M223.72,228.86c-0.3,0.29-0.31,0.76-0.02,1.06c0.29,0.3,0.76,0.31,1.06,0.02
			c0.01-0.01,0.01-0.01,0.02-0.02l3.99-3.99c0.02-0.02,0.04-0.04,0.06-0.06l0.01-0.01c0.01-0.01,0.02-0.03,0.04-0.05l0.02-0.03
			c0.01-0.01,0.01-0.02,0.02-0.03s0.01-0.03,0.02-0.04l0.01-0.02c0.01-0.02,0.01-0.04,0.02-0.05l0.01-0.01
			c0.01-0.02,0.01-0.04,0.02-0.07l0,0c0.05-0.25-0.02-0.5-0.2-0.68l-4-4c-0.29-0.29-0.77-0.29-1.06,0s-0.29,0.77,0,1.06l2.72,2.72
			h-12.69c-0.41,0-0.75,0.34-0.75,0.75s0.34,0.75,0.75,0.75h12.69L223.72,228.86z"/>
		<path id="Trazado_7_2_" class="st3" d="M225,214.39c-4.53-0.02-8.6,2.76-10.24,6.98c-0.15,0.39,0.04,0.82,0.43,0.97
			s0.82-0.04,0.97-0.43c1.92-4.88,7.43-7.28,12.32-5.37c4.88,1.92,7.28,7.43,5.37,12.32s-7.43,7.28-12.32,5.37
			c-2.46-0.97-4.4-2.91-5.37-5.37c-0.15-0.39-0.59-0.58-0.97-0.43s-0.58,0.59-0.43,0.97c2.22,5.65,8.61,8.44,14.26,6.21
			s8.44-8.61,6.21-14.26C233.58,217.16,229.52,214.39,225,214.39L225,214.39z"/>
	</g>
</g>
</svg>
