<?xml version="1.0" encoding="utf-8"?>
<!-- Generator: Adobe Illustrator 24.3.0, SVG Export Plug-In . SVG Version: 6.00 Build 0)  -->
<svg version="1.1" xmlns="http://www.w3.org/2000/svg" xmlns:xlink="http://www.w3.org/1999/xlink" x="0px" y="0px"
  viewBox="0 0 25.33 25.33" xml:space="preserve">
  <g id="guies">
    <g>
      <path d="M12.67,0C5.68,0,0,5.68,0,12.67s5.68,12.67,12.67,12.67s12.67-5.68,12.67-12.67S19.65,0,12.67,0z
			 M12.67,24.33C6.23,24.33,1,19.1,1,12.67S6.23,1,12.67,1s11.67,5.23,11.67,11.67S19.1,24.33,12.67,24.33z" />
      <path d="M11.27,7.98c-0.21-0.18-0.52-0.16-0.71,0.05c-0.18,0.21-0.16,0.52,0.05,0.71l4.5,3.94l-4.5,4.02
			c-0.21,0.18-0.22,0.5-0.04,0.71c0.1,0.11,0.24,0.17,0.37,0.17c0.12,0,0.24-0.04,0.33-0.13l4.92-4.39c0.11-0.1,0.17-0.23,0.17-0.38
			c0-0.14-0.06-0.28-0.17-0.37L11.27,7.98z" />
    </g>
  </g>
</svg>
