<?xml version="1.0" encoding="utf-8"?>
<!-- Generator: Adobe Illustrator 24.3.0, SVG Export Plug-In . SVG Version: 6.00 Build 0)  -->
<svg version="1.1" xmlns="http://www.w3.org/2000/svg" xmlns:xlink="http://www.w3.org/1999/xlink" x="0px" y="0px"
	 viewBox="0 0 73.13 73.13" xml:space="preserve">
<g id="guies">
	<g>
		<path d="M53.93,19.54c-1.72-1.72-4.01-2.66-6.44-2.66s-4.72,0.95-6.44,2.66l-8.97,8.97c-0.43,0.43-0.83,0.92-1.17,1.43
			c-0.52,0.34-1,0.73-1.43,1.17l-8.97,8.97c-1.72,1.72-2.66,4.01-2.66,6.44s0.95,4.72,2.66,6.44c1.72,1.72,4.01,2.66,6.44,2.66
			c2.44,0,4.72-0.95,6.44-2.66l8.97-8.97c0.43-0.43,0.83-0.92,1.17-1.43c0.52-0.34,1-0.73,1.43-1.17l8.97-8.97
			c1.72-1.72,2.66-4.01,2.66-6.44C56.6,23.55,55.65,21.26,53.93,19.54z M45.39,23.88c0.56-0.56,1.31-0.87,2.1-0.87
			c0.79,0,1.54,0.31,2.1,0.87c0.56,0.56,0.87,1.31,0.87,2.1c0,0.79-0.31,1.54-0.87,2.1l-5.48,5.48c-0.44-0.91-1.03-1.73-1.75-2.45
			c-0.72-0.72-1.54-1.31-2.45-1.75L45.39,23.88z M38.87,37.89c-0.9,0.1-1.81-0.21-2.45-0.85c-0.63-0.63-0.95-1.54-0.85-2.44
			c0.57-0.07,1.12,0.02,1.62,0.26c0.31,0.14,0.58,0.34,0.83,0.58C38.66,36.08,38.98,36.99,38.87,37.89z M29.06,48.61
			c-0.87,0.87-2.25,1.11-3.36,0.59c-0.31-0.15-0.59-0.34-0.84-0.59c-0.56-0.56-0.87-1.31-0.87-2.1c0-0.79,0.31-1.54,0.87-2.1
			l5.48-5.48c0.44,0.91,1.03,1.73,1.75,2.45c0.72,0.72,1.55,1.31,2.45,1.75L29.06,48.61z M43.13,34.55l-2.5,2.5
			c-0.13,0.13-0.27,0.25-0.43,0.35c-0.04-1.08-0.49-2.12-1.25-2.88c-0.35-0.35-0.75-0.63-1.19-0.84c-0.85-0.4-1.83-0.5-2.76-0.29
			c-0.1,0-0.19,0.03-0.27,0.06c-0.7,0.2-1.34,0.57-1.84,1.07l-8.97,8.97c-0.81,0.81-1.25,1.88-1.25,3.02c0,1.14,0.44,2.22,1.25,3.02
			c0.35,0.35,0.76,0.64,1.21,0.85c0.57,0.27,1.18,0.4,1.81,0.4c1.13,0,2.24-0.46,3.03-1.25l5.88-5.88c1.57,0.48,3.26,0.52,4.85,0.13
			l-8.24,8.24c-1.47,1.47-3.43,2.28-5.52,2.28c-2.09,0-4.05-0.81-5.52-2.28c-1.47-1.47-2.28-3.43-2.28-5.52
			c0-2.09,0.81-4.05,2.28-5.52l8.97-8.97c0.4-0.4,0.85-0.76,1.33-1.07c1.26-0.8,2.72-1.21,4.2-1.21c0.88,0,1.77,0.15,2.61,0.45
			c1.1,0.39,2.07,1,2.9,1.83C42.17,32.76,42.74,33.6,43.13,34.55z M31.33,37.95l2.5-2.5c0.13-0.13,0.27-0.25,0.43-0.35
			c0.04,1.08,0.49,2.12,1.25,2.88c0.59,0.59,1.38,1.01,2.22,1.17c0.89,0.17,1.82,0.05,2.64-0.33c0.45-0.21,0.85-0.49,1.2-0.84
			l8.97-8.97c0.81-0.81,1.25-1.88,1.25-3.02c0-1.14-0.45-2.22-1.25-3.02c-0.81-0.81-1.88-1.25-3.02-1.25s-2.22,0.44-3.02,1.25
			l-5.88,5.88c-1.58-0.48-3.25-0.52-4.86-0.12l8.25-8.25c1.47-1.47,3.43-2.28,5.52-2.28c2.09,0,4.05,0.81,5.52,2.28
			c1.47,1.47,2.28,3.43,2.28,5.52c0,2.09-0.81,4.05-2.28,5.52l-8.97,8.97c-0.4,0.4-0.85,0.76-1.33,1.07
			c-1.25,0.79-2.7,1.21-4.19,1.21c-0.9,0-1.78-0.15-2.62-0.45c-1.1-0.39-2.07-1-2.9-1.83C32.28,39.74,31.72,38.89,31.33,37.95z"/>
		<g>
			<path d="M36.56,73.13C16.4,73.13,0,56.72,0,36.56C0,16.4,16.4,0,36.56,0c20.16,0,36.56,16.4,36.56,36.56
				C73.13,56.72,56.72,73.13,36.56,73.13z M36.56,1.58c-19.29,0-34.98,15.69-34.98,34.98c0,19.29,15.69,34.98,34.98,34.98
				c19.29,0,34.98-15.69,34.98-34.98C71.55,17.27,55.85,1.58,36.56,1.58z"/>
		</g>
	</g>
</g>
</svg>
