<?xml version="1.0" encoding="utf-8"?>
<!-- Generator: Adobe Illustrator 24.3.0, SVG Export Plug-In . SVG Version: 6.00 Build 0)  -->
<svg version="1.1" xmlns="http://www.w3.org/2000/svg" xmlns:xlink="http://www.w3.org/1999/xlink" x="0px" y="0px"
	 viewBox="0 0 22.41 22.41" style="enable-background:new 0 0 22.41 22.41;" xml:space="preserve">
<style type="text/css">
	.st0{display:none;}
	.st1{fill:#221F20;}
	.st2{fill:#D73466;}
	.st3{fill:#E81C66;}
	.st4{fill:url(#SVGID_1_);}
	.st5{fill:url(#SVGID_2_);}
	.st6{fill:url(#SVGID_3_);}
	.st7{fill:#454ADE;}
	.st8{fill:#1E264F;}
	.st9{fill:#CCCED6;}
	.st10{fill:#EEEEF1;}
	.st11{fill:#F7F7F8;}
	.st12{fill:#81D8AC;}
	.st13{fill:url(#SVGID_4_);}
	.st14{fill:url(#SVGID_5_);}
	.st15{fill:url(#SVGID_6_);}
	.st16{fill:url(#SVGID_7_);}
	.st17{fill:none;stroke:#000000;stroke-linecap:round;stroke-miterlimit:10;}
	.st18{fill:none;stroke:#000000;stroke-width:1.4;stroke-linecap:round;stroke-miterlimit:10;}
	.st19{fill:#FFFFFF;}
	.st20{fill:#00444D;}
	.st21{fill:#007BFF;}
	.st22{fill:#BCBCBC;}
	.st23{fill:#8E8D8D;}
	.st24{fill:#CECECE;}
	.st25{fill:#F5F5F5;}
	.st26{fill:#FFFFFF;stroke:#221F20;stroke-linecap:round;stroke-linejoin:round;stroke-miterlimit:10;}
	.st27{fill:none;stroke:#221F20;stroke-miterlimit:10;}
	.st28{fill:#221F20;stroke:#221F20;stroke-miterlimit:10;}
	.st29{fill:url(#SVGID_26_);}
	.st30{fill:#DCD6D5;}
	.st31{fill:url(#SVGID_33_);}
	.st32{clip-path:url(#SVGID_35_);}
	.st33{opacity:0.7;}
	.st34{fill:url(#SVGID_40_);}
	.st35{fill:none;stroke:#000000;stroke-miterlimit:10;}
</style>
<g id="Capa_3" class="st0">
</g>
<g id="Capa_1">
</g>
<g id="guies">
	<g>
		<path class="st3" d="M11.2,22.41C5.03,22.41,0,17.38,0,11.2S5.03,0,11.2,0c6.18,0,11.2,5.03,11.2,11.2S17.38,22.41,11.2,22.41z
			 M11.2,1.3c-5.46,0-9.9,4.44-9.9,9.9s4.44,9.9,9.9,9.9c5.46,0,9.9-4.44,9.9-9.9S16.66,1.3,11.2,1.3z M17.51,17.26
			c-0.25,0-0.5-0.15-0.6-0.4c-0.91-2.17-3.2-3.64-5.71-3.64c-2.5,0-4.79,1.46-5.71,3.64c-0.14,0.33-0.52,0.49-0.85,0.35
			c-0.33-0.14-0.49-0.52-0.35-0.85c1.12-2.65,3.89-4.43,6.9-4.43c3.07,0,5.78,1.74,6.9,4.43c0.14,0.33-0.02,0.71-0.35,0.85
			C17.68,17.24,17.59,17.26,17.51,17.26z M11.2,11.43c-2.01,0-3.64-1.63-3.64-3.64c0-2.01,1.63-3.64,3.64-3.64s3.64,1.63,3.64,3.64
			C14.85,9.79,13.21,11.43,11.2,11.43z M11.2,5.44c-1.29,0-2.34,1.05-2.34,2.34c0,1.29,1.05,2.34,2.34,2.34s2.34-1.05,2.34-2.34
			C13.55,6.49,12.5,5.44,11.2,5.44z"/>
	</g>
</g>
</svg>
