<?xml version="1.0" encoding="utf-8"?>
<!-- Generator: Adobe Illustrator 24.3.0, SVG Export Plug-In . SVG Version: 6.00 Build 0)  -->
<svg version="1.1" xmlns="http://www.w3.org/2000/svg" xmlns:xlink="http://www.w3.org/1999/xlink" x="0px" y="0px"
	 viewBox="0 0 25.33 25.33" xml:space="preserve">
<g id="guies">
	<g>
		<path d="M12.67,0C5.68,0,0,5.68,0,12.67s5.68,12.67,12.67,12.67s12.67-5.68,12.67-12.67S19.65,0,12.67,0z
			 M12.67,24.33C6.23,24.33,1,19.1,1,12.67S6.23,1,12.67,1s11.67,5.23,11.67,11.67S19.1,24.33,12.67,24.33z"/>
		<path d="M18.34,7c-0.2-0.2-0.51-0.2-0.71,0l-4.96,4.96L7.7,7C7.51,6.8,7.19,6.8,7,7S6.8,7.51,7,7.7l4.96,4.96L7,17.63
			c-0.2,0.2-0.2,0.51,0,0.71c0.1,0.1,0.23,0.15,0.35,0.15s0.26-0.05,0.35-0.15l4.96-4.96l4.96,4.96c0.1,0.1,0.23,0.15,0.35,0.15
			s0.26-0.05,0.35-0.15c0.2-0.2,0.2-0.51,0-0.71l-4.96-4.96l4.96-4.96C18.53,7.51,18.53,7.19,18.34,7z"/>
	</g>
</g>
</svg>
