<svg xmlns="http://www.w3.org/2000/svg" width="20" height="20" viewBox="0 0 20 20" fill="none" version="1.1">
<path d="m 19.187116,0.33621647 a 0.50005,0.50005 0 0 0 -0.363281,0.1582031 L 9.3765687,10.601842 A 0.50005,0.50005 0 0 0 9.2750062,11.11942 l 3.1406258,8.335937 a 0.50005,0.50005 0 0 0 0.939453,-0.01563 L 19.661725,0.99637267 A 0.50005,0.50005 0 0 0 19.187116,0.33621647 Z M 17.962506,2.8791852 12.860944,17.799107 10.319928,11.058873 Z" />
<path d="m 19.157819,0.33426327 a 0.50005,0.50005 0 0 0 -0.160156,0.0371094 L 0.6441467,7.9065287 a 0.50005,0.50005 0 0 0 0.0507813,0.94336 L 9.6402406,11.424107 A 0.50005,0.50005 0 0 0 10.144147,11.285435 L 19.554303,1.1741071 A 0.50005,0.50005 0 0 0 19.157819,0.33426327 Z M 17.269147,2.1623883 9.6226625,10.379185 2.3531312,8.2854347 Z" />
</svg>
