<svg width="32" height="32" viewBox="0 0 32 32" fill="none" xmlns="http://www.w3.org/2000/svg">
  <path d="M20.4904 18.2202C19.9371 18.2256 19.3924 18.357 18.8976 18.6045C18.4027 18.8519 17.9708 19.2088 17.6345 19.6482L13.3221 17.135C13.4835 16.7258 13.5658 16.2897 13.5649 15.8499C13.5646 15.4055 13.4823 14.965 13.3221 14.5504L17.6059 12.0801C17.9422 12.5194 18.3742 12.8764 18.869 13.1238C19.3639 13.3712 19.9086 13.5026 20.4618 13.508C21.1876 13.508 21.8971 13.2928 22.5006 12.8896C23.1041 12.4863 23.5745 11.9132 23.8523 11.2426C24.13 10.5721 24.2027 9.83418 24.0611 9.12231C23.9195 8.41044 23.57 7.75654 23.0567 7.24332C22.5435 6.73009 21.8896 6.38057 21.1778 6.23897C20.4659 6.09737 19.728 6.17005 19.0574 6.4478C18.3869 6.72556 17.8137 7.19593 17.4105 7.79942C17.0073 8.40292 16.792 9.11243 16.792 9.83825C16.7901 10.2888 16.8775 10.7353 17.0491 11.1519L12.7652 13.6223C12.3781 13.1357 11.8737 12.7554 11.2994 12.5172C10.7251 12.279 10.0996 12.1906 9.48176 12.2604C8.86391 12.3301 8.2739 12.5557 7.76712 12.916C7.26035 13.2762 6.85342 13.7594 6.58453 14.32C6.31564 14.8806 6.19361 15.5004 6.22989 16.1211C6.26616 16.7418 6.45956 17.3432 6.79193 17.8687C7.1243 18.3942 7.58475 18.8266 8.13004 19.1254C8.67534 19.4241 9.2876 19.5795 9.90938 19.5768C10.4626 19.5713 11.0073 19.4399 11.5022 19.1925C11.997 18.9451 12.429 18.5882 12.7652 18.1488L17.0491 20.5906C16.8877 20.9998 16.8054 21.4359 16.8063 21.8757C16.8063 22.6015 17.0215 23.3111 17.4248 23.9146C17.828 24.5181 18.4012 24.9884 19.0717 25.2662C19.7423 25.5439 20.4802 25.6166 21.192 25.475C21.9039 25.3334 22.5578 24.9839 23.071 24.4707C23.5843 23.9574 23.9338 23.3035 24.0754 22.5917C24.217 21.8798 24.1443 21.1419 23.8665 20.4714C23.5888 19.8008 23.1184 19.2277 22.5149 18.8244C21.9114 18.4212 21.2019 18.2059 20.4761 18.2059L20.4904 18.2202ZM20.4904 7.28225C20.9903 7.28225 21.4789 7.43048 21.8945 7.7082C22.3102 7.98592 22.6341 8.38065 22.8254 8.84248C23.0167 9.30431 23.0668 9.81249 22.9693 10.3028C22.8717 10.793 22.631 11.2434 22.2775 11.5969C21.9241 11.9503 21.4737 12.191 20.9835 12.2886C20.4932 12.3861 19.985 12.336 19.5232 12.1447C19.0613 11.9534 18.6666 11.6295 18.3889 11.2139C18.1112 10.7982 17.9629 10.3096 17.9629 9.80969C17.961 9.47725 18.0251 9.14774 18.1515 8.84024C18.2778 8.53274 18.4639 8.25337 18.699 8.01829C18.9341 7.78322 19.2134 7.59712 19.5209 7.47078C19.8284 7.34443 20.1579 7.28035 20.4904 7.28225ZM9.8951 18.4059C9.39522 18.4059 8.90656 18.2576 8.49093 17.9799C8.07529 17.7022 7.75134 17.3075 7.56005 16.8456C7.36875 16.3838 7.3187 15.8756 7.41622 15.3853C7.51374 14.8951 7.75446 14.4447 8.10793 14.0912C8.4614 13.7378 8.91175 13.4971 9.40202 13.3995C9.8923 13.302 10.4005 13.3521 10.8623 13.5434C11.3241 13.7347 11.7189 14.0586 11.9966 14.4742C12.2743 14.8899 12.4225 15.3785 12.4225 15.8784C12.4225 16.5487 12.1563 17.1916 11.6823 17.6656C11.2083 18.1396 10.5654 18.4059 9.8951 18.4059ZM20.4904 24.4175C19.9899 24.4203 19.4998 24.2745 19.0823 23.9985C18.6648 23.7225 18.3387 23.3287 18.1452 22.8672C17.9517 22.4056 17.8996 21.897 17.9955 21.4057C18.0914 20.9145 18.331 20.4628 18.6839 20.1079C19.0368 19.7531 19.4871 19.5109 19.9777 19.4122C20.4684 19.3135 20.9773 19.3628 21.44 19.5536C21.9026 19.7445 22.2982 20.0684 22.5766 20.4844C22.8549 20.9003 23.0035 21.3895 23.0035 21.89C23.0035 22.5579 22.7392 23.1986 22.2683 23.6722C21.7974 24.1457 21.1582 24.4137 20.4904 24.4175Z" fill="black"/>
  </svg>
