<?xml version="1.0" encoding="UTF-8"?>
<svg width="52px" height="40px" viewBox="0 0 52 40" version="1.1" xmlns="http://www.w3.org/2000/svg" xmlns:xlink="http://www.w3.org/1999/xlink">
    <!-- Generator: Sketch 52.6 (67491) - http://www.bohemiancoding.com/sketch -->
    <title>Untitled 2</title>
    <desc>Created with Sketch.</desc>
    <g id="Page-1" stroke="none" stroke-width="1" fill="none" fill-rule="evenodd">
        <g id="stashify" fill="#F5316E" fill-rule="nonzero">
            <path d="M26,34 C33.7319865,34 40,27.7319865 40,20 C40,12.2680135 33.7319865,6 26,6 C18.2680135,6 12,12.2680135 12,20 C12,27.7319865 18.2680135,34 26,34 Z M26,40 C17.0203486,40 9.4228876,34.0821392 6.89491235,25.9337127 C6.6029539,25.9773737 6.30411927,26 6,26 C2.6862915,26 0,23.3137085 0,20 C0,16.6862915 2.6862915,14 6,14 C6.30411927,14 6.6029539,14.0226262 6.89491235,14.0662872 C9.4228876,5.91786083 17.0203486,0 26,0 C34.9796515,0 42.5771125,5.91786083 45.1050878,14.0662872 C45.397046,14.0226262 45.6958808,14 46,14 C49.3137085,14 52,16.6862915 52,20 C52,23.3137085 49.3137085,26 46,26 C45.6958808,26 45.397046,25.9773737 45.1050878,25.9337127 C42.5771125,34.0821392 34.9796515,40 26,40 Z M26,26 C29.3137085,26 32,23.3137085 32,20 C32,16.6862915 29.3137085,14 26,14 C22.6862915,14 20,16.6862915 20,20 C20,23.3137085 22.6862915,26 26,26 Z" id="Combined-Shape"></path>
        </g>
    </g>
</svg>