<?xml version="1.0" encoding="UTF-8"?>
<svg width="256px" height="256px" viewBox="0 0 256 256" version="1.1" xmlns="http://www.w3.org/2000/svg" xmlns:xlink="http://www.w3.org/1999/xlink">
    <defs></defs>
    <g id="Artboard-Copy-8" stroke="none" stroke-width="1" fill="none" fill-rule="evenodd">
        <path d="M128,184 C158.927946,184 184,158.927946 184,128 C184,97.072054 158.927946,72 128,72 C97.072054,72 72,97.072054 72,128 C72,158.927946 97.072054,184 128,184 Z M128,208 C92.0813943,208 61.6915504,184.328557 51.5796494,151.734851 C50.4118156,151.909495 49.2164771,152 48,152 C34.745166,152 24,141.254834 24,128 C24,114.745166 34.745166,104 48,104 C49.2164771,104 50.4118156,104.090505 51.5796494,104.265149 C61.6915504,71.6714433 92.0813943,48 128,48 C163.918606,48 194.30845,71.6714433 204.420351,104.265149 C205.588184,104.090505 206.783523,104 208,104 C221.254834,104 232,114.745166 232,128 C232,141.254834 221.254834,152 208,152 C206.783523,152 205.588184,151.909495 204.420351,151.734851 C194.30845,184.328557 163.918606,208 128,208 Z M128,152 C141.254834,152 152,141.254834 152,128 C152,114.745166 141.254834,104 128,104 C114.745166,104 104,114.745166 104,128 C104,141.254834 114.745166,152 128,152 Z" id="Combined-Shape" fill="#F5316E" fill-rule="nonzero"></path>
    </g>
</svg>