<svg width="20" height="20" viewBox="0 0 20 20" fill="none" xmlns="http://www.w3.org/2000/svg">
<g clip-path="url(#clip0)">
<path d="M2.24381 3.31574C2.4723 3.31574 2.65754 3.13051 2.65754 2.90201C2.65754 2.67351 2.4723 2.48828 2.24381 2.48828C2.01531 2.48828 1.83008 2.67351 1.83008 2.90201C1.83008 3.13051 2.01531 3.31574 2.24381 3.31574Z" fill="black"/>
<path d="M3.8981 3.31574C4.1266 3.31574 4.31183 3.13051 4.31183 2.90201C4.31183 2.67351 4.1266 2.48828 3.8981 2.48828C3.66961 2.48828 3.48438 2.67351 3.48438 2.90201C3.48438 3.13051 3.66961 3.31574 3.8981 3.31574Z" fill="black"/>
<path d="M5.54361 3.31574C5.77211 3.31574 5.95734 3.13051 5.95734 2.90201C5.95734 2.67351 5.77211 2.48828 5.54361 2.48828C5.31512 2.48828 5.12988 2.67351 5.12988 2.90201C5.12988 3.13051 5.31512 3.31574 5.54361 3.31574Z" fill="black"/>
<path d="M4.71646 9.0987H13.8093C13.919 9.0987 14.0243 9.05511 14.1018 8.97752C14.1794 8.89993 14.223 8.7947 14.223 8.68497C14.223 8.57524 14.1794 8.47001 14.1018 8.39242C14.0243 8.31483 13.919 8.27124 13.8093 8.27124H4.71646C4.60674 8.27124 4.5015 8.31483 4.42391 8.39242C4.34632 8.47001 4.30273 8.57524 4.30273 8.68497C4.30273 8.7947 4.34632 8.89993 4.42391 8.97752C4.5015 9.05511 4.60674 9.0987 4.71646 9.0987Z" fill="black"/>
<path d="M9.6812 13.2268H4.71646C4.60674 13.2268 4.5015 13.2704 4.42391 13.348C4.34632 13.4256 4.30273 13.5308 4.30273 13.6405C4.30273 13.7503 4.34632 13.8555 4.42391 13.9331C4.5015 14.0107 4.60674 14.0543 4.71646 14.0543H9.6812C9.79093 14.0543 9.89617 14.0107 9.97375 13.9331C10.0513 13.8555 10.0949 13.7503 10.0949 13.6405C10.0949 13.5308 10.0513 13.4256 9.97375 13.348C9.89617 13.2704 9.79093 13.2268 9.6812 13.2268Z" fill="black"/>
<path d="M18.4248 5.7888H18.3513V2.48817C18.3513 2.05084 18.1782 1.6313 17.8698 1.3212C17.5614 1.01111 17.1429 0.835682 16.7056 0.833252H1.82972C1.39155 0.835666 0.97202 1.0108 0.662185 1.32063C0.352351 1.63047 0.177219 2.05 0.174805 2.48817V17.364C0.177234 17.8013 0.352663 18.2199 0.662756 18.5283C0.97285 18.8366 1.3924 19.0097 1.82972 19.0097H16.7056C17.142 19.0097 17.5606 18.8363 17.8693 18.5277C18.1779 18.2191 18.3513 17.8005 18.3513 17.364V9.72382L19.5465 8.5378C19.7646 8.31493 19.9124 8.03286 19.9715 7.72667C20.0306 7.42047 19.9984 7.10366 19.8789 6.81563C19.7593 6.5276 19.5578 6.28106 19.2993 6.10667C19.0407 5.93227 18.7367 5.83772 18.4248 5.83477V5.7888ZM0.956292 2.48817C0.956292 2.26871 1.04347 2.05824 1.19865 1.90307C1.35383 1.74789 1.56429 1.66071 1.78375 1.66071H16.7056C16.925 1.66071 17.1355 1.74789 17.2907 1.90307C17.4458 2.05824 17.533 2.26871 17.533 2.48817V4.14308H0.983874L0.956292 2.48817ZM17.5054 17.364C17.503 17.5827 17.4151 17.7918 17.2604 17.9465C17.1058 18.1011 16.8967 18.1891 16.678 18.1915H1.82972C1.61026 18.1915 1.3998 18.1043 1.24462 17.9491C1.08944 17.7939 1.00226 17.5835 1.00226 17.364V4.96134H17.5514V6.04623C17.4699 6.09729 17.3957 6.15915 17.3307 6.23011L12.8349 10.726H4.71662C4.65775 10.7171 4.59767 10.7211 4.54047 10.7376C4.48327 10.7541 4.4303 10.7827 4.38519 10.8215C4.34007 10.8604 4.30387 10.9085 4.27906 10.9626C4.25424 11.0167 4.24139 11.0756 4.24139 11.1351C4.24139 11.1946 4.25424 11.2535 4.27906 11.3076C4.30387 11.3617 4.34007 11.4098 4.38519 11.4486C4.4303 11.4875 4.48327 11.5161 4.54047 11.5326C4.59767 11.5491 4.65775 11.5531 4.71662 11.5442H12.1453L11.75 13.5301C11.7369 13.5979 11.7409 13.668 11.7618 13.7338C11.7827 13.7996 11.8197 13.8592 11.8695 13.9071C11.9461 13.9814 12.0479 14.0241 12.1545 14.0266H12.2373L14.2783 13.6313C14.3591 13.619 14.4335 13.5802 14.4898 13.5209L17.5054 10.5053V17.364ZM14.0209 12.8498L12.6878 13.1164L12.9544 11.7833L16.7056 8.03213L17.7721 9.09863L14.0209 12.8498ZM18.9581 7.88502L18.3513 8.49183L17.2848 7.44371L17.8916 6.83691C18.0341 6.69722 18.2252 6.61814 18.4248 6.61626C18.6248 6.61626 18.8165 6.69568 18.9579 6.83707C19.0993 6.97845 19.1787 7.17021 19.1787 7.37016C19.1784 7.46639 19.1587 7.56157 19.1208 7.65003C19.0828 7.73848 19.0275 7.8184 18.9581 7.88502Z" fill="black"/>
</g>
<defs>
<clipPath id="clip0">
<rect width="20" height="20" fill="white"/>
</clipPath>
</defs>
</svg>
