<svg width="20" height="19" viewBox="0 0 20 19" fill="none" xmlns="http://www.w3.org/2000/svg">
<path d="M0 3.74746C0.0914417 3.55562 0.215156 3.40681 0.444982 3.42503C0.674809 3.44325 0.775049 3.61079 0.850843 3.8082C1.12663 4.52798 1.40373 5.24691 1.68213 5.965C1.70609 6.02574 1.73103 6.08496 1.76917 6.16747C1.888 5.87186 1.98775 5.59752 2.10609 5.33178C3.06647 3.17397 4.61071 1.63166 6.71925 0.705872C8.14466 0.0952117 9.6981 -0.124666 11.2296 0.0674732C12.761 0.259613 14.2188 0.857278 15.462 1.80275C16.7177 2.7473 17.7005 4.02876 18.3045 5.50894C18.4657 5.91303 18.6048 6.32621 18.7211 6.74653C18.816 7.072 18.5842 7.35039 18.281 7.30686C18.0918 7.28004 17.9876 7.15197 17.9289 6.97178C17.8419 6.69693 17.7632 6.41853 17.6619 6.14925C16.9534 4.26578 15.7294 2.84546 14.0253 1.87159C13.1174 1.3514 12.1176 1.02603 11.0855 0.914921C9.3026 0.718527 7.6234 1.05867 6.07525 2.00167C4.3936 3.02515 3.23908 4.50469 2.59264 6.41094C2.59264 6.416 2.59264 6.42309 2.60046 6.44738C2.66452 6.42056 2.72809 6.39677 2.78921 6.36791C3.45278 6.05611 4.1139 5.74077 4.77893 5.43301C5.08895 5.28926 5.35838 5.42036 5.40972 5.7271C5.44395 5.93311 5.34371 6.10572 5.11633 6.21505C4.63222 6.44637 4.14617 6.6706 3.6606 6.90142C3.12206 7.15552 2.58416 7.4086 2.04692 7.66068C1.6792 7.83278 1.48018 7.74723 1.32859 7.35697C0.913272 6.28254 0.498445 5.20777 0.0841054 4.13266C0.0601447 4.0704 0.0312944 4.01016 0.00488874 3.94892L0 3.74746Z" fill="black"/>
<path d="M18.2362 11.9038C17.9546 12.7639 17.5512 13.5761 17.0392 14.3137C16.0542 15.7364 14.6893 16.8305 13.1121 17.4615C11.776 18.0018 10.3341 18.202 8.90775 18.0452C7.48137 17.8884 6.11224 17.3792 4.91559 16.5606C3.54983 15.6216 2.50779 14.384 1.81733 12.8447C1.60511 12.3705 1.45401 11.8658 1.29362 11.3688C1.20707 11.1015 1.32883 10.8697 1.55376 10.7973C1.7787 10.7249 1.98163 10.854 2.08188 11.1177C2.29997 11.6927 2.47307 12.292 2.75033 12.8361C3.63052 14.5774 4.97672 15.815 6.72242 16.5843C7.89987 17.1103 9.18528 17.3246 10.4627 17.2079C12.9483 16.9837 14.9473 15.8357 16.4147 13.7305C16.8559 13.0899 17.202 12.3846 17.4416 11.638C17.3531 11.674 17.2905 11.6957 17.2309 11.7241C16.5561 12.042 15.8822 12.3619 15.2069 12.6777C14.9923 12.7789 14.7996 12.7379 14.6744 12.579C14.6128 12.5078 14.5778 12.4162 14.5755 12.3207C14.5733 12.2251 14.604 12.1319 14.6622 12.0577C14.7207 11.9858 14.7938 11.9282 14.8764 11.8891C15.9225 11.393 16.9702 10.9002 18.0196 10.4106C18.3311 10.2658 18.5463 10.36 18.6744 10.691C19.0998 11.7899 19.5208 12.8913 19.9458 13.9907C20.022 14.1881 20.0323 14.3759 19.8773 14.5333C19.7516 14.6609 19.5805 14.7176 19.4318 14.6163C19.3113 14.5296 19.217 14.4092 19.1599 14.2691C18.8734 13.5605 18.6045 12.8468 18.3287 12.1346C18.3081 12.0739 18.2822 12.0136 18.2362 11.9038Z" fill="black"/>
</svg>
