<svg width="15" height="15" viewBox="0 0 15 15" fill="none" xmlns="http://www.w3.org/2000/svg">
  <path d="M13.3863 0.937712C13.1431 0.937712 12.9497 1.134 12.9497 1.37717V2.05099C11.8186 0.920134 10.2949 0.175993 8.60119 0.0324387C6.53536 -0.143343 4.51348 0.592009 3.05128 2.05392C2.87839 2.22677 2.87839 2.50216 3.05128 2.67502C3.22416 2.84787 3.49961 2.84787 3.67249 2.67502C4.95009 1.39474 6.71703 0.750212 8.525 0.905485C10.0312 1.03439 11.423 1.71994 12.4574 2.81564H11.5109C11.2677 2.81564 11.0714 3.009 11.0714 3.25216C11.0714 3.49533 11.2677 3.69162 11.5109 3.69162H13.3804C13.6295 3.69455 13.8258 3.4924 13.8258 3.25216V1.37717C13.8258 1.134 13.6295 0.937712 13.3863 0.937712ZM6.41522 12.9992C4.68636 12.5363 3.2476 11.3205 2.47402 9.66818C1.81764 8.27072 1.70922 6.69455 2.1429 5.23556L2.61467 6.05588C2.73481 6.26681 3.00439 6.33713 3.21537 6.21701C3.42635 6.09689 3.49668 5.82736 3.37654 5.61642L2.43885 3.99338C2.31871 3.7883 2.05206 3.7092 1.83815 3.83224L0.214785 4.76974C0.00380676 4.88986 -0.0665195 5.15939 0.0536212 5.37033C0.173762 5.58127 0.443346 5.65158 0.654325 5.53146L1.24038 5.19455C0.812559 6.80002 0.959072 8.51388 1.67406 10.0432C2.55899 11.9328 4.20287 13.3215 6.18373 13.8518C6.41815 13.9133 6.65843 13.7756 6.72289 13.5412C6.78736 13.301 6.64964 13.0608 6.41522 12.9992ZM14.7577 5.19162C14.6961 4.95724 14.4529 4.81955 14.2185 4.88107C13.9841 4.94259 13.8464 5.18576 13.9079 5.42013C14.3797 7.1838 14.0456 9.06759 12.9849 10.5852C12.1175 11.8274 10.8399 12.6916 9.39529 13.0432L9.86706 12.2258C9.9872 12.0149 9.91688 11.7483 9.7059 11.6252C9.49492 11.5051 9.22827 11.5754 9.1052 11.7863L8.16751 13.4094C8.04737 13.6174 8.1177 13.8869 8.32868 14.01L9.95204 14.9475C10.163 15.0676 10.4297 14.9973 10.5527 14.7863C10.6729 14.5754 10.6026 14.3088 10.3916 14.1858L9.80553 13.8488C11.3439 13.4328 12.7329 12.4865 13.7057 11.0891C14.9159 9.3547 15.2968 7.20724 14.7577 5.19162Z" fill="black"/>
</svg>
