<svg width="31" height="31" viewBox="0 0 31 31" fill="none" xmlns="http://www.w3.org/2000/svg">
  <g clip-path="url(#clip0)">
  <path d="M15.0058 1C12.0374 0.997662 9.13501 1.87575 6.66574 3.5232C4.19647 5.17065 2.27128 7.51343 1.1337 10.2552C-0.00387511 12.997 -0.302733 16.0145 0.274936 18.9262C0.852604 21.8378 2.28084 24.5127 4.37899 26.6125C6.47713 28.7123 9.15091 30.1427 12.0621 30.7226C14.9733 31.3026 17.9911 31.0061 20.7337 29.8707C23.4764 28.7353 25.8207 26.812 27.4701 24.344C29.1195 21.876 29.9999 18.9743 29.9999 16.0059C29.9968 12.0291 28.4164 8.21592 25.6055 5.40278C22.7946 2.58964 18.9826 1.00628 15.0058 1ZM15.0058 29.8156C12.2712 29.818 9.59727 29.0091 7.32251 27.4912C5.04775 25.9734 3.27437 23.8149 2.22678 21.2888C1.1792 18.7628 0.904485 15.9828 1.43742 13.3005C1.97035 10.6183 3.28696 8.15447 5.22065 6.22077C7.15435 4.28708 9.6182 2.97046 12.3004 2.43753C14.9826 1.9046 17.7627 2.17931 20.2887 3.2269C22.8148 4.27449 24.9733 6.04787 26.4911 8.32263C28.0089 10.5974 28.8179 13.2713 28.8155 16.0059C28.8124 19.6675 27.3564 23.1783 24.7673 25.7674C22.1781 28.3565 18.6674 29.8125 15.0058 29.8156Z" fill="#E81C66"/>
  <path d="M23.0951 10.2262C23.0737 9.78464 22.9293 9.35785 22.678 8.99411C22.4268 8.63038 22.0787 8.34421 21.6733 8.16798C21.2679 7.99176 20.8212 7.93251 20.3838 7.99694C19.9465 8.06137 19.5359 8.24691 19.1985 8.53257L9.01294 18.6944L12.4358 21.9277L22.3963 11.8843L22.5029 11.7659C22.888 11.3461 23.0997 10.7959 23.0951 10.2262Z" fill="#E81C66"/>
  <path d="M8.34971 19.3695L6.90479 24.0952L11.7607 22.6029H11.7725L8.34971 19.3695Z" fill="#E81C66"/>
  </g>
  <line x1="0.707107" y1="1" x2="30" y2="30.2929" stroke="#E81C66" stroke-linecap="round" stroke-linejoin="round"/>
  <defs>
  <clipPath id="clip0">
  <rect width="30" height="30" fill="white" transform="translate(0 1)"/>
  </clipPath>
  </defs>
  </svg>
