<?xml version="1.0" encoding="utf-8"?>
<!-- Generator: Adobe Illustrator 24.1.0, SVG Export Plug-In . SVG Version: 6.00 Build 0)  -->
<svg version="1.1" id="Capa_1" xmlns="http://www.w3.org/2000/svg" xmlns:xlink="http://www.w3.org/1999/xlink" x="0px" y="0px"
	 viewBox="0 0 71.2 71.2" style="enable-background:new 0 0 71.2 71.2;" xml:space="preserve">
<style type="text/css">
	.st0{display:none;}
</style>
<g id="Capa_3" class="st0">
</g>
<g id="Capa_1_1_">
</g>
<g id="guies">
	<g>
		<path d="M65.6,54.3V12.6c0-1.7-1.4-3.1-3.1-3.1H56V3.1c0-0.8-0.3-1.6-0.9-2.2C54.5,0.3,53.8,0,52.9,0H8.7C7,0,5.6,1.4,5.6,3.1
			v55.5c0,1.7,1.4,3.1,3.1,3.1h6.5v6.5c0,1.7,1.4,3.1,3.1,3.1h29.5c1.8,0,4.4-1,5.7-2.3l9.7-9.1C64.5,58.6,65.6,56.1,65.6,54.3z
			 M15.2,12.6v47.2H8.7c-0.7,0-1.3-0.6-1.3-1.3V3.1c0-0.7,0.6-1.3,1.3-1.3h44.2c0.7,0,1.3,0.6,1.3,1.3v6.5h-36
			C16.6,9.5,15.2,10.9,15.2,12.6z M49,59.9v9.3l-0.3,0.1c-0.4,0.1-0.7,0.1-1,0.1H18.3c-0.3,0-0.6-0.1-0.9-0.4
			c-0.2-0.2-0.4-0.6-0.4-0.9V12.6c0-0.7,0.6-1.3,1.3-1.3h44.2c0.7,0,1.3,0.6,1.3,1.3v41.6c0,0.3,0,0.6-0.1,1l-0.1,0.3H53.4
			C51,55.5,49,57.5,49,59.9z M62.4,58c-0.2,0.2-0.3,0.4-0.5,0.5l-9.7,9.1c-0.2,0.2-0.5,0.4-0.8,0.6l-0.6,0.4v-8.7
			c0-0.7,0.3-1.3,0.8-1.8c0.5-0.5,1.1-0.8,1.8-0.8h9.5L62.4,58z"/>
		<path d="M57.3,18.1H23.4c-0.5,0-0.9,0.4-0.9,0.9s0.4,0.9,0.9,0.9h33.9c0.5,0,0.9-0.4,0.9-0.9S57.8,18.1,57.3,18.1z"/>
		<path d="M57.3,26.6H23.4c-0.5,0-0.9,0.4-0.9,0.9s0.4,0.9,0.9,0.9h33.9c0.5,0,0.9-0.4,0.9-0.9S57.8,26.6,57.3,26.6z"/>
		<path d="M57.3,35H23.4c-0.5,0-0.9,0.4-0.9,0.9s0.4,0.9,0.9,0.9h33.9c0.5,0,0.9-0.4,0.9-0.9C58.3,35.4,57.8,35,57.3,35z"/>
		<path d="M57.3,43.4H23.4c-0.5,0-0.9,0.4-0.9,0.9s0.4,0.9,0.9,0.9h33.9c0.5,0,0.9-0.4,0.9-0.9C58.3,43.8,57.8,43.4,57.3,43.4z"/>
		<path d="M39.8,51.9H23.4c-0.5,0-0.9,0.4-0.9,0.9s0.4,0.9,0.9,0.9h16.4c0.5,0,0.9-0.4,0.9-0.9C40.7,52.3,40.3,51.9,39.8,51.9z"/>
	</g>
</g>
</svg>
