<svg width="14" height="14" viewBox="0 0 14 14" fill="none" xmlns="http://www.w3.org/2000/svg">
<path d="M4.24263 5.9396L1.76776 8.41447C0.791445 9.39078 0.791445 10.9737 1.76776 11.95V11.95C2.74407 12.9263 4.32698 12.9263 5.30329 11.95L7.77816 9.47513" stroke="black" stroke-width="0.8"/>
<path d="M3.25268 9.89929C3.09647 10.0555 3.09647 10.3088 3.25268 10.465C3.40889 10.6212 3.66216 10.6212 3.81837 10.465L3.25268 9.89929ZM5.93969 8.34365L6.22253 8.06081L5.65684 7.49512L5.374 7.77797L5.93969 8.34365ZM3.81837 10.465L5.93969 8.34365L5.374 7.77797L3.25268 9.89929L3.81837 10.465Z" fill="black"/>
<path d="M9.7531 7.77817L12.228 5.3033C13.2043 4.32699 13.2043 2.74408 12.228 1.76777V1.76777C11.2517 0.791456 9.66875 0.791456 8.69244 1.76777L6.21756 4.24264" stroke="black" stroke-width="0.8"/>
<path d="M10.743 3.81849C10.8993 3.66228 10.8993 3.40901 10.743 3.2528C10.5868 3.09659 10.3336 3.09659 10.1774 3.2528L10.743 3.81849ZM8.05604 5.37412L7.7732 5.65696L8.33888 6.22265L8.62173 5.93981L8.05604 5.37412ZM10.1774 3.2528L8.05604 5.37412L8.62173 5.93981L10.743 3.81849L10.1774 3.2528Z" fill="black"/>
<path d="M2 1.5L12.3447 12.0737" stroke="black" stroke-width="0.8" stroke-linecap="round"/>
</svg>
