<svg width="19" height="19" viewBox="0 0 19 19" fill="none" xmlns="http://www.w3.org/2000/svg">
<path fill-rule="evenodd" clip-rule="evenodd" d="M13.8739 1C15.6613 1 17.0737 2.286 17.0737 4.1434V5.58712C17.0737 5.86327 17.2975 6.08712 17.5737 6.08712C17.8498 6.08712 18.0737 5.86327 18.0737 5.58712V4.1434C18.0737 1.69412 16.1731 0 13.8739 0C11.5747 0 9.6742 1.69412 9.6742 4.1434V6.51204H2C0.895431 6.51204 0 7.40747 0 8.51204V16.2278C0 17.3324 0.895431 18.2278 2 18.2278H10.949C12.0536 18.2278 12.949 17.3324 12.949 16.2278V8.51204C12.949 7.40747 12.0536 6.51204 10.949 6.51204H10.6742V4.1434C10.6742 2.286 12.0865 1 13.8739 1ZM10.949 7.51204H2C1.44772 7.51204 1 7.95976 1 8.51204V16.2278C1 16.7801 1.44772 17.2278 2 17.2278H10.949C11.5013 17.2278 11.949 16.7801 11.949 16.2278V8.51204C11.949 7.95976 11.5013 7.51204 10.949 7.51204ZM7.79576 11.5309C7.79576 12.0198 7.53014 12.4468 7.13532 12.6753V14.8349H5.81399V12.6755C5.41892 12.4471 5.1531 12.02 5.1531 11.5309C5.1531 10.8011 5.74468 10.2095 6.47443 10.2095C7.20418 10.2095 7.79576 10.8011 7.79576 11.5309Z"/>
</svg>
