<?xml version="1.0" ?><!DOCTYPE svg  PUBLIC '-//W3C//DTD SVG 1.1//EN'  'http://www.w3.org/Graphics/SVG/1.1/DTD/svg11.dtd'><svg enable-background="new 0 0 48 48" height="22px" version="1.1" viewBox="0 0 48 48" width="22px" xml:space="preserve" xmlns="http://www.w3.org/2000/svg" xmlns:xlink="http://www.w3.org/1999/xlink"><g id="Expanded"><g><g><path d="M7.77,28.911c-0.289,0-0.565-0.125-0.756-0.345L0.465,21.01c-0.361-0.418-0.316-1.049,0.101-1.411     c0.418-0.361,1.048-0.316,1.411,0.101l5.676,6.55l4.697-7.284c0.3-0.465,0.918-0.596,1.383-0.299     c0.464,0.3,0.598,0.919,0.299,1.383L8.61,28.453c-0.171,0.265-0.456,0.434-0.771,0.455C7.816,28.91,7.793,28.911,7.77,28.911z"/></g><g><path d="M46.78,31.389c-0.322,0-0.639-0.155-0.831-0.442L41.12,23.75l-5.557,6.652c-0.354,0.425-0.984,0.481-1.408,0.127     s-0.48-0.984-0.127-1.408l6.411-7.676c0.201-0.242,0.499-0.384,0.82-0.358c0.313,0.017,0.603,0.181,0.777,0.441l5.572,8.303     c0.308,0.459,0.186,1.08-0.272,1.388C47.165,31.334,46.972,31.389,46.78,31.389z"/></g><g><path d="M24.271,42.008c-4.669,0-9.184-1.82-12.61-5.199c-0.394-0.388-0.397-1.021-0.01-1.414s1.021-0.397,1.414-0.01     c3.954,3.898,9.535,5.46,14.929,4.187c7.888-1.864,13.141-9.332,12.22-17.371c-0.063-0.549,0.331-1.045,0.879-1.107     c0.554-0.069,1.045,0.33,1.107,0.879c1.036,9.046-4.873,17.448-13.745,19.546C27.062,41.847,25.66,42.008,24.271,42.008z"/></g><g><path d="M7.769,28.911c-0.453,0-0.863-0.31-0.972-0.77c-1.107-4.68-0.325-9.509,2.2-13.6c2.526-4.091,6.495-6.953,11.174-8.06     c6.471-1.526,13.222,0.616,17.631,5.595c0.366,0.414,0.327,1.046-0.086,1.412c-0.413,0.364-1.045,0.327-1.412-0.086     c-3.919-4.427-9.925-6.334-15.672-4.974c-4.16,0.982-7.688,3.527-9.933,7.163s-2.94,7.929-1.956,12.088     C8.87,28.219,8.537,28.757,8,28.885C7.922,28.902,7.845,28.911,7.769,28.911z"/></g></g></g></svg>