<svg width="17" height="20" viewBox="0 0 17 20" fill="none" xmlns="http://www.w3.org/2000/svg">
<path d="M16.4464 2.38222L8.60349 0.0256135C8.49127 -0.011793 8.37905 -0.011793 8.26683 0.0256135L0.411471 2.38222C0.174564 2.45703 0 2.68147 0 2.94332V11.5717C0 12.6939 0.448878 13.8411 1.34663 14.9882C2.03242 15.861 2.98005 16.7338 4.16459 17.5942C6.14713 19.0281 8.10474 19.9134 8.19202 19.9508C8.26683 19.9882 8.35411 20.0007 8.42893 20.0007C8.50374 20.0007 8.59102 19.9757 8.66583 19.9508C8.75312 19.9134 10.7107 19.0281 12.6933 17.5942C13.8778 16.7338 14.8254 15.861 15.5112 14.9882C16.409 13.8411 16.8579 12.6939 16.8579 11.5717V2.94332C16.8579 2.68147 16.6958 2.45703 16.4464 2.38222ZM15.6858 11.5717C15.6858 13.5543 13.6908 15.4246 12.0199 16.6341C10.5237 17.7189 9.00249 18.4919 8.42893 18.7663C7.85536 18.4919 6.33416 17.7189 4.8379 16.6341C3.16708 15.4246 1.17207 13.5543 1.17207 11.5717V3.37973L8.42893 1.19768L15.6858 3.37973V11.5717ZM8.75312 4.37723L9.6384 7.08297C9.68828 7.22013 9.81297 7.31988 9.96259 7.31988H12.8055C13.1297 7.31988 13.2668 7.73135 13.005 7.93085L10.6858 9.5892C10.5736 9.67649 10.5237 9.82611 10.5611 9.96327L11.4464 12.669C11.5461 12.9807 11.197 13.2301 10.9352 13.0431L8.62843 11.3722C8.51621 11.285 8.35411 11.285 8.22943 11.3722L5.92269 13.0431C5.66085 13.2301 5.31172 12.9807 5.41147 12.669L6.29676 9.96327C6.34663 9.82611 6.29676 9.67649 6.17207 9.5892L3.8778 7.91838C3.61596 7.71888 3.74065 7.30741 4.06484 7.30741H6.90773C7.05736 7.30741 7.18204 7.22013 7.23192 7.0705L8.11721 4.36477C8.21696 4.06551 8.65337 4.06551 8.75312 4.37723Z" fill="#CCCED6"  />
</svg>
