<svg width="20" height="20" viewBox="0 0 20 20" fill="none" xmlns="http://www.w3.org/2000/svg">
<path fill-rule="evenodd" clip-rule="evenodd" d="M0 10C0 4.49091 4.49091 0 10 0C15.5182 0 20 4.49091 20 10C20 15.5091 15.5091 20 10 20C4.49091 20 0 15.5091 0 10ZM0.818182 10.0091C0.818182 15.0727 4.93636 19.1909 10 19.1909C15.0636 19.1909 19.1818 15.0636 19.1818 10C19.1818 4.93636 15.0636 0.818182 10 0.818182C4.93636 0.818182 0.818182 4.94545 0.818182 10.0091ZM9.99902 10.0186C11.7263 10.0186 13.1263 8.61858 13.1263 6.89131C13.1263 5.16404 11.7263 3.76404 9.99902 3.76404C8.27174 3.76404 6.87174 5.16404 6.87174 6.89131C6.87174 8.61858 8.27174 10.0186 9.99902 10.0186ZM9.99902 4.58222C11.2717 4.58222 12.3081 5.61858 12.3081 6.89131C12.3081 8.16404 11.2717 9.2004 9.99902 9.2004C8.72629 9.2004 7.68993 8.16404 7.68993 6.89131C7.68993 5.61858 8.72629 4.58222 9.99902 4.58222ZM16.1097 15.0726C16.1551 14.9726 16.1551 14.8635 16.1097 14.7635C15.1097 12.3817 12.7188 10.8453 10.0006 10.8453C7.33697 10.8453 4.88242 12.4181 3.89151 14.7635C3.84606 14.8635 3.84606 14.9726 3.89151 15.0726C3.93697 15.1726 4.00969 15.2544 4.10969 15.2908C4.31879 15.3817 4.55515 15.2817 4.64606 15.0726C5.50969 13.0272 7.65515 11.6544 10.0006 11.6544C12.3461 11.6544 14.5006 13.0272 15.3551 15.0726C15.437 15.2726 15.6824 15.3817 15.8915 15.2908C15.9915 15.2544 16.0733 15.1726 16.1097 15.0726Z" fill="white"/>
</svg>
