<?xml version="1.0" encoding="utf-8"?>
<!-- Generator: Adobe Illustrator 24.1.0, SVG Export Plug-In . SVG Version: 6.00 Build 0)  -->
<svg version="1.1" id="Capa_1" xmlns="http://www.w3.org/2000/svg" xmlns:xlink="http://www.w3.org/1999/xlink" x="0px" y="0px"
	 viewBox="0 0 17.3 17.3" xml:space="preserve">
<g id="guies">
	<path d="M11.6,8.5c1.1-0.9,1.8-2.2,1.8-3.7c0-2.6-2.1-4.8-4.8-4.8S3.9,2.2,3.9,4.8c0,1.5,0.7,2.8,1.8,3.7c-2.3,1.1-3.7,3.4-3.7,6
		v2.3c0,0.3,0.2,0.5,0.5,0.5s0.5-0.2,0.5-0.5v-2.3c0-2.4,1.5-4.5,3.7-5.3c0.6,0.3,1.3,0.4,1.9,0.4c0.7,0,1.4-0.2,2-0.4
		c2.3,0.8,3.8,3,3.8,5.4v1.8H5.5c-0.3,0-0.5,0.2-0.5,0.5s0.2,0.5,0.5,0.5h9.8v-2.8C15.4,11.9,13.9,9.6,11.6,8.5z M4.9,4.8
		c0-2.1,1.7-3.8,3.7-3.8s3.8,1.7,3.8,3.8s-1.7,3.7-3.8,3.7S4.9,6.9,4.9,4.8z"/>
</g>
</svg>
