<?xml version="1.0" encoding="UTF-8"?>
<svg width="17px" height="22px" viewBox="0 0 17 22" version="1.1" xmlns="http://www.w3.org/2000/svg" xmlns:xlink="http://www.w3.org/1999/xlink">
    <!-- Generator: Sketch 53.1 (72631) - https://sketchapp.com -->
    <title>Untitled 2</title>
    <desc>Created with Sketch.</desc>
    <g id="Page-1" stroke="none" stroke-width="1" fill="none" fill-rule="evenodd">
        <g id="waiting" fill="#000000" fill-rule="nonzero">
            <path d="M1.88888889,18.0972917 L1.88888889,21.0833333 L0,21.0833333 L0,22 L17,22 L17,21.0833333 L15.1111111,21.0833333 L15.1111111,18.0972917 C15.1111111,17.23975 14.7668611,16.4344583 14.1425833,15.8285417 L9.16772222,11 L14.1425833,6.17145833 C14.7668611,5.56554167 15.1111111,4.75979167 15.1111111,3.90270833 L15.1111111,0.916666667 L17,0.916666667 L17,0 L0,0 L0,0.916666667 L1.88888889,0.916666667 L1.88888889,3.90270833 C1.88888889,4.76025 2.23313889,5.56554167 2.85741667,6.17145833 L7.83227778,11 L2.85741667,15.8285417 C2.23313889,16.4344583 1.88888889,17.2402083 1.88888889,18.0972917 Z M3.52513889,5.52291667 C3.07936111,5.09025 2.83333333,4.51504167 2.83333333,3.90270833 L2.83333333,0.916666667 L14.1666667,0.916666667 L14.1666667,3.90270833 C14.1666667,4.51504167 13.9206389,5.09070833 13.4748611,5.523375 L8.5,10.3519167 L3.52513889,5.52291667 Z M8.5,11.6480833 L13.4748611,16.4770833 C13.9206389,16.90975 14.1666667,17.4849583 14.1666667,18.0972917 L14.1666667,21.0833333 L2.83333333,21.0833333 L2.83333333,18.0972917 C2.83333333,17.4849583 3.07936111,16.9092917 3.52513889,16.476625 L8.5,11.6480833 Z" id="Shape"></path>
        </g>
    </g>
</svg>