<?xml version="1.0" encoding="UTF-8"?>
<svg id="Logos" xmlns="http://www.w3.org/2000/svg" viewBox="0 0 310 122">
  <defs>
    <style>
      .cls-1 {
        fill: #fff;
      }

      .cls-2 {
        fill: #5ce500;
      }
    </style>
  </defs>
  <g>
    <path class="cls-1" d="M74.25,76.22l13.83,34.96h-2.9l-4.55-11.5h-15.49l-4.5,11.5h-2.9l13.83-34.96h2.68ZM66.16,97.05h13.44l-6.72-17.08-6.72,17.08Z"/>
    <path class="cls-1" d="M107.37,106.96c-1.42,2.11-4.33,4.16-7.8,4.16-7.34,0-10.87-6.09-10.87-12.87s3.53-12.87,10.87-12.87c3.47,0,6.38,2.05,7.8,4.21v-3.7h2.79v23.46c0,8.37-5.58,12.01-11.61,12.01-3.19,0-6.03-.97-7.91-2.39v-3.25c2.51,2.28,5.18,3.07,7.91,3.07,4.95,0,8.82-2.96,8.82-9.28v-2.56ZM107.37,92.9c-1.65-3.13-4.5-4.9-7.51-4.9-5.24,0-8.31,4.27-8.31,10.25s3.07,10.3,8.31,10.3c3.02,0,5.86-1.82,7.51-4.9v-10.76Z"/>
    <path class="cls-1" d="M126.53,109.18c2.85,0,4.95-.68,7.12-2.5v2.79c-1.88,1.54-4.38,2.22-7.34,2.22-7.06,0-11.78-5.01-11.78-12.92s4.21-13.38,10.93-13.38,10.02,5.01,10.02,12.35v1.02h-18.16c0,6.83,3.99,10.42,9.22,10.42ZM117.42,96.43h15.31c-.17-4.44-2.28-8.54-7.29-8.54-4.16,0-7.34,3.07-8.03,8.54Z"/>
    <path class="cls-1" d="M139.56,85.9h2.85v4.04c1.54-2.39,4.5-4.55,8.08-4.55,5.75,0,8.77,3.7,8.77,9.05v16.74h-2.79v-16.34c0-3.93-1.99-6.83-6.49-6.83-3.47,0-6.32,2.45-7.57,5.47v17.71h-2.85v-25.28Z"/>
    <path class="cls-1" d="M169.79,111.17h-2.85v-22.83h-5.41v-2.45h5.41v-6.49h2.85v6.49h5.98v2.45h-5.98v22.83Z"/>
    <path class="cls-1" d="M180.27,80.15c-1.08,0-1.94-.85-1.94-1.94,0-1.02.85-1.94,1.94-1.94s1.94.91,1.94,1.94c0,1.08-.85,1.94-1.94,1.94ZM181.69,111.17h-2.85v-25.28h2.85v25.28Z"/>
    <path class="cls-1" d="M197.51,85.38c2.45,0,4.95.68,6.72,2.22v2.9c-1.99-1.82-4.1-2.56-6.6-2.56-5.01,0-9.05,3.93-9.05,10.59s4.04,10.59,9.05,10.59c2.5,0,4.61-.74,6.6-2.56v2.9c-1.76,1.54-4.27,2.22-6.72,2.22-6.77,0-11.78-5.18-11.78-13.15s5.01-13.15,11.78-13.15Z"/>
    <path class="cls-1" d="M224.44,95.74v15.43h-2.9v-34.96h12.07c6.83,0,11.27,3.42,11.27,9.79,0,5.64-3.47,8.88-8.94,9.62l10.59,15.54h-3.36l-10.42-15.43h-8.31ZM224.44,93.18h9.05c5.35,0,8.54-2.68,8.54-7.17s-3.19-7.17-8.54-7.17h-9.05v14.35Z"/>
    <path class="cls-1" d="M265.12,76.22l13.83,34.96h-2.9l-4.55-11.5h-15.49l-4.5,11.5h-2.9l13.83-34.96h2.68ZM257.04,97.05h13.44l-6.72-17.08-6.72,17.08Z"/>
    <path class="cls-1" d="M303.93,105.88v-9.96h-8.82v-2.45h11.5v13.32c-3.25,3.81-7.8,4.9-12.01,4.9-9.11,0-15.88-6.95-15.88-17.99s7-17.99,16.23-17.99c4.1,0,7.74,1.31,10.25,3.36v3.25c-2.96-2.73-6.55-3.87-10.25-3.87-7.8,0-13.26,5.81-13.26,15.26s5.35,15.31,12.98,15.31c3.81,0,6.6-.85,9.28-3.13Z"/>
  </g>
  <g>
    <g>
      <path class="cls-1" d="M75.34,14.11h-13.22v35.81h5.87v-14.06h7.41c8.01,0,12.43-3.91,12.43-11.02,0-3.23-1.22-10.73-12.47-10.73M81.85,24.94c0,4.04-2.1,5.69-7.23,5.69h-6.63v-11.23h7.41c4.35,0,6.46,1.81,6.46,5.54M105.28,23.83l.44.21-1,5.29-.69-.21c-.56-.17-1.13-.26-1.7-.26-5.48,0-5.93,4.37-5.93,9.65v11.41h-5.43v-26.3h5.1v3.17c1.39-2.13,3.06-3.24,5.27-3.51,1.45-.17,2.86.03,3.93.54M118.64,23.1c-4.28,0-7.7,1.63-9.91,4.71-2.32,3.24-2.66,7.04-2.66,9.02,0,8.31,4.93,13.68,12.57,13.68,9.28,0,12.57-7.47,12.57-13.87,0-3.68-1.09-7.02-3.07-9.41-2.24-2.7-5.53-4.12-9.5-4.12M118.64,45.65c-4.25,0-6.89-3.38-6.89-8.83s2.64-8.92,6.89-8.92,6.94,3.46,6.94,8.83-2.66,8.92-6.94,8.92M176.88,23.83l.44.21-1,5.29-.69-.21c-.56-.17-1.13-.26-1.69-.26-5.48,0-5.93,4.37-5.93,9.65v11.41h-5.43v-26.3h5.1v3.17c1.39-2.13,3.06-3.24,5.27-3.51,1.45-.17,2.85.03,3.93.54M196.39,41.5l-.1.29c-1.13,3.23-3.84,3.91-5.92,3.91-4.11,0-6.76-2.73-7.02-7.16h18.59l.07-.52c.08-.61.07-1.47.06-2.09,0-.17,0-.32,0-.47-.27-7.36-5.07-12.31-11.94-12.31-4.01,0-7.3,1.58-9.52,4.56-1.79,2.42-2.81,5.76-2.81,9.17,0,8.13,5.05,13.59,12.57,13.59,5.82,0,9.82-2.96,11.28-8.32l.18-.64h-5.44ZM183.53,33.82c.46-3.64,2.95-5.96,6.5-5.96,2.71,0,5.92,1.58,6.36,5.96h-12.86ZM152.69,25.83c-1.75-1.82-4.1-2.74-6.99-2.74-7.97,0-11.6,7.02-11.6,13.53s3.59,13.44,11.6,13.44c2.67,0,5.06-.98,6.78-2.75-.02,1.16-.05,2.26-.08,2.73-.3,4.34-2.38,6.36-6.56,6.36-2.27,0-4.88-.81-5.39-3.07l-.11-.5h-5.35s.09.72.09.72c.56,4.64,4.63,7.52,10.62,7.52,5.26,0,9-1.98,10.81-5.72.88-1.8,1.32-4.43,1.32-7.81v-23.91h-5.14v2.21ZM146.04,45.22c-1.9,0-6.31-.86-6.31-8.83,0-5.24,2.47-8.49,6.46-8.49,3.08,0,6.36,2.23,6.36,8.49,0,5.52-2.43,8.83-6.51,8.83M227.18,42.01c0,4.18-3.47,8.4-11.23,8.4-6.86,0-10.94-2.97-11.49-8.36l-.06-.55h5.35l.08.4c.66,3.24,3.74,3.92,6.22,3.92,2.71,0,5.61-.88,5.61-3.33,0-1.24-.81-2.12-2.4-2.62-.95-.28-2.11-.61-3.33-.95-2.12-.59-4.3-1.21-5.65-1.67-3.34-1.2-5.25-3.52-5.25-6.38,0-5.3,5.16-7.68,10.28-7.68,6.84,0,10.38,2.58,10.82,7.87l.05.55h-5.27s-.07-.42-.07-.42c-.53-3.05-3.56-3.51-5.32-3.51-1.52,0-5.06.27-5.06,2.79,0,1.15.98,1.99,2.99,2.57.6.17,1.5.4,2.53.67,2.15.56,4.82,1.25,6.16,1.71,3.35,1.18,5.05,3.39,5.05,6.58M252.27,42.01c0,4.18-3.47,8.4-11.22,8.4-6.86,0-10.94-2.97-11.49-8.36l-.06-.55h5.35l.08.4c.65,3.24,3.74,3.92,6.22,3.92,2.71,0,5.61-.88,5.61-3.33,0-1.24-.81-2.12-2.4-2.62-.95-.28-2.11-.61-3.34-.95-2.11-.59-4.3-1.21-5.65-1.67-3.34-1.2-5.25-3.52-5.25-6.38,0-5.3,5.16-7.68,10.28-7.68,6.84,0,10.38,2.58,10.82,7.87l.05.55h-5.27s-.07-.42-.07-.42c-.53-3.05-3.56-3.51-5.33-3.51-1.52,0-5.06.27-5.06,2.79,0,1.15.98,1.99,2.99,2.57.6.17,1.49.4,2.53.67,2.14.56,4.82,1.25,6.16,1.71,3.35,1.18,5.05,3.39,5.05,6.58"/>
      <path class="cls-1" d="M255.57,26.45c-2.03,0-3.7-1.58-3.7-3.75s1.68-3.75,3.7-3.75,3.71,1.58,3.71,3.75-1.68,3.75-3.71,3.75M255.57,19.59c-1.68,0-3.03,1.29-3.03,3.11s1.35,3.11,3.03,3.11,3.03-1.29,3.03-3.11-1.35-3.11-3.03-3.11M255.14,23.4v1.25h-1.11v-3.93h1.84c.88,0,1.45.51,1.45,1.37,0,.61-.29,1.02-.76,1.19l.9,1.37h-1.23l-.76-1.25h-.35ZM255.75,21.64h-.61v.88h.61c.33,0,.51-.16.51-.43s-.18-.45-.51-.45"/>
    </g>
    <path class="cls-2" d="M48.63,41.09c0,.58-.41,1.28-.9,1.56l-12.58,7.27v-28.02L10.87,7.89,23.45.62c.5-.29,1.31-.29,1.81,0l23.36,13.49v26.98ZM29.74,25.01L13.12,15.41c-.5-.29-1.31-.29-1.81,0L.08,21.9l17.53,10.12v20.24s11.23-6.48,11.23-6.48c.5-.29.9-.99.9-1.57v-19.2ZM.08,42.14l12.13,7v-14.01L.08,42.14Z"/>
  </g>
</svg>