<?xml version="1.0" encoding="UTF-8"?>
<svg id="Layer_2" data-name="Layer 2" xmlns="http://www.w3.org/2000/svg" viewBox="0 0 195.66 119.29">
  <defs>
    <style>
      .cls-1 {
        fill: #ffd91b;
      }

      .cls-2 {
        fill: #2500ff;
      }

      .cls-3 {
        fill: #fff;
      }

      .cls-4 {
        fill: #5ce500;
      }

      .cls-5 {
        fill: #ff006a;
      }
    </style>
  </defs>
  <g id="Layer_1-2" data-name="Layer 1">
    <g>
      <g>
        <g>
          <g>
            <path class="cls-3" d="M59.24,9.91h-9.35v25.3h4.14v-9.95h5.23c5.69,0,8.78-2.76,8.78-7.82,0-2.28-.86-7.58-8.81-7.58M63.84,17.51c0,2.84-1.49,4.02-5.12,4.02h-4.68v-7.88h5.23c3.08,0,4.57,1.28,4.57,3.92M80.39,16.78l.31.15-.71,3.74-.48-.15c-.39-.12-.79-.18-1.2-.18-3.87,0-4.19,3.08-4.19,6.82v8.06h-3.84v-18.58h3.6v2.24c.78-1.37,2.16-2.28,3.72-2.47.94-.13,1.91,0,2.78.38M89.82,16.26c-3.02,0-5.44,1.15-7,3.33-1.26,1.89-1.92,4.12-1.88,6.4,0,5.87,3.48,9.67,8.88,9.67,6.55,0,8.88-5.28,8.88-9.8.07-2.4-.7-4.75-2.17-6.65-1.67-1.95-4.14-3.02-6.71-2.91M89.82,32.21c-3.01,0-4.88-2.39-4.88-6.23s1.87-6.3,4.88-6.3,4.9,2.44,4.9,6.23-1.88,6.31-4.9,6.31M130.97,16.81l.31.15-.71,3.74-.48-.15c-.39-.12-.79-.18-1.19-.18-3.87,0-4.19,3.08-4.19,6.82v8.03h-3.84v-18.58h3.6v2.24c.78-1.37,2.16-2.28,3.72-2.47.94-.13,1.91,0,2.78.38M144.76,29.26l-.07.21c-.6,1.77-2.33,2.9-4.19,2.76-2.91,0-4.78-1.93-4.98-5.06h13.14l.05-.37c.04-.49.06-.99.04-1.48v-.33c-.19-5.2-3.55-8.69-8.44-8.69-2.63-.1-5.15,1.11-6.72,3.22-1.32,1.9-2.02,4.17-1.99,6.48,0,5.74,3.55,9.59,8.88,9.59,4.11,0,6.94-2.09,7.97-5.88l.13-.45h-3.83ZM135.67,23.83c.33-2.57,2.09-4.21,4.59-4.21,2.4-.07,4.41,1.81,4.5,4.21h-9.09ZM113.88,18.19c-1.3-1.31-3.09-2.01-4.94-1.93-5.64,0-8.19,4.98-8.19,9.57s2.53,9.5,8.19,9.5c1.8.03,3.53-.67,4.79-1.95,0,.82,0,1.6-.06,1.93-.21,3.06-1.68,4.49-4.63,4.49-1.61,0-3.45-.58-3.8-2.17l-.08-.35h-3.78l.06.5c.4,3.28,3.28,5.31,7.51,5.31,3.71,0,6.35-1.42,7.64-4.04.71-1.75,1.02-3.63.93-5.52v-16.89h-3.63v1.56ZM109.18,31.89c-1.34,0-4.46-.6-4.46-6.23,0-3.7,1.75-6,4.56-6,2.17,0,4.5,1.58,4.5,6,0,3.9-1.72,6.23-4.6,6.23M166.5,29.62c0,2.96-2.45,5.94-7.93,5.94-4.84,0-7.73-2.13-8.12-5.91l-.04-.39h3.78l.06.28c.46,2.29,2.64,2.77,4.39,2.77,1.92,0,3.97-.62,3.97-2.35,0-.87-.57-1.5-1.7-1.85-.67-.2-1.49-.43-2.35-.68-1.49-.41-3.04-.85-3.99-1.18-2.35-.85-3.71-2.49-3.71-4.51,0-3.75,3.65-5.42,7.26-5.42,4.83,0,7.33,1.82,7.65,5.56v.39h-3.72l-.05-.29c-.38-2.13-2.52-2.48-3.76-2.48-1.07,0-3.55.19-3.55,1.98,0,.81.71,1.42,2.13,1.81.42.12,1.05.28,1.78.48,1.51.39,3.4.88,4.36,1.21,2.37.83,3.55,2.4,3.55,4.65M184.27,29.63c0,2.96-2.45,5.94-7.92,5.94-4.85,0-7.73-2.13-8.12-5.91v-.39h3.77l.06.28c.46,2.29,2.64,2.77,4.4,2.77,1.91,0,3.96-.62,3.96-2.35,0-.87-.57-1.5-1.69-1.85l-2.36-.68c-1.49-.41-3.04-.85-3.99-1.18-2.35-.85-3.71-2.49-3.71-4.51,0-3.75,3.65-5.42,7.26-5.42,4.83,0,7.33,1.82,7.65,5.56v.39h-3.72l-.05-.29c-.38-2.13-2.52-2.48-3.76-2.48-1.07,0-3.55.19-3.55,1.98,0,.81.71,1.42,2.13,1.81.42.12,1.05.28,1.78.48,1.51.39,3.4.88,4.36,1.21,2.36.83,3.55,2.4,3.55,4.65"/>
            <path class="cls-3" d="M187.28,18.62c-1.46.02-2.66-1.16-2.67-2.62-.02-1.46,1.16-2.66,2.62-2.67,1.46-.02,2.66,1.16,2.67,2.62,0,0,0,.02,0,.03.03,1.43-1.1,2.61-2.53,2.64-.03,0-.06,0-.09,0M187.28,13.78c-1.21-.04-2.22.92-2.26,2.13-.04,1.21.92,2.22,2.13,2.26s2.22-.92,2.26-2.13c0-.02,0-.04,0-.06.04-1.18-.89-2.16-2.07-2.2-.02,0-.04,0-.06,0M186.98,16.47v.88h-.78v-2.77h1.3c.51-.06.97.31,1.03.83,0,.05,0,.09,0,.14.03.37-.19.72-.54.84l.64.97h-.87l-.53-.88h-.25ZM187.41,15.23h-.43v.65h.43c.23,0,.36-.12.36-.31,0-.18-.14-.32-.32-.32-.02,0-.03,0-.05,0"/>
          </g>
          <path class="cls-4" d="M40.87,28.93c-.03.45-.27.86-.64,1.11l-8.95,5.17V15.28L14.02,5.31,22.97.14c.4-.19.86-.19,1.25,0l16.65,9.59v19.19ZM27.44,17.48l-11.8-6.82c-.41-.2-.88-.2-1.29,0l-8.01,4.61,12.48,7.2v14.39l7.98-4.61c.38-.25.62-.66.64-1.11v-13.66ZM6.34,29.67l8.62,5.01v-9.99l-8.62,4.99Z"/>
        </g>
        <rect class="cls-3" y="59.95" width="195.66" height=".75"/>
      </g>
      <g>
        <path class="cls-3" d="M145.13,95.6h-1.65l1.25-4.6h5.56v13.85h1.65l-1.19,4.6h-5.56v-13.85h-.06ZM144.73,85.5c0-1.59,1.25-2.84,2.84-2.84s2.84,1.25,2.84,2.84-1.25,2.84-2.84,2.84h0c-1.53,0-2.84-1.19-2.84-2.72v-.11Z"/>
        <path class="cls-3" d="M153.36,100.19c0-5.56,3.86-9.76,8.97-9.76,2.44-.11,4.82,1.08,6.19,3.12v-2.61h5.05v13.9h1.65l-1.25,4.6h-5.45v-6.3l-1.59,5.33c-1.31.96-2.95,1.53-4.6,1.48-5.16,0-9.02-4.14-9.02-9.76h.06ZM168.57,100.14c0-2.72-2.21-4.94-4.94-4.94s-4.94,2.21-4.94,4.94,2.21,4.94,4.94,4.94,4.94-2.21,4.94-4.94h0Z"/>
        <path class="cls-3" d="M83.96,90.15c-1.87,0-3.69.57-5.11,1.76v-1.36h-5.11v18.84h5.5v-10.95c-.11-1.7,1.19-3.18,2.89-3.29h.28c1.87,0,3.18,1.31,3.18,3.29v10.95h5.5v-11.63c0-4.65-2.84-7.6-7.15-7.6Z"/>
        <path class="cls-3" d="M106.32,101.5c.11,1.7-1.19,3.12-2.84,3.23h-.28c-1.7.06-3.18-1.25-3.23-2.95v-11.18h-5.5v10.5c0,5.16,3.57,8.74,8.74,8.74s8.68-3.57,8.68-8.8v-10.5h-5.5v10.9l-.06.06Z"/>
        <path class="cls-3" d="M128.62,102.24c-1.25,1.76-2.5,2.5-4.2,2.5-2.67,0-4.54-1.99-4.54-4.77s1.93-4.77,4.54-4.77,3.01.79,4.2,2.55l.17.23,3.86-3.01-.11-.17c-1.65-2.95-4.82-4.77-8.17-4.65-5.62,0-10.04,4.31-10.04,9.82s4.43,9.87,9.87,9.87h.23c3.4.11,6.53-1.7,8.17-4.65l.11-.17-3.86-2.95-.17.23-.06-.06Z"/>
        <rect class="cls-3" x="135.03" y="81.13" width="5.5" height="28.26"/>
        <path class="cls-1" d="M55.99,86.13l-17.92-10.04h-.09l-18.01,9.9s-.05.09,0,.14h0l16.65,9.24h.09c.84-.47,1.88-.47,2.67.05h.09l16.51-9.15s.05-.09,0-.14h0Z"/>
        <path class="cls-2" d="M40.56,97.53v.05c0,.94-.52,1.78-1.31,2.25v19.32s0,.09.09.09h0l17.92-9.94v-20.92s0-.09-.09-.09h-.05l-16.65,9.24h.09Z"/>
        <path class="cls-5" d="M36.9,99.97v19.23s0,.09-.09.09h0l-18.1-10.08s0-.05-.05-.09v-20.92s0-.09.09-.09h0l16.65,9.24v.19c0,.98.56,1.88,1.45,2.3v.09l.05.05Z"/>
      </g>
    </g>
  </g>
</svg>