<svg xmlns="http://www.w3.org/2000/svg" viewBox="0 0 92 98" width="92" height="98">
  <path fill="#FF0066" d="M5,27.62,5,27.6l-.07,0a.14.14,0,0,0-.07.12V73.13a.15.15,0,0,0,.07.12L44.12,95.06a.1.1,0,0,0,.13,0,.12.12,0,0,0,.07-.11V53a4.86,4.86,0,0,1-3.08-4.55,3.81,3.81,0,0,1,.06-.6Z" />
  <path fill="#FF0066" d="M48.29,52.94V94.86a.14.14,0,0,0,.07.12.12.12,0,0,0,.13,0L87.4,73.4a.15.15,0,0,0,.07-.12V28.09A.16.16,0,0,0,87.4,28a.14.14,0,0,0-.13,0L51.15,48v0a2.34,2.34,0,0,1,0,.39A4.92,4.92,0,0,1,48.29,52.94Z" />
  <path fill="#FF0066" d="M46.29,2.52a.15.15,0,0,0-.13,0L7.12,24a.11.11,0,0,0-.07.11.13.13,0,0,0,.07.12l36.22,20.2a5,5,0,0,1,2.94-.94,4.76,4.76,0,0,1,2.95,1l36-20a.14.14,0,0,0,0-.24Z" />
</svg>
