<svg width="129" height="32" viewBox="0 0 129 32" fill="none" xmlns="http://www.w3.org/2000/svg">
  <g clip-path="url(#clip0_8_875)">
    <path d="M81.3722 14.5935H80.3406L81.1222 11.7597H84.5552V20.2612H85.5621L84.8157 23.0916H81.3828L81.3722 14.5935ZM81.1258 8.42509C81.1258 8.08123 81.229 7.7451 81.4224 7.4592C81.6159 7.17329 81.8908 6.95045 82.2125 6.81886C82.5342 6.68728 82.8882 6.65285 83.2297 6.71993C83.5712 6.78701 83.8849 6.9526 84.1311 7.19574C84.3773 7.43888 84.5449 7.74866 84.6129 8.08591C84.6808 8.42316 84.6459 8.77273 84.5127 9.09041C84.3794 9.40809 84.1538 9.67962 83.8643 9.87065C83.5748 10.0617 83.2344 10.1637 82.8862 10.1637C82.654 10.1674 82.4233 10.125 82.208 10.039C81.9927 9.95293 81.7971 9.82501 81.6329 9.66282C81.4687 9.50062 81.3391 9.30746 81.252 9.09483C81.1649 8.8822 81.1219 8.65444 81.1258 8.42509Z" fill="#FF0066"/>
    <path d="M86.4812 17.4269C86.4812 14.0019 88.8684 11.4393 92.0619 11.4393C92.8145 11.4084 93.5625 11.5699 94.2336 11.9079C94.9047 12.246 95.4761 12.7492 95.8927 13.3691V11.7592H99.0228V20.2607H100.054L99.2763 23.0911H95.8927V19.2385L94.9068 22.5035C94.086 23.1079 93.0856 23.427 92.0619 23.411C88.8684 23.411 86.4812 20.8727 86.4812 17.4269ZM95.8927 17.3678C95.8747 16.7713 95.6793 16.1933 95.3309 15.7058C94.9825 15.2183 94.4964 14.8428 93.9334 14.6263C93.3703 14.4098 92.7552 14.3617 92.1647 14.4882C91.5742 14.6146 91.0345 14.9099 90.6128 15.3373C90.1911 15.7646 89.9061 16.3051 89.7934 16.8914C89.6807 17.4776 89.7453 18.0836 89.979 18.6339C90.2128 19.1841 90.6054 19.6542 91.1079 19.9856C91.6104 20.3169 92.2006 20.4949 92.8048 20.4972C93.2187 20.5027 93.6295 20.4249 94.012 20.2685C94.3945 20.1122 94.7408 19.8806 95.0297 19.5878C95.3186 19.295 95.5441 18.9471 95.6925 18.5654C95.8408 18.1838 95.9089 17.7763 95.8927 17.3678Z" fill="#FF0066"/>
    <path d="M43.399 11.2803C42.2479 11.2575 41.1257 11.6368 40.2301 12.3512V11.5306H37.0613V23.0677H40.4801V16.3569C40.4642 16.0918 40.5046 15.8263 40.5987 15.5776C40.6928 15.3288 40.8385 15.1022 41.0265 14.9123C41.2145 14.7224 41.4406 14.5734 41.6903 14.4749C41.94 14.3764 42.2078 14.3305 42.4765 14.3401C43.6454 14.3401 44.4306 15.1503 44.4306 16.3569V23.0677H47.8459V15.95C47.8459 13.1127 46.0854 11.2803 43.399 11.2803Z" fill="#FF0066"/>
    <path d="M57.2892 18.2168C57.306 18.4776 57.2675 18.739 57.1761 18.9842C57.0847 19.2294 56.9426 19.4531 56.7586 19.641C56.5747 19.8289 56.3531 19.9768 56.108 20.0752C55.8628 20.1736 55.5996 20.2204 55.3351 20.2127C55.068 20.2232 54.8016 20.1785 54.5529 20.0816C54.3042 19.9847 54.0788 19.8377 53.8909 19.6498C53.703 19.462 53.5569 19.2376 53.4618 18.9908C53.3667 18.7441 53.3248 18.4804 53.3388 18.2168V11.5303H49.9199V17.9664C49.9199 21.1306 52.1487 23.3386 55.3351 23.3386C58.5216 23.3386 60.7081 21.1306 60.7081 17.9664V11.5303H57.2892V18.2168Z" fill="#FF0066"/>
    <path d="M71.1368 18.6687C70.3728 19.7362 69.5735 20.2126 68.5384 20.2126C66.873 20.2126 65.7216 19.0095 65.7216 17.2883C65.7216 15.5671 66.9117 14.3849 68.5384 14.3849C69.5947 14.3849 70.415 14.8787 71.1368 15.9461L71.2319 16.0852L73.6332 14.2458L73.5663 14.1276C73.0663 13.2391 72.3286 12.5035 71.4337 12.0012C70.5389 11.499 69.5214 11.2494 68.4926 11.2798C64.9893 11.2798 62.25 13.919 62.25 17.2883C62.2489 18.0928 62.4105 18.8895 62.7253 19.6316C63.0401 20.3736 63.5017 21.0461 64.0832 21.6097C64.6646 22.1732 65.3541 22.6164 66.1113 22.9133C66.8685 23.2101 67.6781 23.3547 68.4926 23.3385C69.5231 23.3645 70.5411 23.1108 71.4358 22.605C72.3304 22.0992 73.0673 21.3607 73.5663 20.4699L73.6332 20.3517L71.2354 18.5366L71.1368 18.6687Z" fill="#FF0066"/>
    <path d="M78.5204 5.74805H75.1016V23.0641H78.5204V5.74805Z" fill="#FF0066"/>
    <path d="M101.906 17.2643C101.893 16.4911 102.036 15.723 102.327 15.005C102.617 14.287 103.051 13.6336 103.601 13.0831C104.15 12.5325 104.806 12.0959 105.529 11.7989C106.252 11.5019 107.028 11.3503 107.811 11.3532C108.737 11.3169 109.656 11.5289 110.47 11.9666C111.284 12.4043 111.962 13.0515 112.434 13.8394V8.51937H111.519L111.906 7.09375H113.944V21.4925H114.86L114.469 22.9147H112.434V20.6997C111.963 21.4882 111.284 22.1358 110.47 22.5735C109.656 23.0113 108.737 23.223 107.811 23.1859C107.027 23.1893 106.25 23.0378 105.526 22.7403C104.802 22.4427 104.146 22.0052 103.596 21.4535C103.045 20.9017 102.613 20.2469 102.322 19.5274C102.032 18.808 101.891 18.0386 101.906 17.2643ZM112.434 17.2643C112.43 16.3843 112.162 15.5252 111.664 14.7954C111.165 14.0657 110.46 13.498 109.635 13.1641C108.811 12.8302 107.904 12.7449 107.031 12.9192C106.157 13.0934 105.356 13.5192 104.727 14.143C104.098 14.7667 103.671 15.5604 103.499 16.4239C103.326 17.2873 103.417 18.1819 103.759 18.9945C104.101 19.8072 104.679 20.5016 105.42 20.9902C106.161 21.4787 107.033 21.7394 107.924 21.7394C108.519 21.7455 109.111 21.6338 109.662 21.4108C110.213 21.1878 110.714 20.858 111.134 20.441C111.555 20.0239 111.886 19.528 112.109 18.9825C112.333 18.4369 112.443 17.8527 112.434 17.2643Z" fill="#FF0066"/>
    <path d="M118.476 20.6997V22.9147H116.965V8.51937H116.05L116.437 7.09375H118.476V13.8289C118.946 13.0388 119.624 12.3894 120.438 11.9497C121.252 11.5101 122.172 11.2967 123.099 11.3324C124.689 11.3324 126.214 11.9562 127.339 13.0668C128.463 14.1773 129.095 15.6834 129.095 17.2539C129.095 18.8244 128.463 20.3306 127.339 21.4411C126.214 22.5516 124.689 23.1755 123.099 23.1755C122.174 23.214 121.255 23.0041 120.441 22.5681C119.627 22.1322 118.948 21.4865 118.476 20.6997ZM127.493 17.2643C127.489 16.3843 127.221 15.5252 126.722 14.7954C126.224 14.0657 125.518 13.498 124.694 13.1641C123.869 12.8302 122.963 12.7449 122.09 12.9192C121.216 13.0934 120.415 13.5192 119.786 14.143C119.157 14.7667 118.73 15.5604 118.557 16.4239C118.385 17.2873 118.476 18.1819 118.818 18.9945C119.16 19.8072 119.738 20.5016 120.479 20.9902C121.22 21.4787 122.091 21.7394 122.983 21.7394C123.578 21.7436 124.168 21.6306 124.718 21.4069C125.269 21.1832 125.769 20.8534 126.189 20.4368C126.609 20.0201 126.94 19.5249 127.164 18.9802C127.388 18.4355 127.5 17.8522 127.493 17.2643Z" fill="#FF0066"/>
    <path d="M28.009 7.43057L14.5625 0.00690236C14.5528 0.00172852 14.5419 -0.000976562 14.5308 -0.000976562C14.5198 -0.000976562 14.5089 0.00172852 14.4992 0.00690236L0.996374 7.32974C0.986129 7.33551 0.977613 7.34386 0.97169 7.35394C0.965766 7.36401 0.962646 7.37546 0.962646 7.38711C0.962646 7.39876 0.965766 7.4102 0.97169 7.42028C0.977613 7.43035 0.986129 7.43871 0.996374 7.44448L13.4816 14.2944C13.4913 14.2996 13.5022 14.3023 13.5133 14.3023C13.5244 14.3023 13.5352 14.2996 13.545 14.2944C13.8518 14.1183 14.2019 14.0293 14.5567 14.0373C14.9114 14.0453 15.2571 14.1499 15.5554 14.3396C15.5649 14.3455 15.5759 14.3486 15.5871 14.3486C15.5983 14.3486 15.6093 14.3455 15.6188 14.3396L28.009 7.54532C28.0192 7.53954 28.0277 7.53119 28.0337 7.52111C28.0396 7.51104 28.0427 7.4996 28.0427 7.48795C28.0427 7.4763 28.0396 7.46485 28.0337 7.45477C28.0277 7.4447 28.0192 7.43635 28.009 7.43057Z" fill="#FF0066"/>
    <path d="M16.4287 15.8799C16.4303 15.8961 16.4303 15.9124 16.4287 15.9286C16.4301 16.2662 16.3405 16.5981 16.1691 16.8902C15.9977 17.1823 15.7507 17.424 15.4534 17.5907C15.4435 17.5954 15.4353 17.6028 15.4297 17.6121C15.424 17.6214 15.4213 17.632 15.4217 17.6428V31.899C15.4221 31.9103 15.4254 31.9212 15.4313 31.9308C15.4372 31.9404 15.4455 31.9483 15.4553 31.9539C15.4652 31.9595 15.4763 31.9624 15.4877 31.9626C15.499 31.9627 15.5103 31.96 15.5203 31.9547L28.9843 24.5797C28.9942 24.5733 29.0023 24.5645 29.0078 24.5542C29.0134 24.5438 29.0162 24.5323 29.016 24.5206V9.0891C29.0169 9.0777 29.0147 9.06627 29.0095 9.05605C29.0043 9.04583 28.9964 9.0372 28.9866 9.03111C28.9768 9.02502 28.9655 9.02169 28.9539 9.02149C28.9423 9.0213 28.9309 9.02423 28.9209 9.02999L16.4287 15.8799Z" fill="#FF0066"/>
    <path d="M13.7105 17.692V31.9483C13.7108 31.9594 13.708 31.9703 13.7026 31.98C13.6971 31.9898 13.6891 31.9979 13.6795 32.0035C13.6698 32.0092 13.6588 32.0122 13.6475 32.0123C13.6363 32.0123 13.6252 32.0094 13.6155 32.0039L0.0352095 24.5454C0.0248883 24.5392 0.0162798 24.5305 0.0101406 24.5202C0.00400142 24.5099 0.000519166 24.4983 0 24.4863V8.99226C0.000433927 8.98105 0.0037516 8.97013 0.00964031 8.96053C0.015529 8.95094 0.0237949 8.94298 0.0336585 8.93742C0.0435221 8.93185 0.0546584 8.92886 0.0660179 8.92872C0.0773773 8.92858 0.0885859 8.9313 0.0985864 8.93662L12.6014 15.7935C12.6014 15.8387 12.6014 15.8839 12.6014 15.9291C12.6023 16.2863 12.7052 16.6359 12.8983 16.9379C13.0914 17.2399 13.3668 17.482 13.6929 17.6364C13.7002 17.6436 13.7056 17.6524 13.7087 17.6621C13.7117 17.6718 13.7124 17.682 13.7105 17.692Z" fill="#FF0066"/>
  </g>
  <defs>
    <clipPath id="clip0_8_875">
      <rect width="129" height="32" fill="white"/>
    </clipPath>
  </defs>
</svg>
