<svg width="319" height="56" viewBox="0 0 319 56" fill="none" xmlns="http://www.w3.org/2000/svg">
<path d="M142.328 25.3365H140.542L141.895 20.4165H147.84V35.1763H149.583L148.273 40.0902H142.328V25.3365ZM141.902 14.6273C141.904 14.2347 141.985 13.8465 142.14 13.485C142.295 13.1236 142.52 12.7962 142.804 12.5216C143.087 12.2471 143.423 12.031 143.791 11.8857C144.16 11.7405 144.554 11.669 144.95 11.6754C145.738 11.6817 146.492 11.9949 147.049 12.5473C147.606 13.0997 147.92 13.8469 147.925 14.6273C147.93 15.0189 147.857 15.4077 147.71 15.7713C147.563 16.135 147.345 16.4664 147.069 16.7467C146.793 17.0269 146.463 17.2506 146.1 17.4049C145.736 17.5591 145.345 17.6409 144.95 17.6457C144.548 17.6514 144.149 17.5772 143.777 17.4275C143.404 17.2778 143.066 17.0557 142.782 16.7743C142.497 16.4929 142.273 16.1579 142.122 15.7891C141.971 15.4203 141.896 15.0253 141.902 14.6273Z" fill="black"/>
<path d="M151.175 30.2567C151.175 24.3105 155.308 19.8614 160.838 19.8614C162.141 19.8079 163.437 20.0882 164.599 20.6751C165.761 21.262 166.75 22.1357 167.471 23.2118V20.4168H172.891V35.1766H174.678L173.33 40.0905H167.471V33.4018L165.764 39.0703C164.343 40.1196 162.611 40.6736 160.838 40.6459C155.308 40.6459 151.175 36.2391 151.175 30.2567ZM167.471 30.154C167.5 29.4448 167.382 28.7373 167.125 28.0747C166.868 27.4121 166.477 26.8082 165.977 26.2998C165.477 25.7915 164.877 25.3894 164.215 25.1179C163.553 24.8465 162.841 24.7114 162.125 24.721C161.411 24.7155 160.703 24.8536 160.045 25.127C159.386 25.4003 158.791 25.8032 158.294 26.3112C157.798 26.8192 157.41 27.4217 157.156 28.0823C156.902 28.7429 156.785 29.4477 156.814 30.154C156.785 30.8604 156.902 31.5652 157.156 32.2258C157.41 32.8863 157.798 33.4889 158.294 33.9969C158.791 34.5049 159.386 34.9078 160.045 35.1811C160.703 35.4545 161.411 35.5926 162.125 35.5871C162.842 35.6001 163.555 35.4675 164.219 35.1973C164.883 34.927 165.484 34.525 165.985 34.0159C166.486 33.5069 166.876 32.9016 167.132 32.2374C167.388 31.5732 167.503 30.8641 167.471 30.154Z" fill="black"/>
<path d="M76.5743 19.5819C74.5812 19.5424 72.6379 20.2008 71.0872 21.4412V20.0165H65.6001V40.0464H71.5201V28.3955C71.4926 27.9353 71.5625 27.4744 71.7254 27.0426C71.8884 26.6107 72.1407 26.2173 72.4662 25.8876C72.7917 25.5579 73.1832 25.2993 73.6155 25.1282C74.0479 24.9571 74.5116 24.8774 74.9769 24.8942C77.001 24.8942 78.3606 26.3008 78.3606 28.3955V40.0464H84.2745V27.6892C84.2745 22.7633 81.2261 19.5819 76.5743 19.5819Z" fill="black"/>
<path d="M100.627 31.6268C100.656 32.0796 100.59 32.5334 100.431 32.9592C100.273 33.3849 100.027 33.7733 99.7084 34.0995C99.3899 34.4256 99.0062 34.6824 98.5817 34.8533C98.1573 35.0242 97.7015 35.1054 97.2435 35.0919C96.781 35.1102 96.3197 35.0327 95.8891 34.8645C95.4585 34.6962 95.068 34.4409 94.7427 34.1148C94.4174 33.7887 94.1644 33.3991 93.9997 32.9707C93.8351 32.5423 93.7625 32.0846 93.7866 31.6268V20.0182H87.8667V31.1922C87.8667 36.6856 91.726 40.519 97.2435 40.519C102.761 40.519 106.547 36.6856 106.547 31.1922V20.0182H100.627V31.6268Z" fill="black"/>
<path d="M124.608 32.4094C123.285 34.2627 121.901 35.0897 120.109 35.0897C117.225 35.0897 115.231 33.001 115.231 30.0128C115.231 27.0247 117.292 24.9722 120.109 24.9722C121.938 24.9722 123.358 25.8294 124.608 27.6827L124.773 27.9241L128.931 24.7307L128.815 24.5254C127.949 22.9829 126.672 21.7058 125.122 20.8338C123.573 19.9619 121.811 19.5286 120.029 19.5814C113.963 19.5814 109.22 24.1633 109.22 30.0128C109.218 31.4096 109.498 32.7927 110.043 34.081C110.588 35.3693 111.387 36.5369 112.394 37.5152C113.401 38.4936 114.595 39.263 115.906 39.7784C117.217 40.2939 118.619 40.5449 120.029 40.5167C121.814 40.562 123.576 40.1215 125.126 39.2433C126.675 38.3652 127.951 37.083 128.815 35.5364L128.931 35.3312L124.779 32.18L124.608 32.4094Z" fill="black"/>
<path d="M137.394 9.97931H131.474V40.0422H137.394V9.97931Z" fill="black"/>
<path d="M177.884 29.9721C177.86 28.6297 178.108 27.2962 178.611 26.0496C179.115 24.8031 179.865 23.6687 180.817 22.7129C181.769 21.7571 182.905 20.9991 184.157 20.4834C185.409 19.9677 186.752 19.7047 188.108 19.7097C189.712 19.6466 191.302 20.0146 192.712 20.7745C194.121 21.5345 195.296 22.658 196.113 24.026V14.8079H194.528L195.199 12.3328H198.729V37.3309H200.314L199.637 39.7999H196.113V35.9545C195.297 37.3233 194.122 38.4476 192.713 39.2077C191.303 39.9677 189.712 40.3351 188.108 40.2708C186.749 40.2767 185.402 40.0131 184.147 39.4955C182.892 38.9778 181.755 38.2166 180.802 37.2567C179.849 36.2969 179.1 35.1578 178.599 33.9067C178.098 32.6556 177.854 31.3177 177.884 29.9721ZM196.113 29.9721C196.129 28.9506 195.937 27.9364 195.551 26.9893C195.164 26.0421 194.59 25.1811 193.862 24.4571C193.135 23.733 192.268 23.1605 191.313 22.7734C190.358 22.3863 189.335 22.1923 188.303 22.2029C187.273 22.1964 186.252 22.3932 185.299 22.7819C184.346 23.1705 183.482 23.7432 182.755 24.4665C182.029 25.1898 181.455 26.0492 181.068 26.9945C180.68 27.9398 180.487 28.9521 180.499 29.9721C180.487 30.9922 180.68 32.0044 181.068 32.9497C181.455 33.895 182.029 34.7544 182.755 35.4777C183.482 36.201 184.346 36.7737 185.299 37.1623C186.252 37.551 187.273 37.7479 188.303 37.7414C189.335 37.752 190.358 37.558 191.313 37.1708C192.268 36.7837 193.135 36.2112 193.862 35.4871C194.59 34.7631 195.164 33.9021 195.551 32.955C195.937 32.0078 196.129 30.9936 196.113 29.9721Z" fill="black"/>
<path d="M202.691 29.9714C202.691 24.0856 206.929 19.709 213.056 19.709C218.921 19.709 222.884 24.4961 222.884 30.068C222.884 30.3456 222.847 30.7742 222.805 31.2753H205.411C205.965 35.5916 209.294 37.7467 213.294 37.7467C216.11 37.7467 218.781 36.9257 221.658 35.0422L220.787 38.2598C218.476 39.5864 215.849 40.2763 213.178 40.2579C207.429 40.2519 202.691 36.485 202.691 29.9714ZM220.165 28.764C219.61 24.7194 216.757 22.2082 213.032 22.2082C211.155 22.1352 209.32 22.7722 207.9 23.9897C206.48 25.2073 205.581 26.9142 205.386 28.764H220.165Z" fill="black"/>
<path d="M225.237 37.7834L225.914 35.1937C227.718 36.8352 230.079 37.7446 232.529 37.7411C235.029 37.7411 236.967 36.8417 236.967 34.8375C236.967 32.8333 235.266 32.0123 232.175 31.1128C229.834 30.4427 225.792 29.3441 225.792 25.0761C225.792 21.7016 228.962 19.6431 232.499 19.6431C234.787 19.6359 237.004 20.429 238.76 21.8827L238.004 24.5871C236.785 23.0176 234.48 22.1724 232.517 22.1724C230.334 22.1724 228.432 23.1926 228.432 25.0761C228.432 27.0803 230.139 28.022 232.316 28.6498C235.565 29.5916 239.632 30.648 239.632 34.8073C239.632 38.3388 236.266 40.2403 232.736 40.2403C230.022 40.3212 227.367 39.4512 225.237 37.7834Z" fill="black"/>
<path d="M243.465 14.789H241.88L242.557 12.314H246.081V39.7811H243.465V14.789ZM246.081 29.579L255.512 20.1617H259.079L249.647 29.579L259.475 39.7811H255.988L246.081 29.579Z" fill="black"/>
<path d="M264.628 22.6916H260.269L260.945 20.1804H264.603V15.4475L267.219 14.6628V20.1562H272.706L272.054 22.6916H267.219V39.7997H264.603L264.628 22.6916Z" fill="black"/>
<path d="M273.352 29.9732C273.334 28.6155 273.592 27.2679 274.11 26.0107C274.628 24.7535 275.396 23.6123 276.369 22.6549C277.342 21.6975 278.499 20.9435 279.771 20.4378C281.044 19.932 282.407 19.6848 283.778 19.7108C285.146 19.6956 286.503 19.9502 287.77 20.4598C289.038 20.9695 290.19 21.724 291.16 22.6792C292.13 23.6345 292.898 24.7715 293.42 26.0238C293.941 27.2761 294.205 28.6187 294.197 29.9732C294.213 31.3298 293.954 32.6757 293.435 33.9314C292.916 35.1871 292.148 36.327 291.177 37.2838C290.205 38.2406 289.05 38.9948 287.779 39.5018C286.508 40.0088 285.148 40.2584 283.778 40.2357C282.405 40.2685 281.039 40.0259 279.763 39.5225C278.488 39.0192 277.328 38.2655 276.354 37.3067C275.38 36.348 274.612 35.204 274.096 33.9438C273.58 32.6835 273.327 31.3329 273.352 29.9732ZM291.582 29.9732C291.597 28.9523 291.406 27.9386 291.02 26.9918C290.634 26.0451 290.06 25.1844 289.333 24.4604C288.606 23.7364 287.74 23.1638 286.786 22.7763C285.832 22.3888 284.809 22.1942 283.778 22.204C282.747 22.1967 281.725 22.3929 280.772 22.7812C279.819 23.1695 278.953 23.7422 278.226 24.4655C277.499 25.1889 276.924 26.0486 276.537 26.9943C276.149 27.94 275.956 28.9527 275.968 29.9732C275.949 30.9956 276.138 32.0113 276.523 32.96C276.908 33.9087 277.482 34.771 278.211 35.4957C278.939 36.2204 279.808 36.7928 280.764 37.1787C281.72 37.5647 282.745 37.7564 283.778 37.7425C284.81 37.7573 285.834 37.5661 286.79 37.1802C287.746 36.7944 288.613 36.2217 289.34 35.4966C290.067 34.7714 290.64 33.9086 291.023 32.9596C291.406 32.0106 291.592 30.995 291.569 29.9732H291.582Z" fill="black"/>
<path d="M300.769 35.936V47.6291H298.154V22.6371H296.568L297.245 20.1621H300.769V24.0074C301.583 22.6362 302.758 21.509 304.167 20.7458C305.577 19.9826 307.169 19.6119 308.774 19.6731C310.13 19.6681 311.473 19.9311 312.725 20.4468C313.977 20.9625 315.113 21.7205 316.065 22.6763C317.017 23.6321 317.767 24.7665 318.271 26.013C318.775 27.2596 319.022 28.5931 318.998 29.9355C319.023 31.2781 318.776 32.612 318.273 33.8589C317.769 35.1058 317.019 36.2406 316.067 37.1966C315.114 38.1525 313.979 38.9105 312.726 39.4259C311.474 39.9413 310.13 40.2038 308.774 40.1979C307.176 40.2678 305.588 39.9086 304.179 39.1583C302.77 38.4081 301.592 37.2948 300.769 35.936ZM316.383 29.9717C316.395 28.9517 316.202 27.9394 315.814 26.9942C315.427 26.0489 314.853 25.1895 314.127 24.4662C313.4 23.7429 312.536 23.1702 311.583 22.7815C310.63 22.3928 309.609 22.196 308.579 22.2025C307.547 22.1919 306.524 22.3859 305.569 22.773C304.614 23.1602 303.748 23.7327 303.02 24.4567C302.292 25.1808 301.718 26.0417 301.331 26.9889C300.945 27.9361 300.754 28.9503 300.769 29.9717C300.754 30.9932 300.945 32.0074 301.331 32.9546C301.718 33.9017 302.292 34.7627 303.02 35.4868C303.748 36.2108 304.614 36.7833 305.569 37.1704C306.524 37.5576 307.547 37.7516 308.579 37.741C309.609 37.7475 310.63 37.5506 311.583 37.162C312.536 36.7733 313.4 36.2006 314.127 35.4773C314.853 34.754 315.427 33.8946 315.814 32.9493C316.202 32.004 316.395 30.9918 316.383 29.9717Z" fill="black"/>
<path d="M49.3133 12.9021L26.0297 0.0136696C26.0128 0.00468715 25.994 0 25.9749 0C25.9557 0 25.9368 0.00468715 25.92 0.0136696L2.53889 12.727C2.52115 12.737 2.50639 12.7516 2.49613 12.769C2.48588 12.7865 2.48047 12.8064 2.48047 12.8266C2.48047 12.8469 2.48588 12.8667 2.49613 12.8842C2.50639 12.9017 2.52115 12.9162 2.53889 12.9262L24.158 24.8186C24.1749 24.8276 24.1937 24.8322 24.2129 24.8322C24.232 24.8322 24.2509 24.8276 24.2678 24.8186C24.777 24.5257 25.3555 24.3716 25.9444 24.3719C26.5928 24.3661 27.2287 24.5487 27.7734 24.8971C27.7899 24.9072 27.8089 24.9126 27.8283 24.9126C27.8477 24.9126 27.8667 24.9072 27.8831 24.8971L49.3377 13.1013C49.3544 13.0893 49.3676 13.0731 49.3759 13.0543C49.3842 13.0355 49.3872 13.0149 49.3847 12.9946C49.3822 12.9742 49.3743 12.9549 49.3617 12.9387C49.3492 12.9224 49.3324 12.9098 49.3133 12.9021Z" fill="#FFD91B"/>
<path d="M29.2667 27.5713C29.2695 27.5994 29.2695 27.6277 29.2667 27.6558C29.2692 28.2419 29.114 28.8181 28.8172 29.3253C28.5205 29.8324 28.0927 30.2521 27.5779 30.5414C27.5609 30.5496 27.5466 30.5625 27.5369 30.5786C27.5271 30.5947 27.5223 30.6132 27.523 30.632V55.3825C27.5238 55.402 27.5295 55.4209 27.5397 55.4376C27.5499 55.4542 27.5643 55.4681 27.5813 55.4777C27.5984 55.4874 27.6177 55.4926 27.6373 55.4928C27.657 55.493 27.6764 55.4883 27.6937 55.4791L51.0078 42.6752C51.0249 42.664 51.0389 42.6488 51.0485 42.6309C51.0581 42.6129 51.063 42.5929 51.0626 42.5726V15.7756C51.0643 15.7558 51.0604 15.736 51.0514 15.7182C51.0424 15.7005 51.0287 15.6855 51.0117 15.6749C50.9947 15.6643 50.9752 15.6586 50.9551 15.6582C50.9351 15.6579 50.9153 15.663 50.898 15.673L29.2667 27.5713Z" fill="#2500FF"/>
<path d="M24.5572 30.7132V55.4638C24.5577 55.483 24.5529 55.5021 24.5435 55.519C24.534 55.5359 24.5202 55.5499 24.5034 55.5597C24.4867 55.5696 24.4676 55.5748 24.4481 55.5749C24.4286 55.575 24.4095 55.57 24.3926 55.5604L0.877396 42.6116C0.859524 42.6007 0.844601 42.5857 0.83397 42.5678C0.82334 42.5499 0.817305 42.5297 0.816406 42.509V15.6335C0.817158 15.614 0.822918 15.5951 0.833114 15.5784C0.843311 15.5617 0.8576 15.5479 0.87468 15.5383C0.891759 15.5286 0.911051 15.5234 0.930721 15.5232C0.95039 15.5229 0.969817 15.5277 0.987134 15.5369L22.6367 27.4413C22.6367 27.5198 22.6367 27.5983 22.6367 27.6768C22.6366 28.2949 22.8121 28.9006 23.1431 29.4247C23.474 29.9488 23.9471 30.3702 24.5084 30.6408C24.5212 30.6489 24.5321 30.6595 24.5405 30.6719C24.5489 30.6844 24.5546 30.6985 24.5572 30.7132Z" fill="#FF006A"/>
<path d="M49.3133 12.9021L26.0297 0.0136696C26.0128 0.00468715 25.994 0 25.9749 0C25.9557 0 25.9368 0.00468715 25.92 0.0136696L2.53889 12.727C2.52115 12.737 2.50639 12.7516 2.49613 12.769C2.48588 12.7865 2.48047 12.8064 2.48047 12.8266C2.48047 12.8469 2.48588 12.8667 2.49613 12.8842C2.50639 12.9017 2.52115 12.9162 2.53889 12.9262L24.158 24.8186C24.1749 24.8276 24.1937 24.8322 24.2129 24.8322C24.232 24.8322 24.2509 24.8276 24.2678 24.8186C24.777 24.5257 25.3555 24.3716 25.9444 24.3719C26.5928 24.3661 27.2287 24.5487 27.7734 24.8971C27.7899 24.9072 27.8089 24.9126 27.8283 24.9126C27.8477 24.9126 27.8667 24.9072 27.8831 24.8971L49.3377 13.1013C49.3544 13.0893 49.3676 13.0731 49.3759 13.0543C49.3842 13.0355 49.3872 13.0149 49.3847 12.9946C49.3822 12.9742 49.3743 12.9549 49.3617 12.9387C49.3492 12.9224 49.3324 12.9098 49.3133 12.9021Z" fill="#FFD91B"/>
<path d="M29.2667 27.5713C29.2695 27.5994 29.2695 27.6277 29.2667 27.6558C29.2692 28.2419 29.114 28.8181 28.8172 29.3253C28.5205 29.8324 28.0927 30.2521 27.5779 30.5414C27.5609 30.5496 27.5466 30.5625 27.5369 30.5786C27.5271 30.5947 27.5223 30.6132 27.523 30.632V55.3825C27.5238 55.402 27.5295 55.4209 27.5397 55.4376C27.5499 55.4542 27.5643 55.4681 27.5813 55.4777C27.5984 55.4874 27.6177 55.4926 27.6373 55.4928C27.657 55.493 27.6764 55.4883 27.6937 55.4791L51.0078 42.6752C51.0249 42.664 51.0389 42.6488 51.0485 42.6309C51.0581 42.6129 51.063 42.5929 51.0626 42.5726V15.7756C51.0643 15.7558 51.0604 15.736 51.0514 15.7182C51.0424 15.7005 51.0287 15.6855 51.0117 15.6749C50.9947 15.6643 50.9752 15.6586 50.9551 15.6582C50.9351 15.6579 50.9153 15.663 50.898 15.673L29.2667 27.5713Z" fill="#2500FF"/>
<path d="M24.5572 30.7132V55.4638C24.5577 55.483 24.5529 55.5021 24.5435 55.519C24.534 55.5359 24.5202 55.5499 24.5034 55.5597C24.4867 55.5696 24.4676 55.5748 24.4481 55.5749C24.4286 55.575 24.4095 55.57 24.3926 55.5604L0.877396 42.6116C0.859524 42.6007 0.844601 42.5857 0.83397 42.5678C0.82334 42.5499 0.817305 42.5297 0.816406 42.509V15.6335C0.817158 15.614 0.822918 15.5951 0.833114 15.5784C0.843311 15.5617 0.8576 15.5479 0.87468 15.5383C0.891759 15.5286 0.911051 15.5234 0.930721 15.5232C0.95039 15.5229 0.969817 15.5277 0.987134 15.5369L22.6367 27.4413C22.6367 27.5198 22.6367 27.5983 22.6367 27.6768C22.6366 28.2949 22.8121 28.9006 23.1431 29.4247C23.474 29.9488 23.9471 30.3702 24.5084 30.6408C24.5212 30.6489 24.5321 30.6595 24.5405 30.6719C24.5489 30.6844 24.5546 30.6985 24.5572 30.7132Z" fill="#FF006A"/>
</svg>
