<svg width="32" height="27" viewBox="0 0 32 27" xmlns="http://www.w3.org/2000/svg">
  <path fill-rule="evenodd" d="M22.4052 12.3817C22.2532 12.2296 22.0725 12.1091 21.8736 12.0273C21.6747 11.9455 21.4616 11.904 21.2466 11.9052C21.0283 11.9073 20.8126 11.9523 20.6118 12.0378C20.411 12.1233 20.229 12.2476 20.0762 12.4035C19.9235 12.5593 19.8029 12.7438 19.7215 12.9463C19.64 13.1488 19.5993 13.3653 19.6016 13.5836C19.5981 13.8029 19.6389 14.0206 19.7215 14.2237C19.8041 14.4269 19.9268 14.6113 20.0823 14.766C20.2377 14.9207 20.4228 15.0424 20.6264 15.1239C20.8299 15.2055 21.0479 15.2451 21.2671 15.2406C21.5941 15.2373 21.9127 15.1373 22.1829 14.9531C22.453 14.769 22.6626 14.5089 22.7851 14.2058C22.9076 13.9027 22.9376 13.57 22.8713 13.2499C22.805 12.9297 22.6454 12.6364 22.4126 12.4068L22.4052 12.3817ZM21.2586 14.5343C21.1309 14.5363 21.004 14.5124 20.8858 14.464C20.7676 14.4156 20.6604 14.3438 20.5707 14.2528C20.4796 14.1631 20.4072 14.0562 20.3579 13.9383C20.3085 13.8203 20.2832 13.6937 20.2833 13.5659C20.2821 13.373 20.3382 13.1841 20.4445 13.0231C20.5508 12.8621 20.7025 12.7363 20.8804 12.6616C21.0583 12.587 21.2543 12.5668 21.4437 12.6036C21.633 12.6405 21.8072 12.7327 21.9441 12.8686C22.081 13.0045 22.1744 13.178 22.2126 13.3671C22.2508 13.5562 22.232 13.7524 22.1586 13.9308C22.0851 14.1092 21.9604 14.2617 21.8002 14.3692C21.64 14.4766 21.4515 14.5341 21.2586 14.5343Z"/>
  <path fill-rule="evenodd" d="M21.6666 9.25821C20.8027 9.26127 19.9537 9.31468 19.1115 9.40985L19.0531 9.41612L19.0171 9.37749C18.8151 9.08756 18.5884 8.81564 18.3395 8.56478C16.714 6.95072 14.94 7.32897 13.0739 7.72892C12.1047 7.97005 11.1131 8.1094 10.115 8.1447C10.0437 8.13983 9.97267 8.15754 9.91197 8.19532C9.85128 8.2331 9.80403 8.28903 9.7769 8.35517C9.74978 8.42131 9.74417 8.49432 9.76086 8.56383C9.77756 8.63334 9.81571 8.69583 9.86991 8.74244L9.90994 8.78537L12.4318 10.7754L12.239 10.8268C12.0839 10.8671 12.0167 10.8897 11.6353 10.9885L11.5263 11.0179C11.4811 11.0327 11.4396 11.0573 11.4048 11.0898C11.3699 11.1222 11.3426 11.1619 11.3246 11.206C11.271 11.3121 11.2175 11.4182 11.1723 11.5246L11.145 11.5901L9.08887 11.6055C9.01339 11.6069 8.94041 11.6328 8.88106 11.6795C8.8217 11.7262 8.77922 11.7909 8.76009 11.864C8.60725 12.4597 8.52867 13.0721 8.52615 13.6872C8.52306 14.3077 8.60058 14.926 8.75676 15.5266C8.77798 15.5985 8.8216 15.6618 8.88126 15.7072C8.94092 15.7526 9.01352 15.7778 9.08848 15.7791L11.1404 15.7677L11.1844 15.8149C11.2444 15.8793 11.2653 15.9963 11.3121 16.081L11.3522 16.1239C11.3742 16.1654 11.4047 16.2019 11.4415 16.231C11.4784 16.2602 11.5209 16.2814 11.5663 16.2933L12.1925 16.4398L12.4848 16.5123L12.3388 16.6484L9.97976 18.5593C9.92591 18.6052 9.8874 18.6665 9.86942 18.7349C9.85144 18.8033 9.85485 18.8756 9.87918 18.942C9.90174 19.0085 9.94501 19.0661 10.0026 19.1062C10.0603 19.1463 10.1293 19.1669 10.1995 19.165C11.105 19.1929 12.0053 19.3134 12.8862 19.5246L12.9102 19.5504C15.0297 19.9815 17.2353 20.4447 19.0669 17.8218L19.1055 17.7858L19.1636 17.7879C20.0124 17.8708 20.8652 17.9061 21.718 17.8937C23.2174 17.8689 24.6983 17.5584 26.0813 16.9788C27.9205 16.2125 29.6122 15.1319 31.0807 13.7854C31.1139 13.7529 31.1403 13.7141 31.1582 13.6712C31.1761 13.6283 31.1852 13.5822 31.1849 13.5358C31.1819 13.4451 31.1466 13.3584 31.0855 13.2914C29.5929 11.9563 27.8771 10.8941 26.0165 10.1535C25.6805 10.0255 25.3544 9.96838 25.0175 9.86526C24.2572 9.63925 23.4766 9.48821 22.6869 9.41428C22.3328 9.32716 21.9947 9.25721 21.6666 9.25821ZM11.0525 8.77128L11.2819 8.74192C11.9324 8.66497 12.5392 8.53251 13.1165 8.41147L13.2169 8.39006C15.041 8.00526 16.5097 7.68695 17.853 9.0586C17.9607 9.1613 18.0623 9.27022 18.1572 9.38482L18.2773 9.51361L18.1019 9.5407C16.4896 9.7853 14.891 10.1134 13.3127 10.5238L13.2826 10.5518L13.2346 10.5003L11.0525 8.77128ZM9.36283 15.0577L9.34485 14.9782C9.16825 14.0986 9.16321 13.1931 9.33 12.3116L9.3452 12.2332L10.9162 12.1967L10.887 12.3203C10.7858 12.743 10.7345 13.176 10.734 13.6106C10.7332 14.0495 10.7877 14.4867 10.8962 14.912L10.9253 15.0292L9.36283 15.0577ZM13.0427 18.849L13.0107 18.8147C12.4621 18.7083 11.9055 18.5934 11.3308 18.5193L11.1074 18.4949L13.3254 16.6994L13.3494 16.7252C14.9317 17.1127 16.5332 17.4168 18.1473 17.6361L18.3209 17.6588L18.1922 17.7788C16.6747 19.6112 14.9974 19.2412 13.0307 18.8361L13.0427 18.849ZM25.8495 10.7747C27.4354 11.4227 28.9116 12.3119 30.2258 13.4109L30.3019 13.4925L30.216 13.5725C28.9113 14.6935 27.439 15.6034 25.8528 16.269L25.7884 16.329L25.7244 16.2603C25.2919 15.428 25.0653 14.5042 25.0633 13.5663C25.0614 12.6284 25.2843 11.7037 25.7133 10.8696L25.7577 10.7881L25.8495 10.7747ZM25.0743 10.6147C24.6245 11.5195 24.392 12.5167 24.3954 13.5271C24.3946 14.5364 24.6346 15.5314 25.0956 16.4294L25.1458 16.535L25.0366 16.5727C23.9574 16.9375 22.8287 17.1347 21.6897 17.1576C18.1298 17.187 14.8076 16.3525 11.9082 15.6616L11.8587 15.6515L11.8307 15.6215C11.5346 15.0017 11.3796 14.3241 11.3767 13.6372C11.3697 12.9526 11.5213 12.2756 11.8195 11.6593L11.8496 11.6313L11.8796 11.6033C14.7883 10.8411 18.0823 9.98436 21.6589 9.95561C22.7974 9.95203 23.9294 10.1289 25.0126 10.4797L25.1193 10.5166L25.0743 10.6147Z"/>
  <path fill-rule="evenodd" d="M6.77966 12.5074C6.46917 12.2002 6.04951 12.0287 5.61276 12.0306C5.38449 12.0268 5.3845 12.0268 4.23956 12.3481C3.51833 12.5471 2.33134 12.8836 0.395097 13.3891C0.323702 13.4101 0.261173 13.454 0.217078 13.5139C0.172982 13.5739 0.149753 13.6467 0.150948 13.7211C0.145337 13.7967 0.167062 13.8719 0.212179 13.9329C0.257296 13.994 0.322815 14.0368 0.396814 14.0536C2.31117 14.5316 3.47586 14.8339 4.20006 15.0253C5.40164 15.3413 5.40164 15.3413 5.61448 15.3114C5.82951 15.3125 6.04256 15.2703 6.24094 15.1873C6.43932 15.1043 6.61898 14.9823 6.76921 14.8284C7.0764 14.5148 7.24801 14.0931 7.24702 13.6541C7.24604 13.2151 7.07254 12.7941 6.76394 12.4819L6.77966 12.5074ZM5.59902 14.6837L5.58658 14.6833L5.58672 14.6792C5.47859 14.6837 5.47859 14.6837 4.81587 14.5152C4.3468 14.3908 3.55251 14.1845 2.12869 13.8109L1.77059 13.7195L2.12707 13.6198C3.41789 13.2828 4.20235 13.0569 4.68469 12.9201C4.97256 12.8139 5.27199 12.7421 5.57672 12.7062C5.80337 12.7425 6.0101 12.8572 6.16086 13.0303C6.31162 13.2034 6.39685 13.4239 6.40169 13.6534C6.40653 13.8829 6.33067 14.1069 6.18733 14.2861C6.044 14.4654 5.82409 14.6338 5.59916 14.6796L5.59902 14.6837Z"/>
  <path fill-rule="evenodd" d="M6.77966 12.5074C6.46917 12.2002 6.04951 12.0287 5.61276 12.0306C5.38449 12.0268 5.3845 12.0268 4.23956 12.3481C3.51833 12.5471 2.33134 12.8836 0.395097 13.3891C0.323702 13.4101 0.261173 13.454 0.217078 13.5139C0.172982 13.5739 0.149753 13.6467 0.150948 13.7211C0.145337 13.7967 0.167062 13.8719 0.212179 13.9329C0.257296 13.994 0.322815 14.0368 0.396814 14.0536C2.31117 14.5316 3.47586 14.8339 4.20006 15.0253C5.40164 15.3413 5.40164 15.3413 5.61448 15.3114C5.82951 15.3125 6.04256 15.2703 6.24094 15.1873C6.43932 15.1043 6.61898 14.9823 6.76921 14.8284C7.0764 14.5148 7.24801 14.0931 7.24702 13.6541C7.24604 13.2151 7.07254 12.7941 6.76394 12.4819L6.77966 12.5074ZM5.59902 14.6837L5.58658 14.6833L5.58672 14.6792C5.47859 14.6837 5.47859 14.6837 4.81587 14.5152C4.3468 14.3908 3.55251 14.1845 2.12869 13.8109L1.77059 13.7195L2.12707 13.6198C3.41789 13.2828 4.20235 13.0569 4.68469 12.9201C4.97256 12.8139 5.27199 12.7421 5.57672 12.7062C5.80337 12.7425 6.0101 12.8572 6.16086 13.0303C6.31162 13.2034 6.39685 13.4239 6.40169 13.6534C6.40653 13.8829 6.33067 14.1069 6.18733 14.2861C6.044 14.4654 5.82409 14.6338 5.59916 14.6796L5.59902 14.6837Z"/>
  <path fill-rule="evenodd" d="M6.77966 12.5074C6.46917 12.2002 6.04951 12.0287 5.61276 12.0306C5.38449 12.0268 5.3845 12.0268 4.23956 12.3481C3.51833 12.5471 2.33134 12.8836 0.395097 13.3891C0.323702 13.4101 0.261173 13.454 0.217078 13.5139C0.172982 13.5739 0.149753 13.6467 0.150948 13.7211C0.145337 13.7967 0.167062 13.8719 0.212179 13.9329C0.257296 13.994 0.322815 14.0368 0.396814 14.0536C2.31117 14.5316 3.47586 14.8339 4.20006 15.0253C5.40164 15.3413 5.40164 15.3413 5.61448 15.3114C5.82951 15.3125 6.04256 15.2703 6.24094 15.1873C6.43932 15.1043 6.61898 14.9823 6.76921 14.8284C7.0764 14.5148 7.24801 14.0931 7.24702 13.6541C7.24604 13.2151 7.07254 12.7941 6.76394 12.4819L6.77966 12.5074ZM5.59902 14.6837L5.58658 14.6833L5.58672 14.6792C5.47859 14.6837 5.47859 14.6837 4.81587 14.5152C4.3468 14.3908 3.55251 14.1845 2.12869 13.8109L1.77059 13.7195L2.12707 13.6198C3.41789 13.2828 4.20235 13.0569 4.68469 12.9201C4.97256 12.8139 5.27199 12.7421 5.57672 12.7062C5.80337 12.7425 6.0101 12.8572 6.16086 13.0303C6.31162 13.2034 6.39685 13.4239 6.40169 13.6534C6.40653 13.8829 6.33067 14.1069 6.18733 14.2861C6.044 14.4654 5.82409 14.6338 5.59916 14.6796L5.59902 14.6837Z"/>
  <path fill-rule="evenodd" d="M6.77966 12.5074C6.46917 12.2002 6.04951 12.0287 5.61276 12.0306C5.38449 12.0268 5.3845 12.0268 4.23956 12.3481C3.51833 12.5471 2.33134 12.8836 0.395097 13.3891C0.323702 13.4101 0.261173 13.454 0.217078 13.5139C0.172982 13.5739 0.149753 13.6467 0.150948 13.7211C0.145337 13.7967 0.167062 13.8719 0.212179 13.9329C0.257296 13.994 0.322815 14.0368 0.396814 14.0536C2.31117 14.5316 3.47586 14.8339 4.20006 15.0253C5.40164 15.3413 5.40164 15.3413 5.61448 15.3114C5.82951 15.3125 6.04256 15.2703 6.24094 15.1873C6.43932 15.1043 6.61898 14.9823 6.76921 14.8284C7.0764 14.5148 7.24801 14.0931 7.24702 13.6541C7.24604 13.2151 7.07254 12.7941 6.76394 12.4819L6.77966 12.5074ZM5.59902 14.6837L5.58658 14.6833L5.58672 14.6792C5.47859 14.6837 5.47859 14.6837 4.81587 14.5152C4.3468 14.3908 3.55251 14.1845 2.12869 13.8109L1.77059 13.7195L2.12707 13.6198C3.41789 13.2828 4.20235 13.0569 4.68469 12.9201C4.97256 12.8139 5.27199 12.7421 5.57672 12.7062C5.80337 12.7425 6.0101 12.8572 6.16086 13.0303C6.31162 13.2034 6.39685 13.4239 6.40169 13.6534C6.40653 13.8829 6.33067 14.1069 6.18733 14.2861C6.044 14.4654 5.82409 14.6338 5.59916 14.6796L5.59902 14.6837Z"/>
  <path fill-rule="evenodd" d="M6.77966 12.5074C6.46917 12.2002 6.04951 12.0287 5.61276 12.0306C5.38449 12.0268 5.3845 12.0268 4.23956 12.3481C3.51833 12.5471 2.33134 12.8836 0.395097 13.3891C0.323702 13.4101 0.261173 13.454 0.217078 13.5139C0.172982 13.5739 0.149753 13.6467 0.150948 13.7211C0.145337 13.7967 0.167062 13.8719 0.212179 13.9329C0.257296 13.994 0.322815 14.0368 0.396814 14.0536C2.31117 14.5316 3.47586 14.8339 4.20006 15.0253C5.40164 15.3413 5.40164 15.3413 5.61448 15.3114C5.82951 15.3125 6.04256 15.2703 6.24094 15.1873C6.43932 15.1043 6.61898 14.9823 6.76921 14.8284C7.0764 14.5148 7.24801 14.0931 7.24702 13.6541C7.24604 13.2151 7.07254 12.7941 6.76394 12.4819L6.77966 12.5074ZM5.59902 14.6837L5.58658 14.6833L5.58672 14.6792C5.47859 14.6837 5.47859 14.6837 4.81587 14.5152C4.3468 14.3908 3.55251 14.1845 2.12869 13.8109L1.77059 13.7195L2.12707 13.6198C3.41789 13.2828 4.20235 13.0569 4.68469 12.9201C4.97256 12.8139 5.27199 12.7421 5.57672 12.7062C5.80337 12.7425 6.0101 12.8572 6.16086 13.0303C6.31162 13.2034 6.39685 13.4239 6.40169 13.6534C6.40653 13.8829 6.33067 14.1069 6.18733 14.2861C6.044 14.4654 5.82409 14.6338 5.59916 14.6796L5.59902 14.6837Z"/>
  <path fill-rule="evenodd" d="M6.77966 12.5074C6.46917 12.2002 6.04951 12.0287 5.61276 12.0306C5.38449 12.0268 5.3845 12.0268 4.23956 12.3481C3.51833 12.5471 2.33134 12.8836 0.395097 13.3891C0.323702 13.4101 0.261173 13.454 0.217078 13.5139C0.172982 13.5739 0.149753 13.6467 0.150948 13.7211C0.145337 13.7967 0.167062 13.8719 0.212179 13.9329C0.257296 13.994 0.322815 14.0368 0.396814 14.0536C2.31117 14.5316 3.47586 14.8339 4.20006 15.0253C5.40164 15.3413 5.40164 15.3413 5.61448 15.3114C5.82951 15.3125 6.04256 15.2703 6.24094 15.1873C6.43932 15.1043 6.61898 14.9823 6.76921 14.8284C7.0764 14.5148 7.24801 14.0931 7.24702 13.6541C7.24604 13.2151 7.07254 12.7941 6.76394 12.4819L6.77966 12.5074ZM5.59902 14.6837L5.58658 14.6833L5.58672 14.6792C5.47859 14.6837 5.47859 14.6837 4.81587 14.5152C4.3468 14.3908 3.55251 14.1845 2.12869 13.8109L1.77059 13.7195L2.12707 13.6198C3.41789 13.2828 4.20235 13.0569 4.68469 12.9201C4.97256 12.8139 5.27199 12.7421 5.57672 12.7062C5.80337 12.7425 6.0101 12.8572 6.16086 13.0303C6.31162 13.2034 6.39685 13.4239 6.40169 13.6534C6.40653 13.8829 6.33067 14.1069 6.18733 14.2861C6.044 14.4654 5.82409 14.6338 5.59916 14.6796L5.59902 14.6837Z"/>
  <path fill-rule="evenodd" d="M6.77966 12.5074C6.46917 12.2002 6.04951 12.0287 5.61276 12.0306C5.38449 12.0268 5.3845 12.0268 4.23956 12.3481C3.51833 12.5471 2.33134 12.8836 0.395097 13.3891C0.323702 13.4101 0.261173 13.454 0.217078 13.5139C0.172982 13.5739 0.149753 13.6467 0.150948 13.7211C0.145337 13.7967 0.167062 13.8719 0.212179 13.9329C0.257296 13.994 0.322815 14.0368 0.396814 14.0536C2.31117 14.5316 3.47586 14.8339 4.20006 15.0253C5.40164 15.3413 5.40164 15.3413 5.61448 15.3114C5.82951 15.3125 6.04256 15.2703 6.24094 15.1873C6.43932 15.1043 6.61898 14.9823 6.76921 14.8284C7.0764 14.5148 7.24801 14.0931 7.24702 13.6541C7.24604 13.2151 7.07254 12.7941 6.76394 12.4819L6.77966 12.5074ZM5.59902 14.6837L5.58658 14.6833L5.58672 14.6792C5.47859 14.6837 5.47859 14.6837 4.81587 14.5152C4.3468 14.3908 3.55251 14.1845 2.12869 13.8109L1.77059 13.7195L2.12707 13.6198C3.41789 13.2828 4.20235 13.0569 4.68469 12.9201C4.97256 12.8139 5.27199 12.7421 5.57672 12.7062C5.80337 12.7425 6.0101 12.8572 6.16086 13.0303C6.31162 13.2034 6.39685 13.4239 6.40169 13.6534C6.40653 13.8829 6.33067 14.1069 6.18733 14.2861C6.044 14.4654 5.82409 14.6338 5.59916 14.6796L5.59902 14.6837Z"/>
  <path fill-rule="evenodd" d="M6.77966 12.5074C6.46917 12.2002 6.04951 12.0287 5.61276 12.0306C5.38449 12.0268 5.3845 12.0268 4.23956 12.3481C3.51833 12.5471 2.33134 12.8836 0.395097 13.3891C0.323702 13.4101 0.261173 13.454 0.217078 13.5139C0.172982 13.5739 0.149753 13.6467 0.150948 13.7211C0.145337 13.7967 0.167062 13.8719 0.212179 13.9329C0.257296 13.994 0.322815 14.0368 0.396814 14.0536C2.31117 14.5316 3.47586 14.8339 4.20006 15.0253C5.40164 15.3413 5.40164 15.3413 5.61448 15.3114C5.82951 15.3125 6.04256 15.2703 6.24094 15.1873C6.43932 15.1043 6.61898 14.9823 6.76921 14.8284C7.0764 14.5148 7.24801 14.0931 7.24702 13.6541C7.24604 13.2151 7.07254 12.7941 6.76394 12.4819L6.77966 12.5074ZM5.59902 14.6837L5.58658 14.6833L5.58672 14.6792C5.47859 14.6837 5.47859 14.6837 4.81587 14.5152C4.3468 14.3908 3.55251 14.1845 2.12869 13.8109L1.77059 13.7195L2.12707 13.6198C3.41789 13.2828 4.20235 13.0569 4.68469 12.9201C4.97256 12.8139 5.27199 12.7421 5.57672 12.7062C5.80337 12.7425 6.0101 12.8572 6.16086 13.0303C6.31162 13.2034 6.39685 13.4239 6.40169 13.6534C6.40653 13.8829 6.33067 14.1069 6.18733 14.2861C6.044 14.4654 5.82409 14.6338 5.59916 14.6796L5.59902 14.6837Z"/>
</svg>
