<?xml version="1.0" encoding="utf-8"?>
<!-- Generator: Adobe Illustrator 25.0.0, SVG Export Plug-In . SVG Version: 6.00 Build 0)  -->
<svg version="1.1"
	 id="svg2187" xmlns:cc="http://creativecommons.org/ns#" xmlns:dc="http://purl.org/dc/elements/1.1/" xmlns:inkscape="http://www.inkscape.org/namespaces/inkscape" xmlns:ns1="http://sozi.baierouge.fr" xmlns:rdf="http://www.w3.org/1999/02/22-rdf-syntax-ns#" xmlns:sodipodi="http://sodipodi.sourceforge.net/DTD/sodipodi-0.dtd" xmlns:svg="http://www.w3.org/2000/svg"
	 xmlns="http://www.w3.org/2000/svg" xmlns:xlink="http://www.w3.org/1999/xlink" x="0px" y="0px" viewBox="0 0 30 30" width="30px" height="30px" 
	 style="enable-background:new 0 0 30 30;" xml:space="preserve">
<style type="text/css">
	.st0{fill:#7C7C7C;}
</style>
<g>
	<path class="st0" d="M22.9,0H1.5C0.7,0,0,0.7,0,1.5v22.9v0.9v2v1.1c0,0.8,0.7,1.5,1.5,1.5h14.3c0.9,0,2.1-0.5,2.8-1.1l4.7-4.4
		c0.7-0.6,1.2-1.8,1.2-2.7V1.5C24.4,0.7,23.8,0,22.9,0z M23,23.3c-0.1,0.1-0.2,0.3-0.3,0.4l-4.7,4.5c-0.1,0.1-0.2,0.2-0.4,0.3
		l-0.3,0.2v-4.2c0-0.3,0.1-0.7,0.4-0.9c0.2-0.2,0.5-0.4,0.9-0.4H23L23,23.3z M23.6,22.1l-0.1,0.1h-5c-1.1,0-2.1,1-2.1,2.1v4.5
		l-0.2,0.1c-0.1,0-0.4,0-0.5,0H1.6c-0.2,0-0.3-0.1-0.4-0.2C1,28.6,1,28.4,1,28.3V1.5c0-0.3,0.3-0.6,0.6-0.6H23
		c0.3,0,0.6,0.3,0.6,0.6v20.2C23.6,21.7,23.6,22,23.6,22.1z"/>
	<g>
		<path class="st0" d="M10.9,13.3l-1.4-2.5H11c0,0,0.7,1.4,0.8,1.7l0.8-1.7h1.6l-1.4,2.5l1.6,2.6h-1.6l-0.9-1.7l-1,1.8H9.3
			L10.9,13.3z"/>
		<path class="st0" d="M15.2,14v-2h-0.9v-1.1h1V9.4h1.1v1.3h1.1v1.2h-1.1v2c0,0.6,0.2,0.8,0.7,0.8c0.2,0,0.4-0.1,0.5-0.1l0.2,1.1
			c-0.2,0.1-0.4,0.1-0.9,0.2C15.7,16,15.2,15.2,15.2,14z"/>
		<path class="st0" d="M6.5,14v-2H5.6v-1.1h1V9.4h1.1v1.3h1.1v1.2H7.7v2c0,0.6,0.2,0.8,0.7,0.8c0.2,0,0.4-0.1,0.5-0.1l0.2,1.1
			c-0.2,0.1-0.4,0.1-0.9,0.2C7,16,6.5,15.2,6.5,14z"/>
	</g>
</g>
</svg>
