<svg width="29" height="35" viewBox="0 0 29 35" fill="none" xmlns="http://www.w3.org/2000/svg">
<path fill-rule="evenodd" clip-rule="evenodd" d="M1.73034 0H26.5843C27.0417 0 27.4804 0.181711 27.8038 0.505159C28.1273 0.828606 28.309 1.26729 28.309 1.72472V25.1124C28.2494 26.2856 27.7664 27.3974 26.9494 28.2416L21.5056 33.3652C20.6034 34.1314 19.4742 34.5795 18.2921 34.6404H1.72472C1.2673 34.6404 0.828606 34.4587 0.505158 34.1353C0.181711 33.8118 0 33.3731 0 32.9157V1.72472C0.00148683 1.26678 0.184446 0.828103 0.508786 0.504816C0.833126 0.181529 1.27239 -2.41361e-06 1.73034 0ZM26.2584 27.4944C26.3521 27.3999 26.4385 27.2985 26.5169 27.191L26.7753 26.8427H21.4607C21.2717 26.8418 21.0844 26.8786 20.9098 26.9509C20.7352 27.0233 20.5768 27.1297 20.4438 27.264C20.1751 27.5344 20.0238 27.8997 20.0225 28.2809V33.1573L20.3596 32.9494C20.5232 32.8563 20.6758 32.7451 20.8146 32.618L26.2584 27.4944ZM27.2191 25.6742C27.266 25.4905 27.2906 25.3019 27.2921 25.1124V1.72472C27.2892 1.53788 27.2137 1.35951 27.0816 1.22739C26.9495 1.09526 26.7711 1.01975 26.5843 1.01685H1.73034C1.5435 1.01975 1.36513 1.09526 1.23301 1.22739C1.10088 1.35951 1.02537 1.53788 1.02247 1.72472V32.9157C1.02098 33.0096 1.03819 33.1029 1.0731 33.1901C1.108 33.2773 1.15991 33.3566 1.22579 33.4235C1.29167 33.4905 1.37021 33.5436 1.45683 33.5799C1.54345 33.6162 1.63643 33.6348 1.73034 33.6348H18.2921C18.4717 33.6328 18.6506 33.6121 18.8258 33.573L19.0056 33.5393V28.3034C19.0071 27.6527 19.2662 27.0291 19.7263 26.569C20.1864 26.1089 20.81 25.8498 21.4607 25.8483H27.1798L27.2191 25.6742ZM6.96053 12.5281H5.55042V20.5562H7.30322V18.8258L7.24143 17.8989C7.61249 18.274 8.11295 18.4931 8.6403 18.5112C9.90435 18.5112 11.101 17.3596 11.101 15.3483C11.101 13.5449 10.2358 12.3764 8.81446 12.3764C8.18523 12.4042 7.58701 12.6575 7.12907 13.0899H7.08412L6.96053 12.5281ZM8.29199 13.8034C8.983 13.8034 9.30884 14.3315 9.30884 15.382C9.30884 16.5899 8.82008 17.1011 8.21896 17.1011C7.87283 17.0977 7.54038 16.9655 7.28637 16.7303V14.3315C7.40548 14.1756 7.55717 14.0476 7.73086 13.9564C7.90454 13.8651 8.09604 13.8129 8.29199 13.8034ZM12.2528 12.5281H13.6685L13.7921 13.0899H13.8315C14.2894 12.6575 14.8876 12.4042 15.5169 12.3764C16.9326 12.3764 17.8034 13.5449 17.8034 15.3483C17.8034 17.3596 16.6067 18.5112 15.3427 18.5112C14.8153 18.4931 14.3149 18.274 13.9438 17.8989L14 18.8258V20.5562H12.2528V12.5281ZM16.0056 15.382C16.0056 14.3315 15.6854 13.8034 14.9888 13.8034C14.793 13.8137 14.6017 13.8662 14.4282 13.9574C14.2546 14.0485 14.1028 14.1761 13.9831 14.3315V16.7303C14.2386 16.9668 14.5733 17.0991 14.9213 17.1011C15.5225 17.1011 16.0056 16.5899 16.0056 15.382ZM18.882 13.8876V16.2528C18.882 17.6067 19.455 18.5225 20.8988 18.5225C21.342 18.5229 21.7823 18.4508 22.2022 18.309L21.9325 17.0505C21.7529 17.1192 21.563 17.1571 21.3707 17.1629C20.9157 17.1629 20.6123 16.8932 20.6123 16.2303V13.8876H22.0168V12.5281H20.6123V10.9719H19.1797L18.9775 12.5281L18.0786 12.5955V13.8876H18.882Z" fill="#EF670A"/>
</svg>
