<svg width="29" height="35" viewBox="0 0 29 35" fill="none" xmlns="http://www.w3.org/2000/svg">
<path fill-rule="evenodd" clip-rule="evenodd" d="M1.73034 0H26.5843C27.0417 0 27.4804 0.181711 27.8038 0.505159C28.1273 0.828606 28.309 1.26729 28.309 1.72472V25.1124C28.2494 26.2856 27.7664 27.3974 26.9494 28.2416L21.5056 33.3652C20.6034 34.1314 19.4742 34.5795 18.2921 34.6404H1.72472C1.2673 34.6404 0.828606 34.4587 0.505158 34.1353C0.181711 33.8118 0 33.3731 0 32.9157V1.72472C0.00148683 1.26678 0.184446 0.828103 0.508786 0.504816C0.833126 0.181529 1.27239 -2.41361e-06 1.73034 0ZM26.2584 27.4944C26.3521 27.3999 26.4385 27.2985 26.5169 27.191L26.7753 26.8427H21.4607C21.2717 26.8418 21.0844 26.8786 20.9098 26.9509C20.7352 27.0233 20.5768 27.1297 20.4438 27.264C20.1751 27.5344 20.0238 27.8997 20.0225 28.2809V33.1573L20.3596 32.9494C20.5232 32.8563 20.6758 32.7451 20.8146 32.618L26.2584 27.4944ZM27.2191 25.6742C27.266 25.4905 27.2906 25.3019 27.2921 25.1124V1.72472C27.2892 1.53788 27.2137 1.35951 27.0816 1.22739C26.9495 1.09526 26.7711 1.01975 26.5843 1.01685H1.73034C1.5435 1.01975 1.36513 1.09526 1.23301 1.22739C1.10088 1.35951 1.02537 1.53788 1.02247 1.72472V32.9157C1.02098 33.0096 1.03819 33.1029 1.0731 33.1901C1.108 33.2773 1.15991 33.3566 1.22579 33.4235C1.29167 33.4905 1.37021 33.5436 1.45683 33.5799C1.54345 33.6162 1.63643 33.6348 1.73034 33.6348H18.2921C18.4717 33.6328 18.6506 33.6121 18.8258 33.573L19.0056 33.5393V28.3034C19.0071 27.6527 19.2662 27.0291 19.7263 26.569C20.1864 26.1089 20.81 25.8498 21.4607 25.8483H27.1798L27.2191 25.6742ZM6.50555 12.5225L8.19094 15.3315L6.3988 18.3764H8.18532L8.64038 17.4045L8.64039 17.4045C8.79207 17.0618 8.94375 16.7191 9.09543 16.3876H9.14038C9.26235 16.5932 9.37783 16.8075 9.4922 17.0197L9.49221 17.0197C9.56221 17.1496 9.63179 17.2786 9.70217 17.4045L10.264 18.3764H12.1291L10.3314 15.5281L12.0168 12.5225H10.2246L9.82577 13.4663C9.76397 13.6292 9.69516 13.7977 9.62634 13.9663C9.55751 14.1348 9.48869 14.3034 9.42689 14.4663H9.38195C9.26919 14.2483 9.15642 14.0202 9.04534 13.7955L9.04533 13.7955L9.0453 13.7954L9.04507 13.795L9.04459 13.794C8.9899 13.6834 8.93562 13.5736 8.88195 13.4663L8.3651 12.5225H6.50555ZM13.1798 16.5618V10.118H14.9158V16.6236C14.9158 16.9944 15.0899 17.1124 15.2304 17.1124C15.3012 17.1218 15.373 17.1218 15.4439 17.1124L15.6461 18.3876C15.3707 18.4949 15.0763 18.5446 14.7809 18.5337C13.5899 18.5225 13.1798 17.7472 13.1798 16.5618ZM16.7584 16.6236L15.9775 17.7022C16.6206 18.211 17.4107 18.4987 18.2304 18.5225C19.7978 18.5225 20.6348 17.7079 20.6348 16.6348C20.6348 15.5618 19.8034 15.1461 19.0618 14.8708C18.4663 14.6517 17.9045 14.427 17.9045 14.1348C17.9045 13.8427 18.1236 13.6685 18.573 13.6685C19.0254 13.7021 19.4559 13.877 19.8034 14.1685L20.5843 13.1292C20.0007 12.6558 19.2739 12.3944 18.5225 12.3876C17.1629 12.3876 16.2753 13.1292 16.2753 14.2191C16.2753 15.1854 17.1068 15.6629 17.8259 15.9382C17.8782 15.958 17.93 15.9773 17.9812 15.9964C18.5397 16.2049 19.0112 16.3808 19.0112 16.736C19.0112 17.0393 18.7865 17.2359 18.2697 17.2359C17.7127 17.2019 17.182 16.9869 16.7584 16.6236Z" fill="#0CAD55"/>
</svg>
