<?xml version="1.0" ?><svg id="Layer_1" style="enable-background:new 0 0 512 512;" width="30px" height="30px" version="1.1" viewBox="0 0 512 512" xml:space="preserve" xmlns="http://www.w3.org/2000/svg" xmlns:xlink="http://www.w3.org/1999/xlink"><style type="text/css">
	.st0{fill:#F2F1F2;}
	.st1{fill:#D0D0D3;}
	.st2{fill:#E9A535;}
	.st3{fill:#D18B17;}
	.st4{fill:#C4851C;}
	.st5{fill:#FFFFFF;}
</style><title/><g id="Layer_2"><g id="Layer_1-2"><path class="st0" d="M363.8,103.7v304.6c0,14.8-12,26.9-26.9,26.9l0,0H140.5c-14.8,0-26.9-12-26.9-26.9l0,0V163.9l87.2-87.1h136.1    C351.8,76.8,363.8,88.8,363.8,103.7z"/><path class="st1" d="M113.7,163.9l87.1-87.1v60.4c0,14.8-12,26.8-26.8,26.8L113.7,163.9z"/><polygon class="st1" points="363.8,309.1 363.8,400.4 196.6,400.4 140.2,385.5 113.7,385.5 113.7,324.1 140.2,324.1 140.2,324     196.6,309.1   "/><path class="st2" d="M196.6,298.3h194.1c11.9,0,21.6,9.7,21.6,21.6l0,0V368c0,11.9-9.7,21.6-21.6,21.6l0,0H196.6l0,0V298.3    L196.6,298.3z"/><polygon class="st3" points="196.6,389.6 140.2,374.6 140.2,313.2 196.6,298.3   "/><rect class="st2" height="61.4" width="40.6" x="99.7" y="313.3"/><polygon class="st4" points="99.7,313.3 113.7,305 113.7,313.3   "/><polygon class="st4" points="99.7,374.6 113.7,383 113.7,374.6   "/><path class="st5" d="M250.8,341.1h34.6c0.1,0.7,0.1,1.3,0.1,1.7s0,0.9,0,1.3c0,4.3-0.8,8.5-2.4,12.5c-3,7.5-9,13.5-16.5,16.5    c-3.9,1.6-8.1,2.4-12.4,2.4c-4.2,0-8.3-0.8-12.1-2.4c-3.7-1.5-7-3.7-9.8-6.5c-2.8-2.8-5-6.1-6.6-9.7c-1.6-3.8-2.4-7.9-2.4-12    c0-4.1,0.8-8.1,2.4-11.9c1.6-3.6,3.8-6.8,6.6-9.5c2.9-2.7,6.2-4.9,9.9-6.4c3.9-1.6,8.1-2.4,12.4-2.3c3.3,0,6.6,0.5,9.7,1.6    c3.1,1,5.9,2.5,8.6,4.3c2.6,1.8,4.9,4,6.7,6.6c1.9,2.5,3.2,5.3,4.1,8.3H267c-1.2-2.3-3.1-4.3-5.3-5.6c-2.3-1.3-4.9-2-7.5-2    c-2.2,0-4.3,0.4-6.4,1.2c-1.9,0.8-3.6,1.9-5,3.4c-1.4,1.5-2.6,3.3-3.3,5.2c-0.8,2.1-1.2,4.3-1.2,6.5c0,2.5,0.4,5,1.2,7.4    c0.8,2.1,1.9,4,3.5,5.7c1.5,1.6,3.3,2.8,5.3,3.7c2.2,0.9,4.6,1.3,7,1.3c3,0.1,5.9-0.8,8.4-2.5c2.3-1.6,3.9-4.1,4.5-6.8h-17.4    V341.1z"/><path class="st5" d="M293,374.3v-58.4h14.9v58.4L293,374.3z"/><path class="st5" d="M317.8,374.3v-58.4h31.9v13.1h-17.6v9.9h17v13.1h-17v22.3L317.8,374.3z"/></g></g></svg>
