<svg width="29" height="35" viewBox="0 0 29 35" fill="none" xmlns="http://www.w3.org/2000/svg">
<path fill-rule="evenodd" clip-rule="evenodd" d="M1.73034 0H26.5843C27.0417 0 27.4804 0.181711 27.8038 0.505159C28.1273 0.828606 28.309 1.26729 28.309 1.72472V25.1124C28.2494 26.2856 27.7664 27.3974 26.9494 28.2416L21.5056 33.3652C20.6034 34.1314 19.4742 34.5795 18.2921 34.6404H1.72472C1.2673 34.6404 0.828606 34.4587 0.505158 34.1353C0.181711 33.8118 0 33.3731 0 32.9157V1.72472C0.00148683 1.26678 0.184446 0.828103 0.508786 0.504816C0.833126 0.181529 1.27239 -2.41361e-06 1.73034 0ZM26.2584 27.4944C26.3521 27.3999 26.4385 27.2985 26.5169 27.191L26.7753 26.8427H21.4607C21.2717 26.8418 21.0844 26.8786 20.9098 26.9509C20.7352 27.0233 20.5768 27.1297 20.4438 27.264C20.1751 27.5344 20.0238 27.8997 20.0225 28.2809V33.1573L20.3596 32.9494C20.5232 32.8563 20.6758 32.7451 20.8146 32.618L26.2584 27.4944ZM27.2191 25.6742C27.266 25.4905 27.2906 25.3019 27.2921 25.1124V1.72472C27.2892 1.53788 27.2137 1.35951 27.0816 1.22739C26.9495 1.09526 26.7711 1.01975 26.5843 1.01685H1.73034C1.5435 1.01975 1.36513 1.09526 1.23301 1.22739C1.10088 1.35951 1.02537 1.53788 1.02247 1.72472V32.9157C1.02098 33.0096 1.03819 33.1029 1.0731 33.1901C1.108 33.2773 1.15991 33.3566 1.22579 33.4235C1.29167 33.4905 1.37021 33.5436 1.45683 33.5799C1.54345 33.6162 1.63643 33.6348 1.73034 33.6348H18.2921C18.4717 33.6328 18.6506 33.6121 18.8258 33.573L19.0056 33.5393V28.3034C19.0071 27.6527 19.2662 27.0291 19.7263 26.569C20.1864 26.1089 20.81 25.8498 21.4607 25.8483H27.1798L27.2191 25.6742ZM7.14035 12.3876C5.91001 12.3876 4.71338 13.5449 4.71338 15.4551C4.71338 17.3652 5.64035 18.5225 7.08978 18.5449C7.68266 18.5135 8.24035 18.2538 8.64596 17.8202H8.69652L8.82012 18.382H10.2359V10.118H8.4999V12.1292L8.57293 12.9944C8.38986 12.7987 8.16777 12.6436 7.921 12.539C7.67424 12.4345 7.40829 12.383 7.14035 12.3876ZM8.51113 14.1742V16.5787H8.4999C8.40115 16.7474 8.26007 16.8875 8.0906 16.9851C7.92113 17.0826 7.72914 17.1342 7.5336 17.1348C6.86506 17.1348 6.46619 16.5618 6.46619 15.4494C6.46619 14.3371 6.96057 13.8146 7.52237 13.8146C7.886 13.8024 8.24027 13.9312 8.51113 14.1742ZM11.365 15.4551C11.3348 15.0622 11.3861 14.6674 11.5156 14.2953C11.6452 13.9232 11.8503 13.5819 12.118 13.2928C12.3857 13.0037 12.7102 12.773 13.0713 12.6153C13.4324 12.4576 13.8221 12.3761 14.2161 12.3761C14.6101 12.3761 14.9999 12.4576 15.3609 12.6153C15.722 12.773 16.0465 13.0037 16.3143 13.2928C16.582 13.5819 16.787 13.9232 16.9166 14.2953C17.0462 14.6674 17.0975 15.0622 17.0672 15.4551C17.0975 15.8479 17.0462 16.2428 16.9166 16.6149C16.787 16.9869 16.582 17.3282 16.3143 17.6173C16.0465 17.9064 15.722 18.1371 15.3609 18.2948C14.9999 18.4526 14.6101 18.534 14.2161 18.534C13.8221 18.534 13.4324 18.4526 13.0713 18.2948C12.7102 18.1371 12.3857 17.9064 12.118 17.6173C11.8503 17.3282 11.6452 16.9869 11.5156 16.6149C11.3861 16.2428 11.3348 15.8479 11.365 15.4551ZM15.2976 15.4551C15.2976 14.4438 14.9436 13.7697 14.2245 13.7697C13.5054 13.7697 13.1403 14.4438 13.1403 15.4551C13.1403 16.4663 13.4998 17.1405 14.2133 17.1405C14.9268 17.1405 15.2863 16.4663 15.2863 15.4551H15.2976ZM18.0521 14.2659C17.9049 14.6444 17.8374 15.0493 17.8539 15.4551C17.8539 17.3989 19.1123 18.5225 20.7527 18.573C21.458 18.5806 22.1423 18.3332 22.6797 17.8764L22.0056 16.7528C21.7107 17.0093 21.3395 17.1614 20.9494 17.1854C20.1966 17.1854 19.6348 16.5281 19.6348 15.5C19.6348 14.4719 20.1741 13.8146 21.0056 13.8146C21.2913 13.827 21.5628 13.9428 21.7696 14.1405L22.5898 13.0169C22.1242 12.6076 21.5244 12.3836 20.9044 12.3877C20.4986 12.3734 20.0941 12.4431 19.7164 12.5924C19.3387 12.7418 18.996 12.9675 18.7096 13.2555C18.4232 13.5434 18.1994 13.8874 18.0521 14.2659Z" fill="#0E6FC6"/>
</svg>
