<svg width="29" height="35" viewBox="0 0 29 35" fill="none" xmlns="http://www.w3.org/2000/svg">
<path d="M26.5843 0H1.73034C1.27239 -2.41366e-06 0.833126 0.181529 0.508786 0.504816C0.184446 0.828103 0.00148683 1.26678 0 1.72472V32.9157C0 33.3731 0.181711 33.8118 0.505158 34.1353C0.828606 34.4587 1.2673 34.6404 1.72472 34.6404H18.2921C19.4742 34.5795 20.6034 34.1314 21.5056 33.3652L26.9494 28.2416C27.7664 27.3974 28.2494 26.2856 28.309 25.1124V1.72472C28.309 1.26729 28.1273 0.828606 27.8038 0.505159C27.4804 0.181711 27.0417 0 26.5843 0ZM26.5169 27.191C26.4385 27.2985 26.3521 27.3999 26.2584 27.4944L20.8146 32.618C20.6758 32.7451 20.5232 32.8563 20.3596 32.9494L20.0225 33.1573V28.2809C20.0238 27.8997 20.1751 27.5344 20.4438 27.264C20.5768 27.1297 20.7352 27.0233 20.9098 26.9509C21.0844 26.8786 21.2717 26.8418 21.4607 26.8427H26.7753L26.5169 27.191ZM27.2921 25.1124C27.2906 25.3019 27.266 25.4905 27.2191 25.6742L27.1798 25.8483H21.4607C20.81 25.8498 20.1864 26.1089 19.7263 26.569C19.2662 27.0291 19.0071 27.6527 19.0056 28.3034V33.5393L18.8258 33.573C18.6506 33.6121 18.4717 33.6328 18.2921 33.6348H1.73034C1.63643 33.6348 1.54345 33.6162 1.45683 33.5799C1.37021 33.5436 1.29167 33.4905 1.22579 33.4235C1.15991 33.3566 1.108 33.2773 1.0731 33.1901C1.03819 33.1029 1.02098 33.0096 1.02247 32.9157V1.72472C1.02537 1.53788 1.10088 1.35951 1.23301 1.22739C1.36513 1.09526 1.5435 1.01975 1.73034 1.01685H26.5843C26.7711 1.01975 26.9495 1.09526 27.0816 1.22739C27.2137 1.35951 27.2892 1.53788 27.2921 1.72472V25.1124Z" fill="black"/>
</svg>
