<?xml version="1.0" encoding="utf-8"?>
<!-- Generator: Adobe Illustrator 25.0.0, SVG Export Plug-In . SVG Version: 6.00 Build 0)  -->
<svg version="1.1" id="Layer_1" xmlns="http://www.w3.org/2000/svg" xmlns:xlink="http://www.w3.org/1999/xlink" x="0px" y="0px"
	 viewBox="0 0 30 30" width="30px" height="30px" style="enable-background:new 0 0 30 30;" xml:space="preserve">
<path d="M22.9,0H1.5C0.7,0,0,0.7,0,1.5v23v0.9v2v1.1C0,29.3,0.7,30,1.5,30h14.3c0.9,0,2.1-0.5,2.8-1.1l4.7-4.4
	c0.6-0.6,1.2-1.8,1.2-2.7V1.5C24.4,0.7,23.7,0,22.9,0z M22.9,23.5c-0.1,0.1-0.2,0.2-0.3,0.3l-4.7,4.4c-0.1,0.1-0.2,0.2-0.4,0.3
	l-0.3,0.2v-4.2c0-0.3,0.1-0.6,0.4-0.9c0.2-0.2,0.5-0.4,0.9-0.4h4.6L22.9,23.5z M23.4,21.8c0,0.1,0,0.3,0,0.5l0,0.1h-5
	c-1.2,0-2.1,1-2.1,2.2v4.5c0,0-0.5,0.1-0.7,0.1H1.5c-0.2,0-0.3-0.1-0.4-0.2s-0.2-0.3-0.2-0.4V1.5c0-0.3,0.3-0.6,0.6-0.6h21.4
	c0.3,0,0.6,0.3,0.6,0.6C23.4,1.5,23.4,21.8,23.4,21.8z"/>
<path d="M20.4,5.9H4.1c-0.3,0-0.5-0.2-0.5-0.5v0c0-0.3,0.2-0.5,0.5-0.5h16.3c0.3,0,0.5,0.2,0.5,0.5v0C20.9,5.6,20.7,5.9,20.4,5.9z"
	/>
<path d="M20.4,8.9H4.1c-0.3,0-0.5-0.2-0.5-0.5v0c0-0.3,0.2-0.5,0.5-0.5h16.3c0.3,0,0.5,0.2,0.5,0.5v0C20.9,8.7,20.7,8.9,20.4,8.9z"
	/>
<path d="M20.4,11.9H4.1c-0.3,0-0.5-0.2-0.5-0.5v0c0-0.3,0.2-0.5,0.5-0.5h16.3c0.3,0,0.5,0.2,0.5,0.5v0
	C20.9,11.7,20.7,11.9,20.4,11.9z"/>
<path d="M20.4,15H4.1c-0.3,0-0.5-0.2-0.5-0.5v0c0-0.3,0.2-0.5,0.5-0.5h16.3c0.3,0,0.5,0.2,0.5,0.5v0C20.9,14.7,20.7,15,20.4,15z"/>
<path d="M12,18H4.1c-0.3,0-0.5-0.2-0.5-0.5l0,0c0-0.3,0.2-0.5,0.5-0.5H12c0.3,0,0.5,0.2,0.5,0.5l0,0C12.6,17.8,12.3,18,12,18z"/>
</svg>
