<svg width="28" height="35" viewBox="0 0 28 35" fill="none" xmlns="http://www.w3.org/2000/svg">
<path fill-rule="evenodd" clip-rule="evenodd" d="M1.71429 0H26.1714C27.0857 0 27.8857 0.8 28 1.71429V24.9143C28 25.9429 27.3143 27.3143 26.6286 28L21.2571 33.0286C20.4571 33.7143 19.0857 34.2857 18.0571 34.2857H1.71429C0.8 34.2857 0 33.4857 0 32.5714V31.3143V29.0286V28V1.71429C0 0.8 0.8 0 1.71429 0ZM25.8286 27.2L26.1714 26.8571L26.4 26.5143H21.1429C20.6857 26.5143 20.3429 26.7429 20.1143 26.9714C19.7714 27.3143 19.6571 27.6571 19.6571 28V32.8L20 32.5714C20.2286 32.4571 20.3429 32.3429 20.4571 32.2286L25.8286 27.2ZM26.7429 25.4857V24.9143C26.7429 24.9143 26.7429 1.71429 26.8571 1.71429C26.8571 1.37143 26.5143 1.02857 26.1714 1.02857H1.71429C1.37143 1.02857 1.02857 1.37143 1.02857 1.71429V32.6857C1.02857 32.8 1.14286 33.0286 1.25714 33.1429C1.37143 33.2571 1.48571 33.3714 1.71429 33.3714H17.8286C18.0571 33.3714 18.6286 33.2571 18.6286 33.2571V28.1143C18.6286 26.7429 19.6571 25.6 21.0286 25.6H26.7429V25.4857ZM4.68569 6.74285H23.3143C23.6571 6.74285 23.8857 6.39999 23.8857 6.17142C23.8857 5.82856 23.6571 5.59999 23.3143 5.59999H4.68569C4.34283 5.59999 4.11426 5.82856 4.11426 6.17142C4.11426 6.51428 4.34283 6.74285 4.68569 6.74285ZM23.3143 10.1714H4.68569C4.34283 10.1714 4.11426 9.94285 4.11426 9.59999C4.11426 9.25714 4.34283 9.02856 4.68569 9.02856H23.3143C23.6571 9.02856 23.8857 9.25714 23.8857 9.59999C23.8857 9.94285 23.6571 10.1714 23.3143 10.1714ZM4.68569 13.6H23.3143C23.6571 13.6 23.8857 13.3714 23.8857 13.0286C23.8857 12.6857 23.6571 12.4571 23.3143 12.4571H4.68569C4.34283 12.4571 4.11426 12.6857 4.11426 13.0286C4.11426 13.3714 4.34283 13.6 4.68569 13.6ZM23.3143 17.1429H4.68569C4.34283 17.1429 4.11426 16.9143 4.11426 16.5714C4.11426 16.2286 4.34283 16 4.68569 16H23.3143C23.6571 16 23.8857 16.2286 23.8857 16.5714C23.8857 16.8 23.6571 17.1429 23.3143 17.1429ZM4.68569 20.5714H13.7143C14.0571 20.5714 14.4 20.3429 14.2857 20C14.2857 19.6571 14.0571 19.4286 13.7143 19.4286H4.68569C4.34283 19.4286 4.11426 19.6571 4.11426 20C4.11426 20.3429 4.34283 20.5714 4.68569 20.5714Z" fill="#949494"/>
</svg>
