<svg width="392" height="195" viewBox="0 0 392 195" fill="none" xmlns="http://www.w3.org/2000/svg">
<mask id="path-1-inside-1_457_2067" fill="white">
<path d="M0 6C0 2.68629 2.68629 0 6 0H386C389.314 0 392 2.68629 392 6V189C392 192.314 389.314 195 386 195H6C2.68629 195 0 192.314 0 189V6Z"/>
</mask>
<path d="M0 6C0 2.68629 2.68629 0 6 0H386C389.314 0 392 2.68629 392 6V189C392 192.314 389.314 195 386 195H6C2.68629 195 0 192.314 0 189V6Z" fill="white"/>
<path d="M6 0V2H386V0V-2H6V0ZM392 6H390V189H392H394V6H392ZM386 195V193H6V195V197H386V195ZM0 189H2V6H0H-2V189H0ZM6 195V193C3.79086 193 2 191.209 2 189H0H-2C-2 193.418 1.58172 197 6 197V195ZM392 189H390C390 191.209 388.209 193 386 193V195V197C390.418 197 394 193.418 394 189H392ZM386 0V2C388.209 2 390 3.79086 390 6H392H394C394 1.58172 390.418 -2 386 -2V0ZM6 0V-2C1.58172 -2 -2 1.58172 -2 6H0H2C2 3.79086 3.79086 2 6 2V0Z" fill="#DEE1E5" mask="url(#path-1-inside-1_457_2067)"/>
<path d="M93 27C93 24.7909 94.7909 23 97 23H362C364.209 23 366 24.7909 366 27V40C366 42.2091 364.209 44 362 44H97C94.7909 44 93 42.2091 93 40V27Z" fill="#EFF0F2"/>
<path d="M93 159C93 156.791 94.7909 155 97 155H362C364.209 155 366 156.791 366 159V172C366 174.209 364.209 176 362 176H97C94.7909 176 93 174.209 93 172V159Z" fill="#EFF0F2"/>
<path d="M93 93C93 90.7909 94.7909 89 97 89H362C364.209 89 366 90.7909 366 93V139C366 141.209 364.209 143 362 143H97C94.7909 143 93 141.209 93 139V93Z" fill="#EFF0F2"/>
<path d="M93 60C93 57.7909 94.7909 56 97 56H187C189.209 56 191 57.7909 191 60V73C191 75.2091 189.209 77 187 77H97C94.7909 77 93 75.2091 93 73V60Z" fill="#EFF0F2"/>
<path d="M202 60C202 57.7909 203.791 56 206 56H296C298.209 56 300 57.7909 300 60V73C300 75.2091 298.209 77 296 77H206C203.791 77 202 75.2091 202 73V60Z" fill="#EFF0F2"/>
<path d="M312 60C312 57.7909 313.791 56 316 56H362C364.209 56 366 57.7909 366 60V73C366 75.2091 364.209 77 362 77H316C313.791 77 312 75.2091 312 73V60Z" fill="#EFF0F2"/>
<rect width="76" height="195" fill="#DEE1E5"/>
</svg>
