<svg width="194" height="50" viewBox="0 0 194 50" fill="none" xmlns="http://www.w3.org/2000/svg">
<g clip-path="url(#clip0_2765_1315)">
<path d="M122.374 22.8024H120.822L121.998 18.3745H127.16V31.6582H128.675L127.552 36.0807H122.39L122.374 22.8024ZM122.003 13.1643C122.003 12.627 122.158 12.1018 122.449 11.6551C122.74 11.2083 123.154 10.8601 123.637 10.6545C124.121 10.4489 124.654 10.3951 125.167 10.5C125.681 10.6048 126.152 10.8635 126.523 11.2434C126.893 11.6233 127.145 12.1073 127.247 12.6343C127.349 13.1613 127.297 13.7074 127.097 14.2038C126.896 14.7002 126.557 15.1245 126.121 15.423C125.686 15.7214 125.174 15.8808 124.651 15.8808C124.301 15.8866 123.954 15.8204 123.631 15.686C123.307 15.5515 123.013 15.3516 122.766 15.0982C122.519 14.8448 122.324 14.543 122.193 14.2107C122.062 13.8785 121.997 13.5226 122.003 13.1643Z" fill="#FF0066"/>
<path d="M130.057 27.2303C130.057 21.8788 133.647 17.8747 138.449 17.8747C139.581 17.8266 140.706 18.0788 141.715 18.607C142.724 19.1352 143.584 19.9215 144.21 20.89V18.3745H148.918V31.6582H150.469L149.299 36.0807H144.21V30.0609L142.728 35.1625C141.493 36.1069 139.989 36.6055 138.449 36.5806C133.647 36.5806 130.057 32.6145 130.057 27.2303ZM144.21 27.138C144.183 26.206 143.889 25.3029 143.365 24.5412C142.841 23.7794 142.111 23.1928 141.264 22.8545C140.417 22.5162 139.492 22.4411 138.604 22.6386C137.716 22.8362 136.904 23.2976 136.27 23.9653C135.636 24.6331 135.207 25.4776 135.038 26.3936C134.868 27.3096 134.965 28.2565 135.317 29.1163C135.668 29.9761 136.259 30.7106 137.015 31.2283C137.77 31.7461 138.658 32.0241 139.567 32.0277C140.189 32.0363 140.807 31.9148 141.382 31.6705C141.957 31.4262 142.478 31.0642 142.912 30.6067C143.347 30.1492 143.686 29.6057 143.909 29.0094C144.132 28.413 144.235 27.7763 144.21 27.138Z" fill="#FF0066"/>
<path d="M65.2664 17.6248C63.5354 17.5892 61.8477 18.1818 60.5009 19.2982V18.016H55.7354V36.0427H60.8768V25.557C60.853 25.1428 60.9137 24.728 61.0552 24.3393C61.1967 23.9507 61.4158 23.5966 61.6985 23.2999C61.9812 23.0032 62.3212 22.7704 62.6968 22.6164C63.0723 22.4625 63.475 22.3907 63.8791 22.4058C65.6371 22.4058 66.8179 23.6717 66.8179 25.557V36.0427H71.9541V24.9213C71.9541 20.488 69.3065 17.6248 65.2664 17.6248Z" fill="#FF0066"/>
<path d="M86.1558 28.4635C86.181 28.871 86.1231 29.2794 85.9857 29.6626C85.8483 30.0458 85.6344 30.3954 85.3578 30.6889C85.0812 30.9824 84.7479 31.2135 84.3793 31.3673C84.0106 31.5211 83.6148 31.5943 83.217 31.5821C82.8153 31.5985 82.4147 31.5288 82.0407 31.3774C81.6667 31.226 81.3276 30.9962 81.0451 30.7027C80.7626 30.4092 80.5428 30.0585 80.3998 29.673C80.2568 29.2874 80.1938 28.8755 80.2147 28.4635V18.0159H75.0732V28.0724C75.0732 33.0164 78.425 36.4664 83.217 36.4664C88.009 36.4664 91.2973 33.0164 91.2973 28.0724V18.0159H86.1558V28.4635Z" fill="#FF0066"/>
<path d="M106.981 29.1699C105.832 30.8378 104.63 31.5821 103.073 31.5821C100.569 31.5821 98.8371 29.7023 98.8371 27.013C98.8371 24.3236 100.627 22.4764 103.073 22.4764C104.662 22.4764 105.895 23.2479 106.981 24.9158L107.124 25.1331L110.735 22.2591L110.634 22.0744C109.883 20.6861 108.773 19.5367 107.427 18.7519C106.082 17.9672 104.552 17.5772 103.004 17.6247C97.7358 17.6247 93.6162 21.7484 93.6162 27.013C93.6146 28.2701 93.8576 29.5148 94.331 30.6743C94.8044 31.8338 95.4986 32.8846 96.3731 33.7651C97.2475 34.6456 98.2845 35.3381 99.4232 35.802C100.562 36.2658 101.779 36.4917 103.004 36.4664C104.554 36.5071 106.085 36.1107 107.43 35.3204C108.776 34.53 109.884 33.3761 110.634 31.9842L110.735 31.7995L107.129 28.9634L106.981 29.1699Z" fill="#FF0066"/>
<path d="M118.085 8.98071H112.943V36.0371H118.085V8.98071Z" fill="#FF0066"/>
<path d="M153.255 26.9748C153.234 25.7667 153.449 24.5665 153.887 23.4446C154.324 22.3227 154.975 21.3018 155.802 20.4415C156.629 19.5813 157.615 18.8992 158.703 18.435C159.79 17.9709 160.957 17.7342 162.134 17.7387C163.527 17.682 164.909 18.0131 166.133 18.6971C167.357 19.381 168.378 20.3922 169.087 21.6233V13.3108H167.71L168.293 11.0833H171.358V33.5814H172.735L172.147 35.8034H169.087V32.3426C168.379 33.5746 167.358 34.5864 166.134 35.2704C164.909 35.9545 163.527 36.2851 162.134 36.2272C160.955 36.2325 159.787 35.9958 158.698 35.5309C157.609 35.066 156.622 34.3824 155.795 33.5203C154.968 32.6582 154.317 31.635 153.88 30.5109C153.444 29.3868 153.231 28.1845 153.255 26.9748ZM169.087 26.9748C169.081 25.5997 168.677 24.2574 167.928 23.1171C167.179 21.9769 166.118 21.09 164.878 20.5682C163.638 20.0464 162.275 19.9132 160.961 20.1855C159.648 20.4577 158.442 21.1231 157.496 22.0977C156.551 23.0723 155.908 24.3124 155.649 25.6616C155.39 27.0107 155.526 28.4084 156.04 29.6782C156.555 30.9481 157.424 32.0331 158.539 32.7964C159.654 33.5597 160.964 33.9671 162.304 33.9671C163.2 33.9766 164.089 33.802 164.918 33.4536C165.747 33.1052 166.5 32.5899 167.132 31.9383C167.764 31.2867 168.263 30.5118 168.599 29.6593C168.934 28.8069 169.1 27.8941 169.087 26.9748Z" fill="#FF0066"/>
<path d="M178.173 32.3426V35.8034H175.901V13.3108H174.524L175.107 11.0833H178.173V21.607C178.879 20.3724 179.899 19.3577 181.124 18.6707C182.348 17.9838 183.731 17.6504 185.125 17.7061C187.517 17.7061 189.81 18.6809 191.501 20.4161C193.193 22.1512 194.143 24.5046 194.143 26.9585C194.143 29.4124 193.193 31.7658 191.501 33.501C189.81 35.2361 187.517 36.2109 185.125 36.2109C183.734 36.2711 182.352 35.9431 181.128 35.262C179.904 34.5808 178.883 33.5719 178.173 32.3426ZM191.733 26.9748C191.727 25.5997 191.324 24.2574 190.575 23.1171C189.826 21.9769 188.764 21.09 187.524 20.5682C186.284 20.0464 184.921 19.9132 183.608 20.1855C182.294 20.4577 181.088 21.1231 180.143 22.0977C179.198 23.0723 178.555 24.3124 178.296 25.6616C178.036 27.0107 178.173 28.4084 178.687 29.6782C179.201 30.9481 180.071 32.0331 181.185 32.7964C182.3 33.5597 183.61 33.9671 184.95 33.9671C185.846 33.9737 186.733 33.797 187.561 33.4476C188.389 33.0981 189.141 32.5828 189.772 31.9317C190.404 31.2807 190.902 30.507 191.239 29.6559C191.576 28.8048 191.744 27.8933 191.733 26.9748Z" fill="#FF0066"/>
<path d="M42.1226 11.6103L21.9008 0.010846C21.8861 0.00276185 21.8698 -0.00146484 21.8531 -0.00146484C21.8365 -0.00146484 21.8201 0.00276185 21.8055 0.010846L1.49896 11.4528C1.48356 11.4618 1.47075 11.4748 1.46184 11.4906C1.45293 11.5063 1.44824 11.5242 1.44824 11.5424C1.44824 11.5606 1.45293 11.5785 1.46184 11.5942C1.47075 11.61 1.48356 11.623 1.49896 11.6321L20.2752 22.3351C20.2899 22.3432 20.3062 22.3474 20.3229 22.3474C20.3395 22.3474 20.3559 22.3432 20.3705 22.3351C20.8319 22.0599 21.3584 21.9209 21.892 21.9334C22.4255 21.9458 22.9453 22.1093 23.394 22.4057C23.4083 22.4149 23.4248 22.4197 23.4416 22.4197C23.4585 22.4197 23.475 22.4149 23.4893 22.4057L42.1226 11.7896C42.138 11.7806 42.1508 11.7675 42.1597 11.7518C42.1686 11.7361 42.1733 11.7182 42.1733 11.7C42.1733 11.6818 42.1686 11.6639 42.1597 11.6481C42.1508 11.6324 42.138 11.6194 42.1226 11.6103Z" fill="#FF0066"/>
<path d="M24.7068 24.8125C24.7093 24.8378 24.7093 24.8633 24.7068 24.8886C24.709 25.4161 24.5742 25.9346 24.3165 26.391C24.0587 26.8474 23.6872 27.2252 23.2401 27.4855C23.2253 27.4929 23.2129 27.5046 23.2045 27.519C23.196 27.5335 23.1918 27.5502 23.1924 27.567V49.8424C23.1931 49.8599 23.1981 49.877 23.2069 49.892C23.2158 49.9069 23.2282 49.9194 23.2431 49.9281C23.2579 49.9368 23.2746 49.9414 23.2917 49.9417C23.3088 49.9419 23.3257 49.9376 23.3407 49.9293L43.589 38.4059C43.6038 38.3959 43.616 38.3821 43.6243 38.366C43.6327 38.3498 43.6369 38.3318 43.6366 38.3135V14.2018C43.638 14.184 43.6346 14.1662 43.6268 14.1502C43.619 14.1342 43.6071 14.1207 43.5924 14.1112C43.5777 14.1017 43.5607 14.0965 43.5433 14.0962C43.5259 14.0959 43.5087 14.1005 43.4937 14.1095L24.7068 24.8125Z" fill="#FF0066"/>
<path d="M20.6189 27.6431V49.9185C20.6193 49.9358 20.6152 49.953 20.607 49.9682C20.5988 49.9833 20.5868 49.996 20.5722 50.0049C20.5577 50.0137 20.5411 50.0184 20.5242 50.0185C20.5072 50.0186 20.4906 50.0141 20.476 50.0054L0.0529507 38.3516C0.0374289 38.3418 0.0244829 38.3283 0.0152502 38.3122C0.00601764 38.2961 0.000780761 38.2779 0 38.2592V14.0497C0.000652573 14.0322 0.00564194 14.0152 0.0144978 14.0002C0.0233537 13.9852 0.0357846 13.9727 0.0506182 13.964C0.0654518 13.9553 0.0821994 13.9507 0.0992827 13.9504C0.116366 13.9502 0.133222 13.9545 0.148262 13.9628L18.951 24.6767C18.951 24.7473 18.951 24.818 18.951 24.8886C18.9523 25.4466 19.1071 25.993 19.3974 26.4649C19.6878 26.9367 20.102 27.315 20.5924 27.5562C20.6034 27.5674 20.6115 27.5812 20.6161 27.5963C20.6208 27.6114 20.6217 27.6275 20.6189 27.6431Z" fill="#FF0066"/>
</g>
<defs>
<clipPath id="clip0_2765_1315">
<rect width="194" height="50" fill="white"/>
</clipPath>
</defs>
</svg>
