<svg width="392" height="195" viewBox="0 0 392 195" fill="none" xmlns="http://www.w3.org/2000/svg">
<mask id="path-1-inside-1_457_2009" fill="white">
<path d="M0 6C0 2.68629 2.68629 0 6 0H386C389.314 0 392 2.68629 392 6V189C392 192.314 389.314 195 386 195H6C2.68629 195 0 192.314 0 189V6Z"/>
</mask>
<path d="M0 6C0 2.68629 2.68629 0 6 0H386C389.314 0 392 2.68629 392 6V189C392 192.314 389.314 195 386 195H6C2.68629 195 0 192.314 0 189V6Z" fill="white"/>
<path d="M6 0V2H386V0V-2H6V0ZM392 6H390V189H392H394V6H392ZM386 195V193H6V195V197H386V195ZM0 189H2V6H0H-2V189H0ZM6 195V193C3.79086 193 2 191.209 2 189H0H-2C-2 193.418 1.58172 197 6 197V195ZM392 189H390C390 191.209 388.209 193 386 193V195V197C390.418 197 394 193.418 394 189H392ZM386 0V2C388.209 2 390 3.79086 390 6H392H394C394 1.58172 390.418 -2 386 -2V0ZM6 0V-2C1.58172 -2 -2 1.58172 -2 6H0H2C2 3.79086 3.79086 2 6 2V0Z" fill="#DEE1E5" mask="url(#path-1-inside-1_457_2009)"/>
<path d="M123 44C123 41.7909 124.791 40 127 40H266C268.209 40 270 41.7909 270 44V57C270 59.2091 268.209 61 266 61H127C124.791 61 123 59.2091 123 57V44Z" fill="#EFF0F2"/>
<path d="M123 73C123 70.7909 124.791 69 127 69H266C268.209 69 270 70.7909 270 73V152C270 154.209 268.209 156 266 156H127C124.791 156 123 154.209 123 152V73Z" fill="#DEE1E5"/>
</svg>
