<svg width="29" height="35" viewBox="0 0 29 35" fill="none" xmlns="http://www.w3.org/2000/svg">
<path d="m 3.7572299,14.116066 h 1.41011 l 0.12921,0.7528 h 0.03933 c 0.21937,-0.2603 0.49048,-0.4721 0.79609,-0.622 0.30562,-0.1499 0.63908,-0.2346 0.97923,-0.2488 0.3379,-0.0264 0.6757,0.0544 0.9651,0.2309 0.2895,0.1765 0.5159,0.4397 0.6472,0.7523 0.223,-0.2859 0.504,-0.5213 0.8245,-0.6908 0.3205,-0.1694 0.6733001,-0.2691 1.0351001,-0.2924 1.264,0 1.8258,0.8989 1.8258,2.3596 v 3.6348 h -1.7472 v -3.4382 c 0,-0.8371 -0.2303,-1.1236 -0.7247001,-1.1236 -0.1948,0.0227 -0.3831,0.0841 -0.5539,0.1805 -0.1708,0.0965 -0.3205,0.2262 -0.4405,0.3813 v 3.9326 h -1.7303 v -3.3708 c 0,-0.8371 -0.23035,-1.1236 -0.72474,-1.1236 -0.39277,0.0482 -0.75038,0.2503 -0.99438,0.5618 v 3.9326 h -1.73595 z" fill="#000000" />
<path d="m 13.8078,14.116066 h 1.4157 l 0.1236,0.5618 h 0.0449 c 0.4574,-0.4333 1.056,-0.6867 1.6854,-0.7135 1.3708,0.0337 2.2641,1.1573 2.2641,2.9832 0,2.0112 -1.1967,3.1629 -2.4607,3.1629 -0.5274,-0.0181 -1.0278,-0.2372 -1.3989,-0.6124 l 0.0618,0.927 v 1.7135 h -1.7359 z m 3.7584,2.8539 c 0,-1.0505 -0.3259,-1.5786 -1.0169,-1.5786 -0.1959,0.0096 -0.3874,0.0618 -0.5611,0.153 -0.1737,0.0912 -0.3254,0.2192 -0.4445,0.3751 v 2.3989 c 0.254,0.2351 0.5865,0.3673 0.9326,0.3707 0.6011,0 1.0899,-0.5112 1.0899,-1.7191 z" fill="#000000" />
<path d="m 23.117,15.638566 c 0,-0.4775 0.0449,-1.2022 0.0674,-1.6854 h -0.045 c -0.191,0.4214 -0.4045,0.8371 -0.6179,1.264 l -0.9832,1.6405 h 4.0618 v 1.3202 H 19.881 v -1.1966 l 2.7303,-4.4944 h 2.1236 v 7.4832 H 23.117 Z" fill="#000000" />
<path d="M 26.9314,0.21719552 H 2.0550399 c -0.46293,0.00148 -0.90648,0.18603 -1.23382,0.51338 -0.32734,0.32733998 -0.51189,0.77087998 -0.51338,1.23380998 V 33.020566 c -0.00222,0.2309 0.04133,0.4599 0.12813,0.6738 0.08681,0.2139 0.21515,0.4085 0.37762,0.5726 0.16246,0.164 0.35582,0.2942 0.56891,0.3831 0.21308,0.0888 0.44167,0.1346 0.67254,0.1345 H 26.9314 c 0.4634,0 0.9078,-0.184 1.2355,-0.5117 0.3277,-0.3277 0.5117,-0.7721 0.5117,-1.2354 V 1.9643855 c -0.0014,-0.46293 -0.186,-0.90647 -0.5133,-1.23380998 -0.3274,-0.32735 -0.7709,-0.5119 -1.2339,-0.51338 z M 27.6618,33.020566 c 0,0.1942 -0.0768,0.3806 -0.2136,0.5184 -0.1368,0.1379 -0.3225,0.2161 -0.5168,0.2176 H 2.0550399 c -0.19422,-0.0015 -0.37997,-0.0797 -0.51677,-0.2176 -0.13681,-0.1378 -0.21358,-0.3242 -0.21357,-0.5184 V 1.9643855 c 0,-0.1937 0.07694,-0.37946 0.21391,-0.51643 0.13696,-0.13696 0.32273,-0.21391 0.51643,-0.21391 H 26.9314 c 0.1937,0 0.3795,0.07695 0.5165,0.21391 0.1369,0.13697 0.2139,0.32273 0.2139,0.51643 z" fill="#000000" />
<path d="m 6.8246499,2.2902255 h -3.28652 c -0.27475,0.00143 -0.53802,0.11045 -0.73335,0.30368 -0.19533,0.19323 -0.30719,0.4553 -0.31159,0.73003 v 2.24719 c -1e-5,0.27765 0.10991,0.54402 0.30571,0.74088 0.19581,0.19686 0.46158,0.30819 0.73923,0.30968 h 3.28652 c 0.27865,0 0.54585,-0.11068 0.74285,-0.3077 0.197,-0.19702 0.3077,-0.46424 0.3077,-0.74286 v -2.24719 c -0.0044,-0.2757 -0.117,-0.5386 -0.3136,-0.73199 -0.1965,-0.19339 -0.4612,-0.30176 -0.73695,-0.30172 z m 0.19101,3.2809 c 0,0.05066 -0.02012,0.09924 -0.05595,0.13506 -0.03582,0.03582 -0.0844,0.05595 -0.13506,0.05595 h -3.28652 c -0.05066,0 -0.09924,-0.02013 -0.13506,-0.05595 -0.03582,-0.03582 -0.05595,-0.0844 -0.05595,-0.13506 v -2.24719 c 0.00142,-0.05022 0.02199,-0.09798 0.05751,-0.1335 0.03552,-0.03552 0.08329,-0.0561 0.1335,-0.05752 h 3.28652 c 0.05066,0 0.09924,0.02013 0.13506,0.05595 0.03583,0.03582 0.05595,0.08441 0.05595,0.13507 z" fill="#000000" />
<path d="M 13.0325,2.2902255 H 9.7459999 c -0.2757,-4e-5 -0.5404,0.10833 -0.7369,0.30172 -0.1966,0.19339 -0.3092,0.45629 -0.3136,0.73199 v 2.24719 c 0,0.13796 0.0271,0.27457 0.0799,0.40203 0.0528,0.12746 0.1302,0.24327 0.2278,0.34083 0.0975,0.09755 0.2133,0.17493 0.3408,0.22773 0.1274,0.0528 0.2641,0.07997 0.402,0.07997 H 13.0325 c 0.138,0 0.2746,-0.02717 0.4021,-0.07997 0.1274,-0.0528 0.2432,-0.13018 0.3408,-0.22773 0.0976,-0.09756 0.1749,-0.21337 0.2277,-0.34083 0.0528,-0.12746 0.08,-0.26407 0.08,-0.40203 v -2.24719 c -0.0044,-0.2757 -0.1171,-0.5386 -0.3136,-0.73199 -0.1965,-0.19339 -0.4612,-0.30176 -0.737,-0.30172 z m 0.191,3.2809 c 0,0.05066 -0.0201,0.09924 -0.0559,0.13506 -0.0358,0.03582 -0.0844,0.05595 -0.1351,0.05595 H 9.7459999 c -0.0506,0 -0.0992,-0.02013 -0.135,-0.05595 -0.0359,-0.03582 -0.056,-0.0844 -0.056,-0.13506 v -2.24719 c 0.0014,-0.05022 0.022,-0.09798 0.0575,-0.1335 0.0355,-0.03552 0.0833,-0.0561 0.1335,-0.05752 H 13.0325 c 0.0502,0.00142 0.098,0.022 0.1335,0.05752 0.0356,0.03552 0.0561,0.08328 0.0575,0.1335 z" fill="#000000" />
<path d="m 19.2404,2.2902255 h -3.2865 c -0.2757,-4e-5 -0.5404,0.10833 -0.737,0.30172 -0.1965,0.19339 -0.3091,0.45629 -0.3136,0.73199 v 2.24719 c 0,0.27862 0.1107,0.54584 0.3077,0.74286 0.1971,0.19702 0.4643,0.3077 0.7429,0.3077 h 3.2865 c 0.2777,-0.00149 0.5434,-0.11282 0.7393,-0.30968 0.1958,-0.19686 0.3057,-0.46323 0.3057,-0.74088 v -2.24719 c -0.0044,-0.27473 -0.1163,-0.5368 -0.3116,-0.73003 -0.1954,-0.19323 -0.4586,-0.30225 -0.7334,-0.30368 z m 0.191,3.2809 c 0,0.02508 -0.0049,0.04992 -0.0145,0.07309 -0.0096,0.02318 -0.0237,0.04424 -0.0414,0.06197 -0.0177,0.01774 -0.0388,0.03181 -0.062,0.04141 -0.0232,0.0096 -0.048,0.01454 -0.0731,0.01454 h -3.2865 c -0.0251,0 -0.0499,-0.00494 -0.0731,-0.01454 -0.0232,-0.0096 -0.0442,-0.02367 -0.062,-0.04141 -0.0177,-0.01773 -0.0318,-0.03879 -0.0414,-0.06197 -0.0096,-0.02317 -0.0145,-0.04801 -0.0145,-0.07309 v -2.24719 c 0,-0.02509 0.0049,-0.04993 0.0145,-0.0731 0.0096,-0.02318 0.0237,-0.04423 0.0414,-0.06197 0.0178,-0.01774 0.0388,-0.03181 0.062,-0.04141 0.0232,-0.0096 0.048,-0.01454 0.0731,-0.01454 h 3.2865 c 0.0502,0.00142 0.098,0.022 0.1335,0.05752 0.0355,0.03552 0.0561,0.08328 0.0575,0.1335 z" fill="#000000" />
<path d="m 25.4426,2.2902255 h -3.2809 c -0.2758,-4e-5 -0.5405,0.10833 -0.737,0.30172 -0.1965,0.19339 -0.3092,0.45629 -0.3136,0.73199 v 2.24719 c 0,0.27862 0.1107,0.54584 0.3077,0.74286 0.197,0.19702 0.4642,0.3077 0.7429,0.3077 h 3.2809 c 0.2786,0 0.5458,-0.11068 0.7428,-0.3077 0.197,-0.19702 0.3077,-0.46424 0.3077,-0.74286 v -2.24719 c -0.0044,-0.2757 -0.117,-0.5386 -0.3136,-0.73199 -0.1965,-0.19339 -0.4612,-0.30176 -0.7369,-0.30172 z m 0.191,3.2809 c 0,0.02508 -0.005,0.04992 -0.0146,0.07309 -0.0096,0.02318 -0.0236,0.04424 -0.0414,0.06197 -0.0177,0.01774 -0.0388,0.03181 -0.0619,0.04141 -0.0232,0.0096 -0.048,0.01454 -0.0731,0.01454 h -3.2809 c -0.0507,0 -0.0993,-0.02013 -0.1351,-0.05595 -0.0358,-0.03582 -0.0559,-0.0844 -0.0559,-0.13506 v -2.24719 c 0,-0.05066 0.0201,-0.09925 0.0559,-0.13507 0.0358,-0.03582 0.0844,-0.05595 0.1351,-0.05595 h 3.2809 c 0.0506,0 0.0992,0.02013 0.135,0.05595 0.0359,0.03582 0.056,0.08441 0.056,0.13507 z" fill="#000000" />
<path d="m 6.8246499,28.043066 h -3.28652 c -0.27234,-10e-5 -0.53395,0.1061 -0.72913,0.296 -0.19518,0.19 -0.30849,0.4486 -0.31581,0.7208 v 2.2472 c -1e-5,0.2777 0.10991,0.544 0.30571,0.7409 0.19581,0.1968 0.46158,0.3082 0.73923,0.3097 h 3.28652 c 0.27865,0 0.54585,-0.1107 0.74285,-0.3077 0.197,-0.197 0.3077,-0.4643 0.3077,-0.7429 v -2.2472 c -0.0087,-0.2727 -0.1233,-0.5314 -0.3194,-0.7211 -0.196,-0.1898 -0.45827,-0.2959 -0.73115,-0.2957 z m 0.19101,3.2865 c 0,0.0506 -0.02012,0.0992 -0.05595,0.135 -0.03582,0.0359 -0.0844,0.056 -0.13506,0.056 h -3.28652 c -0.05021,-0.0014 -0.09798,-0.022 -0.1335,-0.0575 -0.03552,-0.0355 -0.05609,-0.0833 -0.05751,-0.1335 v -2.2472 c 0.00142,-0.0502 0.02199,-0.098 0.05751,-0.1335 0.03552,-0.0355 0.08329,-0.0561 0.1335,-0.0575 h 3.28652 c 0.05066,0 0.09924,0.0201 0.13506,0.0559 0.03583,0.0358 0.05595,0.0844 0.05595,0.1351 z" fill="#000000" />
<path d="M 13.0325,28.043066 H 9.7459999 c -0.2776,0 -0.544,0.1099 -0.7409,0.3057 -0.1968,0.1958 -0.3082,0.4616 -0.3096,0.7392 v 2.2472 c 0,0.138 0.0271,0.2746 0.0799,0.402 0.0528,0.1275 0.1302,0.2433 0.2278,0.3409 0.0975,0.0975 0.2133,0.1749 0.3408,0.2277 0.1274,0.0528 0.2641,0.08 0.402,0.08 H 13.0325 c 0.138,0 0.2746,-0.0272 0.4021,-0.08 0.1274,-0.0528 0.2432,-0.1302 0.3408,-0.2277 0.0976,-0.0976 0.1749,-0.2134 0.2277,-0.3409 0.0528,-0.1274 0.08,-0.264 0.08,-0.402 v -2.2472 c -0.0015,-0.2776 -0.1128,-0.5434 -0.3097,-0.7392 -0.1968,-0.1958 -0.4632,-0.3057 -0.7409,-0.3057 z m 0.191,3.2865 c -0.0014,0.0502 -0.0219,0.098 -0.0575,0.1335 -0.0355,0.0355 -0.0833,0.0561 -0.1335,0.0575 H 9.7459999 c -0.0502,-0.0014 -0.098,-0.022 -0.1335,-0.0575 -0.0355,-0.0355 -0.0561,-0.0833 -0.0575,-0.1335 v -2.2472 c 0.0014,-0.0502 0.022,-0.098 0.0575,-0.1335 0.0355,-0.0355 0.0833,-0.0561 0.1335,-0.0575 H 13.0325 c 0.0502,0.0014 0.098,0.022 0.1335,0.0575 0.0356,0.0355 0.0561,0.0833 0.0575,0.1335 z" fill="#000000" />
<path d="m 19.2404,28.043066 h -3.2865 c -0.2776,0 -0.544,0.1099 -0.7409,0.3057 -0.1968,0.1958 -0.3082,0.4616 -0.3097,0.7392 v 2.2472 c 0,0.2786 0.1107,0.5458 0.3077,0.7429 0.1971,0.197 0.4643,0.3077 0.7429,0.3077 h 3.2865 c 0.2777,-0.0015 0.5434,-0.1129 0.7393,-0.3097 0.1958,-0.1969 0.3057,-0.4632 0.3057,-0.7409 v -2.2472 c 0,-0.1372 -0.0271,-0.2731 -0.0796,-0.3999 -0.0525,-0.1268 -0.1295,-0.2419 -0.2265,-0.339 -0.097,-0.097 -0.2122,-0.174 -0.339,-0.2265 -0.1268,-0.0525 -0.2627,-0.0795 -0.3999,-0.0795 z m 0.191,3.2865 c -0.0014,0.0502 -0.022,0.098 -0.0575,0.1335 -0.0355,0.0355 -0.0833,0.0561 -0.1335,0.0575 h -3.2865 c -0.0251,0 -0.0499,-0.0049 -0.0731,-0.0145 -0.0232,-0.0096 -0.0442,-0.0237 -0.062,-0.0415 -0.0177,-0.0177 -0.0318,-0.0387 -0.0414,-0.0619 -0.0096,-0.0232 -0.0145,-0.048 -0.0145,-0.0731 v -2.2472 c 0,-0.0251 0.0049,-0.0499 0.0145,-0.0731 0.0096,-0.0232 0.0237,-0.0442 0.0414,-0.062 0.0178,-0.0177 0.0388,-0.0318 0.062,-0.0414 0.0232,-0.0096 0.048,-0.0145 0.0731,-0.0145 h 3.2865 c 0.0502,0.0014 0.098,0.022 0.1335,0.0575 0.0355,0.0355 0.0561,0.0833 0.0575,0.1335 z" fill="#000000" />
<path d="m 25.4426,28.043066 h -3.2809 c -0.2777,0 -0.5441,0.1099 -0.7409,0.3057 -0.1969,0.1958 -0.3082,0.4616 -0.3097,0.7392 v 2.2472 c 0,0.2786 0.1107,0.5458 0.3077,0.7429 0.197,0.197 0.4642,0.3077 0.7429,0.3077 h 3.2809 c 0.2786,0 0.5458,-0.1107 0.7428,-0.3077 0.197,-0.1971 0.3077,-0.4643 0.3077,-0.7429 v -2.2472 c -0.0015,-0.2776 -0.1128,-0.5434 -0.3097,-0.7392 -0.1968,-0.1958 -0.4632,-0.3057 -0.7408,-0.3057 z m 0.191,3.2865 c 0,0.0506 -0.0201,0.0992 -0.056,0.135 -0.0358,0.0359 -0.0844,0.056 -0.135,0.056 h -3.2809 c -0.0507,0 -0.0993,-0.0201 -0.1351,-0.056 -0.0358,-0.0358 -0.0559,-0.0844 -0.0559,-0.135 v -2.2472 c 0,-0.0507 0.0201,-0.0993 0.0559,-0.1351 0.0358,-0.0358 0.0844,-0.0559 0.1351,-0.0559 h 3.2809 c 0.0506,0 0.0992,0.0201 0.135,0.0559 0.0359,0.0358 0.056,0.0844 0.056,0.1351 z" fill="#000000" />
</svg>
