<svg width="29" height="40" viewBox="0 0 29 40" fill="none" xmlns="http://www.w3.org/2000/svg">
<path fill-rule="evenodd" clip-rule="evenodd" d="M6.23047 0H21.7695C22.448 0 23 0.521332 23 1.16214V5H26.5843C27.0417 5 27.4804 5.1817 27.8038 5.50516C28.1273 5.82861 28.309 6.2673 28.309 6.72473V30.1124C28.2494 31.2856 27.7664 32.3974 26.9494 33.2416L21.5056 38.3652C20.6034 39.1314 19.4742 39.5795 18.2921 39.6404H1.72473C1.2673 39.6404 0.828613 39.4587 0.505157 39.1353C0.181702 38.8118 0 38.3731 0 37.9157V6.72473C0.00149536 6.26678 0.184448 5.82809 0.508789 5.50482C0.83313 5.18152 1.2724 5 1.73035 5H5V1.16214C5 0.521332 5.552 0 6.23047 0ZM5 6.01685H1.73035C1.54349 6.01974 1.36514 6.09525 1.233 6.22739C1.10089 6.35953 1.02536 6.53787 1.02246 6.72473V37.9157C1.021 38.0096 1.03818 38.1029 1.07309 38.1901C1.108 38.2773 1.15991 38.3566 1.2258 38.4236C1.29166 38.4905 1.37021 38.5436 1.45682 38.5799C1.54346 38.6161 1.63641 38.6348 1.73035 38.6348H18.2921C18.4717 38.6328 18.6506 38.6121 18.8258 38.573L19.0056 38.5393V33.3034C19.0071 32.6527 19.2662 32.0291 19.7263 31.569C20.1864 31.1089 20.81 30.8498 21.4607 30.8483H27.1798L27.2191 30.6742C27.266 30.4905 27.2906 30.3019 27.2921 30.1124V6.72473C27.2892 6.53787 27.2137 6.35953 27.0816 6.22739C26.9495 6.09525 26.7711 6.01974 26.5843 6.01685H23V11.9616C23 12.6024 22.448 13.1237 21.7695 13.1237H16.944C16.8774 13.1237 16.8173 13.1585 16.7873 13.2147L15.0976 16.3637C14.6423 17.2121 13.3577 17.2121 12.9025 16.3637L11.2128 13.2147C11.1827 13.1585 11.1227 13.1237 11.056 13.1237H6.23047C5.552 13.1237 5 12.6024 5 11.9616V6.01685ZM21.7695 12.1276C21.8665 12.1276 21.9453 12.0531 21.9453 11.9616V1.16214C21.9453 1.07059 21.8665 0.996124 21.7695 0.996124H6.23047C6.13354 0.996124 6.05469 1.07059 6.05469 1.16214V11.9616C6.05469 12.0531 6.13354 12.1276 6.23047 12.1276H11.0559C11.5222 12.1276 11.9428 12.3716 12.1536 12.7644L13.8432 15.9134C13.9086 16.0353 14.0913 16.0353 14.1568 15.9134L15.8464 12.7644C16.0571 12.3716 16.4777 12.1276 16.944 12.1276H21.7695ZM9.19461 5.12448C9.05182 5.51447 8.98636 5.93158 9.00235 6.3497C9.00235 8.35254 10.2227 9.51022 11.8135 9.56232C12.4975 9.5701 13.161 9.31522 13.6822 8.84454L13.0284 7.68686C12.7425 7.95114 12.3825 8.10782 12.0042 8.13257C11.2742 8.13257 10.7294 7.45532 10.7294 6.39603C10.7294 5.33673 11.2524 4.65945 12.0587 4.65945C12.3358 4.67224 12.5991 4.79156 12.7996 4.99521L13.595 3.83749C13.1435 3.41577 12.5618 3.18506 11.9606 3.18918C11.567 3.1745 11.1748 3.24631 10.8086 3.40018C10.4423 3.55405 10.1099 3.78662 9.83218 4.08331C9.55444 4.38004 9.3374 4.7345 9.19461 5.12448ZM26.2584 32.4944C26.3521 32.3999 26.4385 32.2985 26.5168 32.191L26.7753 31.8427H21.4607C21.2717 31.8418 21.0844 31.8786 20.9098 31.9509C20.7352 32.0233 20.5768 32.1297 20.4438 32.264C20.1751 32.5344 20.0237 32.8997 20.0225 33.2809V38.1573L20.3596 37.9494C20.5232 37.8563 20.6758 37.7451 20.8146 37.618L26.2584 32.4944ZM10 18L20 22.5L10 27V18ZM14.2527 6.3497C14.2367 5.93158 14.3022 5.51447 14.445 5.12448C14.5878 4.7345 14.8048 4.38004 15.0826 4.08331C15.3603 3.78662 15.6927 3.55405 16.0589 3.40018C16.4252 3.24631 16.8174 3.1745 17.211 3.18918C17.8122 3.18506 18.3938 3.41577 18.8454 3.83749L18.05 4.99521C17.8495 4.79156 17.5862 4.67224 17.3091 4.65945C16.5027 4.65945 15.9797 5.33673 15.9797 6.39603C15.9797 7.45532 16.5245 8.13257 17.2546 8.13257C17.6328 8.10782 17.9929 7.95114 18.2788 7.68686L18.9326 8.84454C18.4114 9.31522 17.7478 9.5701 17.0639 9.56232C15.4731 9.51022 14.2527 8.35254 14.2527 6.3497Z" fill="black"/>
</svg>
