<svg xmlns:svg="http://www.w3.org/2000/svg" xmlns="http://www.w3.org/2000/svg" width="28" height="34" viewBox="0 0 21 25" fill="none" version="1.1">
  <path
   d="M19.0007 0H1.23673C0.909424 -1.72513e-06 0.595464 0.129745 0.363647 0.36081C0.13183 0.591874 0.00106269 0.905411 0 1.23272V23.526C0 23.8529 0.129875 24.1665 0.361054 24.3977C0.592233 24.6288 0.90578 24.7587 1.23272 24.7587H13.074C13.9189 24.7152 14.726 24.3949 15.3708 23.8472L19.2617 20.1852C19.8456 19.5819 20.1908 18.7872 20.2334 17.9487V1.23272C20.2334 0.905779 20.1035 0.592233 19.8724 0.361054C19.6412 0.129875 19.3276 0 19.0007 0ZM18.9525 19.4344C18.8965 19.5112 18.8348 19.5837 18.7678 19.6512L14.8769 23.3132C14.7777 23.4041 14.6686 23.4835 14.5517 23.5501L14.3108 23.6987V20.2133C14.3117 19.9409 14.4199 19.6798 14.6119 19.4865C14.7069 19.3906 14.8202 19.3145 14.945 19.2628C15.0698 19.2111 15.2036 19.1848 15.3387 19.1854H19.1372L18.9525 19.4344ZM19.5066 17.9487C19.5055 18.0841 19.488 18.219 19.4544 18.3502L19.4263 18.4747H15.3387C14.8736 18.4757 14.4279 18.661 14.0991 18.9898C13.7702 19.3186 13.585 19.7643 13.584 20.2294V23.9717L13.4555 23.9958C13.3302 24.0237 13.2024 24.0385 13.074 24.04H1.23673C1.16961 24.04 1.10316 24.0266 1.04125 24.0007C0.979333 23.9748 0.923199 23.9368 0.876112 23.889C0.829025 23.8411 0.791927 23.7844 0.766978 23.7221C0.74203 23.6598 0.72973 23.5931 0.730796 23.526V1.23272C0.732867 1.09918 0.786835 0.971692 0.881271 0.877256C0.975708 0.78282 1.10319 0.728851 1.23673 0.72678H19.0007C19.1342 0.728851 19.2617 0.78282 19.3562 0.877256C19.4506 0.971692 19.5046 1.09918 19.5066 1.23272V17.9487Z"
   fill="#0CAD55" />
  <path
   d="m 5.4825235,12.569008 c -0.35038,0 -0.67717,-0.05449 -0.98039,-0.16346 -0.29648,-0.11539 -0.555894,-0.27885 -0.778251,-0.49039 -0.222358,-0.21153 -0.3975495,-0.47115 -0.5255735,-0.77884 -0.128024,-0.314099 -0.192036,-0.669869 -0.192036,-1.067309 0,-0.3974399 0.07075,-0.7500003 0.21225,-1.0576903 0.141501,-0.3141 0.3301685,-0.576925 0.5660025,-0.788464 0.242568,-0.211538 0.522198,-0.371795 0.838898,-0.480769 0.31669,-0.1153847 0.64685,-0.173077 0.9905,-0.173077 0.30995,0 0.58284,0.048077 0.81868,0.144231 0.24257,0.096154 0.45819,0.217949 0.64686,0.365384 l -0.6974,0.913465 c -0.23583,-0.1859 -0.46156,-0.27885 -0.67718,-0.27885 -0.36386,0 -0.65023,0.1218 -0.85911,0.36539 -0.20888,0.24359 -0.31332,0.57371 -0.31332,0.9903803 0,0.41667 0.10444,0.74679 0.31332,0.99038 0.21562,0.243589 0.48515,0.365389 0.80858,0.365389 0.16171,0 0.31669,-0.03205 0.46493,-0.09615 0.15497,-0.07052 0.29984,-0.15385 0.4346,-0.25 l 0.58622,0.92307 c -0.24931,0.20513 -0.51883,0.35257 -0.80857,0.44231 -0.28974,0.08333 -0.57274,0.125 -0.84901,0.125 z"
   fill="#0cad55" />
  <path
   d="m 9.4930135,12.569008 c -0.33016,0 -0.67044,-0.0609 -1.02082,-0.18269 -0.34364,-0.1218 -0.64349,-0.28205 -0.89954,-0.48077 l 0.66708,-0.884619 c 0.22909,0.166669 0.44808,0.291669 0.65696,0.374999 0.20888,0.08334 0.42113,0.125 0.63675,0.125 0.22236,0 0.38408,-0.03525 0.4851505,-0.10577 0.10107,-0.07051 0.15161,-0.16987 0.15161,-0.29807 0,-0.07693 -0.03033,-0.144229 -0.09097,-0.201929 -0.0539,-0.0641 -0.1313903,-0.12179 -0.2324605,-0.17307 -0.09434,-0.05129 -0.20215,-0.09616 -0.32343,-0.13462 -0.12129,-0.04487 -0.24594,-0.09295 -0.37397,-0.14423 -0.15497,-0.05769 -0.30995,-0.125 -0.46493,-0.20192 -0.15497,-0.07693 -0.29647,-0.16987 -0.4245,-0.2788499 -0.12802,-0.11538 -0.23246,-0.24679 -0.31332,-0.3942304 -0.08086,-0.15385 -0.12129,-0.33013 -0.12129,-0.52885 0,-0.21794 0.0438,-0.41987 0.1314,-0.605765 0.09433,-0.185897 0.22572,-0.342948 0.39418,-0.471154 0.16845,-0.128205 0.37059,-0.227564 0.60643,-0.298076 0.23583,-0.076923 0.49862,-0.115385 0.78835,-0.115385 0.3840805,0 0.7209805,0.064103 1.0107205,0.192308 0.28974,0.121795 0.54242,0.259615 0.75804,0.413461 l -0.66708,0.846151 c -0.18192,-0.1282 -0.36048,-0.22756 -0.53567,-0.29807 -0.1752,-0.07052 -0.3503903,-0.10577 -0.5255805,-0.10577 -0.37733,0 -0.566,0.125 -0.566,0.375 0,0.07692 0.02695,0.14423 0.08086,0.20192 0.0539,0.05128 0.12465,0.09936 0.21225,0.14423 0.09433,0.04487 0.19877,0.08974 0.31332,0.13462 0.1212902,0.03846 0.2459405,0.08012 0.3739705,0.125 0.16171,0.05769 0.32006,0.1250004 0.47503,0.2019204 0.16172,0.07051 0.30659,0.16026 0.43461,0.2692299 0.13476,0.10897 0.24257,0.24359 0.32343,0.40385 0.08086,0.15384 0.12129,0.33974 0.12129,0.55769 0,0.217949 -0.0438,0.419869 -0.1314,0.605769 -0.08759,0.1859 -0.21898,0.34936 -0.39418,0.49038 -0.17519,0.13462 -0.39081,0.24359 -0.64685,0.32693 -0.25605,0.07692 -0.5525305,0.11538 -0.8894405,0.11538 z"
   fill="#0cad55" />
  <path
   d="m 13.650674,12.453628 -1.68788,-4.7692343 h 1.49588 l 0.6468,2.2499954 c 0.0674,0.2371799 0.1314,0.4807699 0.1921,0.7307699 0.0674,0.24359 0.1347,0.490389 0.2021,0.740389 h 0.0405 c 0.0606,-0.25 0.1212,-0.496799 0.1819,-0.740389 0.0674,-0.25 0.1347,-0.49359 0.2021,-0.7307699 l 0.657,-2.2499954 h 1.4251 l -1.6374,4.7692343 z"
   fill="#0cad55" />
</svg>
