<svg width="29" height="35" viewBox="0 0 29 35" fill="none" xmlns="http://www.w3.org/2000/svg">
<path d="M26.5843 0H1.73034C1.27239 -2.41366e-06 0.833126 0.181529 0.508786 0.504816C0.184446 0.828103 0.00148683 1.26678 0 1.72472V32.9157C0 33.3731 0.181711 33.8118 0.505158 34.1353C0.828606 34.4587 1.2673 34.6404 1.72472 34.6404H18.2921C19.4742 34.5795 20.6034 34.1314 21.5056 33.3652L26.9494 28.2416C27.7664 27.3974 28.2494 26.2856 28.309 25.1124V1.72472C28.309 1.26729 28.1273 0.828606 27.8038 0.505159C27.4804 0.181711 27.0417 0 26.5843 0ZM26.5169 27.191C26.4385 27.2985 26.3521 27.3999 26.2584 27.4944L20.8146 32.618C20.6758 32.7451 20.5232 32.8563 20.3596 32.9494L20.0225 33.1573V28.2809C20.0238 27.8997 20.1751 27.5344 20.4438 27.264C20.5768 27.1297 20.7352 27.0233 20.9098 26.9509C21.0844 26.8786 21.2717 26.8418 21.4607 26.8427H26.7753L26.5169 27.191ZM27.2921 25.1124C27.2906 25.3019 27.266 25.4905 27.2191 25.6742L27.1798 25.8483H21.4607C20.81 25.8498 20.1864 26.1089 19.7263 26.569C19.2662 27.0291 19.0071 27.6527 19.0056 28.3034V33.5393L18.8258 33.573C18.6506 33.6121 18.4717 33.6328 18.2921 33.6348H1.73034C1.63643 33.6348 1.54345 33.6162 1.45683 33.5799C1.37021 33.5436 1.29167 33.4905 1.22579 33.4235C1.15991 33.3566 1.108 33.2773 1.0731 33.1901C1.03819 33.1029 1.02098 33.0096 1.02247 32.9157V1.72472C1.02537 1.53788 1.10088 1.35951 1.23301 1.22739C1.36513 1.09526 1.5435 1.01975 1.73034 1.01685H26.5843C26.7711 1.01975 26.9495 1.09526 27.0816 1.22739C27.2137 1.35951 27.2892 1.53788 27.2921 1.72472V25.1124Z" fill="#949494"/>
<path d="M8.97401 19C8.5924 19 8.26472 18.9417 7.99097 18.825C7.7255 18.7083 7.50567 18.5458 7.33146 18.3375C7.16554 18.1292 7.04111 17.8792 6.95815 17.5875C6.88349 17.2875 6.84616 16.9583 6.84616 16.6V14.0875H6V12.725L6.94571 12.65L7.15725 11H8.67536V12.65H10.1561V14.0875H8.67536V16.575C8.67536 16.925 8.74587 17.1792 8.8869 17.3375C9.03622 17.4875 9.23117 17.5625 9.47175 17.5625C9.57129 17.5625 9.67084 17.55 9.77039 17.525C9.87823 17.5 9.97364 17.4708 10.0566 17.4375L10.3428 18.775C10.1769 18.825 9.98193 18.875 9.75795 18.925C9.53396 18.975 9.27265 19 8.97401 19Z" fill="#949494"/>
<path d="M10.5804 18.85L12.4718 15.625L10.6924 12.65H12.6585L13.206 13.65C13.2889 13.825 13.3719 14.0042 13.4548 14.1875C13.5461 14.3625 13.6373 14.5375 13.7286 14.7125H13.7784C13.8447 14.5375 13.9153 14.3625 13.9899 14.1875C14.0646 14.0042 14.1351 13.825 14.2015 13.65L14.6245 12.65H16.516L14.7241 15.8375L16.6279 18.85H14.6619L14.0646 17.825C13.965 17.65 13.8655 17.4708 13.7659 17.2875C13.6747 17.1042 13.5793 16.925 13.4797 16.75H13.43C13.3553 16.925 13.2765 17.1042 13.1935 17.2875C13.1106 17.4625 13.0318 17.6417 12.9571 17.825L12.4718 18.85H10.5804Z" fill="#949494"/>
<path d="M19.6312 19C19.2496 19 18.9219 18.9417 18.6482 18.825C18.3827 18.7083 18.1629 18.5458 17.9887 18.3375C17.8228 18.1292 17.6983 17.8792 17.6154 17.5875C17.5407 17.2875 17.5034 16.9583 17.5034 16.6V14.0875H16.6572V12.725L17.6029 12.65L17.8145 11H19.3326V12.65H20.8133V14.0875H19.3326V16.575C19.3326 16.925 19.4031 17.1792 19.5441 17.3375C19.6934 17.4875 19.8884 17.5625 20.129 17.5625C20.2285 17.5625 20.328 17.55 20.4276 17.525C20.5354 17.5 20.6308 17.4708 20.7138 17.4375L21 18.775C20.8341 18.825 20.6391 18.875 20.4152 18.925C20.1912 18.975 19.9299 19 19.6312 19Z" fill="#949494"/>
</svg>
