<svg width="93" height="84" viewBox="0 0 93 84" fill="none" xmlns="http://www.w3.org/2000/svg">
<path d="M65.4022 69.9897H63.8843L65.0331 65.7634H70.086V78.4268H71.5676L70.4551 82.6479H65.4022V69.9897ZM65.0435 60.7989C65.0448 60.4611 65.1134 60.1269 65.2454 59.8159C65.3773 59.5049 65.5699 59.2234 65.8119 58.9876C66.0539 58.7519 66.3404 58.5668 66.6548 58.4431C66.9692 58.3195 67.305 58.2596 67.6428 58.2672C68.3129 58.2713 68.9545 58.5394 69.4284 59.0133C69.9023 59.4872 70.1703 60.1287 70.1744 60.7989C70.1772 61.4746 69.9125 62.1239 69.4382 62.605C68.9638 63.0862 68.3184 63.3601 67.6428 63.3669C67.3023 63.3732 66.9641 63.3112 66.648 63.1848C66.3318 63.0583 66.0442 62.8699 65.802 62.6306C65.5598 62.3913 65.3679 62.106 65.2377 61.7914C65.1074 61.4768 65.0414 61.1394 65.0435 60.7989Z" fill="black"/>
<path d="M72.9243 74.2106C72.9243 69.111 76.4333 65.2901 81.1274 65.2901C82.2353 65.2446 83.3362 65.4852 84.3241 65.9887C85.312 66.4922 86.1536 67.2417 86.7677 68.1649V65.7632H91.3736V78.4266H92.8915L91.7426 82.6477H86.7677V76.9294L85.3174 81.7899C84.1029 82.6801 82.6276 83.1426 81.1222 83.1051C76.4437 83.1051 72.9243 79.3415 72.9243 74.2106ZM86.7677 74.1222C86.7889 73.5155 86.6866 72.9108 86.467 72.3448C86.2474 71.7788 85.915 71.2634 85.4901 70.8297C85.0652 70.3961 84.5567 70.0533 83.9953 69.8222C83.4339 69.5911 82.8314 69.4764 82.2243 69.4852C81.6197 69.4799 81.0202 69.5972 80.4621 69.8299C79.9041 70.0627 79.3989 70.4061 78.9773 70.8395C78.5556 71.2728 78.226 71.7871 78.0086 72.3513C77.7912 72.9155 77.6903 73.518 77.7121 74.1222C77.6896 74.7269 77.7899 75.3299 78.007 75.8948C78.2242 76.4596 78.5535 76.9745 78.9753 77.4084C79.3971 77.8424 79.9025 78.1862 80.4609 78.4193C81.0193 78.6524 81.6192 78.7698 82.2243 78.7645C82.8324 78.7756 83.4364 78.6623 83.9992 78.4317C84.562 78.201 85.0717 77.8578 85.4971 77.4232C85.9226 76.9885 86.2547 76.4715 86.4732 75.9039C86.6917 75.3362 86.7919 74.73 86.7677 74.1222Z" fill="black"/>
<path d="M9.52954 65.0509C7.83026 65.0123 6.17238 65.5778 4.85095 66.6469V65.4304H0.172363V82.6164H5.22524V72.6198C5.2026 72.2244 5.26267 71.8286 5.40162 71.4577C5.54057 71.0867 5.75533 70.7489 6.03221 70.4656C6.30909 70.1824 6.64201 69.96 7.00968 69.8126C7.37735 69.6653 7.7717 69.5963 8.16756 69.6099C9.88824 69.6099 11.0423 70.816 11.0423 72.6198V82.6112H16.0328V72.0116C16.0432 67.7853 13.4855 65.0509 9.52954 65.0509Z" fill="black"/>
<path d="M29.9647 75.3857C29.9894 75.7738 29.933 76.1627 29.7989 76.5277C29.6648 76.8927 29.4561 77.2258 29.1861 77.5056C28.9161 77.7854 28.5906 78.0059 28.2306 78.1528C27.8706 78.2998 27.4839 78.3701 27.0952 78.3592C26.7017 78.3756 26.3092 78.3097 25.9427 78.1657C25.5761 78.0217 25.2437 77.8027 24.9668 77.5228C24.6898 77.2429 24.4743 76.9082 24.3342 76.5402C24.194 76.1721 24.1323 75.7789 24.1529 75.3857V65.4307H19.126V75.0218C19.126 79.7316 22.401 83.0222 27.0952 83.0222C31.7894 83.0222 34.9968 79.7316 34.9968 75.0218V65.4307H29.9647V75.3857Z" fill="black"/>
<path d="M50.342 76.0614C49.2191 77.6521 48.039 78.3591 46.5159 78.3591C44.0674 78.3591 42.3572 76.5708 42.3572 74.0028C42.3572 71.4347 44.1038 69.6777 46.5159 69.6777C48.0754 69.6777 49.2815 70.4159 50.342 72.0066L50.4823 72.2145L54.0121 69.4698L53.9185 69.293C53.1817 67.9692 52.0952 66.8734 50.7778 66.1253C49.4603 65.3772 47.9627 65.0056 46.4483 65.0511C41.2967 65.0511 37.2627 68.9863 37.2627 74.0028C37.2611 75.2015 37.4988 76.3885 37.962 77.4941C38.4252 78.5997 39.1045 79.6017 39.9601 80.4413C40.8157 81.2809 41.8303 81.9412 42.9445 82.3835C44.0586 82.8257 45.2499 83.0411 46.4483 83.0169C47.9657 83.0587 49.4653 82.6822 50.783 81.9284C52.1006 81.1747 53.1854 80.0729 53.9185 78.7437L54.0121 78.567L50.4823 75.8638L50.342 76.0614Z" fill="black"/>
<path d="M61.2071 56.8115H56.1802V82.6113H61.2071V56.8115Z" fill="black"/>
<path d="M23.7884 14.621H23.752H23.7156C23.7046 14.6273 23.6955 14.6364 23.6891 14.6473C23.6827 14.6583 23.6793 14.6707 23.6792 14.6834V39.8126C23.6794 39.8259 23.6828 39.8391 23.6891 39.8508C23.6955 39.8626 23.7045 39.8726 23.7156 39.8801L45.4242 51.9561C45.4356 51.9616 45.448 51.9645 45.4606 51.9645C45.4732 51.9645 45.4857 51.9616 45.497 51.9561C45.5088 51.9508 45.5186 51.9419 45.5252 51.9307C45.5317 51.9196 45.5346 51.9066 45.5334 51.8937V28.6671C45.0286 28.4677 44.5961 28.1201 44.2926 27.67C43.9892 27.22 43.8291 26.6886 43.8335 26.1459C43.8359 26.0344 43.8464 25.9232 43.8647 25.8132L23.7884 14.621Z" fill="#FF006A"/>
<path d="M47.7378 28.6361V51.8472C47.7379 51.8598 47.7413 51.8722 47.7477 51.8832C47.7541 51.8941 47.7632 51.9032 47.7742 51.9095C47.7851 51.9165 47.7977 51.9202 47.8106 51.9202C47.8235 51.9202 47.8361 51.9165 47.847 51.9095L69.3841 39.9531C69.3948 39.9453 69.4037 39.9352 69.41 39.9235C69.4163 39.9118 69.4199 39.8988 69.4205 39.8856V14.8811C69.4203 14.8684 69.4169 14.856 69.4105 14.8451C69.4042 14.8342 69.395 14.8251 69.3841 14.8187C69.3732 14.8118 69.3606 14.8081 69.3477 14.8081C69.3348 14.8081 69.3222 14.8118 69.3113 14.8187L49.3181 25.9226C49.3235 25.9935 49.3235 26.0648 49.3181 26.1357C49.3242 26.6606 49.1782 27.176 48.8978 27.6197C48.6173 28.0634 48.2145 28.4164 47.7378 28.6361Z" fill="#2500FF"/>
<path d="M46.6257 0.725642C46.6143 0.720475 46.6019 0.717773 46.5893 0.717773C46.5768 0.717773 46.5644 0.720475 46.5529 0.725642L24.9431 12.5936C24.9313 12.599 24.9214 12.6078 24.9149 12.619C24.9084 12.6302 24.9055 12.6431 24.9067 12.656C24.9052 12.6696 24.9078 12.6834 24.9143 12.6955C24.9208 12.7076 24.9308 12.7174 24.9431 12.7236L44.9986 23.9002C45.4737 23.5618 46.0425 23.3801 46.6257 23.3804C47.2168 23.3835 47.7897 23.5849 48.2528 23.9522L68.1836 12.9263C68.1958 12.9201 68.2058 12.9103 68.2123 12.8982C68.2188 12.8862 68.2215 12.8724 68.22 12.8588C68.2212 12.8459 68.2183 12.8329 68.2118 12.8218C68.2052 12.8106 68.1954 12.8017 68.1836 12.7964L46.6257 0.725642Z" fill="#FFDC1B"/>
</svg>
