<svg width="210" height="32" viewBox="0 0 210 32" fill="none" xmlns="http://www.w3.org/2000/svg">
<path d="M24.0803 15.3746C24.0803 17.9161 22.0166 19.9798 19.4752 19.9798C16.9337 19.9798 14.87 17.9161 14.87 15.3746C14.87 12.8332 16.9337 10.7695 19.4752 10.7695C22.0166 10.7695 24.0803 12.8332 24.0803 15.3746ZM38.9503 15.3746C38.9503 17.9161 36.8865 19.9798 34.3451 19.9798C34.273 19.9798 34.219 19.9708 34.1559 19.9708C32.2002 26.2162 26.3694 30.7493 19.4752 30.7493C12.5809 30.7493 6.75006 26.2162 4.79444 19.9708C4.73135 19.9708 4.66827 19.9798 4.60518 19.9798C2.06377 19.9888 0 17.9251 0 15.3746C0 12.8332 2.06377 10.7695 4.60518 10.7695C4.67728 10.7695 4.73135 10.7785 4.79444 10.7785C6.75006 4.53309 12.5809 0 19.4752 0C26.3694 0 32.2002 4.53309 34.1559 10.7785C34.219 10.7785 34.282 10.7695 34.3451 10.7695C36.8955 10.7695 38.9503 12.8332 38.9503 15.3746ZM30.3528 15.3746C30.3528 9.37259 25.4862 4.50605 19.4752 4.50605C13.4641 4.50605 8.60656 9.37259 8.60656 15.3746C8.60656 21.3767 13.4731 26.2523 19.4842 26.2523C25.4952 26.2523 30.3528 21.3857 30.3528 15.3746Z" fill="#E81C66"/>
<path d="M79.5134 16.5558V25.1714H75.4759L75.0614 23.9547C73.8988 25.0272 72.2676 25.649 70.6995 25.649C67.9959 25.649 66.1845 23.9277 66.1845 21.3412C66.1845 18.8719 68.3834 17.2407 71.6458 17.2407H74.9442V16.8532C74.9442 15.4293 74.052 14.6542 72.565 14.6542C71.4926 14.6542 70.0957 15.0958 68.6177 15.934L67.1037 12.7887C68.5276 11.5991 70.9969 10.8241 73.286 10.8241C77.017 10.8241 79.5134 13.1132 79.5134 16.5558ZM74.9352 20.0074V19.6469H72.529C71.4295 19.6469 70.6905 20.2147 70.6905 21.0979C70.6905 21.927 71.3484 22.4948 72.3848 22.4948C73.9259 22.5038 74.9352 21.5215 74.9352 20.0074ZM96.5643 18.0158C96.5643 22.5939 93.6263 25.649 89.2014 25.649C88.165 25.649 87.0925 25.4147 86.2274 24.9911V31.1734H81.6853V11.3017H85.7227L86.0471 12.4913C87.1196 11.4189 88.7508 10.8241 90.445 10.8241C94.104 10.8241 96.5643 13.6809 96.5643 18.0158ZM91.878 18.2501C91.878 16.1683 90.7515 14.8075 89.1473 14.8075C87.399 14.8075 86.2364 15.8438 86.2364 17.3939V21.17C86.9754 21.5575 87.8676 21.7918 88.5795 21.7918C90.5352 21.7828 91.878 20.3589 91.878 18.2501ZM103.224 19.9173L102.062 19.5929C99.8897 18.971 97.7809 18.0158 97.7809 15.3121C97.7809 12.6085 99.9528 10.8241 103.242 10.8241C105.117 10.8241 107.37 11.4189 108.884 12.3111L107.397 15.4293C106.234 14.7444 104.756 14.3028 103.684 14.3028C102.945 14.3028 102.404 14.6272 102.404 15.1319C102.404 15.6095 102.819 15.934 103.648 16.1683L104.837 16.4927C107.036 17.1145 109.262 17.9437 109.262 21.0979C109.262 23.8286 106.946 25.64 103.468 25.64C101.539 25.64 98.9795 24.9551 97.078 23.9187L98.6821 20.5301C100.764 21.3953 102.458 21.927 103.468 21.927C104.207 21.927 104.684 21.6026 104.684 21.0348C104.711 20.5121 104.179 20.1787 103.224 19.9173ZM60.0112 5.26364V25.1804H64.5262V5.26364H60.0112ZM57.0282 11.3017H54.3876V10.6439C54.3876 9.31007 55.2798 8.71527 56.4063 8.71527C56.9741 8.71527 57.5959 8.85946 58.2448 9.12983L58.2538 9.10279V5.24561C57.3706 4.97525 56.4784 4.83105 55.6313 4.83105C52.423 4.83105 49.8365 6.73261 49.8365 10.3825V11.3017H47.998V15.1049H49.8365V25.1714H54.3786V15.1049H57.0192V11.3017H57.0282ZM126.719 5.97559V25.1624H125.024L124.835 23.1977C123.664 24.7388 121.663 25.5949 119.293 25.5949C115.228 25.5949 112.525 22.7021 112.525 18.3312C112.525 13.8432 115.508 10.8602 120.032 10.8602C121.789 10.8602 123.574 11.473 124.835 12.4913L124.808 5.97559H126.719ZM124.808 19.3856V14.465C123.61 13.3295 121.789 12.5905 120.194 12.5905C116.814 12.5905 114.507 14.8976 114.507 18.2861C114.507 21.6747 116.598 23.9457 119.68 23.9457C122.78 23.9367 124.808 22.0892 124.808 19.3856ZM142.733 18.7367H130.981C131.198 21.9991 133.415 24.0268 136.578 24.0268C138.173 24.0268 140.057 23.441 141.372 22.4858L142.048 23.8376C140.417 24.9461 138.326 25.5949 136.452 25.5949C132.144 25.5949 129.134 22.7021 129.134 18.178C129.134 13.8071 132.027 10.8602 136.335 10.8602C140.615 10.8602 143.103 14.0594 142.733 18.7367ZM140.895 17.2948C140.895 14.438 139.047 12.5274 136.344 12.5274C133.424 12.5274 131.36 14.4019 131.018 17.2948H140.895ZM149.898 18.8268L148.825 18.4574C146.329 17.5652 145.013 16.6099 145.013 14.6452C145.013 12.3652 146.888 10.8602 149.655 10.8602C151.223 10.8602 153.07 11.4459 154.332 12.3021L153.566 13.744C152.611 12.978 151.069 12.4192 149.754 12.4192C148.123 12.4192 147.014 13.2844 147.014 14.5371C147.014 15.7087 147.933 16.3215 149.628 16.9073L150.7 17.2768C153.35 18.196 154.818 19.2775 154.818 21.4584C154.818 23.9457 152.818 25.5769 149.835 25.5769C148.05 25.5769 145.833 24.901 144.301 23.8826L145.067 22.3776C146.636 23.3329 148.546 23.9457 149.925 23.9457C151.682 23.9457 152.845 22.9274 152.845 21.4584C152.845 20.1877 151.799 19.4757 149.898 18.8268ZM162.055 18.187L159.352 21.0799V25.1804H157.441V5.97559H159.352V18.3672L166.21 11.3017H168.544L163.38 16.7991L168.886 25.1714H166.705L162.055 18.187ZM178.223 24.6487C177.331 25.2345 176.069 25.6039 175.051 25.6039C172.617 25.6039 171.085 24.0358 171.085 21.4854V12.9329V5.97559H172.996V11.2657H177.394V12.9239H172.996V21.4494C172.996 22.9904 173.888 23.9457 175.276 23.9457C175.979 23.9457 176.871 23.7024 177.52 23.2969L178.223 24.6487ZM178.755 18.214C178.755 13.8432 181.675 10.8602 185.982 10.8602C190.353 10.8602 193.246 13.8432 193.246 18.214C193.246 22.648 190.353 25.5949 185.982 25.5949C181.675 25.6039 178.755 22.648 178.755 18.214ZM191.336 18.2501C191.336 14.7714 189.001 12.6806 185.982 12.6806C182.963 12.6806 180.692 14.7714 180.629 18.2501C180.566 21.6657 182.963 23.8196 185.982 23.8196C189.001 23.8196 191.336 21.6657 191.336 18.2501ZM210 18.1239C210 22.6119 206.981 25.6039 202.493 25.6039C200.735 25.6039 198.924 25.0182 197.698 23.9998V31.1644H195.788V11.2927L197.482 11.3017L197.698 13.2664C198.834 11.7253 200.807 10.8692 203.204 10.8692C207.287 10.8602 210 13.7891 210 18.1239ZM208.026 18.187C208.026 14.8345 205.935 12.5905 202.826 12.5905C199.753 12.5905 197.689 14.4019 197.689 17.1145V22.0712C198.888 23.1797 200.708 23.9187 202.303 23.9187C205.719 23.9097 208.026 21.6296 208.026 18.187Z" fill="black"/>
</svg>
