<?xml version="1.0" encoding="iso-8859-1" ?>
<!-- Generator: Adobe Illustrator 18.0.0, SVG Export Plug-In . SVG Version: 6.00 Build 0)  -->
<!DOCTYPE svg PUBLIC "-//W3C//DTD SVG 1.1//EN" "http://www.w3.org/Graphics/SVG/1.1/DTD/svg11.dtd">
<svg version="1.1" id="Capa_1" xmlns="http://www.w3.org/2000/svg" xmlns:xlink="http://www.w3.org/1999/xlink" x="0px" y="0px" width="30px" viewBox="0 0 474.64 474.64" style="enable-background:new 0 0 474.64 474.64;" xml:space="preserve">
  <path style="fill:#020202;" d="M393.644,0H80.997C62.982,0,48.326,14.655,48.326,32.671v409.298
	c0,18.016,14.656,32.671,32.671,32.671h312.646c18.016,0,32.67-14.655,32.67-32.671V32.671C426.314,14.655,411.659,0,393.644,0z
	 M394.315,32.671v116.651H253.32V32.373L394.315,32.671z M80.575,293.318l0.173-111.997h140.573v111.997H80.575z M253.32,181.321
	h140.995v111.997H253.32V181.321z M221.321,32.294v117.028H80.811l0.187-117.324L221.321,32.294z M393.644,442.642l-313.318-0.673
	l0.188-116.651h313.803v116.651C394.315,442.329,394.004,442.642,393.644,442.642z" />
  <g></g>
  <g></g>
  <g></g>
  <g></g>
  <g></g>
  <g></g>
  <g></g>
  <g></g>
  <g></g>
  <g></g>
  <g></g>
  <g></g>
  <g></g>
  <g></g>
  <g></g>
</svg>
