<svg width="29" height="35" viewBox="0 0 29 35" fill="none" xmlns="http://www.w3.org/2000/svg">
<path fill-rule="evenodd" clip-rule="evenodd" d="M1.74727 0H26.6237C27.0866 0.00148138 27.5301 0.186036 27.8575 0.513377C28.1848 0.840718 28.3694 1.28426 28.3709 1.74719V32.8202C28.3709 33.2836 28.1868 33.728 27.8591 34.0557C27.5315 34.3833 27.0871 34.5674 26.6237 34.5674H1.74727C1.5164 34.5674 1.28782 34.5217 1.07474 34.4328C0.86165 34.344 0.668288 34.2138 0.505824 34.0497C0.343361 33.8857 0.215017 33.6911 0.12821 33.4772C0.0414026 33.2632 -0.00214574 33.0342 8.12976e-05 32.8034V1.74719C0.00156268 1.28426 0.186117 0.840718 0.513458 0.513377C0.840799 0.186036 1.28434 0.00148138 1.74727 0ZM27.1404 33.3218C27.2773 33.1839 27.354 32.9976 27.354 32.8034V1.74719C27.354 1.55349 27.2771 1.36773 27.1401 1.23076C27.0031 1.0938 26.8174 1.01685 26.6237 1.01685H1.74727C1.55357 1.01685 1.36781 1.0938 1.23085 1.23076C1.09388 1.36773 1.01694 1.55349 1.01694 1.74719V32.8034C1.01693 32.9976 1.0937 33.1839 1.2305 33.3218C1.36731 33.4597 1.55306 33.5378 1.74727 33.5393H26.6237C26.8179 33.5378 27.0036 33.4597 27.1404 33.3218ZM13.4484 15.6661C13.3188 16.0381 13.2675 16.433 13.2977 16.8258C13.2675 17.2187 13.3188 17.6135 13.4484 17.9856C13.5779 18.3577 13.783 18.699 14.0507 18.9881C14.3184 19.2772 14.643 19.5079 15.004 19.6656C15.3651 19.8233 15.7549 19.9048 16.1489 19.9048C16.5429 19.9048 16.9326 19.8233 17.2937 19.6656C17.6547 19.5079 17.9793 19.2772 18.247 18.9881C18.5147 18.699 18.7198 18.3577 18.8493 17.9856C18.9789 17.6135 19.0302 17.2187 19 16.8258C19.0302 16.433 18.9789 16.0381 18.8493 15.6661C18.7198 15.294 18.5147 14.9527 18.247 14.6636C17.9793 14.3745 17.6547 14.1438 17.2937 13.9861C16.9326 13.8283 16.5429 13.7469 16.1489 13.7469C15.7549 13.7469 15.3651 13.8283 15.004 13.9861C14.643 14.1438 14.3184 14.3745 14.0507 14.6636C13.783 14.9527 13.5779 15.294 13.4484 15.6661ZM16.1573 15.1404C16.8764 15.1404 17.2303 15.8146 17.2303 16.8258H17.2191C17.2191 17.8371 16.8708 18.5112 16.1573 18.5112C15.4438 18.5112 15.0843 17.8539 15.0843 16.8258C15.0843 15.7977 15.4382 15.1404 16.1573 15.1404ZM5.0002 13.8989H3.58447V19.7079H5.32043V15.7753C5.44082 15.6206 5.59069 15.4913 5.76137 15.3948C5.93205 15.2984 6.12016 15.2368 6.31481 15.2135C6.80919 15.2135 7.03953 15.5 7.03953 16.3371V19.7079H8.76987V15.7753C8.8909 15.62 9.04167 15.4903 9.21336 15.3938C9.38505 15.2974 9.57423 15.2361 9.76987 15.2135C10.2586 15.2135 10.489 15.5 10.489 16.3371V19.7753H12.2249V16.1405C12.2249 14.6798 11.6575 13.7809 10.3935 13.7809C10.0355 13.8069 9.68693 13.9079 9.37045 14.0773C9.05398 14.2466 8.77663 14.4806 8.55638 14.7641C8.42441 14.452 8.1978 14.1892 7.90852 14.0128C7.61924 13.8365 7.28188 13.7553 6.94402 13.7809C6.60378 13.7944 6.2701 13.8788 5.96438 14.0287C5.65866 14.1787 5.38766 14.3909 5.16874 14.6517H5.1238L5.0002 13.8989ZM19.4103 13.8989H21.1519L21.9159 16.6629C22.0442 17.1382 22.1726 17.6577 22.3009 18.1772L22.3009 18.1774L22.371 18.4607H22.4159C22.5676 17.8483 22.7193 17.2416 22.871 16.6629L23.6294 13.8989H25.3148L23.4047 19.7528H21.3822L19.4103 13.8989ZM6.51689 2.07304H3.23037C2.95561 2.07448 2.69235 2.1835 2.49702 2.37673C2.30169 2.56996 2.18983 2.83203 2.18542 3.10675V5.35394C2.18542 5.6316 2.29533 5.89797 2.49114 6.09482C2.68694 6.29168 2.95272 6.40302 3.23037 6.40451H6.51689C6.79551 6.40451 7.06273 6.29382 7.25975 6.0968C7.45676 5.89978 7.56745 5.63257 7.56745 5.35394V3.10675C7.56302 2.83106 7.45039 2.56815 7.25385 2.37476C7.05731 2.18138 6.79262 2.07301 6.51689 2.07304ZM6.7079 5.35394C6.7079 5.4046 6.68777 5.45319 6.65195 5.48901C6.61613 5.52483 6.56754 5.54495 6.51689 5.54495H3.23037C3.17971 5.54495 3.13112 5.52483 3.0953 5.48901C3.05948 5.45319 3.03936 5.4046 3.03936 5.35394V3.10675C3.04077 3.05654 3.06135 3.00877 3.09687 2.97325C3.13239 2.93773 3.18016 2.91716 3.23037 2.91574H6.51689C6.56754 2.91574 6.61613 2.93586 6.65195 2.97169C6.68777 3.00751 6.7079 3.05609 6.7079 3.10675V5.35394ZM9.43826 2.07304H12.7248C13.0005 2.07301 13.2652 2.18138 13.4617 2.37476C13.6583 2.56815 13.7709 2.83106 13.7753 3.10675V5.35394C13.7753 5.49191 13.7482 5.62852 13.6954 5.75598C13.6426 5.88344 13.5652 5.99925 13.4676 6.0968C13.3701 6.19436 13.2543 6.27174 13.1268 6.32454C12.9993 6.37733 12.8627 6.40451 12.7248 6.40451H9.43826C9.3003 6.40451 9.16368 6.37733 9.03622 6.32454C8.90876 6.27174 8.79295 6.19436 8.6954 6.0968C8.59784 5.99925 8.52046 5.88344 8.46766 5.75598C8.41487 5.62852 8.3877 5.49191 8.3877 5.35394V3.10675C8.39212 2.83106 8.50475 2.56815 8.70129 2.37476C8.89783 2.18138 9.16253 2.07301 9.43826 2.07304ZM12.8598 5.48901C12.8957 5.45319 12.9158 5.4046 12.9158 5.35394V3.10675C12.9144 3.05654 12.8938 3.00877 12.8583 2.97325C12.8228 2.93773 12.775 2.91716 12.7248 2.91574H9.43826C9.38805 2.91716 9.34028 2.93773 9.30476 2.97325C9.26924 3.00877 9.24866 3.05654 9.24725 3.10675V5.35394C9.24725 5.4046 9.26737 5.45319 9.30319 5.48901C9.33901 5.52483 9.3876 5.54495 9.43826 5.54495H12.7248C12.7754 5.54495 12.824 5.52483 12.8598 5.48901ZM18.9327 2.07304H15.6461C15.3704 2.07301 15.1057 2.18138 14.9092 2.37476C14.7126 2.56815 14.6 2.83106 14.5956 3.10675V5.35394C14.5956 5.63257 14.7063 5.89978 14.9033 6.0968C15.1003 6.29382 15.3675 6.40451 15.6461 6.40451H18.9327C19.2103 6.40302 19.4761 6.29168 19.6719 6.09482C19.8677 5.89797 19.9776 5.6316 19.9776 5.35394V3.10675C19.9732 2.83203 19.8613 2.56996 19.666 2.37673C19.4707 2.1835 19.2074 2.07448 18.9327 2.07304ZM19.1237 5.35394C19.1237 5.37903 19.1187 5.40387 19.1091 5.42704C19.0995 5.45021 19.0855 5.47127 19.0677 5.48901C19.05 5.50675 19.0289 5.52082 19.0058 5.53042C18.9826 5.54001 18.9577 5.54495 18.9327 5.54495H15.6461C15.6211 5.54495 15.5962 5.54001 15.573 5.53042C15.5499 5.52082 15.5288 5.50675 15.5111 5.48901C15.4933 5.47127 15.4793 5.45021 15.4697 5.42704C15.4601 5.40387 15.4551 5.37903 15.4551 5.35394V3.10675C15.4551 3.08167 15.4601 3.05683 15.4697 3.03365C15.4793 3.01048 15.4933 2.98942 15.5111 2.97169C15.5288 2.95395 15.5499 2.93988 15.573 2.93028C15.5962 2.92068 15.6211 2.91574 15.6461 2.91574H18.9327C18.9829 2.91716 19.0306 2.93773 19.0662 2.97325C19.1017 3.00877 19.1223 3.05654 19.1237 3.10675V5.35394ZM21.8483 2.07304H25.1348C25.4105 2.07301 25.6752 2.18138 25.8718 2.37476C26.0683 2.56815 26.1809 2.83106 26.1854 3.10675V5.35394C26.1854 5.63257 26.0747 5.89978 25.8777 6.0968C25.6806 6.29382 25.4134 6.40451 25.1348 6.40451H21.8483C21.5706 6.40302 21.3049 6.29168 21.1091 6.09482C20.9133 5.89797 20.8033 5.6316 20.8033 5.35394V3.10675C20.8077 2.83203 20.9196 2.56996 21.1149 2.37673C21.3103 2.1835 21.5735 2.07448 21.8483 2.07304ZM25.3113 5.42704C25.3209 5.40387 25.3258 5.37903 25.3258 5.35394V3.10675C25.3258 3.05609 25.3057 3.00751 25.2699 2.97169C25.234 2.93586 25.1855 2.91574 25.1348 2.91574H21.8483C21.7981 2.91716 21.7503 2.93773 21.7148 2.97325C21.6793 3.00877 21.6587 3.05654 21.6573 3.10675V5.35394C21.6573 5.4046 21.6774 5.45319 21.7132 5.48901C21.749 5.52483 21.7976 5.54495 21.8483 5.54495H25.1348C25.1599 5.54495 25.1847 5.54001 25.2079 5.53042C25.2311 5.52082 25.2521 5.50675 25.2699 5.48901C25.2876 5.47127 25.3017 5.45021 25.3113 5.42704ZM6.51689 27.8259H3.23037C2.95803 27.8258 2.69642 27.932 2.50124 28.1219C2.30606 28.3118 2.19275 28.5705 2.18542 28.8427V31.0899C2.18542 31.3676 2.29533 31.6339 2.49114 31.8308C2.68694 32.0276 2.95272 32.139 3.23037 32.1405H6.51689C6.79551 32.1405 7.06273 32.0298 7.25975 31.8328C7.45676 31.6357 7.56745 31.3685 7.56745 31.0899V28.8427C7.55869 28.57 7.44415 28.3113 7.24808 28.1215C7.052 27.9318 6.78977 27.8257 6.51689 27.8259ZM6.7079 31.1124C6.7079 31.163 6.68777 31.2116 6.65195 31.2474C6.61613 31.2833 6.56754 31.3034 6.51689 31.3034H3.23037C3.18016 31.302 3.13239 31.2814 3.09687 31.2459C3.06135 31.2103 3.04077 31.1626 3.03936 31.1124V28.8652C3.04077 28.815 3.06135 28.7672 3.09687 28.7317C3.13239 28.6962 3.18016 28.6756 3.23037 28.6742H6.51689C6.56754 28.6742 6.61613 28.6943 6.65195 28.7301C6.68777 28.7659 6.7079 28.8145 6.7079 28.8652V31.1124ZM9.43826 27.8259H12.7248C13.0024 27.8258 13.2688 27.9358 13.4657 28.1316C13.6625 28.3274 13.7739 28.5931 13.7753 28.8708V31.118C13.7753 31.256 13.7482 31.3926 13.6954 31.52C13.6426 31.6475 13.5652 31.7633 13.4676 31.8608C13.3701 31.9584 13.2543 32.0358 13.1268 32.0886C12.9993 32.1414 12.8627 32.1685 12.7248 32.1685H9.43826C9.3003 32.1685 9.16368 32.1414 9.03622 32.0886C8.90876 32.0358 8.79295 31.9584 8.6954 31.8608C8.59784 31.7633 8.52046 31.6475 8.46766 31.52C8.41487 31.3926 8.3877 31.256 8.3877 31.118V28.8708C8.38918 28.5931 8.50052 28.3274 8.69738 28.1316C8.89423 27.9358 9.1606 27.8258 9.43826 27.8259ZM12.8583 31.2459C12.8938 31.2104 12.9144 31.1626 12.9158 31.1124V28.8652C12.9144 28.815 12.8938 28.7672 12.8583 28.7317C12.8228 28.6962 12.775 28.6756 12.7248 28.6742H9.43826C9.38805 28.6756 9.34028 28.6962 9.30476 28.7317C9.26924 28.7672 9.24866 28.815 9.24725 28.8652V31.1124C9.24866 31.1626 9.26924 31.2104 9.30476 31.2459C9.34028 31.2814 9.38805 31.302 9.43826 31.3034H12.7248C12.775 31.302 12.8228 31.2814 12.8583 31.2459ZM18.9327 27.8259H15.6461C15.3685 27.8258 15.1021 27.9358 14.9053 28.1316C14.7084 28.3274 14.5971 28.5931 14.5956 28.8708V31.118C14.5956 31.3966 14.7063 31.6638 14.9033 31.8608C15.1003 32.0579 15.3675 32.1685 15.6461 32.1685H18.9327C19.2103 32.1671 19.4761 32.0557 19.6719 31.8589C19.8677 31.662 19.9776 31.3956 19.9776 31.118V28.8708C19.9776 28.7336 19.9506 28.5977 19.8981 28.4709C19.8455 28.3441 19.7686 28.2289 19.6715 28.1319C19.5745 28.0349 19.4593 27.9579 19.3325 27.9054C19.2058 27.8529 19.0699 27.8259 18.9327 27.8259ZM19.1237 31.1124C19.1223 31.1626 19.1017 31.2104 19.0662 31.2459C19.0306 31.2814 18.9829 31.302 18.9327 31.3034H15.6461C15.6211 31.3034 15.5962 31.2984 15.573 31.2888C15.5499 31.2792 15.5288 31.2652 15.5111 31.2474C15.4933 31.2297 15.4793 31.2086 15.4697 31.1855C15.4601 31.1623 15.4551 31.1375 15.4551 31.1124V28.8652C15.4551 28.8401 15.4601 28.8153 15.4697 28.7921C15.4793 28.7689 15.4933 28.7479 15.5111 28.7301C15.5288 28.7124 15.5499 28.6983 15.573 28.6887C15.5962 28.6791 15.6211 28.6742 15.6461 28.6742H18.9327C18.9829 28.6756 19.0306 28.6962 19.0662 28.7317C19.1017 28.7672 19.1223 28.815 19.1237 28.8652V31.1124ZM21.8483 27.8259H25.1348C25.4125 27.8258 25.6788 27.9358 25.8757 28.1316C26.0725 28.3274 26.1839 28.5931 26.1854 28.8708V31.118C26.1854 31.3966 26.0747 31.6638 25.8777 31.8608C25.6806 32.0579 25.4134 32.1685 25.1348 32.1685H21.8483C21.5706 32.1671 21.3049 32.0557 21.1091 31.8589C20.9133 31.662 20.8033 31.3956 20.8033 31.118V28.8708C20.8033 28.5937 20.9134 28.3279 21.1094 28.1319C21.3054 27.9359 21.5711 27.8259 21.8483 27.8259ZM25.2699 31.2474C25.3057 31.2116 25.3258 31.163 25.3258 31.1124V28.8652C25.3258 28.8145 25.3057 28.7659 25.2699 28.7301C25.234 28.6943 25.1855 28.6742 25.1348 28.6742H21.8483C21.7981 28.6756 21.7503 28.6962 21.7148 28.7317C21.6793 28.7672 21.6587 28.815 21.6573 28.8652V31.1124C21.6587 31.1626 21.6793 31.2104 21.7148 31.2459C21.7503 31.2814 21.7981 31.302 21.8483 31.3034H25.1348C25.1855 31.3034 25.234 31.2833 25.2699 31.2474Z" fill="black"/>
</svg>
