<svg width="29" height="35" viewBox="0 0 29 35" fill="none" xmlns="http://www.w3.org/2000/svg">
<path fill-rule="evenodd" clip-rule="evenodd" d="M1.73035 0H26.5843C27.0417 0 27.4804 0.181702 27.8038 0.505157C28.1273 0.828613 28.309 1.2673 28.309 1.72473V25.1124C28.2494 26.2856 27.7664 27.3974 26.9494 28.2416L21.5056 33.3652C20.6034 34.1314 19.4742 34.5795 18.2921 34.6404H1.72473C1.2673 34.6404 0.828613 34.4587 0.505157 34.1353C0.181702 33.8118 0 33.3731 0 32.9157V1.72473C0.00149536 1.26678 0.184448 0.828094 0.508789 0.504822C0.83313 0.181519 1.2724 0 1.73035 0ZM26.2584 27.4944C26.3521 27.3999 26.4385 27.2985 26.5168 27.191L26.7753 26.8427H21.4607C21.2717 26.8418 21.0844 26.8786 20.9098 26.9509C20.7352 27.0233 20.5768 27.1297 20.4438 27.264C20.1751 27.5344 20.0237 27.8997 20.0225 28.2809V33.1573L20.3596 32.9494C20.5232 32.8563 20.6758 32.7451 20.8146 32.618L26.2584 27.4944ZM27.2191 25.6742C27.266 25.4905 27.2906 25.3019 27.2921 25.1124V1.72473C27.2892 1.53787 27.2137 1.35953 27.0816 1.22739C26.9495 1.09525 26.7711 1.01974 26.5843 1.01685H1.73035C1.54349 1.01974 1.36514 1.09525 1.233 1.22739C1.10089 1.35953 1.02536 1.53787 1.02246 1.72473V32.9157C1.021 33.0096 1.03818 33.1029 1.07309 33.1901C1.108 33.2773 1.15991 33.3566 1.2258 33.4236C1.29166 33.4905 1.37021 33.5436 1.45682 33.5799C1.54346 33.6161 1.63641 33.6348 1.73035 33.6348H18.2921C18.3942 33.6337 18.496 33.6265 18.597 33.6133C18.6738 33.6033 18.7502 33.5899 18.8258 33.573L19.0056 33.5393V28.3034C19.0071 27.6527 19.2662 27.0291 19.7263 26.569C20.1864 26.1089 20.81 25.8498 21.4607 25.8483H27.1798L27.2191 25.6742ZM20 15.5L10 11V20L20 15.5Z" fill="black"/>
</svg>
