<svg xmlns="http://www.w3.org/2000/svg" width="30" height="38" viewBox="0 0 30 38" fill="none" version="1.1">
  <path d="M 27.517604,1.3333333 H 2.6636734 c -0.45794,0 -0.89721,0.18153 -1.22155,0.50482 -0.3243401,0.32329 -0.50730007,0.76196 -0.50879007,1.2199 V 34.249014 c 0,0.4575 0.18170997,0.8962 0.50516007,1.2196 0.32345,0.3235 0.76214,0.5052 1.21956,0.5052 H 19.225504 c 1.182,-0.061 2.3113,-0.5091 3.2135,-1.2753 l 5.4438,-5.1236 c 0.8169,-0.8442 1.2999,-1.956 1.3595,-3.1292 V 3.0580533 c 0,-0.45742 -0.1817,-0.89611 -0.5051,-1.21956 -0.3235,-0.32345 -0.7622,-0.50516 -1.2196,-0.50516 z m -0.0674,27.1909807 c -0.0784,0.1075 -0.1648,0.2089 -0.2584,0.3034 l -5.4439,5.1236 c -0.1388,0.1272 -0.2914,0.2383 -0.455,0.3315 l -0.3371,0.2078 v -4.8764 c 0.0013,-0.3812 0.1527,-0.7465 0.4214,-1.0168 0.1329,-0.1343 0.2913,-0.2408 0.4659,-0.3131 0.1746,-0.0724 0.3619,-0.1092 0.5509,-0.1083 h 5.3146 z m 0.7753,-2.0786 c -0.0016,0.1895 -0.0261,0.3781 -0.0731,0.5618 l -0.0393,0.1741 h -5.7191 c -0.6507,0.0015 -1.2742,0.2607 -1.7343,0.7207 -0.4601,0.4601 -0.7193,1.0837 -0.7207,1.7344 v 5.2359 l -0.1798,0.0338 c -0.1753,0.039 -0.3542,0.0597 -0.5337,0.0617 H 2.6636734 c -0.09391,1e-4 -0.18689,-0.0186 -0.27351,-0.0549 -0.08662,-0.0363 -0.16516,-0.0894 -0.23104,-0.1563 -0.06588,-0.067 -0.11779,-0.1463 -0.15269,-0.2335 -0.03491,-0.0872 -0.05212,-0.1805 -0.05062,-0.2744 V 3.0580533 c 0.00289,-0.18683 0.0784,-0.3652 0.21053,-0.49733 0.13213,-0.13213 0.3105,-0.20764 0.49733,-0.21053 H 27.517604 c 0.1868,0.00289 0.3652,0.0784 0.4973,0.21053 0.1322,0.13213 0.2077,0.3105 0.2106,0.49733 z"
  fill="#ef30a2" />
  <path d="m 5.8041834,21.889514 0.30899,-1.2809 c 0.14916,0.0475 0.30421,0.074 0.46068,0.0787 0.46629,0 0.62359,-0.2866 0.62359,-0.9439 v -5.882 h 1.7303603 v 5.809 c 0,1.2809 -0.4944,2.3539 -2.0899103,2.3539 -0.3499,0.0183 -0.7002,-0.0274 -1.03371,-0.1348 z m 1.25843,-9.7697 c 0.00185,-0.1264 0.02973,-0.2512 0.08189,-0.3664 0.05217,-0.1153 0.1275,-0.2185 0.22132,-0.3034 0.09381,-0.0848 0.20409,-0.1495 0.32397,-0.1898 0.11991,-0.0404 0.24681,-0.0557 0.37281,-0.0448 0.1273,-0.0143 0.2561003,-0.0014 0.3780003,0.0375 0.122,0.039 0.2344,0.1033 0.3298,0.1886 0.0954,0.0854 0.1717,0.1899 0.224,0.3068 0.0523,0.1169 0.0793,0.2435 0.0793,0.3715 0,0.1281 -0.027,0.2547 -0.0793,0.3716 -0.0523,0.1168 -0.1286,0.2214 -0.224,0.3068 -0.0954,0.0853 -0.2078,0.1496 -0.3298,0.1886 -0.1219,0.0389 -0.2507003,0.0517 -0.3780003,0.0375 -0.1279,0.011 -0.2567,-0.0049 -0.37811,-0.0466 -0.12142,-0.0417 -0.23277,-0.1084 -0.32692,-0.1956 -0.09416,-0.0873 -0.16903,-0.1933 -0.21983,-0.3112 -0.05079,-0.1179 -0.07638,-0.2451 -0.07513,-0.3735 z"
  fill="#ef30a2" />
  <path d="m 10.399604,13.861414 h 1.427 l 0.1292,0.5618 h 0.0393 c 0.458,-0.4324 1.0562,-0.6857 1.6854,-0.7135 1.4158,0 2.2866,1.1686 2.2866,2.9719 0,2.0113 -1.1967,3.163 -2.4663,3.163 -0.5257,-0.0184 -1.0243,-0.2376 -1.3933,-0.6124 l 0.0562,0.927 v 1.7303 h -1.7641 z m 3.7529,2.854 c 0,-1.0506 -0.3259,-1.5787 -1.0169,-1.5787 -0.1958,0.0103 -0.387,0.0628 -0.5606,0.154 -0.1736,0.0911 -0.3254,0.2188 -0.445,0.3741 v 2.3989 c 0.254,0.2351 0.5864,0.3673 0.9326,0.3708 0.6067,0 1.0899,-0.5113 1.0899,-1.7191 z"
  fill="#ef30a2" />
  <path d="m 16.736604,20.715314 c 0.0142,-0.254 0.0998,-0.4989 0.2468,-0.7066 0.1471,-0.2077 0.3497,-0.3697 0.5846,-0.4675 v -0.0506 c -0.1654,-0.102 -0.3015,-0.2452 -0.3951,-0.4155 -0.0935,-0.1704 -0.1413,-0.3621 -0.1386,-0.5564 0.0124,-0.2254 0.0779,-0.4446 0.1912,-0.6399 0.1132,-0.1952 0.271,-0.361 0.4605,-0.4837 v -0.0449 c -0.2415,-0.1729 -0.4386,-0.4004 -0.5753,-0.664 -0.1367,-0.2637 -0.2091,-0.5559 -0.2112,-0.8529 0,-1.4045 1.1629,-2.118 2.4213,-2.118 0.3072,-0.0029 0.6127,0.0445 0.9045,0.1405 h 2.1405 v 1.2921 h -0.9382 c 0.1312,0.2352 0.199,0.5004 0.1966,0.7697 0,1.3483 -1.0225,1.9663 -2.3034,1.9663 -0.242,-0.0022 -0.4824,-0.0401 -0.7135,-0.1124 -0.0679,0.0488 -0.1221,0.1142 -0.1575,0.1899 -0.0354,0.0758 -0.0508,0.1593 -0.0447,0.2427 0,0.2921 0.2359,0.4326 0.8708,0.4326 h 0.9775 c 1.4382,0 2.2472,0.4382 2.2472,1.4831 0,1.2191 -1.264,2.1012 -3.2753,2.1012 -1.3989,-0.0225 -2.4887,-0.4607 -2.4887,-1.5057 z m 4.0786,-0.3202 c 0,-0.3708 -0.3202,-0.455 -0.8933,-0.455 h -0.6179 c -0.2755,0.0119 -0.5513,-0.0127 -0.8203,-0.0731 -0.0923,0.0634 -0.1691,0.1469 -0.2245,0.2442 -0.0555,0.0973 -0.0882,0.2059 -0.0957,0.3176 0,0.4439 0.5169,0.6742 1.2978,0.6742 0.7809,0 1.3539,-0.3034 1.3539,-0.7079 z m -0.6854,-4.5562 c 0,-0.6236 -0.3371,-0.955 -0.7977,-0.955 -0.4607,0 -0.7978,0.3258 -0.7978,0.955 0,0.6293 0.3315,0.9944 0.7865,0.9944 0.4551,0 0.7978,-0.3539 0.7978,-0.9944 z"
  fill="#ef30a2" />
</svg>
