<svg width="29" height="35" viewBox="0 0 29 35" fill="none" xmlns="http://www.w3.org/2000/svg">
<path fill-rule="evenodd" clip-rule="evenodd" d="M26.5843 0H1.73034C1.27239 -2.41366e-06 0.833126 0.181529 0.508786 0.504816C0.184446 0.828103 0.00148683 1.26678 0 1.72472V32.9157C0 33.3731 0.181711 33.8118 0.505158 34.1353C0.828606 34.4587 1.2673 34.6404 1.72472 34.6404H18.2921C19.4742 34.5795 20.6034 34.1314 21.5056 33.3652L26.9494 28.2416C27.7664 27.3974 28.2494 26.2856 28.309 25.1124V1.72472C28.309 1.26729 28.1273 0.828606 27.8038 0.505159C27.4804 0.181711 27.0417 0 26.5843 0ZM26.5169 27.191C26.4385 27.2985 26.3521 27.3999 26.2584 27.4944L20.8146 32.618C20.6758 32.7451 20.5232 32.8563 20.3596 32.9494L20.0225 33.1573V28.2809C20.0238 27.8997 20.1751 27.5344 20.4438 27.264C20.5768 27.1297 20.7352 27.0233 20.9098 26.9509C21.0844 26.8786 21.2717 26.8418 21.4607 26.8427H26.7753L26.5169 27.191ZM27.2921 25.1124C27.2906 25.3019 27.266 25.4905 27.2191 25.6742L27.1798 25.8483H21.4607C20.81 25.8498 20.1864 26.1089 19.7263 26.569C19.2662 27.0291 19.0071 27.6527 19.0056 28.3034V33.5393L18.8258 33.573C18.6506 33.6121 18.4717 33.6328 18.2921 33.6348H1.73034C1.63643 33.6348 1.54345 33.6162 1.45683 33.5799C1.37021 33.5436 1.29167 33.4905 1.22579 33.4235C1.15991 33.3566 1.108 33.2773 1.0731 33.1901C1.03819 33.1029 1.02098 33.0096 1.02247 32.9157V1.72472C1.02537 1.53788 1.10088 1.35951 1.23301 1.22739C1.36513 1.09526 1.5435 1.01975 1.73034 1.01685H26.5843C26.7711 1.01975 26.9495 1.09526 27.0816 1.22739C27.2137 1.35951 27.2892 1.53788 27.2921 1.72472V25.1124Z" fill="#EF30A2"/>
<path d="M5 20.304V12.144H6.44L6.56 12.732H6.608C6.84 12.524 7.1 12.352 7.388 12.216C7.684 12.072 7.988 12 8.3 12C8.66 12 8.984 12.072 9.272 12.216C9.56 12.36 9.804 12.564 10.004 12.828C10.204 13.092 10.356 13.412 10.46 13.788C10.572 14.156 10.628 14.568 10.628 15.024C10.628 15.536 10.556 15.992 10.412 16.392C10.276 16.784 10.088 17.12 9.848 17.4C9.616 17.672 9.348 17.88 9.044 18.024C8.748 18.168 8.44 18.24 8.12 18.24C7.864 18.24 7.616 18.188 7.376 18.084C7.136 17.972 6.912 17.816 6.704 17.616L6.764 18.564V20.304H5ZM7.712 16.8C8.016 16.8 8.276 16.664 8.492 16.392C8.708 16.112 8.816 15.664 8.816 15.048C8.816 13.976 8.472 13.44 7.784 13.44C7.44 13.44 7.1 13.62 6.764 13.98V16.416C6.924 16.56 7.084 16.66 7.244 16.716C7.404 16.772 7.56 16.8 7.712 16.8Z" fill="#EF30A2"/>
<path d="M11.2789 18.096V12.144H12.7189L12.8389 12.9H12.8869C13.1429 12.66 13.4229 12.452 13.7269 12.276C14.0309 12.092 14.3869 12 14.7949 12C15.4429 12 15.9109 12.212 16.1989 12.636C16.4949 13.06 16.6429 13.648 16.6429 14.4V18.096H14.8789V14.628C14.8789 14.196 14.8189 13.9 14.6989 13.74C14.5869 13.58 14.4029 13.5 14.1469 13.5C13.9229 13.5 13.7309 13.552 13.5709 13.656C13.4109 13.752 13.2349 13.892 13.0429 14.076V18.096H11.2789Z" fill="#EF30A2"/>
<path d="M19.6701 20.628C19.3181 20.628 18.9901 20.596 18.6861 20.532C18.3901 20.476 18.1261 20.388 17.8941 20.268C17.6701 20.148 17.4941 19.992 17.3661 19.8C17.2381 19.608 17.1741 19.38 17.1741 19.116C17.1741 18.636 17.4581 18.236 18.0261 17.916V17.868C17.8661 17.764 17.7341 17.632 17.6301 17.472C17.5261 17.312 17.4741 17.108 17.4741 16.86C17.4741 16.644 17.5381 16.44 17.6661 16.248C17.7941 16.048 17.9541 15.88 18.1461 15.744V15.696C17.9381 15.552 17.7501 15.348 17.5821 15.084C17.4221 14.812 17.3421 14.5 17.3421 14.148C17.3421 13.788 17.4101 13.476 17.5461 13.212C17.6821 12.94 17.8621 12.716 18.0861 12.54C18.3181 12.356 18.5821 12.22 18.8781 12.132C19.1741 12.044 19.4821 12 19.8021 12C20.1541 12 20.4621 12.048 20.7261 12.144H22.8981V13.428H21.9501C22.0061 13.516 22.0501 13.628 22.0821 13.764C22.1221 13.9 22.1421 14.048 22.1421 14.208C22.1421 14.552 22.0821 14.852 21.9621 15.108C21.8421 15.356 21.6741 15.564 21.4581 15.732C21.2501 15.892 21.0021 16.012 20.7141 16.092C20.4341 16.172 20.1301 16.212 19.8021 16.212C19.5701 16.212 19.3301 16.172 19.0821 16.092C19.0021 16.156 18.9461 16.22 18.9141 16.284C18.8821 16.348 18.8661 16.432 18.8661 16.536C18.8661 16.688 18.9301 16.8 19.0581 16.872C19.1941 16.944 19.4301 16.98 19.7661 16.98H20.7261C21.4621 16.98 22.0221 17.1 22.4061 17.34C22.7981 17.572 22.9941 17.956 22.9941 18.492C22.9941 18.804 22.9141 19.088 22.7541 19.344C22.6021 19.608 22.3821 19.832 22.0941 20.016C21.8061 20.208 21.4581 20.356 21.0501 20.46C20.6421 20.572 20.1821 20.628 19.6701 20.628ZM19.8021 15.144C20.0341 15.144 20.2261 15.064 20.3781 14.904C20.5381 14.736 20.6181 14.484 20.6181 14.148C20.6181 13.836 20.5381 13.6 20.3781 13.44C20.2261 13.272 20.0341 13.188 19.8021 13.188C19.5701 13.188 19.3741 13.268 19.2141 13.428C19.0621 13.588 18.9861 13.828 18.9861 14.148C18.9861 14.484 19.0621 14.736 19.2141 14.904C19.3741 15.064 19.5701 15.144 19.8021 15.144ZM19.9461 19.524C20.3461 19.524 20.6741 19.452 20.9301 19.308C21.1861 19.172 21.3141 19 21.3141 18.792C21.3141 18.608 21.2341 18.484 21.0741 18.42C20.9221 18.356 20.6981 18.324 20.4021 18.324H19.7901C19.5821 18.324 19.4141 18.316 19.2861 18.3C19.1581 18.292 19.0461 18.276 18.9501 18.252C18.7341 18.444 18.6261 18.64 18.6261 18.84C18.6261 19.064 18.7461 19.232 18.9861 19.344C19.2261 19.464 19.5461 19.524 19.9461 19.524Z" fill="#EF30A2"/>
</svg>
