<?xml version="1.0" ?><svg id="Layer_1" style="enable-background:new 0 0 512 512;" version="1.1" width="30px" height="30px" viewBox="0 0 512 512" xml:space="preserve" xmlns="http://www.w3.org/2000/svg" xmlns:xlink="http://www.w3.org/1999/xlink"><style type="text/css">
	.st0{fill:#F1F2F1;}
	.st1{fill:#D3D3D0;}
	.st2{fill:#6535E9;}
	.st3{fill:#4E1ED4;}
	.st4{fill:#491CC4;}
	.st5{fill:#FFFFFF;}
</style><title/><g id="Layer_2"><g id="Layer_1-2"><path class="st0" d="M363.8,103.7v304.6c0,14.8-12,26.9-26.9,26.9l0,0H140.5c-14.8,0-26.9-12-26.9-26.9l0,0V163.9l87.2-87.1h136.1    C351.8,76.8,363.8,88.8,363.8,103.7z"/><path class="st1" d="M113.7,163.9l87.1-87.1v60.4c0,14.8-12,26.8-26.8,26.8L113.7,163.9z"/><polygon class="st1" points="363.8,309.1 363.8,400.4 196.6,400.4 140.2,385.5 113.7,385.5 113.7,324.1 140.2,324.1 140.2,324     196.6,309.1   "/><path class="st2" d="M196.6,298.3h194.1c11.9,0,21.6,9.7,21.6,21.6l0,0V368c0,11.9-9.7,21.6-21.6,21.6l0,0H196.6l0,0V298.3    L196.6,298.3z"/><polygon class="st3" points="196.6,389.6 140.2,374.6 140.2,313.2 196.6,298.3   "/><rect class="st2" height="61.4" width="40.6" x="99.7" y="313.3"/><polygon class="st4" points="99.7,313.3 113.7,305 113.7,313.3   "/><polygon class="st4" points="99.7,374.6 113.7,383 113.7,374.6   "/><path class="st5" d="M247.2,374.3v-9.8l20.2-35.5h-20.2v-13.1H284V328l-18.7,33.2H284v13.1L247.2,374.3z"/><path class="st5" d="M290.8,374.3v-58.4h14.9v58.4L290.8,374.3z"/><path class="st5" d="M315.6,374.3v-58.4h19.1c2.3,0,4.4,0.1,6.2,0.2c1.6,0.1,3.2,0.4,4.8,0.7c1.3,0.3,2.6,0.8,3.8,1.4    c1.1,0.6,2.2,1.3,3.1,2.1c2.2,1.8,4,4.1,5.1,6.7c1.2,2.8,1.8,5.8,1.8,8.8c0,2.9-0.5,5.8-1.7,8.5c-1,2.5-2.5,4.8-4.5,6.7    c-2,1.9-4.3,3.2-6.9,3.9c-3.3,0.8-6.7,1.2-10.2,1.1h-6.4v18.3L315.6,374.3z M329.8,342.9h6c6.2,0,9.3-2.3,9.3-6.9    c0-2.5-0.8-4.2-2.3-5.3c-1.5-1.1-4.1-1.6-7.6-1.6h-5.4L329.8,342.9z"/></g></g></svg>
