<svg
   xmlns="http://www.w3.org/2000/svg"
   viewBox="0 0 360 149.8"
   width="360"
   height="149.8">/>
   <style>.st0{fill-rule:evenodd;clip-rule:evenodd;fill:#635bff}</style>
    <path
   class="st0"
   d="m 360,77.4 c 0,-25.6 -12.4,-45.8 -36.1,-45.8 -23.8,0 -38.2,20.2 -38.2,45.6 0,30.1 17,45.3 41.4,45.3 11.9,0 20.9,-2.7 27.7,-6.5 V 96 c -6.8,3.4 -14.6,5.5 -24.5,5.5 -9.7,0 -18.3,-3.4 -19.4,-15.2 h 48.9 c 0,-1.3 0.2,-6.5 0.2,-8.9 z m -49.4,-9.5 c 0,-11.3 6.9,-16 13.2,-16 6.1,0 12.6,4.7 12.6,16 z M 247.1,31.6 c -9.8,0 -16.1,4.6 -19.6,7.8 l -1.3,-6.2 h -22 v 116.6 l 25,-5.3 0.1,-28.3 c 3.6,2.6 8.9,6.3 17.7,6.3 17.9,0 34.2,-14.4 34.2,-46.1 -0.1,-29 -16.6,-44.8 -34.1,-44.8 z m -6,68.9 c -5.9,0 -9.4,-2.1 -11.8,-4.7 l -0.1,-37.1 c 2.6,-2.9 6.2,-4.9 11.9,-4.9 9.1,0 15.4,10.2 15.4,23.3 0,13.4 -6.2,23.4 -15.4,23.4 z M 169.8,25.7 194.9,20.3 V 0 l -25.1,5.3 z m 0,7.6 h 25.1 v 87.5 h -25.1 z m -26.9,7.4 -1.6,-7.4 h -21.6 v 87.5 h 25 V 61.5 c 5.9,-7.7 15.9,-6.3 19,-5.2 v -23 c -3.2,-1.2 -14.9,-3.4 -20.8,7.4 z m -50,-29.1 -24.4,5.2 -0.1,80.1 c 0,14.8 11.1,25.7 25.9,25.7 8.2,0 14.2,-1.5 17.5,-3.3 V 99 c -3.2,1.3 -19,5.9 -19,-8.9 V 54.6 h 19 V 33.3 h -19 z M 25.3,58.7 c 0,-3.9 3.2,-5.4 8.5,-5.4 7.6,0 17.2,2.3 24.8,6.4 V 36.2 C 50.3,32.9 42.1,31.6 33.8,31.6 13.5,31.6 0,42.2 0,59.9 0,87.5 38,83.1 38,95 c 0,4.6 -4,6.1 -9.6,6.1 -8.3,0 -18.9,-3.4 -27.3,-8 v 23.8 c 9.3,4 18.7,5.7 27.3,5.7 20.8,0 35.1,-10.3 35.1,-28.2 C 63.4,64.6 25.3,69.9 25.3,58.7 Z" />
</svg>
