<?xml version="1.0" ?><svg id="Layer_1" style="enable-background:new 0 0 512 512;" version="1.1" width="30px" height="30px" viewBox="0 0 512 512" xml:space="preserve" xmlns="http://www.w3.org/2000/svg" xmlns:xlink="http://www.w3.org/1999/xlink"><style type="text/css">
	.st0{fill:#F1F1F2;}
	.st1{fill:#D0D3D2;}
	.st2{fill:#E93535;}
	.st3{fill:#D41E1F;}
	.st4{fill:#C41C1C;}
	.st5{fill:#FFFFFF;}
</style><title/><g id="Layer_2"><g id="Layer_1-2"><path class="st0" d="M363.8,103.7v304.6c0,14.8-12,26.9-26.9,26.9l0,0H140.5c-14.8,0-26.9-12-26.9-26.9l0,0V163.9l87.2-87.1h136.1    C351.8,76.8,363.8,88.8,363.8,103.7z"/><path class="st1" d="M113.7,163.9l87.1-87.1v60.4c0,14.8-12,26.8-26.8,26.8L113.7,163.9z"/><polygon class="st1" points="363.8,309.1 363.8,400.4 196.6,400.4 140.2,385.5 113.7,385.5 113.7,324.1 140.2,324.1 140.2,324     196.6,309.1   "/><path class="st2" d="M196.6,298.3h194.1c11.9,0,21.6,9.7,21.6,21.6l0,0V368c0,11.9-9.7,21.6-21.6,21.6l0,0H196.6l0,0V298.3    L196.6,298.3z"/><polygon class="st3" points="196.6,389.6 140.2,374.6 140.2,313.2 196.6,298.3   "/><rect class="st2" height="61.4" width="40.6" x="99.7" y="313.3"/><polygon class="st4" points="99.7,313.3 113.7,305 113.7,313.3   "/><polygon class="st4" points="99.7,374.6 113.7,383 113.7,374.6   "/><path class="st5" d="M204.7,374.3v-58.4h14.9v21.9h19.1v-21.9h14.9v58.4h-14.9V351h-19.1v23.4L204.7,374.3z"/><path class="st5" d="M270.7,374.3v-45.3h-11.6v-13.1h38v13.1h-11.6v45.3L270.7,374.3z"/><path class="st5" d="M302.6,374.3v-58.4h19.2l11.6,38.5l11.6-38.5h19.3v58.4h-13.7l0.5-43.9l-12.6,43.9h-9.9l-12.6-43.8l0.4,43.9    L302.6,374.3z"/><path class="st5" d="M374.2,374.3v-58.4h14.9v45.3h17.3v13.1L374.2,374.3z"/></g></g></svg>
