<svg width="0" height="0" class="hidden">
<symbol xmlns="http://www.w3.org/2000/svg" id="kb" viewBox="0 0 24 24"><path clip-rule="evenodd" d="M12 2 3.333 7.055v10.099L12 22.21l8.667-5.056V7.055L12 2ZM5.287 7.46 8.644 5.5 12 3.543l6.713 3.916-6.69 3.889-6.736-3.889Zm7.38 5.03 6.667-3.85v7.749l-6.667 3.889v-7.787Zm-8 3.899V8.64l6.667 3.849v7.788l-6.668-3.89Z" fill="#000" fill-rule="evenodd" /> </symbol>
<symbol xmlns="http://www.w3.org/2000/svg" id="search" viewBox="0 0 36 36"><path d="M7,16 C7,11.038 11.037,7 16,7 C20.963,7 25,11.038 25,16 C25,20.962 20.963,25 16,25 C11.037,25 7,20.962 7,16 L7,16 Z M32.707,31.293 L24.448,23.034 C26.039,21.125 27,18.673 27,16 C27,9.935 22.065,5 16,5 C9.935,5 5,9.935 5,16 C5,22.065 9.935,27 16,27 C18.673,27 21.125,26.039 23.034,24.448 L31.293,32.707 L32.707,31.293 Z" fill-rule="evenodd" /> </symbol>
<symbol xmlns="http://www.w3.org/2000/svg" id="payment" viewBox="0 0 36 36"><path d="M30,27 L6,27 C5.448,27 5,26.552 5,26 L5,17 L31,17 L31,26 C31,26.552 30.552,27 30,27 M6,9 L30,9 C30.552,9 31,9.448 31,10 L31,13 L5,13 L5,10 C5,9.448 5.448,9 6,9 M30,7 L6,7 C4.346,7 3,8.346 3,10 L3,26 C3,27.654 4.346,29 6,29 L30,29 C31.654,29 33,27.654 33,26 L33,10 C33,8.346 31.654,7 30,7" fill-rule="evenodd" /> </symbol>
<symbol xmlns="http://www.w3.org/2000/svg" id="arrow-down" viewBox="0 0 36 36"><polygon fill-rule="evenodd" points="29.293 17.293 19 27.586 19 5 17 5 17 27.586 6.707 17.293 5.293 18.707 18 31.414 30.707 18.707" /> </symbol>
<symbol xmlns="http://www.w3.org/2000/svg" id="circle-bottom" viewBox="0 0 36 36"><g fill-rule="evenodd">  <path d="M31,18 C31,10.832 25.168,5 18,5 C10.832,5 5,10.832 5,18 C5,25.168 10.832,31 18,31 C25.168,31 31,25.168 31,18 M3,18 C3,9.729 9.729,3 18,3 C26.271,3 33,9.729 33,18 C33,26.271 26.271,33 18,33 C9.729,33 3,26.271 3,18" />  <polygon points="11.293 16.707 12.707 15.293 18 20.586 23.293 15.293 24.707 16.707 18 23.414" />  </g> </symbol>
<symbol xmlns="http://www.w3.org/2000/svg" id="configuration" viewBox="0 0 36 36"><g fill-rule="evenodd">  <path d="M18,21 C16.346,21 15,19.654 15,18 C15,16.346 16.346,15 18,15 C19.654,15 21,16.346 21,18 C21,19.654 19.654,21 18,21 M18,13 C15.243,13 13,15.243 13,18 C13,20.757 15.243,23 18,23 C20.757,23 23,20.757 23,18 C23,15.243 20.757,13 18,13" />  <path d="M27.3276,27.0566 L27.0566,27.3276 L23.5896,25.0836 L23.0406,25.4556 C22.0356,26.1366 20.9146,26.6006 19.7076,26.8316 L19.0576,26.9566 L18.1916,30.9996 L17.8086,30.9996 L16.9416,26.9566 L16.2916,26.8316 C15.0846,26.6006 13.9636,26.1366 12.9586,25.4556 L12.4106,25.0836 L8.9426,27.3276 L8.6726,27.0566 L10.9156,23.5896 L10.5436,23.0406 C9.8626,22.0356 9.3986,20.9136 9.1666,19.7076 L9.0416,19.0576 L4.9996,18.1916 L4.9996,17.8086 L9.0416,16.9426 L9.1666,16.2916 C9.3986,15.0856 9.8626,13.9646 10.5436,12.9586 L10.9156,12.4106 L8.6726,8.9436 L8.9426,8.6716 L12.4106,10.9156 L12.9586,10.5436 C13.9636,9.8636 15.0846,9.3996 16.2916,9.1676 L16.9416,9.0426 L17.8086,4.9996 L18.1916,4.9996 L19.0576,9.0426 L19.7076,9.1676 C20.9146,9.3996 22.0356,9.8636 23.0406,10.5436 L23.5896,10.9156 L27.0566,8.6716 L27.3276,8.9436 L25.0846,12.4106 L25.4556,12.9586 C26.1376,13.9646 26.6006,15.0856 26.8326,16.2916 L26.9576,16.9426 L30.9996,17.8086 L30.9996,18.1916 L26.9576,19.0576 L26.8326,19.7076 C26.6006,20.9136 26.1376,22.0356 25.4556,23.0406 L25.0846,23.5896 L27.3276,27.0566 Z M32.9996,19.8086 L32.9996,16.1916 L28.6506,15.2596 C28.3936,14.2506 27.9986,13.2936 27.4716,12.4036 L29.8856,8.6716 L27.3276,6.1156 L23.5966,8.5296 C22.7066,8.0016 21.7496,7.6076 20.7406,7.3496 L19.8086,2.9996 L16.1916,2.9996 L15.2596,7.3496 C14.2496,7.6076 13.2936,8.0016 12.4036,8.5296 L8.6726,6.1156 L6.1146,8.6716 L8.5286,12.4036 C8.0016,13.2936 7.6066,14.2506 7.3486,15.2596 L2.9996,16.1916 L2.9996,19.8086 L7.3486,20.7406 C7.6066,21.7486 8.0016,22.7056 8.5286,23.5966 L6.1146,27.3276 L8.6726,29.8846 L12.4036,27.4706 C13.2936,27.9976 14.2496,28.3926 15.2596,28.6506 L16.1916,32.9996 L19.8086,32.9996 L20.7406,28.6506 C21.7496,28.3926 22.7066,27.9976 23.5966,27.4706 L27.3276,29.8846 L29.8856,27.3276 L27.4716,23.5966 C27.9986,22.7056 28.3936,21.7486 28.6506,20.7406 L32.9996,19.8086 Z" />  </g> </symbol>
<symbol xmlns="http://www.w3.org/2000/svg" id="lock-off" viewBox="0 0 36 36"><g fill-rule="evenodd">  <path d="M11.7725 8.8125L9.9955 7.8965C9.6595 8.5475 9.4045 9.2385 9.2375 9.9475L11.1845 10.4045C11.3135 9.8545 11.5115 9.3195 11.7725 8.8125L11.7725 8.8125zM11.2241 6.0908L12.7301 7.4068C13.1041 6.9788 13.5301 6.5958 13.9951 6.2688L12.8461 4.6328C12.2491 5.0508 11.7041 5.5418 11.2241 6.0908M24.8086 10.3789L26.7536 9.9139C26.5846 9.2069 26.3286 8.5179 25.9886 7.8659L24.2146 8.7899C24.4776 9.2959 24.6776 9.8299 24.8086 10.3789M17.1387 5.0532L16.8927 3.0692C16.1657 3.1582 15.4517 3.3382 14.7707 3.6022L15.4927 5.4672C16.0217 5.2622 16.5757 5.1232 17.1387 5.0532M24.7549 6.0659C24.2729 5.5179 23.7259 5.0289 23.1279 4.6129L21.9849 6.2539C22.4499 6.5779 22.8769 6.9599 23.2549 7.3879L24.7549 6.0659zM18.8359 5.0498C19.3979 5.1178 19.9529 5.2558 20.4849 5.4578L21.1979 3.5898C20.5149 3.3288 19.7999 3.1518 19.0759 3.0648L18.8359 5.0498z" />  <polygon points="25 14.023 27 14.023 27 12.076 25 12.076" />  <path d="M18,23.5 C18.828,23.5 19.5,22.828 19.5,22 C19.5,21.172 18.828,20.5 18,20.5 C17.172,20.5 16.5,21.172 16.5,22 C16.5,22.828 17.172,23.5 18,23.5" />  <polygon points="17 27 19 27 19 25 17 25" />  <polygon points="27 33 29 33 29 31 27 31" />  <polygon points="11 33 13 33 13 31 11 31" />  <polygon points="23 33 25 33 25 31 23 31" />  <polygon points="19 33 21 33 21 31 19 31" />  <polygon points="15 33 17.001 33 17.001 31 15 31" />  <polygon points="7 33 9.001 33 9.001 31 7 31" />  <polygon points="7 29 9 29 9 27 7 27" />  <polygon points="7 21 9 21 9 19 7 19" />  <polygon points="7 25 9 25 9 23 7 23" />  <polygon points="7 17 9 17 9 15 7 15" />  <polygon points="15 17 17 17 17 15 15 15" />  <polygon points="11 17 13 17 13 15 11 15" />  <polygon points="23 17 25 17 25 15 23 15" />  <polygon points="19 17 21 17 21 15 19 15" />  <polygon points="27 17 29 17 29 15 27 15" />  <polygon points="27 29 29 29 29 27 27 27" />  <polygon points="27 21 29 21 29 19 27 19" />  <polygon points="27 25 29 25 29 23 27 23" />  <polygon points="9 14.052 11 14.052 11 12.105 9 12.105" />  </g> </symbol>
<symbol xmlns="http://www.w3.org/2000/svg" id="user" viewBox="0 0 36 36"><path d="M6.1489,31 L29.8659,31 C28.9469,28.423 24.7499,26.945 24.7019,26.93 C20.1909,25.863 20.0059,23.309 19.9999,23.021 L19.9999,19.343 L20.5549,19.067 C21.9049,18.396 21.9389,17.185 21.9379,17.049 L21.9349,16.378 L22.5539,16.105 C22.7179,15.989 23.0089,15.3 23.1659,14.93 L23.3109,14.592 C23.2749,14.575 23.0639,14.35 22.9479,14.268 L22.3489,13.841 L23.0479,11.696 C23.4589,10.035 23.2839,8.605 22.5499,7.666 C22.1689,7.179 21.6629,7 21.1619,7 L20.6129,7 L20.3179,6.437 C20.3129,6.429 19.4429,5.078 18.0419,5.078 C17.4239,5.082 15.5859,5.212 14.5679,5.877 C13.3689,6.661 12.1199,8.31 12.9809,11.778 L13.6699,13.873 L13.0319,14.29 C12.8809,14.396 12.7099,14.61 12.7319,14.674 C13.1429,15.896 13.4309,16.093 13.4619,16.111 L14.1019,16.377 L14.0669,17.065 C14.0659,17.188 14.0969,18.398 15.4449,19.067 L15.9999,19.343 L15.9999,23 C15.9949,23.306 15.8159,25.862 11.2159,26.954 C10.0019,27.369 6.9249,28.854 6.1489,31 L6.1489,31 Z M31.9999,33 L3.9999,33 L3.9999,32 C3.9999,27.334 10.4089,25.125 10.6829,25.033 C13.8199,24.284 14.0089,22.949 14.0099,22.936 L14.0039,20.538 C12.6399,19.628 12.2339,18.339 12.1169,17.592 C11.4859,17.034 11.1059,16.11 10.8369,15.312 C10.5399,14.429 10.8879,13.668 11.3329,13.151 L11.0599,12.317 C9.8349,7.397 12.0479,5.109 13.4739,4.178 C15.1699,3.069 17.7509,3.029 18.0389,3.028 C19.8919,3.028 21.1359,4.191 21.6859,4.841 C22.6139,4.985 23.4829,5.512 24.1249,6.334 C24.7809,7.172 25.7619,9.056 24.9699,12.248 L24.6739,13.158 C25.1509,13.711 25.5249,14.519 25.1429,15.393 L25.0079,15.708 C24.7259,16.375 24.4159,17.109 23.8899,17.587 C23.7719,18.333 23.3679,19.625 21.9999,20.538 L21.9999,22.999 L21.9999,22.998 C22.0079,22.998 22.2369,24.298 25.2299,25.009 C25.5909,25.125 31.9999,27.334 31.9999,32 L31.9999,33 Z" fill-rule="evenodd" /> </symbol>
<symbol xmlns="http://www.w3.org/2000/svg" id="account" viewBox="0 0 24 24"><path clip-rule="evenodd" d="M11.667 1.333 17 4.381v5.32l5 2.667v6.43l-5.302 3.409-5.031-2.683-5.032 2.683-5.302-3.408v-6.431l5-2.667v-5.32l5.334-3.048Zm-4 4.514v3.867L11 11.62V7.513L7.667 5.847Zm4.666 1.666v4.106l3.334-1.905V5.846l-3.334 1.667ZM11 13.88l-3.667 1.956v4.489L11 18.368v-4.489Zm-8.333.038L6 15.822v4.392L2.667 18.07v-4.154Zm9.666 4.451V13.88L16 15.835v4.488l-3.667-1.955Zm5 1.846 3.334-2.143v-4.154l-3.334 1.905v4.392ZM8.413 4.729l3.254 1.627 3.254-1.627-3.254-1.86-3.255 1.86Zm-1.735 9.944-3.299-1.885 3.61-1.925 3.299 1.885-3.61 1.925Zm9.978 0 3.298-1.885-3.61-1.925-3.298 1.885 3.61 1.925Z" fill="#000" fill-rule="evenodd" /> </symbol>
<symbol xmlns="http://www.w3.org/2000/svg" id="add-document" viewBox="0 0 36 36"><g fill-rule="evenodd">  <path d="M6.9996,3.0003 L6.9996,33.0003 L29.0006,33.0003 L29.0006,11.5863 L20.4136,3.0003 L6.9996,3.0003 Z M9.0006,5.0003 L19.0006,5.0003 L19.0006,13.0003 L27.0006,13.0003 L27.0006,31.0003 L9.0006,31.0003 L9.0006,5.0003 Z M20.9996,6.4143 L25.5856,11.0003 L20.9996,11.0003 L20.9996,6.4143 Z" />  <polygon points="19 16 17 16 17 20 13 20 13 22 17 22 17 26 19 26 19 22 23 22 23 20 19 20" />  </g> </symbol>
<symbol xmlns="http://www.w3.org/2000/svg" id="home" viewBox="0 0 36 36"><g fill-rule="evenodd">  <polygon points="18 4.826 4.476 13.148 5.524 14.851 18 7.174 30.476 14.851 31.524 13.148" />  <polygon points="25 27 21 27 21 19 15 19 15 27 11 27 11 15 9 15 9 29 17 29 17 21 19 21 19 29 27 29 27 15 25 15" />  </g> </symbol>
<symbol xmlns="http://www.w3.org/2000/svg" id="alert" viewBox="0 0 36 36"><g fill-rule="evenodd">  <polygon points="17 21 19 21 19 12 17 12" />  <path d="M18,22.5 C17.172,22.5 16.5,23.172 16.5,24 C16.5,24.828 17.172,25.5 18,25.5 C18.828,25.5 19.5,24.828 19.5,24 C19.5,23.172 18.828,22.5 18,22.5 L18,22.5 Z" />  <path d="M5.4141,18 L18.0001,5.414 L30.5861,18 L18.0001,30.586 L5.4141,18 Z M18.0001,2.586 L2.5861,18 L18.0001,33.414 L33.4141,18 L18.0001,2.586 Z" />  </g> </symbol>
<symbol xmlns="http://www.w3.org/2000/svg" id="more-horizontal" viewBox="0 0 24 24"><path clip-rule="evenodd" d="M14 11.972a2 2 0 1 1-4 0 2 2 0 0 1 4 0ZM7 12a2 2 0 1 1-4 0 2 2 0 0 1 4 0Zm14 0a2 2 0 1 1-4 0 2 2 0 0 1 4 0Z" fill="#000" fill-rule="evenodd" /> </symbol>
<symbol xmlns="http://www.w3.org/2000/svg" id="chevron-down" viewBox="0 0 36 36"><polygon fill-rule="evenodd" points="9.293 14.707 10.707 13.293 18 20.586 25.293 13.293 26.707 14.707 18 23.414" /> </symbol>
<symbol xmlns="http://www.w3.org/2000/svg" id="registry" viewBox="0 0 36 36"><g fill-rule="evenodd">  <path d="M7 29L13 29 13 23 7 23 7 29zM5 31L15 31 15 21 5 21 5 31zM7 15L13 15 13 9 7 9 7 15zM5 17L15 17 15 7 5 7 5 17zM21 29L27 29 27 23 21 23 21 29zM19 31L29 31 29 21 19 21 19 31zM19.7573 12L24.0003 16.243 28.2423 12 24.0003 7.757 19.7573 12zM24.0003 19.071L16.9293 12 24.0003 4.929 31.0703 12 24.0003 19.071z" />  </g> </symbol>
<symbol xmlns="http://www.w3.org/2000/svg" id="tag" viewBox="0 0 36 36"><g fill-rule="evenodd">  <path d="M19.0596,7 C18.7926,7 18.5416,7.104 18.3536,7.292 L6.9346,18.691 C6.7446,18.881 6.6406,19.134 6.6416,19.403 C6.6426,19.672 6.7496,19.925 6.9416,20.113 L15.6346,28.626 C16.0126,28.996 16.6616,28.995 17.0356,28.624 L28.7016,17.143 C28.8916,16.956 28.9996,16.696 28.9996,16.43 L28.9996,8 C28.9996,7.448 28.5516,7 27.9996,7 L19.0596,7 Z M16.3336,30.911 C15.5446,30.911 14.7996,30.607 14.2356,30.056 L5.5426,21.542 C4.9656,20.977 4.6456,20.22 4.6416,19.412 C4.6386,18.604 4.9506,17.846 5.5216,17.275 L16.9396,5.877 C17.5056,5.312 18.2586,5 19.0596,5 L27.9996,5 C29.6546,5 30.9996,6.346 30.9996,8 L30.9996,16.43 C30.9996,17.229 30.6736,18.008 30.1046,18.568 L18.4386,30.05 C17.8736,30.605 17.1266,30.911 16.3336,30.911 L16.3336,30.911 Z" />  <path d="M24,11 C23.449,11 23,11.448 23,12 C23,12.552 23.449,13 24,13 C24.551,13 25,12.552 25,12 C25,11.448 24.551,11 24,11 M24,15 C22.346,15 21,13.654 21,12 C21,10.346 22.346,9 24,9 C25.654,9 27,10.346 27,12 C27,13.654 25.654,15 24,15" />  </g> </symbol>
<symbol xmlns="http://www.w3.org/2000/svg" id="circle-left" viewBox="0 0 36 36"><g fill-rule="evenodd">  <path d="M18,31 C25.168,31 31,25.168 31,18 C31,10.832 25.168,5 18,5 C10.832,5 5,10.832 5,18 C5,25.168 10.832,31 18,31 M18,3 C26.271,3 33,9.729 33,18 C33,26.271 26.271,33 18,33 C9.729,33 3,26.271 3,18 C3,9.729 9.729,3 18,3" />  <polygon points="19.293 11.293 20.707 12.707 15.414 18 20.707 23.293 19.293 24.707 12.586 18" />  </g> </symbol>
<symbol xmlns="http://www.w3.org/2000/svg" id="show" viewBox="0 0 36 36"><g fill-rule="evenodd">  <path d="M18.0474,16.5 C17.2194,16.5 16.5474,17.172 16.5474,18 C16.5474,18.828 17.2194,19.5 18.0474,19.5 C18.8754,19.5 19.5474,18.828 19.5474,18 C19.5474,17.172 18.8754,16.5 18.0474,16.5" />  <path d="M18.0474,23 C15.2904,23 13.0474,20.757 13.0474,18 C13.0474,15.243 15.2904,13 18.0474,13 C20.8044,13 23.0474,15.243 23.0474,18 C23.0474,20.757 20.8044,23 18.0474,23 M18.0474,11 C14.1874,11 11.0474,14.141 11.0474,18 C11.0474,21.859 14.1874,25 18.0474,25 C21.9074,25 25.0474,21.859 25.0474,18 C25.0474,14.141 21.9074,11 18.0474,11" />  <path d="M18.0474,27 C12.1774,27 6.8994,23.314 5.0984,18 C6.8994,12.686 12.1774,9 18.0474,9 C23.9174,9 29.1954,12.686 30.9964,18 C29.1954,23.314 23.9174,27 18.0474,27 L18.0474,27 Z M33.0024,17.703 C31.0434,11.401 24.8934,7 18.0474,7 C11.2014,7 5.0514,11.401 3.0924,17.703 L3.0004,18 L3.0924,18.297 C5.0514,24.599 11.2014,29 18.0474,29 C24.8934,29 31.0434,24.599 33.0024,18.297 L33.0944,18 L33.0024,17.703 Z" />  </g> </symbol>
<symbol xmlns="http://www.w3.org/2000/svg" id="mistake" viewBox="0 0 36 36"><g fill-rule="evenodd">  <polygon points="22.243 12.343 18 16.586 13.757 12.343 12.343 13.757 16.586 18 12.343 22.243 13.757 23.657 18 19.414 22.243 23.657 23.657 22.243 19.414 18 23.657 13.757" />  <path d="M18,31 C10.832,31 5,25.168 5,18 C5,10.832 10.832,5 18,5 C25.168,5 31,10.832 31,18 C31,25.168 25.168,31 18,31 M18,3 C9.729,3 3,9.729 3,18 C3,26.271 9.729,33 18,33 C26.271,33 33,26.271 33,18 C33,9.729 26.271,3 18,3" />  </g> </symbol>
<symbol xmlns="http://www.w3.org/2000/svg" id="properties" viewBox="0 0 36 36"><g fill-rule="evenodd">  <polygon points="14 11 29 11 29 9 14 9" />  <polygon points="14 19 29 19 29 17 14 17" />  <polygon points="14 27 29 27 29 25 14 25" />  <polygon points="8 20.414 5.293 17.707 6.707 16.293 8 17.586 11.293 14.293 12.707 15.707" />  <polygon points="8 12.414 5.293 9.707 6.707 8.293 8 9.586 11.293 6.293 12.707 7.707" />  <polygon points="8 28.414 5.293 25.707 6.707 24.293 8 25.586 11.293 22.293 12.707 23.707" />  </g> </symbol>
<symbol xmlns="http://www.w3.org/2000/svg" id="collapse-up" viewBox="0 0 36 36"><g fill-rule="evenodd">  <path d="M17.9287,11 L17.9997,10.929 L18.0717,11 L17.9287,11 Z M8.8077,17.293 L10.2217,18.707 L16.9997,11.929 L16.9997,31 L18.9997,31 L18.9997,11.929 L25.7787,18.707 L27.1927,17.293 L17.9997,8.101 L8.8077,17.293 Z" />  <polygon points="7 7 29 7 29 5 7 5" />  </g> </symbol>
<symbol xmlns="http://www.w3.org/2000/svg" id="chevron-up" viewBox="0 0 36 36"><polygon fill-rule="evenodd" points="26.707 21.293 25.293 22.707 18 15.414 10.707 22.707 9.293 21.293 18 12.586" /> </symbol>
<symbol xmlns="http://www.w3.org/2000/svg" id="blank" viewBox="0 0 36 36"><g fill-rule="evenodd">  <polygon points="16 5 16 7 27.586 7 13.293 21.293 14.707 22.707 29 8.414 29 20 31 20 31 5" />  <polygon points="23 29 7 29 7 13 18 13 18 11 5 11 5 31 25 31 25 18 23 18" />  </g> </symbol>
<symbol xmlns="http://www.w3.org/2000/svg" id="ready" viewBox="0 0 36 36"><g fill-rule="evenodd">  <path d="M18,5 C10.832,5 5,10.832 5,18 C5,25.168 10.832,31 18,31 C25.168,31 31,25.168 31,18 C31,10.832 25.168,5 18,5 M18,33 C9.729,33 3,26.271 3,18 C3,9.729 9.729,3 18,3 C26.271,3 33,9.729 33,18 C33,26.271 26.271,33 18,33" />  <polygon points="16 23.414 11.293 18.707 12.707 17.293 16 20.586 23.293 13.293 24.707 14.707" />  </g> </symbol>
<symbol xmlns="http://www.w3.org/2000/svg" id="lock" viewBox="0 0 36 36"><g fill-rule="evenodd">  <path d="M27,30 C27,30.551 26.552,31 26,31 L10,31 C9.448,31 9,30.551 9,30 L9,18 C9,17.449 9.448,17 10,17 L26,17 C26.552,17 27,17.449 27,18 L27,30 Z M18,5 C21.859,5 25,8.14 25,12 L25,15 L11,15 L11,12 C11,8.14 14.141,5 18,5 L18,5 Z M27,15.184 L27,12 C27,7.038 22.963,3 18,3 C13.037,3 9,7.038 9,12 L9,15.184 C7.839,15.598 7,16.698 7,18 L7,30 C7,31.654 8.346,33 10,33 L26,33 C27.654,33 29,31.654 29,30 L29,18 C29,16.698 28.161,15.598 27,15.184 L27,15.184 Z" />  <path d="M18,20.5 C17.172,20.5 16.5,21.172 16.5,22 C16.5,22.443 16.695,22.836 17,23.111 L17,27 L19,27 L19,23.111 C19.305,22.836 19.5,22.443 19.5,22 C19.5,21.172 18.828,20.5 18,20.5" />  </g> </symbol>
<symbol xmlns="http://www.w3.org/2000/svg" id="circle-dismiss" viewBox="0 0 36 36"><g fill-rule="evenodd">  <polygon points="23.293 11.293 18 16.586 12.707 11.293 11.293 12.707 16.586 18 11.293 23.293 12.707 24.707 18 19.414 23.293 24.707 24.707 23.293 19.414 18 24.707 12.707" />  <path d="M18,31 C10.832,31 5,25.168 5,18 C5,10.832 10.832,5 18,5 C25.168,5 31,10.832 31,18 C31,25.168 25.168,31 18,31 M18,3 C9.729,3 3,9.729 3,18 C3,26.271 9.729,33 18,33 C26.271,33 33,26.271 33,18 C33,9.729 26.271,3 18,3" />  </g> </symbol>
<symbol xmlns="http://www.w3.org/2000/svg" id="collapse-down" viewBox="0 0 36 36"><g fill-rule="evenodd">  <path d="M18.0713,25 L18.0003,25.071 L17.9283,25 L18.0713,25 Z M27.1923,18.707 L25.7783,17.293 L19.0003,24.071 L19.0003,5 L17.0003,5 L17.0003,24.071 L10.2213,17.293 L8.8073,18.707 L18.0003,27.899 L27.1923,18.707 Z" />  <polygon points="7 31 29 31 29 29 7 29" />  </g> </symbol>
<symbol xmlns="http://www.w3.org/2000/svg" id="chevron-right" viewBox="0 0 36 36"><polygon fill-rule="evenodd" points="14.707 26.707 13.293 25.293 20.586 18 13.293 10.707 14.707 9.293 23.414 18" /> </symbol>
<symbol xmlns="http://www.w3.org/2000/svg" id="link" viewBox="0 0 36 36"><g fill-rule="evenodd">  <path d="M27.1318,7.333 C24.4028,4.604 19.9618,4.604 17.2328,7.333 L12.9898,11.576 C11.8428,12.723 11.1288,14.248 10.9778,15.871 C10.8228,17.541 11.2708,19.211 12.2378,20.576 C12.4818,20.919 12.7278,21.213 12.9888,21.475 C13.7848,22.271 14.7778,22.868 15.8608,23.202 C16.5498,23.415 17.2548,23.519 17.9518,23.518 C19.7808,23.518 21.5598,22.804 22.8888,21.475 L23.9498,20.414 L22.5358,19 L21.4748,20.061 C20.1648,21.371 18.2388,21.842 16.4498,21.291 C15.6668,21.049 14.9778,20.635 14.4038,20.061 C14.2218,19.879 14.0478,19.668 13.8698,19.418 C13.1778,18.443 12.8588,17.249 12.9688,16.056 C13.0768,14.896 13.5868,13.808 14.4038,12.99 L18.6468,8.747 C20.5958,6.798 23.7688,6.798 25.7178,8.747 C26.6568,9.687 27.1748,10.942 27.1748,12.283 C27.1748,13.623 26.6568,14.878 25.7178,15.818 L27.1318,17.232 C28.4488,15.915 29.1748,14.157 29.1748,12.283 C29.1748,10.408 28.4488,8.65 27.1318,7.333" />  <path d="M25.0107,16.5254 C24.2147,15.7294 23.2217,15.1324 22.1387,14.7984 C19.6417,14.0284 16.9477,14.6894 15.1107,16.5254 L14.0507,17.5864 L15.4647,19.0004 L16.5247,17.9394 C17.8357,16.6294 19.7587,16.1554 21.5497,16.7094 C22.3337,16.9514 23.0217,17.3644 23.5957,17.9394 C23.7777,18.1214 23.9527,18.3314 24.1307,18.5824 C24.8217,19.5564 25.1417,20.7514 25.0317,21.9444 C24.9237,23.1034 24.4137,24.1924 23.5957,25.0104 L19.3537,29.2534 C17.4047,31.2024 14.2317,31.2024 12.2817,29.2534 C11.3427,28.3134 10.8247,27.0574 10.8247,25.7174 C10.8247,24.3774 11.3427,23.1214 12.2817,22.1824 L10.8677,20.7684 C9.5507,22.0854 8.8247,23.8424 8.8247,25.7174 C8.8247,27.5924 9.5507,29.3504 10.8677,30.6674 C12.2327,32.0314 14.0257,32.7134 15.8177,32.7134 C17.6107,32.7134 19.4027,32.0314 20.7677,30.6674 L25.0107,26.4244 C26.1567,25.2774 26.8717,23.7524 27.0227,22.1294 C27.1777,20.4594 26.7297,18.7894 25.7617,17.4244 C25.5177,17.0814 25.2717,16.7874 25.0107,16.5254" />  </g> </symbol>
<symbol xmlns="http://www.w3.org/2000/svg" id="key" viewBox="0 0 36 36"><path d="M8,21 C6.346,21 5,19.654 5,18 C5,16.346 6.346,15 8,15 C9.654,15 11,16.346 11,18 C11,19.654 9.654,21 8,21 L8,21 Z M33,17 L12.899,17 C12.434,14.721 10.414,13 8,13 C5.243,13 3,15.243 3,18 C3,20.757 5.243,23 8,23 C10.414,23 12.434,21.279 12.899,19 L25,19 L25,23 L27,23 L27,19 L29,19 L29,23 L31,23 L31,19 L33,19 L33,17 Z" fill-rule="evenodd" /> </symbol>
<symbol xmlns="http://www.w3.org/2000/svg" id="arrow-right" viewBox="0 0 36 36"><polygon fill-rule="evenodd" points="18.707 5.293 17.293 6.707 27.586 17 5 17 5 19 27.586 19 17.293 29.293 18.707 30.707 31.414 18" /> </symbol>
<symbol xmlns="http://www.w3.org/2000/svg" id="log-out" viewBox="0 0 36 36"><g fill-rule="evenodd">  <path d="M28.1631,13.7905 C27.0391,11.0755 24.9251,8.9615 22.2101,7.8375 L21.4441,9.6855 C23.6651,10.6045 25.3951,12.3345 26.3151,14.5555 C27.2351,16.7765 27.2351,19.2235 26.3151,21.4435 C24.4161,26.0285 19.1381,28.2145 14.5561,26.3145 C12.3351,25.3945 10.6041,23.6655 9.6841,21.4445 C8.7651,19.2235 8.7651,16.7765 9.6841,14.5565 C10.6051,12.3345 12.3351,10.6045 14.5561,9.6855 L13.7901,7.8375 C11.0761,8.9615 8.9621,11.0755 7.8371,13.7905 C6.7131,16.5045 6.7131,19.4955 7.8371,22.2095 C8.9611,24.9245 11.0751,27.0385 13.7901,28.1625 C15.1621,28.7305 16.5851,28.9995 17.9851,28.9995 C22.3041,28.9995 26.4101,26.4405 28.1631,22.2095 C29.2871,19.4955 29.2871,16.5045 28.1631,13.7905" />  <polygon points="17 18 19 18 19 5 17 5" />  </g> </symbol>
<symbol xmlns="http://www.w3.org/2000/svg" id="group" viewBox="0 0 36 36"><g fill-rule="evenodd">  <path d="M4.8774,27 L23.1324,27 C22.3064,25.614 20.0084,24.548 19.0924,24.232 C15.4554,23.373 15.0454,21.379 15.0114,21.154 L15.0004,21.003 L15.0004,17.895 L15.6304,17.645 C16.8514,17.158 16.7644,16.393 16.7634,16.386 L16.6384,15.607 L17.3654,15.304 C17.4044,15.268 17.5774,15.064 17.9134,14.315 C17.8684,14.255 17.7984,14.185 17.7704,14.163 L17.1894,13.725 L17.8304,11.881 C18.1344,10.639 18.0094,9.353 17.4614,8.651 C17.1974,8.314 16.8544,8 16.5174,8 L15.9664,8 L15.6724,7.655 C15.6704,7.653 15.0354,6.766 14.0284,6.766 C13.5514,6.769 12.1334,6.916 11.3624,7.421 C10.4574,8.013 9.5174,9.292 10.1784,11.953 L10.7744,13.773 L10.1364,14.196 C10.0934,14.228 10.0314,14.292 9.9984,14.339 C10.1754,14.816 10.5154,15.233 10.6504,15.308 L11.4284,15.632 L11.2414,16.388 C11.2324,16.494 11.2244,17.188 12.3694,17.644 L13.0004,17.894 L12.9884,21.151 C12.9554,21.376 12.5524,23.373 8.8194,24.259 C7.9814,24.553 5.7004,25.615 4.8774,27 L4.8774,27 Z M25.0004,29 L3.0004,29 L3.0004,28 C3.0004,24.39 7.8954,22.539 8.4774,22.34 C10.5884,21.834 10.8954,21.057 11.0004,20.847 L11.0004,19.199 C9.8114,18.515 9.3684,17.523 9.2664,16.76 C8.7184,16.278 8.2894,15.536 8.0804,14.916 C7.8304,14.176 8.0854,13.536 8.4414,13.083 L8.2574,12.521 C7.2064,8.3 9.3144,6.401 10.2674,5.777 C11.6724,4.858 13.7894,4.827 14.0254,4.826 C15.5324,4.826 16.5564,5.734 17.0414,6.29 C17.8034,6.429 18.5104,6.867 19.0364,7.54 C19.5834,8.239 20.4024,9.807 19.7454,12.45 L19.5164,13.114 C19.9054,13.644 20.0924,14.325 19.7984,14.997 C19.5254,15.62 19.2044,16.289 18.7404,16.739 C18.6424,17.505 18.2004,18.509 17.0004,19.199 L17.0004,20.87 C17.0754,21.01 17.3384,21.816 19.4304,22.313 C20.1054,22.539 25.0004,24.389 25.0004,28 L25.0004,29 Z" />  <path d="M33,29 L28,29 L28,27 L30.672,27 C29.782,25.622 27.317,24.555 26.333,24.238 C22.523,23.401 22.062,21.514 22.01,21.145 L22,21.003 L22,17.895 L22.63,17.645 C23.845,17.16 23.854,16.383 23.851,16.296 L23.826,15.586 L24.486,15.294 C24.643,15.191 24.916,14.646 25.069,14.327 C25.025,14.276 24.965,14.219 24.913,14.181 L24.301,13.734 L24.982,11.861 C25.416,10.223 24.956,9.155 24.642,8.745 C24.337,8.349 23.917,8 23.491,8 L22.962,8 L22.665,7.684 C22.642,7.651 21.984,6.802 20.88,6.767 C20.799,6.783 20.692,6.852 20.656,6.879 L19.312,5.413 C19.843,4.929 20.57,4.839 20.71,4.824 L20.814,4.822 C22.399,4.822 23.483,5.733 23.99,6.279 C24.854,6.414 25.651,6.897 26.228,7.647 C27.158,8.859 27.392,10.571 26.886,12.466 L26.654,13.098 C27.077,13.635 27.278,14.33 26.953,15.022 C26.63,15.709 26.295,16.358 25.813,16.785 C25.682,17.549 25.2,18.522 24,19.202 L24,20.874 C24.073,20.994 24.578,21.807 26.855,22.31 C27.563,22.532 33,24.375 33,28 L33,29 Z" />  </g> </symbol>
<symbol xmlns="http://www.w3.org/2000/svg" id="settings" viewBox="0 0 24 24"><path clip-rule="evenodd" d="M10.667 6.667c0-.736.598-1.334 1.333-1.334A1.335 1.335 0 0 1 12 8a1.335 1.335 0 0 1-1.333-1.333Zm3.905.666h6.095V6h-6.095A2.664 2.664 0 0 0 12 4c-1.24 0-2.274.853-2.572 2H3.333v1.333h6.095a2.664 2.664 0 0 0 2.572 2c1.24 0 2.274-.853 2.572-2ZM14.667 12c0-.735.598-1.333 1.333-1.333s1.333.598 1.333 1.333-.598 1.333-1.333 1.333A1.335 1.335 0 0 1 14.667 12ZM16 14.667c1.24 0 2.274-.854 2.572-2h2.095v-1.334h-2.095a2.664 2.664 0 0 0-2.572-2c-1.24 0-2.274.854-2.572 2H3.333v1.334h10.095a2.664 2.664 0 0 0 2.572 2Zm-9.333 2.666C6.667 16.598 7.265 16 8 16a1.335 1.335 0 0 1 0 2.667 1.335 1.335 0 0 1-1.333-1.334ZM8 20c1.24 0 2.274-.853 2.572-2h10.095v-1.333H10.572a2.664 2.664 0 0 0-2.572-2c-1.24 0-2.274.853-2.572 2H3.333V18h2.095A2.664 2.664 0 0 0 8 20Z" fill="#000" fill-rule="evenodd" /> </symbol>
<symbol xmlns="http://www.w3.org/2000/svg" id="circle-top" viewBox="0 0 36 36"><g fill-rule="evenodd">  <polygon points="24.707 19.293 23.293 20.707 18 15.414 12.707 20.707 11.293 19.293 18 12.586" />  <path d="M18,5 C10.832,5 5,10.832 5,18 C5,25.168 10.832,31 18,31 C25.168,31 31,25.168 31,18 C31,10.832 25.168,5 18,5 M18,33 C9.729,33 3,26.271 3,18 C3,9.729 9.729,3 18,3 C26.271,3 33,9.729 33,18 C33,26.271 26.271,33 18,33" />  </g> </symbol>
<symbol xmlns="http://www.w3.org/2000/svg" id="editing" viewBox="0 0 36 36"><g fill-rule="evenodd">  <path d="M29.082,8.8701 L27.946,10.0061 L26.178,8.2381 L27.314,7.1021 L29.082,8.8701 Z M15.91,21.7981 L14.111,22.3351 L13.771,21.9951 L14.368,20.2551 L15.91,21.7981 Z M23.928,10.4881 L24.764,9.6521 L26.532,11.4201 L25.696,12.2561 L23.928,10.4881 Z M24.282,13.6701 L17.447,20.5061 L15.678,18.7371 L22.514,11.9021 L24.282,13.6701 Z M10.45,25.5141 L17.316,23.4651 L30.673,10.1071 C31.355,9.4251 31.355,8.3151 30.673,7.6331 L28.552,5.5121 C27.891,4.8501 26.738,4.8491 26.077,5.5121 L12.735,18.8531 L10.45,25.5141 Z" />  <polygon points="29 29 7 29 7 7 22 7 22 5 5 5 5 31 31 31 31 14 29 14" />  </g> </symbol>
<symbol xmlns="http://www.w3.org/2000/svg" id="plus" viewBox="0 0 36 36"><polygon fill-rule="evenodd" points="31 17 19 17 19 5 17 5 17 17 5 17 5 19 17 19 17 31 19 31 19 19 31 19" /> </symbol>
<symbol xmlns="http://www.w3.org/2000/svg" id="info" viewBox="0 0 36 36"><g fill-rule="evenodd">  <path d="M18,13.5 C18.828,13.5 19.5,12.828 19.5,12 C19.5,11.172 18.828,10.5 18,10.5 C17.172,10.5 16.5,11.172 16.5,12 C16.5,12.828 17.172,13.5 18,13.5" />  <path d="M18,31 C10.832,31 5,25.168 5,18 C5,10.832 10.832,5 18,5 C25.168,5 31,10.832 31,18 C31,25.168 25.168,31 18,31 M18,3 C9.729,3 3,9.729 3,18 C3,26.271 9.729,33 18,33 C26.271,33 33,26.271 33,18 C33,9.729 26.271,3 18,3" />  <polygon points="19 15 15 15 15 17 17 17 17 25 15 25 15 27 21 27 21 25 19 25" />  </g> </symbol>
<symbol xmlns="http://www.w3.org/2000/svg" id="copy" viewBox="0 0 36 36"><g fill-rule="evenodd">  <path d="M14.9997,3.0003 L14.9997,7.0003 L17.0007,7.0003 L17.0007,5.0003 L24.9997,5.0003 L24.9997,11.0003 L30.9997,11.0003 L30.9997,25.0003 L24.9997,25.0003 L24.9997,26.9993 L32.9997,26.9993 L32.9997,9.5853 L26.4147,3.0003 L14.9997,3.0003 Z M27.0007,6.4143 L29.5857,8.9993 L27.0007,8.9993 L27.0007,6.4143 Z" />  <path d="M4.9998,8.9997 L4.9998,32.9997 L22.9998,32.9997 L22.9998,15.5857 L16.4148,8.9997 L4.9998,8.9997 Z M6.9998,11.0007 L14.9998,11.0007 L14.9998,16.9997 L20.9998,16.9997 L20.9998,31.0007 L6.9998,31.0007 L6.9998,11.0007 Z M17.0008,12.4147 L19.5858,14.9997 L17.0008,14.9997 L17.0008,12.4147 Z" />  </g> </symbol>
<symbol xmlns="http://www.w3.org/2000/svg" id="reload" viewBox="0 0 36 36"><g fill-rule="evenodd">  <path d="M16 13L10.651 13C13.015 9.609 17.501 8.185 21.473 9.831 23.651 10.733 25.364 12.427 26.296 14.601L28.134 13.813C26.995 11.157 24.901 9.086 22.239 7.983 17.377 5.97 11.887 7.717 9 11.871L9 6 7 6 7 15 16 15 16 13zM20 21L20 23 25.599 23C23.292 26.598 18.667 28.151 14.585 26.461 12.364 25.541 10.634 23.812 9.714 21.59L7.867 22.356C8.991 25.07 11.104 27.185 13.819 28.309 15.191 28.877 16.613 29.146 18.014 29.146 21.538 29.146 24.92 27.439 27 24.509L27 30 29 30 29 21 20 21z" />  </g> </symbol>
<symbol xmlns="http://www.w3.org/2000/svg" id="refresh" viewBox="0 0 36 36"><path d="M20,15 L29,15 L29,6 L27,6 L27,11.686 C24.105,7.561 18.633,5.83 13.79,7.837 C8.187,10.158 5.516,16.605 7.837,22.209 C9.59,26.441 13.696,29 18.015,29 C19.415,29 20.838,28.731 22.21,28.163 C24.925,27.038 27.039,24.923 28.162,22.209 L26.314,21.444 C25.396,23.665 23.666,25.395 21.444,26.315 C16.862,28.215 11.584,26.028 9.685,21.444 C8.765,19.223 8.765,16.776 9.685,14.556 C10.604,12.334 12.335,10.605 14.556,9.685 C18.584,8.017 23.145,9.504 25.481,13 L20,13 L20,15 Z" fill-rule="evenodd" /> </symbol>
<symbol xmlns="http://www.w3.org/2000/svg" id="hide" viewBox="0 0 36 36"><path d="M18.0474,27 C15.8624,27 13.7604,26.488 11.8884,25.573 L13.8634,23.598 C15.0324,24.474 16.4774,25 18.0474,25 C21.9074,25 25.0474,21.859 25.0474,18 C25.0474,16.43 24.5214,14.985 23.6454,13.816 L25.9904,11.471 C28.2964,13.058 30.0884,15.321 30.9964,18 C29.1954,23.314 23.9174,27 18.0474,27 L18.0474,27 Z M13.0474,18 C13.0474,15.243 15.2904,13 18.0474,13 C19.0644,13 20.0094,13.309 20.8004,13.833 L18.1254,16.508 C18.0994,16.506 18.0744,16.5 18.0474,16.5 C17.2194,16.5 16.5474,17.172 16.5474,18 C16.5474,18.027 16.5534,18.052 16.5554,18.078 L13.8804,20.753 C13.3564,19.962 13.0474,19.017 13.0474,18 L13.0474,18 Z M23.0474,18 C23.0474,20.757 20.8044,23 18.0474,23 C17.0304,23 16.0854,22.691 15.2944,22.167 L17.9694,19.492 C17.9954,19.494 18.0204,19.5 18.0474,19.5 C18.8754,19.5 19.5474,18.828 19.5474,18 C19.5474,17.973 19.5414,17.948 19.5394,17.922 L22.2144,15.247 C22.7384,16.038 23.0474,16.983 23.0474,18 L23.0474,18 Z M5.0984,18 C6.8994,12.686 12.1774,9 18.0474,9 C20.2324,9 22.3344,9.512 24.2064,10.427 L22.2314,12.402 C21.0624,11.526 19.6174,11 18.0474,11 C14.1874,11 11.0474,14.141 11.0474,18 C11.0474,19.57 11.5734,21.015 12.4494,22.184 L10.1044,24.529 C7.7984,22.942 6.0064,20.679 5.0984,18 L5.0984,18 Z M33.0024,17.703 C32.0314,14.579 30.0284,11.924 27.4224,10.039 L30.7544,6.707 L29.3404,5.293 L25.6814,8.952 C23.3934,7.71 20.7784,7 18.0474,7 C11.2014,7 5.0514,11.401 3.0924,17.703 L3.0004,18 L3.0924,18.297 C4.0634,21.421 6.0664,24.076 8.6724,25.961 L5.3404,29.293 L6.7544,30.707 L10.4134,27.048 C12.7014,28.29 15.3164,29 18.0474,29 C24.8934,29 31.0434,24.599 33.0024,18.297 L33.0944,18 L33.0024,17.703 Z" fill-rule="evenodd" /> </symbol>
<symbol xmlns="http://www.w3.org/2000/svg" id="image" viewBox="0 0 36 36"><g fill-rule="evenodd">  <path d="M7,29 L29,29 L29,25 L7,25 L7,29 Z M7,23 L29,23 L29,7 L7,7 L7,23 Z M5,31 L31,31 L31,5 L5,5 L5,31 Z" />  <polygon points="15.012 13.037 18.781 19.633 21.917 16.497 25.219 20.625 26.781 19.375 22.083 13.503 19.219 16.367 14.988 8.963 9.126 19.515 10.874 20.485" />  </g> </symbol>
<symbol xmlns="http://www.w3.org/2000/svg" id="images" viewBox="0 0 36 36"><g fill-rule="evenodd">  <path d="M7,23 L23,23 L23,21 L7,21 L7,23 Z M7,19 L23,19 L23,7 L7,7 L7,19 Z M5,25 L25,25 L25,5 L5,5 L5,25 Z" />  <polygon points="13.021 11.979 15.843 16.681 17.91 14.357 20.183 17.578 21.817 16.422 18.09 11.143 16.157 13.319 12.979 8.021 8.132 16.503 9.868 17.497" />  <polygon points="27 9 27 11 29 11 29 29 11 29 11 27 9 27 9 31 31 31 31 9" />  </g> </symbol>
<symbol xmlns="http://www.w3.org/2000/svg" id="satisfied" viewBox="0 0 36 36"><g fill-rule="evenodd">  <path d="M18,5 C10.832,5 5,10.832 5,18 C5,25.168 10.832,31 18,31 C25.168,31 31,25.168 31,18 C31,10.832 25.168,5 18,5 M18,33 C9.729,33 3,26.271 3,18 C3,9.729 9.729,3 18,3 C26.271,3 33,9.729 33,18 C33,26.271 26.271,33 18,33" />  <path d="M13.5 14C13.5 14.828 12.828 15.5 12 15.5 11.172 15.5 10.5 14.828 10.5 14 10.5 13.172 11.172 12.5 12 12.5 12.828 12.5 13.5 13.172 13.5 14M25.5 14C25.5 14.828 24.828 15.5 24 15.5 23.172 15.5 22.5 14.828 22.5 14 22.5 13.172 23.172 12.5 24 12.5 24.828 12.5 25.5 13.172 25.5 14M18 27.0049C16.833 27.0049 15.667 26.7749 14.556 26.3149 12.335 25.3949 10.605 23.6649 9.685 21.4439L11.533 20.6789C12.249 22.4059 13.594 23.7519 15.321 24.4669 18.89 25.9459 22.99 24.2449 24.467 20.6789L26.315 21.4439C25.395 23.6649 23.665 25.3949 21.444 26.3149 20.334 26.7749 19.167 27.0049 18 27.0049" />  </g> </symbol>
<symbol xmlns="http://www.w3.org/2000/svg" id="play" viewBox="0 0 24 24"><path clip-rule="evenodd" d="M6 19.14V4.86L18.693 12 6 19.14Z" fill="#000" fill-rule="evenodd" /> </symbol>
<symbol xmlns="http://www.w3.org/2000/svg" id="circle-right" viewBox="0 0 36 36"><g fill-rule="evenodd">  <path d="M18,5 C10.832,5 5,10.832 5,18 C5,25.168 10.832,31 18,31 C25.168,31 31,25.168 31,18 C31,10.832 25.168,5 18,5 M18,33 C9.729,33 3,26.271 3,18 C3,9.729 9.729,3 18,3 C26.271,3 33,9.729 33,18 C33,26.271 26.271,33 18,33" />  <polygon points="16.707 24.707 15.293 23.293 20.586 18 15.293 12.707 16.707 11.293 23.414 18" />  </g> </symbol>
<symbol xmlns="http://www.w3.org/2000/svg" id="trash" viewBox="0 0 36 36"><g fill-rule="evenodd">  <path d="M27,30 C27,30.552 26.551,31 26,31 L12,31 C11.449,31 11,30.552 11,30 L11,9 L27,9 L27,30 Z M19,5 C20.103,5 21,5.897 21,7 L17,7 C17,5.897 17.897,5 19,5 L19,5 Z M31,7 L23,7 C23,4.794 21.206,3 19,3 C16.794,3 15,4.794 15,7 L7,7 L7,9 L9,9 L9,30 C9,31.654 10.346,33 12,33 L26,33 C27.654,33 29,31.654 29,30 L29,9 L31,9 L31,7 Z" />  <polygon points="15 28 17 28 17 12 15 12" />  <polygon points="21 28 23 28 23 12 21 12" />  </g> </symbol>
<symbol xmlns="http://www.w3.org/2000/svg" id="paste" viewBox="0 0 36 36"><g fill-rule="evenodd">  <polygon points="25 7 25 9 27.001 9 27.001 31 9.001 31 9.001 9 11.001 9 11.001 7 7 7 7 33 29.001 33 29.001 7" />  <path d="M21,9 L15,9 L15,7 L17,7 L17,6 C17,5.448 17.448,5 18,5 C18.552,5 19,5.448 19,6 L19,7 L21,7 L21,9 Z M23,5 L20.829,5 C20.416,3.836 19.304,3 18,3 C16.696,3 15.584,3.836 15.171,5 L13,5 L13,11 L23,11 L23,5 Z" />  </g> </symbol>
<symbol xmlns="http://www.w3.org/2000/svg" id="circle-plus" viewBox="0 0 36 36"><g fill-rule="evenodd">  <polygon points="19 9 17 9 17 17 9 17 9 19 17 19 17 27 19 27 19 19 27 19 27 17 19 17" />  <path d="M18,31 C10.832,31 5,25.168 5,18 C5,10.832 10.832,5 18,5 C25.168,5 31,10.832 31,18 C31,25.168 25.168,31 18,31 M18,3 C9.729,3 3,9.729 3,18 C3,26.271 9.729,33 18,33 C26.271,33 33,26.271 33,18 C33,9.729 26.271,3 18,3" />  </g> </symbol>
<symbol xmlns="http://www.w3.org/2000/svg" id="unlink" viewBox="0 0 36 36"><g fill-rule="evenodd">  <path d="M21.0107,16.8418 C20.2147,16.0458 19.2217,15.4488 18.1387,15.1148 C15.6417,14.3438 12.9477,15.0058 11.1107,16.8418 L10.0507,17.9028 L11.4647,19.3168 L12.5247,18.2558 C13.8347,16.9448 15.7587,16.4718 17.5497,17.0258 C18.3337,17.2678 19.0217,17.6808 19.5957,18.2558 C19.7777,18.4378 19.9527,18.6478 20.1307,18.8988 C20.8217,19.8728 21.1417,21.0678 21.0317,22.2608 C20.9237,23.4198 20.4137,24.5088 19.5957,25.3268 L15.3537,29.5698 C13.4047,31.5188 10.2317,31.5188 8.2817,29.5698 C7.3427,28.6298 6.8247,27.3738 6.8247,26.0338 C6.8247,24.6938 7.3427,23.4378 8.2817,22.4988 L6.8677,21.0848 C5.5507,22.4018 4.8247,24.1588 4.8247,26.0338 C4.8247,27.9088 5.5507,29.6668 6.8677,30.9838 C8.2327,32.3478 10.0257,33.0298 11.8177,33.0298 C13.6107,33.0298 15.4027,32.3478 16.7677,30.9838 L21.0107,26.7408 C22.1567,25.5938 22.8717,24.0688 23.0227,22.4458 C23.1777,20.7758 22.7297,19.1058 21.7617,17.7408 C21.5177,17.3978 21.2717,17.1038 21.0107,16.8418" />  <path d="M10.1343,22.0127 C10.4893,22.2367 10.8293,22.4137 11.1733,22.5567 C12.0123,22.9047 12.9223,23.0837 13.8363,23.0837 C14.0523,23.0837 14.2703,23.0737 14.4863,23.0537 C16.3673,22.8777 18.1243,21.9367 19.3063,20.4717 L17.7493,19.2167 C16.9053,20.2627 15.6473,20.9357 14.3003,21.0617 C13.4823,21.1387 12.6873,21.0197 11.9393,20.7087 C11.7003,20.6107 11.4583,20.4827 11.1983,20.3197 C10.1863,19.6837 9.4343,18.7027 9.0803,17.5577 C8.7363,16.4457 8.7893,15.2447 9.2323,14.1767 L11.5283,8.6327 C12.5833,6.0857 15.5133,4.8707 18.0613,5.9267 L18.8263,4.0787 C15.2603,2.6027 11.1583,4.3027 9.6803,7.8667 L7.3843,13.4107 C6.7633,14.9087 6.6873,16.5927 7.1693,18.1487 C7.6653,19.7507 8.7183,21.1227 10.1343,22.0127" />  <polygon points="25 15.316 31 15.316 31 13.316 25 13.316" />  <polygon points="24.949 3.633 23.052 3 21.052 9 22.949 9.633" />  <polygon points="31.581 7.13 30.419 5.502 23.419 10.502 24.581 12.13" />  <polygon points="24.553 18.211 28.553 20.211 29.448 18.422 25.448 16.422" />  </g> </symbol>
<symbol xmlns="http://www.w3.org/2000/svg" id="page" viewBox="0 0 36 36"><g fill="none" fill-rule="evenodd">  <path d="M6.9996,3.0003 L6.9996,33.0003 L29.0006,33.0003 L29.0006,11.5863 L20.4136,3.0003 L6.9996,3.0003 Z M9.0006,5.0003 L19.0006,5.0003 L19.0006,13.0003 L27.0006,13.0003 L27.0006,31.0003 L9.0006,31.0003 L9.0006,5.0003 Z M20.9996,6.4143 L25.5856,11.0003 L20.9996,11.0003 L20.9996,6.4143 Z" fill="#000" />  <polygon fill="#020302" points="11 27 25 27 25 25 11 25" />  <polygon fill="#020302" points="11 23 25 23 25 21 11 21" />  <polygon fill="#020302" points="11 19 18 19 18 17 11 17" />  </g> </symbol>
<symbol xmlns="http://www.w3.org/2000/svg" id="unlock" viewBox="0 0 36 36"><g fill-rule="evenodd">  <path d="M27,30 C27,30.551 26.552,31 26,31 L10,31 C9.448,31 9,30.551 9,30 L9,18 C9,17.449 9.448,17 10,17 L26,17 C26.552,17 27,17.449 27,18 L27,30 Z M27,15.184 L27,12 C27,7.038 22.963,3 18,3 C13.037,3 9,7.038 9,12 L11,12 C11,8.14 14.141,5 18,5 C21.859,5 25,8.14 25,12 L25,15 L10,15 C8.346,15 7,16.346 7,18 L7,30 C7,31.654 8.346,33 10,33 L26,33 C27.654,33 29,31.654 29,30 L29,18 C29,16.698 28.161,15.598 27,15.184 L27,15.184 Z" />  <path d="M18,20.5 C17.172,20.5 16.5,21.172 16.5,22 C16.5,22.443 16.695,22.836 17,23.111 L17,27 L19,27 L19,23.111 C19.305,22.836 19.5,22.443 19.5,22 C19.5,21.172 18.828,20.5 18,20.5" />  </g> </symbol>
<symbol xmlns="http://www.w3.org/2000/svg" id="language" viewBox="0 0 36 36"><g fill-rule="evenodd">  <path d="M18,31 C10.832,31 5,25.168 5,18 C5,10.832 10.832,5 18,5 C25.168,5 31,10.832 31,18 C31,25.168 25.168,31 18,31 M18,3 C9.729,3 3,9.729 3,18 C3,26.271 9.729,33 18,33 C26.271,33 33,26.271 33,18 C33,9.729 26.271,3 18,3" />  <path d="M19,11 L17,11 L17,13 L11,13 L11,15 L21.019,15 C20.951,16.355 20.437,19.122 17.782,21.903 C16.268,20.501 15.662,19.221 15.343,17.783 L13.39,18.217 C13.82,20.152 14.704,21.74 16.308,23.264 C15.515,23.902 14.596,24.529 13.517,25.125 L14.483,26.875 C15.812,26.142 16.93,25.364 17.881,24.569 C18.897,25.321 20.103,26.078 21.548,26.875 L22.515,25.125 C21.253,24.428 20.221,23.786 19.365,23.177 C22.399,19.954 22.963,16.678 23.026,15 L25,15 L25,13 L19,13 L19,11 Z" />  </g> </symbol>
<symbol xmlns="http://www.w3.org/2000/svg" id="forbidden" viewBox="0 0 36 36"><path d="M18,31 C14.775,31 11.827,29.813 9.553,27.861 L27.861,9.553 C29.813,11.827 31,14.775 31,18 C31,25.168 25.168,31 18,31 M18,5 C21.225,5 24.173,6.187 26.447,8.139 L8.139,26.447 C6.187,24.173 5,21.225 5,18 C5,10.832 10.832,5 18,5 M18,3 C9.729,3 3,9.729 3,18 C3,26.271 9.729,33 18,33 C26.271,33 33,26.271 33,18 C33,9.729 26.271,3 18,3" fill-rule="evenodd" /> </symbol>
<symbol xmlns="http://www.w3.org/2000/svg" id="caps-lock" viewBox="0 0 36 36"><g fill-rule="evenodd">  <polygon points="18 4.586 9.293 13.293 10.707 14.707 17 8.414 17 25 19 25 19 8.414 25.293 14.707 26.707 13.293" />  <polygon points="11 31 25 31 25 29 11 29" />  </g> </symbol>
<symbol xmlns="http://www.w3.org/2000/svg" id="more-vertical" viewBox="0 0 24 24"><path clip-rule="evenodd" d="M11.986 6.986a2 2 0 1 1 0-4 2 2 0 0 1 0 4Zm.028 7a2 2 0 1 1 0-4 2 2 0 0 1 0 4Zm-.028 7a2 2 0 1 1 0-4 2 2 0 0 1 0 4Z" fill="#000" fill-rule="evenodd" /> </symbol>
<symbol xmlns="http://www.w3.org/2000/svg" id="share" viewBox="0 0 36 36"><path d="M26,29 C24.346,29 23,27.654 23,26 C23,24.346 24.346,23 26,23 C27.654,23 29,24.346 29,26 C29,27.654 27.654,29 26,29 M10,21 C8.346,21 7,19.654 7,18 C7,16.346 8.346,15 10,15 C11.654,15 13,16.346 13,18 C13,19.654 11.654,21 10,21 M26,7 C27.654,7 29,8.346 29,10 C29,11.654 27.654,13 26,13 C24.346,13 23,11.654 23,10 C23,8.346 24.346,7 26,7 M26,21 C24.408,21 23.003,21.762 22.087,22.925 L14.811,19.287 C14.922,18.874 15,18.448 15,18 C15,17.552 14.922,17.126 14.811,16.713 L22.087,13.075 C23.003,14.238 24.408,15 26,15 C28.757,15 31,12.757 31,10 C31,7.243 28.757,5 26,5 C23.243,5 21,7.243 21,10 C21,10.448 21.078,10.874 21.189,11.287 L13.913,14.925 C12.997,13.762 11.592,13 10,13 C7.243,13 5,15.243 5,18 C5,20.757 7.243,23 10,23 C11.592,23 12.997,22.238 13.913,21.075 L21.189,24.713 C21.078,25.126 21,25.552 21,26 C21,28.757 23.243,31 26,31 C28.757,31 31,28.757 31,26 C31,23.243 28.757,21 26,21" fill-rule="evenodd" /> </symbol>
<symbol xmlns="http://www.w3.org/2000/svg" id="arrow-up" viewBox="0 0 36 36"><polygon fill-rule="evenodd" points="30.707 17.293 18 4.586 5.293 17.293 6.707 18.707 17 8.414 17 31 19 31 19 8.414 29.293 18.707" /> </symbol>
<symbol xmlns="http://www.w3.org/2000/svg" id="filter" viewBox="0 0 36 36"><path d="M5.0916,5.0002 L14.9996,19.3132 L14.9996,34.0002 L20.9996,29.5002 L20.9996,19.3132 L30.9086,5.0002 L5.0916,5.0002 Z M17.0006,18.6872 L8.9086,7.0002 L27.0916,7.0002 L19.0006,18.6872 L19.0006,28.5002 L17.0006,30.0002 L17.0006,18.6872 Z" fill-rule="evenodd" /> </symbol>
<symbol xmlns="http://www.w3.org/2000/svg" id="calendar" viewBox="0 0 36 36"><g fill-rule="evenodd">  <path d="M20.9997,2.9997 L20.9997,7.0007 L15.0007,7.0007 L15.0007,2.9997 L8.9997,2.9997 L8.9997,7.0007 L5.0007,7.0007 L5.0007,12.9997 L5.0007,15.0007 L5.0007,30.9997 L30.9997,30.9997 L30.9997,15.0007 L30.9997,12.9997 L30.9997,7.0007 L26.9997,7.0007 L26.9997,2.9997 L20.9997,2.9997 Z M23.0007,7.9997 L23.0007,5.0007 L25.0007,5.0007 L25.0007,7.9997 L25.0007,8.9987 L23.0007,8.9987 L23.0007,7.9997 Z M10.9997,7.9997 L10.9997,5.0007 L12.9997,5.0007 L12.9997,7.9997 L12.9997,8.9987 L10.9997,8.9987 L10.9997,7.9997 Z M26.9997,10.9997 L26.9997,8.9987 L28.9997,8.9987 L28.9997,12.9997 L7.0007,12.9997 L7.0007,8.9987 L8.9997,8.9987 L8.9997,10.9997 L15.0007,10.9997 L15.0007,8.9987 L20.9997,8.9987 L20.9997,10.9997 L26.9997,10.9997 Z M7.0007,28.9997 L29.0017,28.9997 L29.0017,15.0007 L7.0007,15.0007 L7.0007,28.9997 Z" />  <polygon points="9 19 11 19 11 17 9 17" />  <polygon points="13 19 15 19 15 17 13 17" />  <polygon points="17 19 19 19 19 17 17 17" />  <polygon points="21 19 23 19 23 17 21 17" />  <polygon points="25 19 27 19 27 17 25 17" />  <polygon points="9 23 11 23 11 21 9 21" />  <polygon points="13 23 15 23 15 21 13 21" />  <polygon points="17 23 19 23 19 21 17 21" />  <polygon points="21 23 23 23 23 21 21 21" />  <polygon points="25 23 27 23 27 21 25 21" />  <polygon points="9 27 11 27 11 25 9 25" />  <polygon points="13 27 15 27 15 25 13 25" />  <polygon points="17 27 19 27 19 25 17 25" />  <polygon points="21 27 23 27 23 25 21 25" />  <polygon points="25 27 27 27 27 25 25 25" />  </g> </symbol>
<symbol xmlns="http://www.w3.org/2000/svg" id="arrow-left" viewBox="0 0 36 36"><polygon fill-rule="evenodd" points="31 17 8.414 17 18.707 6.707 17.293 5.293 4.586 18 17.293 30.707 18.707 29.293 8.414 19 31 19" /> </symbol>
<symbol xmlns="http://www.w3.org/2000/svg" id="cross" viewBox="0 0 36 36"><polygon fill-rule="evenodd" points="27.899 9.515 26.485 8.101 18 16.586 9.514 8.101 8.1 9.515 16.586 18 8.1 26.486 9.514 27.9 18 19.414 26.485 27.9 27.899 26.486 19.414 18" /> </symbol>
<symbol xmlns="http://www.w3.org/2000/svg" id="upload" viewBox="0 0 36 36"><g fill-rule="evenodd">  <polygon points="12.293 22.293 13.707 23.707 17 20.414 17 31 19 31 19 20.414 22.293 23.707 23.707 22.293 18 16.586" />  <path d="M28.9707,15.6641 C28.9907,15.4401 28.9997,15.2191 28.9997,15.0001 C28.9997,10.5891 25.4107,7.0001 20.9997,7.0001 C17.9547,7.0001 15.2217,8.7151 13.8727,11.3711 C13.2807,11.1261 12.6477,11.0001 11.9997,11.0001 C9.3517,11.0001 7.1777,13.0691 7.0107,15.6761 C4.5837,16.8221 2.9997,19.2771 2.9997,22.0001 C2.9997,25.8591 6.1407,29.0001 9.9997,29.0001 L11.9997,29.0001 L11.9997,27.0001 L9.9997,27.0001 C7.2427,27.0001 4.9997,24.7571 4.9997,22.0001 C4.9997,19.8761 6.3517,17.9791 8.3627,17.2801 L9.0977,17.0251 L8.9997,16.0001 C8.9997,14.3461 10.3457,13.0001 11.9997,13.0001 C12.6307,13.0001 13.2427,13.2051 13.7697,13.5931 L14.8757,14.4071 L15.3107,13.1031 C16.1287,10.6491 18.4147,9.0001 20.9997,9.0001 C24.3087,9.0001 26.9997,11.6911 26.9997,15.0001 C26.9997,15.3601 26.9637,15.7361 26.8917,16.1161 L26.7287,16.9781 L27.5617,17.2531 C29.6177,17.9301 30.9997,19.8371 30.9997,22.0001 C30.9997,24.7571 28.7567,27.0001 25.9997,27.0001 L23.9997,27.0001 L23.9997,29.0001 L25.9997,29.0001 C29.8597,29.0001 32.9997,25.8591 32.9997,22.0001 C32.9997,19.2551 31.4107,16.8041 28.9707,15.6641" />  </g> </symbol>
<symbol xmlns="http://www.w3.org/2000/svg" id="circle-minus" viewBox="0 0 36 36"><g fill-rule="evenodd">  <polygon points="9 19 27 19 27 17 9 17" />  <path d="M18,5 C10.832,5 5,10.832 5,18 C5,25.168 10.832,31 18,31 C25.168,31 31,25.168 31,18 C31,10.832 25.168,5 18,5 M18,33 C9.729,33 3,26.271 3,18 C3,9.729 9.729,3 18,3 C26.271,3 33,9.729 33,18 C33,26.271 26.271,33 18,33" />  </g> </symbol>
<symbol xmlns="http://www.w3.org/2000/svg" id="help" viewBox="0 0 36 36"><g fill-rule="evenodd">  <path d="M19.5,24 C19.5,24.828 18.828,25.5 18,25.5 C17.172,25.5 16.5,24.828 16.5,24 C16.5,23.172 17.172,22.5 18,22.5 C18.828,22.5 19.5,23.172 19.5,24" />  <path d="M18,5 C10.832,5 5,10.832 5,18 C5,25.168 10.832,31 18,31 C25.168,31 31,25.168 31,18 C31,10.832 25.168,5 18,5 M18,33 C9.729,33 3,26.271 3,18 C3,9.729 9.729,3 18,3 C26.271,3 33,9.729 33,18 C33,26.271 26.271,33 18,33" />  <path d="M19,20 L17,20 C17,17.456 19.437,16.166 19.54,16.112 C19.558,16.104 21,15.334 21,14 C21,12.346 19.654,11 18,11 C16.346,11 15,12.346 15,14 L13,14 C13,11.243 15.243,9 18,9 C20.757,9 23,11.243 23,14 C23,16.572 20.556,17.84 20.452,17.893 C20.45,17.894 19,18.682 19,20" />  </g> </symbol>
<symbol xmlns="http://www.w3.org/2000/svg" id="advanced-search" viewBox="0 0 36 36"><path d="M25,16 L27,16 C27,18.673 26.039,21.125 24.448,23.034 L32.707,31.293 L31.293,32.707 L23.034,24.448 C21.125,26.039 18.673,27 16,27 C9.935,27 5,22.065 5,16 C5,9.935 9.935,5 16,5 L16,7 C11.037,7 7,11.038 7,16 C7,20.962 11.037,25 16,25 C20.963,25 25,20.962 25,16 Z M23,5 L23,9 L27,9 L27,11 L23,11 L23,15 L21,15 L21,11 L17,11 L17,9 L21,9 L21,5 L23,5 Z" fill-rule="evenodd" /> </symbol>
<symbol xmlns="http://www.w3.org/2000/svg" id="folder" viewBox="0 0 36 36"><path d="M13.414,5 L17.413,8.999 L33,9 L33,29 L3,29 L3,5 L13.414,5 Z M31,11 L5,10.999 L5,27 L31,27 L31,11 Z M12.5855729,7 L5,7 L5,8.999 L14.584,8.999 L12.5855729,7 Z" /> </symbol>
<symbol xmlns="http://www.w3.org/2000/svg" id="chevron-left" viewBox="0 0 36 36"><polygon fill-rule="evenodd" points="21.293 9.293 22.707 10.707 15.414 18 22.707 25.293 21.293 26.707 12.586 18" /> </symbol>
<symbol xmlns="http://www.w3.org/2000/svg" id="heart" viewBox="0 0 36 36"><path d="M11.2061,6.9048 C9.5481,6.9048 7.9901,7.5508 6.8181,8.7218 C5.6451,9.8948 5.0001,11.4528 5.0001,13.1108 C5.0001,14.7688 5.6451,16.3268 6.8181,17.4988 L18.0001,28.6808 L29.1821,17.4988 C30.3541,16.3268 31.0001,14.7688 31.0001,13.1108 C31.0001,11.4528 30.3541,9.8948 29.1821,8.7218 C28.0101,7.5508 26.4521,6.9048 24.7941,6.9048 C23.1361,6.9048 21.5781,7.5508 20.4051,8.7218 L18.0001,11.1288 L15.5951,8.7218 C14.4221,7.5508 12.8641,6.9048 11.2061,6.9048 L11.2061,6.9048 Z M18.0001,31.5088 L5.4041,18.9128 C3.8531,17.3628 3.0001,15.3028 3.0001,13.1108 C3.0001,10.9188 3.8531,8.8578 5.4041,7.3078 C6.9541,5.7588 9.0141,4.9048 11.2061,4.9048 C13.3981,4.9048 15.4581,5.7588 17.0091,7.3078 L18.0001,8.2998 L18.9911,7.3078 C20.5411,5.7588 22.6021,4.9048 24.7941,4.9048 C26.9861,4.9048 29.0461,5.7588 30.5961,7.3078 C32.1461,8.8578 33.0001,10.9188 33.0001,13.1108 C33.0001,15.3028 32.1461,17.3628 30.5961,18.9128 L18.0001,31.5088 Z" fill-rule="evenodd" /> </symbol>
</svg>
