<svg width="29" height="35" viewBox="0 0 29 35" fill="none" xmlns="http://www.w3.org/2000/svg">
<path fill-rule="evenodd" clip-rule="evenodd" d="M26.6237 0H1.74727C1.28434 0.00149536 0.840795 0.186035 0.513456 0.513367C0.186117 0.840729 0.00156145 1.28427 8.13504e-05 1.74719V32.8034C-0.00214643 33.0342 0.0414021 33.2632 0.128209 33.4772C0.215017 33.6911 0.343358 33.8857 0.505819 34.0497C0.668287 34.2138 0.861646 34.344 1.07473 34.4328C1.28782 34.5217 1.5164 34.5674 1.74727 34.5674H26.6237C27.0871 34.5674 27.5315 34.3833 27.8591 34.0557C28.1868 33.728 28.3709 33.2836 28.3709 32.8202V1.74719C28.3694 1.28427 28.1848 0.840729 27.8575 0.513367C27.5301 0.186035 27.0866 0.00149536 26.6237 0ZM27.354 32.8034C27.354 32.9976 27.2773 33.1839 27.1404 33.3218C27.0036 33.4597 26.8179 33.5378 26.6237 33.5393H1.74727C1.55306 33.5378 1.36731 33.4597 1.2305 33.3218C1.09369 33.1839 1.01693 32.9976 1.01693 32.8034V1.74719C1.01693 1.5535 1.09388 1.36774 1.23084 1.23077C1.36781 1.09381 1.55357 1.01685 1.74727 1.01685H26.6237C26.8174 1.01685 27.0031 1.09381 27.1401 1.23077C27.2771 1.36774 27.354 1.5535 27.354 1.74719V32.8034ZM22.104 28.908C21.48 28.908 20.952 28.812 20.52 28.62C20.088 28.42 19.732 28.156 19.452 27.828L20.268 26.712C20.5 26.936 20.752 27.12 21.024 27.264C21.304 27.408 21.608 27.48 21.936 27.48C22.312 27.48 22.612 27.404 22.836 27.252C23.06 27.092 23.172 26.868 23.172 26.58C23.172 26.412 23.14 26.26 23.076 26.124C23.02 25.988 22.916 25.876 22.764 25.788C22.612 25.692 22.404 25.62 22.14 25.572C21.876 25.516 21.536 25.488 21.12 25.488V24.24C21.464 24.24 21.748 24.216 21.972 24.168C22.204 24.12 22.388 24.052 22.524 23.964C22.668 23.868 22.768 23.76 22.824 23.64C22.888 23.512 22.92 23.372 22.92 23.22C22.92 22.956 22.84 22.752 22.68 22.608C22.52 22.456 22.288 22.38 21.984 22.38C21.712 22.38 21.464 22.44 21.24 22.56C21.024 22.68 20.796 22.844 20.556 23.052L19.668 21.972C20.02 21.668 20.388 21.432 20.772 21.264C21.164 21.088 21.596 21 22.068 21C22.46 21 22.816 21.048 23.136 21.144C23.464 21.232 23.74 21.368 23.964 21.552C24.196 21.728 24.376 21.944 24.504 22.2C24.632 22.456 24.696 22.752 24.696 23.088C24.696 23.488 24.584 23.828 24.36 24.108C24.144 24.38 23.832 24.604 23.424 24.78V24.828C23.864 24.956 24.224 25.176 24.504 25.488C24.792 25.792 24.936 26.192 24.936 26.688C24.936 27.04 24.86 27.356 24.708 27.636C24.556 27.908 24.352 28.14 24.096 28.332C23.84 28.516 23.54 28.66 23.196 28.764C22.852 28.86 22.488 28.908 22.104 28.908ZM4 22.812V28.764H5.76401V24.744C6.132 24.36 6.468 24.168 6.772 24.168C7.028 24.168 7.212 24.248 7.324 24.408C7.444 24.568 7.504 24.864 7.504 25.296V28.764H9.268V24.744C9.65201 24.36 9.992 24.168 10.288 24.168C10.544 24.168 10.728 24.248 10.84 24.408C10.96 24.568 11.02 24.864 11.02 25.296V28.764H12.784V25.068C12.784 24.324 12.632 23.74 12.328 23.316C12.032 22.884 11.564 22.668 10.924 22.668C10.524 22.668 10.176 22.768 9.88 22.968C9.59199 23.16 9.31599 23.392 9.052 23.664C8.89999 23.344 8.692 23.1 8.42799 22.932C8.17199 22.756 7.832 22.668 7.408 22.668C7.016 22.668 6.67999 22.76 6.39999 22.944C6.11999 23.12 5.856 23.332 5.608 23.58H5.56L5.44 22.812H4ZM13.6891 22.812V30.972H15.4531V29.232L15.3931 28.284C15.6011 28.484 15.8251 28.64 16.0651 28.752C16.3051 28.856 16.5531 28.908 16.8091 28.908C17.1291 28.908 17.4371 28.836 17.7331 28.692C18.0371 28.548 18.3051 28.34 18.5371 28.068C18.7771 27.788 18.9651 27.452 19.1011 27.06C19.2451 26.66 19.3171 26.204 19.3171 25.692C19.3171 25.236 19.2611 24.824 19.1491 24.456C19.0451 24.08 18.8931 23.76 18.6931 23.496C18.4931 23.232 18.2491 23.028 17.9611 22.884C17.6731 22.74 17.3491 22.668 16.9891 22.668C16.6771 22.668 16.3731 22.74 16.0771 22.884C15.7891 23.02 15.5291 23.192 15.2971 23.4H15.2491L15.1291 22.812H13.6891ZM17.1811 27.06C16.9651 27.332 16.7051 27.468 16.4011 27.468C16.2491 27.468 16.0931 27.44 15.9331 27.384C15.7731 27.328 15.6131 27.228 15.4531 27.084V24.648C15.7891 24.288 16.1291 24.108 16.4731 24.108C17.1611 24.108 17.5051 24.644 17.5051 25.716C17.5051 26.332 17.3971 26.78 17.1811 27.06ZM11.1236 5H20.3416C20.7048 5 21 5.28601 21 5.64536V14.8345C21 16.3819 19.7059 17.6359 18.109 17.6359C16.5121 17.6359 15.218 16.3819 15.218 14.8345C15.218 13.287 16.5121 12.033 18.109 12.033C18.669 12.033 19.2064 12.187 19.6756 12.4803V8.82819H11.782V16.1985C11.782 17.7459 10.4879 19 8.89102 19C7.29414 19 6 17.7459 6 16.1985C6 14.6511 7.29414 13.3971 8.89102 13.3971C9.45106 13.3971 9.9884 13.5511 10.4576 13.8444V5.64536C10.4576 5.28601 10.7603 5 11.1236 5ZM18.109 16.3525C18.9717 16.3525 19.6756 15.6705 19.6756 14.8345C19.6756 13.9984 18.9793 13.3164 18.109 13.3164C17.2462 13.3164 16.5424 13.9984 16.5424 14.8345C16.5424 15.6705 17.2462 16.3525 18.109 16.3525ZM19.6756 7.5448V6.28339H11.782V7.5448H19.6756ZM8.89102 17.7166C9.75378 17.7166 10.4576 17.0346 10.4576 16.1985C10.4576 15.3625 9.75378 14.6805 8.89102 14.6805C8.02826 14.6805 7.32441 15.3625 7.32441 16.1985C7.32441 17.0346 8.02826 17.7166 8.89102 17.7166Z" fill="#454ADE"/>
</svg>
