<?xml version="1.0" ?><svg id="Layer_1" style="enable-background:new 0 0 512 512;" version="1.1" viewBox="0 0 512 512" xml:space="preserve" xmlns="http://www.w3.org/2000/svg" xmlns:xlink="http://www.w3.org/1999/xlink"><style type="text/css">
	.st0{fill:#EDE6DA;}
	.st1{fill:#837D6E;}
	.st2{fill:#514A3D;}
	.st3{fill:#FFFFFF;}
</style><g id="XMLID_11_"><g id="XMLID_97_"><polygon class="st0" id="XMLID_101_" points="330.7,6 87.9,6 87.9,506 449.2,506 449.2,122.8   "/><polygon class="st1" id="XMLID_100_" points="330.7,6 449.2,122.8 330.7,122.8   "/><rect class="st1" height="156.1" id="XMLID_99_" width="329" x="62.8" y="298.8"/><polygon class="st2" id="XMLID_98_" points="62.8,454.9 87.9,476.1 87.9,454.9   "/></g><g id="XMLID_806_"><path class="st3" d="M128.6,340l0.7,7.9c1.9-2.9,4.2-5.1,7.1-6.7c2.9-1.6,6.1-2.3,9.8-2.3c3.7,0,6.9,0.8,9.6,2.4    c2.7,1.6,4.7,4.1,6.1,7.4c1.8-3.1,4.2-5.6,7.1-7.3c2.9-1.7,6.3-2.6,10.1-2.6c5.8,0,10.4,2.1,13.7,6.3c3.3,4.2,5,10.6,5,19.3v35.3    H179v-35.3c0-4.3-0.6-7.2-1.8-8.8c-1.2-1.6-3-2.4-5.4-2.4c-1.8,0-3.4,0.3-4.8,1c-1.4,0.6-2.5,1.5-3.5,2.7c0,0.6,0,1.2,0.1,1.6    c0,0.5,0.1,0.9,0.1,1.4v39.9H145v-35.3c0-4.3-0.6-7.3-1.8-8.8s-3-2.4-5.5-2.4c-1.7,0-3.2,0.3-4.6,1c-1.4,0.6-2.6,1.5-3.5,2.7v42.9    H111V340H128.6z" id="XMLID_700_"/><path class="st3" d="M247.5,382.9c0-1.5-0.8-2.8-2.5-3.9c-1.7-1.2-4.7-2.2-9.1-3.1c-7-1.4-12.2-3.5-15.7-6.3    c-3.5-2.9-5.3-6.8-5.3-11.8c0-5.3,2.2-9.7,6.6-13.4c4.4-3.7,10.4-5.5,18-5.5c8,0,14.3,1.8,19,5.3c4.7,3.6,7,8.1,6.7,13.8l-0.1,0.3    h-18.1c0-2.4-0.6-4.1-1.8-5.4c-1.2-1.2-3.1-1.8-5.8-1.8c-2,0-3.6,0.5-4.9,1.6s-2,2.4-2,4.1c0,1.6,0.8,2.9,2.3,4    c1.5,1.1,4.6,2.1,9.3,3c7.3,1.4,12.7,3.6,16.2,6.4c3.5,2.9,5.2,6.9,5.2,12.1c0,5.4-2.4,9.8-7.2,13.3c-4.8,3.5-11.1,5.2-18.9,5.2    c-8.1,0-14.6-2.1-19.3-6.2c-4.7-4.1-7-8.7-6.8-13.8l0.1-0.3h16.9c0.1,2.8,0.9,4.9,2.6,6.1c1.6,1.3,4,1.9,7,1.9    c2.5,0,4.4-0.5,5.7-1.5C246.8,386.1,247.5,384.7,247.5,382.9z" id="XMLID_702_"/><path class="st3" d="M279.6,369.9c0-9.3,2-16.8,6.1-22.5c4.1-5.7,9.8-8.6,17.2-8.6c3.1,0,5.9,0.7,8.3,2.2    c2.4,1.5,4.5,3.6,6.2,6.3l1.2-7.5H335v59.1c0,7.9-2.7,14-8.1,18.3c-5.4,4.3-12.8,6.5-22.3,6.5c-3.1,0-6.3-0.4-9.7-1.3    c-3.4-0.8-6.6-2-9.7-3.4l3.2-13.8c2.7,1.2,5.3,2.1,7.7,2.6c2.4,0.6,5.3,0.9,8.4,0.9c4,0,6.9-0.8,8.9-2.4c1.9-1.6,2.9-4.1,2.9-7.5    v-4.6c-1.7,2.2-3.7,3.8-5.9,4.9c-2.2,1.1-4.8,1.7-7.6,1.7c-7.4,0-13.1-2.7-17.1-8.2c-4.1-5.4-6.1-12.6-6.1-21.6V369.9z     M298.2,371.1c0,4.9,0.7,8.6,2.1,11.3c1.4,2.7,3.8,4.1,7.2,4.1c2,0,3.8-0.3,5.2-0.9c1.5-0.6,2.6-1.6,3.6-2.8v-25.1    c-0.9-1.4-2.1-2.5-3.5-3.3c-1.4-0.8-3.1-1.1-5.1-1.1c-3.3,0-5.7,1.5-7.2,4.6c-1.5,3.1-2.2,7.1-2.2,12.1V371.1z" id="XMLID_704_"/></g></g></svg>