<?xml version="1.0" ?>
<svg height="500mm" id="svg3346"  viewBox="0 0 1771.6535 1771.6535" width="500mm"
     xmlns="http://www.w3.org/2000/svg"
>
    <defs id="defs3348"/>
    <g id="layer1" transform="translate(-18.061051,884.64085)">
        <path
            d="M 728.61079,861.43555 C 689.35543,854.44559 621.54464,837.78911 577.92013,824.42112 497.24429,799.69951 327.6029,722.43073 288.97574,692.81186 268.00756,676.73372 267.9144,675.73553 282.2752,621.03483 332.6943,428.98708 472.98303,261.18161 658.44651,171.08007 770.73269,116.52938 851.10933,98.259928 979.7773,98.042216 c 246.6611,-0.417411 463.7142,115.221464 602.6795,321.088004 37.6443,55.76733 87.8397,170.6871 88.3835,202.34966 0.226,13.17202 -18.2747,30.89718 -61.2464,58.67803 -139.4876,90.1776 -303.0117,154.38364 -463.1158,181.83756 -99.8979,17.13011 -320.17911,16.83488 -417.86731,-0.55992 z"
            id="path4180" style="fill-opacity:1"/>
        <rect height="119.79085" id="rect4182" ry="59.895424" style="fill-opacity:1"
              transform="matrix(0.76356839,0.64572696,-0.65192184,0.75828617,0,0)" width="1246.9957" x="98.185684"
              y="-167.32021"/>
        <path
            d="M 971.55127,-869.27434 A 546.39995,527.87793 0 0 0 425.14864,-341.39549 546.39995,527.87793 0 0 0 971.55127,186.4833 546.39995,527.87793 0 0 0 1517.9477,-341.39549 546.39995,527.87793 0 0 0 971.55127,-869.27434 Z m -262.70172,338.61404 504.86015,0 c 82.1687,0 148.3174,66.15489 148.3174,148.32371 l 0,99.39311 c 0,82.16878 -66.1487,148.31734 -148.3174,148.31734 l -504.86015,0 c -82.16879,0 -148.32369,-66.14856 -148.32369,-148.31734 l 0,-99.39311 c 0,-82.16882 66.1549,-148.32371 148.32369,-148.32371 z"
            id="ellipse16434"
            style="fill-opacity:1;fill-rule:evenodd;stroke:none;stroke-width:1px;stroke-linecap:butt;stroke-linejoin:miter;stroke-opacity:1"/>
        <ellipse cx="798.72968" cy="-327.19971" id="path4209" rx="61.291084" ry="75.435173"
                 style="fill-opacity:1"/>
        <ellipse cx="798.72968" cy="-327.19971" id="ellipse4213" rx="61.291084" ry="75.435173"
                 style="fill-opacity:1"/>
        <ellipse cx="1100.4703" cy="-327.19971" id="ellipse4247" rx="61.291084" ry="75.435173"
                 style="fill-opacity:1"/>
    </g>
</svg>
