<svg width="19" height="19" viewBox="0 0 19 19" fill="none" xmlns="http://www.w3.org/2000/svg">
<path fill-rule="evenodd" clip-rule="evenodd" d="M9.50001 -2.66229e-06C7.24245 -0.00235568 5.05787 0.819819 3.33774 2.31919C1.61761 3.81856 0.474369 5.89711 0.112907 8.18235C-0.248555 10.4676 0.195387 12.8102 1.36517 14.7902C2.53494 16.7703 4.3541 18.2585 6.49663 18.988C6.96901 19.0777 7.14396 18.7727 7.14396 18.5156C7.14396 18.2584 7.14396 17.6723 7.14396 16.859C4.50216 17.457 3.9423 15.5552 3.9423 15.5552C3.76627 14.9658 3.3923 14.4594 2.88675 14.1259C2.02947 13.5279 2.95673 13.5279 2.95673 13.5279C3.25724 13.5714 3.54415 13.6845 3.79573 13.8585C4.04732 14.0326 4.25699 14.2631 4.40885 14.5326C4.53788 14.7725 4.71184 14.984 4.92076 15.1548C5.12967 15.3256 5.36943 15.4524 5.62626 15.528C5.88309 15.6036 6.15194 15.6264 6.41739 15.5951C6.68284 15.5639 6.93966 15.4792 7.17312 15.3459C7.20972 14.8539 7.41654 14.3916 7.7563 14.0422C5.64518 13.797 3.4291 12.9597 3.4291 9.22789C3.41461 8.26083 3.76331 7.32509 4.40301 6.61441C4.11753 5.77366 4.15084 4.85355 4.49632 4.03682C4.49632 4.03682 5.29528 3.77368 7.10897 5.03556C8.6664 4.59705 10.3103 4.59705 11.8677 5.03556C13.6814 3.77368 14.4745 4.03682 14.4745 4.03682C14.8236 4.85239 14.859 5.77318 14.5737 6.61441C15.2134 7.32509 15.5621 8.26083 15.5476 9.22789C15.5476 12.9717 13.3257 13.791 11.2087 14.0123C11.4357 14.2463 11.611 14.5276 11.7227 14.8371C11.8344 15.1467 11.8799 15.4773 11.856 15.8064C11.856 17.1102 11.856 18.1627 11.856 18.4797C11.856 18.7967 12.0252 19.0419 12.5092 18.9522C14.645 18.2157 16.4562 16.7252 17.6199 14.7464C18.7835 12.7677 19.2239 10.4293 18.8624 8.14853C18.501 5.86772 17.3612 3.79274 15.6464 2.2937C13.9316 0.794667 11.7533 -0.0309498 9.50001 -0.0358887V-2.66229e-06Z" fill="#191717"/>
</svg>
