<svg version="1.2" xmlns="http://www.w3.org/2000/svg" viewBox="0 0 1446 1546" width="1446" height="1546">
	<title>progress-svg</title>
	<style>
		.s0 { fill: #5ce500 } 
	</style>
	<path id="Layer" fill-rule="evenodd" class="s0" d="m1445.3 440v771.9c-0.3 4.7-1.1 9.3-2.4 13.7-1.3 4.5-3.2 8.8-5.5 12.8-2.3 4.1-5.1 7.8-8.3 11.2-3.2 3.4-6.8 6.4-10.7 8.9l-25.3 15.2-192.5 111.2-129.9 75.7-27 15.1v-834.9l-722.5-417.7 343.2-197.8 31.6-18.1c4.2-2.1 8.6-3.7 13.1-4.8 4.5-1 9.2-1.6 13.9-1.6 4.6 0 9.3 0.6 13.8 1.6 4.5 1.1 8.9 2.7 13.1 4.8l475.7 274.9 219.5 126.8c0 0 0 31.1 0.2 31.1zm-562.3 865.8c-0.2 4.6-1 9.2-2.4 13.7-1.3 4.4-3.1 8.7-5.5 12.8-2.3 4-5.1 7.8-8.3 11.1-3.2 3.4-6.8 6.4-10.7 9l-27.1 15.1-307.1 177.6v-602.9l-521.9-301.4 26.8-15.6 307.6-177.7c4.2-2 8.6-3.6 13.1-4.7 4.5-1 9.2-1.6 13.8-1.6 4.7 0 9.3 0.6 13.9 1.6 4.5 1.1 8.9 2.7 13.1 4.7l346.6 200.3 148.1 85.7zm-522-271v417.5l-361-208.6z"/>
</svg>