<svg xmlns="http://www.w3.org/2000/svg" width="24" height="24" viewBox="0 0 24 24">
  <path fill-rule="evenodd" d="M11.667 1.333 17 4.381v5.32l5 2.667v6.43l-5.302 3.409-5.031-2.683-5.032 2.683-5.302-3.408v-6.431l5-2.667v-5.32l5.334-3.048Zm-4 4.514v3.867L11 11.62V7.513L7.667 5.847Zm4.666 1.666v4.106l3.334-1.905V5.846l-3.334 1.667ZM11 13.88l-3.667 1.956v4.489L11 18.368v-4.489Zm-8.333.038L6 15.822v4.392L2.667 18.07v-4.154Zm9.666 4.451V13.88L16 15.835v4.488l-3.667-1.955Zm5 1.846 3.334-2.143v-4.154l-3.334 1.905v4.392ZM8.413 4.729l3.254 1.627 3.254-1.627-3.254-1.86-3.255 1.86Zm-1.735 9.944-3.299-1.885 3.61-1.925 3.299 1.885-3.61 1.925Zm9.978 0 3.298-1.885-3.61-1.925-3.298 1.885 3.61 1.925Z" clip-rule="evenodd"/>
</svg>
