<svg width="26" height="26" viewBox="0 0 26 26" fill="none" xmlns="http://www.w3.org/2000/svg">
  <path d="M4.04902 8.12133H21.974C22.3156 8.12133 22.6432 7.98565 22.8847 7.74414C23.1262 7.50263 23.2619 7.17507 23.2619 6.83352V2.45958C23.2634 2.28948 23.2312 2.12077 23.1672 1.96319C23.1032 1.8056 23.0085 1.66226 22.8888 1.54144C22.7691 1.42063 22.6266 1.32473 22.4696 1.25928C22.3126 1.19384 22.1441 1.16015 21.974 1.16016H3.86339C3.55568 1.16016 3.26058 1.28239 3.043 1.49997C2.82542 1.71755 2.70319 2.01265 2.70319 2.32035V6.82191C2.70143 6.997 2.7354 7.17061 2.80301 7.33212C2.87063 7.49363 2.97047 7.63966 3.09643 7.76128C3.2224 7.8829 3.37184 7.97756 3.53562 8.03947C3.69941 8.10137 3.8741 8.12923 4.04902 8.12133ZM3.67775 2.32035C3.67775 2.27112 3.69731 2.2239 3.73212 2.18909C3.76694 2.15428 3.81415 2.13472 3.86339 2.13472H21.974C22.0725 2.13472 22.1669 2.17384 22.2366 2.24346C22.3062 2.31309 22.3453 2.40752 22.3453 2.50598V6.82191C22.3454 6.92148 22.3066 7.01714 22.2373 7.08862C22.168 7.1601 22.0736 7.20176 21.974 7.20478H4.04902C3.99927 7.2048 3.95003 7.19483 3.90421 7.17545C3.85839 7.15607 3.81694 7.12768 3.78231 7.09197C3.74768 7.05626 3.72057 7.01395 3.70261 6.96756C3.68465 6.92116 3.6762 6.87164 3.67775 6.82191V2.32035ZM23.2619 16.5792V10.2213C23.2619 9.87974 23.1262 9.55218 22.8847 9.31066C22.6432 9.06915 22.3156 8.93347 21.974 8.93347H18.6559C18.3583 8.94837 18.0779 9.07715 17.8728 9.29313C17.6676 9.50912 17.5533 9.79576 17.5537 10.0937V15.9875C17.2806 16.1571 17.0208 16.3471 16.7764 16.556V10.2213C16.7764 9.87974 16.6407 9.55218 16.3992 9.31066C16.1577 9.06915 15.8301 8.93347 15.4886 8.93347H3.88659C3.57889 8.93347 3.28379 9.05571 3.06621 9.27328C2.84863 9.49086 2.72639 9.78596 2.72639 10.0937V23.5403C2.72633 23.7124 2.76076 23.8828 2.82764 24.0413C2.89453 24.1999 2.99251 24.3434 3.11581 24.4635C3.2391 24.5835 3.38521 24.6777 3.5455 24.7403C3.70578 24.8029 3.87699 24.8328 4.04902 24.8282H15.4886C15.8233 24.8254 16.144 24.6935 16.3839 24.4601C16.6238 24.2267 16.7644 23.9097 16.7764 23.5751C17.7147 24.3357 18.9066 24.7118 20.1115 24.6276C21.3164 24.5433 22.4444 24.0049 23.2678 23.1212C24.0911 22.2375 24.5484 21.0743 24.5473 19.8664C24.5462 18.6586 24.0868 17.4962 23.2619 16.614V16.5792ZM18.4703 10.0473C18.4702 9.9969 18.4893 9.94841 18.5239 9.91174C18.5584 9.87507 18.6056 9.85299 18.6559 9.85003H21.974C22.0716 9.85294 22.1643 9.89299 22.2333 9.96199C22.3023 10.031 22.3424 10.1237 22.3453 10.2213V15.9063C21.6398 15.4956 20.8411 15.2719 20.0249 15.2565C19.5102 15.2651 19.0005 15.3592 18.5167 15.535L18.4703 10.0473ZM15.4886 23.9696H4.04902C3.95055 23.9696 3.85612 23.9305 3.78649 23.8609C3.71687 23.7913 3.67775 23.6968 3.67775 23.5984V10.0473C3.67767 9.9969 3.69685 9.94841 3.73136 9.91174C3.76588 9.87507 3.81311 9.85299 3.86339 9.85003H15.4653C15.5638 9.85003 15.6582 9.88914 15.7279 9.95877C15.7975 10.0284 15.8366 10.1228 15.8366 10.2213V17.6465C15.4007 18.3697 15.1704 19.198 15.1704 20.0424C15.1704 20.8867 15.4007 21.715 15.8366 22.4382V23.5403C15.8368 23.6349 15.8009 23.726 15.7362 23.795C15.6715 23.864 15.5829 23.9057 15.4886 23.9116V23.9696ZM19.9785 24.0508C19.1955 24.0508 18.4302 23.8185 17.7793 23.3833C17.1285 22.948 16.6214 22.3295 16.3223 21.6059C16.0232 20.8823 15.9455 20.0862 16.0991 19.3185C16.2527 18.5507 16.6307 17.8458 17.1851 17.2929C17.7396 16.7401 18.4456 16.3642 19.2138 16.2129C19.982 16.0616 20.7779 16.1416 21.5006 16.4428C22.2233 16.744 22.8404 17.2529 23.2737 17.905C23.707 18.5572 23.9371 19.3232 23.9348 20.1062C23.9195 21.1443 23.4956 22.1345 22.755 22.8621C22.0143 23.5897 21.0167 23.996 19.9785 23.9928V24.0508ZM22.5657 20.1062C22.5628 20.2191 22.5166 20.3266 22.4368 20.4065C22.3569 20.4863 22.2494 20.5325 22.1365 20.5354H20.4194V22.2525C20.4189 22.3695 20.3732 22.4818 20.2918 22.5658C20.2066 22.644 20.0941 22.6857 19.9785 22.6818C19.8647 22.6818 19.7555 22.6366 19.675 22.5561C19.5945 22.4756 19.5492 22.3664 19.5492 22.2525V20.4774H17.8321C17.7183 20.4774 17.6091 20.4322 17.5286 20.3517C17.4481 20.2712 17.4029 20.162 17.4029 20.0482C17.4029 19.9343 17.4481 19.8251 17.5286 19.7446C17.6091 19.6641 17.7183 19.6189 17.8321 19.6189H19.5492V17.8902C19.5661 17.787 19.6192 17.6932 19.6989 17.6255C19.7786 17.5578 19.8797 17.5206 19.9843 17.5206C20.0889 17.5206 20.1901 17.5578 20.2697 17.6255C20.3494 17.6932 20.4025 17.787 20.4194 17.8902V19.6189H22.1365C22.1933 19.6173 22.2498 19.6273 22.3026 19.6483C22.3554 19.6693 22.4034 19.7009 22.4436 19.741C22.4838 19.7812 22.5153 19.8292 22.5363 19.882C22.5573 19.9348 22.5674 19.9913 22.5657 20.0482V20.1062Z" fill="black"/>
  </svg>
