<svg xmlns="http://www.w3.org/2000/svg" width="24" height="24" viewBox="0 0 24 24">
  <path fill-rule="evenodd" d="M3.252 18.667h12.17c-.551-.924-2.083-1.635-2.694-1.846-2.424-.572-2.698-1.902-2.72-2.052l-.008-.1v-2.072l.42-.167c.814-.325.756-.835.756-.84l-.084-.519.485-.202c.026-.024.141-.16.365-.659a.696.696 0 0 0-.095-.101l-.387-.292.427-1.23c.203-.828.12-1.685-.246-2.153-.176-.225-.405-.434-.63-.434h-.367l-.196-.23c-.001-.001-.424-.593-1.096-.593-.318.002-1.263.1-1.777.437-.603.395-1.23 1.247-.79 3.021l.398 1.214-.425.282a.5.5 0 0 0-.092.095c.118.318.344.596.434.646l.519.216-.125.504c-.006.07-.011.533.752.837l.42.167-.007 2.171c-.022.15-.29 1.482-2.78 2.072-.558.196-2.079.904-2.627 1.828ZM16.667 20H2v-.667c0-2.406 3.264-3.64 3.652-3.773 1.407-.337 1.612-.855 1.682-.995v-1.099c-.793-.456-1.088-1.117-1.156-1.626-.366-.321-.652-.816-.791-1.23-.167-.493.003-.92.24-1.221l-.122-.375c-.7-2.814.705-4.08 1.34-4.496.937-.613 2.348-.633 2.505-.634 1.005 0 1.688.605 2.01.976.509.093.98.385 1.33.833.366.466.912 1.512.474 3.274l-.153.442c.26.354.384.808.188 1.256-.182.415-.396.861-.705 1.161-.066.51-.36 1.18-1.16 1.64v1.114c.05.093.225.63 1.62.962.45.15 3.713 1.384 3.713 3.791V20Zm2.666-16.667H18V6h-2.667v1.333H18V10h1.333V7.333H22V6h-2.667V3.333Z" clip-rule="evenodd"/>
</svg>
