<svg xmlns="http://www.w3.org/2000/svg" width="24" height="24" viewBox="0 0 24 24">
  <path fill-rule="evenodd" clip-rule="evenodd" d="M12.78 3.8036L9.442 9.58426L8.30867 11.5483L8.79667 13.3703L7.278 15.9996H0V17.3336H6.508H10.6667H11.1273L12.2607 15.3696L14.082 14.8823L14.5533 14.0656L15.216 12.9183L20.22 4.25093L14.4467 0.916931L12.78 3.8036ZM13.9347 4.47093L14.9347 2.73826L18.3987 4.73826L17.3987 6.47026L13.9347 4.47093ZM10.6013 10.2443L13.2687 5.62493L16.7313 7.62493L14.0653 12.2436L10.6013 10.2443ZM10.0847 13.0249L9.74 11.7369L9.93467 11.3989L13.3987 13.3989L13.2033 13.7369L11.9153 14.0823L10.0847 13.0249ZM9.756 14.3749L10.9107 15.0416L10.3573 15.9996H8.81733L9.756 14.3749Z" />
</svg>
