<svg xmlns="http://www.w3.org/2000/svg" width="24" height="24" viewBox="0 0 24 24">
  <path fill-rule="evenodd" d="M12 20a1.33 1.33 0 0 1-1.148-.667h2.296A1.329 1.329 0 0 1 12 20Zm-4.666-5.333V9.333A4.672 4.672 0 0 1 12 4.667a4.672 4.672 0 0 1 4.667 4.666v5.334c0 1.148.41 2.31 1.156 3.333H6.177c.746-1.023 1.157-2.185 1.157-3.333Zm13.765 4.666-1.325-1.166c-1.127-.993-1.774-2.268-1.774-3.5V9.333a6.006 6.006 0 0 0-5.333-5.96V2h-1.333v1.373A6.006 6.006 0 0 0 6 9.333v5.334c0 1.232-.646 2.507-1.774 3.5l-1.325 1.166h6.527a2.664 2.664 0 0 0 2.572 2c1.24 0 2.274-.853 2.572-2H21.1Z" clip-rule="evenodd"/>
</svg>
