<svg width="25" height="20" viewBox="0 0 25 20" fill="none" xmlns="http://www.w3.org/2000/svg">
<rect x="0.5" y="0.5" width="20" height="16" rx="0.5" fill="white" stroke="#707070"/>
<path d="M7.57692 4.99405H19.3031C19.3744 5.00515 19.4473 5.00069 19.5167 4.98096C19.5861 4.96123 19.6504 4.92672 19.7053 4.87978C19.7601 4.83284 19.8041 4.77459 19.8342 4.70903C19.8644 4.64348 19.88 4.57217 19.88 4.5C19.88 4.42783 19.8644 4.35652 19.8342 4.29097C19.8041 4.22541 19.7601 4.16716 19.7053 4.12022C19.6504 4.07328 19.5861 4.03877 19.5167 4.01904C19.4473 3.99932 19.3744 3.99485 19.3031 4.00595H7.57692C7.50561 3.99485 7.43275 3.99932 7.36333 4.01904C7.29392 4.03877 7.22959 4.07328 7.17478 4.12022C7.11996 4.16716 7.07596 4.22541 7.04579 4.29097C7.01562 4.35652 7 4.42783 7 4.5C7 4.57217 7.01562 4.64348 7.04579 4.70903C7.07596 4.77459 7.11996 4.83284 7.17478 4.87978C7.22959 4.92672 7.29392 4.96123 7.36333 4.98096C7.43275 5.00069 7.50561 5.00515 7.57692 4.99405Z" fill="#707070"/>
<path d="M5.76 5.73599L3 4.67399V4.06199L5.76 2.99999V3.72599L4.704 4.07399L3.894 4.35599V4.37999L4.704 4.66199L5.76 5.00999V5.73599Z" fill="#707070"/>
<circle cx="15" cy="11" r="7.5" fill="white" stroke="#707070"/>
<line x1="20.5303" y1="16.4697" x2="23.5303" y2="19.4697" stroke="#707070" stroke-width="1.5"/>
<line x1="10.5" y1="11.5" x2="19.5" y2="11.5" stroke="#707070" stroke-linecap="round"/>
<path d="M19 8C19 9.65685 17.2091 11 15 11C12.7909 11 11 9.65685 11 8" stroke="#707070" stroke-linecap="round"/>
<path d="M11 15C11 13.3431 12.7909 12 15 12C17.2091 12 19 13.3431 19 15" stroke="#707070" stroke-linecap="round"/>
<path d="M12 10C12 9.44772 12.4477 9 13 9H17C17.5523 9 18 9.44772 18 10V12C18 13.6569 16.6569 15 15 15C13.3431 15 12 13.6569 12 12V10Z" fill="white" stroke="#707070"/>
<path d="M17 8.5C17 8.77614 16.7761 9 16.5 9L13.5 9C13.2239 9 13 8.77614 13 8.5C13 7.67157 13.6716 7 14.5 7L15.5 7C16.3284 7 17 7.67157 17 8.5Z" fill="white" stroke="#707070"/>
</svg>
