<svg xmlns="http://www.w3.org/2000/svg" width="24" height="24" viewBox="0 0 24 24">
  <path fill-rule="evenodd" d="M14 2v2.667h-4V2H6v2.667H3.334v15.999h17.332V4.667H18V2h-4Zm1.334 3.333v-2h1.333V6h-1.333v-.666Zm-8 0v-2h1.332V6H7.333v-.666Zm10.666 2V6h1.333v2.667H4.667V6H6v1.334h4V6h4v1.334h4Zm-13.333 12h14.667V10H4.667v9.333Z" clip-rule="evenodd"/>
  <path fill-rule="evenodd" d="M6 12.667h1.333v-1.334H6v1.334Zm2.667 0H10v-1.334H8.667v1.334Zm2.666 0h1.334v-1.334h-1.334v1.334Zm2.667 0h1.333v-1.334H14v1.334Zm2.667 0H18v-1.334h-1.333v1.334ZM6 15.333h1.333V14H6v1.333Zm2.667 0H10V14H8.667v1.333Zm2.666 0h1.334V14h-1.334v1.333Zm2.667 0h1.333V14H14v1.333Zm2.667 0H18V14h-1.333v1.333ZM6 18h1.333v-1.334H6V18Zm2.667 0H10v-1.334H8.667V18Zm2.666 0h1.334v-1.334h-1.334V18ZM14 18h1.333v-1.334H14V18Zm2.667 0H18v-1.334h-1.333V18Z" clip-rule="evenodd"/>
</svg>
