<svg width="32" height="25" viewBox="0 0 32 25" fill="none" xmlns="http://www.w3.org/2000/svg">
<rect width="32" height="25" rx="4" fill="#E81C66" fill-opacity="0.15"/>
<path d="M10.9614 8.01495C10.5737 8.01495 10.1948 8.1299 9.87254 8.34525C9.55024 8.5606 9.29905 8.86668 9.15071 9.22479C9.00237 9.58291 8.96356 9.97697 9.03918 10.3571C9.1148 10.7373 9.30146 11.0865 9.57555 11.3606C9.84964 11.6347 10.1988 11.8214 10.579 11.897C10.9592 11.9726 11.3532 11.9338 11.7114 11.7854C12.0695 11.6371 12.3756 11.3859 12.5909 11.0636C12.8063 10.7413 12.9212 10.3624 12.9212 9.97479C12.9212 9.71742 12.8705 9.46257 12.772 9.22479C12.6735 8.98702 12.5292 8.77096 12.3472 8.58898C12.1652 8.40699 11.9491 8.26263 11.7114 8.16414C11.4736 8.06565 11.2187 8.01495 10.9614 8.01495ZM10.9614 11.035C10.7496 11.035 10.5425 10.9722 10.3664 10.8545C10.1903 10.7369 10.053 10.5696 9.97194 10.3739C9.89088 10.1782 9.86967 9.96289 9.91099 9.75515C9.95232 9.54741 10.0543 9.35658 10.2041 9.20681C10.3539 9.05703 10.5447 8.95503 10.7524 8.91371C10.9602 8.87239 11.1755 8.8936 11.3712 8.97465C11.5669 9.05571 11.7342 9.19298 11.8518 9.36909C11.9695 9.54521 12.0323 9.75227 12.0323 9.96408C12.0323 10.2481 11.9195 10.5205 11.7186 10.7214C11.5178 10.9222 11.2454 11.035 10.9614 11.035ZM24.0591 4.99487H7.99483C7.73299 4.98772 7.47237 5.03312 7.22838 5.1284C6.98439 5.22368 6.76197 5.36691 6.57427 5.54962C6.38657 5.73232 6.2374 5.9508 6.13558 6.19214C6.03376 6.43347 5.98135 6.69277 5.98145 6.95471V19.0457C5.98426 19.5647 6.19164 20.0615 6.55858 20.4284C6.92551 20.7954 7.42237 21.0028 7.94128 21.0056H24.0591C24.578 21.0028 25.0749 20.7954 25.4418 20.4284C25.8087 20.0615 26.0161 19.5647 26.0189 19.0457V6.95471C26.0189 6.69734 25.9682 6.44249 25.8697 6.20471C25.7713 5.96693 25.6269 5.75088 25.4449 5.5689C25.2629 5.38691 25.0469 5.24255 24.8091 5.14406C24.5713 5.04556 24.3165 4.99487 24.0591 4.99487ZM25.13 19.0457C25.13 19.3298 25.0172 19.6022 24.8164 19.803C24.6155 20.0039 24.3431 20.1167 24.0591 20.1167H7.99483C7.81746 20.1146 7.64338 20.0685 7.48823 19.9825C7.33308 19.8965 7.20172 19.7734 7.10594 19.6241L11.6146 15.1154C11.7206 15.012 11.8628 14.9541 12.0109 14.9541C12.159 14.9541 12.3011 15.012 12.4071 15.1154L14.2063 16.9145C14.2883 16.9989 14.3994 17.0487 14.5169 17.0538C14.5805 17.052 14.6429 17.0367 14.7001 17.009C14.7574 16.9814 14.8081 16.9418 14.8489 16.8931L19.1327 11.774C19.1842 11.7101 19.2495 11.6586 19.3237 11.6233C19.3978 11.5881 19.479 11.57 19.5611 11.5705C19.6407 11.5696 19.7194 11.5864 19.7917 11.6198C19.8639 11.6531 19.9278 11.7021 19.9788 11.7633L25.1407 17.782L25.13 19.0457ZM25.13 16.3148L20.6428 11.0886C20.509 10.9349 20.3447 10.8108 20.1603 10.7242C19.9759 10.6375 19.7755 10.5902 19.5718 10.5852C19.3661 10.5908 19.164 10.6406 18.9792 10.7311C18.7945 10.8216 18.6313 10.9509 18.5009 11.11L14.5383 15.8543L12.9962 14.3978C12.718 14.1358 12.3502 13.9898 11.9681 13.9898C11.5859 13.9898 11.2181 14.1358 10.9399 14.3978L6.88104 18.4567V6.95471C6.88104 6.67068 6.99388 6.39828 7.19472 6.19744C7.39556 5.99659 7.66796 5.88376 7.95199 5.88376H24.0591C24.3431 5.88376 24.6155 5.99659 24.8164 6.19744C25.0172 6.39828 25.13 6.67068 25.13 6.95471V16.3148Z" fill="black"/>
</svg>
