<svg xmlns="http://www.w3.org/2000/svg" width="24" height="24" viewBox="0 0 24 24">
  <path fill-rule="evenodd" d="M14.829 8.229 12 11.057 9.171 8.23l-.942.942L11.057 12 8.23 14.829l.942.942L12 12.942l2.829 2.83.942-.944L12.943 12l2.827-2.83-.942-.942Z" clip-rule="evenodd"/>
  <path fill-rule="evenodd" d="M12 20.667c-4.779 0-8.667-3.888-8.667-8.667S7.221 3.333 12 3.333 20.667 7.221 20.667 12 16.779 20.667 12 20.667ZM12 2C6.486 2 2 6.486 2 12s4.486 10 10 10 10-4.486 10-10S17.514 2 12 2Z" clip-rule="evenodd"/>
</svg>
