<svg xmlns="http://www.w3.org/2000/svg" width="24" height="24" viewBox="0 0 24 24">
  <path fill-rule="evenodd" d="M12.606 3.308a8.927 8.927 0 0 0-1.289-.001l-.093-1.33a9.994 9.994 0 0 1 1.427 0l-.045 1.331Zm2.371.517a8.804 8.804 0 0 0-1.189-.346l.28-1.303c.466.1.929.234 1.374.399l-.465 1.25Zm-6.074.008-.469-1.248c.444-.166.905-.302 1.372-.404l.286 1.302a8.877 8.877 0 0 0-1.19.35Zm8.246 1.173a8.702 8.702 0 0 0-1.043-.669l.64-1.17c.417.226.823.486 1.205.771l-.802 1.068Zm-10.413.015-.802-1.066a9.972 9.972 0 0 1 1.201-.774l.642 1.169c-.36.197-.71.423-1.04.67ZM18.9 6.749a8.637 8.637 0 0 0-.812-.933l.943-.944c.338.335.653.698.939 1.078l-1.07.8Zm-13.91.017L3.918 5.97c.285-.38.6-.743.936-1.079l.946.941a8.911 8.911 0 0 0-.811.935Zm15.1 2.145a8.622 8.622 0 0 0-.516-1.122l1.172-.642c.23.418.43.854.596 1.297l-1.252.467Zm-16.284.022L2.552 8.47c.165-.445.365-.882.593-1.3l1.174.638a8.57 8.57 0 0 0-.514 1.125Zm16.814 2.39a8.926 8.926 0 0 0-.177-1.226l1.305-.284c.1.459.17.934.205 1.41l-1.333.1Zm-17.333.022-1.334-.092c.033-.473.1-.947.2-1.412l1.307.28a8.685 8.685 0 0 0-.173 1.224Zm18.466 2.716-1.307-.281c.086-.398.144-.81.173-1.224l1.334.093c-.033.477-.101.952-.2 1.412Zm-19.596.03a9.888 9.888 0 0 1-.204-1.412l1.332-.096c.03.41.09.822.178 1.224l-1.306.284Zm18.604 2.64-1.175-.635c.199-.365.372-.745.514-1.128l1.253.464c-.164.442-.363.88-.592 1.3Zm-17.601.027a9.969 9.969 0 0 1-.596-1.297l1.251-.468c.144.383.318.76.517 1.123l-1.172.642Zm15.893 2.254-.947-.942a8.79 8.79 0 0 0 .811-.936l1.071.798c-.285.38-.6.744-.935 1.08Zm-14.18.02c-.338-.338-.654-.7-.938-1.078l1.07-.8c.245.328.519.641.813.934l-.944.944Zm11.897 1.69-.643-1.17c.36-.196.71-.422 1.041-.67l.803 1.066a10.01 10.01 0 0 1-1.201.773Zm-9.61.015a10.026 10.026 0 0 1-1.205-.771l.802-1.068c.33.248.682.472 1.043.669l-.64 1.17Zm6.94.984-.287-1.302c.404-.09.805-.207 1.19-.35l.468 1.248a10.06 10.06 0 0 1-1.371.404Zm-4.263.006c-.464-.1-.926-.234-1.372-.399l.463-1.25c.387.143.788.259 1.19.346l-.28 1.303Zm2.15.224a9.414 9.414 0 0 1-.734-.025l.094-1.33a8.496 8.496 0 0 0 1.24 0l.097 1.33a9.42 9.42 0 0 1-.696.025Z" clip-rule="evenodd"/>
</svg>
