<svg width="8" height="8" viewBox="0 0 8 8" fill="none" xmlns="http://www.w3.org/2000/svg">
<path fill-rule="evenodd" clip-rule="evenodd" d="M8 4C8 6.20914 6.20914 8 4 8C1.79086 8 0 6.20914 0 4C0 1.79086 1.79086 0 4 0C6.20914 0 8 1.79086 8 4ZM2.04645 2.04645C2.24171 1.85118 2.55829 1.85118 2.75355 2.04645L4 3.29289L5.24645 2.04645C5.44171 1.85118 5.75829 1.85118 5.95355 2.04645C6.14882 2.24171 6.14882 2.55829 5.95355 2.75355L4.70711 4L5.95355 5.24645C6.14882 5.44171 6.14882 5.75829 5.95355 5.95355C5.75829 6.14882 5.44171 6.14882 5.24645 5.95355L4 4.70711L2.75355 5.95355C2.55829 6.14882 2.24171 6.14882 2.04645 5.95355C1.85118 5.75829 1.85118 5.44171 2.04645 5.24645L3.29289 4L2.04645 2.75355C1.85118 2.55829 1.85118 2.24171 2.04645 2.04645Z" fill="black"/>
</svg>
