<svg width="24" height="24" viewBox="0 0 24 24" fill="none" xmlns="http://www.w3.org/2000/svg">
  <path d="M12 2C6.48599 2 2 6.48602 2 12C2 17.514 6.48599 22 12 22C12.2282 22 12.4564 21.991 12.684 21.9744L12.587 20.6443C12.3916 20.6586 12.1958 20.6662 12 20.667C7.22101 20.667 3.33301 16.779 3.33301 12C3.33301 7.22101 7.22101 3.33301 12 3.33301C12.2021 3.33368 12.4043 3.34155 12.606 3.35632L12.651 2.02533C12.4343 2.00983 12.2171 2.00134 12 2Z" fill-rule="evenodd"/>
  <path d="M13.788 3.52734C14.192 3.61462 14.5893 3.73022 14.977 3.87335L15.442 2.62335C14.997 2.45831 14.534 2.32434 14.068 2.22437L13.788 3.52734Z" fill-rule="evenodd"/>
  <path d="M16.106 4.38531C16.4691 4.58325 16.8177 4.80682 17.149 5.05432L17.951 3.98633C17.569 3.70135 17.163 3.44135 16.746 3.21533L16.106 4.38531Z" fill-rule="evenodd"/>
  <path d="M18.088 5.86432C18.3806 6.15552 18.652 6.46735 18.9 6.79736L19.97 5.99835C19.684 5.61835 19.369 5.25531 19.031 4.92035L18.088 5.86432Z" fill-rule="evenodd"/>
  <path d="M19.574 7.83734C19.7726 8.19855 19.945 8.57349 20.09 8.95935L21.342 8.49231C21.176 8.04932 20.976 7.61334 20.746 7.19531L19.574 7.83734Z" fill-rule="evenodd"/>
  <path d="M20.443 10.1453C20.5303 10.5494 20.5895 10.959 20.62 11.3713L21.953 11.2714C21.918 10.7953 21.848 10.3203 21.748 9.86133L20.443 10.1453Z" fill-rule="evenodd"/>
  <path d="M20.446 13.8284L21.753 14.1093C21.852 13.6494 21.92 13.1743 21.953 12.6973L20.619 12.6044C20.59 13.0183 20.532 13.4304 20.446 13.8284Z" fill-rule="evenodd"/>
  <path d="M19.586 16.1443L20.761 16.7794C20.99 16.3594 21.189 15.9224 21.353 15.4803L20.1 15.0164C19.958 15.3994 19.785 15.7794 19.586 16.1443Z" fill-rule="evenodd"/>
  <path d="M18.106 18.1183L19.053 19.0604C19.388 18.7244 19.703 18.3604 19.988 17.9803L18.917 17.1823C18.669 17.513 18.398 17.8258 18.106 18.1183Z" fill-rule="evenodd"/>
  <path d="M16.127 19.6003L16.77 20.7693C17.1882 20.5406 17.5896 20.2823 17.971 19.9963L17.168 18.9304C16.837 19.1783 16.487 19.4044 16.127 19.6003Z" fill-rule="evenodd"/>
  <path d="M13.813 20.4673L14.1 21.7693C14.566 21.6674 15.0242 21.5323 15.471 21.3654L15.003 20.1173C14.618 20.2603 14.217 20.3773 13.813 20.4673Z" fill-rule="evenodd"/>
  <path d="M11 7H12.3333V11.3907L16.8047 15.862L15.862 16.8047L11 11.9427V7Z" fill-rule="evenodd"/>
</svg>
