<svg xmlns="http://www.w3.org/2000/svg" width="24" height="24" viewBox="0 0 24 24">
  <path fill-rule="evenodd" d="M5.683 8.35h2.9a11.36 11.36 0 0 1 1.94-5.527 6.355 6.355 0 0 0-4.84 5.527ZM12 3.004A10.06 10.06 0 0 0 9.887 8.35h4.228A10.062 10.062 0 0 0 12 3.004Zm2.115 6.646A10.062 10.062 0 0 1 12 14.996 10.059 10.059 0 0 1 9.887 9.65h4.228Zm-5.533 0H5.683a6.355 6.355 0 0 0 4.84 5.527 11.36 11.36 0 0 1-1.94-5.527Zm4.068 6.973a7.65 7.65 0 1 0-1.3 0v.807a2.654 2.654 0 0 0-1.92 1.92H3a.65.65 0 1 0 0 1.3h6.43a2.651 2.651 0 0 0 5.14 0H21a.65.65 0 1 0 0-1.3h-6.43a2.655 2.655 0 0 0-1.92-1.92v-.807Zm.828-1.446A11.36 11.36 0 0 0 15.42 9.65h2.897a6.355 6.355 0 0 1-4.839 5.527Zm4.84-6.827H15.42a11.36 11.36 0 0 0-1.942-5.527 6.355 6.355 0 0 1 4.84 5.527ZM12 18.65a1.35 1.35 0 1 0 0 2.7 1.35 1.35 0 0 0 0-2.7Z" clip-rule="evenodd"/>
</svg>
