<svg width="16" height="16" viewBox="0 0 16 16" xmlns="http://www.w3.org/2000/svg">
<path fill-rule="evenodd" clip-rule="evenodd" d="M3.33333 1.83325C2.8731 1.83325 2.5 2.20635 2.5 2.66659C2.5 3.12682 2.8731 3.49992 3.33333 3.49992C3.79357 3.49992 4.16667 3.12682 4.16667 2.66659C4.16667 2.20635 3.79357 1.83325 3.33333 1.83325ZM1.5 2.66659C1.5 1.65406 2.32081 0.833252 3.33333 0.833252C4.17252 0.833252 4.88001 1.39708 5.09766 2.16659L10.9023 2.16658C11.12 1.39708 11.8275 0.833252 12.6667 0.833252C13.6792 0.833252 14.5 1.65406 14.5 2.66659C14.5 3.67911 13.6792 4.49992 12.6667 4.49992C11.8275 4.49992 11.12 3.93609 10.9023 3.16658L8.5 3.16658V7.49992H10.9023C11.12 6.73042 11.8275 6.16658 12.6667 6.16658C13.6792 6.16658 14.5 6.9874 14.5 7.99992C14.5 9.01244 13.6792 9.83325 12.6667 9.83325C11.8275 9.83325 11.12 9.26942 10.9023 8.49992H8.5V10.1333C8.5 10.7016 8.50039 11.0977 8.52559 11.4061C8.55031 11.7087 8.5964 11.8826 8.66349 12.0142C8.8073 12.2965 9.03677 12.526 9.31901 12.6698C9.45069 12.7369 9.62454 12.7829 9.92712 12.8077C10.1786 12.8282 10.4885 12.8323 10.9024 12.8331C11.1201 12.0637 11.8276 11.4999 12.6667 11.4999C13.6792 11.4999 14.5 12.3207 14.5 13.3333C14.5 14.3458 13.6792 15.1666 12.6667 15.1666C11.8274 15.1666 11.1199 14.6027 10.9023 13.8331C10.4855 13.8324 10.1374 13.8282 9.84569 13.8043C9.48126 13.7746 9.16117 13.7117 8.86502 13.5608C8.39462 13.3211 8.01217 12.9386 7.77248 12.4682C7.62159 12.1721 7.55868 11.852 7.52891 11.4876C7.49999 11.1336 7.49999 10.6965 7.5 10.1546V3.16658L5.09766 3.16659C4.88001 3.93609 4.17252 4.49992 3.33333 4.49992C2.32081 4.49992 1.5 3.67911 1.5 2.66659ZM12.6667 1.83325C12.2064 1.83325 11.8333 2.20635 11.8333 2.66658C11.8333 3.12682 12.2064 3.49992 12.6667 3.49992C13.1269 3.49992 13.5 3.12682 13.5 2.66659C13.5 2.20635 13.1269 1.83325 12.6667 1.83325ZM12.6667 7.16658C12.2064 7.16658 11.8333 7.53968 11.8333 7.99992C11.8333 8.46016 12.2064 8.83325 12.6667 8.83325C13.1269 8.83325 13.5 8.46016 13.5 7.99992C13.5 7.53968 13.1269 7.16658 12.6667 7.16658ZM12.6667 12.4999C12.2064 12.4999 11.8333 12.873 11.8333 13.3333C11.8333 13.7935 12.2064 14.1666 12.6667 14.1666C13.1269 14.1666 13.5 13.7935 13.5 13.3333C13.5 12.873 13.1269 12.4999 12.6667 12.4999Z"/>
</svg>
