<svg width="30" height="30" viewBox="0 0 30 30" fill="none" xmlns="http://www.w3.org/2000/svg">
<circle cx="15" cy="15" r="14.5" stroke="black"/>
<path d="M20.3643 11.4581H9.03121C8.97069 11.453 8.90976 11.4603 8.85214 11.4795C8.79452 11.4987 8.74142 11.5294 8.69609 11.5698C8.65344 11.6137 8.62124 11.6666 8.6019 11.7246C8.58256 11.7827 8.57657 11.8443 8.58438 11.905L9.75222 22.0601C9.81708 22.5976 10.0776 23.0925 10.484 23.4503C10.8905 23.808 11.4144 24.0036 11.9559 23.9997H17.5818C18.1428 24.0092 18.6862 23.8043 19.1014 23.4269C19.5165 23.0495 19.7721 22.528 19.8159 21.9687L20.7705 11.8745C20.775 11.8217 20.7672 11.7686 20.7478 11.7193C20.7285 11.67 20.698 11.6258 20.6588 11.5902C20.5805 11.511 20.4755 11.4639 20.3643 11.4581ZM18.9629 21.8976C18.9273 22.2252 18.7695 22.5273 18.5211 22.7437C18.2727 22.9601 17.9518 23.075 17.6224 23.0654H11.9965C11.6736 23.0748 11.3591 22.9618 11.1161 22.7489C10.8732 22.5361 10.7197 22.2392 10.6865 21.9179L9.56943 12.3518H19.8769L18.9629 21.8976Z" fill="black"/>
<path d="M21.9991 9.03102H17.3988V8.2897C17.4098 7.96007 17.29 7.63947 17.0655 7.39786C16.841 7.15625 16.5301 7.01322 16.2005 7H13.3165C12.9905 7.00261 12.6784 7.13259 12.4469 7.36218C12.2154 7.59177 12.0828 7.90277 12.0776 8.22877V9.03102H7.44682C7.33176 9.0309 7.22108 9.07518 7.13784 9.15463C7.05461 9.23408 7.00523 9.34258 7 9.45753C7 9.57604 7.04708 9.68969 7.13087 9.77349C7.21467 9.85728 7.32832 9.90436 7.44682 9.90436H21.9991C22.1176 9.90436 22.2313 9.85728 22.315 9.77349C22.3988 9.68969 22.4459 9.57604 22.4459 9.45753C22.4407 9.34258 22.3913 9.23408 22.3081 9.15463C22.2248 9.07518 22.1142 9.0309 21.9991 9.03102ZM16.5052 8.2897V9.03102H12.9407V8.2897C12.9292 8.19688 12.9547 8.10324 13.0117 8.0291C13.0688 7.95496 13.1527 7.9063 13.2454 7.89365H16.1396C16.1863 7.8909 16.2331 7.8974 16.2772 7.91277C16.3214 7.92814 16.3621 7.95208 16.397 7.98321C16.4319 8.01434 16.4604 8.05206 16.4807 8.0942C16.501 8.13633 16.5127 8.18207 16.5153 8.22877C16.5153 8.22877 16.5052 8.26939 16.5052 8.2897Z" fill="black"/>
<path d="M14.718 13.4487C14.5986 13.4514 14.4849 13.5007 14.4014 13.5861C14.3179 13.6715 14.2712 13.7863 14.2712 13.9057V21.5017C14.2614 21.5668 14.2658 21.6331 14.284 21.6963C14.3022 21.7595 14.3339 21.818 14.3768 21.8678C14.4197 21.9177 14.4728 21.9576 14.5326 21.9851C14.5923 22.0125 14.6573 22.0267 14.7231 22.0267C14.7888 22.0267 14.8538 22.0125 14.9136 21.9851C14.9733 21.9576 15.0265 21.9177 15.0694 21.8678C15.1123 21.818 15.1439 21.7595 15.1622 21.6963C15.1804 21.6331 15.1847 21.5668 15.175 21.5017V13.9057C15.175 13.7845 15.1268 13.6683 15.0411 13.5826C14.9554 13.4969 14.8392 13.4487 14.718 13.4487Z" fill="black"/>
</svg>
