<svg width="24" height="23" viewBox="0 0 24 23" fill="none" xmlns="http://www.w3.org/2000/svg">
<g clip-path="url(#clip0)">
<path d="M23.8021 2.81841C23.788 2.80525 20.9685 0.20368 20.9685 0.20368C20.8607 0.103428 20.7491 0 20.541 0H9.19159C8.86018 0 8.59019 0.260838 8.59019 0.582009V2.36841L4.59034 3.03207C4.26972 3.08651 4.05409 3.38363 4.1094 3.69346L4.31237 4.83888C3.01253 5.26212 1.678 5.69851 0.388934 6.1467C0.0842468 6.25466 -0.0755969 6.58219 0.0331531 6.87841L5.88456 22.6226C5.97268 22.8553 6.20003 23 6.44097 23C6.50753 23 6.57503 22.9891 6.64065 22.9655L10.2346 21.7149L18.395 18.8765L19.9541 18.6179H23.398C23.7294 18.6179 23.9994 18.3562 23.9994 18.035V3.20173C23.9994 2.99805 23.885 2.89417 23.8021 2.81841ZM22.8707 2.8987H21.1114H21.0678C20.9835 2.89916 20.7866 2.90052 20.7364 2.85243C20.7247 2.84154 20.7116 2.80435 20.7116 2.73539L20.7074 0.901818L22.8707 2.8987ZM9.9969 21.0748L6.508 22.2887L0.732997 6.75003C1.94706 6.32951 3.20425 5.91762 4.43284 5.51751L5.64081 12.3329L7.03065 20.182C7.08081 20.4592 7.33253 20.6561 7.61659 20.6561C7.64893 20.6561 7.68128 20.6534 7.71409 20.6484L11.4791 20.0233L14.421 19.5352L9.9969 21.0748ZM11.3605 19.3528L7.70518 19.9598L6.33409 12.2181L4.82143 3.68394L8.59065 3.05883V12.1936C8.59065 12.1941 8.59065 12.1941 8.59065 12.1945V18.0346C8.59065 18.3562 8.86018 18.6175 9.19206 18.6175H15.7925L11.3605 19.3528ZM23.2963 17.937H9.29378V11.3068C9.29378 11.3063 9.29378 11.3063 9.29378 11.3058V0.680447H20.0033L20.008 2.73676C20.008 2.9858 20.0863 3.18767 20.241 3.336C20.4782 3.56418 20.8138 3.58006 21.0219 3.58006C21.0397 3.58006 21.0566 3.58006 21.0725 3.5796H23.2963V17.937Z" fill="black"/>
<path d="M10.9893 5.28163C10.9893 5.46943 11.1468 5.62185 11.3408 5.62185H21.3927C21.5868 5.62185 21.7443 5.46943 21.7443 5.28163C21.7443 5.09383 21.5868 4.94141 21.3927 4.94141H11.3408C11.1468 4.94141 10.9893 5.09337 10.9893 5.28163Z" fill="black"/>
<path d="M21.3927 7.35938H11.3408C11.1468 7.35938 10.9893 7.5118 10.9893 7.6996C10.9893 7.8874 11.1468 8.03982 11.3408 8.03982H21.3927C21.5868 8.03982 21.7443 7.8874 21.7443 7.6996C21.7443 7.5118 21.5868 7.35938 21.3927 7.35938Z" fill="black"/>
<path d="M21.3927 9.77734H11.3408C11.1468 9.77734 10.9893 9.92976 10.9893 10.1176C10.9893 10.3054 11.1468 10.4578 11.3408 10.4578H21.3927C21.5868 10.4578 21.7443 10.3054 21.7443 10.1176C21.7443 9.92976 21.5868 9.77734 21.3927 9.77734Z" fill="black"/>
<path d="M21.3927 12.1934H11.3408C11.1468 12.1934 10.9893 12.3458 10.9893 12.5336C10.9893 12.7214 11.1468 12.8738 11.3408 12.8738H21.3927C21.5868 12.8738 21.7443 12.7214 21.7443 12.5336C21.7443 12.3458 21.5868 12.1934 21.3927 12.1934Z" fill="black"/>
<path d="M21.3927 14.6113H11.3408C11.1468 14.6113 10.9893 14.7637 10.9893 14.9516C10.9893 15.1394 11.1468 15.2918 11.3408 15.2918H21.3927C21.5868 15.2918 21.7443 15.1394 21.7443 14.9516C21.7443 14.7633 21.5868 14.6113 21.3927 14.6113Z" fill="black"/>
</g>
<defs>
<clipPath id="clip0">
<rect width="24" height="23" fill="white"/>
</clipPath>
</defs>
</svg>
