<svg width="30" height="30" viewBox="0 0 30 30" fill="none" xmlns="http://www.w3.org/2000/svg">
  <g clip-path="url(#clip0)">
  <path d="M15.0059 4.67605e-06C12.0375 -0.00233818 9.13513 0.875752 6.66586 2.5232C4.19659 4.17065 2.2714 6.51343 1.13383 9.2552C-0.00375304 11.997 -0.302611 15.0145 0.275058 17.9262C0.852726 20.8378 2.28097 23.5127 4.37911 25.6125C6.47725 27.7123 9.15103 29.1427 12.0622 29.7226C14.9734 30.3026 17.9912 30.0061 20.7339 28.8707C23.4765 27.7353 25.8208 25.812 27.4702 23.344C29.1196 20.876 30 17.9743 30 15.0059C29.9969 11.0291 28.4165 7.21592 25.6056 4.40278C22.7947 1.58964 18.9827 0.00627601 15.0059 4.67605e-06ZM15.0059 28.8156C12.2713 28.818 9.59739 28.0091 7.32263 26.4912C5.04787 24.9734 3.2745 22.8149 2.22691 20.2888C1.17932 17.7628 0.904607 14.9828 1.43754 12.3005C1.97047 9.61832 3.28709 7.15447 5.22078 5.22077C7.15447 3.28708 9.61832 1.97046 12.3005 1.43753C14.9828 0.904603 17.7628 1.17931 20.2888 2.2269C22.8149 3.27449 24.9734 5.04787 26.4912 7.32263C28.0091 9.59739 28.818 12.2713 28.8156 15.0059C28.8125 18.6675 27.3565 22.1783 24.7674 24.7674C22.1783 27.3565 18.6675 28.8125 15.0059 28.8156Z" fill="#E81C66"/>
  <path d="M23.0952 9.22621C23.0739 8.78464 22.9294 8.35785 22.6782 7.99411C22.4269 7.63038 22.0789 7.34421 21.6734 7.16798C21.268 6.99176 20.8213 6.93251 20.384 6.99694C19.9466 7.06137 19.536 7.24691 19.1986 7.53257L9.01306 17.6944L12.4359 20.9277L22.3964 10.8843L22.503 10.7659C22.8882 10.3461 23.0998 9.79589 23.0952 9.22621Z" fill="#E81C66"/>
  <path d="M8.34977 18.3695L6.90485 23.0952L11.7607 21.6029H11.7726L8.34977 18.3695Z" fill="#E81C66"/>
  </g>
  <defs>
  <clipPath id="clip0">
  <rect width="30" height="30" fill="white"/>
  </clipPath>
  </defs>
  </svg>
