<svg xmlns="http://www.w3.org/2000/svg" width="24" height="24" viewBox="0 0 24 24">
  <path fill-rule="evenodd" d="m19.388 5.913-.757.758-1.179-1.179.757-.757 1.179 1.178Zm-8.781 8.62-1.2.357-.226-.227.398-1.16 1.028 1.03Zm5.345-7.54.557-.558 1.179 1.178-.557.558-1.179-1.179Zm.236 2.12-4.557 4.558-1.179-1.18 4.557-4.556 1.179 1.178ZM6.967 17.01l4.577-1.366 8.905-8.905a1.168 1.168 0 0 0 0-1.65l-1.414-1.413c-.441-.442-1.21-.442-1.65 0L8.49 12.569l-1.523 4.44Z" clip-rule="evenodd"/>
  <path fill-rule="evenodd" d="M19.333 19.333H4.667V4.667h10V3.333H3.333v17.334h17.334V9.333h-1.334v10Z" clip-rule="evenodd"/>
</svg>
