<svg width="31" height="35" viewBox="0 0 31 35" fill="none" xmlns="http://www.w3.org/2000/svg">
<path fill-rule="evenodd" clip-rule="evenodd" d="M3.21427 0H27.6714C28.5857 0 29.3857 0.8 29.5 1.71429V16.925L30.2838 16.5491C30.4388 16.4749 30.621 16.4853 30.7664 16.5769C30.9118 16.6684 31 16.8282 31 17V34C31 34.2761 30.7761 34.5 30.5 34.5H0.5C0.223858 34.5 0 34.2761 0 34V17C0 16.8253 0.0911435 16.6633 0.240425 16.5727C0.389706 16.482 0.575484 16.4758 0.730482 16.5563L1.49998 16.956V1.71429C1.49998 0.8 2.29998 0 3.21427 0ZM2.52855 17.4903L11.6396 22.223C11.6848 22.2464 11.7249 22.2758 11.7594 22.3097L14.7365 19.4074C14.8492 19.2975 15.0032 19.2502 15.1521 19.2656C15.2624 19.276 15.37 19.3207 15.456 19.4001L18.4931 22.2026L28.2489 17.5249C28.259 10.7335 28.2859 1.71429 28.3571 1.71429C28.3571 1.37143 28.0143 1.02857 27.6714 1.02857H3.21427C2.87141 1.02857 2.52855 1.37143 2.52855 1.71429V17.4903ZM6.18567 6.74285H24.8142C25.1571 6.74285 25.3857 6.39999 25.3857 6.17142C25.3857 5.82856 25.1571 5.59999 24.8142 5.59999H6.18567C5.84281 5.59999 5.61424 5.82856 5.61424 6.17142C5.61424 6.51428 5.84281 6.74285 6.18567 6.74285ZM24.8142 10.1429H6.18567C5.84281 10.1429 5.61424 9.91429 5.61424 9.57143C5.61424 9.22857 5.84281 9 6.18567 9H24.8142C25.1571 9 25.3857 9.22857 25.3857 9.57143C25.3857 9.91429 25.1571 10.1429 24.8142 10.1429ZM6.18567 13.1429H15.2142C15.5571 13.1429 15.9 12.9143 15.7857 12.5714C15.7857 12.2286 15.5571 12 15.2142 12H6.18567C5.84281 12 5.61424 12.2286 5.61424 12.5714C5.61424 12.9143 5.84281 13.1429 6.18567 13.1429ZM30 32.8208L19.284 22.9324L30 17.7942V32.8208ZM15.1131 20.4421L29.264 33.5H1.71894L15.1131 20.4421ZM11.0217 23.0289L1 17.8232V32.799L11.0217 23.0289Z" fill="#6EB0EC"/>
</svg>
