<svg xmlns="http://www.w3.org/2000/svg" width="24" height="24" viewBox="0 0 24 24">
  <path fill-rule="evenodd" d="M12.032 18a9.352 9.352 0 0 1-4.106-.951l1.316-1.317c.78.584 1.743.935 2.79.935A4.672 4.672 0 0 0 16.698 12a4.64 4.64 0 0 0-.934-2.79l1.563-1.563c1.537 1.058 2.732 2.567 3.337 4.353-1.2 3.543-4.72 6-8.632 6Zm-3.334-6a3.337 3.337 0 0 1 3.334-3.333c.678 0 1.308.206 1.835.555l-1.783 1.784c-.018-.002-.034-.006-.052-.006a1 1 0 0 0-1 1c0 .018.004.035.005.052l-1.783 1.784A3.313 3.313 0 0 1 8.698 12Zm6.667 0a3.337 3.337 0 0 1-3.333 3.334 3.312 3.312 0 0 1-1.836-.556l1.784-1.783c.017.001.034.005.052.005a1 1 0 0 0 1-1c0-.018-.004-.034-.006-.052l1.784-1.783c.349.527.555 1.157.555 1.835ZM3.399 12c1.2-3.543 4.72-6 8.633-6 1.456 0 2.858.341 4.106.951L14.82 8.268a4.635 4.635 0 0 0-2.79-.935A4.672 4.672 0 0 0 7.366 12c0 1.047.35 2.01.935 2.79l-1.564 1.563C5.2 15.295 4.004 13.786 3.4 12Zm18.603-.198c-.648-2.083-1.983-3.853-3.72-5.11l2.22-2.22-.942-.943-2.44 2.44a10.67 10.67 0 0 0-5.088-1.302c-4.564 0-8.664 2.934-9.97 7.135L2 12l.062.198c.647 2.083 1.982 3.853 3.72 5.11l-2.222 2.22.943.944 2.44-2.44a10.67 10.67 0 0 0 5.089 1.302c4.564 0 8.664-2.934 9.97-7.136l.06-.198-.06-.198Z" clip-rule="evenodd"/>
</svg>
