<svg width="18" height="9" viewBox="0 0 18 9" fill="none" xmlns="http://www.w3.org/2000/svg">
<path d="M15.4 1C15.4 1 15.1437 1.54959 14.6 2.24719M9 5.11765C7.71361 5.11765 6.63829 4.77815 5.75889 4.29412M9 5.11765C10.2864 5.11765 11.3617 4.77815 12.2411 4.29412M9 5.11765V8M2.6 1C2.6 1 2.88294 1.60679 3.48502 2.35451M5.75889 4.29412L3.4 6.76471M5.75889 4.29412C4.75136 3.73956 4.001 2.99529 3.48502 2.35451M12.2411 4.29412L14.2 6.76471M12.2411 4.29412C13.3054 3.7083 14.0828 2.91078 14.6 2.24719M3.48502 2.35451L1 3.47059M14.6 2.24719L17 3.47059" stroke="#707070" stroke-linecap="round"/>
</svg>
