<svg xmlns="http://www.w3.org/2000/svg" width="24" height="24" viewBox="0 0 24 24">
  <path fill-rule="evenodd" d="M12.032 11a1 1 0 1 0 0 2 1 1 0 0 0 0-2Z" clip-rule="evenodd"/>
  <path fill-rule="evenodd" d="M12.031 15.333A3.337 3.337 0 0 1 8.698 12a3.337 3.337 0 0 1 3.333-3.334A3.337 3.337 0 0 1 15.365 12a3.337 3.337 0 0 1-3.334 3.333Zm0-8A4.672 4.672 0 0 0 7.365 12a4.672 4.672 0 0 0 4.666 4.666A4.672 4.672 0 0 0 16.698 12a4.672 4.672 0 0 0-4.667-4.667Z" clip-rule="evenodd"/>
  <path fill-rule="evenodd" d="M12.032 18c-3.914 0-7.432-2.457-8.633-6 1.2-3.543 4.72-6 8.633-6 3.913 0 7.432 2.457 8.632 6-1.2 3.543-4.72 6-8.632 6Zm9.97-6.198c-1.306-4.201-5.406-7.135-9.97-7.135-4.564 0-8.664 2.934-9.97 7.135L2 12l.062.198c1.306 4.201 5.406 7.135 9.97 7.135 4.564 0 8.664-2.934 9.97-7.135l.06-.198-.06-.198Z" clip-rule="evenodd"/>
</svg>
