<svg width="19" height="18" viewBox="0 0 16 15" xmlns="http://www.w3.org/2000/svg">
<path d="M11.0881 3.20851C10.1268 2.72315 9.06576 2.46182 7.98636 2.44458C6.91 2.46287 5.85213 2.72418 4.89369 3.20851C4.00634 3.65287 3.18085 4.2087 2.43775 4.8622C1.52242 5.64476 0.704134 6.53171 0 7.5045C0.690703 8.47153 1.49699 9.35267 2.40136 10.1288C3.14356 10.786 3.96914 11.3449 4.85731 11.7915C5.81575 12.2758 6.87361 12.5371 7.94997 12.5554C9.02937 12.5382 10.0904 12.2769 11.0517 11.7915C11.9412 11.347 12.767 10.7879 13.5077 10.1288C14.4144 9.35504 15.221 8.4736 15.909 7.5045C15.2162 6.53372 14.4102 5.64686 13.5077 4.8622C12.7758 4.21125 11.9627 3.65551 11.0881 3.20851ZM14.8812 7.46855V7.53146C14.108 8.51109 11.3064 11.6836 7.98636 11.6836C6.11836 11.5468 4.3579 10.7677 3.0108 9.48173C2.31315 8.87958 1.67367 8.21464 1.10063 7.49551V7.4326C1.87379 6.45297 4.67538 3.24446 7.98636 3.24446C9.86228 3.38907 11.6269 4.18129 12.971 5.48233C13.6687 6.08448 14.3081 6.74941 14.8812 7.46855ZM7.98636 4.29599C7.3441 4.29599 6.71627 4.48416 6.18225 4.83672C5.64824 5.18927 5.23202 5.69037 4.98624 6.27665C4.74046 6.86293 4.67615 7.50806 4.80145 8.13044C4.92675 8.75283 5.23602 9.32454 5.69017 9.77325C6.14431 10.222 6.72292 10.5276 7.35284 10.6514C7.98275 10.7752 8.63568 10.7116 9.22904 10.4688C9.82241 10.2259 10.3296 9.81468 10.6864 9.28705C11.0432 8.75941 11.2337 8.13908 11.2337 7.5045C11.2337 7.08315 11.1497 6.66593 10.9865 6.27665C10.8233 5.88738 10.5841 5.53368 10.2825 5.23574C9.981 4.9378 9.62302 4.70146 9.22904 4.54022C8.83506 4.37898 8.4128 4.29599 7.98636 4.29599ZM7.98636 9.8592C7.51282 9.8592 7.04994 9.72034 6.65634 9.46021C6.26274 9.20009 5.95613 8.8304 5.77533 8.39797C5.59454 7.96553 5.5477 7.48981 5.64074 7.03106C5.73379 6.57231 5.96253 6.15115 6.29801 5.82095C6.63348 5.49074 7.0606 5.26633 7.52525 5.17614C7.9899 5.08596 8.47119 5.13405 8.90816 5.31433C9.34513 5.49461 9.71811 5.79897 9.97988 6.18886C10.2417 6.57875 10.3804 7.03662 10.3786 7.5045C10.3822 7.81674 10.323 8.12657 10.2043 8.41597C10.0855 8.70537 9.90976 8.96854 9.68714 9.19018C9.46451 9.41182 9.19949 9.5875 8.90751 9.70698C8.61552 9.82647 8.30239 9.88737 7.98636 9.88616V9.8592Z"/>
</svg>
