<svg width="16" height="16" viewBox="0 0 16 16" xmlns="http://www.w3.org/2000/svg">
  <path fill-rule="evenodd" clip-rule="evenodd" d="M8.83329 1.86974C8.67926 1.8362 8.49758 1.83327 8.00781 1.83327H5.86663C5.29832 1.83327 4.90217 1.83366 4.59375 1.85886C4.29116 1.88358 4.11732 1.92967 3.98564 1.99676C3.7034 2.14057 3.47393 2.37004 3.33012 2.65229C3.26302 2.78397 3.21694 2.95781 3.19221 3.26039C3.16702 3.56881 3.16663 3.96497 3.16663 4.53327V11.4666C3.16663 12.0349 3.16702 12.4311 3.19221 12.7395C3.21694 13.0421 3.26302 13.2159 3.33012 13.3476C3.47393 13.6298 3.7034 13.8593 3.98564 14.0031C4.11732 14.0702 4.29116 14.1163 4.59375 14.141C4.90217 14.1662 5.29832 14.1666 5.86663 14.1666H10.1333C10.7016 14.1666 11.0978 14.1662 11.4062 14.141C11.7088 14.1163 11.8826 14.0702 12.0143 14.0031C12.2965 13.8593 12.526 13.6298 12.6698 13.3476C12.7369 13.2159 12.783 13.0421 12.8077 12.7395C12.8329 12.4311 12.8333 12.0349 12.8333 11.4666V6.65876C12.8333 6.16904 12.8304 5.98734 12.7968 5.83332L10.3825 5.83332C10.2108 5.83333 10.0532 5.83334 9.92138 5.82258C9.77929 5.81097 9.62384 5.78439 9.4703 5.70616C9.25078 5.59431 9.0723 5.41583 8.96045 5.19631C8.88222 5.04277 8.85565 4.88732 8.84404 4.74524C8.83327 4.61345 8.83328 4.4558 8.83329 4.28414L8.83329 1.86974ZM9.53102 1.05358C9.38877 0.989547 9.24062 0.938875 9.08848 0.902349C8.79983 0.83305 8.49916 0.833137 8.06479 0.833262C8.04605 0.833268 8.02706 0.833273 8.00781 0.833273L5.84522 0.833273C5.30333 0.833268 4.86625 0.833264 4.51231 0.862182C4.14789 0.891957 3.8278 0.954863 3.53165 1.10576C3.06124 1.34544 2.67879 1.72789 2.43911 2.1983C2.28822 2.49444 2.22531 2.81454 2.19554 3.17896C2.16662 3.5329 2.16662 3.96998 2.16663 4.51187V11.488C2.16662 12.0299 2.16662 12.467 2.19554 12.8209C2.22531 13.1853 2.28822 13.5054 2.43911 13.8016C2.67879 14.272 3.06124 14.6544 3.53165 14.8941C3.8278 15.045 4.14789 15.1079 4.51231 15.1377C4.86625 15.1666 5.30332 15.1666 5.84521 15.1666H10.1547C10.6966 15.1666 11.1337 15.1666 11.4876 15.1377C11.852 15.1079 12.1721 15.045 12.4683 14.8941C12.9387 14.6544 13.3211 14.272 13.5608 13.8016C13.7117 13.5054 13.7746 13.1853 13.8044 12.8209C13.8333 12.467 13.8333 12.0299 13.8333 11.488V6.65876C13.8333 6.63951 13.8333 6.62053 13.8333 6.60179C13.8334 6.16741 13.8335 5.86674 13.7642 5.57809C13.7278 5.42641 13.6773 5.2787 13.6136 5.13684C13.6106 5.12991 13.6075 5.12306 13.6042 5.11629C13.563 5.0268 13.5165 4.9397 13.4649 4.85545C13.3098 4.60234 13.0971 4.3898 12.7899 4.08273C12.7766 4.06949 12.7632 4.05607 12.7496 4.04246L10.6241 1.91698C10.6105 1.90337 10.5971 1.88994 10.5838 1.87669C10.2768 1.56945 10.0642 1.35678 9.81111 1.20167C9.72651 1.14983 9.63902 1.10314 9.54912 1.06181C9.54315 1.05895 9.53712 1.05621 9.53102 1.05358ZM9.83329 2.54049V4.26665C9.83329 4.46159 9.83368 4.57772 9.84072 4.6638C9.84501 4.71634 9.85067 4.73843 9.85251 4.74435C9.86819 4.77411 9.89251 4.79842 9.92227 4.8141C9.92819 4.81594 9.95027 4.82161 10.0028 4.8259C10.0889 4.83293 10.205 4.83332 10.4 4.83332H12.1261C12.0998 4.80687 12.0719 4.779 12.0425 4.74957L9.917 2.62409C9.88758 2.59467 9.85973 2.56684 9.83329 2.54049ZM9.92054 4.8135C9.92056 4.81349 9.92163 4.81384 9.92227 4.8141ZM9.85311 4.74607C9.8531 4.74609 9.85274 4.74506 9.85251 4.74435ZM7.02018 7.97972C7.21544 8.17498 7.21544 8.49156 7.02018 8.68683L5.70707 9.99994L7.02018 11.3131C7.21544 11.5083 7.21544 11.8249 7.02018 12.0202C6.82492 12.2154 6.50834 12.2154 6.31307 12.0202L4.64641 10.3535C4.55264 10.2597 4.49996 10.1325 4.49996 9.99994C4.49996 9.86733 4.55264 9.74015 4.64641 9.64639L6.31307 7.97972C6.50834 7.78446 6.82492 7.78446 7.02018 7.97972ZM8.97974 8.68683C8.78448 8.49156 8.78448 8.17498 8.97974 7.97972C9.175 7.78446 9.49158 7.78446 9.68685 7.97972L11.3535 9.64639C11.4473 9.74015 11.5 9.86733 11.5 9.99994C11.5 10.1325 11.4473 10.2597 11.3535 10.3535L9.68685 12.0202C9.49158 12.2154 9.175 12.2154 8.97974 12.0202C8.78448 11.8249 8.78448 11.5083 8.97974 11.3131L10.2929 9.99994L8.97974 8.68683Z"/>
</svg>
