<svg xmlns="http://www.w3.org/2000/svg" width="24" height="24" viewBox="0 0 24 24">
  <path fill-rule="evenodd" d="M4.666 2v20h14.668V7.724L13.609 2H4.666ZM6 3.334h6.667v5.333H18v12H6V3.334Zm8 .942 3.057 3.058H14V4.276Z" clip-rule="evenodd"/>
  <path d="M7.275 17v-3.636h1.502c.273 0 .508.053.705.16.2.105.352.252.46.442a1.3 1.3 0 0 1 .162.657c0 .25-.055.47-.165.658a1.107 1.107 0 0 1-.467.435 1.573 1.573 0 0 1-.721.155h-.927v-.693h.763a.714.714 0 0 0 .332-.069.475.475 0 0 0 .205-.194.6.6 0 0 0 .069-.292.583.583 0 0 0-.07-.292.465.465 0 0 0-.204-.191.737.737 0 0 0-.332-.068h-.433V17h-.879Zm4.606 0h-1.344v-3.636h1.342c.37 0 .69.072.957.218.269.144.476.353.622.625.145.271.218.595.218.973 0 .379-.073.704-.218.977-.145.272-.351.48-.62.626-.269.145-.588.217-.957.217Zm-.465-.75h.431c.204 0 .376-.034.517-.102a.681.681 0 0 0 .321-.34c.074-.157.11-.366.11-.628s-.036-.47-.11-.625a.679.679 0 0 0-.325-.337 1.184 1.184 0 0 0-.525-.105h-.42v2.138Zm2.773.75v-3.636h2.483v.713h-1.604v.746h1.446v.716h-1.446V17h-.879Z"/>
</svg>
