<svg width="27" height="27" viewBox="0 0 27 27" fill="none" xmlns="http://www.w3.org/2000/svg">
  <path d="M24.6625 10.1327H23.4576V7.8676C23.4576 7.54807 23.3307 7.24162 23.1047 7.01567C22.8788 6.78972 22.5723 6.66279 22.2528 6.66279H12.9275L11.048 4.08447H3.81908C3.49954 4.08447 3.19309 4.21141 2.96714 4.43736C2.74119 4.6633 2.61426 4.96975 2.61426 5.28929V21.976C2.63906 22.176 2.71363 22.3666 2.83113 22.5303C2.93646 22.6623 3.07029 22.7688 3.22259 22.8418C3.3749 22.9148 3.54174 22.9525 3.71064 22.9519H20.795C21.0291 22.9522 21.2572 22.8775 21.4458 22.7387C21.6345 22.6 21.7737 22.4045 21.8432 22.1809L25.7347 11.4941V11.3857C25.7488 11.0796 25.6458 10.7797 25.4466 10.547C25.2474 10.3142 24.967 10.166 24.6625 10.1327ZM7.51787 11.205C7.52473 11.1879 7.53631 11.1732 7.55126 11.1625C7.5662 11.1519 7.58387 11.1457 7.60221 11.1447H24.6625C24.6625 11.1447 24.7227 11.205 24.7347 11.3134L20.8793 21.8676C20.8764 21.8878 20.8662 21.9063 20.8507 21.9196C20.8352 21.9329 20.8154 21.9401 20.795 21.9399H3.73474C3.70702 21.9465 3.67812 21.9465 3.6504 21.9399H3.61426L7.51787 11.205ZM22.4576 10.1327H7.60221H7.42149C7.22161 10.1639 7.03444 10.2503 6.88114 10.3824C6.72785 10.5144 6.61453 10.6866 6.55402 10.8797L3.61426 18.8797V5.20495C3.61426 5.16341 3.63076 5.12358 3.66013 5.0942C3.68951 5.06483 3.72934 5.04833 3.77088 5.04833H10.4938L12.3733 7.66279H22.2528C22.2744 7.66112 22.296 7.66394 22.3165 7.67106C22.3369 7.67819 22.3556 7.68946 22.3714 7.70417C22.3873 7.71889 22.3999 7.73672 22.4085 7.75655C22.4171 7.77639 22.4216 7.79779 22.4215 7.81941L22.4576 10.1327Z" fill="black"/>
  </svg>
