<svg width="24" height="24" viewBox="0 0 24 24" fill="none" xmlns="http://www.w3.org/2000/svg">
  <path fill-rule="evenodd" clip-rule="evenodd" d="M3.33333 15.3333H8.66667V8.66667H3.33333V15.3333ZM10 15.3333H20.6667V8.66667H10V15.3333ZM22 16.6667V7.33333H10V6C10 5.26467 10.598 4.66667 11.3333 4.66667V3.33333C10.5333 3.33333 9.82267 3.69467 9.33333 4.25467C8.844 3.69467 8.13333 3.33333 7.33333 3.33333V4.66667C8.06867 4.66667 8.66667 5.26467 8.66667 6V7.33333H2V16.6667H8.66667V18C8.66667 18.7353 8.06867 19.3333 7.33333 19.3333V20.6667C8.13333 20.6667 8.844 20.3053 9.33333 19.7453C9.82267 20.3053 10.5333 20.6667 11.3333 20.6667V19.3333C10.598 19.3333 10 18.7353 10 18V16.6667H22Z"/>
</svg>
