<svg xmlns="http://www.w3.org/2000/svg" width="24" height="24" viewBox="0 0 24 24">
  <path fill-rule="evenodd" d="M12 14c-1.103 0-2-.898-2-2 0-1.103.897-2 2-2s2 .897 2 2c0 1.102-.897 2-2 2Zm0-5.334A3.337 3.337 0 0 0 8.667 12 3.337 3.337 0 0 0 12 15.333 3.337 3.337 0 0 0 15.333 12 3.337 3.337 0 0 0 12 8.666Z" clip-rule="evenodd"/>
  <path fill-rule="evenodd" d="m18.218 18.038-.18.18-2.312-1.496-.366.248a5.922 5.922 0 0 1-2.222.918l-.433.083-.577 2.695h-.256l-.578-2.695-.433-.084a5.922 5.922 0 0 1-2.222-.917l-.365-.248-2.312 1.496-.18-.18 1.495-2.312-.248-.366a5.939 5.939 0 0 1-.918-2.222l-.083-.433-2.695-.578v-.255l2.695-.577.083-.434a5.943 5.943 0 0 1 .918-2.222l.248-.365-1.495-2.312.18-.181 2.312 1.496.365-.248a5.944 5.944 0 0 1 2.222-.917l.433-.084.578-2.695h.256l.577 2.695.433.084a5.944 5.944 0 0 1 2.222.917l.366.248 2.312-1.496.18.181-1.495 2.312.247.365a5.93 5.93 0 0 1 .918 2.222l.084.434 2.694.577v.255l-2.694.578-.084.433a5.926 5.926 0 0 1-.918 2.222l-.247.366 1.495 2.312ZM22 13.206v-2.412l-2.9-.621a7.226 7.226 0 0 0-.786-1.904l1.61-2.488-1.706-1.704-2.487 1.61a7.23 7.23 0 0 0-1.904-.787L13.206 2h-2.412l-.62 2.9a7.221 7.221 0 0 0-1.905.786l-2.487-1.61-1.706 1.705 1.61 2.488a7.253 7.253 0 0 0-.787 1.904l-2.9.621v2.412l2.9.62c.172.673.435 1.31.787 1.905l-1.61 2.487 1.706 1.705 2.487-1.61c.593.352 1.23.615 1.904.787l.621 2.9h2.412l.621-2.9a7.253 7.253 0 0 0 1.904-.787l2.487 1.61 1.706-1.705-1.61-2.487a7.244 7.244 0 0 0 .786-1.904l2.9-.621Z" clip-rule="evenodd"/>
</svg>
