<svg xmlns="http://www.w3.org/2000/svg" width="24" height="24" viewBox="0 0 24 24">
  <path
     d="M 5.25 2.9980469 C 4.0164729 2.9980469 3 4.0145198 3 5.2480469 L 3 8.2480469 C 3 9.481574 4.0164729 10.498047 5.25 10.498047 L 18.75 10.498047 C 19.983527 10.498047 21 9.481574 21 8.2480469 L 21 5.2480469 C 21 4.0145198 19.983527 2.9980469 18.75 2.9980469 L 5.25 2.9980469 z M 5.25 4.4980469 L 18.75 4.4980469 C 19.178473 4.4980469 19.5 4.819574 19.5 5.2480469 L 19.5 8.2480469 C 19.5 8.6765198 19.178473 8.9980469 18.75 8.9980469 L 5.25 8.9980469 C 4.8215271 8.9980469 4.5 8.6765198 4.5 8.2480469 L 4.5 5.2480469 C 4.5 4.819574 4.8215271 4.4980469 5.25 4.4980469 z"/>
  <path
     d="M 5.2480469 8.9980469 C 5.0381113 8.9983545 4.8244031 9.0259766 4.6113281 9.0898438 L 5.0410156 10.527344 C 5.1017649 10.509135 5.1744829 10.498346 5.25 10.498047 L 5.2519531 10.498047 L 6.75 10.498047 L 6.75 8.9980469 L 5.25 8.9980469 L 5.25 9.7480469 L 5.2480469 8.9980469 z M 8.25 8.9980469 L 8.25 10.498047 L 9.75 10.498047 L 9.75 8.9980469 L 8.25 8.9980469 z M 11.25 8.9980469 L 11.25 10.498047 L 12.75 10.498047 L 12.75 8.9980469 L 11.25 8.9980469 z M 14.25 8.9980469 L 14.25 10.498047 L 15.75 10.498047 L 15.75 8.9980469 L 14.25 8.9980469 z M 17.25 8.9980469 L 17.25 10.498047 L 18.75 10.498047 L 18.75 8.9980469 L 17.25 8.9980469 z M 20.640625 10.027344 L 19.384766 10.845703 C 19.457483 10.957455 19.500246 11.106641 19.5 11.248047 L 19.5 11.890625 L 21 11.890625 L 21 11.25 L 21 11.248047 C 21.00039 10.818609 20.879564 10.394544 20.640625 10.027344 z M 3.0917969 10.611328 C 3.0283133 10.823848 3.0003309 11.039248 3 11.248047 L 3 12.320312 L 4.5 12.320312 L 4.5 11.25 L 4.5 11.248047 C 4.5003082 11.172619 4.5113077 11.101237 4.5292969 11.041016 L 3.0917969 10.611328 z M 19.5 13.390625 L 19.5 14.890625 L 21 14.890625 L 21 13.390625 L 19.5 13.390625 z M 3 13.820312 L 3 15.320312 L 4.5 15.320312 L 4.5 13.820312 L 3 13.820312 z M 19.5 16.390625 L 19.5 17.890625 L 21 17.890625 L 21 16.390625 L 19.5 16.390625 z M 3 16.820312 L 3 18.320312 L 4.5 18.320312 L 4.5 16.820312 L 3 16.820312 z M 19.429688 19.066406 C 19.34601 19.25395 19.143892 19.424362 18.943359 19.474609 C 18.903023 19.483989 18.874714 19.488541 18.876953 19.488281 L 19.050781 20.978516 C 19.162447 20.965563 19.244738 20.945101 19.300781 20.931641 L 19.304688 20.929688 L 19.308594 20.929688 C 19.973195 20.763159 20.520975 20.304855 20.800781 19.677734 L 19.429688 19.066406 z M 4.6855469 19.244141 L 3.546875 20.220703 C 3.7958854 20.510789 4.1144979 20.726485 4.46875 20.857422 C 4.8513269 21.002886 5.2066862 21.007882 5.4902344 20.998047 L 5.4394531 19.498047 C 5.2318579 19.505248 5.0829664 19.488045 5.0019531 19.457031 L 4.9960938 19.455078 L 4.9902344 19.453125 C 4.8736726 19.410617 4.7635231 19.334979 4.6855469 19.244141 z M 6.9648438 19.498047 L 6.9648438 20.998047 L 8.4648438 20.998047 L 8.4648438 19.498047 L 6.9648438 19.498047 z M 9.9648438 19.498047 L 9.9648438 20.998047 L 11.464844 20.998047 L 11.464844 19.498047 L 9.9648438 19.498047 z M 12.964844 19.498047 L 12.964844 20.998047 L 14.464844 20.998047 L 14.464844 19.498047 L 12.964844 19.498047 z M 15.964844 19.498047 L 15.964844 20.998047 L 17.464844 20.998047 L 17.464844 19.498047 L 15.964844 19.498047 z"/>
</svg>
