<svg width="16" height="16" viewBox="0 0 16 16"  xmlns="http://www.w3.org/2000/svg">
<g clip-path="url(#clip0_256_11844)">
<path fill-rule="evenodd" clip-rule="evenodd" d="M1.85335 7.50004H4.8549C4.98902 5.48943 5.68799 3.56221 6.86406 1.93779C4.16064 2.4412 2.07735 4.70834 1.85335 7.50004ZM8.00004 2.09919C6.75109 3.63772 6.00291 5.52288 5.85735 7.50004H10.1427C9.99717 5.52288 9.24899 3.63772 8.00004 2.09919ZM10.1427 8.50004C9.99717 10.4772 9.24899 12.3624 8.00004 13.9009C6.75109 12.3624 6.00291 10.4772 5.85735 8.50004H10.1427ZM4.8549 8.50004H1.85335C2.07735 11.2917 4.16064 13.5589 6.86406 14.0623C5.68799 12.4379 4.98902 10.5107 4.8549 8.50004ZM9.13602 14.0623C10.3121 12.4379 11.0111 10.5107 11.1452 8.50004H14.1467C13.9227 11.2917 11.8394 13.5589 9.13602 14.0623ZM14.1467 7.50004H11.1452C11.0111 5.48943 10.3121 3.56221 9.13602 1.93779C11.8394 2.4412 13.9227 4.70834 14.1467 7.50004ZM0.833374 8.00004C0.833374 4.042 4.042 0.833374 8.00004 0.833374C11.9581 0.833374 15.1667 4.042 15.1667 8.00004C15.1667 11.9581 11.9581 15.1667 8.00004 15.1667C4.042 15.1667 0.833374 11.9581 0.833374 8.00004Z" />
</g>
<defs>
<clipPath id="clip0_256_11844">
<rect width="16" height="16" />
</clipPath>
</defs>
</svg>
