<svg width="24" height="24" viewBox="0 0 24 24" fill="none" xmlns="http://www.w3.org/2000/svg">
<path d="M1.27777 1.29175C0.871149 1.69906 0.548935 2.18286 0.329652 2.71532C0.11037 3.24777 -0.00165555 3.81839 1.76114e-05 4.39436L1.82763e-05 19.6056C1.83273e-05 20.771 0.462297 21.8888 1.28516 22.7129C2.10802 23.537 3.22406 23.9999 4.38776 23.9999L19.5761 23.9999C20.1549 24.0031 20.7286 23.8919 21.2644 23.6726C21.8003 23.4534 22.2876 23.1304 22.6986 22.7221C23.1095 22.3139 23.436 21.8285 23.6593 21.2937C23.8827 20.7589 23.9984 20.1853 24 19.6056L24 4.39436C23.9968 3.22988 23.5335 2.11401 22.7113 1.2906C21.8892 0.467191 20.775 0.00319009 19.6123 4.86477e-06L4.38776 5.53025e-06C3.80989 -0.00101678 3.23753 0.112606 2.70374 0.334318C2.16995 0.556028 1.6853 0.881435 1.27777 1.29175ZM19.5761 1.13481C20.0023 1.13316 20.4245 1.21661 20.8181 1.38028C21.2117 1.54396 21.5688 1.78458 21.8684 2.08806C22.1681 2.39155 22.4043 2.75183 22.5634 3.14782C22.7224 3.54381 22.801 3.96759 22.7946 4.39436L22.7946 19.6056C22.801 20.0324 22.7224 20.4561 22.5634 20.8521C22.4043 21.2481 22.1681 21.6084 21.8684 21.9119C21.5688 22.2154 21.2117 22.456 20.8181 22.6197C20.4245 22.7833 20.0023 22.8668 19.5761 22.8651L4.38776 22.8651C3.9626 22.8652 3.54167 22.7805 3.14947 22.6162C2.75728 22.4518 2.40164 22.2109 2.10326 21.9076C1.80487 21.6042 1.5697 21.2445 1.41143 20.8493C1.25316 20.4541 1.17494 20.0313 1.18133 19.6056L1.18133 4.39436C1.17494 3.9686 1.25315 3.54583 1.41143 3.15063C1.5697 2.75543 1.80487 2.3957 2.10325 2.09237C2.40164 1.78905 2.75727 1.54818 3.14947 1.38379C3.54167 1.2194 3.9626 1.13476 4.38776 1.13481L19.5761 1.13481Z"/>
<path d="M16.5624 12.4226C16.6674 12.3071 16.7256 12.1564 16.7256 12.0001C16.7256 11.8438 16.6674 11.6932 16.5624 11.5776L12.8015 7.82305C12.6882 7.72889 12.5439 7.68047 12.3969 7.68729C12.2498 7.69411 12.1106 7.75567 12.0065 7.85992C11.9024 7.96416 11.841 8.10358 11.8342 8.25084C11.8273 8.39811 11.8757 8.54262 11.9697 8.65605L14.7181 11.4086L4.71306 11.4086C4.55321 11.4086 4.39991 11.4722 4.28688 11.5854C4.17385 11.6986 4.11035 11.8521 4.11035 12.0122C4.11035 12.1723 4.17385 12.3258 4.28688 12.439C4.39991 12.5522 4.55321 12.6158 4.71306 12.6158L14.7181 12.6158L11.9456 15.3442C11.8888 15.3989 11.8436 15.4645 11.8125 15.5371C11.7815 15.6097 11.7653 15.6877 11.7648 15.7667C11.7648 15.8439 11.7808 15.9203 11.812 15.991C11.8431 16.0617 11.8886 16.1251 11.9456 16.1772C12.0562 16.287 12.2057 16.3486 12.3615 16.3486C12.5173 16.3486 12.6667 16.287 12.7773 16.1772L16.5624 12.4226Z"/>
<path d="M18.2261 5.15501L18.2261 18.8451C18.2261 19.0052 18.2896 19.1587 18.4026 19.2719C18.5156 19.3851 18.6689 19.4487 18.8288 19.4487C18.9886 19.4487 19.1419 19.3851 19.255 19.2719C19.368 19.1587 19.4315 19.0052 19.4315 18.8451L19.4315 5.15501C19.4315 4.99492 19.368 4.84139 19.255 4.72819C19.1419 4.61499 18.9886 4.55139 18.8288 4.55139C18.6689 4.55139 18.5156 4.61499 18.4026 4.72819C18.2896 4.84139 18.2261 4.99492 18.2261 5.15501Z"/>
</svg>
