<svg width="24" height="24" viewBox="0 0 24 24" xmlns="http://www.w3.org/2000/svg">
  <path fill-rule="evenodd" clip-rule="evenodd" d="M5.14286 7.42857H7.42857V5.14286H5.14286V7.42857ZM4 8.57143H8.57143V4H4V8.57143ZM10.8571 7.42857H13.1429V5.14286H10.8571V7.42857ZM9.71429 8.57143H14.2857V4H9.71429V8.57143ZM16.5714 7.42857H18.8571V5.14286H16.5714V7.42857ZM15.4286 8.57143H20V4H15.4286V8.57143ZM5.14286 13.1429H7.42857V10.8571H5.14286V13.1429ZM4 14.2857H8.57143V9.71429H4V14.2857ZM10.8571 13.1429H13.1429V10.8571H10.8571V13.1429ZM9.71429 14.2857H14.2857V9.71429H9.71429V14.2857ZM16.5714 13.1429H18.8571V10.8571H16.5714V13.1429ZM15.4286 14.2857H20V9.71429H15.4286V14.2857ZM5.14286 18.8571H7.42857V16.5714H5.14286V18.8571ZM4 20H8.57143V15.4286H4V20ZM10.8571 18.8571H13.1429V16.5714H10.8571V18.8571ZM9.71429 20H14.2857V15.4286H9.71429V20ZM16.5714 18.8571H18.8571V16.5714H16.5714V18.8571ZM15.4286 20H20V15.4286H15.4286V20Z"/>
</svg>
