<svg xmlns="http://www.w3.org/2000/svg" width="24" height="24" viewBox="0 0 24 24">
  <path fill-rule="evenodd" d="M7.47 4.603a4.112 4.112 0 0 0-2.925 1.212A4.11 4.11 0 0 0 3.333 8.74c0 1.105.43 2.144 1.212 2.925L12 19.121l7.455-7.455a4.11 4.11 0 0 0 1.212-2.925c0-1.106-.43-2.144-1.212-2.926a4.112 4.112 0 0 0-2.925-1.212 4.115 4.115 0 0 0-2.927 1.212L12 7.419l-1.603-1.604A4.115 4.115 0 0 0 7.47 4.603ZM12 21.006l-8.397-8.397A5.431 5.431 0 0 1 2 8.74c0-1.462.569-2.836 1.603-3.869A5.436 5.436 0 0 1 7.47 3.27c1.461 0 2.835.57 3.868 1.602l.661.661.66-.661a5.438 5.438 0 0 1 3.87-1.602c1.46 0 2.834.57 3.867 1.602A5.436 5.436 0 0 1 22 8.741a5.44 5.44 0 0 1-1.602 3.868L12 21.006Z" clip-rule="evenodd"/>
</svg>
