<svg xmlns="http://www.w3.org/2000/svg" width="24" height="24" viewBox="0 0 24 24">
  <path fill-rule="evenodd" d="M13 16a1 1 0 1 1-2 0 1 1 0 0 1 2 0Z" clip-rule="evenodd"/>
  <path fill-rule="evenodd" d="M12 3.333c-4.779 0-8.667 3.888-8.667 8.667S7.221 20.667 12 20.667s8.667-3.888 8.667-8.667S16.779 3.333 12 3.333ZM12 22C6.486 22 2 17.514 2 12S6.486 2 12 2s10 4.486 10 10-4.486 10-10 10Z" clip-rule="evenodd"/>
  <path fill-rule="evenodd" d="M12.667 13.333h-1.334c0-1.696 1.625-2.556 1.694-2.592.012-.005.973-.518.973-1.408 0-1.102-.897-2-2-2s-2 .898-2 2H8.667A3.337 3.337 0 0 1 12 6a3.337 3.337 0 0 1 3.333 3.333c0 1.715-1.629 2.56-1.698 2.596-.002 0-.968.526-.968 1.404Z" clip-rule="evenodd"/>
</svg>
