<svg xmlns="http://www.w3.org/2000/svg" width="24" height="24" viewBox="0 0 24 24">
  <path fill-rule="evenodd" d="M4.333 4.017c0-.654.53-1.183 1.183-1.183h10.469v.09c.143.058.275.145.386.256l2.708 2.708c.111.111.198.243.257.386h.09V12.1h-1.334V7.607h-2.257c-.653 0-1.183-.53-1.183-1.183V4.167H5.667v15.865h5.352v1.333H5.516c-.653 0-1.183-.53-1.183-1.182V4.017Zm11.652.663v1.594h1.594L15.985 4.68ZM7.774 6.273h4.773v1.333H7.773V6.273Zm0 3.44h8.212v1.333H7.773V9.712Zm0 3.439h3.913v1.333H7.773v-1.333Zm13.648 7.546-1.664-1.664a3.246 3.246 0 1 0-.943.943l1.664 1.664.943-.943Zm-4.382-5.352a1.913 1.913 0 1 0 0 3.826 1.913 1.913 0 0 0 0-3.826Z" clip-rule="evenodd"/>
</svg>
