<svg width="29" height="29" viewBox="0 0 29 29" fill="none" xmlns="http://www.w3.org/2000/svg">
<path d="M8.41797 6.34593C8.41797 3.18635 10.9172 1 14.0001 1C17.083 1 19.5821 3.18635 19.5821 6.34593V10" stroke="black" stroke-linecap="round"/>
<path d="M3.34078 22.28L2.70078 21.816L3.61278 20.312L2.06078 19.672L2.30078 18.936L3.93278 19.336L4.07678 17.608H4.86078L5.00478 19.32L6.65278 18.936L6.89278 19.672L5.34078 20.312L6.23678 21.816L5.61278 22.28L4.47678 20.904L3.34078 22.28ZM10.0283 22.28L9.38828 21.816L10.3003 20.312L8.74828 19.672L8.98828 18.936L10.6203 19.336L10.7643 17.608H11.5483L11.6923 19.32L13.3403 18.936L13.5803 19.672L12.0283 20.312L12.9243 21.816L12.3003 22.28L11.1643 20.904L10.0283 22.28ZM16.7158 22.28L16.0758 21.816L16.9878 20.312L15.4358 19.672L15.6758 18.936L17.3078 19.336L17.4518 17.608H18.2358L18.3798 19.32L20.0278 18.936L20.2678 19.672L18.7158 20.312L19.6118 21.816L18.9878 22.28L17.8518 20.904L16.7158 22.28ZM23.4033 22.28L22.7633 21.816L23.6753 20.312L22.1233 19.672L22.3633 18.936L23.9953 19.336L24.1393 17.608H24.9233L25.0673 19.32L26.7153 18.936L26.9553 19.672L25.4033 20.312L26.2993 21.816L25.6753 22.28L24.5393 20.904L23.4033 22.28Z" fill="black"/>
<path fill-rule="evenodd" clip-rule="evenodd" d="M6.35742 11H21.641C22.1933 11 22.641 11.4477 22.641 12V16H23.641V12C23.641 10.8954 22.7456 10 21.641 10H6.35742C5.25285 10 4.35742 10.8954 4.35742 12V16H5.35742V12C5.35742 11.4477 5.80514 11 6.35742 11ZM5.35742 24H4.35742V26C4.35742 27.1046 5.25285 28 6.35742 28H21.641C22.7456 28 23.641 27.1046 23.641 26V24H22.641V26C22.641 26.5523 22.1933 27 21.641 27H6.35742C5.80514 27 5.35742 26.5523 5.35742 26V24Z" fill="black"/>
</svg>
