<svg xmlns="http://www.w3.org/2000/svg" width="24" height="24" viewBox="0 0 24 24">
  <path d="m19.635 18.187-3.955-6.855v-4.56A1.945 1.945 0 0 0 15.014 3H10.32a1.95 1.95 0 0 0-1.95 1.948c0 .827.528 1.55 1.282 1.824v4.561l-.358.633v-3.75a.482.482 0 0 0-.482-.482H4.5a.482.482 0 0 0-.481.481v10.232c0 1.284.986 2.339 2.263 2.516a.508.508 0 0 0 .182.037h11.549c.823 0 1.448-.303 1.766-.855.316-.55.265-1.247-.143-1.958Zm-14.657.26v-1.044h1.418a.482.482 0 0 0 0-.963H4.978v-1.562h1.418a.482.482 0 0 0 0-.962H4.978v-1.563h1.418a.482.482 0 0 0 0-.963H4.978V8.695H8.33v9.752c0 .875-.752 1.589-1.676 1.589-.925 0-1.676-.714-1.676-1.59Zm13.964 1.216c-.138.237-.478.375-.934.375H8.702a2.48 2.48 0 0 0 .59-1.591v-4.591a.471.471 0 0 0 .111-.128l1.148-2.03a.486.486 0 0 0 .062-.238V6.397a.48.48 0 0 0-.42-.477.984.984 0 0 1-.862-.972c0-.543.442-.985.985-.985h4.694c.544 0 .985.442.985.985 0 .491-.37.908-.862.972a.48.48 0 0 0-.42.477v5.063c0 .085.021.168.064.241l4.02 6.968c.23.395.282.757.145.994Zm-2.805-3c0 .93-.753 1.682-1.684 1.682a1.682 1.682 0 1 1 0-3.365c.931 0 1.684.754 1.684 1.683Zm-3.755-1.83a.825.825 0 1 1-1.65-.001.825.825 0 0 1 1.65 0Zm.616-1.86a.516.516 0 1 1 0-1.035.517.517 0 1 1 0 1.034Zm-1.488 4.855a.517.517 0 1 1-1.034 0 .517.517 0 0 1 1.034 0Zm.905-6.894a.68.68 0 1 1 0-1.36.68.68 0 0 1 0 1.36Z"/>
</svg>
