<svg xmlns="http://www.w3.org/2000/svg" width="24" height="24" viewBox="0 0 24 24">
  <path fill-rule="evenodd" d="M12.706 4.667a.662.662 0 0 0-.47.195L4.623 12.46a.663.663 0 0 0 .005.948l5.795 5.675a.681.681 0 0 0 .934-.001l7.777-7.654a.67.67 0 0 0 .199-.476v-5.62a.667.667 0 0 0-.667-.666h-5.96Zm-1.817 15.94a1.99 1.99 0 0 1-1.399-.57l-5.795-5.675a1.988 1.988 0 0 1-.6-1.42 1.989 1.989 0 0 1 .586-1.425l7.612-7.599c.377-.377.88-.585 1.413-.585h5.96c1.104 0 2 .898 2 2v5.62c0 .533-.217 1.053-.596 1.426l-7.778 7.655a1.99 1.99 0 0 1-1.403.574Z" clip-rule="evenodd"/>
  <path fill-rule="evenodd" d="M16 7.333a.667.667 0 1 0 .001 1.335A.667.667 0 0 0 16 7.333ZM16 10c-1.103 0-2-.897-2-2s.897-2 2-2 2 .897 2 2-.897 2-2 2Z" clip-rule="evenodd"/>
</svg>
