<svg xmlns="http://www.w3.org/2000/svg" width="24" height="24" viewBox="0 0 24 24">
  <path fill-rule="evenodd" d="M12 20.667c-4.779 0-8.667-3.888-8.667-8.667S7.221 3.333 12 3.333 20.667 7.221 20.667 12 16.779 20.667 12 20.667ZM12 2C6.486 2 2 6.486 2 12s4.486 10 10 10 10-4.486 10-10S17.514 2 12 2Z" clip-rule="evenodd"/>
  <path fill-rule="evenodd" d="M12.667 7.333h-1.334v1.334h-4V10h6.68c-.046.903-.388 2.748-2.158 4.602-1.01-.935-1.414-1.788-1.626-2.747l-1.302.29c.286 1.29.876 2.348 1.945 3.364-.529.426-1.141.844-1.86 1.24l.643 1.168a14.216 14.216 0 0 0 2.266-1.538c.677.502 1.481 1.006 2.444 1.538l.645-1.167a21.853 21.853 0 0 1-2.1-1.299c2.023-2.148 2.399-4.332 2.44-5.451h1.317V8.667h-4V7.333Z" clip-rule="evenodd"/>
</svg>
