<svg width="25" height="25" viewBox="0 0 25 25" fill="none" xmlns="http://www.w3.org/2000/svg">
  <path d="M14.9156 8.53422H3.58139C3.28553 8.53422 3.00177 8.65175 2.79256 8.86096C2.58335 9.07017 2.46582 9.35392 2.46582 9.64979V22.8136C2.46876 23.146 2.60287 23.4637 2.83896 23.6977C3.07505 23.9317 3.39401 24.063 3.72642 24.063H14.8822C15.2146 24.063 15.5335 23.9317 15.7696 23.6977C16.0057 23.4637 16.1398 23.146 16.1428 22.8136V9.79481C16.1401 9.46705 16.011 9.15297 15.7823 8.9181C15.5537 8.68323 15.2432 8.54571 14.9156 8.53422ZM15.2838 22.7801C15.2838 22.8279 15.2742 22.8753 15.2556 22.9193C15.2369 22.9634 15.2096 23.0032 15.1753 23.0365C15.1409 23.0698 15.1003 23.0959 15.0557 23.1132C15.0111 23.1304 14.9634 23.1386 14.9156 23.1371H3.75989C3.70855 23.1452 3.65607 23.142 3.6061 23.1277C3.55612 23.1135 3.50987 23.0885 3.47056 23.0545C3.43125 23.0205 3.39984 22.9783 3.37852 22.9309C3.3572 22.8835 3.34648 22.8321 3.34712 22.7801V9.61632C3.3498 9.56689 3.37064 9.5202 3.40564 9.4852C3.44065 9.45019 3.48734 9.42935 3.53677 9.42667H14.9156C14.964 9.42667 15.0118 9.4362 15.0565 9.4547C15.1012 9.4732 15.1417 9.50031 15.1759 9.5345C15.2101 9.56868 15.2372 9.60927 15.2557 9.65393C15.2742 9.6986 15.2838 9.74647 15.2838 9.79481V22.7801ZM21.1963 8.53422H17.9611C17.6653 8.53422 17.3815 8.65175 17.1723 8.86096C16.9631 9.07017 16.8456 9.35392 16.8456 9.64979V22.8136C16.8456 23.1449 16.9772 23.4627 17.2115 23.697C17.4458 23.9314 17.7636 24.063 18.095 24.063H21.1963C21.3604 24.063 21.5228 24.0307 21.6744 23.9679C21.826 23.9051 21.9638 23.8131 22.0798 23.697C22.1958 23.581 22.2878 23.4433 22.3506 23.2917C22.4134 23.1401 22.4457 22.9776 22.4457 22.8136V9.79481C22.4458 9.46241 22.3145 9.14345 22.0805 8.90736C21.8465 8.67127 21.5287 8.53716 21.1963 8.53422ZM21.5533 22.7801C21.5533 22.8748 21.5157 22.9656 21.4487 23.0325C21.3818 23.0995 21.291 23.1371 21.1963 23.1371H18.1842C18.0896 23.1371 17.9988 23.0995 17.9318 23.0325C17.8649 22.9656 17.8273 22.8748 17.8273 22.7801V9.61632C17.8272 9.5679 17.8456 9.52128 17.8788 9.48602C17.912 9.45075 17.9574 9.42952 18.0058 9.42667H21.1963C21.2441 9.42665 21.2915 9.43624 21.3355 9.45487C21.3796 9.47351 21.4195 9.50081 21.4528 9.53515C21.4861 9.56949 21.5121 9.61017 21.5294 9.65477C21.5466 9.69938 21.5548 9.747 21.5533 9.79481V22.7801ZM21.1963 0.959473H3.58139C3.28553 0.959473 3.00177 1.07701 2.79256 1.28622C2.58335 1.49543 2.46582 1.77918 2.46582 2.07505V6.53734C2.48316 6.8658 2.62819 7.17448 2.86996 7.3975C3.11173 7.62051 3.43109 7.74019 3.75989 7.731H21.1963C21.3604 7.731 21.5228 7.69869 21.6744 7.6359C21.826 7.5731 21.9638 7.48107 22.0798 7.36505C22.1958 7.24903 22.2878 7.11129 22.3506 6.9597C22.4134 6.80811 22.4457 6.64564 22.4457 6.48156V2.23123C22.4472 2.06568 22.4161 1.90147 22.3541 1.74796C22.2921 1.59445 22.2004 1.45466 22.0844 1.33657C21.9684 1.21847 21.8303 1.12439 21.6779 1.05969C21.5255 0.994984 21.3618 0.960931 21.1963 0.959473ZM21.5533 6.48156C21.5533 6.57624 21.5157 6.66704 21.4487 6.73399C21.3818 6.80093 21.291 6.83854 21.1963 6.83854H3.75989C3.70855 6.84667 3.65607 6.84349 3.6061 6.82922C3.55612 6.81496 3.50987 6.78995 3.47056 6.75596C3.43125 6.72196 3.39984 6.67979 3.37852 6.6324C3.3572 6.585 3.34648 6.53353 3.34712 6.48156V2.01927C3.3498 1.96984 3.37064 1.92314 3.40564 1.88814C3.44065 1.85314 3.48734 1.8323 3.53677 1.82962H21.1963C21.2441 1.8296 21.2915 1.83919 21.3355 1.85782C21.3796 1.87645 21.4195 1.90375 21.4528 1.93809C21.4861 1.97243 21.5121 2.01311 21.5294 2.05772C21.5466 2.10233 21.5548 2.14995 21.5533 2.19776V6.48156Z" fill="black"/>
  </svg>
