<svg width="23" height="22" viewBox="0 0 23 22" fill="none" xmlns="http://www.w3.org/2000/svg">
  <path d="M21.2853 1.52032C20.3014 0.546344 18.9729 0 17.5884 0C16.2039 0 14.8754 0.546344 13.8915 1.52032L8.83188 6.5109C8.5786 6.74168 8.3476 6.99578 8.14193 7.26984C7.85742 7.46286 7.59176 7.68232 7.3485 7.92528L2.39241 13.0194C1.9039 13.5079 1.5164 14.0878 1.25202 14.7261C0.987637 15.3644 0.851563 16.0484 0.851563 16.7393C0.851562 17.4302 0.987637 18.1142 1.25202 18.7525C1.5164 19.3908 1.9039 19.9707 2.39241 20.4592C2.88092 20.9477 3.46087 21.3353 4.09914 21.5996C4.7374 21.864 5.4215 22.0001 6.11235 22.0001C6.80321 22.0001 7.4873 21.864 8.12557 21.5996C8.76384 21.3353 9.34378 20.9477 9.83229 20.4592L14.8459 15.4457C15.0861 15.1999 15.3053 14.9345 15.5013 14.6522C15.7836 14.4562 16.049 14.237 16.2948 13.9968L21.3083 8.9832C21.7975 8.49507 22.1856 7.91525 22.4504 7.27693C22.7153 6.63861 22.8516 5.95433 22.8516 5.26326C22.8516 4.57219 22.7153 3.88791 22.4504 3.24959C22.1856 2.61127 21.7975 2.03144 21.3083 1.54332L21.2853 1.52032ZM16.5132 4.1651C16.6489 4.02511 16.8116 3.91418 16.9915 3.83906C17.1714 3.76395 17.3647 3.7262 17.5597 3.72814C17.7562 3.72663 17.9511 3.76452 18.1328 3.83957C18.3145 3.91462 18.4793 4.02531 18.6176 4.1651C18.895 4.44298 19.052 4.81886 19.0545 5.21151C19.0525 5.60766 18.8957 5.98732 18.6176 6.26942L15.7198 9.16718C15.4815 8.723 15.1793 8.3162 14.8229 7.95978C14.4672 7.60245 14.0603 7.30015 13.6155 7.06286L16.5132 4.1651ZM12.5806 11.7085C12.3849 11.7108 12.1907 11.6745 12.0091 11.6014C11.8275 11.5284 11.6622 11.4202 11.5227 11.283C11.3764 11.1304 11.2624 10.95 11.1873 10.7525C11.1122 10.5549 11.0777 10.3443 11.0857 10.1331C11.3204 10.1294 11.5527 10.1806 11.7641 10.2826C11.9182 10.3529 12.0584 10.4502 12.1781 10.5701C12.3201 10.7218 12.4291 10.9013 12.4984 11.0972C12.5676 11.2931 12.5956 11.5012 12.5806 11.7085ZM7.14152 17.7455C6.92201 17.9587 6.64359 18.1012 6.34224 18.1545C6.04089 18.2078 5.73049 18.1694 5.45116 18.0444C5.30154 17.962 5.16253 17.8616 5.03719 17.7455C4.8974 17.6072 4.78671 17.4424 4.71166 17.2607C4.63661 17.079 4.59872 16.8841 4.60023 16.6876C4.5983 16.4926 4.63604 16.2993 4.71116 16.1194C4.78628 15.9395 4.8972 15.7768 5.03719 15.6411L7.93495 12.7434C8.17225 13.1882 8.47455 13.5951 8.83188 13.9508C9.19057 14.3046 9.59697 14.6065 10.0393 14.8477L7.14152 17.7455ZM14.9149 9.96062L13.627 11.26C13.5598 10.8523 13.395 10.4668 13.1468 10.1364C12.8985 9.80608 12.5741 9.54062 12.2011 9.36266C11.6953 9.1256 11.1258 9.06097 10.5797 9.17868C10.515 9.16816 10.449 9.16816 10.3842 9.17868C9.97309 9.30114 9.59808 9.5222 9.29184 9.82263L4.27826 14.8822C3.79866 15.3629 3.52932 16.0143 3.52932 16.6933C3.52932 17.3724 3.79866 18.0237 4.27826 18.5044C4.75852 18.981 5.40701 19.2495 6.08361 19.2518C6.76321 19.2476 7.4146 18.9796 7.90045 18.5044L11.1202 15.2847C11.8148 15.4836 12.5435 15.5345 13.259 15.4342L9.05036 19.6543C8.4628 20.2369 7.71613 20.6329 6.9042 20.7924C6.09227 20.9519 5.2513 20.8679 4.48699 20.5508C3.72268 20.2338 3.06913 19.6979 2.60848 19.0106C2.14783 18.3232 1.90063 17.515 1.89795 16.6876C1.89595 16.1379 2.00375 15.5933 2.21504 15.0858C2.42632 14.5783 2.73683 14.1182 3.12835 13.7323L8.14193 8.71872C8.35297 8.49623 8.59273 8.30288 8.85487 8.14377C9.54267 7.71033 10.3418 7.48657 11.1547 7.49982C11.6316 7.50041 12.1054 7.57807 12.5576 7.7298C13.1408 7.94256 13.6706 8.28005 14.1099 8.71872C14.4546 9.07784 14.7278 9.49931 14.9149 9.96062ZM11.1432 14.1693C10.5605 13.9609 10.0306 13.6272 9.59081 13.1918C9.22712 12.832 8.93454 12.4067 8.72838 11.9385L10.0278 10.6506C10.1124 11.1656 10.3528 11.6424 10.7168 12.0166C11.0807 12.3908 11.5506 12.6445 12.0631 12.7434C12.6007 12.8422 13.1557 12.7698 13.65 12.5364C13.9168 12.4183 14.1588 12.2505 14.3629 12.0419L19.3765 7.02836C19.8191 6.54066 20.0571 5.90136 20.0412 5.24295C20.0252 4.58454 19.7566 3.9575 19.2909 3.4918C18.8252 3.0261 18.1981 2.75743 17.5397 2.74149C16.8813 2.72555 16.242 2.96355 15.7543 3.40616L12.5346 6.61439C11.8535 6.4273 11.1415 6.38035 10.4417 6.47641L14.6619 2.25626C15.2472 1.67267 15.9922 1.27546 16.803 1.11468C17.6138 0.953913 18.454 1.03679 19.2177 1.35286C19.9815 1.66893 20.6345 2.20404 21.0946 2.89074C21.5546 3.57743 21.801 4.38496 21.8028 5.21151C21.8065 5.76215 21.7007 6.30803 21.4915 6.81737C21.2822 7.3267 20.9737 7.78931 20.5839 8.17826L15.5703 13.1918C15.3512 13.4054 15.1125 13.5979 14.8574 13.7668C14.3094 14.1112 13.6902 14.3265 13.0467 14.3962C12.4032 14.4659 11.7522 14.3883 11.1432 14.1693Z" fill="black"/>
  </svg>
