<svg xmlns="http://www.w3.org/2000/svg" width="24" height="24" viewBox="0 0 24 24">
  <path fill-rule="evenodd" d="M18.088 4.888a4.672 4.672 0 0 0-6.6 0L8.66 7.718a4.68 4.68 0 0 0-.501 6c.162.228.326.424.5.598a4.695 4.695 0 0 0 3.309 1.362c1.22 0 2.405-.476 3.291-1.362l.708-.707-.943-.943-.707.708a3.335 3.335 0 0 1-3.35.82 3.28 3.28 0 0 1-1.364-.82 3.338 3.338 0 0 1-.356-.429 3.343 3.343 0 0 1 .356-4.285l2.827-2.83c1.3-1.3 3.415-1.3 4.714 0 .626.627.972 1.463.972 2.357a3.31 3.31 0 0 1-.972 2.357l.943.943a4.634 4.634 0 0 0 1.362-3.3c0-1.25-.484-2.422-1.362-3.3Z" clip-rule="evenodd"/>
  <path fill-rule="evenodd" d="M16.674 11.017a4.658 4.658 0 0 0-1.915-1.152 4.666 4.666 0 0 0-4.685 1.152l-.707.707.943.943.707-.708a3.33 3.33 0 0 1 3.35-.82 3.267 3.267 0 0 1 1.72 1.25 3.333 3.333 0 0 1-.357 4.285l-2.828 2.828a3.339 3.339 0 0 1-4.714 0 3.312 3.312 0 0 1-.971-2.357c0-.894.345-1.73.97-2.357l-.942-.943a4.633 4.633 0 0 0-1.362 3.3 4.654 4.654 0 0 0 4.662 4.664c1.196 0 2.39-.455 3.3-1.364l2.829-2.829a4.67 4.67 0 0 0 .5-6 4.7 4.7 0 0 0-.5-.6Z" clip-rule="evenodd"/>
</svg>
