<svg width="24" height="24" viewBox="0 0 24 24" xmlns="http://www.w3.org/2000/svg">
  <path fill-rule="evenodd" clip-rule="evenodd" d="M7.3335 7.33327H22.0002V5.99927H7.3335V7.33327Z" />
  <path fill-rule="evenodd" clip-rule="evenodd" d="M7.3335 12.6666H22.0002V11.3333H7.3335V12.6666Z" />
  <path fill-rule="evenodd" clip-rule="evenodd" d="M7.3335 18H22.0002V16.6666H7.3335V18Z" />
  <path fill-rule="evenodd" clip-rule="evenodd" d="M4 7.66663C4.552 7.66663 5 7.21863 5 6.66663C5 6.11463 4.552 5.66663 4 5.66663C3.448 5.66663 3 6.11463 3 6.66663C3 7.21863 3.448 7.66663 4 7.66663ZM4 13C4.552 13 5 12.552 5 12C5 11.448 4.552 11 4 11C3.448 11 3 11.448 3 12C3 12.552 3.448 13 4 13ZM4 18.3333C4.552 18.3333 5 17.8853 5 17.3333C5 16.7813 4.552 16.3333 4 16.3333C3.448 16.3333 3 16.7813 3 17.3333C3 17.8853 3.448 18.3333 4 18.3333Z" />
</svg>
