<svg xmlns="http://www.w3.org/2000/svg" width="24" height="24" viewBox="0 0 24 24">
  <path fill-rule="evenodd" d="m7.848 5.875-1.184-.61a5.97 5.97 0 0 0-.506 1.366l1.298.305c.086-.367.218-.723.392-1.061ZM7.483 4.06l1.004.878c.25-.286.533-.541.843-.759l-.766-1.09a6.04 6.04 0 0 0-1.081.971Zm9.056 2.859 1.297-.31a5.937 5.937 0 0 0-.51-1.365l-1.183.616c.175.337.309.693.396 1.059Zm-5.113-3.55-.164-1.323c-.485.06-.96.18-1.415.355l.482 1.244a4.55 4.55 0 0 1 1.097-.276Zm5.077.675a6.04 6.04 0 0 0-1.084-.969l-.762 1.094c.31.216.594.47.846.756l1-.881Zm-3.946-.678a4.69 4.69 0 0 1 1.1.272l.475-1.245a5.963 5.963 0 0 0-1.415-.35l-.16 1.323Zm4.11 5.982H18V8.05h-1.333v1.298ZM12 15.666a1 1 0 1 0 0-2 1 1 0 0 0 0 2ZM11.333 18h1.334v-1.334h-1.334V18ZM18 22h1.333v-1.334H18V22ZM7.333 22h1.334v-1.334H7.333V22Zm8 0h1.334v-1.334h-1.334V22Zm-2.666 0H14v-1.334h-1.333V22ZM10 22h1.334v-1.334H10V22Zm-5.333 0H6v-1.334H4.667V22Zm0-2.667H6V18H4.667v1.333Zm0-5.333H6v-1.334H4.667V14Zm0 2.666H6v-1.333H4.667v1.333Zm0-5.333H6V10H4.667v1.333Zm5.333 0h1.333V10H10v1.333Zm-2.667 0h1.334V10H7.333v1.333Zm8 0h1.334V10h-1.334v1.333Zm-2.666 0H14V10h-1.333v1.333Zm5.333 0h1.333V10H18v1.333Zm0 8h1.333V18H18v1.333ZM18 14h1.333v-1.334H18V14Zm0 2.666h1.333v-1.333H18v1.333ZM6 9.368h1.333V8.07H6v1.298Z" clip-rule="evenodd"/>
</svg>
