<svg xmlns="http://www.w3.org/2000/svg" width="16" height="16" viewBox="0 0 16 16">
  <path fill-rule="evenodd" d="M8 1a4.333 4.333 0 0 0-4.333 4.333v.512c-.122.04-.243.088-.362.149a3 3 0 0 0-1.311 1.31c-.193.38-.264.772-.297 1.168-.03.374-.03.829-.03 1.356v1.01c0 .528 0 .982.03 1.357.033.395.104.789.297 1.167a3 3 0 0 0 1.31 1.311c.38.193.772.264 1.168.296C4.846 15 5.3 15 5.828 15h4.344c.527 0 .982 0 1.356-.03.396-.033.789-.104 1.167-.297a3 3 0 0 0 1.311-1.311c.193-.378.264-.772.297-1.167.03-.375.03-.83.03-1.356v-1.01c0-.528 0-.983-.03-1.357-.033-.396-.104-.789-.297-1.167a3 3 0 0 0-1.31-1.311 2.44 2.44 0 0 0-.363-.15v-.51A4.333 4.333 0 0 0 8 1ZM5.828 5.667h-.161v-.334a2.333 2.333 0 0 1 4.666 0v.334H5.828Zm3.172 4a1 1 0 1 0-2 0V11a1 1 0 1 0 2 0V9.667Z" clip-rule="evenodd"/>
</svg>
