<svg xmlns="http://www.w3.org/2000/svg" width="24" height="24" viewBox="0 0 24 24">
  <path fill-rule="evenodd" d="M18.775 9.194a7.281 7.281 0 0 0-3.968-3.969l-.51 1.232a5.958 5.958 0 0 1 3.246 3.247 5.96 5.96 0 0 1 0 4.592 6.007 6.007 0 0 1-7.839 3.247 5.961 5.961 0 0 1-3.248-3.247 5.966 5.966 0 0 1 0-4.592 5.96 5.96 0 0 1 3.248-3.247l-.51-1.232a7.286 7.286 0 0 0-3.97 3.969 7.288 7.288 0 0 0 0 5.612 7.281 7.281 0 0 0 3.97 3.97 7.297 7.297 0 0 0 2.796.557 7.346 7.346 0 0 0 6.785-4.527 7.28 7.28 0 0 0 0-5.612Z" clip-rule="evenodd"/>
  <path fill-rule="evenodd" d="M11.333 12h1.334V3.334h-1.334V12Z" clip-rule="evenodd"/>
</svg>
