<svg width="31" height="31" viewBox="0 0 31 31" fill="none" xmlns="http://www.w3.org/2000/svg">
  <g>
  <path d="M30.8286 29.9597L20.1077 19.2633C22.1204 17.0241 23.1795 14.0876 23.0594 11.0792C22.9393 8.0707 21.6495 5.22798 19.4646 3.15638C17.2797 1.08477 14.3724 -0.0520568 11.3618 -0.0120077C8.35124 0.0280415 5.47522 1.2418 3.34623 3.37079C1.21723 5.49979 0.00347484 8.37581 -0.0365743 11.3864C-0.0766234 14.397 1.0602 17.3043 3.13181 19.4891C5.20342 21.674 8.04613 22.9639 11.0546 23.084C14.063 23.2041 16.9995 22.145 19.2388 20.1322L29.9596 30.8287C30.0162 30.8841 30.0832 30.9278 30.1567 30.9572C30.2302 30.9866 30.3088 31.0011 30.388 31C30.4691 31.0021 30.5498 30.988 30.6255 30.9586C30.7011 30.9292 30.7702 30.885 30.8286 30.8287C30.9415 30.7122 31.0046 30.5564 31.0046 30.3942C31.0046 30.232 30.9415 30.0762 30.8286 29.9597ZM11.5408 21.9191C9.48815 21.9191 7.48163 21.3104 5.77494 20.17C4.06825 19.0296 2.73805 17.4088 1.95255 15.5124C1.16705 13.6161 0.961526 11.5293 1.36197 9.51617C1.76242 7.50299 2.75085 5.65377 4.20226 4.20235C5.65368 2.75093 7.5029 1.76251 9.51608 1.36206C11.5293 0.961616 13.616 1.16714 15.5123 1.95264C17.4087 2.73814 19.0296 4.06834 20.1699 5.77503C21.3103 7.48172 21.919 9.48824 21.919 11.5409C21.919 12.9037 21.6505 14.2533 21.129 15.5124C20.6074 16.7716 19.843 17.9156 18.8793 18.8794C17.9156 19.8431 16.7715 20.6075 15.5123 21.1291C14.2532 21.6506 12.9037 21.9191 11.5408 21.9191Z"/>
  </g>
  </svg>
