<svg width="24" height="24" viewBox="0 0 24 24" xmlns="http://www.w3.org/2000/svg">
<path fill-rule="evenodd" clip-rule="evenodd" d="M10.0001 5.33333C10.0001 4.23067 10.8974 3.33333 12.0001 3.33333C13.1027 3.33333 14.0001 4.23067 14.0001 5.33333V13.3333C14.0001 14.436 13.1027 15.3333 12.0001 15.3333C10.8974 15.3333 10.0001 14.436 10.0001 13.3333V5.33333ZM12.0001 16.6667C13.8381 16.6667 15.3334 15.1713 15.3334 13.3333V5.33333C15.3334 3.49533 13.8381 2 12.0001 2C10.1621 2 8.66675 3.49533 8.66675 5.33333V13.3333C8.66675 15.1713 10.1621 16.6667 12.0001 16.6667Z" />
<path fill-rule="evenodd" clip-rule="evenodd" d="M16.6667 11.3333V13.3333C16.6667 15.906 14.5733 18 12 18C9.42667 18 7.33333 15.906 7.33333 13.3333V11.3333H6V13.3333C6 16.4167 8.338 18.9613 11.3333 19.294V20.6667H8.66667V22H11.3333H12.6667H15.3333V20.6667H12.6667V19.294C15.662 18.9613 18 16.4167 18 13.3333V11.3333H16.6667Z" />
</svg>
