<svg width="29" height="29" viewBox="0 0 29 29" fill="none" xmlns="http://www.w3.org/2000/svg">
  <path d="M17.328 19.6959L22.8925 14.1185C23.2546 13.7587 23.4594 13.2701 23.4618 12.7597V4.99529C23.4551 4.48721 23.2494 4.00204 22.8889 3.64396C22.5283 3.28587 22.0418 3.08342 21.5337 3.08008H13.7693C13.2814 3.09918 12.8189 3.30267 12.4752 3.64947L2.44622 13.7302C2.26742 13.9071 2.12547 14.1177 2.02859 14.3499C1.93172 14.582 1.88184 14.831 1.88184 15.0825C1.88184 15.3341 1.93172 15.5831 2.02859 15.8152C2.12547 16.0473 2.26742 16.2579 2.44622 16.4348L10.2106 24.1992C10.3883 24.3791 10.5999 24.5221 10.8331 24.6198C11.0663 24.7175 11.3165 24.7681 11.5694 24.7686C11.8867 24.7604 12.1974 24.6761 12.4752 24.5227L12.7082 24.3286C13.0964 23.9275 13.0964 23.9275 17.328 19.6959ZM13.834 4.16709H21.5984C21.8227 4.16707 22.038 4.25527 22.1978 4.41266C22.3576 4.57004 22.4491 4.78397 22.4525 5.00823V12.7726C22.4524 12.8843 22.4294 12.9947 22.3849 13.0971C22.3403 13.1995 22.2753 13.2917 22.1937 13.3679L12.1 23.384C12.0218 23.4622 11.929 23.5243 11.8269 23.5667C11.7248 23.609 11.6153 23.6308 11.5047 23.6308C11.3941 23.6308 11.2846 23.609 11.1825 23.5667C11.0803 23.5243 10.9875 23.4622 10.9094 23.384L3.14502 15.6196C2.99078 15.4593 2.90294 15.2467 2.89915 15.0243C2.8983 14.9137 2.91962 14.804 2.96185 14.7018C3.00408 14.5995 3.06636 14.5068 3.14502 14.429L13.187 4.38708C13.2762 4.31335 13.3798 4.25914 13.4913 4.22793C13.6027 4.19673 13.7195 4.18923 13.834 4.20591V4.16709Z" fill="black"/>
  <path d="M18.3117 10.1976C18.6936 10.2001 19.0676 10.0892 19.3864 9.87894C19.7052 9.66863 19.9544 9.3684 20.1023 9.01631C20.2502 8.66422 20.2902 8.27613 20.2173 7.90125C20.1444 7.52638 19.9618 7.18161 19.6926 6.91065C19.4235 6.6397 19.08 6.45477 18.7056 6.37932C18.3312 6.30386 17.9429 6.34128 17.5898 6.48683C17.2367 6.63238 16.9348 6.87951 16.7224 7.19686C16.5099 7.51422 16.3965 7.88752 16.3965 8.26942C16.3965 8.77857 16.5978 9.26705 16.9566 9.62828C17.3154 9.98951 17.8026 10.1942 18.3117 10.1976ZM17.4706 8.26942C17.4706 8.09995 17.521 7.93432 17.6154 7.7936C17.7099 7.65288 17.844 7.54344 18.0009 7.47919C18.1577 7.41495 18.3301 7.3988 18.4961 7.43282C18.6621 7.46684 18.8142 7.54948 18.9332 7.67022C19.0521 7.79097 19.1324 7.94436 19.1639 8.11087C19.1953 8.27739 19.1766 8.44951 19.1099 8.60533C19.0433 8.76115 18.9318 8.89363 18.7897 8.9859C18.6475 9.07817 18.4811 9.12607 18.3117 9.12351C18.0874 9.12011 17.8735 9.02863 17.7161 8.86882C17.5587 8.70902 17.4705 8.49372 17.4706 8.26942Z" fill="black"/>
  <path d="M25.6741 4.50342C25.6027 4.5051 25.5324 4.52082 25.4671 4.5497C25.4018 4.57858 25.3428 4.62004 25.2935 4.67171C25.2443 4.72339 25.2056 4.78427 25.1799 4.85087C25.1542 4.91747 25.1418 4.98849 25.1435 5.05987V13.6783C25.1444 13.789 25.1231 13.8986 25.0808 14.0009C25.0386 14.1031 24.9763 14.1958 24.8977 14.2736L14.0275 25.1438C13.9767 25.1946 13.9367 25.2552 13.91 25.3219C13.8833 25.3887 13.8705 25.4601 13.8722 25.532C13.8705 25.6027 13.883 25.6731 13.9088 25.739C13.9347 25.8049 13.9735 25.8649 14.023 25.9155C14.0724 25.9662 14.1315 26.0064 14.1967 26.0339C14.262 26.0614 14.332 26.0755 14.4028 26.0755C14.5211 26.0769 14.636 26.0355 14.7263 25.959L25.6612 15.0371C26.0054 14.6928 26.2046 14.2297 26.2176 13.743V5.04693C26.2176 4.90278 26.1603 4.76453 26.0584 4.66261C25.9565 4.56068 25.8182 4.50342 25.6741 4.50342Z" fill="black"/>
  </svg>
