<svg width="28" height="28" viewBox="0 0 28 28" fill="none" xmlns="http://www.w3.org/2000/svg">
  <path d="M7.87155 6.79684H20.1786C20.2496 6.79693 20.32 6.78257 20.3853 6.75465C20.4507 6.72673 20.5097 6.68582 20.5587 6.63442C20.6078 6.58301 20.6459 6.52217 20.6708 6.45559C20.6956 6.38901 20.7067 6.31808 20.7033 6.24709C20.7033 6.10791 20.648 5.97444 20.5496 5.87602C20.4512 5.77761 20.3177 5.72232 20.1786 5.72232H7.87155C7.80217 5.72061 7.73317 5.73301 7.66872 5.75878C7.60428 5.78454 7.54575 5.82313 7.49667 5.87221C7.4476 5.92128 7.40901 5.97982 7.38324 6.04426C7.35747 6.1087 7.34507 6.17771 7.34679 6.24709C7.3434 6.31808 7.35447 6.38901 7.37932 6.45559C7.40418 6.52217 7.44229 6.58301 7.49136 6.63442C7.54044 6.68582 7.59944 6.72673 7.66479 6.75465C7.73014 6.78257 7.80049 6.79693 7.87155 6.79684Z" fill="black"/>
  <path d="M7.8716 9.85779H20.1786C20.3178 9.85779 20.4513 9.80251 20.5497 9.70409C20.6481 9.60568 20.7034 9.4722 20.7034 9.33303C20.7034 9.19385 20.6481 9.06037 20.5497 8.96196C20.4513 8.86355 20.3178 8.80826 20.1786 8.80826H7.8716C7.80222 8.80655 7.73321 8.81895 7.66877 8.84472C7.60433 8.87048 7.5458 8.90907 7.49672 8.95815C7.44765 9.00722 7.40905 9.06576 7.38329 9.1302C7.35752 9.19464 7.34512 9.26365 7.34684 9.33303C7.34684 9.4722 7.40212 9.60568 7.50054 9.70409C7.59895 9.80251 7.73243 9.85779 7.8716 9.85779Z" fill="black"/>
  <path d="M7.87169 12.9067H20.1787C20.3161 12.9244 20.455 12.8871 20.565 12.8028C20.6751 12.7186 20.7473 12.5942 20.7659 12.4569C20.7765 12.3895 20.7736 12.3207 20.7572 12.2545C20.7409 12.1883 20.7115 12.126 20.6707 12.0713C20.63 12.0166 20.5788 11.9706 20.52 11.936C20.4613 11.9013 20.3962 11.8788 20.3286 11.8696H7.87169C7.8034 11.8572 7.73329 11.8587 7.66562 11.8742C7.59796 11.8897 7.53414 11.9188 7.47806 11.9597C7.42197 12.0006 7.37478 12.0524 7.33935 12.1121C7.30392 12.1718 7.28099 12.2381 7.27196 12.3069C7.26128 12.375 7.26413 12.4446 7.28033 12.5115C7.29653 12.5785 7.32577 12.6417 7.36638 12.6974C7.40699 12.7531 7.45817 12.8002 7.517 12.8361C7.57583 12.872 7.64116 12.896 7.70926 12.9067H7.87169Z" fill="black"/>
  <path d="M22.1025 2.63623H6.0097C5.67833 2.63623 5.36053 2.76787 5.12621 3.00218C4.89189 3.2365 4.76026 3.5543 4.76026 3.88567V24.0642C4.75968 24.3829 4.88098 24.6899 5.09932 24.9222C5.31766 25.1544 5.61652 25.2945 5.93473 25.3136H16.7049C17.5131 25.2672 18.2846 24.9604 18.9039 24.439L22.3774 21.2404C22.9257 20.6531 23.2526 19.8933 23.302 19.0914V3.93565C23.3087 3.77154 23.2829 3.60772 23.2263 3.45356C23.1696 3.2994 23.0831 3.15793 22.9717 3.03724C22.8603 2.91655 22.7262 2.81901 22.577 2.7502C22.4279 2.68139 22.2666 2.64266 22.1025 2.63623ZM21.7152 20.4408L18.2043 23.7393L18.0043 23.8892V21.078C17.9992 20.9819 18.0139 20.8859 18.0475 20.7957C18.0811 20.7056 18.133 20.6234 18.1998 20.5542C18.2666 20.4851 18.347 20.4304 18.4359 20.3937C18.5248 20.357 18.6204 20.339 18.7165 20.3408H21.7777L21.7152 20.4408ZM22.3024 19.0414V19.3038H18.7415C18.5081 19.3021 18.2766 19.3469 18.0606 19.4355C17.8446 19.524 17.6483 19.6547 17.4833 19.8197C17.3182 19.9848 17.1875 20.1811 17.099 20.3971C17.0104 20.6131 16.9656 20.8445 16.9673 21.078V24.3141H6.0097C5.94127 24.34 5.86572 24.34 5.79729 24.3141C5.7722 24.2498 5.7722 24.1784 5.79729 24.1141V3.93565C5.79729 3.86275 5.82625 3.79283 5.8778 3.74128C5.92935 3.68973 5.99927 3.66077 6.07217 3.66077H22.04C22.1088 3.66923 22.1725 3.70124 22.2203 3.75134C22.2682 3.80145 22.2972 3.86658 22.3024 3.93565V19.0414Z" fill="black"/>
  </svg>
