<svg xmlns="http://www.w3.org/2000/svg" width="24" height="24" viewBox="0 0 24 24">
  <path fill-rule="evenodd" d="M4.457 4.457V20H20V4.457H4.457Zm-1.333-.104c0-.679.55-1.23 1.23-1.23h15.75c.68 0 1.23.551 1.23 1.23v15.75c0 .68-.551 1.23-1.23 1.23H4.354a1.23 1.23 0 0 1-1.23-1.23V4.354Z" clip-rule="evenodd"/>
  <path fill-rule="evenodd" d="M11.563 7.202c-.49.068-.968.234-1.372.54-.62.47-.972 1.2-.972 2.144 0 .459.106.865.316 1.215.206.347.492.603.798.798.57.362 1.297.56 1.904.726l.051.014c.673.183 1.21.336 1.59.578a1.1 1.1 0 0 1 .37.356c.073.122.127.287.127.532 0 .583-.236.953-.582 1.196-.373.261-.921.402-1.54.38-.947-.035-1.853-.438-2.303-1.038l-1.067.8c.627.836 1.652 1.333 2.68 1.505v1.376h1.333v-1.337c.595-.067 1.177-.254 1.662-.594.7-.49 1.15-1.267 1.15-2.288 0-.459-.106-.865-.315-1.215a2.424 2.424 0 0 0-.799-.798c-.57-.362-1.297-.56-1.903-.726l-.052-.014c-.673-.183-1.209-.336-1.59-.578a1.1 1.1 0 0 1-.37-.356 1.003 1.003 0 0 1-.127-.532c0-.585.201-.898.444-1.081.27-.205.69-.321 1.215-.307.898.024 1.857.419 2.36.922l.942-.943c-.64-.64-1.63-1.09-2.617-1.25V6.136h-1.333v1.066Z" clip-rule="evenodd"/>
</svg>
