<svg width="24" height="24" viewBox="0 0 24 24" fill="none" xmlns="http://www.w3.org/2000/svg">
<path d="M17.0386 14.0127C18.8315 14.0127 20.2856 15.4658 20.2856 17.2588C20.2856 17.9138 20.0891 18.5231 19.7554 19.0332L21.4214 20.6982L20.478 21.6406L18.813 19.9756C18.303 20.3092 17.6935 20.5049 17.0386 20.5049C15.2458 20.5047 13.7925 19.0516 13.7925 17.2588C13.7925 15.4659 15.2457 14.0128 17.0386 14.0127ZM15.9858 2.83398V2.92285C16.1287 2.98174 16.2602 3.06925 16.3716 3.18066L19.0786 5.8877C19.19 5.99914 19.2776 6.1305 19.3364 6.27344H19.4253V12.0996H18.0923V7.60645H15.8345C15.1814 7.60628 14.6519 7.07684 14.6519 6.42383V4.16699H5.6665V20.0322H11.019V21.3652H5.51611C4.863 21.3652 4.3335 20.8358 4.3335 20.1826V4.0166C4.3335 3.36347 4.86298 2.83398 5.51611 2.83398H15.9858ZM17.0386 15.3457C15.9821 15.3458 15.1255 16.2023 15.1255 17.2588C15.1255 18.3152 15.9821 19.1717 17.0386 19.1719C17.5679 19.1719 18.046 18.9573 18.3931 18.6094C18.7389 18.2626 18.9516 17.7863 18.9517 17.2588C18.9517 16.2022 18.0951 15.3457 17.0386 15.3457ZM11.686 14.4854H7.77295V13.1523H11.686V14.4854ZM15.9858 11.0459H7.77295V9.71191H15.9858V11.0459ZM12.5454 7.60645H7.77295V6.27246H12.5454V7.60645ZM15.9858 6.27344H17.5796L15.9858 4.67969V6.27344Z" fill="black"/>
</svg>
