<svg xmlns="http://www.w3.org/2000/svg" width="16" height="16" viewBox="0 0 16 16">
  <path fill-rule="evenodd" d="m12.215 5.077-1.267-1.28.89-.9 1.267 1.281-.89.9Zm-2.61.078.71-.718 1.267 1.28-.71.719-1.268-1.28Zm-4.928 4.982L8.97 5.796l1.267 1.28-4.294 4.342-1.267-1.281ZM3.63 11.985l.409-1.204.003-.004 1.265 1.28-1.237.373-.44-.445Zm10.107-8.447L12.47 2.256a.91.91 0 0 0-1.267 0L3.26 10.29 2 14l3.787-1.143 7.95-8.038a.913.913 0 0 0 0-1.281ZM12.47 2.256l1.267 1.282c.35.353.35.928 0 1.28l-7.951 8.04L2 14l1.26-3.711 7.944-8.032a.91.91 0 0 1 1.267 0Zm-1.338-.07-7.961 8.049-1.33 3.917 3.998-1.206 7.969-8.057a1.013 1.013 0 0 0 0-1.421m0 0-1.267-1.282a1.01 1.01 0 0 0-1.41 0m1.083 2.891.89-.899-1.267-1.28-.89.899 1.267 1.28Zm0-.142.749-.757-1.127-1.139-.748.758 1.126 1.138Zm-2.61.22 1.266 1.281.71-.718-1.266-1.281-.71.718Zm.71-.576-.57.576 1.126 1.139.57-.576-1.126-1.139Zm-5.498 5.558 1.126 1.138 4.154-4.199L8.97 5.938l-4.154 4.199Zm-.14 0 1.267 1.28 4.294-4.34L8.97 5.795l-4.294 4.34Zm-.931 1.821.354.359 1.02-.309-1.036-1.047-.338.997Zm-.115.027.44.445 1.237-.374-1.265-1.279-.003.004-.409 1.204Z" clip-rule="evenodd"/>
</svg>
