<svg xmlns="http://www.w3.org/2000/svg" width="24" height="24" viewBox="0 0 24 24">
  <path d="M12,14 C14.209139,14 16,12.209139 16,10 C16,7.790861 14.209139,6 12,6 C9.790861,6 8,7.790861 8,10 C8,12.209139 9.790861,14 12,14 Z M11.9163622,15.999429 C9.98592844,16.0326895 8.16657151,17.1890854 7.38060234,19.0865828 C7.16925211,19.5968274 6.58428395,19.8391292 6.07403937,19.6277789 C5.5637948,19.4164287 5.32149305,18.8314605 5.53284327,18.321216 C6.15437245,16.8207118 7.23748195,15.6512334 8.54947558,14.9091665 C7.00744507,13.8233188 6,12.0293101 6,10 C6,6.6862915 8.6862915,4 12,4 C15.3137085,4 18,6.6862915 18,10 C18,12.0292232 16.9926412,13.8231652 15.4507226,14.909027 C16.814785,15.6800713 17.8702949,16.8798706 18.4674166,18.3218435 C18.6787176,18.8321085 18.4363594,19.4170533 17.9260944,19.6283543 C17.4158295,19.8396552 16.8308847,19.597297 16.6195837,19.0870321 C16.1150913,17.8687471 15.1562133,16.8953854 13.9134172,16.3806023 C13.3151229,16.1327807 12.696281,16.0097049 12.0858036,15.999399 C12.0572502,15.9997992 12.0286485,16 12,16 C11.9720758,16 11.9441961,15.9998092 11.9163622,15.999429 Z"/>
</svg>
