<svg width="15" height="14" viewBox="0 0 15 14" fill="none" xmlns="http://www.w3.org/2000/svg">
<path d="M14.4369 8.456C14.3284 8.95844 14.1471 9.48425 14.1425 9.4936C13.9255 10.0784 13.6328 10.6311 13.272 11.1353C13.2657 11.1505 13.1811 11.2691 13.1464 11.3141C13.1123 11.3596 13.0782 11.4023 13.0436 11.4461C12.9129 11.6103 12.6134 11.941 12.6134 11.941C12.6117 11.9427 12.6094 11.945 12.6072 11.9474C12.1679 12.3972 11.6707 12.784 11.1297 13.0954C11.1195 13.1024 11.0485 13.1468 11.0218 13.162C10.9951 13.1772 10.9604 13.1935 10.9297 13.2105C10.7712 13.2952 10.6092 13.3741 10.4439 13.4465C10.4137 13.4594 10.3842 13.4734 10.3535 13.4868C10.3154 13.5026 10.0495 13.6013 9.9745 13.6276C9.92108 13.6475 9.8671 13.6662 9.81312 13.6843C9.81085 13.6843 9.80857 13.6843 9.80573 13.6843C9.37273 13.8239 8.92723 13.9192 8.47491 13.9677C8.46298 13.9688 7.93849 14.0015 7.87144 13.9986C7.62425 13.9986 7.40321 13.9916 7.39355 13.9887C7.23785 13.9799 7.08272 13.9653 6.92873 13.9455C6.92589 13.9455 6.92305 13.9449 6.9202 13.9449C6.91225 13.9437 6.90429 13.9425 6.89634 13.9414C6.46618 13.8841 6.0417 13.7854 5.62859 13.6452C5.21719 13.519 4.69554 13.2537 4.69213 13.2502C4.14321 12.9616 3.6352 12.5982 3.18232 12.1688C3.11129 12.1016 2.98286 11.9813 2.97775 11.9754C2.80785 11.8042 2.64647 11.6243 2.49531 11.4362C2.34302 11.2445 2.36291 10.9641 2.5402 10.7964C2.7175 10.6293 2.99082 10.6329 3.16356 10.8046C3.17493 10.8163 3.18629 10.8286 3.19652 10.8414C3.3454 11.026 3.50451 11.2019 3.67328 11.3684C4.22049 11.9135 4.86545 12.3441 5.57234 12.6356L5.62291 12.6555C6.2673 12.9119 6.95032 13.0504 7.64073 13.065C7.8095 13.0691 7.97713 13.0644 8.1459 13.0516C8.53855 13.0276 8.92666 12.9634 9.30568 12.8611C9.5432 12.7933 9.77732 12.711 10.0058 12.6122L10.0552 12.5894C10.6893 12.3073 11.2701 11.9135 11.7718 11.4251C11.8946 11.3059 12.0111 11.182 12.123 11.0512C12.5532 10.561 12.9032 10.0019 13.1589 9.39603C13.1691 9.37266 13.1777 9.34929 13.1873 9.32534C13.2481 9.17636 13.3021 9.02387 13.3498 8.86847C13.3589 8.83926 13.3692 8.81063 13.3777 8.78142C13.5493 8.20653 13.6362 7.60886 13.6362 7.0071C13.6362 6.82014 13.6249 6.63611 13.609 6.45383C13.605 6.40709 13.5999 6.36035 13.5948 6.31361C13.4209 4.75838 12.6691 3.33227 11.4968 2.33323L11.4729 2.3122C10.8894 1.81852 10.22 1.44519 9.49945 1.2115C9.47899 1.20507 9.45797 1.19923 9.43751 1.19339C9.28806 1.14665 9.13578 1.10692 8.98292 1.07245L8.87041 1.04791C5.7161 0.404673 2.64192 2.48046 1.96117 5.71244L2.97889 5.18487C3.20334 5.06919 3.47667 5.16326 3.58861 5.39403C3.70112 5.62539 3.60963 5.90582 3.38461 6.0215L1.56624 6.95627C1.5043 6.98723 1.43668 7.00301 1.36736 7.00301C1.3611 7.00535 1.35429 7.00651 1.34747 7.00768C1.3344 7.00476 1.32133 7.00067 1.30826 6.99658C1.26109 6.99132 1.21507 6.97905 1.17188 6.95861C1.07869 6.91654 1.00254 6.84351 0.955381 6.7512L0.0461957 4.88166C-0.066316 4.6503 0.0251708 4.36987 0.249626 4.25419C0.474649 4.13909 0.747405 4.23257 0.859916 4.46393L1.17018 5.1025C1.29917 4.63277 1.47646 4.17824 1.69921 3.74707C1.70205 3.73422 1.70603 3.72137 1.71057 3.70851C1.86002 3.42049 2.02936 3.14415 2.21574 2.88007C2.79534 2.06156 3.51815 1.49953 3.53747 1.48025C3.78692 1.27869 4.04888 1.09348 4.32505 0.931652C5.09047 0.482377 5.73258 0.310612 5.73883 0.307106C5.84509 0.272637 5.95249 0.242257 6.06046 0.213629C6.06898 0.209539 6.65313 0.083345 6.6645 0.0815923C6.66677 0.0810081 6.66961 0.0815923 6.67188 0.0810081C6.78837 0.0623126 6.90543 0.045954 7.02306 0.0331009C7.02306 0.0331009 7.50606 -0.00195312 7.72881 -0.00195312C7.92883 -0.000784658 8.12885 0.0109 8.32831 0.0301797C8.37945 0.0342694 8.43002 0.0389432 8.48116 0.0442013C8.50787 0.0395275 9.08691 0.111972 9.60514 0.258615C10.1654 0.417527 10.7036 0.650052 11.2064 0.949179C11.5076 1.15483 11.8014 1.3301 12.0639 1.55386C12.2344 1.69466 12.3998 1.84481 12.5583 2.00547C12.8202 2.27481 13.0606 2.56517 13.2771 2.87481L13.2811 2.8789C13.5198 3.16109 13.8334 3.79615 13.8374 3.80608C14.1198 4.37104 14.3261 4.9728 14.4505 5.59442C14.4522 5.60202 14.521 5.90173 14.5505 6.25928C14.5517 6.2733 14.5528 6.28674 14.5545 6.30134C14.5636 6.39541 14.5761 6.62209 14.5721 6.64137C14.604 7.24956 14.5579 7.85949 14.4369 8.456ZM7.44526 3.18446C7.1941 3.18446 6.99067 3.39361 6.99067 3.65184V7.39094C6.99067 7.5148 7.0384 7.63398 7.12363 7.72162L8.94201 9.59116C9.12043 9.76819 9.40399 9.76585 9.579 9.58532C9.75402 9.40479 9.75686 9.11384 9.58469 8.9304L7.89928 7.19756V3.65184C7.89985 3.39361 7.69642 3.18446 7.44526 3.18446Z" fill="black"/>
</svg>
