<svg xmlns="http://www.w3.org/2000/svg" width="24" height="24" viewBox="0 0 24 24">
  <path fill-rule="evenodd" d="M7.772 2.35h8.456c.816 0 1.469 0 1.995.043.54.044 1.006.137 1.434.355a3.65 3.65 0 0 1 1.595 1.595c.218.428.31.893.355 1.434.043.526.043 1.179.043 1.995v8.456c0 .816 0 1.468-.043 1.995-.044.54-.137 1.006-.355 1.434a3.65 3.65 0 0 1-1.595 1.595c-.428.218-.893.31-1.434.355-.526.043-1.178.043-1.995.043H7.772c-.816 0-1.468 0-1.995-.043-.54-.044-1.006-.137-1.434-.355a3.65 3.65 0 0 1-1.595-1.595c-.218-.428-.31-.893-.355-1.434-.043-.526-.043-1.179-.043-1.995V7.772c0-.816 0-1.469.043-1.995.044-.54.137-1.006.355-1.434a3.65 3.65 0 0 1 1.595-1.595c.428-.218.893-.31 1.434-.355.527-.043 1.179-.043 1.995-.043Zm-1.89 1.339c-.46.037-.735.108-.949.217a2.35 2.35 0 0 0-1.027 1.027c-.109.214-.18.49-.217.95C3.65 6.35 3.65 6.949 3.65 7.8v8.4c0 .85 0 1.45.039 1.917.037.46.108.736.217.95a2.35 2.35 0 0 0 1.027 1.027c.214.109.49.18.95.217.467.038 1.066.039 1.917.039h8.4c.85 0 1.45 0 1.918-.039.46-.037.735-.108.949-.217a2.35 2.35 0 0 0 1.027-1.027c.109-.214.18-.49.217-.95.039-.467.04-1.066.04-1.917V7.8c0-.85-.001-1.45-.04-1.917-.037-.46-.108-.736-.217-.95a2.35 2.35 0 0 0-1.027-1.027c-.214-.109-.49-.18-.95-.217-.467-.039-1.066-.039-1.917-.039H7.8c-.85 0-1.45 0-1.917.039ZM7.04 8.04a.65.65 0 0 1 .92 0l3.5 3.5a.65.65 0 0 1 0 .92l-3.5 3.5a.65.65 0 0 1-.92-.92L10.08 12 7.04 8.96a.65.65 0 0 1 0-.92Zm5.31 7.46a.65.65 0 0 1 .65-.65h4a.65.65 0 1 1 0 1.3h-4a.65.65 0 0 1-.65-.65Z"/>
</svg>
