<svg xmlns="http://www.w3.org/2000/svg" width="24" height="24" viewBox="0 0 24 24">
  <path fill-rule="evenodd" d="M10.667 8.667H7.1c1.576-2.261 4.566-3.21 7.214-2.113a5.965 5.965 0 0 1 3.216 3.18l1.225-.525a7.294 7.294 0 0 0-3.93-3.887C11.585 3.98 7.925 5.145 6 7.914V4H4.667v6h6V8.667ZM13.333 14v1.333h3.733c-1.538 2.399-4.621 3.434-7.343 2.308a5.96 5.96 0 0 1-3.247-3.248l-1.231.511a7.283 7.283 0 0 0 3.968 3.969 7.297 7.297 0 0 0 2.796.558A7.365 7.365 0 0 0 18 16.339V20h1.333v-6h-6Z" clip-rule="evenodd"/>
</svg>
