<svg width="16" height="16" viewBox="0 0 16 16" xmlns="http://www.w3.org/2000/svg">
  <g clip-path="url(#clip0_256_12351)">
    <path fill-rule="evenodd" clip-rule="evenodd" d="M6.97983 0.979821C7.17509 0.784558 7.49167 0.784558 7.68693 0.979821L9.68694 2.97982C9.8822 3.17508 9.8822 3.49167 9.68694 3.68693L7.68693 5.68693C7.49167 5.88219 7.17509 5.88219 6.97983 5.68693C6.78457 5.49166 6.78457 5.17508 6.97983 4.97982L8.12627 3.83337H4.53338C3.96508 3.83337 3.56892 3.83376 3.2605 3.85896C2.95792 3.88368 2.78407 3.92977 2.6524 3.99686C2.37015 4.14067 2.14068 4.37015 1.99687 4.65239C1.92978 4.78407 1.88369 4.95791 1.85897 5.26049C1.83377 5.56891 1.83338 5.96507 1.83338 6.53337V10.3334C1.83338 10.6589 1.83446 10.7732 1.84622 10.8625C1.93483 11.5356 2.46449 12.0653 3.13759 12.1539C3.22688 12.1656 3.34121 12.1667 3.66672 12.1667C3.94286 12.1667 4.16672 12.3906 4.16672 12.6667C4.16672 12.9428 3.94286 13.1667 3.66672 13.1667L3.62816 13.1667C3.3557 13.1668 3.17014 13.1668 3.00707 13.1453C1.88523 12.9976 1.00246 12.1149 0.85477 10.993C0.833302 10.83 0.833333 10.6444 0.833378 10.3719C0.83338 10.3593 0.833382 10.3464 0.833382 10.3334L0.833382 6.51197C0.833377 5.97008 0.833373 5.533 0.862291 5.17906C0.892066 4.81464 0.954972 4.49454 1.10587 4.1984C1.34555 3.72799 1.728 3.34554 2.19841 3.10586C2.49455 2.95496 2.81465 2.89206 3.17907 2.86228C3.53301 2.83336 3.97009 2.83337 4.51198 2.83337L8.12628 2.83337L6.97983 1.68693C6.78457 1.49167 6.78457 1.17508 6.97983 0.979821ZM12.8625 3.84621C12.7732 3.83445 12.6589 3.83337 12.3334 3.83337C12.0572 3.83337 11.8334 3.60952 11.8334 3.33337C11.8334 3.05723 12.0572 2.83337 12.3334 2.83337C12.3464 2.83337 12.3593 2.83337 12.372 2.83337C12.6444 2.83332 12.83 2.83329 12.993 2.85476C14.1149 3.00245 14.9976 3.88522 15.1453 5.00706C15.1668 5.17012 15.1668 5.35568 15.1667 5.62812L15.1667 9.48812C15.1667 10.03 15.1667 10.4671 15.1378 10.821C15.108 11.1854 15.0451 11.5055 14.8942 11.8017C14.6545 12.2721 14.2721 12.6545 13.8017 12.8942C13.5055 13.0451 13.1855 13.108 12.821 13.1378C12.4671 13.1667 12.03 13.1667 11.4881 13.1667H7.87382L9.02027 14.3132C9.21553 14.5084 9.21553 14.825 9.02027 15.0203C8.82501 15.2155 8.50842 15.2155 8.31316 15.0203L6.31316 13.0203C6.1179 12.825 6.1179 12.5084 6.31316 12.3132L8.31316 10.3132C8.50842 10.1179 8.82501 10.1179 9.02027 10.3132C9.21553 10.5084 9.21553 10.825 9.02027 11.0203L7.87382 12.1667H11.4667C12.035 12.1667 12.4312 12.1663 12.7396 12.1411C13.0422 12.1164 13.216 12.0703 13.3477 12.0032C13.6299 11.8594 13.8594 11.6299 14.0032 11.3477C14.0703 11.216 14.1164 11.0422 14.1411 10.7396C14.1663 10.4312 14.1667 10.035 14.1667 9.46671V5.66671C14.1667 5.3412 14.1656 5.22687 14.1539 5.13758C14.0653 4.46448 13.5356 3.93482 12.8625 3.84621Z"/>
  </g>
  <defs>
    <clipPath id="clip0_256_12351">
      <rect width="16" height="16"/>
    </clipPath>
  </defs>
</svg>
