<svg width="16" height="16" viewBox="0 0 16 16" xmlns="http://www.w3.org/2000/svg">
  <path fill-rule="evenodd" clip-rule="evenodd" d="M11.6464 1.64645C11.8417 1.45118 12.1583 1.45118 12.3536 1.64645L14.3536 3.64645C14.5488 3.84171 14.5488 4.15829 14.3536 4.35355L12.3536 6.35355C12.1583 6.54882 11.8417 6.54882 11.6464 6.35355C11.4512 6.15829 11.4512 5.84171 11.6464 5.64645L12.7929 4.5H12.3793C11.722 4.5 11.4975 4.50509 11.3012 4.56473C11.1125 4.62203 10.9369 4.71597 10.7846 4.84118C10.6261 4.97148 10.4973 5.15543 10.1327 5.70231L6.69933 10.8524C6.6855 10.8731 6.67186 10.8936 6.65841 10.9138C6.35082 11.3756 6.13812 11.6949 5.85036 11.9314C5.59646 12.14 5.3039 12.2966 4.98943 12.3921C4.63302 12.5004 4.24937 12.5002 3.69455 12.5C3.67028 12.5 3.64568 12.5 3.62075 12.5H2C1.72386 12.5 1.5 12.2761 1.5 12C1.5 11.7239 1.72386 11.5 2 11.5H3.62075C4.27802 11.5 4.50248 11.4949 4.69884 11.4353C4.88753 11.378 5.06306 11.284 5.2154 11.1588C5.37394 11.0285 5.50269 10.8446 5.86728 10.2977L9.30067 5.14761C9.3145 5.12686 9.32813 5.10639 9.34159 5.0862C9.64918 4.62445 9.86188 4.30514 10.1496 4.06864C10.4035 3.85995 10.6961 3.70338 11.0106 3.60788C11.367 3.49964 11.7506 3.49978 12.3055 3.49998C12.3297 3.49999 12.3543 3.5 12.3793 3.5H12.7929L11.6464 2.35355C11.4512 2.15829 11.4512 1.84171 11.6464 1.64645ZM4.69884 4.56473C4.50248 4.50509 4.27802 4.5 3.62075 4.5H2C1.72386 4.5 1.5 4.27614 1.5 4C1.5 3.72386 1.72386 3.5 2 3.5H3.62075C3.64568 3.5 3.67028 3.49999 3.69454 3.49998C4.24937 3.49978 4.63302 3.49964 4.98943 3.60788C5.3039 3.70338 5.59646 3.85995 5.85036 4.06864C6.13812 4.30514 6.35082 4.62444 6.65841 5.0862C6.67187 5.10639 6.6855 5.12686 6.69933 5.14761L6.86047 5.38932C7.01365 5.61908 6.95156 5.92952 6.7218 6.08269C6.49203 6.23587 6.1816 6.17378 6.02842 5.94402L5.86728 5.70231C5.50269 5.15543 5.37394 4.97149 5.2154 4.84118C5.06306 4.71597 4.88753 4.62203 4.69884 4.56473ZM11.6464 9.64645C11.8417 9.45119 12.1583 9.45119 12.3536 9.64645L14.3536 11.6464C14.5488 11.8417 14.5488 12.1583 14.3536 12.3536L12.3536 14.3536C12.1583 14.5488 11.8417 14.5488 11.6464 14.3536C11.4512 14.1583 11.4512 13.8417 11.6464 13.6464L12.7929 12.5H12.3793C12.3543 12.5 12.3297 12.5 12.3055 12.5C11.7506 12.5002 11.367 12.5004 11.0106 12.3921C10.6961 12.2966 10.4035 12.14 10.1496 11.9314C9.86188 11.6949 9.64918 11.3756 9.34159 10.9138C9.32814 10.8936 9.3145 10.8731 9.30067 10.8524L9.13953 10.6107C8.98635 10.3809 9.04844 10.0705 9.27821 9.91731C9.50797 9.76413 9.81841 9.82622 9.97158 10.056L10.1327 10.2977C10.4973 10.8446 10.6261 11.0285 10.7846 11.1588C10.9369 11.284 11.1125 11.378 11.3012 11.4353C11.4975 11.4949 11.722 11.5 12.3793 11.5H12.7929L11.6464 10.3536C11.4512 10.1583 11.4512 9.84171 11.6464 9.64645Z"/>
</svg>
