<svg width="25" height="20" viewBox="0 0 25 20" fill="none" xmlns="http://www.w3.org/2000/svg">
  <path d="M23.5007 20H1.04811C0.923697 20 0.800505 19.9748 0.685565 19.9257C0.570625 19.8766 0.466188 19.8047 0.378216 19.7141C0.20055 19.531 0.100739 19.2827 0.100739 19.0239V0.976139C0.100739 0.717251 0.20055 0.468966 0.378216 0.285904C0.555882 0.102843 0.796849 0 1.04811 0L23.5007 0C23.752 0 23.993 0.102843 24.1706 0.285904C24.3483 0.468966 24.4481 0.717251 24.4481 0.976139V19.0239C24.4481 19.2827 24.3483 19.531 24.1706 19.7141C23.993 19.8972 23.752 20 23.5007 20ZM1.99548 18.0477H22.5534V1.95228H1.99548V18.0477Z"/>
  </svg>
