<svg width="25" height="20" viewBox="0 0 25 20" fill="none" xmlns="http://www.w3.org/2000/svg">
  <path d="M1.06925 18.0103H23.5008C23.6358 17.9958 23.7722 18.0106 23.9012 18.0538C24.0302 18.097 24.149 18.1677 24.2498 18.2612C24.3506 18.3548 24.4312 18.4691 24.4864 18.5968C24.5416 18.7245 24.5701 18.8627 24.5701 19.0024C24.5701 19.1422 24.5416 19.2804 24.4864 19.4081C24.4312 19.5358 24.3506 19.6501 24.2498 19.7436C24.149 19.8372 24.0302 19.9079 23.9012 19.9511C23.7722 19.9943 23.6358 20.0091 23.5008 19.9946H1.06925C0.934307 20.0091 0.797902 19.9943 0.668876 19.9511C0.53985 19.9079 0.421082 19.8372 0.320271 19.7436C0.219461 19.6501 0.138857 19.5358 0.0836835 19.4081C0.0285105 19.2804 0 19.1422 0 19.0024C0 18.8627 0.0285105 18.7245 0.0836835 18.5968C0.138857 18.4691 0.219461 18.3548 0.320271 18.2612C0.421082 18.1677 0.53985 18.097 0.668876 18.0538C0.797902 18.0106 0.934307 17.9958 1.06925 18.0103ZM1.06925 14.508H23.5008C23.6358 14.4934 23.7722 14.5083 23.9012 14.5515C24.0302 14.5947 24.149 14.6654 24.2498 14.7589C24.3506 14.8525 24.4312 14.9668 24.4864 15.0945C24.5416 15.2222 24.5701 15.3604 24.5701 15.5001C24.5701 15.6399 24.5416 15.7781 24.4864 15.9058C24.4312 16.0335 24.3506 16.1478 24.2498 16.2413C24.149 16.3349 24.0302 16.4055 23.9012 16.4488C23.7722 16.492 23.6358 16.5068 23.5008 16.4923H1.06925C0.934307 16.5068 0.797902 16.492 0.668876 16.4488C0.53985 16.4055 0.421082 16.3349 0.320271 16.2413C0.219461 16.1478 0.138857 16.0335 0.0836835 15.9058C0.0285105 15.7781 0 15.6399 0 15.5001C0 15.3604 0.0285105 15.2222 0.0836835 15.0945C0.138857 14.9668 0.219461 14.8525 0.320271 14.7589C0.421082 14.6654 0.53985 14.5947 0.668876 14.5515C0.797902 14.5083 0.934307 14.4934 1.06925 14.508Z"/>
  <path d="M23.5429 13.0117H1.0903C0.965893 13.0117 0.842701 12.9864 0.727761 12.9374C0.612821 12.8883 0.508384 12.8164 0.420413 12.7258C0.242747 12.5428 0.142935 12.2946 0.142935 12.0358V0.975874C0.142935 0.717056 0.242747 0.468839 0.420413 0.285827C0.598079 0.102815 0.839045 0 1.0903 0L23.5429 0C23.7942 0 24.0352 0.102815 24.2128 0.285827C24.3905 0.468839 24.4903 0.717056 24.4903 0.975874V12.0033C24.4945 12.1341 24.4732 12.2645 24.4275 12.3867C24.3817 12.5089 24.3126 12.6203 24.2242 12.7144C24.1358 12.8085 24.03 12.8833 23.9129 12.9344C23.7959 12.9855 23.67 13.0117 23.5429 13.0117ZM2.03767 11.0274H22.5956V1.95175H2.03767V11.0274Z"/>
  </svg>
