<svg width="25" height="20" viewBox="0 0 25 20" fill="none" xmlns="http://www.w3.org/2000/svg">
  <path d="M1.06247 18.0054H23.3495C23.8827 18.0054 24.3113 18.4499 24.3113 19.0027C24.3113 19.5556 23.8827 20 23.3495 20H1.06247C0.529336 19.9892 0.100739 19.5447 0.100739 19.0027C0.100739 18.4499 0.529336 18.0054 1.06247 18.0054ZM1.06247 6.00542H23.3495C23.8827 6.00542 24.3113 6.44986 24.3113 7.00271C24.3113 7.55556 23.8827 8 23.3495 8H1.06247C0.529336 7.98916 0.100739 7.54472 0.100739 6.99187C0.100739 6.44986 0.529336 6.00542 1.06247 6.00542ZM1.06247 12H23.3495C23.8827 12 24.3113 12.4444 24.3113 12.9973C24.3113 13.5501 23.8827 13.9946 23.3495 13.9946H1.06247C0.529336 13.9946 0.100739 13.5501 0.100739 12.9973C0.100739 12.4444 0.529336 12 1.06247 12ZM1.06247 0H23.3495C23.8827 0 24.3113 0.444444 24.3113 0.99729C24.3113 1.55014 23.8827 1.99458 23.3495 1.99458H1.06247C0.529336 1.98374 0.100739 1.5393 0.100739 0.99729C0.100739 0.444444 0.529336 0 1.06247 0Z"/>
  </svg>
