<svg xmlns="http://www.w3.org/2000/svg" width="24" height="24" viewBox="0 0 24 24">
  <path fill-rule="evenodd" d="M10.667 6.667c0-.736.598-1.334 1.333-1.334A1.335 1.335 0 0 1 12 8a1.335 1.335 0 0 1-1.333-1.333Zm3.905.666h6.095V6h-6.095A2.664 2.664 0 0 0 12 4c-1.24 0-2.274.853-2.572 2H3.333v1.333h6.095a2.664 2.664 0 0 0 2.572 2c1.24 0 2.274-.853 2.572-2ZM14.667 12c0-.735.598-1.333 1.333-1.333s1.333.598 1.333 1.333-.598 1.333-1.333 1.333A1.335 1.335 0 0 1 14.667 12ZM16 14.667c1.24 0 2.274-.854 2.572-2h2.095v-1.334h-2.095a2.664 2.664 0 0 0-2.572-2c-1.24 0-2.274.854-2.572 2H3.333v1.334h10.095a2.664 2.664 0 0 0 2.572 2Zm-9.333 2.666C6.667 16.598 7.265 16 8 16a1.335 1.335 0 0 1 0 2.667 1.335 1.335 0 0 1-1.333-1.334ZM8 20c1.24 0 2.274-.853 2.572-2h10.095v-1.333H10.572a2.664 2.664 0 0 0-2.572-2c-1.24 0-2.274.853-2.572 2H3.333V18h2.095A2.664 2.664 0 0 0 8 20Z" clip-rule="evenodd"/>
</svg>
