<svg width="29" height="29" viewBox="0 0 29 29" fill="none" xmlns="http://www.w3.org/2000/svg">
  <path d="M4.23149 7.76432H6.47023C6.58786 8.41135 6.92886 8.99657 7.43375 9.41794C7.93865 9.83932 8.57542 10.0701 9.23306 10.0701C9.89069 10.0701 10.5275 9.83932 11.0324 9.41794C11.5373 8.99657 11.8782 8.41135 11.9959 7.76432H24.7683C24.9056 7.76432 25.0373 7.70979 25.1343 7.61272C25.2314 7.51564 25.2859 7.38398 25.2859 7.2467C25.2859 7.10942 25.2314 6.97776 25.1343 6.88068C25.0373 6.78361 24.9056 6.72907 24.7683 6.72907H11.9959C11.8753 6.08257 11.5315 5.49891 11.0247 5.07987C10.5178 4.66083 9.87991 4.43299 9.22225 4.43607C8.5646 4.43915 7.92889 4.67296 7.42596 5.09673C6.92303 5.5205 6.5848 6.10735 6.47023 6.75495H4.23149C4.09421 6.75495 3.96255 6.80949 3.86548 6.90656C3.7684 7.00364 3.71387 7.1353 3.71387 7.27258C3.71387 7.40986 3.7684 7.54152 3.86548 7.6386C3.96255 7.73567 4.09421 7.79021 4.23149 7.79021V7.76432ZM9.23953 5.49971C9.59017 5.49971 9.93293 5.60369 10.2245 5.79849C10.516 5.9933 10.7433 6.27018 10.8774 6.59413C11.0116 6.91808 11.0467 7.27455 10.9783 7.61845C10.9099 7.96235 10.7411 8.27825 10.4931 8.52619C10.2452 8.77413 9.9293 8.94298 9.5854 9.01138C9.24149 9.07979 8.88503 9.04468 8.56108 8.9105C8.23713 8.77631 7.96024 8.54908 7.76544 8.25753C7.57063 7.96599 7.46666 7.62322 7.46666 7.27258C7.46666 6.80239 7.65344 6.35145 7.98592 6.01897C8.3184 5.68649 8.76933 5.49971 9.23953 5.49971Z" fill="black"/>
  <path d="M24.7683 13.976H21.119C20.9945 13.3364 20.6514 12.76 20.1485 12.3456C19.6457 11.9312 19.0143 11.7046 18.3627 11.7046C17.7111 11.7046 17.0797 11.9312 16.5768 12.3456C16.074 12.76 15.7309 13.3364 15.6063 13.976H4.23149C4.09421 13.976 3.96255 14.0306 3.86548 14.1276C3.7684 14.2247 3.71387 14.3564 3.71387 14.4937C3.71387 14.6309 3.7684 14.7626 3.86548 14.8597C3.96255 14.9567 4.09421 15.0113 4.23149 15.0113H15.6063C15.724 15.6583 16.065 16.2435 16.5699 16.6649C17.0747 17.0863 17.7115 17.3171 18.3692 17.3171C19.0268 17.3171 19.6636 17.0863 20.1685 16.6649C20.6734 16.2435 21.0143 15.6583 21.132 15.0113H24.7683C24.9056 15.0113 25.0373 14.9567 25.1343 14.8597C25.2314 14.7626 25.2859 14.6309 25.2859 14.4937C25.2859 14.3564 25.2314 14.2247 25.1343 14.1276C25.0373 14.0306 24.9056 13.976 24.7683 13.976ZM18.298 16.3053C17.9473 16.3053 17.6046 16.2014 17.313 16.0066C17.0215 15.8118 16.7942 15.5349 16.6601 15.2109C16.5259 14.887 16.4908 14.5305 16.5592 14.1866C16.6276 13.8427 16.7964 13.5268 17.0444 13.2789C17.2923 13.0309 17.6082 12.8621 17.9521 12.7937C18.296 12.7253 18.6525 12.7604 18.9764 12.8946C19.3004 13.0287 19.5773 13.256 19.7721 13.5475C19.9669 13.8391 20.0709 14.1818 20.0709 14.5325C20.0712 14.9917 19.8933 15.4331 19.5747 15.7637C19.2561 16.0944 18.8216 16.2886 18.3627 16.3053H18.298Z" fill="black"/>
  <path d="M24.7685 21.2096H14.2995C14.1819 20.5626 13.8409 19.9774 13.336 19.556C12.8311 19.1346 12.1943 18.9038 11.5367 18.9038C10.879 18.9038 10.2423 19.1346 9.73736 19.556C9.23246 19.9774 8.89147 20.5626 8.77383 21.2096H4.23166C4.1632 21.2078 4.0951 21.22 4.03149 21.2454C3.96789 21.2708 3.91011 21.3088 3.86169 21.3573C3.81326 21.4057 3.7752 21.4635 3.74981 21.5271C3.72443 21.5907 3.71226 21.6588 3.71404 21.7272C3.71404 21.8645 3.76857 21.9962 3.86565 22.0933C3.96272 22.1903 4.09438 22.2449 4.23166 22.2449H8.77383C8.89147 22.8919 9.23246 23.4771 9.73736 23.8985C10.2423 24.3199 10.879 24.5507 11.5367 24.5507C12.1943 24.5507 12.8311 24.3199 13.336 23.8985C13.8409 23.4771 14.1819 22.8919 14.2995 22.2449H24.7685C24.9058 22.2449 25.0374 22.1903 25.1345 22.0933C25.2316 21.9962 25.2861 21.8645 25.2861 21.7272C25.2879 21.6588 25.2757 21.5907 25.2503 21.5271C25.2249 21.4635 25.1869 21.4057 25.1385 21.3573C25.09 21.3088 25.0323 21.2708 24.9687 21.2454C24.905 21.22 24.8369 21.2078 24.7685 21.2096ZM11.5302 23.5001C11.1764 23.5001 10.8307 23.395 10.5367 23.1982C10.2428 23.0014 10.0139 22.7217 9.87912 22.3947C9.74434 22.0676 9.70974 21.7079 9.7797 21.3611C9.84966 21.0144 10.021 20.6962 10.2721 20.447C10.5231 20.1977 10.8425 20.0287 11.1898 19.9612C11.5371 19.8938 11.8965 19.931 12.2226 20.0682C12.5487 20.2053 12.8267 20.4362 13.0213 20.7316C13.216 21.027 13.3186 21.3735 13.316 21.7272C13.3126 22.1986 13.1229 22.6495 12.7884 22.9816C12.4539 23.3138 12.0016 23.5001 11.5302 23.5001Z" fill="black"/>
  </svg>
