<svg xmlns="http://www.w3.org/2000/svg" width="24" height="24" viewBox="0 0 24 24">
  <path fill-rule="evenodd" d="M17.333 19.334c-1.102 0-2-.898-2-2 0-1.103.898-2 2-2 1.103 0 2 .897 2 2 0 1.102-.897 2-2 2ZM6.667 14c-1.103 0-2-.897-2-2 0-1.102.897-2 2-2 1.102 0 2 .898 2 2 0 1.103-.898 2-2 2Zm10.666-9.333c1.103 0 2 .897 2 2s-.897 2-2 2c-1.102 0-2-.897-2-2s.898-2 2-2Zm0 9.333a3.316 3.316 0 0 0-2.608 1.284l-4.851-2.426c.074-.275.126-.56.126-.858 0-.299-.052-.582-.126-.858l4.85-2.425A3.316 3.316 0 0 0 17.335 10a3.337 3.337 0 0 0 3.333-3.333 3.337 3.337 0 0 0-3.334-3.333A3.337 3.337 0 0 0 14 6.667c0 .298.052.583.126.858L9.276 9.95a3.316 3.316 0 0 0-2.61-1.283A3.337 3.337 0 0 0 3.334 12a3.337 3.337 0 0 0 3.334 3.334 3.316 3.316 0 0 0 2.608-1.284l4.851 2.425c-.074.276-.126.56-.126.858a3.337 3.337 0 0 0 3.333 3.334 3.337 3.337 0 0 0 3.334-3.334A3.337 3.337 0 0 0 17.333 14Z" clip-rule="evenodd"/>
</svg>
