<svg xmlns="http://www.w3.org/2000/svg" width="24" height="24" viewBox="0 0 24 24">
  <g clip-path="url(#a)">
    <path d="M6 4.667v8c0 2.059 1.093 3.986 2.98 5.725a16.165 16.165 0 0 0 2.221 1.706c.312.2.582.36.799.48a16.167 16.167 0 0 0 3.02-2.186c1.887-1.74 2.98-3.666 2.98-5.725v-8H6ZM4.667 3.333h14.666v9.334c0 5.676-6.748 9.119-7.034 9.263l-.299.149-.299-.149c-.286-.144-7.034-3.587-7.034-9.263V3.333Z"/>
    <path fill-rule="evenodd" d="m10.667 14.943-3.138-3.138.942-.943 2.196 2.195 4.862-4.862.942.943-5.804 5.805Z" clip-rule="evenodd"/>
  </g>
  <defs>
    <clipPath id="a">
      <path d="M0 0h24v24H0z"/>
    </clipPath>
  </defs>
</svg>
