<svg width="24" height="24" viewBox="0 0 24 24" xmlns="http://www.w3.org/2000/svg">
<path fill-rule="evenodd" clip-rule="evenodd" d="M12 3.33333C7.22133 3.33333 3.33333 7.22133 3.33333 12C3.33333 16.7787 7.22133 20.6667 12 20.6667C16.7787 20.6667 20.6667 16.7787 20.6667 12C20.6667 7.22133 16.7787 3.33333 12 3.33333ZM12 22C6.486 22 2 17.514 2 12C2 6.486 6.486 2 12 2C17.514 2 22 6.486 22 12C22 17.514 17.514 22 12 22Z"/>
<path fill-rule="evenodd" clip-rule="evenodd" d="M9.00004 9.33334C9.00004 9.88534 8.55204 10.3333 8.00004 10.3333C7.44804 10.3333 7.00004 9.88534 7.00004 9.33334C7.00004 8.78134 7.44804 8.33334 8.00004 8.33334C8.55204 8.33334 9.00004 8.78134 9.00004 9.33334ZM17 9.33334C17 9.88534 16.552 10.3333 16 10.3333C15.448 10.3333 15 9.88534 15 9.33334C15 8.78134 15.448 8.33334 16 8.33334C16.552 8.33334 17 8.78134 17 9.33334ZM16.3116 16.8809C15.8342 15.7289 14.9376 14.8322 13.7856 14.3549C11.4082 13.3695 8.67291 14.5035 7.68824 16.8809L6.45691 16.3702C7.07024 14.8902 8.22358 13.7369 9.70358 13.1235C11.1842 12.5102 12.8149 12.5102 14.2962 13.1235C15.7769 13.7369 16.9302 14.8902 17.5436 16.3702L16.3116 16.8809Z"/>
</svg>
