<svg xmlns="http://www.w3.org/2000/svg" width="24" height="24" viewBox="0 0 24 24">
  <path fill-rule="evenodd" d="M12 3.333c-4.779 0-8.667 3.888-8.667 8.667S7.221 20.667 12 20.667s8.667-3.888 8.667-8.667S16.779 3.333 12 3.333ZM12 22C6.486 22 2 17.514 2 12S6.486 2 12 2s10 4.486 10 10-4.486 10-10 10Z" clip-rule="evenodd"/>
  <path fill-rule="evenodd" d="M9 9.334a1 1 0 1 1-2 0 1 1 0 0 1 2 0Zm8 0a1 1 0 1 1-2 0 1 1 0 0 1 2 0Zm-5 8.67a5.99 5.99 0 0 1-2.296-.46 5.961 5.961 0 0 1-3.247-3.247l1.232-.51a4.637 4.637 0 0 0 2.525 2.525 4.67 4.67 0 0 0 6.097-2.525l1.232.51a5.961 5.961 0 0 1-3.247 3.247c-.74.307-1.518.46-2.296.46Z" clip-rule="evenodd"/>
</svg>
