<svg width="24" height="24" viewBox="0 0 24 24" xmlns="http://www.w3.org/2000/svg">
<path fill-rule="evenodd" clip-rule="evenodd" d="M12 3.333C7.221 3.333 3.333 7.221 3.333 12C3.333 16.779 7.221 20.667 12 20.667C16.779 20.667 20.667 16.779 20.667 12C20.667 7.221 16.779 3.333 12 3.333ZM12 22C6.486 22 2 17.514 2 12C2 6.486 6.486 2 12 2C17.514 2 22 6.486 22 12C22 17.514 17.514 22 12 22Z"/>
<path fill-rule="evenodd" clip-rule="evenodd" d="M9.00003 9.33398C9.00003 9.5992 8.89467 9.85356 8.70714 10.0411C8.5196 10.2286 8.26525 10.334 8.00003 10.334C7.73482 10.334 7.48046 10.2286 7.29292 10.0411C7.10539 9.85356 7.00003 9.5992 7.00003 9.33398C7.00003 9.06877 7.10539 8.81441 7.29292 8.62688C7.48046 8.43934 7.73482 8.33398 8.00003 8.33398C8.26525 8.33398 8.5196 8.43934 8.70714 8.62688C8.89467 8.81441 9.00003 9.06877 9.00003 9.33398ZM17 9.33398C17 9.5992 16.8947 9.85356 16.7071 10.0411C16.5196 10.2286 16.2652 10.334 16 10.334C15.7348 10.334 15.4805 10.2286 15.2929 10.0411C15.1054 9.85356 15 9.5992 15 9.33398C15 9.06877 15.1054 8.81441 15.2929 8.62688C15.4805 8.43934 15.7348 8.33398 16 8.33398C16.2652 8.33398 16.5196 8.43934 16.7071 8.62688C16.8947 8.81441 17 9.06877 17 9.33398ZM12 18.004C11.2119 18.0032 10.4316 17.8469 9.70403 17.544C8.97502 17.2443 8.31267 16.803 7.75533 16.2457C7.19798 15.6883 6.7567 15.026 6.45703 14.297L7.68903 13.787C7.92214 14.3539 8.26532 14.8689 8.69873 15.3023C9.13213 15.7357 9.64716 16.0789 10.214 16.312C11.3575 16.7846 12.6418 16.7842 13.7849 16.3108C14.928 15.8374 15.8366 14.9297 16.311 13.787L17.543 14.297C17.2434 15.026 16.8021 15.6883 16.2447 16.2457C15.6874 16.803 15.025 17.2443 14.296 17.544C13.556 17.851 12.778 18.004 12 18.004Z"/>
</svg>
