<svg width="26" height="26" viewBox="0 0 26 26" fill="none" xmlns="http://www.w3.org/2000/svg">
  <path d="M12.9942 1.3457C10.702 1.35716 8.46462 2.04734 6.56433 3.32912C4.66404 4.61091 3.18602 6.42687 2.31679 8.54784C1.44755 10.6688 1.22605 12.9997 1.68025 15.2464C2.13444 17.4932 3.24397 19.555 4.86882 21.1718C6.49367 22.7885 8.56102 23.8878 10.81 24.3308C13.0589 24.7737 15.3887 24.5406 17.5053 23.6608C19.6219 22.781 21.4305 21.294 22.7028 19.3873C23.9751 17.4806 24.6541 15.2398 24.6541 12.9477C24.6358 9.86626 23.3996 6.91715 21.2152 4.74367C19.0309 2.57019 16.0756 1.34871 12.9942 1.3457ZM12.9942 23.6911C10.8785 23.6911 8.81033 23.0637 7.05121 21.8883C5.2921 20.7129 3.92104 19.0423 3.11141 17.0876C2.30177 15.133 2.08994 12.9822 2.50268 10.9072C2.91543 8.83217 3.93422 6.92615 5.43023 5.43015C6.92623 3.93414 8.83225 2.91535 10.9073 2.5026C12.9823 2.08986 15.1331 2.30169 17.0877 3.11133C19.0423 3.92096 20.713 5.29202 21.8884 7.05113C23.0638 8.81025 23.6912 10.8784 23.6912 12.9941C23.6881 15.8302 22.5601 18.5492 20.5547 20.5546C18.5493 22.56 15.8302 23.688 12.9942 23.6911ZM18.7951 8.23727C18.8464 8.28701 18.8871 8.34653 18.9149 8.41229C18.9427 8.47806 18.957 8.54873 18.957 8.62013C18.957 8.69154 18.9427 8.76221 18.9149 8.82798C18.8871 8.89374 18.8464 8.95326 18.7951 9.003L11.7411 17.8321C11.7001 17.878 11.6501 17.9151 11.5943 17.941C11.5384 17.967 11.4778 17.9812 11.4163 17.9829C11.3381 17.9894 11.2595 17.9793 11.1855 17.9533C11.1116 17.9274 11.0439 17.886 10.987 17.8321L7.15837 13.9222C7.05776 13.8202 7.00135 13.6827 7.00135 13.5394C7.00135 13.3961 7.05776 13.2585 7.15837 13.1565C7.26179 13.0586 7.39881 13.004 7.54123 13.004C7.68366 13.004 7.82067 13.0586 7.9241 13.1565L11.4047 16.6371L18.0758 8.23727C18.1778 8.13666 18.3154 8.08025 18.4587 8.08025C18.602 8.08025 18.7395 8.13666 18.8415 8.23727H18.7951Z" fill="black"/>
  </svg>
