<svg xmlns="http://www.w3.org/2000/svg" width="24" height="24" viewBox="0 0 24 24">
  <path fill-rule="evenodd" d="M2 4.667v14.667h20V10.39l-5.724-5.724H2ZM3.334 6h12v5.334h5.333V18H3.334V6ZM18 14v1.333h1.333v1.334H4.666V7.333H14v5.334h5.333V14H18Zm-1.334 0H14v1.333h2.666V14Zm-4-4V8.667H10V10h2.666Zm0 1.333H10v1.334h2.666v-1.334Zm0 2.667H10v1.333h2.666V14Zm-4-4V8.667H6V10h2.666Zm0 1.333H6v1.334h2.666v-1.334Zm0 2.667H6v1.333h2.666V14Zm8-7.057L19.724 10h-3.058V6.943Z" clip-rule="evenodd"/>
</svg>
