<svg xmlns="http://www.w3.org/2000/svg" width="24" height="24" viewBox="0 0 24 24">
  <path fill-rule="evenodd" d="M11.804 5.3a22.48 22.48 0 0 0-3.07.185h-.008c-1.71.2-3.136.57-4.115 1.026-.49.228-.837.463-1.052.682-.213.216-.259.375-.259.477 0 .13.079.358.46.659.374.294.955.588 1.732.847 1.546.515 3.723.844 6.158.844 2.435 0 4.612-.33 6.158-.844.777-.259 1.358-.553 1.732-.847.381-.3.46-.528.46-.659 0-.105-.047-.266-.26-.482-.214-.219-.56-.453-1.05-.68-.98-.454-2.406-.822-4.116-1.022l-.007-.001A21.38 21.38 0 0 0 11.81 5.3h-.006ZM20 9.595c-.49.316-1.099.587-1.78.814-1.712.57-4.035.911-6.57.911s-4.858-.34-6.57-.91c-.681-.228-1.29-.5-1.78-.815v2.515c0 .133.079.36.457.66.371.294.95.587 1.724.846 1.542.515 3.719.844 6.169.844 2.45 0 4.627-.33 6.17-.844.773-.259 1.352-.552 1.723-.846.378-.3.457-.527.457-.66V9.595Zm1.3-1.925c0-.55-.265-1.02-.631-1.392-.364-.37-.861-.685-1.433-.95-1.146-.531-2.718-.923-4.507-1.133A22.675 22.675 0 0 0 11.813 4a23.79 23.79 0 0 0-3.242.195c-1.79.21-3.362.604-4.507 1.137-.572.266-1.07.58-1.432.95C2.266 6.652 2 7.121 2 7.67v9c0 .697.421 1.26.95 1.678.534.424 1.269.777 2.12 1.061 1.707.57 4.03.911 6.58.911s4.873-.34 6.58-.911c.851-.284 1.586-.637 2.12-1.06.529-.42.95-.982.95-1.679v-9ZM20 14.038c-.488.315-1.092.585-1.77.811-1.707.57-4.03.911-6.58.911s-4.873-.34-6.58-.911c-.678-.226-1.282-.496-1.77-.81v2.631c0 .133.079.36.457.66.371.294.95.587 1.724.846 1.542.515 3.719.844 6.169.844 2.45 0 4.627-.33 6.17-.844.773-.259 1.352-.552 1.723-.846.378-.3.457-.527.457-.66v-2.632Z" clip-rule="evenodd"/>
</svg>
