<svg xmlns="http://www.w3.org/2000/svg" width="24" height="24" viewBox="0 0 24 24">
  <path fill-rule="evenodd" d="M17.9999 17.3333C18.7353 17.3333 19.3333 17.9313 19.3333 18.6667C19.3333 19.402 18.7353 20 17.9999 20C17.2646 20 16.6666 19.402 16.6666 18.6667C16.6666 17.9313 17.2646 17.3333 17.9999 17.3333ZM17.9999 3.99999C18.7353 3.99999 19.3333 4.59799 19.3333 5.33332C19.3333 6.06866 18.7353 6.66666 17.9999 6.66666C17.2646 6.66666 16.6666 6.06866 16.6666 5.33332C16.6666 4.59799 17.2646 3.99999 17.9999 3.99999ZM17.9999 10.6667C18.7353 10.6667 19.3333 11.2647 19.3333 12C19.3333 12.7353 18.7353 13.3333 17.9999 13.3333C17.2646 13.3333 16.6666 12.7353 16.6666 12C16.6666 11.2647 17.2646 10.6667 17.9999 10.6667ZM5.33325 12.6667H15.4279C15.7259 13.814 16.7613 14.6667 17.9999 14.6667C19.4706 14.6667 20.6666 13.4707 20.6666 12C20.6666 10.5293 19.4706 9.33332 17.9999 9.33332C16.7613 9.33332 15.7259 10.186 15.4279 11.3333H5.33325C4.96592 11.3333 4.66659 11.0347 4.66659 10.6667V7.33332V5.87732C4.87592 5.95199 5.09859 5.99999 5.33325 5.99999H15.4279C15.7259 7.14732 16.7613 7.99999 17.9999 7.99999C19.4706 7.99999 20.6666 6.80399 20.6666 5.33332C20.6666 3.86266 19.4706 2.66666 17.9999 2.66666C16.7613 2.66666 15.7259 3.51932 15.4279 4.66666H5.33325C4.96592 4.66666 4.66659 4.36799 4.66659 3.99999V3.33332H3.33325V3.99999V7.33332V10.6667V17.3333C3.33325 18.436 4.23059 19.3333 5.33325 19.3333H15.4279C15.7259 20.4807 16.7613 21.3333 17.9999 21.3333C19.4706 21.3333 20.6666 20.1373 20.6666 18.6667C20.6666 17.196 19.4706 16 17.9999 16C16.7613 16 15.7259 16.8527 15.4279 18H5.33325C4.96592 18 4.66659 17.7013 4.66659 17.3333V12.544C4.87592 12.6187 5.09859 12.6667 5.33325 12.6667Z" clip-rule="evenodd"/>
</svg>
