<svg width="16" height="16" viewBox="0 0 16 16" xmlns="http://www.w3.org/2000/svg">
  <path fill-rule="evenodd" clip-rule="evenodd" d="M4 2.49963C4.27614 2.49963 4.5 2.72349 4.5 2.99963L4.5 5.45952L5.64645 4.31307C5.84171 4.11781 6.15829 4.11781 6.35355 4.31307C6.54882 4.50833 6.54882 4.82492 6.35355 5.02018L4.35355 7.02018C4.25978 7.11395 4.13261 7.16663 4 7.16663C3.86739 7.16663 3.74021 7.11395 3.64645 7.02018L1.64645 5.02018C1.45118 4.82492 1.45118 4.50833 1.64645 4.31307C1.84171 4.11781 2.15829 4.11781 2.35355 4.31307L3.5 5.45952L3.5 2.99963C3.5 2.72349 3.72386 2.49963 4 2.49963ZM8.16667 3.99996C8.16667 3.72382 8.39052 3.49996 8.66667 3.49996H14C14.2761 3.49996 14.5 3.72382 14.5 3.99996C14.5 4.2761 14.2761 4.49996 14 4.49996H8.66667C8.39052 4.49996 8.16667 4.2761 8.16667 3.99996ZM8.66667 6.16663H14C14.2761 6.16663 14.5 6.39048 14.5 6.66663C14.5 6.94277 14.2761 7.16663 14 7.16663H8.66667C8.39052 7.16663 8.16667 6.94277 8.16667 6.66663C8.16667 6.39048 8.39052 6.16663 8.66667 6.16663ZM4 8.83329C4.13261 8.83329 4.25979 8.88597 4.35355 8.97974L6.35355 10.9797C6.54882 11.175 6.54882 11.4916 6.35355 11.6868C6.15829 11.8821 5.84171 11.8821 5.64645 11.6868L4.5 10.5404V12.9996C4.5 13.2758 4.27614 13.4996 4 13.4996C3.72386 13.4996 3.5 13.2758 3.5 12.9996V10.5404L2.35355 11.6868C2.15829 11.8821 1.84171 11.8821 1.64645 11.6868C1.45118 11.4916 1.45118 11.175 1.64645 10.9797L3.64645 8.97974C3.74022 8.88597 3.86739 8.83329 4 8.83329ZM8.16667 9.33329C8.16667 9.05715 8.39052 8.83329 8.66667 8.83329H14C14.2761 8.83329 14.5 9.05715 14.5 9.33329C14.5 9.60944 14.2761 9.83329 14 9.83329H8.66667C8.39052 9.83329 8.16667 9.60944 8.16667 9.33329ZM8.16667 12C8.16667 11.7238 8.39052 11.5 8.66667 11.5H14C14.2761 11.5 14.5 11.7238 14.5 12C14.5 12.2761 14.2761 12.5 14 12.5H8.66667C8.39052 12.5 8.16667 12.2761 8.16667 12Z"/>
</svg>
