<svg width="24" height="24" viewBox="0 0 24 24" xmlns="http://www.w3.org/2000/svg">
  <path fill-rule="evenodd" clip-rule="evenodd" d="M5.1668 7.33362L2.83347 15.3336H2.00014V16.6663H4.66614V15.3336H4.22214L4.80547 13.3336H7.19414L7.77814 15.3336H7.33347V16.6663H9.99947V15.3336H9.1668L6.83347 7.33362H5.1668ZM6.00014 9.23829L6.80547 11.9996H5.19414L6.00014 9.23829Z"/>
  <path fill-rule="evenodd" clip-rule="evenodd" d="M8.034 4.2107L13.3673 20.2107L14.632 19.7887L9.29866 3.7887L8.034 4.2107Z"/>
  <path d="M21.3333 13.9385C21.3333 14.6852 21.1132 15.3265 20.6728 15.8626C20.2406 16.3987 19.5759 16.6667 18.6789 16.6667H14.6667V15.3026H15.5841V8.69748H14.6667V7.33337H18.63C19.3802 7.33337 19.9674 7.5344 20.3914 7.93645C20.8237 8.3385 21.0398 8.87457 21.0398 9.54466C21.0398 10.0329 20.9134 10.4588 20.6606 10.8226C20.4078 11.1864 20.0612 11.4161 19.6208 11.5118V11.5693C20.1916 11.6746 20.6198 11.9426 20.9052 12.3734C21.1906 12.8041 21.3333 13.3259 21.3333 13.9385ZM19.5841 9.94671C19.5841 9.4585 19.4618 9.12825 19.2171 8.95594C18.9806 8.78363 18.6748 8.69748 18.2997 8.69748H16.9419V11.2534H18.2141C18.6789 11.2534 19.0214 11.1337 19.2416 10.8944C19.4699 10.6455 19.5841 10.3296 19.5841 9.94671ZM19.8777 13.8811C19.8777 12.9621 19.4292 12.5026 18.5321 12.5026H16.9419V15.3026H18.3486C19.368 15.3026 19.8777 14.8288 19.8777 13.8811Z"/>
</svg>
