<svg width="24" height="24" viewBox="0 0 24 24" fill="none" xmlns="http://www.w3.org/2000/svg">
<path d="M11.9942 0.345703C9.70201 0.357164 7.46462 1.04734 5.56433 2.32912C3.66404 3.61091 2.18602 5.42687 1.31679 7.54784C0.44755 9.6688 0.226053 11.9997 0.680247 14.2464C1.13444 16.4932 2.24397 18.555 3.86882 20.1718C5.49367 21.7885 7.56102 22.8878 9.80998 23.3308C12.0589 23.7737 14.3887 23.5406 16.5053 22.6608C18.6219 21.781 20.4305 20.294 21.7028 18.3873C22.9751 16.4806 23.6541 14.2398 23.6541 11.9477C23.6358 8.86626 22.3996 5.91715 20.2152 3.74367C18.0309 1.57019 15.0756 0.348711 11.9942 0.345703ZM11.9942 22.6911C9.87848 22.6911 7.81033 22.0637 6.05121 20.8883C4.2921 19.7129 2.92104 18.0423 2.11141 16.0876C1.30177 14.133 1.08994 11.9822 1.50268 9.90719C1.91543 7.83217 2.93422 5.92615 4.43023 4.43015C5.92623 2.93414 7.83225 1.91535 9.90727 1.5026C11.9823 1.08986 14.1331 1.30169 16.0877 2.11133C18.0423 2.92096 19.713 4.29202 20.8884 6.05113C22.0638 7.81025 22.6912 9.87841 22.6912 11.9941C22.6881 14.8302 21.5601 17.5492 19.5547 19.5546C17.5493 21.56 14.8302 22.688 11.9942 22.6911ZM17.0062 12.2493L9.44172 16.0432C9.39921 16.0677 9.35096 16.0806 9.30187 16.0805C9.25278 16.0804 9.20459 16.0673 9.16219 16.0425C9.11978 16.0178 9.08467 15.9823 9.06041 15.9396C9.03615 15.8969 9.02361 15.8486 9.02405 15.7995V8.28145C9.02295 8.23167 9.03468 8.18244 9.05812 8.13851C9.08156 8.09457 9.11591 8.05742 9.15787 8.03061C9.19983 8.0038 9.24799 7.98824 9.2977 7.98544C9.34742 7.98264 9.39701 7.99268 9.44172 8.0146L17.0062 11.762C17.0595 11.7818 17.1054 11.8174 17.1379 11.8641C17.1704 11.9108 17.1878 11.9662 17.1878 12.0231C17.1878 12.0799 17.1704 12.1354 17.1379 12.1821C17.1054 12.2287 17.0595 12.2643 17.0062 12.2841V12.2493Z" fill="black"/>
</svg>
