<svg xmlns="http://www.w3.org/2000/svg" width="24" height="24" viewBox="0 0 24 24" >
  <path fill-rule="evenodd" d="M5.82106 20.0516C5.18342 20.0516 4.6665 19.5347 4.6665 18.8971V10.9281C4.6665 10.2904 5.18344 9.77357 5.82106 9.77357H8.07158C8.40867 9.77357 8.72104 9.59671 8.89446 9.30766L11.0985 5.63427C11.8131 4.4434 13.4962 4.33005 14.3639 5.41473C14.7728 5.92595 14.9047 6.60534 14.7165 7.23249L13.9542 9.77357H17.4342C18.9461 9.77357 20.0442 11.2113 19.6463 12.6699L18.0939 18.362C17.8219 19.3596 16.9158 20.0516 15.8818 20.0516H8.84587H7.51253H5.82106ZM7.51253 18.7183H5.99984V11.1069H7.51253V18.7183ZM8.84587 10.9723C9.33694 10.796 9.76127 10.4545 10.0378 9.99366L12.2417 6.32034C12.4784 5.92608 13.0355 5.88864 13.3227 6.24762C13.458 6.41686 13.5017 6.6417 13.4394 6.84934L12.608 9.62059C12.3858 10.3615 12.9406 11.1069 13.7139 11.1069H17.4342C18.0669 11.1069 18.5265 11.7086 18.36 12.319L16.8076 18.0112C16.6937 18.4287 16.3145 18.7183 15.8818 18.7183H8.84587V10.9723Z" clip-rule="evenodd"/>
</svg>
