<svg xmlns="http://www.w3.org/2000/svg" width="24" height="24" viewBox="0 0 24 24">
  <path fill-rule="evenodd" d="M18.574 4.66663C19.2116 4.66663 19.7285 5.18354 19.7285 5.82119V13.7901C19.7285 14.4278 19.2116 14.9447 18.574 14.9447L16.8825 14.9447L16.3234 14.9447C15.9864 14.9447 15.674 15.1216 15.5006 15.4106L13.2966 19.084C12.5819 20.2749 10.8988 20.3882 10.0312 19.3035C9.62221 18.7923 9.49037 18.1129 9.67853 17.4858L10.4409 14.9447H6.96085C5.44897 14.9447 4.35084 13.507 4.74869 12.0484L6.30108 6.35628C6.57314 5.3587 7.47922 4.66663 8.51325 4.66663H15.5492H16.8825H18.574ZM16.8825 5.99996H18.3952V13.6114H16.8825V5.99996ZM15.5492 13.746C15.0581 13.9222 14.6337 14.2637 14.3572 14.7246L12.1533 18.3979C11.9167 18.7922 11.3595 18.8296 11.0723 18.4706C10.937 18.3014 10.8933 18.0766 10.9556 17.8689L11.787 15.0977C12.0093 14.3568 11.4544 13.6114 10.6811 13.6114H6.96085C6.32811 13.6114 5.86855 13.0096 6.03503 12.3993L7.58744 6.7071C7.7013 6.2896 8.0805 5.99996 8.51325 5.99996H15.5492V13.746Z" clip-rule="evenodd"/>
</svg>
