<svg width="28" height="27" viewBox="0 0 28 27" fill="none" xmlns="http://www.w3.org/2000/svg">
<path d="M13.3536 13.42L13.1616 9.328L13.1256 7.96H14.5176L14.4696 9.328L14.2776 13.42H13.3536ZM13.8216 16.144C13.5736 16.144 13.3616 16.056 13.1856 15.88C13.0096 15.704 12.9216 15.48 12.9216 15.208C12.9216 14.936 13.0096 14.712 13.1856 14.536C13.3616 14.36 13.5736 14.272 13.8216 14.272C14.0776 14.272 14.2896 14.36 14.4576 14.536C14.6256 14.712 14.7096 14.936 14.7096 15.208C14.7096 15.48 14.6256 15.704 14.4576 15.88C14.2896 16.056 14.0776 16.144 13.8216 16.144Z" fill="#EF670A"/>
<path d="M12.713 3.1228C13.2954 2.1502 14.7046 2.1502 15.287 3.1228L23.8828 17.4795C24.4814 18.4793 23.7611 19.75 22.5958 19.75H5.40419C4.23887 19.75 3.51861 18.4793 4.11723 17.4795L12.713 3.1228Z" stroke="#EF670A"/>
</svg>
