<svg width="20" height="25" viewBox="0 0 20 25" fill="none" xmlns="http://www.w3.org/2000/svg">
<path d="M9.12389 14.0909V8.19891H10.5039V14.0909H9.12389ZM9.81989 7.16691C9.57189 7.16691 9.37189 7.09491 9.21989 6.95091C9.06789 6.80691 8.99189 6.61491 8.99189 6.37491C8.99189 6.14291 9.06789 5.95491 9.21989 5.81091C9.37189 5.66691 9.57189 5.59491 9.81989 5.59491C10.0679 5.59491 10.2679 5.66691 10.4199 5.81091C10.5719 5.95491 10.6479 6.14291 10.6479 6.37491C10.6479 6.61491 10.5719 6.80691 10.4199 6.95091C10.2679 7.09491 10.0679 7.16691 9.81989 7.16691Z" fill="black"/>
<circle cx="9.81818" cy="9.81818" r="9.31818" stroke="black"/>
</svg>
