<svg width="18" height="16" viewBox="0 0 18 16" fill="none" xmlns="http://www.w3.org/2000/svg">
<path d="M9.54867 0.682102C9.37293 0.506367 9.08801 0.506367 8.91227 0.682102L6.04849 3.54588C5.87275 3.72162 5.87275 4.00654 6.04849 4.18228C6.22422 4.35802 6.50915 4.35802 6.68488 4.18228L9.23047 1.6367L11.7761 4.18228C11.9518 4.35802 12.2367 4.35802 12.4124 4.18228C12.5882 4.00655 12.5882 3.72162 12.4124 3.54589L9.54867 0.682102ZM9.68047 11.7695L9.68047 1.0003L8.78047 1.0003L8.78047 11.7695L9.68047 11.7695Z" fill="black"/>
<path d="M1.23047 8.53711V12.9986C1.23047 14.1032 2.1259 14.9986 3.23047 14.9986H15.2305C16.335 14.9986 17.2305 14.1032 17.2305 12.9986V8.53711" stroke="black"/>
</svg>
