<svg xmlns="http://www.w3.org/2000/svg" width="24" height="24" viewBox="0 0 24 24">
  <path fill-rule="evenodd" d="M18 20c0 .368-.3.667-.667.667H8A.667.667 0 0 1 7.333 20V6H18v14ZM12.667 3.333c.735 0 1.333.598 1.333 1.334h-2.667c0-.736.598-1.334 1.334-1.334Zm8 1.334h-5.334A2.67 2.67 0 0 0 12.667 2 2.67 2.67 0 0 0 10 4.667H4.667V6H6v14c0 1.103.897 2 2 2h9.333c1.103 0 2-.897 2-2V6h1.334V4.667Z" clip-rule="evenodd"/>
  <path fill-rule="evenodd" d="M10 18.667h1.333V8H10v10.667Zm4 0h1.333V8H14v10.667Z" clip-rule="evenodd"/>
</svg>
