<svg width="17" height="20" viewBox="0 0 17 20" fill="#000" xmlns="http://www.w3.org/2000/svg">
  <path d="M14.7089 5.40313H2.23556C2.16895 5.39748 2.10189 5.40547 2.03847 5.4266C1.97506 5.44774 1.91662 5.48159 1.86672 5.52607C1.81978 5.57433 1.78434 5.63256 1.76305 5.69643C1.74177 5.76029 1.73518 5.82814 1.74377 5.89491L3.02911 17.0718C3.1005 17.6634 3.38722 18.2081 3.83457 18.6018C4.28191 18.9956 4.85856 19.2108 5.45449 19.2065H11.6465C12.2639 19.217 12.862 18.9915 13.3189 18.5761C13.7758 18.1608 14.0571 17.5868 14.1054 16.9712L15.156 5.86138C15.1609 5.80328 15.1524 5.74483 15.131 5.69056C15.1097 5.6363 15.0762 5.58766 15.0331 5.54843C14.9469 5.4613 14.8313 5.40949 14.7089 5.40313ZM13.1665 16.8929C13.1273 17.2535 12.9537 17.586 12.6803 17.8242C12.4068 18.0624 12.0537 18.1888 11.6912 18.1783H5.4992C5.14383 18.1886 4.7977 18.0642 4.53027 17.8299C4.26285 17.5957 4.09392 17.2689 4.05739 16.9153L2.82793 6.38669H14.1724L13.1665 16.8929Z" />
  <path d="M16.5082 2.73244H11.4451V1.91653C11.4572 1.55374 11.3253 1.20089 11.0782 0.934961C10.8312 0.669037 10.4889 0.511625 10.1262 0.49707L6.952 0.49707C6.59318 0.49994 6.24969 0.642998 5.99491 0.89569C5.74013 1.14838 5.59425 1.49068 5.58843 1.84947V2.73244H0.491782C0.365135 2.73231 0.243321 2.78104 0.15171 2.86849C0.0600996 2.95593 0.00575659 3.07535 0 3.20187C0 3.33229 0.0518126 3.45738 0.14404 3.54961C0.236266 3.64183 0.361353 3.69365 0.491782 3.69365H16.5082C16.6386 3.69365 16.7637 3.64183 16.856 3.54961C16.9482 3.45738 17 3.33229 17 3.20187C16.9942 3.07535 16.9399 2.95593 16.8483 2.86849C16.7567 2.78104 16.6349 2.73231 16.5082 2.73244ZM10.4615 1.91653V2.73244H6.53846V1.91653C6.52575 1.81437 6.55382 1.71132 6.61659 1.62972C6.67936 1.54812 6.77176 1.49455 6.87377 1.48063H10.0592C10.1106 1.47761 10.162 1.48476 10.2107 1.50168C10.2593 1.51859 10.3041 1.54494 10.3425 1.5792C10.3809 1.61347 10.4122 1.65498 10.4345 1.70136C10.4569 1.74774 10.4699 1.79807 10.4727 1.84947C10.4727 1.84947 10.4615 1.89418 10.4615 1.91653Z" />
  <path d="M8.4943 7.59521C8.36286 7.59814 8.23779 7.65241 8.14587 7.74642C8.05396 7.84043 8.0025 7.9667 8.00254 8.09817V16.4585C7.99178 16.53 7.99659 16.6031 8.01665 16.6726C8.0367 16.7422 8.07152 16.8065 8.11874 16.8614C8.16595 16.9162 8.22445 16.9602 8.29023 16.9904C8.35601 17.0206 8.42752 17.0362 8.49989 17.0362C8.57226 17.0362 8.64378 17.0206 8.70956 16.9904C8.77534 16.9602 8.83383 16.9162 8.88105 16.8614C8.92826 16.8065 8.96308 16.7422 8.98314 16.6726C9.00319 16.6031 9.00801 16.53 8.99725 16.4585V8.09817C8.99725 7.96478 8.94426 7.83685 8.84994 7.74253C8.75562 7.64821 8.62769 7.59521 8.4943 7.59521Z" />
</svg>