<svg xmlns="http://www.w3.org/2000/svg" width="24" height="24" viewBox="0 0 24 24">
  <path fill-rule="evenodd" d="M14.007 11.228a4.658 4.658 0 0 0-1.915-1.151 4.664 4.664 0 0 0-4.685 1.151l-.707.707.943.943.707-.707a3.329 3.329 0 0 1 3.35-.82 3.267 3.267 0 0 1 1.72 1.248c.461.65.675 1.446.601 2.242a3.332 3.332 0 0 1-.957 2.044l-2.828 2.828a3.338 3.338 0 0 1-4.715 0 3.312 3.312 0 0 1-.971-2.357c0-.893.345-1.73.971-2.357l-.943-.942a4.633 4.633 0 0 0-1.362 3.299 4.655 4.655 0 0 0 4.662 4.664c1.196 0 2.39-.455 3.3-1.364l2.83-2.829a4.67 4.67 0 0 0 .5-6 4.683 4.683 0 0 0-.5-.599Z" clip-rule="evenodd"/>
  <path fill-rule="evenodd" d="M6.756 14.675c.237.15.464.267.693.363a4.645 4.645 0 0 0 2.209.331 4.715 4.715 0 0 0 3.213-1.721l-1.038-.837a3.374 3.374 0 0 1-2.3 1.23 3.262 3.262 0 0 1-2.067-.495 3.34 3.34 0 0 1-1.311-4.095l1.53-3.696a3.337 3.337 0 0 1 4.356-1.804l.51-1.232a4.674 4.674 0 0 0-6.097 2.525L4.923 8.94a4.677 4.677 0 0 0 1.833 5.735Zm9.911-4.465h4V8.878h-4v1.334Zm-.034-7.788L15.368 2l-1.333 4 1.264.422 1.334-4Zm4.421 2.331-.775-1.085-4.666 3.333.774 1.086 4.667-3.334Zm-4.685 7.387 2.666 1.334.597-1.192-2.667-1.334-.596 1.193Z" clip-rule="evenodd"/>
</svg>
