<svg xmlns="http://www.w3.org/2000/svg" width="24" height="24" viewBox="0 0 24 24">
  <path fill-rule="evenodd" d="M18 20a.667.667 0 0 1-.667.667H6.667A.667.667 0 0 1 6 20v-8c0-.367.299-.667.667-.667h10.666c.368 0 .667.3.667.667v8Zm0-9.877V8c0-3.308-2.691-6-6-6S6 4.692 6 8h1.333A4.672 4.672 0 0 1 12 3.333 4.672 4.672 0 0 1 16.667 8v2h-10c-1.103 0-2 .897-2 2v8c0 1.103.897 2 2 2h10.666c1.103 0 2-.897 2-2v-8c0-.868-.559-1.601-1.333-1.877Z" clip-rule="evenodd"/>
  <path fill-rule="evenodd" d="M12 13.666a1 1 0 0 0-1 1c0 .296.13.558.333.741V18h1.334v-2.593a.994.994 0 0 0 .333-.74 1 1 0 0 0-1-1Z" clip-rule="evenodd"/>
</svg>
