<svg xmlns="http://www.w3.org/2000/svg" width="24" height="24" viewBox="0 0 24 24">
  <path fill-rule="evenodd" d="m8.195 14.862.943.943 2.195-2.196v7.057h1.334V13.61l2.195 2.196.943-.943L12 11.057l-3.805 3.805Z" clip-rule="evenodd"/>
  <path fill-rule="evenodd" d="M19.314 10.443A5.34 5.34 0 0 0 14 4.667 5.324 5.324 0 0 0 9.248 7.58 3.256 3.256 0 0 0 8 7.333a3.337 3.337 0 0 0-3.326 3.117A4.668 4.668 0 0 0 2 14.666a4.673 4.673 0 0 0 4.666 4.667H8V18H6.666a3.337 3.337 0 0 1-3.333-3.334c0-1.415.901-2.68 2.242-3.146l.49-.17L6 10.666c0-1.102.897-2 2-2 .42 0 .828.137 1.18.396l.737.543.29-.87A3.993 3.993 0 0 1 14 6c2.206 0 4 1.794 4 4 0 .24-.024.49-.072.744l-.109.575.555.183a3.327 3.327 0 0 1 2.292 3.164A3.337 3.337 0 0 1 17.333 18H16v1.333h1.333A4.672 4.672 0 0 0 22 14.667c0-1.83-1.06-3.464-2.686-4.224Z" clip-rule="evenodd"/>
</svg>
