<svg xmlns="http://www.w3.org/2000/svg" width="24" height="24" viewBox="0 0 24 24">
  <path fill-rule="evenodd" d="M3.252 18h12.17c-.551-.924-2.083-1.635-2.694-1.845-2.424-.573-2.698-1.902-2.72-2.052L10 14.002V11.93l.42-.167c.814-.324.756-.834.756-.839l-.084-.52.485-.201c.026-.024.141-.16.365-.66a.695.695 0 0 0-.095-.101l-.387-.292.427-1.23c.203-.827.12-1.685-.246-2.153-.176-.224-.405-.434-.63-.434h-.367l-.196-.23c-.001-.001-.424-.592-1.096-.592-.318.002-1.263.1-1.777.436-.603.395-1.23 1.248-.79 3.022l.398 1.213-.425.282a.5.5 0 0 0-.092.095c.118.318.344.596.434.646l.519.216-.125.504c-.006.071-.011.534.752.838l.42.166-.007 2.172c-.022.15-.29 1.481-2.78 2.072-.558.196-2.079.904-2.627 1.827Zm13.415 1.333H2v-.666c0-2.407 3.264-3.641 3.652-3.774 1.407-.337 1.612-.855 1.682-.995v-1.099c-.793-.456-1.088-1.117-1.156-1.626-.366-.321-.652-.816-.791-1.23-.167-.492.003-.92.24-1.221l-.122-.375c-.7-2.814.705-4.08 1.34-4.496.937-.612 2.348-.633 2.505-.634 1.005 0 1.688.606 2.01.976.509.093.98.385 1.33.834.366.466.912 1.511.474 3.273l-.153.443c.26.353.384.807.188 1.255-.182.415-.396.861-.705 1.161-.066.511-.36 1.18-1.16 1.64v1.114c.05.094.225.631 1.62.962.45.151 3.713 1.384 3.713 3.792v.666Z" clip-rule="evenodd"/>
  <path fill-rule="evenodd" d="M22 19.334h-3.333V18h1.781c-.593-.919-2.237-1.63-2.893-1.841-2.54-.558-2.847-1.816-2.882-2.062l-.006-.095V11.93l.42-.166c.81-.324.816-.842.814-.9l-.017-.473.44-.195c.105-.069.287-.432.389-.644a.677.677 0 0 0-.104-.098l-.408-.298.454-1.248c.289-1.092-.018-1.804-.227-2.078-.203-.264-.483-.496-.767-.496h-.353l-.198-.211c-.015-.022-.454-.588-1.19-.611a.464.464 0 0 0-.15.074l-.895-.977c.354-.323.838-.383.932-.393l.069-.001c1.057 0 1.78.607 2.117.971a2.35 2.35 0 0 1 1.492.912c.62.808.776 1.95.439 3.213l-.155.421c.282.358.416.822.2 1.283-.216.458-.439.89-.76 1.175-.088.51-.409 1.158-1.209 1.612v1.114c.049.08.385.622 1.903.957.472.149 4.097 1.377 4.097 3.794v.666Z" clip-rule="evenodd"/>
</svg>
