<svg xmlns="http://www.w3.org/2000/svg" width="24" height="24" viewBox="0 0 24 24">
  <path fill-rule="evenodd" d="M4.1 20.667h15.81c-.612-1.718-3.41-2.704-3.442-2.714-3.007-.711-3.13-2.414-3.135-2.606v-2.452l.37-.184c.9-.447.923-1.254.922-1.345l-.002-.447.413-.182c.11-.078.303-.537.408-.784l.097-.225c-.024-.011-.165-.161-.242-.216l-.4-.285.466-1.43c.274-1.107.158-2.06-.332-2.686a1.132 1.132 0 0 0-.925-.444h-.366l-.197-.376c-.003-.005-.583-.906-1.517-.906-.412.003-1.637.09-2.316.533-.8.523-1.632 1.622-1.058 3.934l.46 1.397-.426.278c-.1.07-.215.213-.2.256.274.814.466.946.487.958l.426.177-.023.459c0 .082.02.888.919 1.334l.37.184v2.438c-.004.204-.123 1.908-3.19 2.636-.809.277-2.86 1.267-3.378 2.698ZM21.332 22H2.667v-.667c0-3.11 4.272-4.583 4.455-4.644 2.091-.5 2.217-1.39 2.218-1.398l-.004-1.6a2.87 2.87 0 0 1-1.258-1.963c-.42-.372-.674-.988-.853-1.52-.198-.589.034-1.096.33-1.44l-.182-.557c-.816-3.28.659-4.805 1.61-5.426 1.13-.74 2.851-.766 3.043-.766 1.235 0 2.065.775 2.431 1.208.619.096 1.198.448 1.626.996.438.558 1.092 1.814.564 3.942l-.198.607c.318.369.568.907.313 1.49l-.09.21c-.188.445-.395.934-.745 1.253a2.876 2.876 0 0 1-1.26 1.967v1.64c.005 0 .158.867 2.153 1.34.24.078 4.513 1.55 4.513 4.661V22Z" clip-rule="evenodd"/>
</svg>
