<svg width="22" height="16" viewBox="0 0 22 16" fill="none" xmlns="http://www.w3.org/2000/svg">
<path d="M0 16V0H22V16H0ZM2.93333 0.760885H0.733333V3.04354H2.93333V0.760885ZM2.93333 3.80443H0.733333V6.08709H2.93333V3.80443ZM2.93333 6.84797H0.733333V9.13063H2.93333V6.84797ZM2.93333 9.89151H0.733333V12.1742H2.93333V9.89151ZM2.93333 12.9351H0.733333V15.2177H2.93333V12.9351ZM18.3333 0.760885H3.66667V15.2177H18.3333V0.760885ZM21.2667 0.760885H19.0667V3.04354H21.2667V0.760885ZM21.2667 3.80443H19.0667V6.08709H21.2667V3.80443ZM21.2667 6.84797H19.0667V9.13063H21.2667V6.84797ZM21.2667 9.89151H19.0667V12.1742H21.2667V9.89151ZM21.2667 12.9351H19.0667V15.2177H21.2667V12.9351Z" fill="black"/>
<path d="M13.9509 8.17821C13.918 8.23718 13.8707 8.28568 13.8133 8.31945L8.62256 11.363C8.44506 11.4681 8.21843 11.4058 8.11601 11.2237C8.0831 11.1652 8.06595 11.0991 8.06642 11.0315V4.94444C8.06642 4.80843 8.13732 4.68336 8.2518 4.61536C8.36673 4.54735 8.50762 4.54735 8.62256 4.61536L13.8133 7.6589C13.9908 7.76353 14.0529 7.99607 13.9509 8.17821ZM8.80794 5.60071V10.3757L12.8803 7.98799L8.80794 5.60071Z" fill="black"/>
</svg>
