<svg width="24" height="24" viewBox="0 0 24 24" xmlns="http://www.w3.org/2000/svg">
  <path fill-rule="evenodd" clip-rule="evenodd" d="M15.4752 3.75452L6.70176 9.72072H2.05713V14.3355H6.7036L15.4752 20.238V3.75452ZM14.1038 6.34562V17.6621L7.12206 12.964H3.42856V11.0922H7.12389L14.1038 6.34562Z"/>
  <path d="M20.0161 10.733C19.8107 10.291 19.5008 9.9057 19.1132 9.6102L19.9447 8.5196C20.5092 8.94997 20.9605 9.51118 21.2597 10.1548C21.559 10.7985 21.6972 11.5053 21.6624 12.2142C21.6276 12.9232 21.4209 13.6131 21.0601 14.2243C20.6993 14.8356 20.1952 15.35 19.5914 15.723L18.8706 14.5563C19.2852 14.3001 19.6313 13.947 19.8791 13.5272C20.1268 13.1075 20.2687 12.6338 20.2926 12.147C20.3165 11.6602 20.2216 11.1749 20.0161 10.733Z"/>
  <path d="M17.518 10.7422C17.3145 10.3006 17.0069 9.91496 16.6216 9.61841L17.458 8.53157C18.0192 8.96345 18.4672 9.52508 18.7636 10.1682C19.0599 10.8114 19.1958 11.5168 19.1595 12.2241C19.1232 12.9313 18.9159 13.6191 18.5552 14.2286C18.1946 14.838 17.6914 15.3508 17.089 15.723L16.3682 14.5563C16.7819 14.3007 17.1273 13.9486 17.375 13.5301C17.6226 13.1117 17.765 12.6394 17.7899 12.1538C17.8148 11.6682 17.7215 11.1838 17.518 10.7422Z"/>
</svg>
