<svg xmlns="http://www.w3.org/2000/svg" width="24" height="24" viewBox="0 0 24 24">
  <path fill-rule="evenodd" d="m7.776 9.197-1.131.77H2v4.614h4.646l8.772 5.902v-3.645l3.21 3.21.92-.918-4.13-4.13V4L8.871 8.452 4.548 4.13l-.92.92 4.148 4.148Zm.988.987-1.697 1.154H3.37v1.872h3.694l6.982 4.698v-2.441l-5.283-5.283Zm5.283 3.444V6.591L9.857 9.44l4.19 4.188Zm5.912-2.65a3.005 3.005 0 0 0-.903-1.122l.832-1.09a4.376 4.376 0 0 1-.354 7.203l-.72-1.167a3.005 3.005 0 0 0 1.145-3.823Zm-3.395-1.114a3.004 3.004 0 0 1-.253 4.938l.72 1.167a4.377 4.377 0 0 0 .37-7.192l-.837 1.087Z" clip-rule="evenodd"/>
</svg>
