<svg width="24" height="24" viewBox="0 0 24 24" fill="none" xmlns="http://www.w3.org/2000/svg">
  <path fill-rule="evenodd" clip-rule="evenodd" d="M15.4752 3.75452L6.70176 9.72072H2.05713V14.3355H6.7036L15.4752 20.238V3.75452ZM14.1038 6.34562V17.6621L7.12206 12.964H3.42856V11.0922H7.12389L14.1038 6.34562Z" fill="black"/>
  <path d="M16.6216 9.61841C17.0069 9.91496 17.3145 10.3006 17.518 10.7422C17.7215 11.1838 17.8148 11.6682 17.7899 12.1538C17.765 12.6394 17.6226 13.1117 17.375 13.5301C17.1273 13.9486 16.7819 14.3007 16.3682 14.5563L17.089 15.723C17.6914 15.3508 18.1946 14.838 18.5552 14.2286C18.9159 13.6191 19.1232 12.9313 19.1595 12.2241C19.1958 11.5168 19.0599 10.8114 18.7636 10.1682C18.4672 9.52508 18.0192 8.96345 17.458 8.53157L16.6216 9.61841Z" fill="black"/>
</svg>
