<svg width="20" height="22" viewBox="0 0 20 22" fill="none" xmlns="http://www.w3.org/2000/svg">
<path fill-rule="evenodd" clip-rule="evenodd" d="M17.0001 1.64998C16.2545 1.64998 15.6501 2.25439 15.6501 2.99998C15.6501 3.74556 16.2545 4.34998 17.0001 4.34998C17.7457 4.34998 18.3501 3.74556 18.3501 2.99998C18.3501 2.25439 17.7457 1.64998 17.0001 1.64998ZM14.4304 2.3501C14.7201 1.20074 15.7608 0.349976 17.0001 0.349976C18.4637 0.349976 19.6501 1.53642 19.6501 2.99998C19.6501 4.46353 18.4637 5.64998 17.0001 5.64998C15.7609 5.64998 14.7203 4.79936 14.4304 3.65014C13.7709 3.65099 13.2795 3.65627 12.8826 3.68869C12.4226 3.72628 12.1472 3.79709 11.9332 3.90611C11.491 4.13141 11.1315 4.49092 10.9062 4.9331C10.7972 5.14706 10.7264 5.42245 10.6888 5.88251C10.6506 6.35016 10.6501 6.94917 10.6501 7.79998V10.35H14.4304C14.7202 9.20067 15.7608 8.34998 17.0001 8.34998C18.4637 8.34998 19.6501 9.53642 19.6501 11C19.6501 12.4635 18.4637 13.65 17.0001 13.65C15.7608 13.65 14.7202 12.7993 14.4304 11.65H10.6501V14.2C10.6501 15.0508 10.6506 15.6498 10.6888 16.1174C10.7264 16.5775 10.7972 16.8529 10.9062 17.0669C11.1315 17.509 11.491 17.8685 11.9332 18.0938C12.1472 18.2029 12.4226 18.2737 12.8826 18.3113C13.2795 18.3437 13.7709 18.349 14.4304 18.3498C14.7203 17.2006 15.7609 16.35 17.0001 16.35C18.4637 16.35 19.6501 17.5364 19.6501 19C19.6501 20.4635 18.4637 21.65 17.0001 21.65C15.7608 21.65 14.7201 20.7992 14.4304 19.6498C13.771 19.6491 13.2279 19.6438 12.7768 19.6069C12.2363 19.5628 11.7708 19.4701 11.343 19.2521C10.6562 18.9022 10.0979 18.3438 9.74792 17.657C9.52996 17.2293 9.43729 16.7638 9.39313 16.2233C9.35009 15.6965 9.35009 15.0443 9.3501 14.2282V11.65H5.5698C5.27999 12.7993 4.23939 13.65 3.0001 13.65C1.53654 13.65 0.350098 12.4635 0.350098 11C0.350098 9.53642 1.53654 8.34998 3.0001 8.34998C4.23939 8.34998 5.27999 9.20068 5.5698 10.35H9.3501V7.77175C9.35009 6.9556 9.35009 6.30346 9.39313 5.77665C9.43729 5.2362 9.52996 4.77068 9.74792 4.34291C10.0979 3.65612 10.6562 3.09774 11.343 2.7478C11.7708 2.52984 12.2363 2.43716 12.7768 2.39301C13.2279 2.35614 13.771 2.35086 14.4304 2.3501ZM3.0001 9.64997C2.25451 9.64997 1.6501 10.2544 1.6501 11C1.6501 11.7456 2.25451 12.35 3.0001 12.35C3.74568 12.35 4.3501 11.7456 4.3501 11C4.3501 10.2544 3.74568 9.64997 3.0001 9.64997ZM17.0001 9.64997C16.2545 9.64997 15.6501 10.2544 15.6501 11C15.6501 11.7456 16.2545 12.35 17.0001 12.35C17.7457 12.35 18.3501 11.7456 18.3501 11C18.3501 10.2544 17.7457 9.64997 17.0001 9.64997ZM17.0001 17.65C16.2545 17.65 15.6501 18.2544 15.6501 19C15.6501 19.7456 16.2545 20.35 17.0001 20.35C17.7457 20.35 18.3501 19.7456 18.3501 19C18.3501 18.2544 17.7457 17.65 17.0001 17.65Z"/>
</svg>
