<?xml version="1.0" encoding="UTF-8"?>
<svg id="Logos" xmlns="http://www.w3.org/2000/svg" viewBox="0 0 318.93 122">
  <defs>
    <style>
      .cls-1 {
        fill: #5ce500;
      }

      .cls-2 {
        fill: #4b4e52;
      }
    </style>
  </defs>
  <g>
    <path class="cls-2" d="M69.01,109.46c-2.38-1.4-4.29-3.44-5.71-6.1-1.42-2.66-2.13-5.81-2.13-9.43s.72-6.89,2.16-9.6c1.44-2.71,3.36-4.79,5.76-6.22,2.4-1.44,5.01-2.16,7.82-2.16,1.47,0,2.94.2,4.41.59,1.47.39,2.81.95,4.02,1.67v2.84c-1.18-.78-2.44-1.37-3.8-1.76-1.36-.39-2.8-.59-4.34-.59-2.35,0-4.52.6-6.52,1.79-1.99,1.19-3.59,2.94-4.78,5.24-1.19,2.3-1.79,5.04-1.79,8.21s.59,5.73,1.76,7.96c1.18,2.24,2.77,3.94,4.78,5.12,2.01,1.18,4.22,1.76,6.64,1.76,1.63,0,3.14-.2,4.51-.61,1.37-.41,2.65-1.02,3.82-1.84v2.89c-2.55,1.57-5.47,2.35-8.77,2.35-2.84,0-5.46-.7-7.84-2.11Z"/>
    <path class="cls-2" d="M93.83,109.92c-1.8-1.13-3.19-2.69-4.19-4.7-1-2.01-1.49-4.32-1.49-6.93s.5-4.92,1.49-6.93c1-2.01,2.39-3.57,4.19-4.68,1.8-1.11,3.85-1.67,6.17-1.67s4.38.56,6.17,1.67c1.8,1.11,3.19,2.67,4.19,4.68,1,2.01,1.49,4.32,1.49,6.93s-.5,4.92-1.49,6.93c-1,2.01-2.39,3.58-4.19,4.7-1.8,1.13-3.85,1.69-6.17,1.69s-4.38-.56-6.17-1.69ZM104.71,107.64c1.37-.88,2.43-2.13,3.19-3.75.75-1.62,1.13-3.49,1.13-5.61s-.38-3.99-1.13-5.61c-.75-1.62-1.81-2.87-3.19-3.75-1.37-.88-2.94-1.32-4.7-1.32s-3.33.44-4.7,1.32c-1.37.88-2.43,2.13-3.18,3.75-.75,1.62-1.13,3.49-1.13,5.61s.38,3.99,1.13,5.61c.75,1.62,1.81,2.87,3.18,3.75,1.37.88,2.94,1.32,4.7,1.32s3.33-.44,4.7-1.32Z"/>
    <path class="cls-2" d="M116.79,85.4h2.6v4.56c.75-1.57,1.88-2.78,3.38-3.65,1.5-.87,3.32-1.3,5.44-1.3,1.83,0,3.41.36,4.73,1.08,1.32.72,2.34,1.76,3.04,3.11.7,1.36,1.05,3,1.05,4.92v17.05h-2.84v-16.76c0-2.19-.55-3.87-1.64-5.05-1.09-1.18-2.69-1.76-4.78-1.76-1.7,0-3.17.38-4.41,1.13-1.24.75-2.17,1.71-2.79,2.89-.62,1.18-.93,2.42-.93,3.72v15.83h-2.84v-25.77Z"/>
    <path class="cls-2" d="M146.04,109.65c-1.13-1.31-1.69-3.23-1.69-5.78v-15.92h-4.7v-2.55h4.7v-6.42h2.84v6.42h8.23v2.55h-8.23v15.43c0,1.9.37,3.32,1.1,4.26.73.95,1.8,1.42,3.21,1.42,1.21,0,2.52-.31,3.92-.93v2.6c-1.63.59-3.18.88-4.65.88-2.03,0-3.6-.65-4.73-1.96Z"/>
    <path class="cls-2" d="M162.97,110c-1.93-1.08-3.44-2.61-4.53-4.61-1.09-1.99-1.64-4.31-1.64-6.96s.48-5.08,1.45-7.1c.96-2.03,2.31-3.58,4.04-4.68,1.73-1.09,3.69-1.64,5.88-1.64,2.38,0,4.4.56,6.05,1.67,1.65,1.11,2.86,2.74,3.63,4.88.77,2.14,1.05,4.73.86,7.77h-19.01c.16,2.97,1.18,5.33,3.04,7.08,1.86,1.75,4.26,2.62,7.2,2.62,1.37,0,2.74-.18,4.12-.54,1.37-.36,2.53-.83,3.48-1.42v2.74c-1.01.56-2.22,1-3.63,1.32-1.4.33-2.86.49-4.36.49-2.45,0-4.64-.54-6.57-1.62ZM173.95,89.98c-1.34-1.62-3.23-2.43-5.68-2.43s-4.43.87-5.95,2.6c-1.52,1.73-2.39,4.05-2.62,6.96h16.27c0-3.14-.67-5.51-2.01-7.13Z"/>
    <path class="cls-2" d="M189.69,98.24l-8.57-12.84h3.23l7.06,10.83,7.15-10.83h3.19l-8.62,12.84,9.06,12.94h-3.28l-7.5-10.93-7.55,10.93h-3.23l9.06-12.94Z"/>
    <path class="cls-2" d="M210.26,109.65c-1.13-1.31-1.69-3.23-1.69-5.78v-15.92h-4.7v-2.55h4.7v-6.42h2.84v6.42h8.23v2.55h-8.23v15.43c0,1.9.37,3.32,1.1,4.26.73.95,1.8,1.42,3.21,1.42,1.21,0,2.51-.31,3.92-.93v2.6c-1.63.59-3.19.88-4.66.88-2.03,0-3.6-.65-4.73-1.96Z"/>
    <path class="cls-2" d="M237.04,76.33h11.27c2.32,0,4.35.32,6.1.96,1.75.64,3.1,1.61,4.07,2.92.96,1.31,1.45,2.92,1.45,4.85,0,2.12-.57,3.85-1.71,5.19-1.14,1.34-2.66,2.21-4.56,2.6,2.12.36,3.94,1.28,5.44,2.77,1.5,1.49,2.25,3.52,2.25,6.1s-.67,4.43-2.01,5.83c-1.34,1.41-2.99,2.36-4.95,2.87-1.96.51-4.03.76-6.22.76h-11.12v-34.84ZM254.8,90.2c1.42-1.05,2.13-2.61,2.13-4.7,0-2.25-.78-3.9-2.33-4.92-1.55-1.03-3.75-1.54-6.59-1.54h-8.08v12.74h9.51c2.16,0,3.94-.52,5.37-1.57ZM252.96,107.99c1.5-.33,2.77-1.01,3.8-2.06,1.03-1.04,1.54-2.56,1.54-4.56,0-1.83-.48-3.27-1.45-4.34-.96-1.06-2.12-1.78-3.48-2.16-1.36-.38-2.77-.56-4.24-.56h-9.21v14.16h7.84c1.96,0,3.69-.16,5.19-.49Z"/>
    <path class="cls-2" d="M270.77,109.92c-1.8-1.13-3.19-2.69-4.19-4.7-1-2.01-1.49-4.32-1.49-6.93s.5-4.92,1.49-6.93c1-2.01,2.39-3.57,4.19-4.68,1.8-1.11,3.85-1.67,6.17-1.67s4.38.56,6.17,1.67c1.8,1.11,3.19,2.67,4.19,4.68,1,2.01,1.49,4.32,1.49,6.93s-.5,4.92-1.49,6.93c-1,2.01-2.39,3.58-4.19,4.7-1.8,1.13-3.85,1.69-6.17,1.69s-4.38-.56-6.17-1.69ZM281.64,107.64c1.37-.88,2.43-2.13,3.19-3.75.75-1.62,1.13-3.49,1.13-5.61s-.38-3.99-1.13-5.61c-.75-1.62-1.81-2.87-3.19-3.75-1.37-.88-2.94-1.32-4.7-1.32s-3.33.44-4.7,1.32c-1.37.88-2.43,2.13-3.18,3.75-.75,1.62-1.13,3.49-1.13,5.61s.38,3.99,1.13,5.61c.75,1.62,1.81,2.87,3.18,3.75,1.37.88,2.94,1.32,4.7,1.32s3.33-.44,4.7-1.32Z"/>
    <path class="cls-2" d="M298.66,98.24l-8.58-12.84h3.23l7.06,10.83,7.15-10.83h3.19l-8.62,12.84,9.06,12.94h-3.28l-7.5-10.93-7.55,10.93h-3.23l9.06-12.94Z"/>
  </g>
  <g>
    <g>
      <path class="cls-2" d="M75.34,14.11h-13.22v35.81h5.87v-14.06h7.41c8.01,0,12.43-3.91,12.43-11.02,0-3.23-1.22-10.73-12.47-10.73M81.85,24.94c0,4.04-2.1,5.69-7.23,5.69h-6.63v-11.23h7.41c4.35,0,6.46,1.81,6.46,5.54M105.28,23.83l.44.21-1,5.29-.69-.21c-.56-.17-1.13-.26-1.7-.26-5.48,0-5.93,4.37-5.93,9.65v11.41h-5.43v-26.3h5.1v3.17c1.39-2.13,3.06-3.24,5.27-3.51,1.45-.17,2.86.03,3.93.54M118.64,23.1c-4.28,0-7.7,1.63-9.91,4.71-2.32,3.24-2.66,7.04-2.66,9.02,0,8.31,4.93,13.68,12.57,13.68,9.28,0,12.57-7.47,12.57-13.87,0-3.68-1.09-7.02-3.07-9.41-2.24-2.7-5.53-4.12-9.5-4.12M118.64,45.65c-4.25,0-6.89-3.38-6.89-8.83s2.64-8.92,6.89-8.92,6.94,3.46,6.94,8.83-2.66,8.92-6.94,8.92M176.88,23.83l.44.21-1,5.29-.69-.21c-.56-.17-1.13-.26-1.69-.26-5.48,0-5.93,4.37-5.93,9.65v11.41h-5.43v-26.3h5.1v3.17c1.39-2.13,3.06-3.24,5.27-3.51,1.45-.17,2.85.03,3.93.54M196.39,41.5l-.1.29c-1.13,3.23-3.84,3.91-5.92,3.91-4.11,0-6.76-2.73-7.02-7.16h18.59l.07-.52c.08-.61.07-1.47.06-2.09,0-.17,0-.32,0-.47-.27-7.36-5.07-12.31-11.94-12.31-4.01,0-7.3,1.58-9.52,4.56-1.79,2.42-2.81,5.76-2.81,9.17,0,8.13,5.05,13.59,12.57,13.59,5.82,0,9.82-2.96,11.28-8.32l.18-.64h-5.44ZM183.53,33.82c.46-3.64,2.95-5.96,6.5-5.96,2.71,0,5.92,1.58,6.36,5.96h-12.86ZM152.69,25.83c-1.75-1.82-4.1-2.74-6.99-2.74-7.97,0-11.6,7.02-11.6,13.53s3.59,13.44,11.6,13.44c2.67,0,5.06-.98,6.78-2.75-.02,1.16-.05,2.26-.08,2.73-.3,4.34-2.38,6.36-6.56,6.36-2.27,0-4.88-.81-5.39-3.07l-.11-.5h-5.35s.09.72.09.72c.56,4.64,4.63,7.52,10.62,7.52,5.26,0,9-1.98,10.81-5.72.88-1.8,1.32-4.43,1.32-7.81v-23.91h-5.14v2.21ZM146.04,45.22c-1.9,0-6.31-.86-6.31-8.83,0-5.24,2.47-8.49,6.46-8.49,3.08,0,6.36,2.23,6.36,8.49,0,5.52-2.43,8.83-6.51,8.83M227.18,42.01c0,4.18-3.47,8.4-11.23,8.4-6.86,0-10.94-2.97-11.49-8.36l-.06-.55h5.35l.08.4c.66,3.24,3.74,3.92,6.22,3.92,2.71,0,5.61-.88,5.61-3.33,0-1.24-.81-2.12-2.4-2.62-.95-.28-2.11-.61-3.33-.95-2.12-.59-4.3-1.21-5.65-1.67-3.34-1.2-5.25-3.52-5.25-6.38,0-5.3,5.16-7.68,10.28-7.68,6.84,0,10.38,2.58,10.82,7.87l.05.55h-5.27s-.07-.42-.07-.42c-.53-3.05-3.56-3.51-5.32-3.51-1.52,0-5.06.27-5.06,2.79,0,1.15.98,1.99,2.99,2.57.6.17,1.5.4,2.53.67,2.15.56,4.82,1.25,6.16,1.71,3.35,1.18,5.05,3.39,5.05,6.58M252.27,42.01c0,4.18-3.47,8.4-11.22,8.4-6.86,0-10.94-2.97-11.49-8.36l-.06-.55h5.35l.08.4c.65,3.24,3.74,3.92,6.22,3.92,2.71,0,5.61-.88,5.61-3.33,0-1.24-.81-2.12-2.4-2.62-.95-.28-2.11-.61-3.34-.95-2.11-.59-4.3-1.21-5.65-1.67-3.34-1.2-5.25-3.52-5.25-6.38,0-5.3,5.16-7.68,10.28-7.68,6.84,0,10.38,2.58,10.82,7.87l.05.55h-5.27s-.07-.42-.07-.42c-.53-3.05-3.56-3.51-5.33-3.51-1.52,0-5.06.27-5.06,2.79,0,1.15.98,1.99,2.99,2.57.6.17,1.49.4,2.53.67,2.14.56,4.82,1.25,6.16,1.71,3.35,1.18,5.05,3.39,5.05,6.58"/>
      <path class="cls-2" d="M255.57,26.45c-2.03,0-3.7-1.58-3.7-3.75s1.68-3.75,3.7-3.75,3.71,1.58,3.71,3.75-1.68,3.75-3.71,3.75M255.57,19.59c-1.68,0-3.03,1.29-3.03,3.11s1.35,3.11,3.03,3.11,3.03-1.29,3.03-3.11-1.35-3.11-3.03-3.11M255.14,23.4v1.25h-1.11v-3.93h1.84c.88,0,1.45.51,1.45,1.37,0,.61-.29,1.02-.76,1.19l.9,1.37h-1.23l-.76-1.25h-.35ZM255.75,21.64h-.61v.88h.61c.33,0,.51-.16.51-.43s-.18-.45-.51-.45"/>
    </g>
    <path class="cls-1" d="M48.63,41.09c0,.58-.41,1.28-.9,1.56l-12.58,7.27v-28.02L10.87,7.89,23.45.62c.5-.29,1.31-.29,1.81,0l23.36,13.49v26.98ZM29.74,25.01L13.12,15.41c-.5-.29-1.31-.29-1.81,0L.08,21.9l17.53,10.12v20.24s11.23-6.48,11.23-6.48c.5-.29.9-.99.9-1.57v-19.2ZM.08,42.14l12.13,7v-14.01L.08,42.14Z"/>
  </g>
</svg>