<svg width="206" height="36" viewBox="0 0 206 36" fill="none" xmlns="http://www.w3.org/2000/svg">
  <g clip-path="url(#clip0_977_1639)">
    <path d="M91.6183 16.4177H90.4617L91.338 13.2296H95.1865V22.7939H96.3154L95.4786 25.978H91.6301L91.6183 16.4177ZM91.342 9.47821C91.342 9.09137 91.4577 8.71322 91.6746 8.39158C91.8914 8.06993 92.1997 7.81924 92.5603 7.67121C92.9209 7.52317 93.3177 7.48444 93.7006 7.55991C94.0834 7.63537 94.4351 7.82165 94.7111 8.09519C94.9871 8.36872 95.1751 8.71723 95.2512 9.09663C95.3274 9.47604 95.2883 9.8693 95.1389 10.2267C94.9895 10.5841 94.7366 10.8896 94.412 11.1045C94.0875 11.3194 93.7059 11.4341 93.3156 11.4341C93.0552 11.4383 92.7966 11.3906 92.5553 11.2938C92.3139 11.197 92.0946 11.0531 91.9105 10.8707C91.7264 10.6882 91.5812 10.4709 91.4835 10.2317C91.3858 9.99246 91.3377 9.73623 91.342 9.47821Z" fill="black"/>
    <path d="M97.3456 19.6058C97.3456 15.7527 100.022 12.8697 103.602 12.8697C104.446 12.8351 105.284 13.0166 106.037 13.397C106.789 13.7773 107.429 14.3434 107.896 15.0407V13.2296H111.406V22.7939H112.562L111.69 25.9781H107.896V21.6438L106.791 25.317C105.871 25.9969 104.75 26.3559 103.602 26.3379C100.022 26.3379 97.3456 23.4823 97.3456 19.6058ZM107.896 19.5393C107.896 18.6325 107.533 17.7629 106.886 17.1218C106.239 16.4806 105.362 16.1204 104.447 16.1204C103.532 16.1204 102.654 16.4806 102.007 17.1218C101.36 17.7629 100.997 18.6325 100.997 19.5393C100.997 20.446 101.36 21.3156 102.007 21.9568C102.654 22.598 103.532 22.9582 104.447 22.9582C105.362 22.9582 106.239 22.598 106.886 21.9568C107.533 21.3156 107.896 20.446 107.896 19.5393Z" fill="black"/>
    <path d="M49.0478 12.6898C47.7574 12.6642 46.4993 13.0909 45.4953 13.8946V12.9714H41.9429V25.9507H45.7756V18.401C45.7578 18.1027 45.8031 17.8041 45.9086 17.5243C46.0141 17.2444 46.1774 16.9895 46.3881 16.7759C46.5989 16.5622 46.8523 16.3946 47.1322 16.2838C47.4122 16.1729 47.7124 16.1213 48.0136 16.1321C49.3241 16.1321 50.2043 17.0436 50.2043 18.401V25.9507H54.0331V17.9433C54.0331 14.7513 52.0595 12.6898 49.0478 12.6898Z" fill="black"/>
    <path d="M64.6195 20.4938C64.6383 20.7871 64.5951 21.0812 64.4927 21.3571C64.3902 21.633 64.2308 21.8847 64.0246 22.096C63.8184 22.3073 63.57 22.4737 63.2952 22.5844C63.0204 22.6952 62.7253 22.7479 62.4288 22.7391C62.1293 22.7509 61.8307 22.7007 61.5519 22.5917C61.2731 22.4827 61.0203 22.3172 60.8097 22.1059C60.5991 21.8946 60.4353 21.6421 60.3287 21.3645C60.2221 21.0869 60.1751 20.7904 60.1907 20.4938V12.9714H56.358V20.2121C56.358 23.7718 58.8566 26.2558 62.4288 26.2558C66.001 26.2558 68.4522 23.7718 68.4522 20.2121V12.9714H64.6195V20.4938Z" fill="black"/>
    <path d="M80.1438 21.0023C79.2872 22.2032 78.3912 22.7391 77.2308 22.7391C75.3637 22.7391 74.073 21.3856 74.073 19.4493C74.073 17.513 75.4072 16.183 77.2308 16.183C78.4149 16.183 79.3346 16.7385 80.1438 17.9394L80.2504 18.0958L82.9423 16.0265L82.8673 15.8935C82.3069 14.894 81.4798 14.0664 80.4766 13.5014C79.4734 12.9363 78.3328 12.6556 77.1794 12.6898C73.252 12.6898 70.1811 15.6588 70.1811 19.4493C70.1798 20.3544 70.361 21.2507 70.7139 22.0855C71.0668 22.9203 71.5843 23.6769 72.2362 24.3108C72.888 24.9448 73.661 25.4434 74.5099 25.7774C75.3587 26.1114 76.2663 26.274 77.1794 26.2558C78.3347 26.2851 79.476 25.9997 80.4789 25.4306C81.4818 24.8616 82.308 24.0308 82.8673 23.0286L82.9423 22.8956L80.2543 20.8536L80.1438 21.0023Z" fill="black"/>
    <path d="M88.421 6.46616H84.5883V25.9468H88.421V6.46616Z" fill="black"/>
    <path d="M114.638 19.4219C114.623 18.5521 114.783 17.6879 115.109 16.8802C115.435 16.0724 115.921 15.3373 116.538 14.718C117.154 14.0986 117.889 13.6075 118.7 13.2733C119.51 12.9391 120.38 12.7687 121.258 12.7719C122.296 12.7311 123.326 12.9695 124.238 13.4619C125.151 13.9544 125.912 14.6824 126.44 15.5688V9.58384H125.414L125.848 7.98001H128.134V24.1786H129.16L128.722 25.7786H126.44V23.2868C125.912 24.1738 125.152 24.9023 124.239 25.3948C123.326 25.8873 122.296 26.1254 121.258 26.0837C120.379 26.0875 119.508 25.917 118.696 25.5823C117.885 25.2476 117.149 24.7554 116.532 24.1347C115.915 23.514 115.43 22.7773 115.105 21.9679C114.78 21.1586 114.621 20.2929 114.638 19.4219ZM126.44 19.4219C126.436 18.4319 126.135 17.4654 125.577 16.6444C125.018 15.8235 124.227 15.1848 123.303 14.8092C122.378 14.4335 121.362 14.3376 120.383 14.5336C119.404 14.7296 118.505 15.2087 117.8 15.9104C117.096 16.6121 116.616 17.505 116.423 18.4764C116.23 19.4478 116.332 20.4541 116.715 21.3684C117.098 22.2827 117.746 23.0639 118.577 23.6135C119.408 24.1631 120.385 24.4564 121.384 24.4564C122.052 24.4632 122.715 24.3375 123.333 24.0867C123.951 23.8358 124.512 23.4648 124.983 22.9957C125.455 22.5265 125.826 21.9686 126.076 21.3548C126.327 20.741 126.45 20.0838 126.44 19.4219Z" fill="black"/>
    <path d="M130.699 19.4219C130.699 15.608 133.443 12.7719 137.41 12.7719C141.207 12.7719 143.773 15.874 143.773 19.4845C143.773 19.6645 143.749 19.9422 143.721 20.2669H132.444C132.803 23.0638 134.958 24.4603 137.548 24.4603C139.371 24.4603 141.1 23.9283 142.963 22.7078L142.399 24.7928C140.903 25.6524 139.202 26.0995 137.473 26.0876C133.766 26.0837 130.699 23.6427 130.699 19.4219ZM142.012 18.6396C141.653 16.0187 139.806 14.3914 137.394 14.3914C136.179 14.3441 134.991 14.7569 134.072 15.5459C133.152 16.3348 132.571 17.4409 132.444 18.6396H142.012Z" fill="black"/>
    <path d="M145.296 24.4838L145.734 22.8056C146.902 23.8693 148.431 24.4586 150.017 24.4564C151.635 24.4564 152.891 23.8735 152.891 22.5748C152.891 21.2761 151.789 20.7441 149.788 20.1613C148.272 19.7271 145.655 19.0151 145.655 16.2495C145.655 14.0628 147.708 12.7289 149.997 12.7289C151.479 12.7242 152.915 13.2382 154.051 14.1802L153.562 15.9326C152.772 14.9156 151.28 14.3679 150.009 14.3679C148.596 14.3679 147.364 15.029 147.364 16.2495C147.364 17.5482 148.47 18.1584 149.879 18.5653C151.983 19.1755 154.615 19.86 154.615 22.5553C154.615 24.8436 152.437 26.0758 150.151 26.0758C148.394 26.1283 146.675 25.5645 145.296 24.4838Z" fill="black"/>
    <path d="M157.098 9.58384H156.072L156.51 7.98001H158.792V25.7786H157.098V9.58384ZM158.792 19.1677L164.898 13.0653H167.207L161.101 19.1677L167.464 25.7786H165.206L158.792 19.1677Z" fill="black"/>
    <path d="M170.799 14.7043H167.977L168.415 13.077H170.783V10.0102L172.476 9.50168V13.0614H176.029L175.607 14.7043H172.476V25.7785H170.783L170.799 14.7043Z" fill="black"/>
    <path d="M176.443 19.4219C176.436 18.0973 176.825 16.8002 177.562 15.695C178.299 14.5899 179.35 13.7264 180.583 13.2142C181.815 12.7019 183.174 12.5638 184.486 12.8175C185.797 13.0711 187.004 13.7051 187.952 14.639C188.9 15.5729 189.546 16.7648 189.81 18.0634C190.074 19.362 189.942 20.7089 189.433 21.9335C188.923 23.1581 188.058 24.2051 186.947 24.9418C185.836 25.6786 184.53 26.0719 183.193 26.0719C182.305 26.0888 181.423 25.9286 180.599 25.6009C179.775 25.2731 179.026 24.7846 178.397 24.1642C177.767 23.5438 177.27 22.8043 176.934 21.9896C176.598 21.175 176.432 20.3018 176.443 19.4219ZM188.246 19.4219C188.241 18.4317 187.94 17.465 187.382 16.644C186.823 15.823 186.031 15.1843 185.107 14.8088C184.182 14.4332 183.166 14.3376 182.187 14.5339C181.207 14.7302 180.309 15.2097 179.604 15.9118C178.9 16.6139 178.421 17.5072 178.228 18.4788C178.035 19.4504 178.137 20.4569 178.521 21.3711C178.905 22.2853 179.554 23.0663 180.385 23.6154C181.217 24.1645 182.194 24.4571 183.193 24.4564C183.86 24.4617 184.521 24.3348 185.138 24.0832C185.755 23.8316 186.315 23.4604 186.785 22.9914C187.255 22.5224 187.625 21.965 187.875 21.352C188.124 20.739 188.248 20.0828 188.238 19.4219H188.246Z" fill="black"/>
    <path d="M194.198 23.2868V30.8639H192.505V14.6691H191.478L191.916 13.0653H194.198V15.5571C194.725 14.6685 195.485 13.9381 196.398 13.4436C197.31 12.949 198.341 12.7088 199.381 12.7485C200.258 12.7452 201.128 12.9157 201.939 13.2498C202.749 13.584 203.484 14.0752 204.101 14.6945C204.717 15.3139 205.203 16.049 205.529 16.8567C205.855 17.6645 206.015 18.5286 206 19.3985C206.016 20.2685 205.856 21.1328 205.53 21.9408C205.204 22.7488 204.719 23.4841 204.102 24.1036C203.485 24.7231 202.75 25.2142 201.939 25.5482C201.129 25.8822 200.259 26.0523 199.381 26.0485C198.346 26.0937 197.318 25.861 196.406 25.3748C195.493 24.8887 194.73 24.1672 194.198 23.2868ZM204.307 19.4219C204.302 18.4317 204.001 17.465 203.443 16.644C202.884 15.823 202.093 15.1844 201.168 14.8088C200.243 14.4332 199.227 14.3376 198.248 14.5339C197.269 14.7302 196.37 15.2097 195.665 15.9118C194.961 16.6139 194.482 17.5072 194.289 18.4788C194.096 19.4505 194.198 20.4569 194.582 21.3711C194.966 22.2853 195.615 23.0663 196.446 23.6154C197.278 24.1645 198.255 24.4571 199.254 24.4564C199.921 24.4606 200.582 24.333 201.199 24.0812C201.816 23.8293 202.376 23.4582 202.846 22.9895C203.316 22.5208 203.688 21.9639 203.939 21.3514C204.189 20.7388 204.315 20.0829 204.307 19.4219Z" fill="black"/>
    <path d="M31.3999 8.35945L16.3256 0.00782192C16.3147 0.00200135 16.3025 -0.00104523 16.2901 -0.00104523C16.2777 -0.00104523 16.2655 0.00200135 16.2545 0.00782192L1.11707 8.24601C1.10558 8.2525 1.09603 8.2619 1.08939 8.27323C1.08275 8.28457 1.07925 8.29744 1.07925 8.31055C1.07925 8.32366 1.08275 8.33653 1.08939 8.34787C1.09603 8.3592 1.10558 8.36859 1.11707 8.37509L15.1138 16.0813C15.1247 16.0871 15.1369 16.0901 15.1493 16.0901C15.1617 16.0901 15.1739 16.0871 15.1849 16.0813C15.5288 15.8832 15.9213 15.7831 16.319 15.792C16.7167 15.801 17.1042 15.9187 17.4387 16.1321C17.4494 16.1387 17.4617 16.1422 17.4742 16.1422C17.4868 16.1422 17.4991 16.1387 17.5098 16.1321L31.3999 8.48853C31.4114 8.48204 31.421 8.47264 31.4276 8.46131C31.4342 8.44997 31.4377 8.4371 31.4377 8.42399C31.4377 8.41088 31.4342 8.39801 31.4276 8.38667C31.421 8.37534 31.4114 8.36594 31.3999 8.35945Z" fill="#FFD91B"/>
    <path d="M18.4176 17.865C18.4194 17.8833 18.4194 17.9016 18.4176 17.9198C18.4192 18.2996 18.3188 18.673 18.1266 19.0016C17.9345 19.3302 17.6575 19.6022 17.3242 19.7896C17.3132 19.7949 17.304 19.8033 17.2977 19.8137C17.2914 19.8242 17.2882 19.8362 17.2887 19.8483V35.8866C17.2892 35.8992 17.2929 35.9115 17.2995 35.9222C17.3061 35.933 17.3154 35.942 17.3264 35.9482C17.3375 35.9545 17.35 35.9579 17.3627 35.958C17.3755 35.9582 17.388 35.9551 17.3992 35.9491L32.4933 27.6523C32.5044 27.6451 32.5134 27.6352 32.5197 27.6235C32.5259 27.6119 32.529 27.5989 32.5288 27.5858V10.2254C32.5299 10.2125 32.5273 10.1997 32.5215 10.1882C32.5157 10.1767 32.5068 10.167 32.4959 10.1601C32.4849 10.1533 32.4722 10.1495 32.4592 10.1493C32.4462 10.1491 32.4335 10.1524 32.4222 10.1589L18.4176 17.865Z" fill="#2500FF"/>
    <path d="M15.3704 19.9031V35.9413C15.3707 35.9538 15.3676 35.9662 15.3615 35.9771C15.3553 35.988 15.3464 35.9971 15.3356 36.0035C15.3247 36.0099 15.3123 36.0133 15.2997 36.0134C15.2871 36.0134 15.2747 36.0102 15.2638 36.0039L0.0394713 27.6132C0.0279006 27.6061 0.0182507 27.5964 0.0113683 27.5848C0.00448585 27.5732 0.000582018 27.5601 0 27.5467V10.1158C0.00048646 10.1032 0.00420578 10.0909 0.0108074 10.0801C0.017409 10.0693 0.0266753 10.0604 0.0377329 10.0541C0.0487906 10.0479 0.0612751 10.0445 0.0740098 10.0443C0.0867445 10.0442 0.0993096 10.0473 0.110521 10.0532L14.127 17.7672C14.127 17.8181 14.127 17.869 14.127 17.9198C14.128 18.3216 14.2434 18.715 14.4598 19.0547C14.6763 19.3945 14.985 19.6668 15.3506 19.8405C15.3588 19.8485 15.3649 19.8585 15.3683 19.8694C15.3717 19.8803 15.3724 19.8918 15.3704 19.9031Z" fill="#FF0066"/>
    <path d="M31.3999 8.35945L16.3256 0.00782192C16.3147 0.00200135 16.3025 -0.00104523 16.2901 -0.00104523C16.2777 -0.00104523 16.2655 0.00200135 16.2545 0.00782192L1.11707 8.24601C1.10558 8.2525 1.09603 8.2619 1.08939 8.27323C1.08275 8.28457 1.07925 8.29744 1.07925 8.31055C1.07925 8.32366 1.08275 8.33653 1.08939 8.34787C1.09603 8.3592 1.10558 8.36859 1.11707 8.37509L15.1138 16.0813C15.1247 16.0871 15.1369 16.0901 15.1493 16.0901C15.1617 16.0901 15.1739 16.0871 15.1849 16.0813C15.5288 15.8832 15.9213 15.7831 16.319 15.792C16.7167 15.801 17.1042 15.9187 17.4387 16.1321C17.4494 16.1387 17.4617 16.1422 17.4742 16.1422C17.4868 16.1422 17.4991 16.1387 17.5098 16.1321L31.3999 8.48853C31.4114 8.48204 31.421 8.47264 31.4276 8.46131C31.4342 8.44997 31.4377 8.4371 31.4377 8.42399C31.4377 8.41088 31.4342 8.39801 31.4276 8.38667C31.421 8.37534 31.4114 8.36594 31.3999 8.35945Z" fill="#FFD91B"/>
    <path d="M18.4176 17.865C18.4194 17.8833 18.4194 17.9016 18.4176 17.9198C18.4192 18.2996 18.3188 18.673 18.1266 19.0016C17.9345 19.3302 17.6575 19.6022 17.3242 19.7896C17.3132 19.7949 17.304 19.8033 17.2977 19.8137C17.2914 19.8242 17.2882 19.8362 17.2887 19.8483V35.8866C17.2892 35.8992 17.2929 35.9115 17.2995 35.9222C17.3061 35.933 17.3154 35.942 17.3264 35.9482C17.3375 35.9545 17.35 35.9579 17.3627 35.958C17.3755 35.9582 17.388 35.9551 17.3992 35.9491L32.4933 27.6523C32.5044 27.6451 32.5134 27.6352 32.5197 27.6235C32.5259 27.6119 32.529 27.5989 32.5288 27.5858V10.2254C32.5299 10.2125 32.5273 10.1997 32.5215 10.1882C32.5157 10.1767 32.5068 10.167 32.4959 10.1601C32.4849 10.1533 32.4722 10.1495 32.4592 10.1493C32.4462 10.1491 32.4335 10.1524 32.4222 10.1589L18.4176 17.865Z" fill="#2500FF"/>
    <path d="M15.3704 19.9031V35.9413C15.3707 35.9538 15.3676 35.9662 15.3615 35.9771C15.3553 35.988 15.3464 35.9971 15.3356 36.0035C15.3247 36.0099 15.3123 36.0133 15.2997 36.0134C15.2871 36.0134 15.2747 36.0102 15.2638 36.0039L0.0394713 27.6132C0.0279006 27.6061 0.0182507 27.5964 0.0113683 27.5848C0.00448585 27.5732 0.000582018 27.5601 0 27.5467V10.1158C0.00048646 10.1032 0.00420578 10.0909 0.0108074 10.0801C0.017409 10.0693 0.0266753 10.0604 0.0377329 10.0541C0.0487906 10.0479 0.0612751 10.0445 0.0740098 10.0443C0.0867445 10.0442 0.0993096 10.0473 0.110521 10.0532L14.127 17.7672C14.127 17.8181 14.127 17.869 14.127 17.9198C14.128 18.3216 14.2434 18.715 14.4598 19.0547C14.6763 19.3945 14.985 19.6668 15.3506 19.8405C15.3588 19.8485 15.3649 19.8585 15.3683 19.8694C15.3717 19.8803 15.3724 19.8918 15.3704 19.9031Z" fill="#FF0066"/>
  </g>
  <defs>
    <clipPath id="clip0_977_1639">
      <rect width="206" height="36" fill="white"/>
    </clipPath>
  </defs>
</svg>
