<?xml version="1.0" encoding="UTF-8"?>
<svg width="60px" height="60px" viewBox="0 0 60 60" version="1.1" xmlns="http://www.w3.org/2000/svg" xmlns:xlink="http://www.w3.org/1999/xlink" style="background: #0E1386;">
    <title>25D1193B-8166-4445-9DFB-CE75EDF437CD@1x</title>
    <defs>
        <polygon id="path-1" points="3.2e-05 4.54747351e-15 31.99952 4.54747351e-15 31.99952 31.99952 3.2e-05 31.99952"></polygon>
    </defs>
    <g id="Blue-Steel" stroke="none" stroke-width="1" fill="none" fill-rule="evenodd">
        <g id="!MOLECULE-/-MonogramSquare">
            <rect fill="#0E1386" x="0" y="0" width="60" height="60"></rect>
            <rect id="Logo-BG" fill="#08088C" x="0" y="0" width="60" height="60"></rect>
            <g id="Group-3" transform="translate(14.000000, 14.000000)">
                <mask id="mask-2" fill="white">
                    <use xlink:href="#path-1"></use>
                </mask>
                <g id="Clip-2"></g>
                <path d="M12.351872,22.55968 L12.351872,18.14368 L17.215712,18.14368 C19.071712,18.14368 19.647712,18.62368 19.647712,20.15968 L19.647712,20.54368 C19.647712,22.07968 19.071712,22.55968 17.215712,22.55968 L12.351872,22.55968 Z M12.351872,9.43984 L17.215712,9.43984 C19.071712,9.43984 19.647712,9.91984 19.647712,11.45584 L19.647712,11.61584 C19.647712,13.15184 19.071712,13.63184 17.215712,13.63184 L12.351872,13.63184 L12.351872,9.43984 Z M26.239552,7.26384 L30.559552,11.58384 C31.455392,12.47984 31.935392,13.75984 31.935392,15.42368 L31.935392,15.93584 C31.935392,18.33584 31.199552,19.42368 28.863552,19.83968 L28.863552,20.12768 L30.911552,22.17568 C31.743552,23.00768 31.999552,24.03168 31.999552,25.37568 L31.999552,26.43152 C31.999552,30.27152 29.439552,31.99952 25.055552,31.99952 L10.239872,31.99952 L5.311872,27.07152 L20.127712,27.07152 C24.511552,27.07152 27.071552,25.34352 27.071552,21.50368 L27.071552,20.44768 C27.071552,17.47168 25.727712,16.15984 21.855552,16.03168 L21.855552,15.42368 C25.727712,15.29584 27.007712,13.98368 27.007712,11.00784 L27.007712,10.496 C27.007712,9.27984 26.751552,8.22384 26.175552,7.328 L26.239552,7.26384 Z M24.895552,6.048 C23.615552,5.248 21.983552,4.928 20.063712,4.928 L4.928032,4.928 L4.928032,26.68768 L3.2e-05,21.75968 L3.2e-05,4.54747351e-15 L15.135712,4.54747351e-15 C17.631712,4.54747351e-15 19.391712,0.416 20.831712,1.856 L24.959712,5.98384 L24.895552,6.048 Z" id="Fill-1" fill="#00EAE4" mask="url(#mask-2)"></path>
            </g>
        </g>
    </g>
</svg>