<svg width="57" height="44" viewBox="0 0 57 44" fill="none" xmlns="http://www.w3.org/2000/svg">
  <path d="M55.8215 0H42.7832C41.1573 0 39.7795 1.07339 39.2922 2.56622C39.1194 3.0984 38.6276 3.4592 38.0738 3.4592H1.84743C0.828463 3.4592 0 4.29807 0 5.33989V33.5908C0 34.6281 0.828463 35.4715 1.84743 35.4715H55.1526C56.1715 35.4715 57 34.6281 57 33.5908V1.19967C57 0.536695 56.4728 0 55.8215 0Z" fill="#FBB03C"/>
  <path d="M54.5501 5.82698H2.44556V33.1037H54.5501V5.82698Z" fill="white"/>
  <g style="mix-blend-mode:multiply">
    <path d="M2.46324 42.8093L54.5368 42.8093C55.8972 42.8093 57 41.6867 57 40.3018V13.3046C57 11.9197 55.8972 10.797 54.5368 10.797L2.46324 10.797C1.10283 10.797 0 11.9197 0 13.3046V40.3018C0 41.6867 1.10283 42.8093 2.46324 42.8093Z" fill="#D9D9D9"/>
  </g>
  <path d="M2.35248 44L54.6475 44C55.9468 44 57 42.9278 57 41.6052L57 14.3825C57 13.0599 55.9468 11.9877 54.6475 11.9877L2.35248 11.9877C1.05324 11.9877 0 13.0599 0 14.3825L0 41.6052C0 42.9278 1.05324 44 2.35248 44Z" fill="#FFCC02"/>
</svg>
