<svg width="50" height="45" viewBox="0 0 50 45" fill="none" xmlns="http://www.w3.org/2000/svg">
<path d="M49.6868 31.9277L43.8546 42.0313C42.8059 43.7243 40.9293 44.7256 38.9239 44.671H10.775C8.7696 44.7256 6.893 43.7061 5.84432 42.0313L3.45258 37.8806L13.3691 31.9277H49.6868Z" fill="#4285F4"/>
<path d="M18.1896 1.21579C16.8649 1.68911 15.761 2.59934 15.0435 3.81905L0.840239 27.8491C-0.208448 29.5422 -0.28204 31.6539 0.656259 33.4016L3.47116 37.8981L13.3693 31.927L24.8497 12.4844L18.1896 1.21579Z" fill="#00AC47"/>
<path d="M13.3657 31.9277H0.137573C0.229563 32.4374 0.413544 32.9472 0.671116 33.4023L3.46761 37.8624L3.44922 37.8806L5.84096 42.0313C6.4113 42.9779 7.276 43.7061 8.30629 44.1248L13.3657 31.9277Z" fill="#0066DA"/>
<path d="M31.4917 1.21579C32.8163 1.68911 33.9386 2.59934 34.6377 3.81905L48.841 27.8491C49.8897 29.5422 49.9633 31.6539 49.025 33.4016L46.2101 37.8981L36.312 31.927L24.8316 12.4844L31.4917 1.21579Z" fill="#FFBA00"/>
<path d="M36.3172 31.9277H49.5454C49.4534 32.4374 49.2694 32.9472 49.0118 33.4023L46.2153 37.8624L46.2337 37.8806L43.842 42.0313C43.2716 42.9779 42.4069 43.7061 41.3767 44.1248L36.3172 31.9277Z" fill="#EA4435"/>
<path d="M31.486 1.21518C31.2652 1.14236 31.0444 1.06954 30.8236 1.03313L24.8443 0.978516L18.8465 1.03313C18.6258 1.08774 18.405 1.14236 18.1842 1.21518C17.945 1.3062 17.7243 1.39722 17.5035 1.52465L24.8075 12.4838L32.1483 1.52465C31.9459 1.41543 31.7251 1.3062 31.486 1.21518Z" fill="#188038"/>
</svg>
