<svg width="53" height="59" viewBox="0 0 53 59" fill="none" xmlns="http://www.w3.org/2000/svg">
<path d="M50.7959 13.5848L26.3325 0.0143929C26.3147 0.00493516 26.2949 0 26.2748 0C26.2547 0 26.2349 0.00493516 26.2172 0.0143929L1.65123 13.4004C1.63259 13.411 1.61708 13.4263 1.6063 13.4447C1.59553 13.4631 1.58984 13.484 1.58984 13.5053C1.58984 13.5266 1.59553 13.5475 1.6063 13.5659C1.61708 13.5843 1.63259 13.5996 1.65123 13.6102L24.3659 26.1318C24.3837 26.1412 24.4034 26.1462 24.4236 26.1462C24.4437 26.1462 24.4635 26.1412 24.4812 26.1318C25.0163 25.8234 25.6241 25.6611 26.2428 25.6614C26.9241 25.6554 27.5922 25.8476 28.1645 26.2144C28.1818 26.2251 28.2018 26.2308 28.2221 26.2308C28.2425 26.2308 28.2625 26.2251 28.2798 26.2144L50.8216 13.7945C50.8392 13.7818 50.853 13.7648 50.8617 13.745C50.8704 13.7253 50.8736 13.7035 50.871 13.6821C50.8684 13.6607 50.8601 13.6404 50.8469 13.6233C50.8336 13.6062 50.816 13.5929 50.7959 13.5848Z" fill="#FFD91B"/>
<path d="M29.6456 28.8159C29.6486 28.8445 29.6486 28.8733 29.6456 28.9019C29.6482 29.4984 29.4858 30.0848 29.1751 30.6008C28.8645 31.1169 28.4167 31.5441 27.8778 31.8385C27.86 31.8468 27.8451 31.86 27.8349 31.8763C27.8247 31.8927 27.8196 31.9116 27.8204 31.9306V57.1185C27.8212 57.1383 27.8272 57.1576 27.8379 57.1746C27.8485 57.1915 27.8635 57.2056 27.8814 57.2154C27.8993 57.2253 27.9195 57.2305 27.94 57.2308C27.9606 57.231 27.981 57.2262 27.9991 57.2168L52.4035 44.1867C52.4214 44.1753 52.4361 44.1598 52.4461 44.1416C52.4562 44.1233 52.4613 44.1029 52.461 44.0822V16.8117C52.4627 16.7916 52.4586 16.7714 52.4492 16.7534C52.4398 16.7353 52.4254 16.7201 52.4076 16.7093C52.3899 16.6985 52.3694 16.6927 52.3484 16.6923C52.3275 16.692 52.3068 16.6972 52.2886 16.7073L29.6456 28.8159Z" fill="#2500FF"/>
<path d="M24.641 31.875V57.9087C24.6415 57.929 24.6365 57.9491 24.6267 57.9668C24.6169 57.9845 24.6026 57.9993 24.5852 58.0097C24.5678 58.02 24.548 58.0255 24.5278 58.0256C24.5075 58.0257 24.4877 58.0205 24.4702 58.0103L0.0633026 44.3902C0.0447529 44.3788 0.0292635 44.363 0.0182299 44.3442C0.00719631 44.3254 0.000933061 44.3041 0 44.2823V16.0135C0.000779868 15.993 0.00675818 15.9731 0.0173416 15.9555C0.027925 15.938 0.042756 15.9235 0.0604831 15.9133C0.0782102 15.9032 0.0982332 15.8977 0.118649 15.8974C0.139064 15.8972 0.159228 15.9022 0.177201 15.9119L22.6477 28.4335C22.6477 28.516 22.6477 28.5986 22.6477 28.6811C22.6476 29.3313 22.8297 29.9684 23.1732 30.5197C23.5167 31.071 24.0078 31.5142 24.5904 31.7988C24.6036 31.8073 24.6149 31.8185 24.6236 31.8316C24.6323 31.8447 24.6382 31.8595 24.641 31.875Z" fill="#FF0066"/>
</svg>
