<svg width="24" height="24" viewBox="0 0 24 24" fill="none" xmlns="http://www.w3.org/2000/svg">
<g clip-path="url(#clip0_2260_1135)">
<path d="M19.785 0V7.272H22.5V17.62H19.565V24L12.528 17.806V23.951H11.437V17.799L4.392 24V17.535H1.5V7.188H4.384V0L11.437 6.494V0.19H12.527V6.68L19.785 0ZM12.528 9.044V16.363L18.474 21.597V14.44L12.528 9.044ZM11.429 8.964L5.483 14.362V21.597L11.429 16.363V8.965V8.964ZM19.565 16.544H21.409V8.349H13.46L19.565 13.889V16.544ZM10.583 8.264H2.59V16.459H4.39V13.883L10.582 8.263L10.583 8.264ZM5.475 2.476V7.186H10.59L5.475 2.476ZM18.694 2.476L13.579 7.186H18.694V2.476Z" fill="#22B8CD"/>
</g>
<defs>
<clipPath id="clip0_2260_1135">
<rect width="24" height="24" fill="white"/>
</clipPath>
</defs>
</svg>
