<svg width="172" height="172" viewBox="0 0 172 172" fill="none" xmlns="http://www.w3.org/2000/svg">
<path fill-rule="evenodd" clip-rule="evenodd" d="M85.6758 22.7223C87.5821 22.7223 89.1279 24.2681 89.1279 26.1744V57.5016L122.896 23.734C123.884 22.747 125.369 22.451 126.658 22.985C127.948 23.5193 128.789 24.7784 128.789 26.1744V62.275H140.215C142.121 62.2751 143.666 63.821 143.666 65.7272V115.415C143.666 117.321 142.121 118.867 140.215 118.867H128.788V145.156C128.788 146.552 127.947 147.81 126.657 148.344C125.367 148.879 123.883 148.583 122.896 147.596L89.1279 113.829V145.174C89.1277 147.081 87.582 148.626 85.6758 148.626C83.7697 148.626 82.2239 147.081 82.2236 145.174V113.83L48.457 147.596C47.4699 148.583 45.9851 148.879 44.6953 148.344C43.4058 147.81 42.5646 146.552 42.5645 145.156V118.867H31.1348C29.2285 118.867 27.6826 117.321 27.6826 115.415V65.7272C27.6828 63.8211 29.2286 62.2752 31.1348 62.275H42.5645V26.1744C42.5645 24.7784 43.4056 23.5193 44.6953 22.985C45.9851 22.4508 47.4699 22.7469 48.457 23.734L82.2236 57.4996V26.1744C82.2237 24.2682 83.7695 22.7224 85.6758 22.7223ZM49.4688 102.101V136.822L82.2236 104.067V73.442L49.4688 102.101ZM89.1279 104.065L121.885 136.822V115.45C121.885 115.438 121.884 115.426 121.884 115.415C121.884 115.403 121.885 115.391 121.885 115.379V102.101L89.1279 73.4401V104.065ZM127.609 97.9371C128.359 98.5926 128.788 99.5404 128.788 100.536V111.964H136.763V69.1793H94.7402L127.609 97.9371ZM34.5869 111.964H42.5645V100.536C42.5645 99.5404 42.995 98.5926 43.7441 97.9371L76.6123 69.1793H34.5869V111.964ZM49.4688 62.275H77.2354L49.4688 34.5074V62.275ZM94.1191 62.275H121.886V34.5074L94.1191 62.275Z" fill="#22B8CD"/>
</svg>
