<svg xmlns="http://www.w3.org/2000/svg" x="0px"  y="0px"  viewBox="0 0 286.60001 286.60001"  width="286.60001"  height="286.60001">
  <path class="path" fill="#EC6525" d="M 255.9,0 H 30.7 C 13.7,0 0,13.7 0,30.7 v 225.2 c 0,17 13.7,30.7 30.7,30.7 h 225.2 c 17,0 30.7,-13.7 30.7,-30.7 V 30.7 C 286.6,13.7 272.9,0 255.9,0 Z M 71.7,245.6 c -17,0 -30.7,-13.7 -30.7,-30.7 0,-17 13.7,-30.7 30.7,-30.7 17,0 30.7,13.7 30.7,30.7 0,17 -13.8,30.7 -30.7,30.7 z m 100.8,0 h -22 c -3.8,0 -7.1,-3 -7.3,-6.8 C 139.9,187.6 98.9,146.7 47.8,143.4 44,143.2 41,139.9 41,136.1 v -22 c 0,-4.2 3.5,-7.5 7.7,-7.3 70.7,3.8 127.3,60.5 131.1,131.1 0.2,4.2 -3.2,7.7 -7.3,7.7 z m 65.9,0 h -22 c -3.9,0 -7.1,-3.1 -7.3,-7.1 C 205.5,151.2 135.4,81 48,77.4 44.1,77.2 40.9,74 40.9,70.1 v -22 c 0,-4.1 3.4,-7.5 7.5,-7.3 107.4,3.9 193.3,90.3 197.2,197.2 0.2,4.2 -3.1,7.6 -7.2,7.6 z" />
</svg>
