<svg width="29" height="35" viewBox="0 0 29 35" fill="none" xmlns="http://www.w3.org/2000/svg">
<path fill-rule="evenodd" clip-rule="evenodd" d="M1.73034 0H26.5843C27.0417 0 27.4804 0.181711 27.8038 0.505159C28.1273 0.828606 28.309 1.26729 28.309 1.72472V25.1124C28.2494 26.2856 27.7664 27.3974 26.9494 28.2416L21.5056 33.3652C20.6034 34.1314 19.4742 34.5795 18.2921 34.6404H1.72472C1.2673 34.6404 0.828606 34.4587 0.505158 34.1353C0.181711 33.8118 0 33.3731 0 32.9157V1.72472C0.00148683 1.26678 0.184446 0.828103 0.508786 0.504816C0.833126 0.181529 1.27239 -2.41361e-06 1.73034 0ZM26.2584 27.4944C26.3521 27.3999 26.4385 27.2985 26.5169 27.191L26.7753 26.8427H21.4607C21.2717 26.8418 21.0844 26.8786 20.9098 26.9509C20.7352 27.0233 20.5768 27.1297 20.4438 27.264C20.1751 27.5344 20.0238 27.8997 20.0225 28.2809V33.1573L20.3596 32.9494C20.5232 32.8563 20.6758 32.7451 20.8146 32.618L26.2584 27.4944ZM27.2191 25.6742C27.266 25.4905 27.2906 25.3019 27.2921 25.1124V1.72472C27.2892 1.53788 27.2137 1.35951 27.0816 1.22739C26.9495 1.09526 26.7711 1.01975 26.5843 1.01685H1.73034C1.5435 1.01975 1.36513 1.09526 1.23301 1.22739C1.10088 1.35951 1.02537 1.53788 1.02247 1.72472V32.9157C1.02098 33.0096 1.03819 33.1029 1.0731 33.1901C1.108 33.2773 1.15991 33.3566 1.22579 33.4235C1.29167 33.4905 1.37021 33.5436 1.45683 33.5799C1.54345 33.6162 1.63643 33.6348 1.73034 33.6348H18.2921C18.4717 33.6328 18.6506 33.6121 18.8258 33.573L19.0056 33.5393V28.3034C19.0071 27.6527 19.2662 27.0291 19.7263 26.569C20.1864 26.1089 20.81 25.8498 21.4607 25.8483H27.1798L27.2191 25.6742ZM5.45504 12.3876C4.22471 12.3876 3.02808 13.5449 3.02808 15.4551C3.02808 17.3652 3.94381 18.5225 5.40448 18.5449C5.99736 18.5135 6.55504 18.2538 6.96066 17.8202H6.99999L7.12358 18.382H8.53931V10.118H6.80336V12.1292L6.88763 12.9944C6.70456 12.7987 6.48247 12.6436 6.2357 12.539C5.98893 12.4345 5.72299 12.383 5.45504 12.3876ZM6.82583 14.1742V16.5787H6.80336C6.70559 16.7458 6.56628 16.8848 6.39894 16.9823C6.23161 17.0797 6.04193 17.1323 5.8483 17.1348C5.17976 17.1348 4.78089 16.5618 4.78089 15.4494C4.78089 14.3371 5.27527 13.8146 5.83707 13.8146C6.2007 13.8024 6.55497 13.9312 6.82583 14.1742ZM9.52808 12.5281H11.2472L11.809 15.2359C11.8723 15.5879 11.9225 15.9399 11.9746 16.3058L11.9746 16.3058C12.0056 16.5238 12.0374 16.7467 12.073 16.9775H12.1236C12.2247 16.382 12.3258 15.7921 12.4719 15.2359L13.1067 12.5281H14.6123L15.2697 15.2359C15.408 15.7893 15.5136 16.3427 15.6295 16.9497L15.6295 16.9497L15.6348 16.9775H15.6854C15.7339 16.6916 15.7747 16.4122 15.8152 16.135C15.859 15.8346 15.9025 15.5368 15.955 15.2359L16.5168 12.5281H18.118L16.7135 18.382H14.6798L14.1461 16.0618L14.0812 15.7217C13.9977 15.2849 13.9164 14.8591 13.8314 14.3764H13.7865C13.7022 14.9382 13.6011 15.5 13.4888 16.0618L12.9775 18.3989H10.9944L9.52808 12.5281ZM19.0053 18.6753C18.8582 18.883 18.7727 19.1279 18.7584 19.382C18.7584 20.427 19.8258 20.8652 21.2022 20.8876C23.2079 20.8876 24.4775 20.0056 24.4775 18.7865C24.4775 17.7416 23.6629 17.3034 22.2303 17.3034H21.2809C20.6404 17.3034 20.4045 17.1629 20.4045 16.8708C20.3995 16.7869 20.416 16.7033 20.4524 16.6276C20.4888 16.5519 20.5438 16.4867 20.6124 16.4382C20.8434 16.5105 21.0838 16.5483 21.3258 16.5505C22.6067 16.5505 23.6292 15.9326 23.6292 14.5843C23.6329 14.3141 23.563 14.048 23.427 13.8146H24.3764V12.5H22.2191C21.9271 12.4048 21.6217 12.3574 21.3146 12.3595C20.0506 12.3595 18.8933 13.073 18.8933 14.4775C18.894 14.7747 18.9658 15.0675 19.1026 15.3313C19.2394 15.5952 19.4373 15.8225 19.6798 15.9944V16.0393C19.4894 16.161 19.3308 16.3265 19.2175 16.522C19.1041 16.7174 19.0392 16.9372 19.0281 17.1629C19.0243 17.3637 19.0744 17.5619 19.1732 17.7368C19.272 17.9117 19.4159 18.0569 19.5899 18.1573V18.2079C19.355 18.3057 19.1523 18.4677 19.0053 18.6753ZM21.927 18.6067C22.5056 18.6067 22.8202 18.691 22.8202 19.0618H22.8034C22.8034 19.4663 22.2528 19.7696 21.4663 19.7696C20.6798 19.7696 20.1685 19.5393 20.1685 19.0955C20.1762 18.9844 20.2083 18.8764 20.2627 18.7793C20.3171 18.6821 20.3924 18.5982 20.4831 18.5337C20.7522 18.5934 21.028 18.618 21.3034 18.6067H21.927ZM21.3315 13.5505C21.7921 13.5505 22.1292 13.882 22.1292 14.5056C22.1292 15.1461 21.7809 15.5 21.3258 15.5C20.8708 15.5 20.5281 15.1348 20.5281 14.5056C20.5281 13.8764 20.8708 13.5505 21.3315 13.5505Z" fill="#B70000"/>
</svg>
