<svg width="12" height="11" viewBox="0 0 12 11" fill="none" xmlns="http://www.w3.org/2000/svg">
<mask id="path-1-outside-1_3254_897" maskUnits="userSpaceOnUse" x="0" y="0" width="12" height="11" fill="black">
<rect fill="white" width="12" height="11"/>
<path d="M10.3901 1.12242C10.2267 0.959192 9.97334 0.959192 9.80989 1.12242L5.75636 5.17053L1.69466 1.12242C1.53938 0.959192 1.27786 0.959192 1.12259 1.12242C0.96731 1.28565 0.959138 1.53866 1.12259 1.69373L5.17612 5.74184L1.12259 9.79811C0.959138 9.96134 0.959138 10.2143 1.12259 10.3776C1.20431 10.4592 1.31055 10.5 1.40862 10.5C1.50669 10.5 1.62111 10.4592 1.69466 10.3776L5.74819 6.32947L9.80172 10.3776C9.88344 10.4592 9.98968 10.5 10.0878 10.5C10.1858 10.5 10.3002 10.4592 10.3738 10.3776C10.5372 10.2143 10.5372 9.96134 10.3738 9.79811L6.32026 5.75L10.3738 1.70189C10.5454 1.53866 10.5454 1.27749 10.3901 1.12242Z"/>
</mask>
<path d="M10.3901 1.12242C10.2267 0.959192 9.97334 0.959192 9.80989 1.12242L5.75636 5.17053L1.69466 1.12242C1.53938 0.959192 1.27786 0.959192 1.12259 1.12242C0.96731 1.28565 0.959138 1.53866 1.12259 1.69373L5.17612 5.74184L1.12259 9.79811C0.959138 9.96134 0.959138 10.2143 1.12259 10.3776C1.20431 10.4592 1.31055 10.5 1.40862 10.5C1.50669 10.5 1.62111 10.4592 1.69466 10.3776L5.74819 6.32947L9.80172 10.3776C9.88344 10.4592 9.98968 10.5 10.0878 10.5C10.1858 10.5 10.3002 10.4592 10.3738 10.3776C10.5372 10.2143 10.5372 9.96134 10.3738 9.79811L6.32026 5.75L10.3738 1.70189C10.5454 1.53866 10.5454 1.27749 10.3901 1.12242Z" fill="#221F20"/>
<path d="M10.3901 1.12242L10.7435 0.768633L10.3901 1.12242ZM9.80989 1.12242L9.45657 0.768633V0.768633L9.80989 1.12242ZM5.75636 5.17053L5.4034 5.52468C5.59866 5.71929 5.91461 5.71913 6.10968 5.52432L5.75636 5.17053ZM1.69466 1.12242L1.33226 1.46716L1.3417 1.47657L1.69466 1.12242ZM1.12259 1.69373L1.47602 1.33982L1.46672 1.331L1.12259 1.69373ZM5.17612 5.74184L5.52979 6.09527C5.62355 6.00145 5.67618 5.87422 5.67612 5.74159C5.67605 5.60895 5.62328 5.48177 5.52943 5.38805L5.17612 5.74184ZM1.12259 9.79811L1.4759 10.1519L1.47626 10.1515L1.12259 9.79811ZM1.12259 10.3776L0.76927 10.7314L1.12259 10.3776ZM1.69466 10.3776L1.34134 10.0238C1.33514 10.03 1.3291 10.0363 1.32323 10.0428L1.69466 10.3776ZM5.74819 6.32947L6.1015 5.97568C5.9063 5.78073 5.59008 5.78073 5.39487 5.97568L5.74819 6.32947ZM9.80172 10.3776L10.155 10.0238L9.80172 10.3776ZM10.3738 10.3776L10.0205 10.0238C10.0143 10.03 10.0082 10.0363 10.0024 10.0428L10.3738 10.3776ZM10.3738 9.79811L10.7271 9.44432L10.3738 9.79811ZM6.32026 5.75L5.96694 5.39621C5.87303 5.49 5.82026 5.61728 5.82026 5.75C5.82026 5.88272 5.87303 6.01 5.96694 6.10379L6.32026 5.75ZM10.3738 1.70189L10.0291 1.33948L10.0205 1.3481L10.3738 1.70189ZM10.7435 0.768633C10.3848 0.410456 9.81523 0.410456 9.45657 0.768633L10.1632 1.47621C10.1512 1.48816 10.1284 1.5 10.1 1.5C10.0716 1.5 10.0488 1.48816 10.0368 1.47621L10.7435 0.768633ZM9.45657 0.768633L5.40304 4.81674L6.10968 5.52432L10.1632 1.47621L9.45657 0.768633ZM6.10932 4.81639L2.04762 0.768277L1.3417 1.47657L5.4034 5.52468L6.10932 4.81639ZM2.05693 0.777806C1.70457 0.407398 1.11268 0.407398 0.760317 0.777806L1.48486 1.46704C1.44305 1.51099 1.37419 1.51099 1.33239 1.46704L2.05693 0.777806ZM0.760317 0.777806C0.438056 1.11657 0.390592 1.68848 0.778454 2.05646L1.46672 1.331C1.49115 1.35418 1.50332 1.38786 1.50304 1.41609C1.50279 1.44141 1.49322 1.45825 1.48486 1.46704L0.760317 0.777806ZM0.76927 2.04752L4.8228 6.09563L5.52943 5.38805L1.4759 1.33994L0.76927 2.04752ZM4.82244 5.3884L0.768914 9.44468L1.47626 10.1515L5.52979 6.09527L4.82244 5.3884ZM0.76927 9.44432C0.410243 9.80287 0.410243 10.3728 0.76927 10.7314L1.4759 10.0238C1.48789 10.0358 1.5 10.0589 1.5 10.0878C1.5 10.1168 1.48789 10.1399 1.4759 10.1519L0.76927 9.44432ZM0.76927 10.7314C0.943745 10.9056 1.17666 11 1.40862 11V10C1.42814 10 1.44219 10.0039 1.45156 10.0078C1.46145 10.0119 1.46955 10.0174 1.4759 10.0238L0.76927 10.7314ZM1.40862 11C1.62444 11 1.88283 10.9156 2.06608 10.7123L1.32323 10.0428C1.34441 10.0193 1.36355 10.0099 1.3721 10.0064C1.38029 10.003 1.39115 10 1.40862 10V11ZM2.04797 10.7314L6.1015 6.68326L5.39487 5.97568L1.34134 10.0238L2.04797 10.7314ZM5.39487 6.68326L9.4484 10.7314L10.155 10.0238L6.1015 5.97568L5.39487 6.68326ZM9.4484 10.7314C9.62288 10.9056 9.85579 11 10.0878 11V10C10.1073 10 10.1213 10.0039 10.1307 10.0078C10.1406 10.0119 10.1487 10.0174 10.155 10.0238L9.4484 10.7314ZM10.0878 11C10.3036 11 10.562 10.9156 10.7452 10.7123L10.0024 10.0428C10.0235 10.0193 10.0427 10.0099 10.0512 10.0064C10.0594 10.003 10.0703 10 10.0878 10V11ZM10.7271 10.7314C11.0861 10.3728 11.0861 9.80287 10.7271 9.44432L10.0205 10.1519C10.0085 10.1399 9.99638 10.1168 9.99638 10.0878C9.99638 10.0589 10.0085 10.0358 10.0205 10.0238L10.7271 10.7314ZM10.7271 9.44432L6.67357 5.39621L5.96694 6.10379L10.0205 10.1519L10.7271 9.44432ZM6.67357 6.10379L10.7271 2.05568L10.0205 1.3481L5.96694 5.39621L6.67357 6.10379ZM10.7184 2.06419C11.0887 1.71197 11.1026 1.12727 10.7435 0.768633L10.0368 1.47621C9.98825 1.42772 10.0021 1.36535 10.0292 1.33959L10.7184 2.06419Z" fill="black" mask="url(#path-1-outside-1_3254_897)"/>
</svg>
