<svg xmlns="http://www.w3.org/2000/svg" width="24" height="24" viewBox="0 0 24 24">
  <path fill-rule="evenodd" d="M12 9a1 1 0 1 0 0-2 1 1 0 0 0 0 2Z" clip-rule="evenodd"/>
  <path fill-rule="evenodd" d="M12 20.667c-4.779 0-8.667-3.888-8.667-8.667S7.221 3.333 12 3.333 20.667 7.221 20.667 12 16.779 20.667 12 20.667ZM12 2C6.486 2 2 6.486 2 12s4.486 10 10 10 10-4.486 10-10S17.514 2 12 2Z" clip-rule="evenodd"/>
  <path fill-rule="evenodd" d="M12.667 10H10v1.333h1.333v5.334H10V18h4v-1.333h-1.333V10Z" clip-rule="evenodd"/>
</svg>
