<svg width="14" height="14" viewBox="0 0 14 14" fill="none" xmlns="http://www.w3.org/2000/svg">
<path d="M7 0C3.13812 0 0 3.13812 0 7C0 10.8619 3.13812 14 7 14C10.8619 14 14 10.8619 14 7C14 3.13812 10.8564 0 7 0ZM7 13.442C3.44199 13.442 0.552486 10.5525 0.552486 7C0.552486 3.44751 3.44199 0.552486 7 0.552486C10.558 0.552486 13.4475 3.44199 13.4475 7C13.4475 10.558 10.5525 13.442 7 13.442Z" fill="black" fill-opacity="0.7"/>
<path d="M6.22699 4.41041C6.11097 4.31097 5.9397 4.32201 5.83473 4.43804C5.73528 4.55406 5.74633 4.72533 5.86235 4.8303L8.34854 7.0071L5.86235 9.22809C5.74633 9.32754 5.74081 9.50433 5.84025 9.62036C5.8955 9.68113 5.97285 9.71428 6.04467 9.71428C6.11097 9.71428 6.17727 9.69218 6.22699 9.64246L8.94523 7.21704C9.006 7.16179 9.03915 7.08997 9.03915 7.0071C9.03915 6.92975 9.006 6.8524 8.94523 6.80268L6.22699 4.41041Z" fill="black" fill-opacity="0.7"/>
</svg>
