<svg width="14" height="14" viewBox="0 0 14 14" fill="none" xmlns="http://www.w3.org/2000/svg">
<path d="M7 14C10.8619 14 14 10.8619 14 7C14 3.13812 10.8619 -2.81373e-07 7 -6.27641e-07C3.13812 -9.73908e-07 9.25851e-07 3.13812 5.9667e-07 7C2.67489e-07 10.8619 3.14365 14 7 14ZM7 0.55801C10.558 0.558011 13.4475 3.44751 13.4475 7C13.4475 10.5525 10.558 13.4475 7 13.4475C3.44199 13.4475 0.552487 10.558 0.552487 7C0.552487 3.44199 3.44751 0.55801 7 0.55801Z" fill="black" fill-opacity="0.7"/>
<path d="M7.77301 9.58959C7.88903 9.68903 8.0603 9.67799 8.16527 9.56196C8.26472 9.44594 8.25367 9.27467 8.13765 9.1697L5.65146 6.9929L8.13765 4.77191C8.25367 4.67246 8.25919 4.49567 8.15975 4.37964C8.1045 4.31887 8.02715 4.28572 7.95533 4.28572C7.88903 4.28572 7.82273 4.30782 7.77301 4.35754L5.05477 6.78296C4.994 6.83821 4.96085 6.91003 4.96085 6.9929C4.96085 7.07025 4.994 7.1476 5.05477 7.19732L7.77301 9.58959Z" fill="black" fill-opacity="0.7"/>
</svg>
