<svg width="25" height="24" viewBox="0 0 25 24" fill="none" xmlns="http://www.w3.org/2000/svg">
<path fill-rule="evenodd" clip-rule="evenodd" d="M0.775391 12C0.775391 5.37964 6.15502 0 12.7754 0C19.3863 0 24.7754 5.37964 24.7754 12C24.7754 18.6204 19.3957 24 12.7754 24C6.15502 24 0.775391 18.6204 0.775391 12ZM1.72251 12C1.72251 18.09 6.67594 23.0434 12.7754 23.0434C18.8653 23.0434 23.8282 18.0994 23.8282 12C23.8282 5.90055 18.8748 0.947119 12.7754 0.947119C6.67594 0.947119 1.72251 5.91002 1.72251 12ZM17.4718 6.63035C17.6613 6.44093 17.9549 6.44093 18.1443 6.63035C18.3242 6.8103 18.3242 7.11338 18.1253 7.3028L13.4276 12.0005L18.1253 16.6982C18.3148 16.8876 18.3148 17.1812 18.1253 17.3706C18.0401 17.4653 17.9075 17.5127 17.7938 17.5127C17.6802 17.5127 17.5571 17.4653 17.4624 17.3706L12.7647 12.6729L8.06696 17.3706C7.98172 17.4653 7.84912 17.5127 7.73547 17.5127C7.62181 17.5127 7.49869 17.4653 7.40397 17.3706C7.21455 17.1812 7.21455 16.8876 7.40397 16.6982L12.1017 11.991L7.40397 7.29333C7.21455 7.11338 7.22402 6.81977 7.40397 6.63035C7.58393 6.44093 7.887 6.44093 8.06696 6.63035L12.7741 11.328L17.4718 6.63035Z" fill="#221F20"/>
</svg>
