<svg width="18" height="18" viewBox="0 0 18 18" fill="none" xmlns="http://www.w3.org/2000/svg">
<path d="M18 16.4151L14.2642 12.6793C15.3044 11.3136 15.8619 9.64128 15.8491 7.92461C15.8555 6.88215 15.655 5.84878 15.259 4.88442C14.8631 3.92006 14.2796 3.04391 13.5425 2.30676C12.8053 1.56962 11.9292 0.986152 10.9648 0.5902C10.0004 0.194248 8.96707 -0.00631204 7.92461 0.000151389C6.88215 -0.00631204 5.84878 0.194248 4.88442 0.5902C3.92006 0.986152 3.04391 1.56962 2.30676 2.30676C1.56962 3.04391 0.986152 3.92006 0.5902 4.88442C0.194248 5.84878 -0.00631204 6.88215 0.000151389 7.92461C-0.00631204 8.96707 0.194248 10.0004 0.5902 10.9648C0.986152 11.9292 1.56962 12.8053 2.30676 13.5425C3.04391 14.2796 3.92006 14.8631 4.88442 15.259C5.84878 15.655 6.88215 15.8555 7.92461 15.8491C9.64128 15.8619 11.3136 15.3044 12.6793 14.2642L16.4151 18L18 16.4151ZM2.26428 7.92461C2.25687 7.17923 2.39822 6.43985 2.68005 5.74976C2.96188 5.05967 3.37854 4.43273 3.90563 3.90563C4.43273 3.37854 5.05967 2.96188 5.74976 2.68005C6.43985 2.39822 7.17923 2.25687 7.92461 2.26428C8.67 2.25687 9.40938 2.39822 10.0995 2.68005C10.7896 2.96188 11.4165 3.37854 11.9436 3.90563C12.4707 4.43273 12.8873 5.05967 13.1692 5.74976C13.451 6.43985 13.5924 7.17923 13.5849 7.92461C13.5924 8.67 13.451 9.40938 13.1692 10.0995C12.8873 10.7896 12.4707 11.4165 11.9436 11.9436C11.4165 12.4707 10.7896 12.8873 10.0995 13.1692C9.40938 13.451 8.67 13.5924 7.92461 13.5849C7.17923 13.5924 6.43985 13.451 5.74976 13.1692C5.05967 12.8873 4.43273 12.4707 3.90563 11.9436C3.37854 11.4165 2.96188 10.7896 2.68005 10.0995C2.39822 9.40938 2.25687 8.67 2.26428 7.92461Z" fill="black"/>
</svg>
