<svg width="24" height="24" viewBox="0 0 24 24" fill="none" xmlns="http://www.w3.org/2000/svg">
<path d="M23.8639 23.1948L15.5751 14.9173C17.1313 13.1844 17.9501 10.912 17.8572 8.58384C17.7644 6.2557 16.7672 4.05583 15.0779 2.45269C13.3887 0.849546 11.141 -0.0302006 8.81336 0.000791936C6.48576 0.0317845 4.26219 0.971067 2.61617 2.61862C0.970161 4.26617 0.0317548 6.49181 0.000791197 8.8216C-0.0301724 11.1514 0.848753 13.4012 2.4504 15.092C4.05205 16.7828 6.24986 17.781 8.57582 17.8739C10.9018 17.9669 13.1721 17.1473 14.9033 15.5897L23.1921 23.8673C23.2358 23.9101 23.2876 23.9439 23.3444 23.9667C23.4013 23.9895 23.4621 24.0007 23.5233 23.9998C23.586 24.0015 23.6484 23.9906 23.7069 23.9678C23.7654 23.945 23.8187 23.9109 23.8639 23.8673C23.9512 23.7771 24 23.6565 24 23.531C24 23.4055 23.9512 23.2849 23.8639 23.1948ZM8.95171 16.9724C7.36475 16.9724 5.81342 16.5014 4.49391 15.6189C3.1744 14.7364 2.14597 13.4821 1.53867 12.0146C0.931362 10.547 0.772463 8.93222 1.08206 7.3743C1.39167 5.81637 2.15586 4.38533 3.27801 3.26213C4.40016 2.13893 5.82987 1.37402 7.38634 1.06413C8.94281 0.754243 10.5561 0.91329 12.0223 1.52116C13.4885 2.12903 14.7416 3.15843 15.6233 4.47917C16.5049 5.79991 16.9755 7.35268 16.9755 8.94113C16.9755 9.99582 16.768 11.0402 16.3647 12.0146C15.9615 12.989 15.3705 13.8743 14.6254 14.6201C13.8803 15.3659 12.9958 15.9575 12.0223 16.3611C11.0488 16.7647 10.0054 16.9724 8.95171 16.9724Z" fill="black"/>
</svg>
